<svg width="24" height="24" viewBox="0 0 24 24" fill="none" xmlns="http://www.w3.org/2000/svg">
<path d="M21.1004 8.87519L12.7004 17.3002C12.6004 17.4002 12.4921 17.4709 12.3754 17.5122C12.2587 17.5542 12.1337 17.5752 12.0004 17.5752C11.8671 17.5752 11.7421 17.5542 11.6254 17.5122C11.5087 17.4709 11.4004 17.4002 11.3004 17.3002L2.87539 8.8752C2.64206 8.64186 2.52539 8.3502 2.52539 8.0002C2.52539 7.6502 2.65039 7.3502 2.90039 7.1002C3.15039 6.8502 3.44206 6.7252 3.77539 6.7252C4.10872 6.7252 4.40039 6.8502 4.65039 7.1002L12.0004 14.4502L19.3504 7.1002C19.5837 6.86686 19.8711 6.75019 20.2124 6.75019C20.5544 6.75019 20.8504 6.87519 21.1004 7.12519C21.3504 7.37519 21.4754 7.66686 21.4754 8.00019C21.4754 8.33353 21.3504 8.62519 21.1004 8.87519Z" fill="black" fill-opacity="0.2"/>
</svg>
