<svg width="24" height="24" viewBox="0 0 24 24" fill="none" xmlns="http://www.w3.org/2000/svg">
<path d="M8.8752 2.89961L17.3002 11.2996C17.4002 11.3996 17.4709 11.5079 17.5122 11.6246C17.5542 11.7413 17.5752 11.8663 17.5752 11.9996C17.5752 12.1329 17.5542 12.2579 17.5122 12.3746C17.4709 12.4913 17.4002 12.5996 17.3002 12.6996L8.8752 21.1246C8.64186 21.3579 8.3502 21.4746 8.0002 21.4746C7.6502 21.4746 7.3502 21.3496 7.1002 21.0996C6.8502 20.8496 6.7252 20.5579 6.7252 20.2246C6.7252 19.8913 6.8502 19.5996 7.1002 19.3496L14.4502 11.9996L7.1002 4.64961C6.86686 4.41627 6.7502 4.12894 6.7502 3.78761C6.7502 3.44561 6.8752 3.14961 7.1252 2.89961C7.3752 2.64961 7.66686 2.52461 8.0002 2.52461C8.33353 2.52461 8.6252 2.64961 8.8752 2.89961Z" fill="black" fill-opacity="0.2"/>
</svg>
