<svg width="1386" height="929" viewBox="0 0 1386 929" fill="none" xmlns="http://www.w3.org/2000/svg">
<path d="M243.706 59.6973C242.221 59.3857 240.863 58.6408 239.801 57.5569C238.74 56.473 238.024 55.0987 237.744 53.6078C237.463 52.1169 237.631 50.5764 238.227 49.1811C238.822 47.7857 239.818 46.5983 241.088 45.7688C242.809 44.7177 244.866 44.3635 246.839 44.7785C248.813 45.1936 250.553 46.3466 251.704 48.0019C252.527 49.2729 252.956 50.7588 252.937 52.2728C252.918 53.7867 252.452 55.2613 251.597 56.511C250.742 57.7608 249.537 58.7301 248.133 59.297C246.729 59.8639 245.189 60.0032 243.706 59.6973Z" fill="#E33443"/>
<path d="M221.362 53.8561C220.375 53.6503 219.438 53.2509 218.606 52.6809C217.774 52.111 217.064 51.3818 216.515 50.5355C215.412 48.8284 215.022 46.7569 215.428 44.7653C215.852 42.7785 217.044 41.0397 218.744 39.9277C220.466 38.8813 222.522 38.5299 224.494 38.9446C226.466 39.3594 228.206 40.5093 229.36 42.1607C230.472 43.8646 230.863 45.9394 230.448 47.9309C230.034 49.9168 228.85 51.6578 227.155 52.7728C225.461 53.8878 223.393 54.2861 221.406 53.8805L221.362 53.8561Z" fill="#E33443"/>
<path d="M197.878 49.2793C196.893 49.072 195.959 48.6724 195.129 48.1034C194.298 47.5344 193.589 46.8072 193.04 45.9635C191.937 44.2564 191.546 42.1849 191.953 40.1933C192.373 38.2016 193.568 36.4585 195.273 35.3469C196.993 34.3003 199.048 33.9489 201.018 34.3646C202.988 34.7802 204.725 35.9316 205.876 37.5839C206.432 38.4253 206.814 39.3688 207.001 40.3596C207.187 41.3503 207.175 42.3682 206.964 43.3541C206.547 45.3386 205.363 47.0779 203.669 48.1925C201.975 49.3071 199.909 49.7065 197.921 49.3036L197.878 49.2793Z" fill="#E33443"/>
<path d="M174.521 44.5566C173.022 44.321 171.626 43.6459 170.511 42.6168C169.395 41.5877 168.61 40.2508 168.255 38.7754C167.9 37.3001 167.99 35.7524 168.515 34.3284C169.039 32.9044 169.974 31.668 171.202 30.7757C172.868 29.642 174.903 29.1858 176.893 29.5C178.883 29.8142 180.679 30.8752 181.915 32.4669C182.511 33.2808 182.941 34.2042 183.18 35.1843C183.42 36.1645 183.463 37.1822 183.309 38.1793C182.985 40.1869 181.88 41.9847 180.235 43.1805C178.59 44.3762 176.539 44.8727 174.529 44.5615L174.521 44.5566Z" fill="#E33443"/>
<path d="M151.209 40.8207C150.213 40.6641 149.258 40.3125 148.398 39.7859C147.538 39.2594 146.791 38.5683 146.199 37.7523C145.003 36.1074 144.509 34.0547 144.826 32.0458C145.144 30.0369 146.246 28.2362 147.89 27.0397C149.557 25.9084 151.591 25.4537 153.581 25.7678C155.57 26.0819 157.366 27.1413 158.603 28.731C159.495 29.9574 160.004 31.421 160.065 32.9365C160.126 34.4521 159.736 35.9517 158.944 37.2457C158.153 38.5397 156.996 39.57 155.619 40.2063C154.242 40.8426 152.707 41.0565 151.209 40.8207Z" fill="#E33443"/>
<path d="M127.515 36.7227C125.523 36.3019 123.78 35.1076 122.669 33.4021C121.572 31.6943 121.184 29.6257 121.59 27.6368C122.011 25.6451 123.205 23.9019 124.91 22.7904C126.63 21.7438 128.685 21.3917 130.655 21.8056C132.626 22.2195 134.364 23.3683 135.518 25.0186C136.07 25.8613 136.451 26.8049 136.638 27.7952C136.824 28.7854 136.813 29.8027 136.606 30.7888C136.189 32.7746 135.004 34.5153 133.309 35.6313C131.615 36.7474 129.548 37.1484 127.558 36.747L127.515 36.7227Z" fill="#E33443"/>
<path d="M103.368 32.3488C102.372 32.1922 101.417 31.8406 100.557 31.314C99.6972 30.7875 98.9499 30.0965 98.3579 29.2805C97.1619 27.6355 96.6681 25.5829 96.9853 23.574C97.3025 21.5651 98.4044 19.7644 100.049 18.5679C101.715 17.4342 103.75 16.978 105.74 17.2922C107.731 17.6065 109.526 18.6674 110.762 20.2591C111.964 21.9068 112.464 23.9644 112.151 25.9802C111.828 27.9864 110.723 29.783 109.079 30.9772C107.435 32.1715 105.384 32.6663 103.376 32.3537L103.368 32.3488Z" fill="#E33443"/>
<path d="M80.0511 28.6221C78.553 28.3829 77.1593 27.7054 76.0458 26.6751C74.9323 25.6448 74.1489 24.3077 73.7945 22.8326C73.44 21.3576 73.5303 19.8106 74.054 18.3868C74.5778 16.963 75.5114 15.7262 76.7373 14.8324C78.4044 13.7035 80.4386 13.251 82.4271 13.5667C84.4156 13.8824 86.2094 14.9426 87.445 16.5324C88.0412 17.3462 88.4713 18.2696 88.7106 19.2498C88.9499 20.2299 88.9937 21.2476 88.8395 22.2447C88.5154 24.2523 87.4104 26.0502 85.7655 27.2459C84.1206 28.4416 82.0695 28.9381 80.0599 28.627L80.0511 28.6221Z" fill="#E33443"/>
<path d="M56.362 24.5155C54.3703 24.0947 52.627 22.9003 51.5155 21.1948C50.4155 19.4882 50.0282 17.4184 50.4367 15.4295C50.644 14.4447 51.0436 13.5105 51.6125 12.6803C52.1815 11.8502 52.9088 11.1405 53.7525 10.5919C55.4713 9.54047 57.5269 9.18555 59.4988 9.59975C61.4707 10.0139 63.2098 11.1659 64.3603 12.8201C64.9157 13.6614 65.298 14.6051 65.4847 15.5958C65.6714 16.5865 65.6589 17.6044 65.4479 18.5903C65.0314 20.5748 63.847 22.3141 62.153 23.4287C60.459 24.5433 58.3929 24.9427 56.4056 24.5398L56.362 24.5155Z" fill="#E33443"/>
<path d="M32.5662 21.6879C30.5567 21.364 28.7572 20.2577 27.5611 18.6108C26.965 17.7994 26.5346 16.8784 26.2948 15.9006C26.0549 14.9228 26.0102 13.9073 26.1631 12.9121C26.316 11.917 26.6636 10.9617 27.186 10.1011C27.7084 9.24038 28.3954 8.49116 29.2076 7.8962C30.8741 6.76489 32.9087 6.31012 34.8983 6.62422C36.8878 6.93832 38.6834 7.99779 39.9203 9.58748C40.8111 10.8153 41.3182 12.2793 41.378 13.795C41.4377 15.3107 41.0473 16.8102 40.2559 18.1043C39.4645 19.3984 38.3077 20.4291 36.9312 21.0665C35.5547 21.7039 34.0203 21.9194 32.5215 21.6859L32.5662 21.6879Z" fill="#E33443"/>
<path d="M9.25423 17.9521C7.24436 17.6316 5.44312 16.5284 4.24427 14.8837C3.05245 13.231 2.55375 11.1779 2.85457 9.16262C3.17808 7.15746 4.27876 5.36055 5.91806 4.16137C7.58379 3.0277 9.61903 2.57158 11.6093 2.88579C13.5996 3.2 15.3952 4.26096 16.6307 5.85266C17.227 6.66654 17.6571 7.58994 17.8963 8.5701C18.1356 9.55025 18.1794 10.5679 18.0253 11.565C17.7012 13.5726 16.5961 15.3705 14.9512 16.5662C13.3063 17.7619 11.2551 18.2584 9.24549 17.9472L9.25423 17.9521Z" fill="#E33443"/>
<path d="M250.48 801.91C250.247 800.929 250.21 799.912 250.371 798.916C250.532 797.921 250.888 796.967 251.418 796.109C251.949 795.252 252.643 794.508 253.462 793.919C254.281 793.331 255.208 792.91 256.19 792.68C257.17 792.449 258.187 792.413 259.181 792.574C260.175 792.736 261.128 793.092 261.984 793.623C262.841 794.153 263.584 794.847 264.172 795.665C264.76 796.483 265.181 797.409 265.41 798.39C265.643 799.371 265.68 800.389 265.519 801.384C265.358 802.38 265.002 803.333 264.472 804.191C263.941 805.049 263.247 805.793 262.428 806.381C261.609 806.97 260.682 807.391 259.7 807.62C258.72 807.852 257.703 807.888 256.709 807.726C255.715 807.564 254.762 807.208 253.906 806.678C253.049 806.147 252.306 805.453 251.718 804.635C251.13 803.817 250.709 802.891 250.48 801.91ZM244.56 776.76C244.328 775.779 244.292 774.762 244.454 773.767C244.615 772.772 244.971 771.819 245.502 770.962C246.032 770.104 246.726 769.36 247.544 768.771C248.363 768.183 249.289 767.761 250.27 767.53C251.251 767.298 252.268 767.262 253.263 767.424C254.258 767.586 255.211 767.942 256.069 768.472C256.926 769.002 257.67 769.696 258.259 770.515C258.848 771.333 259.269 772.259 259.5 773.24C259.733 774.222 259.77 775.24 259.608 776.236C259.446 777.232 259.09 778.186 258.558 779.044C258.027 779.902 257.331 780.646 256.511 781.234C255.691 781.822 254.763 782.242 253.78 782.47C252.8 782.7 251.785 782.735 250.792 782.573C249.799 782.41 248.847 782.054 247.992 781.524C247.137 780.993 246.394 780.3 245.807 779.482C245.22 778.665 244.8 777.74 244.57 776.76H244.56ZM238.64 751.62C238.407 750.639 238.37 749.622 238.531 748.626C238.692 747.631 239.048 746.677 239.578 745.819C240.109 744.962 240.803 744.218 241.622 743.629C242.441 743.041 243.368 742.62 244.35 742.39C245.331 742.159 246.348 742.122 247.343 742.284C248.338 742.446 249.291 742.802 250.149 743.332C251.006 743.862 251.75 744.556 252.339 745.375C252.928 746.193 253.349 747.119 253.58 748.1C254.042 750.077 253.702 752.157 252.633 753.883C251.565 755.61 249.856 756.842 247.88 757.31C246.9 757.544 245.884 757.582 244.89 757.422C243.895 757.262 242.942 756.908 242.085 756.379C241.228 755.851 240.483 755.159 239.894 754.342C239.304 753.525 238.882 752.6 238.65 751.62H238.64ZM232.72 726.48C232.487 725.499 232.45 724.482 232.611 723.486C232.772 722.491 233.128 721.537 233.658 720.68C234.189 719.822 234.883 719.078 235.702 718.489C236.521 717.901 237.448 717.48 238.43 717.25C239.411 717.018 240.428 716.982 241.423 717.144C242.418 717.306 243.371 717.662 244.229 718.192C245.086 718.722 245.83 719.416 246.419 720.235C247.008 721.053 247.429 721.979 247.66 722.96C247.892 723.941 247.928 724.958 247.766 725.953C247.605 726.948 247.249 727.902 246.718 728.759C246.188 729.616 245.494 730.36 244.676 730.949C243.857 731.538 242.931 731.96 241.95 732.19C240.97 732.422 239.953 732.458 238.959 732.296C237.965 732.134 237.012 731.778 236.156 731.248C235.299 730.717 234.556 730.023 233.968 729.205C233.38 728.387 232.959 727.461 232.73 726.48H232.72ZM226.81 701.31C226.347 699.339 226.683 697.264 227.746 695.54C228.809 693.816 230.511 692.583 232.48 692.11C233.461 691.877 234.478 691.84 235.474 692.001C236.469 692.162 237.423 692.518 238.281 693.049C239.138 693.579 239.883 694.274 240.471 695.092C241.06 695.911 241.481 696.838 241.71 697.82C241.942 698.801 241.978 699.817 241.816 700.811C241.654 701.806 241.298 702.758 240.768 703.615C240.237 704.471 239.543 705.214 238.725 705.802C237.907 706.39 236.981 706.811 236 707.04C235.02 707.268 234.005 707.301 233.013 707.137C232.02 706.972 231.07 706.614 230.217 706.081C229.363 705.549 228.623 704.854 228.038 704.035C227.454 703.216 227.036 702.29 226.81 701.31ZM220.89 676.17C220.658 675.19 220.622 674.173 220.784 673.179C220.946 672.185 221.302 671.232 221.832 670.376C222.363 669.519 223.057 668.776 223.875 668.188C224.693 667.6 225.619 667.18 226.6 666.95C227.581 666.716 228.599 666.678 229.595 666.838C230.591 666.998 231.545 667.354 232.403 667.885C233.261 668.416 234.005 669.111 234.593 669.93C235.182 670.75 235.602 671.678 235.83 672.66C236.29 674.64 235.947 676.721 234.877 678.448C233.807 680.176 232.097 681.41 230.12 681.88C228.142 682.341 226.062 682.001 224.334 680.935C222.605 679.87 221.367 678.164 220.89 676.19V676.17ZM214.97 651.03C214.737 650.048 214.7 649.03 214.862 648.034C215.024 647.038 215.38 646.084 215.912 645.227C216.443 644.369 217.139 643.625 217.959 643.037C218.779 642.449 219.707 642.029 220.69 641.8C221.67 641.569 222.687 641.533 223.681 641.694C224.675 641.856 225.628 642.212 226.484 642.743C227.341 643.273 228.084 643.967 228.672 644.785C229.26 645.603 229.681 646.529 229.91 647.51C230.367 649.491 230.024 651.572 228.954 653.3C227.885 655.029 226.176 656.265 224.2 656.74C222.222 657.201 220.142 656.861 218.414 655.795C216.685 654.73 215.447 653.024 214.97 651.05V651.03ZM209.05 625.88C208.578 623.894 208.915 621.801 209.986 620.063C211.056 618.325 212.774 617.083 214.76 616.61C215.744 616.382 216.764 616.35 217.761 616.516C218.757 616.682 219.711 617.043 220.569 617.578C221.426 618.112 222.169 618.811 222.756 619.633C223.343 620.456 223.763 621.386 223.99 622.37C224.452 624.35 224.111 626.432 223.04 628.16C221.97 629.889 220.258 631.122 218.28 631.59C216.302 632.053 214.221 631.715 212.492 630.649C210.762 629.583 209.525 627.876 209.05 625.9V625.88ZM203.12 600.69C202.889 599.709 202.853 598.692 203.015 597.697C203.178 596.702 203.535 595.749 204.066 594.893C204.598 594.036 205.293 593.293 206.112 592.706C206.931 592.118 207.858 591.699 208.84 591.47C209.82 591.236 210.838 591.198 211.833 591.358C212.828 591.519 213.782 591.875 214.639 592.406C215.496 592.936 216.239 593.632 216.827 594.451C217.414 595.27 217.833 596.198 218.06 597.18C218.294 598.161 218.332 599.178 218.172 600.173C218.011 601.168 217.655 602.122 217.125 602.979C216.594 603.836 215.899 604.58 215.079 605.167C214.26 605.754 213.332 606.173 212.35 606.4C211.37 606.634 210.354 606.672 209.36 606.512C208.365 606.352 207.412 605.998 206.555 605.469C205.698 604.941 204.953 604.248 204.364 603.432C203.774 602.615 203.352 601.69 203.12 600.71V600.69ZM197.21 575.55C196.978 574.569 196.942 573.552 197.104 572.557C197.265 571.562 197.621 570.609 198.152 569.752C198.682 568.894 199.376 568.15 200.194 567.561C201.013 566.973 201.939 566.551 202.92 566.32C203.9 566.089 204.917 566.053 205.911 566.214C206.905 566.376 207.858 566.732 208.714 567.263C209.571 567.793 210.314 568.487 210.902 569.305C211.49 570.123 211.911 571.049 212.14 572.03C212.374 573.011 212.413 574.029 212.252 575.025C212.092 576.021 211.736 576.975 211.205 577.833C210.675 578.691 209.979 579.435 209.16 580.024C208.34 580.612 207.413 581.032 206.43 581.26C205.451 581.492 204.436 581.529 203.443 581.369C202.449 581.208 201.498 580.854 200.641 580.325C199.785 579.797 199.041 579.105 198.453 578.289C197.864 577.473 197.442 576.549 197.21 575.57V575.55ZM191.29 550.4C191.057 549.42 191.02 548.403 191.181 547.408C191.342 546.413 191.698 545.46 192.229 544.604C192.759 543.747 193.454 543.003 194.273 542.416C195.092 541.828 196.018 541.408 197 541.18C197.98 540.946 198.998 540.908 199.993 541.068C200.988 541.229 201.942 541.585 202.799 542.116C203.656 542.646 204.399 543.342 204.987 544.161C205.574 544.98 205.993 545.908 206.22 546.89C206.454 547.871 206.492 548.888 206.332 549.883C206.171 550.878 205.815 551.832 205.285 552.689C204.754 553.546 204.059 554.29 203.239 554.877C202.42 555.464 201.492 555.883 200.51 556.11C199.531 556.345 198.515 556.384 197.521 556.224C196.527 556.065 195.574 555.711 194.717 555.182C193.86 554.653 193.116 553.961 192.528 553.143C191.94 552.326 191.519 551.401 191.29 550.42V550.4ZM200.78 530.67C198.769 530.383 196.955 529.31 195.735 527.686C194.514 526.063 193.987 524.022 194.27 522.01C194.569 519.993 195.654 518.176 197.287 516.954C198.921 515.733 200.97 515.207 202.99 515.49C205 515.782 206.812 516.859 208.03 518.483C209.248 520.108 209.773 522.149 209.49 524.16C209.272 525.694 208.597 527.126 207.553 528.271C206.51 529.416 205.147 530.221 203.64 530.58C202.702 530.793 201.732 530.83 200.78 530.69V530.67ZM204.43 505.12C202.419 504.83 200.604 503.755 199.384 502.13C198.164 500.505 197.637 498.463 197.92 496.45C198.053 495.45 198.385 494.487 198.895 493.616C199.405 492.746 200.083 491.986 200.891 491.38C201.698 490.775 202.618 490.337 203.596 490.091C204.575 489.846 205.593 489.798 206.59 489.95C207.59 490.082 208.553 490.413 209.423 490.922C210.294 491.431 211.054 492.108 211.659 492.915C212.265 493.721 212.703 494.64 212.949 495.618C213.194 496.596 213.242 497.613 213.09 498.61C212.88 500.132 212.213 501.555 211.177 502.69C210.142 503.826 208.786 504.621 207.29 504.97C206.355 505.199 205.386 505.256 204.43 505.14V505.12ZM208.07 479.51C206.059 479.223 204.245 478.15 203.024 476.526C201.804 474.903 201.277 472.861 201.56 470.85C201.85 468.839 202.925 467.024 204.55 465.804C206.175 464.584 208.218 464.058 210.23 464.34C211.227 464.478 212.188 464.811 213.056 465.322C213.923 465.832 214.681 466.51 215.286 467.315C215.89 468.12 216.329 469.037 216.577 470.013C216.825 470.989 216.877 472.004 216.73 473C216.532 474.531 215.872 475.965 214.837 477.111C213.803 478.256 212.443 479.058 210.94 479.41C209.999 479.63 209.026 479.671 208.07 479.53V479.51ZM211.72 453.95C209.71 453.663 207.896 452.589 206.678 450.966C205.459 449.342 204.934 447.3 205.22 445.29C205.353 444.29 205.682 443.326 206.19 442.454C206.698 441.582 207.373 440.819 208.178 440.21C208.982 439.601 209.9 439.157 210.877 438.905C211.854 438.652 212.871 438.597 213.87 438.74C215.882 439.045 217.694 440.129 218.912 441.759C220.131 443.39 220.658 445.434 220.38 447.45C220.169 448.971 219.502 450.392 218.466 451.526C217.431 452.66 216.076 453.453 214.58 453.8C213.647 454.042 212.675 454.099 211.72 453.97V453.95ZM215.38 428.41C213.365 428.111 211.549 427.028 210.328 425.397C209.107 423.765 208.58 421.718 208.86 419.7C209.147 417.69 210.221 415.877 211.845 414.658C213.469 413.439 215.51 412.915 217.52 413.2C218.516 413.341 219.474 413.677 220.34 414.189C221.206 414.701 221.962 415.378 222.566 416.182C223.169 416.987 223.609 417.902 223.858 418.877C224.108 419.851 224.163 420.865 224.02 421.86C223.821 423.403 223.155 424.848 222.111 426.001C221.067 427.154 219.695 427.96 218.18 428.31C217.261 428.52 216.311 428.554 215.38 428.41ZM219.02 402.81C218.02 402.676 217.056 402.346 216.184 401.838C215.312 401.33 214.549 400.655 213.94 399.851C213.33 399.047 212.885 398.13 212.631 397.153C212.377 396.177 212.319 395.159 212.46 394.16C212.762 392.146 213.846 390.332 215.476 389.112C217.107 387.891 219.152 387.363 221.17 387.64C223.183 387.928 224.999 389.002 226.219 390.628C227.44 392.254 227.965 394.297 227.68 396.31C227.457 397.838 226.778 399.263 225.733 400.399C224.687 401.536 223.324 402.331 221.82 402.68C220.903 402.9 219.953 402.944 219.02 402.81ZM222.61 377.21C221.614 377.069 220.655 376.733 219.789 376.222C218.923 375.71 218.166 375.033 217.561 374.229C216.957 373.425 216.516 372.509 216.266 371.535C216.015 370.56 215.959 369.546 216.1 368.55C216.395 366.533 217.476 364.714 219.109 363.492C220.741 362.27 222.791 361.744 224.81 362.03C226.823 362.318 228.639 363.392 229.859 365.018C231.08 366.644 231.605 368.687 231.32 370.7C231.108 372.236 230.436 373.672 229.391 374.818C228.347 375.964 226.98 376.767 225.47 377.12C224.534 377.351 223.559 377.382 222.61 377.21ZM226.26 351.66C224.25 351.368 222.438 350.292 221.22 348.667C220.002 347.042 219.477 345.001 219.76 342.99C219.897 341.993 220.231 341.032 220.741 340.165C221.252 339.297 221.929 338.539 222.735 337.934C223.54 337.33 224.457 336.891 225.433 336.643C226.409 336.395 227.424 336.343 228.42 336.49C229.419 336.625 230.382 336.957 231.253 337.465C232.123 337.974 232.885 338.649 233.494 339.453C234.103 340.257 234.546 341.173 234.8 342.149C235.053 343.125 235.111 344.142 234.97 345.14C234.742 346.666 234.061 348.088 233.017 349.224C231.972 350.359 230.611 351.156 229.11 351.51C228.178 351.737 227.211 351.788 226.26 351.66ZM229.91 326.1C227.898 325.796 226.086 324.711 224.868 323.081C223.649 321.451 223.122 319.406 223.4 317.39C223.541 316.394 223.877 315.436 224.389 314.569C224.9 313.703 225.577 312.946 226.382 312.341C227.186 311.737 228.101 311.297 229.075 311.046C230.05 310.795 231.064 310.739 232.06 310.88C233.064 311.016 234.03 311.35 234.903 311.863C235.776 312.376 236.538 313.058 237.145 313.869C237.752 314.68 238.191 315.603 238.438 316.585C238.684 317.568 238.732 318.589 238.58 319.59C238.368 321.113 237.699 322.536 236.662 323.671C235.624 324.807 234.268 325.601 232.77 325.95C231.835 326.18 230.864 326.231 229.91 326.1ZM233.55 300.49C231.541 300.2 229.729 299.126 228.511 297.503C227.293 295.88 226.767 293.84 227.05 291.83C227.191 290.834 227.527 289.876 228.039 289.009C228.55 288.143 229.227 287.386 230.032 286.781C230.836 286.177 231.751 285.737 232.725 285.486C233.7 285.235 234.714 285.179 235.71 285.32C237.721 285.61 239.536 286.685 240.756 288.31C241.976 289.935 242.503 291.978 242.22 293.99C241.994 295.517 241.315 296.941 240.27 298.077C239.225 299.212 237.863 300.008 236.36 300.36C235.44 300.58 234.487 300.624 233.55 300.49ZM237.21 274.94C235.195 274.636 233.381 273.55 232.161 271.918C230.94 270.286 230.412 268.239 230.69 266.22C230.977 264.21 232.051 262.397 233.675 261.178C235.298 259.959 237.34 259.435 239.35 259.72C241.361 260.008 243.175 261.081 244.396 262.704C245.616 264.328 246.143 266.369 245.86 268.38C245.652 269.918 244.981 271.356 243.936 272.502C242.891 273.649 241.522 274.451 240.01 274.8C239.093 275.018 238.144 275.065 237.21 274.94ZM240.85 249.31C239.849 249.179 238.885 248.85 238.013 248.341C237.142 247.833 236.381 247.156 235.774 246.349C235.168 245.542 234.729 244.623 234.482 243.644C234.236 242.666 234.188 241.648 234.34 240.65C234.473 239.651 234.804 238.688 235.314 237.818C235.823 236.947 236.5 236.187 237.306 235.581C238.112 234.975 239.031 234.536 240.008 234.289C240.986 234.041 242.003 233.991 243 234.14C245.011 234.428 246.825 235.501 248.045 237.124C249.266 238.748 249.793 240.789 249.51 242.8C249.288 244.329 248.61 245.754 247.564 246.891C246.519 248.027 245.154 248.822 243.65 249.17C242.735 249.398 241.784 249.445 240.85 249.31ZM244.48 223.78C242.461 223.488 240.641 222.407 239.418 220.774C238.196 219.141 237.671 217.09 237.96 215.07C238.255 213.053 239.336 211.234 240.969 210.012C242.601 208.79 244.651 208.264 246.67 208.55C248.69 208.845 250.51 209.928 251.732 211.563C252.955 213.197 253.479 215.25 253.19 217.27C252.966 218.796 252.289 220.22 251.245 221.356C250.202 222.492 248.841 223.288 247.34 223.64C246.403 223.863 245.434 223.91 244.48 223.78ZM248.12 198.18C246.107 197.893 244.291 196.818 243.071 195.193C241.85 193.567 241.325 191.523 241.61 189.51C241.902 187.501 242.978 185.689 244.603 184.47C246.228 183.252 248.269 182.727 250.28 183.01C251.28 183.142 252.243 183.473 253.113 183.982C253.984 184.491 254.744 185.168 255.349 185.975C255.955 186.781 256.393 187.7 256.639 188.678C256.884 189.656 256.932 190.673 256.78 191.67C256.57 193.192 255.903 194.615 254.867 195.75C253.832 196.886 252.476 197.681 250.98 198.03C250.034 198.26 249.054 198.311 248.09 198.18H248.12ZM251.77 172.62C249.756 172.318 247.943 171.234 246.725 169.603C245.506 167.973 244.979 165.927 245.26 163.91C245.401 162.914 245.737 161.956 246.249 161.089C246.76 160.223 247.437 159.466 248.242 158.861C249.046 158.257 249.961 157.817 250.935 157.566C251.91 157.315 252.924 157.259 253.92 157.4C254.918 157.538 255.879 157.871 256.747 158.381C257.615 158.892 258.374 159.569 258.979 160.374C259.584 161.179 260.024 162.096 260.273 163.072C260.522 164.048 260.575 165.064 260.43 166.06C260.23 167.592 259.568 169.026 258.532 170.172C257.495 171.317 256.134 172.119 254.63 172.47C253.685 172.704 252.704 172.755 251.74 172.62H251.77ZM255.38 147.01C253.371 146.72 251.559 145.646 250.341 144.023C249.123 142.4 248.597 140.36 248.88 138.35C249.021 137.354 249.357 136.396 249.869 135.53C250.38 134.665 251.058 133.908 251.862 133.305C252.667 132.701 253.582 132.262 254.556 132.012C255.531 131.763 256.544 131.708 257.54 131.85C258.536 131.991 259.495 132.327 260.361 132.839C261.227 133.35 261.984 134.028 262.589 134.832C263.193 135.636 263.634 136.551 263.884 137.526C264.135 138.5 264.191 139.514 264.05 140.51C263.837 142.037 263.17 143.464 262.136 144.607C261.102 145.75 259.748 146.556 258.25 146.92C257.308 147.13 256.334 147.161 255.38 147.01ZM259.03 121.46C258.029 121.318 257.065 120.98 256.195 120.464C255.325 119.948 254.566 119.265 253.961 118.455C253.356 117.644 252.917 116.722 252.67 115.741C252.422 114.761 252.371 113.741 252.52 112.74C252.81 110.731 253.884 108.919 255.507 107.701C257.13 106.483 259.17 105.957 261.18 106.24C263.199 106.532 265.019 107.614 266.242 109.247C267.464 110.88 267.989 112.931 267.7 114.95C267.477 116.478 266.798 117.903 265.753 119.039C264.707 120.176 263.344 120.971 261.84 121.32C260.92 121.539 259.967 121.586 259.03 121.46ZM262.63 95.8603C260.619 95.5728 258.805 94.4997 257.584 92.8762C256.364 91.2528 255.837 89.2115 256.12 87.2002C256.424 85.1853 257.51 83.3713 259.142 82.151C260.774 80.9307 262.821 80.4023 264.84 80.6802C266.849 80.97 268.661 82.0442 269.879 83.6674C271.097 85.2906 271.623 87.3305 271.34 89.3402C271.117 90.8693 270.439 92.2959 269.394 93.4339C268.349 94.5719 266.985 95.3687 265.48 95.7203C264.547 95.9434 263.58 95.9908 262.63 95.8603ZM266.28 70.3102C264.266 70.0083 262.452 68.9246 261.231 67.2941C260.011 65.6637 259.482 63.6179 259.76 61.6002C260.064 59.5853 261.15 57.7713 262.782 56.551C264.414 55.3307 266.461 54.8023 268.48 55.0803C270.495 55.3821 272.31 56.4676 273.529 58.1007C274.749 59.7337 275.273 61.7821 274.99 63.8003C274.766 65.3262 274.089 66.7496 273.045 67.8856C272.002 69.0215 270.641 69.8176 269.14 70.1702C268.203 70.393 267.234 70.4405 266.28 70.3102Z" fill="#E33443"/>
<path d="M266.898 832.6C265.914 832.835 264.892 832.868 263.895 832.696C262.898 832.524 261.947 832.151 261.098 831.6C260.235 831.092 259.487 830.411 258.898 829.601C258.31 828.791 257.895 827.868 257.678 826.89C257.556 826.389 257.489 825.876 257.478 825.36C257.447 824.863 257.471 824.363 257.548 823.87C257.641 823.375 257.772 822.887 257.938 822.41C258.114 821.932 258.339 821.473 258.608 821.04C258.876 820.636 259.173 820.251 259.498 819.89C259.847 819.527 260.225 819.193 260.628 818.89C261.031 818.594 261.459 818.333 261.908 818.11C262.868 817.732 263.879 817.5 264.908 817.42C265.408 817.404 265.907 817.445 266.398 817.54C266.897 817.618 267.387 817.749 267.858 817.93C268.326 818.108 268.78 818.318 269.218 818.56C269.638 818.83 270.028 819.145 270.378 819.5C270.755 819.833 271.09 820.209 271.378 820.62C271.673 821.026 271.931 821.458 272.148 821.91C272.365 822.378 272.533 822.868 272.648 823.37C273.086 825.35 272.735 827.422 271.668 829.145C270.602 830.869 268.905 832.109 266.938 832.6H266.898Z" fill="#E33443"/>
<path d="M670.11 729.71C669.65 727.731 669.993 725.65 671.063 723.922C672.133 722.195 673.843 720.961 675.82 720.49C676.8 720.259 677.817 720.223 678.811 720.385C679.805 720.546 680.758 720.903 681.614 721.433C682.471 721.963 683.214 722.657 683.802 723.475C684.39 724.294 684.811 725.22 685.04 726.2C685.502 728.18 685.161 730.262 684.09 731.99C683.02 733.719 681.308 734.952 679.33 735.42C677.351 735.874 675.273 735.53 673.546 734.46C671.82 733.391 670.585 731.685 670.11 729.71ZM645.76 735.45C645.527 734.469 645.49 733.452 645.651 732.456C645.812 731.461 646.168 730.507 646.698 729.65C647.229 728.792 647.923 728.048 648.742 727.459C649.561 726.871 650.488 726.45 651.47 726.22C652.45 725.989 653.467 725.953 654.461 726.114C655.455 726.276 656.408 726.633 657.264 727.163C658.121 727.693 658.864 728.387 659.452 729.205C660.04 730.024 660.461 730.95 660.69 731.93C661.152 733.911 660.811 735.995 659.741 737.725C658.671 739.455 656.959 740.69 654.98 741.16C653.001 741.617 650.921 741.273 649.194 740.204C647.467 739.134 646.233 737.426 645.76 735.45ZM621.46 741.17C621.227 740.189 621.19 739.172 621.351 738.177C621.512 737.181 621.868 736.227 622.398 735.37C622.929 734.512 623.623 733.768 624.442 733.179C625.261 732.591 626.188 732.17 627.17 731.94C629.151 731.481 631.233 731.823 632.962 732.893C634.691 733.963 635.927 735.673 636.4 737.65C636.849 739.63 636.502 741.707 635.434 743.434C634.366 745.16 632.662 746.398 630.69 746.88C628.712 747.334 626.635 746.989 624.911 745.92C623.186 744.851 621.953 743.144 621.48 741.17H621.46ZM597.12 746.9C596.885 745.919 596.847 744.901 597.008 743.906C597.168 742.91 597.524 741.955 598.055 741.097C598.585 740.24 599.28 739.495 600.1 738.907C600.92 738.319 601.847 737.899 602.83 737.67C603.81 737.439 604.827 737.403 605.821 737.565C606.815 737.726 607.768 738.083 608.624 738.613C609.481 739.143 610.224 739.837 610.812 740.655C611.4 741.474 611.821 742.4 612.05 743.38C612.512 745.361 612.171 747.445 611.101 749.175C610.031 750.905 608.319 752.14 606.34 752.61C604.361 753.07 602.28 752.727 600.552 751.657C598.824 750.587 597.591 748.877 597.12 746.9ZM572.77 752.63C572.537 751.649 572.5 750.632 572.661 749.636C572.822 748.641 573.178 747.687 573.708 746.83C574.239 745.972 574.933 745.228 575.752 744.639C576.571 744.051 577.498 743.63 578.48 743.4C579.461 743.167 580.478 743.13 581.474 743.291C582.469 743.452 583.423 743.808 584.281 744.339C585.138 744.869 585.883 745.564 586.471 746.383C587.06 747.201 587.481 748.128 587.71 749.11C588.17 751.091 587.827 753.173 586.758 754.902C585.688 756.632 583.978 757.868 582 758.34C580.019 758.8 577.937 758.458 576.208 757.388C574.479 756.318 573.243 754.608 572.77 752.63ZM548.42 758.36C548.188 757.379 548.152 756.362 548.314 755.367C548.475 754.372 548.831 753.419 549.362 752.562C549.892 751.705 550.586 750.96 551.404 750.372C552.223 749.783 553.149 749.361 554.13 749.13C555.111 748.897 556.128 748.86 557.124 749.021C558.119 749.182 559.073 749.538 559.931 750.069C560.788 750.599 561.533 751.294 562.121 752.113C562.71 752.932 563.131 753.859 563.36 754.84C563.82 756.821 563.477 758.903 562.408 760.632C561.338 762.362 559.628 763.598 557.65 764.07C555.669 764.53 553.587 764.188 551.858 763.118C550.129 762.048 548.893 760.338 548.42 758.36ZM524.13 764.08C523.897 763.099 523.86 762.082 524.021 761.086C524.182 760.091 524.538 759.137 525.068 758.28C525.599 757.422 526.293 756.678 527.112 756.089C527.931 755.501 528.858 755.08 529.84 754.85C531.819 754.391 533.9 754.733 535.628 755.803C537.355 756.873 538.589 758.584 539.06 760.56C539.514 762.541 539.17 764.62 538.101 766.348C537.032 768.076 535.325 769.313 533.35 769.79C531.371 770.25 529.29 769.907 527.562 768.837C525.834 767.767 524.601 766.057 524.13 764.08ZM499.78 769.81C499.548 768.829 499.512 767.812 499.674 766.817C499.835 765.822 500.191 764.869 500.722 764.012C501.252 763.155 501.946 762.41 502.764 761.822C503.583 761.233 504.509 760.811 505.49 760.58C507.471 760.121 509.553 760.463 511.282 761.533C513.011 762.603 514.247 764.313 514.72 766.29C515.172 768.271 514.826 770.349 513.757 772.076C512.689 773.803 510.983 775.041 509.01 775.52C507.029 775.98 504.947 775.638 503.218 774.568C501.489 773.498 500.253 771.788 499.78 769.81ZM475.43 775.54C474.965 773.559 475.305 771.475 476.375 769.744C477.446 768.013 479.16 766.779 481.14 766.31C482.122 766.077 483.14 766.041 484.136 766.202C485.132 766.364 486.086 766.721 486.944 767.252C487.801 767.784 488.545 768.48 489.133 769.3C489.721 770.12 490.142 771.048 490.37 772.03C490.83 774.01 490.487 776.091 489.417 777.818C488.347 779.546 486.637 780.78 484.66 781.25C482.679 781.71 480.597 781.368 478.868 780.298C477.139 779.228 475.903 777.518 475.43 775.54ZM451.09 781.31C450.858 780.33 450.822 779.314 450.984 778.319C451.146 777.325 451.502 776.372 452.032 775.516C452.563 774.66 453.257 773.916 454.075 773.328C454.893 772.741 455.819 772.32 456.8 772.09C457.78 771.856 458.798 771.818 459.793 771.979C460.788 772.139 461.742 772.495 462.599 773.026C463.456 773.557 464.199 774.252 464.787 775.071C465.374 775.891 465.793 776.818 466.02 777.8C466.482 779.78 466.141 781.862 465.07 783.591C464 785.319 462.288 786.552 460.31 787.02C458.33 787.483 456.248 787.141 454.52 786.071C452.792 785.001 451.558 783.289 451.09 781.31ZM426.74 787.04C426.508 786.06 426.472 785.044 426.634 784.049C426.796 783.055 427.152 782.102 427.682 781.246C428.213 780.39 428.907 779.646 429.725 779.058C430.543 778.471 431.469 778.05 432.45 777.82C433.431 777.586 434.449 777.548 435.445 777.708C436.441 777.869 437.395 778.224 438.253 778.755C439.111 779.286 439.855 779.981 440.443 780.801C441.032 781.62 441.452 782.548 441.68 783.53C442.14 785.51 441.797 787.591 440.727 789.318C439.657 791.046 437.947 792.28 435.97 792.75C433.984 793.212 431.895 792.865 430.164 791.787C428.433 790.708 427.202 788.987 426.74 787V787.04ZM402.48 792.72C402.246 791.74 402.208 790.723 402.368 789.728C402.529 788.732 402.885 787.779 403.415 786.922C403.946 786.064 404.641 785.321 405.461 784.734C406.28 784.147 407.208 783.727 408.19 783.5C410.17 783.038 412.252 783.38 413.98 784.45C415.708 785.52 416.942 787.232 417.41 789.21C417.861 791.189 417.515 793.266 416.447 794.992C415.378 796.717 413.673 797.953 411.7 798.43C409.72 798.893 407.638 798.551 405.91 797.481C404.182 796.411 402.948 794.699 402.48 792.72ZM378.13 798.45C377.898 797.47 377.862 796.454 378.024 795.459C378.186 794.465 378.542 793.512 379.072 792.656C379.603 791.8 380.297 791.056 381.115 790.468C381.933 789.881 382.859 789.46 383.84 789.23C384.82 788.999 385.837 788.963 386.831 789.125C387.825 789.286 388.778 789.643 389.634 790.173C390.491 790.703 391.234 791.397 391.822 792.215C392.41 793.034 392.831 793.96 393.06 794.94C393.522 796.92 393.181 799.002 392.11 800.731C391.04 802.459 389.328 803.692 387.35 804.16C386.368 804.394 385.349 804.431 384.352 804.27C383.355 804.11 382.4 803.754 381.541 803.224C380.682 802.693 379.936 801.999 379.345 801.18C378.755 800.361 378.332 799.433 378.1 798.45H378.13ZM353.78 804.19C353.547 803.209 353.51 802.192 353.671 801.196C353.832 800.201 354.188 799.247 354.718 798.39C355.249 797.532 355.943 796.788 356.762 796.199C357.581 795.611 358.508 795.19 359.49 794.96C360.471 794.727 361.488 794.69 362.484 794.851C363.479 795.012 364.433 795.368 365.291 795.899C366.148 796.429 366.893 797.124 367.481 797.943C368.07 798.761 368.491 799.688 368.72 800.67C369.177 802.651 368.833 804.732 367.764 806.46C366.695 808.189 364.986 809.425 363.01 809.9C361.025 810.369 358.935 810.031 357.199 808.961C355.463 807.89 354.223 806.175 353.75 804.19H353.78ZM329.44 809.92C329.207 808.939 329.17 807.922 329.331 806.927C329.492 805.931 329.848 804.977 330.378 804.12C330.909 803.262 331.603 802.518 332.422 801.929C333.241 801.341 334.168 800.92 335.15 800.69C336.131 800.459 337.148 800.423 338.143 800.584C339.138 800.746 340.091 801.102 340.949 801.632C341.806 802.163 342.55 802.857 343.139 803.675C343.728 804.493 344.149 805.419 344.38 806.4C344.837 808.382 344.492 810.464 343.42 812.193C342.349 813.922 340.638 815.157 338.66 815.63C336.676 816.099 334.588 815.761 332.853 814.69C331.119 813.619 329.88 811.904 329.41 809.92H329.44ZM305.09 815.65C304.857 814.669 304.82 813.652 304.981 812.656C305.142 811.661 305.498 810.707 306.028 809.85C306.559 808.992 307.253 808.248 308.072 807.659C308.891 807.071 309.818 806.65 310.8 806.42C311.781 806.189 312.798 806.153 313.793 806.314C314.788 806.476 315.741 806.832 316.599 807.362C317.456 807.893 318.2 808.587 318.789 809.405C319.378 810.223 319.799 811.149 320.03 812.13C320.489 814.113 320.146 816.196 319.074 817.925C318.002 819.655 316.289 820.89 314.31 821.36C312.326 821.829 310.238 821.491 308.503 820.42C306.769 819.349 305.53 817.634 305.06 815.65H305.09ZM280.79 821.37C280.557 820.389 280.52 819.372 280.681 818.377C280.842 817.381 281.198 816.427 281.728 815.57C282.259 814.712 282.953 813.968 283.772 813.379C284.591 812.791 285.518 812.37 286.5 812.14C288.481 811.681 290.563 812.023 292.292 813.093C294.021 814.163 295.257 815.873 295.73 817.85C296.182 819.831 295.836 821.909 294.767 823.636C293.699 825.363 291.993 826.601 290.02 827.08C288.035 827.549 285.945 827.211 284.209 826.141C282.473 825.07 281.233 823.355 280.76 821.37H280.79Z" fill="#E33443"/>
<path d="M703.68 729.69C702.696 729.921 701.676 729.952 700.68 729.78C699.685 729.635 698.737 729.262 697.91 728.69C697.053 728.174 696.308 727.492 695.718 726.683C695.129 725.874 694.708 724.955 694.48 723.98C694.368 723.481 694.301 722.972 694.28 722.46C694.272 721.954 694.312 721.449 694.4 720.95C694.464 720.46 694.578 719.977 694.74 719.51C694.935 719.038 695.162 718.581 695.42 718.14C696.546 716.474 698.257 715.293 700.214 714.832C702.17 714.37 704.229 714.663 705.98 715.65C706.403 715.934 706.807 716.245 707.19 716.58C707.549 716.933 707.883 717.311 708.19 717.71C708.45 718.12 708.71 718.59 708.92 719.01C709.448 720.154 709.682 721.411 709.602 722.669C709.521 723.926 709.129 725.143 708.46 726.21C707.963 727.103 707.26 727.864 706.41 728.43C705.602 729.043 704.671 729.473 703.68 729.69Z" fill="#E33443"/>
<path d="M962.9 900.72C962.44 898.741 962.783 896.66 963.853 894.932C964.923 893.204 966.633 891.971 968.61 891.5C970.591 891.035 972.676 891.375 974.406 892.445C976.137 893.516 977.372 895.23 977.84 897.21C978.312 899.195 977.977 901.286 976.908 903.024C975.839 904.762 974.124 906.005 972.14 906.48C970.151 906.936 968.063 906.586 966.332 905.506C964.6 904.427 963.366 902.706 962.9 900.72ZM951.31 887.85C949.587 886.77 948.362 885.051 947.905 883.07C947.447 881.088 947.794 879.006 948.87 877.28C949.959 875.554 951.687 874.328 953.676 873.869C955.665 873.41 957.754 873.755 959.49 874.83C961.208 875.918 962.424 877.643 962.87 879.627C963.317 881.611 962.957 883.691 961.87 885.41C960.814 887.128 959.121 888.358 957.16 888.83C956.169 889.064 955.141 889.098 954.136 888.93C953.132 888.762 952.171 888.395 951.31 887.85ZM930.16 874.59C928.442 873.502 927.226 871.777 926.78 869.793C926.333 867.809 926.693 865.729 927.78 864.01C928.308 863.151 929.002 862.405 929.821 861.817C930.64 861.228 931.568 860.809 932.551 860.583C933.534 860.356 934.552 860.328 935.546 860.499C936.54 860.671 937.489 861.038 938.34 861.58C939.194 862.113 939.935 862.809 940.519 863.628C941.104 864.447 941.522 865.374 941.749 866.354C941.975 867.335 942.006 868.351 941.84 869.344C941.674 870.336 941.314 871.287 940.78 872.14C939.694 873.848 937.981 875.061 936.01 875.52C935.022 875.759 933.996 875.8 932.992 875.64C931.988 875.48 931.025 875.124 930.16 874.59ZM909.07 861.31C907.347 860.23 906.122 858.511 905.665 856.53C905.207 854.548 905.554 852.466 906.63 850.74C907.166 849.881 907.866 849.136 908.69 848.548C909.514 847.96 910.446 847.54 911.432 847.313C912.418 847.085 913.44 847.054 914.438 847.222C915.437 847.39 916.392 847.753 917.25 848.29C918.968 849.378 920.184 851.103 920.632 853.086C921.08 855.069 920.723 857.149 919.64 858.87C919.114 859.718 918.425 860.453 917.613 861.033C916.801 861.613 915.882 862.027 914.91 862.25C913.923 862.493 912.898 862.535 911.894 862.373C910.891 862.212 909.931 861.85 909.07 861.31ZM887.92 848.05C886.204 846.961 884.99 845.235 884.544 843.252C884.097 841.269 884.456 839.189 885.54 837.47C886.621 835.748 888.341 834.526 890.323 834.07C892.304 833.615 894.385 833.964 896.11 835.04C897.823 836.129 899.039 837.848 899.494 839.826C899.949 841.805 899.606 843.883 898.54 845.61C897.451 847.315 895.739 848.527 893.77 848.99C892.782 849.23 891.756 849.271 890.752 849.112C889.747 848.952 888.785 848.595 887.92 848.06V848.05ZM866.83 834.78C865.97 834.246 865.225 833.548 864.636 832.724C864.048 831.901 863.628 830.969 863.401 829.983C863.174 828.997 863.145 827.975 863.315 826.978C863.484 825.98 863.85 825.026 864.39 824.17C865.476 822.453 867.199 821.237 869.181 820.789C871.162 820.341 873.241 820.697 874.96 821.78C876.683 822.86 877.908 824.579 878.365 826.561C878.823 828.542 878.476 830.624 877.4 832.35C876.874 833.197 876.185 833.931 875.373 834.509C874.561 835.088 873.642 835.499 872.67 835.72C871.684 835.969 870.658 836.016 869.654 835.856C868.65 835.696 867.689 835.333 866.83 834.79V834.78ZM845.69 821.53C843.97 820.444 842.752 818.719 842.304 816.735C841.856 814.751 842.214 812.67 843.3 810.95C843.831 810.092 844.526 809.349 845.347 808.762C846.167 808.175 847.095 807.756 848.078 807.53C849.061 807.304 850.079 807.275 851.073 807.445C852.067 807.615 853.018 807.98 853.87 808.52C854.72 809.058 855.457 809.758 856.036 810.58C856.616 811.402 857.029 812.33 857.25 813.312C857.471 814.294 857.496 815.309 857.325 816.3C857.153 817.292 856.788 818.24 856.25 819.09C855.724 819.936 855.036 820.67 854.226 821.25C853.416 821.83 852.5 822.244 851.53 822.47C850.543 822.71 849.519 822.752 848.516 822.592C847.514 822.432 846.553 822.075 845.69 821.54V821.53ZM824.59 808.31C823.732 807.779 822.989 807.084 822.402 806.263C821.814 805.443 821.396 804.515 821.17 803.532C820.944 802.549 820.915 801.531 821.085 800.537C821.255 799.543 821.62 798.592 822.16 797.74C822.694 796.887 823.39 796.147 824.21 795.563C825.029 794.979 825.956 794.563 826.936 794.337C827.917 794.111 828.933 794.081 829.925 794.248C830.917 794.415 831.867 794.776 832.72 795.31C833.574 795.843 834.315 796.539 834.899 797.358C835.484 798.177 835.902 799.104 836.129 800.084C836.355 801.065 836.386 802.081 836.22 803.074C836.054 804.066 835.694 805.017 835.16 805.87C834.078 807.588 832.359 808.807 830.38 809.26C829.4 809.497 828.383 809.534 827.389 809.371C826.394 809.208 825.443 808.847 824.59 808.31ZM803.48 795.01C801.766 793.925 800.548 792.208 800.091 790.231C799.635 788.254 799.975 786.177 801.04 784.45C801.575 783.59 802.274 782.844 803.098 782.256C803.922 781.667 804.854 781.246 805.841 781.019C806.828 780.791 807.85 780.761 808.848 780.929C809.847 781.097 810.802 781.461 811.66 782C813.378 783.088 814.594 784.813 815.042 786.796C815.49 788.779 815.133 790.859 814.05 792.58C812.989 794.298 811.292 795.527 809.33 796C808.338 796.237 807.309 796.271 806.304 796.101C805.299 795.931 804.338 795.56 803.48 795.01ZM782.33 781.76C780.612 780.672 779.396 778.947 778.95 776.963C778.503 774.979 778.863 772.899 779.95 771.18C780.481 770.328 781.174 769.589 781.991 769.005C782.808 768.422 783.731 768.005 784.709 767.778C785.687 767.551 786.7 767.52 787.69 767.685C788.681 767.85 789.628 768.208 790.48 768.74C792.195 769.827 793.413 771.546 793.869 773.524C794.326 775.503 793.985 777.581 792.92 779.31C791.837 781.021 790.123 782.235 788.15 782.69C787.162 782.929 786.136 782.97 785.132 782.81C784.128 782.65 783.165 782.294 782.3 781.76H782.33ZM761.24 768.49C760.386 767.956 759.645 767.259 759.06 766.439C758.475 765.619 758.057 764.692 757.831 763.71C757.604 762.729 757.573 761.712 757.739 760.719C757.906 759.725 758.266 758.774 758.8 757.92C759.88 756.197 761.599 754.972 763.58 754.515C765.562 754.057 767.644 754.404 769.37 755.48C770.228 756.011 770.971 756.707 771.558 757.527C772.145 758.347 772.564 759.275 772.79 760.258C773.016 761.241 773.045 762.259 772.875 763.253C772.705 764.247 772.34 765.198 771.8 766.05C771.276 766.897 770.588 767.632 769.778 768.213C768.968 768.793 768.051 769.206 767.08 769.43C766.089 769.678 765.058 769.722 764.049 769.56C763.04 769.399 762.074 769.035 761.21 768.49H761.24ZM740.09 755.23C738.374 754.14 737.16 752.415 736.714 750.432C736.267 748.449 736.626 746.37 737.71 744.65C738.24 743.793 738.935 743.049 739.754 742.462C740.573 741.875 741.501 741.457 742.483 741.231C743.465 741.005 744.482 740.976 745.475 741.146C746.469 741.315 747.419 741.681 748.27 742.22C749.99 743.306 751.208 745.031 751.656 747.015C752.104 748.999 751.746 751.08 750.66 752.8C750.134 753.645 749.446 754.377 748.636 754.956C747.826 755.534 746.91 755.947 745.94 756.17C744.947 756.413 743.915 756.455 742.905 756.294C741.895 756.132 740.928 755.771 740.06 755.23H740.09ZM719 741.96C718.14 741.433 717.393 740.741 716.801 739.925C716.209 739.108 715.784 738.183 715.55 737.203C715.316 736.222 715.278 735.204 715.437 734.209C715.597 733.213 715.951 732.259 716.48 731.4C717.56 729.677 719.279 728.452 721.26 727.995C723.242 727.537 725.324 727.884 727.05 728.96C727.907 729.491 728.651 730.186 729.238 731.006C729.826 731.826 730.245 732.754 730.472 733.737C730.698 734.719 730.728 735.737 730.56 736.732C730.391 737.726 730.028 738.677 729.49 739.53C728.433 741.247 726.74 742.476 724.78 742.95C723.795 743.182 722.773 743.215 721.775 743.045C720.776 742.874 719.823 742.506 718.97 741.96H719Z" fill="#E33443"/>
<path d="M1281.95 907.355C1280.42 906.014 1279.49 904.123 1279.35 902.096C1279.21 900.068 1279.89 898.069 1281.22 896.534C1282.56 895.002 1284.45 894.063 1286.48 893.925C1288.51 893.786 1290.51 894.459 1292.05 895.796C1293.59 897.134 1294.53 899.029 1294.68 901.064C1294.82 903.099 1294.15 905.109 1292.82 906.651C1291.46 908.18 1289.56 909.113 1287.53 909.245C1285.49 909.376 1283.49 908.697 1281.95 907.355ZM1265.03 903.65C1263 903.776 1261 903.093 1259.48 901.749C1257.95 900.405 1257.02 898.511 1256.89 896.482C1256.77 894.444 1257.46 892.441 1258.81 890.909C1260.16 889.377 1262.06 888.44 1264.09 888.302C1266.12 888.185 1268.12 888.878 1269.63 890.231C1271.15 891.583 1272.07 893.483 1272.19 895.513C1272.33 897.525 1271.67 899.511 1270.36 901.037C1269.69 901.805 1268.87 902.432 1267.96 902.88C1267.04 903.329 1266.05 903.591 1265.03 903.65ZM1240.12 905.199C1238.09 905.316 1236.09 904.622 1234.57 903.27C1233.05 901.918 1232.14 900.018 1232.02 897.988C1231.95 896.982 1232.07 895.971 1232.4 895.016C1232.72 894.06 1233.23 893.179 1233.9 892.422C1234.56 891.666 1235.37 891.049 1236.28 890.609C1237.19 890.169 1238.18 889.914 1239.18 889.859C1240.19 889.795 1241.19 889.929 1242.15 890.253C1243.1 890.578 1243.98 891.088 1244.73 891.753C1245.49 892.418 1246.11 893.225 1246.55 894.129C1246.99 895.032 1247.26 896.014 1247.32 897.019C1247.43 899.04 1246.75 901.024 1245.41 902.545C1244.75 903.315 1243.94 903.946 1243.03 904.402C1242.12 904.857 1241.13 905.128 1240.12 905.199ZM1215.24 906.697C1213.21 906.823 1211.21 906.14 1209.69 904.796C1208.16 903.452 1207.23 901.558 1207.1 899.529C1207.03 898.518 1207.17 897.505 1207.49 896.547C1207.82 895.589 1208.33 894.705 1209 893.945C1209.67 893.186 1210.48 892.565 1211.39 892.12C1212.3 891.674 1213.29 891.412 1214.3 891.349C1216.33 891.232 1218.32 891.925 1219.84 893.276C1221.36 894.626 1222.28 896.525 1222.41 898.554C1222.47 899.55 1222.34 900.549 1222.02 901.493C1221.7 902.438 1221.19 903.309 1220.53 904.057C1219.87 904.83 1219.06 905.461 1218.15 905.915C1217.24 906.368 1216.25 906.634 1215.24 906.697ZM1190.32 908.246C1188.29 908.36 1186.3 907.666 1184.78 906.314C1183.27 904.962 1182.35 903.064 1182.22 901.035C1182.1 899.005 1182.79 897.01 1184.13 895.485C1185.47 893.96 1187.37 893.031 1189.4 892.9C1191.42 892.787 1193.41 893.476 1194.94 894.818C1196.46 896.161 1197.39 898.049 1197.53 900.074C1197.64 902.094 1196.96 904.077 1195.63 905.601C1194.96 906.371 1194.15 907.003 1193.24 907.458C1192.33 907.914 1191.34 908.184 1190.33 908.254L1190.32 908.246ZM1165.45 909.752C1164.44 909.819 1163.43 909.686 1162.47 909.359C1161.51 909.033 1160.63 908.521 1159.87 907.851C1159.11 907.182 1158.49 906.369 1158.05 905.46C1157.6 904.55 1157.35 903.561 1157.29 902.551C1157.17 900.523 1157.86 898.531 1159.21 897.012C1160.56 895.493 1162.46 894.571 1164.48 894.449C1166.51 894.323 1168.51 895.006 1170.04 896.35C1171.56 897.694 1172.49 899.588 1172.63 901.617C1172.69 902.612 1172.56 903.61 1172.24 904.553C1171.91 905.497 1171.41 906.366 1170.75 907.112C1170.09 907.889 1169.28 908.525 1168.37 908.98C1167.46 909.435 1166.47 909.7 1165.46 909.76L1165.45 909.752ZM1140.55 911.303C1138.52 911.423 1136.53 910.731 1135.01 909.38C1133.48 908.028 1132.56 906.128 1132.44 904.098C1132.38 903.092 1132.51 902.082 1132.83 901.127C1133.16 900.172 1133.67 899.291 1134.33 898.534C1135 897.778 1135.81 897.161 1136.72 896.72C1137.62 896.279 1138.61 896.022 1139.62 895.964C1140.62 895.905 1141.63 896.045 1142.58 896.375C1143.53 896.705 1144.4 897.219 1145.16 897.888C1145.91 898.557 1146.52 899.368 1146.96 900.273C1147.4 901.179 1147.65 902.162 1147.71 903.166C1147.78 904.16 1147.65 905.158 1147.32 906.101C1147 907.044 1146.5 907.915 1145.84 908.664C1145.18 909.434 1144.37 910.065 1143.47 910.519C1142.56 910.974 1141.57 911.243 1140.56 911.311L1140.55 911.303ZM1115.7 912.856C1114.69 912.924 1113.68 912.792 1112.73 912.468C1111.77 912.143 1110.89 911.633 1110.14 910.966C1109.38 910.298 1108.76 909.488 1108.32 908.581C1107.88 907.674 1107.62 906.689 1107.57 905.682C1107.5 904.678 1107.64 903.671 1107.96 902.718C1108.29 901.766 1108.8 900.888 1109.46 900.133C1110.13 899.378 1110.94 898.762 1111.84 898.319C1112.75 897.876 1113.73 897.616 1114.73 897.553C1115.74 897.489 1116.74 897.623 1117.7 897.948C1118.65 898.272 1119.53 898.782 1120.28 899.447C1121.04 900.112 1121.66 900.919 1122.1 901.823C1122.54 902.726 1122.8 903.709 1122.87 904.713C1122.99 906.74 1122.3 908.732 1120.96 910.254C1120.3 911.017 1119.5 911.64 1118.59 912.087C1117.69 912.534 1116.71 912.795 1115.7 912.856ZM1090.79 914.349C1088.77 914.466 1086.78 913.78 1085.26 912.44C1083.73 911.1 1082.8 909.213 1082.66 907.189C1082.59 906.179 1082.73 905.165 1083.05 904.206C1083.38 903.248 1083.89 902.363 1084.56 901.603C1085.23 900.843 1086.04 900.222 1086.95 899.777C1087.86 899.332 1088.85 899.071 1089.86 899.009C1091.89 898.892 1093.88 899.585 1095.4 900.936C1096.92 902.287 1097.85 904.185 1097.97 906.215C1098.11 908.229 1097.44 910.216 1096.13 911.744C1095.46 912.515 1094.64 913.142 1093.73 913.59C1092.81 914.037 1091.81 914.295 1090.79 914.349ZM1065.89 915.906C1063.86 916.023 1061.86 915.33 1060.34 913.977C1058.82 912.625 1057.9 910.725 1057.79 908.695C1057.72 907.693 1057.85 906.689 1058.18 905.738C1058.5 904.788 1059.01 903.911 1059.67 903.157C1060.33 902.403 1061.14 901.787 1062.04 901.344C1062.94 900.901 1063.92 900.64 1064.92 900.576C1066.95 900.46 1068.94 901.147 1070.46 902.489C1071.99 903.83 1072.92 905.718 1073.06 907.744C1073.18 909.765 1072.5 911.751 1071.16 913.27C1070.49 914.04 1069.68 914.671 1068.77 915.127C1067.87 915.582 1066.88 915.853 1065.86 915.924L1065.89 915.906ZM1041.01 917.412C1040.01 917.476 1039 917.342 1038.05 917.016C1037.09 916.69 1036.21 916.18 1035.46 915.515C1034.7 914.849 1034.08 914.041 1033.64 913.137C1033.2 912.232 1032.93 911.249 1032.87 910.244C1032.74 908.214 1033.43 906.217 1034.77 904.691C1036.12 903.164 1038.01 902.233 1040.04 902.102C1041.05 902.033 1042.06 902.165 1043.01 902.49C1043.97 902.814 1044.85 903.324 1045.6 903.992C1046.36 904.659 1046.98 905.469 1047.42 906.376C1047.86 907.283 1048.12 908.268 1048.17 909.275C1048.24 910.27 1048.11 911.267 1047.79 912.211C1047.47 913.154 1046.97 914.025 1046.31 914.773C1045.65 915.552 1044.83 916.188 1043.92 916.645C1043.01 917.102 1042.01 917.368 1040.99 917.43L1041.01 917.412ZM1016.1 918.961C1014.07 919.076 1012.08 918.381 1010.56 917.029C1009.04 915.678 1008.12 913.779 1008 911.75C1007.93 910.745 1008.06 909.736 1008.39 908.781C1008.71 907.827 1009.22 906.946 1009.89 906.19C1010.55 905.434 1011.36 904.818 1012.27 904.377C1013.17 903.936 1014.16 903.679 1015.16 903.622C1017.2 903.502 1019.19 904.194 1020.71 905.545C1022.23 906.896 1023.15 908.796 1023.27 910.827C1023.34 911.82 1023.2 912.816 1022.88 913.758C1022.56 914.7 1022.06 915.569 1021.4 916.316C1020.73 917.092 1019.92 917.728 1019.01 918.185C1018.09 918.643 1017.09 918.912 1016.07 918.979L1016.1 918.961ZM991.227 920.467C990.221 920.54 989.211 920.413 988.254 920.094C987.297 919.776 986.413 919.272 985.651 918.611C984.889 917.951 984.265 917.146 983.814 916.244C983.364 915.342 983.096 914.36 983.025 913.354C982.898 911.324 983.582 909.327 984.926 907.801C986.269 906.274 988.164 905.343 990.193 905.212C991.199 905.143 992.209 905.275 993.164 905.599C994.119 905.923 995 906.433 995.757 907.099C996.514 907.766 997.132 908.575 997.574 909.482C998.017 910.388 998.275 911.373 998.335 912.379C998.477 914.391 997.817 916.376 996.501 917.903C995.835 918.667 995.024 919.288 994.113 919.732C993.203 920.175 992.213 920.431 991.202 920.485L991.227 920.467Z" fill="#E33443"/>
<path d="M1304.4 894.072C1303.42 894.303 1302.4 894.334 1301.4 894.162C1300.41 894.017 1299.46 893.644 1298.63 893.072C1297.77 892.556 1297.03 891.873 1296.44 891.064C1295.85 890.255 1295.43 889.337 1295.2 888.362C1295.09 887.863 1295.02 887.354 1295 886.842C1294.99 886.336 1295.03 885.831 1295.12 885.332C1295.18 884.842 1295.3 884.359 1295.46 883.892C1295.66 883.42 1295.88 882.962 1296.14 882.522C1297.27 880.856 1298.98 879.675 1300.93 879.214C1302.89 878.752 1304.95 879.044 1306.7 880.032C1307.12 880.316 1307.53 880.626 1307.91 880.962C1308.27 881.315 1308.6 881.693 1308.91 882.092C1309.17 882.502 1309.43 882.972 1309.64 883.392C1310.17 884.536 1310.4 885.793 1310.32 887.05C1310.24 888.308 1309.85 889.525 1309.18 890.592C1308.68 891.485 1307.98 892.246 1307.13 892.812C1306.32 893.425 1305.39 893.855 1304.4 894.072Z" fill="#E33443"/>
<path d="M1339.93 840.95C1338.93 840.84 1337.95 840.529 1337.07 840.035C1336.18 839.567 1335.41 838.899 1334.82 838.084C1334.19 837.312 1333.71 836.419 1333.43 835.46C1333.14 834.501 1333.05 833.495 1333.16 832.5C1333.22 831.991 1333.33 831.489 1333.48 831C1333.64 830.52 1333.84 830.057 1334.09 829.617C1334.32 829.175 1334.59 828.758 1334.89 828.372C1335.24 827.992 1335.6 827.636 1335.99 827.307C1337.61 826.112 1339.62 825.569 1341.61 825.786C1343.61 826.003 1345.46 826.965 1346.78 828.48C1347.08 828.889 1347.36 829.316 1347.61 829.761C1347.83 830.213 1348.02 830.681 1348.18 831.159C1348.28 831.633 1348.37 832.162 1348.43 832.628C1348.55 833.883 1348.35 835.146 1347.85 836.304C1347.36 837.463 1346.58 838.48 1345.6 839.263C1344.83 839.939 1343.91 840.422 1342.92 840.673C1341.96 840.981 1340.94 841.076 1339.93 840.95Z" fill="#E33443"/>
<path d="M1317.4 876.072C1316.42 876.303 1315.4 876.334 1314.4 876.162C1313.41 876.017 1312.46 875.644 1311.63 875.072C1310.77 874.556 1310.03 873.873 1309.44 873.064C1308.85 872.255 1308.43 871.337 1308.2 870.362C1308.09 869.863 1308.02 869.354 1308 868.842C1307.99 868.336 1308.03 867.831 1308.12 867.332C1308.18 866.842 1308.3 866.359 1308.46 865.892C1308.66 865.42 1308.88 864.962 1309.14 864.522C1310.27 862.856 1311.98 861.675 1313.93 861.214C1315.89 860.752 1317.95 861.044 1319.7 862.032C1320.12 862.316 1320.53 862.626 1320.91 862.962C1321.27 863.315 1321.6 863.693 1321.91 864.092C1322.17 864.502 1322.43 864.972 1322.64 865.392C1323.17 866.536 1323.4 867.793 1323.32 869.05C1323.24 870.308 1322.85 871.525 1322.18 872.592C1321.68 873.485 1320.98 874.246 1320.13 874.812C1319.32 875.425 1318.39 875.855 1317.4 876.072Z" fill="#E33443"/>
<path d="M1358.19 828.314C1357.18 828.204 1356.21 827.892 1355.33 827.398C1354.44 826.93 1353.67 826.262 1353.08 825.447C1352.44 824.675 1351.97 823.783 1351.68 822.824C1351.4 821.865 1351.31 820.858 1351.42 819.863C1351.48 819.355 1351.58 818.853 1351.73 818.364C1351.9 817.884 1352.1 817.42 1352.35 816.98C1352.57 816.539 1352.84 816.122 1353.15 815.736C1353.49 815.355 1353.86 815 1354.25 814.671C1355.87 813.475 1357.87 812.932 1359.87 813.149C1361.87 813.367 1363.71 814.329 1365.04 815.844C1365.34 816.252 1365.62 816.68 1365.87 817.124C1366.09 817.576 1366.28 818.044 1366.43 818.523C1366.54 818.996 1366.63 819.526 1366.69 819.992C1366.8 821.246 1366.61 822.509 1366.11 823.668C1365.62 824.826 1364.84 825.843 1363.85 826.626C1363.09 827.302 1362.17 827.785 1361.18 828.036C1360.21 828.344 1359.19 828.439 1358.19 828.314Z" fill="#E33443"/>
<path d="M1329.4 858.072C1328.42 858.303 1327.4 858.334 1326.4 858.162C1325.41 858.017 1324.46 857.644 1323.63 857.072C1322.77 856.556 1322.03 855.873 1321.44 855.064C1320.85 854.255 1320.43 853.337 1320.2 852.362C1320.09 851.863 1320.02 851.354 1320 850.842C1319.99 850.336 1320.03 849.831 1320.12 849.332C1320.18 848.842 1320.3 848.359 1320.46 847.892C1320.66 847.42 1320.88 846.962 1321.14 846.522C1322.27 844.856 1323.98 843.675 1325.93 843.214C1327.89 842.752 1329.95 843.044 1331.7 844.032C1332.12 844.316 1332.53 844.626 1332.91 844.962C1333.27 845.315 1333.6 845.693 1333.91 846.092C1334.17 846.502 1334.43 846.972 1334.64 847.392C1335.17 848.536 1335.4 849.793 1335.32 851.05C1335.24 852.308 1334.85 853.525 1334.18 854.592C1333.68 855.485 1332.98 856.246 1332.13 856.812C1331.32 857.425 1330.39 857.855 1329.4 858.072Z" fill="#E33443"/>
<path d="M1375.5 815.344C1374.5 815.234 1373.52 814.922 1372.64 814.429C1371.75 813.96 1370.98 813.293 1370.39 812.478C1369.76 811.705 1369.28 810.813 1369 809.854C1368.71 808.895 1368.62 807.888 1368.73 806.894C1368.79 806.385 1368.9 805.883 1369.05 805.394C1369.21 804.914 1369.42 804.451 1369.67 804.01C1369.89 803.569 1370.16 803.152 1370.47 802.766C1370.81 802.386 1371.17 802.03 1371.56 801.701C1373.18 800.505 1375.19 799.962 1377.19 800.18C1379.18 800.397 1381.03 801.359 1382.35 802.874C1382.65 803.282 1382.93 803.71 1383.18 804.154C1383.4 804.607 1383.59 805.074 1383.75 805.553C1383.86 806.026 1383.94 806.556 1384 807.022C1384.12 808.276 1383.92 809.54 1383.42 810.698C1382.93 811.856 1382.15 812.873 1381.17 813.657C1380.4 814.332 1379.49 814.816 1378.49 815.066C1377.53 815.375 1376.51 815.469 1375.5 815.344Z" fill="#E33443"/>
</svg>
