<svg width="21" height="21" viewBox="0 0 21 21" fill="none" xmlns="http://www.w3.org/2000/svg">
<path d="M9.01313 7.19047V8.61784H7.96826V10.3624H9.01313V15.5484H11.1609V10.3624H12.6018C12.6018 10.3624 12.7376 9.52589 12.8029 8.61059H11.1692V7.41852C11.1692 7.23919 11.4035 6.99974 11.6357 6.99974H12.8049V5.18262H11.2138C8.96027 5.18262 9.01313 6.92925 9.01313 7.19047Z" fill="white" fill-opacity="0.5"/>
<path d="M4.14632 2.07316C3.59648 2.07316 3.06917 2.29158 2.68037 2.68037C2.29158 3.06917 2.07316 3.59648 2.07316 4.14632V16.5853C2.07316 17.1351 2.29158 17.6624 2.68037 18.0512C3.06917 18.44 3.59648 18.6584 4.14632 18.6584H16.5853C17.1351 18.6584 17.6624 18.44 18.0512 18.0512C18.44 17.6624 18.6584 17.1351 18.6584 16.5853V4.14632C18.6584 3.59648 18.44 3.06917 18.0512 2.68037C17.6624 2.29158 17.1351 2.07316 16.5853 2.07316H4.14632ZM4.14632 0H16.5853C17.6849 0 18.7396 0.436843 19.5172 1.21443C20.2948 1.99201 20.7316 3.04665 20.7316 4.14632V16.5853C20.7316 17.6849 20.2948 18.7396 19.5172 19.5172C18.7396 20.2948 17.6849 20.7316 16.5853 20.7316H4.14632C3.04665 20.7316 1.99201 20.2948 1.21443 19.5172C0.436843 18.7396 0 17.6849 0 16.5853V4.14632C0 3.04665 0.436843 1.99201 1.21443 1.21443C1.99201 0.436843 3.04665 0 4.14632 0Z" fill="white" fill-opacity="0.5"/>
</svg>
