<svg width="508" height="685" viewBox="0 0 508 685" fill="none" xmlns="http://www.w3.org/2000/svg">
<path opacity="0.03" d="M329.266 111.271C329.266 111.271 326.734 103.316 336.126 99.3373C345.518 95.3583 360.716 101.147 359.994 105.123C359.272 109.099 352.039 113.081 357.099 113.44C362.16 113.8 365.417 106.208 375.903 109.824C386.39 113.44 374.097 118.141 376.629 118.141C379.161 118.141 386.031 116.335 392.176 118.141C398.321 119.948 392.176 123.205 369.033 125.002C345.891 126.799 351.314 122.111 342.637 121.389C333.96 120.667 335.041 124.656 316.6 121.389C298.158 118.122 304.663 106.933 329.266 111.271Z" fill="black"/>
<path opacity="0.03" d="M464.146 466.271C464.146 466.271 466.677 458.316 457.285 454.337C447.893 450.358 432.695 456.147 433.417 460.123C434.139 464.099 441.372 468.081 436.312 468.44C431.251 468.8 427.994 461.208 417.508 464.824C407.021 468.44 419.314 473.141 416.782 473.141C414.251 473.141 407.38 471.335 401.235 473.141C395.09 474.948 401.235 478.205 424.378 480.002C447.52 481.799 442.097 477.111 450.774 476.389C459.451 475.667 458.37 479.656 476.811 476.389C495.253 473.122 488.748 461.933 464.146 466.271Z" fill="black"/>
<path opacity="0.02" d="M275.007 36.1975C275.007 36.1975 281.341 16.2958 257.82 6.34488C234.298 -3.60601 196.301 10.8662 198.111 20.8204C199.921 30.7745 218.013 40.7222 205.347 41.6271C192.682 42.532 184.541 23.5319 158.304 32.5778C132.068 41.6238 162.829 53.3878 156.498 53.3878C150.167 53.3878 132.976 48.8632 117.596 53.3878C102.216 57.9124 117.596 66.0535 175.495 70.5748C233.393 75.0962 219.823 63.3387 241.534 61.5289C263.246 59.719 260.535 69.6699 306.669 61.5289C352.804 53.3878 336.525 25.3417 275.007 36.1975Z" fill="black"/>
<g opacity="0.08">
<path d="M244.702 622.386L244.78 622.327C252.621 616.473 257.929 604.32 260.523 586.209C262.66 571.282 262.986 552.233 261.503 529.607C258.361 481.911 248.602 437.155 248.188 435.27C242.19 407.972 239.605 374.813 239.579 374.483L239.553 374.156L239.226 374.235C231 376.195 224.245 377.929 218.413 380.873C211.981 384.12 207.1 388.668 203.059 395.185C194.238 409.416 188.289 435.158 183.219 481.27C177.858 530.041 165.859 565.425 156.738 586.519C146.859 609.364 138.146 620.821 138.061 620.929L137.708 621.39H138.287L244.702 622.386ZM239.021 374.865C239.308 378.439 241.931 409.536 247.613 435.394C248.027 437.275 257.776 482.002 260.918 529.646C262.408 552.237 262.082 571.24 259.938 586.127C257.377 604.02 252.183 616.025 244.502 621.808L138.829 620.828C140.538 618.476 148.434 607.107 157.238 586.758C163.308 572.576 168.348 557.976 172.318 543.07C177.545 523.661 181.403 502.887 183.775 481.326C194.271 385.868 208.322 382.189 239.021 374.865Z" fill="#1D1D1B"/>
<path d="M223.245 622.184L218.057 381.033L217.642 381.252C217.276 381.448 216.91 381.651 216.551 381.853L216.401 381.938L221.572 622.167L223.245 622.184ZM217.499 381.99L222.654 621.602H222.138L216.989 382.281L217.499 381.99Z" fill="#1D1D1B"/>
<path d="M226.26 622.213L221.033 379.635L220.638 379.808C220.272 379.968 219.906 380.135 219.547 380.304L219.377 380.383L224.578 622.197L226.26 622.213ZM220.481 380.514L225.669 621.628H225.153L219.968 380.749L220.481 380.514Z" fill="#1D1D1B"/>
<path d="M232.287 622.269L227.021 377.439L226.652 377.557L225.561 377.916L225.358 377.985L230.615 622.249L232.287 622.269ZM226.456 378.233L231.683 621.687H231.164L225.937 378.41L226.456 378.233Z" fill="#1D1D1B"/>
<path d="M205.172 622.014L200.396 399.955L199.87 401.063C199.514 401.814 199.161 402.595 198.822 403.379L198.795 403.438L203.5 621.991L205.172 622.014ZM199.87 402.438L204.581 621.433H204.065L199.377 403.558C199.524 403.179 199.687 402.807 199.854 402.438H199.87Z" fill="#1D1D1B"/>
<path d="M208.171 622.043L203.271 394.773L202.758 395.623C202.402 396.208 202.043 396.825 201.693 397.452L201.657 397.521L206.489 622.027L208.171 622.043ZM202.748 396.789L207.58 621.458H207.064L202.249 397.678C202.412 397.367 202.578 397.077 202.748 396.789Z" fill="#1D1D1B"/>
<path d="M217.217 622.128L212.111 384.826L211.651 385.199C211.282 385.499 210.916 385.81 210.566 386.117L210.465 386.205L215.542 622.112L217.217 622.128ZM211.559 386.025L216.626 621.544H216.107L211.053 386.463C211.216 386.316 211.38 386.172 211.559 386.025Z" fill="#1D1D1B"/>
<path d="M214.202 622.098L209.152 387.423L208.672 387.913C208.319 388.272 207.956 388.658 207.59 389.063L207.515 389.148L212.527 622.076L214.202 622.098ZM208.603 388.818L213.611 621.517H213.092L208.113 389.367C208.267 389.177 208.44 388.994 208.603 388.818Z" fill="#1D1D1B"/>
<path d="M251.562 614.781L252.078 613.912C252.444 613.294 252.8 612.654 253.143 612.004L253.176 611.939L249.507 441.555C249.073 439.409 248.661 437.439 248.282 435.704L247.71 435.769L251.562 614.781ZM252.594 611.801C252.431 612.109 252.268 612.416 252.098 612.719L248.354 438.821C248.544 439.722 248.736 440.663 248.932 441.643L252.594 611.801Z" fill="#1D1D1B"/>
<path d="M260.552 585.996C260.912 583.452 261.206 580.769 261.477 578.002V577.97L260.066 512.306C259.661 508.166 259.2 503.91 258.697 499.637L258.119 499.676L259.974 585.957L260.552 585.996ZM260.899 577.966C260.771 579.361 260.628 580.74 260.471 582.089L258.837 506.004C259.069 508.144 259.288 510.251 259.491 512.348L260.899 577.966Z" fill="#1D1D1B"/>
<path d="M257.299 601.547L257.821 599.613C258.177 598.306 258.517 596.924 258.834 595.519V595.451L256.394 482.09V482.071C255.985 479.206 255.554 476.305 255.113 473.446L254.538 473.495L257.299 601.547ZM258.279 595.428C258.125 596.107 257.952 596.78 257.805 597.44L255.234 477.955C255.44 479.346 255.642 480.738 255.838 482.12L258.279 595.428Z" fill="#1D1D1B"/>
<path d="M235.306 622.298L230.017 376.558L229.658 376.659L228.564 376.986L228.354 377.048L233.63 622.292L235.306 622.298ZM229.455 377.319L234.715 621.713H234.196L228.943 377.472L229.455 377.319Z" fill="#1D1D1B"/>
<path d="M248.622 618.747L249.115 618.146C249.468 617.718 249.821 617.264 250.193 616.754L250.252 616.676L246.126 425.064C245.698 422.751 245.277 420.337 244.875 417.896L244.3 417.949L248.622 618.747ZM249.671 616.493C249.497 616.725 249.344 616.947 249.164 617.146L244.966 421.869C245.162 422.976 245.358 424.074 245.554 425.136L249.671 616.493Z" fill="#1D1D1B"/>
<path d="M241.334 622.357L236.012 374.996L235.662 375.081L234.571 375.352L234.346 375.411L239.661 622.341L241.334 622.357ZM235.453 375.731L240.745 621.772H240.229L234.937 375.865L235.453 375.731Z" fill="#1D1D1B"/>
<path d="M244.349 622.383L239.011 374.271L238.632 374.362L237.57 374.617L237.345 374.672L242.673 622.366L244.349 622.383ZM238.449 375.002L243.758 621.801H243.241L237.933 375.133L238.449 375.002Z" fill="#1D1D1B"/>
<path d="M168.982 621.674L167.594 557.192L167.064 558.826C166.738 559.842 166.411 560.871 166.039 561.965V562.014L167.322 621.648L168.982 621.674ZM167.087 560.639L168.394 621.076H167.875L166.607 562.102C166.77 561.609 166.93 561.119 167.087 560.639Z" fill="#1D1D1B"/>
<path d="M153.905 621.533L153.314 594.056L152.791 595.157C152.439 595.895 152.089 596.618 151.743 597.326L151.713 597.388L152.233 621.517L153.905 621.533ZM152.788 596.496L153.317 620.949H152.798L152.295 597.522C152.458 597.179 152.625 596.839 152.788 596.496Z" fill="#1D1D1B"/>
<path d="M159.936 621.589L159.061 580.93L158.535 582.207C158.186 583.05 157.839 583.88 157.493 584.696L157.47 584.752L158.26 621.573L159.936 621.589ZM158.541 583.693L159.345 621.008H158.829L158.051 584.87C158.215 584.477 158.378 584.089 158.541 583.693Z" fill="#1D1D1B"/>
<path d="M150.893 621.504L150.43 599.981L149.907 601.001C149.551 601.697 149.201 602.376 148.855 603.033L148.822 603.101L149.218 621.487L150.893 621.504ZM149.913 602.281L150.315 620.902H149.796L149.417 603.222C149.567 602.922 149.734 602.605 149.9 602.281H149.913Z" fill="#1D1D1B"/>
<path d="M162.952 621.618L161.919 573.631L161.39 575.013C161.044 575.918 160.701 576.809 160.354 577.688L160.332 577.741L161.276 621.602L162.952 621.618ZM161.397 576.587L162.354 621.033H161.838L160.907 577.848C161.07 577.43 161.24 577.009 161.397 576.587Z" fill="#1D1D1B"/>
<path d="M144.863 621.448L144.631 610.69L144.115 611.566C143.749 612.183 143.396 612.775 143.059 613.33L143.014 613.402L143.187 621.432L144.863 621.448ZM144.095 612.729L144.271 620.863H143.755L143.595 613.562C143.755 613.307 143.925 613.013 144.082 612.729H144.095Z" fill="#1D1D1B"/>
<path d="M141.847 621.419L141.72 615.493L141.207 616.29C140.851 616.846 140.505 617.375 140.149 617.907L140.1 617.986L140.171 621.403L141.847 621.419ZM141.194 617.395L141.266 620.835H140.75L140.691 618.156L141.194 617.395Z" fill="#1D1D1B"/>
<path d="M199.129 621.958L194.673 414.854L194.147 416.69C193.801 417.893 193.458 419.144 193.128 420.405V420.483L197.463 621.941L199.129 621.958ZM194.177 418.722L198.538 621.373H198.018L193.696 420.516C193.858 419.913 194.018 419.315 194.177 418.722Z" fill="#1D1D1B"/>
<path d="M138.832 621.39L138.8 619.891L138.297 620.577C138.133 620.802 138.042 620.903 138.042 620.923L137.689 621.38L138.832 621.39Z" fill="#1D1D1B"/>
<path d="M187.071 621.844L184 479.264L183.425 479.238C183.349 479.909 183.274 480.583 183.2 481.26C183 483.067 182.778 484.959 182.5 487.216V487.255L185.398 621.831L187.071 621.844ZM183.516 483.613L186.48 621.265H185.96L183.079 487.275C183.242 485.942 183.386 484.743 183.516 483.613Z" fill="#1D1D1B"/>
<path d="M190.083 621.873L186.571 458.585L185.996 458.553C185.669 460.813 185.362 463.198 185.052 465.642V465.684L188.413 621.857L190.083 621.873ZM186.071 462.287L189.491 621.289H188.975L185.627 465.697C185.774 464.544 185.924 463.404 186.071 462.287Z" fill="#1D1D1B"/>
<path d="M196.114 621.929L191.867 425.381L191.347 427.707C191.021 429.232 190.671 430.801 190.367 432.375V432.437L194.444 621.916L196.114 621.929ZM191.409 430.213L195.522 621.347H195.006L190.942 432.463C191.092 431.716 191.248 430.966 191.409 430.213Z" fill="#1D1D1B"/>
<path d="M171.994 621.703L170.406 547.823L169.88 549.636C169.554 550.754 169.227 551.877 168.858 553.08V553.122L170.335 621.687L171.994 621.703ZM169.907 551.59L171.403 621.119H170.887L169.426 553.204C169.592 552.653 169.752 552.115 169.907 551.59Z" fill="#1D1D1B"/>
<path d="M178.025 621.759L175.96 525.739L175.438 528.026C175.075 529.63 174.748 531.045 174.438 532.351V532.427L176.359 621.726L178.025 621.759ZM175.48 530.447L177.44 621.178H176.924L175.013 532.472C175.16 531.822 175.317 531.152 175.48 530.447Z" fill="#1D1D1B"/>
<path d="M181.04 621.801L178.681 512.257L178.169 514.949C177.868 516.523 177.545 518.157 177.188 519.944V520.009L179.377 621.785L181.04 621.801ZM178.221 517.703L180.449 621.217H179.929L177.754 520.032C177.917 519.222 178.074 518.441 178.221 517.69V517.703Z" fill="#1D1D1B"/>
<g style="mix-blend-mode:color-burn" opacity="0.39">
<path d="M244.702 622.389L244.78 622.33C252.621 616.476 257.929 604.323 260.523 586.212C262.66 571.282 262.986 552.236 261.503 529.61C258.361 481.914 248.602 437.157 248.188 435.273C242.19 407.975 239.605 374.816 239.579 374.486L239.553 374.159L239.226 374.238C231 376.198 224.245 377.936 218.413 380.879C211.981 384.126 207.1 388.674 203.059 395.191C194.238 409.419 188.289 435.165 183.219 481.273C177.858 530.048 165.859 565.431 156.738 586.525C146.859 609.371 138.146 620.827 138.061 620.935L137.708 621.396H138.287L244.702 622.389ZM239.021 374.865C239.308 378.458 241.931 409.539 247.616 435.397C248.027 437.278 257.776 482.005 260.918 529.646C262.408 552.24 262.082 571.24 259.938 586.13C257.377 604.023 252.183 616.025 244.502 621.808L138.829 620.827C140.538 618.475 148.434 607.107 157.238 586.754C163.309 572.574 168.348 557.975 172.318 543.069C177.545 523.664 181.403 502.887 183.775 481.326C194.271 385.871 208.322 382.189 239.021 374.865Z" fill="#1D1D1B"/>
</g>
<g style="mix-blend-mode:color-burn" opacity="0.39">
<path d="M244.702 622.389L244.78 622.33L245.107 622.072L245.865 621.474L172.053 620.099C173.288 615.627 185.48 570.116 195.267 481.077C204.519 397.04 216.44 384.512 239.592 377.478L239.815 377.41L239.795 377.174C239.641 375.446 239.57 374.486 239.57 374.486L239.543 374.159L239.217 374.238C230.991 376.198 224.235 377.936 218.403 380.879C211.971 384.126 207.09 388.674 203.049 395.191C194.229 409.419 188.28 435.165 183.209 481.273C177.849 530.031 165.856 565.408 156.748 586.499C146.869 609.351 138.146 620.821 138.061 620.935L137.708 621.396H138.287L244.702 622.389ZM239.197 376.992C227.244 380.657 218.407 385.956 211.37 400.791C204.307 415.681 199.168 440.421 194.709 481.015C184.444 574.386 171.543 619.857 171.413 620.298L171.308 620.661L220.935 621.585L138.855 620.821C140.564 618.469 148.46 607.1 157.264 586.747C163.325 572.569 168.356 557.972 172.318 543.069C177.545 523.664 181.403 502.887 183.775 481.326C194.271 385.871 208.322 382.189 239.021 374.865C239.05 375.257 239.109 375.982 239.197 376.992Z" fill="#1D1D1B"/>
</g>
<g style="mix-blend-mode:overlay">
<path d="M244.702 622.386L244.78 622.33C252.621 616.476 257.926 604.323 260.52 586.212C262.656 571.282 262.983 552.236 261.5 529.61C258.354 481.914 248.596 437.157 248.184 435.273C242.183 407.975 239.599 374.816 239.573 374.486L239.546 374.159L239.22 374.238C237.315 374.692 236.182 374.966 235.522 375.126L234.868 375.29L234.725 375.329C234.571 375.381 234.434 375.469 234.483 375.682C234.487 375.719 234.499 375.754 234.519 375.786C234.538 375.818 234.565 375.845 234.596 375.865C234.627 375.886 234.663 375.899 234.699 375.904C234.736 375.909 234.774 375.905 234.81 375.894C235.718 385.672 238.674 411.16 242.265 435.936C246.185 463.051 245.061 503.508 239.373 538.989C232.614 580.815 220.853 610.367 206.198 622.193L205.545 622.712L244.702 622.386ZM239.017 374.865C239.305 378.458 241.928 409.539 247.612 435.397C248.024 437.278 257.772 482.005 260.915 529.646C262.405 552.24 262.078 571.24 259.935 586.13C257.371 604.026 252.176 616.028 244.496 621.811L207.178 622.137C221.654 609.893 233.258 580.465 239.89 539.084C245.587 503.55 246.724 463.031 242.787 435.851C239.194 411.023 236.224 385.472 235.326 375.76C235.881 375.619 236.94 375.361 239.017 374.865Z" fill="#1D1D1B"/>
</g>
<path d="M-14.9328 622.605H-14.8348L80.2507 621.216L79.8946 620.759C79.8162 620.658 72.0116 610.507 63.129 590.243C54.9291 571.543 44.1093 540.162 39.1208 496.856C34.4001 455.896 28.9935 433.038 21.0844 420.428C17.4549 414.649 13.0904 410.627 7.36354 407.769C2.16595 405.178 -3.84836 403.666 -11.1727 401.96L-11.4994 401.882L-11.5223 402.209C-11.5451 402.503 -13.6881 431.98 -18.8955 456.269C-19.2516 457.945 -27.7161 497.781 -30.2937 540.178C-31.5155 560.302 -31.1365 577.228 -29.1666 590.488C-26.7753 606.584 -22.0089 617.368 -14.9982 622.539L-14.9328 622.605ZM79.0975 620.645L-14.7433 622.017C-21.5842 616.914 -26.2493 606.28 -28.608 590.403C-30.5681 577.185 -30.9471 560.299 -29.7285 540.217C-27.1575 497.862 -18.6995 458.065 -18.3402 456.393C-13.4399 433.472 -11.238 405.943 -10.9832 402.591C16.2919 408.948 28.7811 412.186 38.5458 496.915C40.6257 515.432 44.1206 533.763 48.9998 551.746C52.5958 564.971 57.1399 577.92 62.5965 590.491C70.4697 608.407 77.4935 618.459 79.0975 620.651V620.645Z" fill="#1D1D1B"/>
<path d="M4.11621 622.328L5.66797 622.305L9.16024 408.723L9.00998 408.642C8.68329 408.462 8.3566 408.286 8.02991 408.112L7.61502 407.894L4.11621 622.328ZM5.09627 621.733H4.70099L8.18018 408.844L8.57219 409.06L5.09627 621.733Z" fill="#1D1D1B"/>
<path d="M1.4375 622.367L2.98926 622.344L6.49788 407.351L6.32472 407.273C5.99804 407.122 5.67135 406.979 5.34466 406.835L4.94938 406.665L1.4375 622.367ZM2.41756 621.772H2.0222L5.51455 407.534L5.90983 407.71L2.41756 621.772Z" fill="#1D1D1B"/>
<path d="M-3.90723 622.454L-2.35219 622.435L1.18912 405.263L0.986538 405.194C0.659851 405.09 0.333164 404.982 0.00647712 404.868L-0.362641 404.75L-3.90723 622.454ZM-2.92717 621.863H-3.32244L0.195981 405.534L0.587989 405.661L-2.92717 621.863Z" fill="#1D1D1B"/>
<path d="M20.1924 622.092L21.7441 622.069L24.913 427.759L24.8868 427.7C24.5797 427.001 24.2629 426.308 23.9427 425.645L23.4135 424.541L20.1924 622.092ZM21.1724 621.497H20.7772L23.9493 427.017C24.0767 427.298 24.2041 427.582 24.3282 427.87L21.1724 621.497Z" fill="#1D1D1B"/>
<path d="M17.5107 622.128L19.0658 622.105L22.3326 422.499L22.2967 422.431C21.97 421.872 21.6433 421.327 21.3428 420.797L20.8233 419.951L17.5107 622.128ZM18.4908 621.533H18.0923L21.3591 421.98C21.4865 422.199 21.6172 422.424 21.7446 422.633L18.4908 621.533Z" fill="#1D1D1B"/>
<path d="M9.4873 622.248L11.0391 622.226L14.4627 412.492L14.3614 412.404C14.0348 412.133 13.7081 411.859 13.3814 411.591L12.9208 411.222L9.4873 622.248ZM10.4674 621.654H10.0721L13.4859 412.411L13.8747 412.738L10.4674 621.654Z" fill="#1D1D1B"/>
<path d="M12.1528 622.209L13.7046 622.186L17.0858 415.093L17.0074 415.008C16.6807 414.649 16.3541 414.306 16.0274 413.989L15.5439 413.502L12.1528 622.209ZM13.1329 621.615H12.7376L16.109 414.89C16.2397 415.024 16.3671 415.165 16.4978 415.309L13.1329 621.615Z" fill="#1D1D1B"/>
<path d="M52.3418 621.622L53.8936 621.599L54.7593 568.555V568.506C54.4326 567.591 54.1419 566.663 53.8315 565.719L53.2958 564.086L52.3418 621.622ZM53.3219 621.027H52.9266L53.7988 567.516C53.9262 567.892 54.0504 568.268 54.1778 568.64L53.3219 621.027Z" fill="#1D1D1B"/>
<path d="M65.7393 621.425L67.291 621.402L67.6373 599.913L67.6079 599.851C67.2965 599.224 66.9829 598.582 66.6671 597.927L66.1378 596.829L65.7393 621.425ZM66.7193 620.834H66.3306L66.6802 599.273L67.0656 600.05L66.7193 620.834Z" fill="#1D1D1B"/>
<path d="M63.0635 621.475L64.6152 621.452L65.053 594.516L65.0269 594.458C64.7165 593.781 64.4029 593.099 64.086 592.396L63.5568 591.217L63.0635 621.475ZM64.0435 620.88H63.6483L64.0892 593.801L64.4715 594.631L64.0435 620.88Z" fill="#1D1D1B"/>
<path d="M60.3784 621.504L61.9335 621.481L62.4659 588.715L62.4431 588.656C62.1338 587.933 61.8213 587.198 61.5055 586.451L60.973 585.177L60.3784 621.504ZM61.3585 620.913H60.9599L61.4989 587.918C61.6263 588.218 61.7537 588.512 61.8811 588.81L61.3585 620.913Z" fill="#1D1D1B"/>
<path d="M68.418 621.386L69.9697 621.363L70.2376 604.98L70.2017 604.914C69.8947 604.33 69.5777 603.728 69.2608 603.111L68.7317 602.092L68.418 621.386ZM69.398 620.795H69.0028L69.2707 604.388L69.6529 605.117L69.398 620.795Z" fill="#1D1D1B"/>
<path d="M57.6997 621.543L59.2547 621.52L59.8918 582.497L59.8689 582.442C59.5585 581.664 59.2449 580.874 58.9346 580.07L58.3988 578.691L57.6997 621.543ZM58.6798 620.948H58.2845L58.9379 581.638C59.062 581.965 59.1894 582.291 59.3168 582.595L58.6798 620.948Z" fill="#1D1D1B"/>
<path d="M73.7759 621.308L75.3276 621.286L75.4452 614.098L75.4028 614.027C75.099 613.533 74.7821 613.011 74.4554 612.465L73.936 611.593L73.7759 621.308ZM74.7559 620.717H74.3607L74.475 613.631L74.8605 614.262L74.7559 620.717Z" fill="#1D1D1B"/>
<path d="M76.458 621.269L78.013 621.246L78.062 618.165L78.0098 618.09C77.7223 617.662 77.4087 617.188 77.0624 616.659L76.5462 615.865L76.458 621.269ZM77.4381 620.677H77.0428L77.0918 617.757L77.4773 618.335L77.4381 620.677Z" fill="#1D1D1B"/>
<path d="M25.5503 622.014L27.1021 621.991L30.0129 442.813C29.7156 441.689 29.4052 440.578 29.0916 439.513L28.5559 437.681L25.5503 622.014ZM26.5304 621.419H26.1351L29.0753 441.545C29.1994 441.999 29.3269 442.457 29.4477 442.914L26.5304 621.419Z" fill="#1D1D1B"/>
<path d="M79.1333 621.229H80.2506L79.8945 620.772L79.6658 620.468L79.1595 619.782L79.1333 621.229Z" fill="#1D1D1B"/>
<path d="M55.0205 621.582L56.5755 621.559L57.3204 575.8L57.3009 575.751C56.9894 574.908 56.679 574.053 56.3698 573.187L55.834 571.69L55.0205 621.582ZM56.0006 620.991H55.6053L56.36 574.863C56.4841 575.209 56.6115 575.552 56.7356 575.895L56.0006 620.991Z" fill="#1D1D1B"/>
<path d="M71.0972 621.347L72.6489 621.324L72.8384 609.704L72.7992 609.635C72.4921 609.095 72.1774 608.535 71.855 607.956L71.3324 607.012L71.0972 621.347ZM72.0772 620.755H71.6819L71.8714 609.171C71.9988 609.4 72.1294 609.625 72.2568 609.851L72.0772 620.755Z" fill="#1D1D1B"/>
<path d="M36.2754 621.857L37.8304 621.834L39.7905 502.145C39.5325 500.136 39.3267 498.457 39.1372 496.853C39.0653 496.252 38.9956 495.654 38.9281 495.06L38.3499 495.089L36.2754 621.857ZM37.2555 621.262H36.8602L38.8496 499.408C38.9542 500.277 39.0718 501.195 39.1992 502.191L37.2555 621.262Z" fill="#1D1D1B"/>
<path d="M33.5869 621.896L35.1387 621.873L37.4026 482.982C37.1151 480.823 36.8211 478.703 36.5304 476.684L35.9554 476.72L33.5869 621.896ZM34.567 621.301H34.1717L36.4585 480.421C36.5761 481.292 36.6937 482.163 36.8113 483.034L34.567 621.301Z" fill="#1D1D1B"/>
<path d="M28.229 621.974L29.7808 621.951L32.5216 453.436C32.2309 452.038 31.9238 450.646 31.6167 449.294L31.0842 446.968L28.229 621.974ZM29.2091 621.379H28.8137L31.5807 451.799C31.7049 452.368 31.8258 452.943 31.9467 453.518L29.2091 621.379Z" fill="#1D1D1B"/>
<path d="M46.9844 621.7L48.5361 621.677L49.673 551.966V551.927C49.3463 550.741 49.0457 549.64 48.755 548.536L48.2193 546.517L46.9844 621.7ZM47.9644 621.106H47.5692L48.7191 550.672L49.0915 552.034L47.9644 621.106Z" fill="#1D1D1B"/>
<path d="M49.6694 621.661L51.2212 621.638L52.2176 560.656V560.613C51.8909 559.551 51.5871 558.552 51.2931 557.559L50.7573 555.752L49.6694 621.661ZM50.6495 621.067H50.2542L51.2572 559.502C51.3813 559.904 51.5054 560.313 51.6328 560.731L50.6495 621.067Z" fill="#1D1D1B"/>
<path d="M44.3052 621.739L45.8569 621.716L47.1441 542.233C46.8598 541.064 46.5626 539.806 46.2326 538.391L45.7001 536.104L44.3052 621.739ZM45.2852 621.144H44.89L46.1967 540.779C46.3241 541.312 46.4449 541.821 46.5658 542.318L45.2852 621.144Z" fill="#1D1D1B"/>
<path d="M41.6265 621.778L43.1782 621.755L44.6483 531.194C44.3216 529.623 44.0244 528.173 43.7467 526.758L43.2175 524.069L41.6265 621.778ZM42.6065 621.184H42.2112L43.7042 529.502C43.8218 530.077 43.9449 530.667 44.0734 531.273L42.6065 621.184Z" fill="#1D1D1B"/>
<g style="mix-blend-mode:color-burn" opacity="0.39">
<path d="M-14.9328 622.605H-14.8348L80.2507 621.216L79.8946 620.759C79.8162 620.658 72.0116 610.504 63.129 590.243C54.9291 571.543 44.1093 540.159 39.1208 496.856C34.4001 455.893 28.9935 433.038 21.0844 420.428C17.4549 414.649 13.0904 410.627 7.36354 407.765C2.16595 405.175 -3.84836 403.666 -11.1727 401.957L-11.4994 401.882L-11.5223 402.209C-11.5451 402.506 -13.6881 431.983 -18.8955 456.272C-19.2516 457.945 -27.7161 497.781 -30.2937 540.182C-31.5155 560.302 -31.1365 577.228 -29.1666 590.491C-26.7753 606.584 -22.0089 617.368 -14.9982 622.543L-14.9328 622.605ZM79.0975 620.645L-14.7433 622.013C-21.5874 616.914 -26.2493 606.28 -28.608 590.403C-30.5681 577.182 -30.9471 560.299 -29.7285 540.214C-27.1575 497.859 -18.6995 458.065 -18.3402 456.393C-13.4399 433.469 -11.238 405.943 -10.9864 402.587C16.2919 408.945 28.7811 412.186 38.5458 496.912C40.6254 515.43 44.1203 533.762 48.9998 551.746C52.5964 564.971 57.1404 577.919 62.5965 590.491C70.4697 608.407 77.4935 618.462 79.0975 620.654V620.645Z" fill="#1D1D1B"/>
</g>
<g style="mix-blend-mode:overlay">
<path d="M-14.9329 622.605H-14.8349L80.2506 621.216L79.8945 620.759C79.8161 620.658 72.0116 610.504 63.1289 590.243C54.9291 571.543 44.1092 540.159 39.1207 496.856C34.4001 455.893 28.9934 433.038 21.0843 420.428C17.4548 414.649 13.0903 410.627 7.36348 407.765C2.16589 405.175 -3.84842 403.666 -11.1727 401.957L-11.4994 401.882L-11.5223 402.209C-11.5223 402.209 -11.5843 403.064 -11.7117 404.6L-11.7314 404.835L-11.506 404.904C9.07532 411.042 19.7318 422.104 28.3498 496.745C37.4317 575.578 48.4346 615.986 49.6139 620.161L-16.0273 621.726L-15.2825 622.307L-14.9819 622.539L-14.9329 622.605ZM79.0974 620.645L13.1687 621.625L50.349 620.736L50.2444 620.377C50.1268 619.978 38.451 579.629 28.8954 496.696C24.7399 460.637 20.0552 438.667 13.7077 425.478C7.38632 412.326 -0.490103 407.651 -11.1205 404.45C-11.0486 403.594 -11.0028 402.973 -10.9734 402.62C16.3017 408.977 28.7909 412.218 38.5555 496.945C40.6351 515.463 44.13 533.794 49.0095 551.779C52.6061 565.003 57.1501 577.952 62.6063 590.524C70.4696 608.407 77.4934 618.462 79.0974 620.654V620.645Z" fill="#1D1D1B"/>
</g>
<g style="mix-blend-mode:color-burn" opacity="0.39">
<path d="M-14.9327 622.605H-14.8379L19.9706 622.713L19.3172 622.197C6.24975 611.743 -4.35125 585.556 -10.506 548.408C-15.733 516.906 -16.9222 480.964 -13.554 456.844C-10.4799 434.832 -7.97099 412.189 -7.20654 403.473C-7.17408 403.478 -7.141 403.476 -7.10932 403.468C-7.07764 403.459 -7.04796 403.444 -7.02206 403.424C-6.99617 403.404 -6.97459 403.379 -6.95858 403.351C-6.94256 403.322 -6.93244 403.29 -6.92883 403.258C-6.87982 403.042 -7.02356 402.954 -7.1673 402.908L-7.29148 402.876L-7.88927 402.732L-11.179 401.961L-11.5057 401.886L-11.5319 402.212C-11.5515 402.51 -13.6945 431.987 -18.9019 456.276C-19.2612 457.948 -27.7225 497.785 -30.3 540.185C-31.5218 560.306 -31.1429 577.232 -29.173 590.495C-26.7849 606.588 -22.0152 617.372 -15.0045 622.546L-14.9327 622.605ZM18.3274 622.128L-14.7399 622.027C-21.6003 616.927 -26.2459 606.291 -28.6045 590.414C-30.5647 577.193 -30.9469 560.309 -29.7251 540.225C-27.154 497.87 -18.6993 458.076 -18.34 456.403C-13.4397 433.48 -11.2378 405.953 -10.983 402.598L-7.7717 403.353C-8.52962 412.007 -11.0386 434.715 -14.1225 456.763C-17.4972 480.937 -16.3015 516.945 -11.0712 548.503C-4.99482 585.193 5.42976 611.276 18.3274 622.128Z" fill="#1D1D1B"/>
</g>
<path d="M78.6988 622.713H78.9111L108.261 622.004L137.81 622.716L137.878 622.517C142.612 608.714 141.076 585.601 138.956 568.663C136.633 550.1 133.017 533.949 132.458 532.074C131.478 528.807 127.307 501.623 127.045 493.27C126.787 485.067 124.546 475.821 121.593 470.784C119.58 467.354 111.011 465.142 108.715 464.779V464.665L108.254 464.714L107.793 464.665V464.773C105.507 465.135 96.9312 467.347 94.9155 470.777C91.9753 475.815 89.7212 485.06 89.4631 493.263C89.2018 501.613 85.0267 528.803 84.0499 532.067C83.4912 533.949 79.8749 550.1 77.5521 568.656C75.4319 585.605 73.8964 608.708 78.6301 622.51L78.6988 622.713ZM108.261 621.406L79.1104 622.109C74.4943 608.388 76.0232 585.52 78.1304 568.715C80.4498 550.185 84.0531 534.086 84.6118 532.214C85.5918 528.947 89.7865 501.639 90.0479 493.263C90.3027 485.145 92.5111 476.011 95.4219 471.049C97.2742 467.889 105.791 465.563 108.123 465.289H108.261H108.398C110.73 465.563 119.247 467.903 121.099 471.049C124.01 476.008 126.219 485.142 126.473 493.263C126.735 501.639 130.929 528.934 131.91 532.214C132.468 534.086 136.072 550.182 138.391 568.715C140.492 585.52 142.021 608.388 137.411 622.109L108.261 621.406Z" fill="#1D1D1B"/>
<g opacity="0.8">
<path d="M121.649 622.324V470.895L121.58 470.774C121.297 470.311 120.944 469.895 120.535 469.539L120.051 469.104V622.285L121.649 622.324ZM121.071 471.048V621.733H120.63V470.477C120.793 470.654 120.941 470.845 121.071 471.048Z" fill="#1D1D1B"/>
<path d="M124.452 622.393V477.671V477.631C124.125 476.605 123.798 475.609 123.426 474.668L122.867 473.228V622.35L124.452 622.393ZM123.873 477.762V621.802H123.432V476.426C123.587 476.861 123.734 477.307 123.873 477.762Z" fill="#1D1D1B"/>
<path d="M113.24 622.128V465.916L113.037 465.85C112.687 465.739 112.345 465.638 112.011 465.543L111.642 465.436V622.082L113.24 622.128ZM112.661 466.347V621.523H112.22V466.207L112.661 466.347Z" fill="#1D1D1B"/>
<path d="M116.043 622.19V466.951L115.863 466.876C115.536 466.739 115.18 466.605 114.834 466.478L114.445 466.334V622.164L116.043 622.19ZM115.465 467.34V621.608H115.024V467.154L115.465 467.34Z" fill="#1D1D1B"/>
<path d="M76.2228 611.328L76.8011 611.292V581.292L76.2228 581.27C75.2493 593.161 75.2493 603.269 76.2228 611.328ZM76.2228 590.623V604.249C76.0203 600.106 76.0203 595.552 76.2228 590.623Z" fill="#1D1D1B"/>
<path d="M137.8 622.713L137.869 622.513C138.055 621.964 138.245 621.363 138.457 620.622V620.543V564.974C138.147 562.687 137.804 560.341 137.434 557.979L136.859 558.022V622.706L137.8 622.713ZM137.888 620.501C137.732 621.046 137.588 621.517 137.447 621.945V561.896C137.6 562.955 137.747 564 137.888 565.033V620.501Z" fill="#1D1D1B"/>
<path d="M140.25 611.436C141.23 603.321 141.23 593.119 140.25 581.116L139.672 581.139V611.403L140.25 611.436ZM140.25 590.296C140.469 595.461 140.469 600.211 140.25 604.52V590.296Z" fill="#1D1D1B"/>
<path d="M132.86 622.595V533.681C132.678 532.906 132.534 532.335 132.452 532.047C132.312 531.577 132.106 530.633 131.845 529.244L131.27 529.3V622.539L132.86 622.595ZM132.282 533.782V621.987H131.841V532.05L131.893 532.227C131.965 532.482 132.109 533.043 132.282 533.782Z" fill="#1D1D1B"/>
<path d="M130.058 622.527V518.526C129.705 516.207 129.362 513.855 129.038 511.535L128.463 511.574V622.488L130.058 622.527ZM129.479 518.592V621.936H129.038V515.629C129.185 516.625 129.332 517.612 129.479 518.592Z" fill="#1D1D1B"/>
<path d="M86.4155 622.526L88.0131 622.487V511.675L87.4381 511.636C87.1114 513.958 86.7684 516.307 86.4188 518.617V622.526H86.4155ZM87.4348 621.925H86.9938V518.682C87.1408 517.702 87.2878 516.722 87.4348 515.742V621.925Z" fill="#1D1D1B"/>
<path d="M89.2188 622.454L90.8162 622.418V485.445L90.2412 485.399C89.8055 487.999 89.5425 490.625 89.454 493.26C89.4246 494.178 89.3462 495.373 89.2188 496.814V622.454ZM90.238 621.853H89.797V496.85C89.9244 495.406 90.0028 494.204 90.0322 493.279C90.0649 492.19 90.1334 491.084 90.238 489.96V621.853Z" fill="#1D1D1B"/>
<path d="M78.6893 622.713L79.604 622.69V558.114L79.0291 558.071C78.6632 560.433 78.3201 562.789 78.0098 565.079V620.534V620.573C78.2221 621.318 78.4214 621.952 78.6142 622.514L78.6893 622.713ZM79.016 561.995V621.899C78.8722 621.468 78.7285 620.988 78.5749 620.452V565.134C78.7252 564.102 78.8723 563.05 79.0258 561.995H79.016Z" fill="#1D1D1B"/>
<path d="M80.8096 622.661L82.407 622.625V542.191L81.8353 542.136C81.4923 543.87 81.1461 545.677 80.8128 547.503V622.661H80.8096ZM81.8288 622.06H81.3878V547.575C81.5316 546.778 81.6785 545.987 81.8288 545.203V622.06Z" fill="#1D1D1B"/>
<path d="M106.037 622.053L107.634 622.017V464.789L107.307 464.854C107 464.913 106.654 464.988 106.275 465.077L106.053 465.129L106.037 622.053ZM107.056 621.452H106.615V465.589L107.056 465.491V621.452Z" fill="#1D1D1B"/>
<path d="M103.247 622.128L104.844 622.089V465.442L104.475 465.547C104.148 465.642 103.799 465.746 103.449 465.874L103.247 465.936V622.128ZM104.266 621.527H103.825V466.351L104.266 466.217V621.527Z" fill="#1D1D1B"/>
<path d="M94.8242 622.324L96.4218 622.284V469.117L95.9382 469.552C95.5348 469.905 95.1868 470.317 94.9059 470.773L94.8765 470.826L94.8242 470.921V622.324ZM95.8435 621.722H95.4025V471.071C95.5294 470.858 95.676 470.658 95.8403 470.473L95.8435 621.722Z" fill="#1D1D1B"/>
<path d="M97.6274 622.256L99.2249 622.22V467.475L98.8067 467.687C98.4441 467.867 98.0979 468.056 97.7712 468.246L97.6274 468.331V622.256ZM98.6467 621.655H98.2057V468.664L98.6467 468.419V621.655Z" fill="#1D1D1B"/>
</g>
<g style="mix-blend-mode:color-burn" opacity="0.76">
<path d="M137.8 622.713L137.878 622.514C142.612 608.711 141.077 585.598 138.956 568.659C136.634 550.097 133.017 533.946 132.459 532.07C131.479 528.803 127.307 501.62 127.045 493.267C126.906 489.431 126.412 485.616 125.569 481.872C125.455 481.365 125.347 480.911 125.242 480.477V480.451C125.125 479.98 125.01 479.552 124.899 479.144V479.105C124.899 479.105 124.899 479.072 124.899 479.056V479.033C123.975 475.701 122.844 472.845 121.632 470.777C120.698 469.19 118.365 467.896 116.173 466.975H116.258L114.746 466.416L114.651 466.383L114.579 466.357C114.337 466.269 114.096 466.187 113.857 466.106L113.119 465.864L112.746 465.746L112.439 465.652H112.38C111.19 465.291 109.979 465.002 108.754 464.786V464.665L108.294 464.714L107.833 464.665V464.773L107.673 464.799L107.346 464.861C107.039 464.92 106.693 464.995 106.314 465.083L106.092 465.139C105.703 465.233 105.298 465.338 104.886 465.465L104.517 465.57L104.318 465.629L104.203 465.658H104.164H104.122C103.338 465.89 102.56 466.148 101.815 466.423L100.28 466.981H100.43C100.032 467.151 99.6463 467.308 99.2804 467.497L98.8622 467.703L98.7609 467.755L98.6956 467.791C98.4506 467.919 98.2088 468.05 97.9801 468.18L97.9148 468.216L97.8266 468.262L97.6828 468.353C97.2656 468.603 96.8631 468.877 96.4774 469.173V469.144L95.9939 469.569C95.9089 469.644 95.824 469.729 95.7358 469.817L95.628 469.908C95.3912 470.154 95.18 470.424 94.9975 470.712L94.7263 471.153H94.7721C94.2668 472.069 93.8163 473.013 93.4228 473.982H93.3935L93.3216 474.165C93.2203 474.413 93.1223 474.668 93.0243 474.926L92.874 475.318H92.9002L92.8805 475.377C92.5539 476.213 92.3154 476.971 92.0933 477.693V477.768C92.0541 477.896 92.0181 478.023 91.9789 478.147H91.956L91.8939 478.357L91.6751 479.118L91.5738 479.484H91.6032C91.5183 479.81 91.4366 480.114 91.3517 480.464V480.493C91.2439 480.928 91.1328 481.395 91.025 481.878V481.924L90.9368 482.319H90.9139L90.8649 482.548C90.8094 482.799 90.7604 483.054 90.7081 483.309L90.6394 483.636H90.6656C90.5415 484.289 90.4336 484.854 90.3389 485.403C90.2801 485.756 90.2311 486.112 90.1788 486.468L90.1266 486.713C90.0939 486.932 90.0678 487.148 90.0384 487.367L89.9795 487.808C89.8619 488.729 89.7672 489.676 89.6921 490.637L89.6431 491.156L89.6039 491.666V491.973C89.5777 492.391 89.5549 492.829 89.5418 493.28C89.5287 493.73 89.5026 494.237 89.4634 494.828L89.434 495.083C89.434 495.325 89.3981 495.579 89.3785 495.838L89.3556 496.164C89.336 496.386 89.3164 496.612 89.2968 496.847V496.981C89.2413 497.602 89.1759 498.288 89.1008 498.997L89.0518 499.251L88.9374 500.329H88.9603C88.8623 501.218 88.7545 502.165 88.6336 503.159L88.5781 503.413C88.5487 503.662 88.5193 503.916 88.4866 504.168L88.4474 504.495H88.4703C88.3559 505.419 88.235 506.367 88.1109 507.327L88.0554 507.575L87.9116 508.66H87.9345C87.8081 509.599 87.6797 510.542 87.549 511.489L87.5033 511.737L87.3498 512.825C87.2125 513.776 87.0786 514.72 86.9414 515.654L86.8923 515.903L86.7323 516.991C86.6506 517.549 86.5657 518.104 86.484 518.65V518.742C86.4285 519.104 86.3729 519.467 86.3174 519.823L86.2553 520.065L86.0854 521.156H86.1083C85.9548 522.136 85.8012 523.086 85.6542 523.985H85.6314L85.4092 525.321H85.4321C85.2589 526.363 85.1054 527.314 84.942 528.15H84.9191L84.8734 528.389C84.8277 528.653 84.7787 528.902 84.733 529.143L84.6709 529.47C84.4324 530.731 84.2331 531.633 84.0992 532.083C84.0828 532.139 84.0632 532.214 84.0371 532.302L83.9685 532.521C83.9162 532.724 83.8509 532.979 83.779 533.282L83.6941 533.638L83.6647 533.763V533.841C83.485 534.605 83.2857 535.474 83.0734 536.455H83.0505L82.9983 536.68C82.946 536.925 82.8905 537.18 82.8382 537.438L82.7631 537.787H82.7859C82.5932 538.692 82.3972 539.643 82.2012 540.62H82.1783L81.9104 541.953H81.9333L81.8973 542.139C81.7307 542.978 81.5707 543.864 81.3844 544.785L81.3256 545.02L81.1198 546.121L80.8617 547.506V547.591C80.8029 547.918 80.7441 548.245 80.682 548.571H80.6592L80.4207 549.908H80.4468C80.2835 550.824 80.1201 551.767 79.9568 552.737H79.9339L79.7085 554.073H79.7314C79.5811 554.996 79.4287 555.939 79.2741 556.902L79.2119 557.147L79.042 558.238C78.8983 559.166 78.7579 560.11 78.6142 561.067L78.5684 561.315L78.4083 562.403C78.282 563.274 78.1579 564.167 78.0359 565.082V565.236L77.9803 565.484L77.8366 566.569H77.8595C77.7386 567.503 77.6177 568.45 77.5001 569.398L77.4479 569.652L77.3171 570.734H77.34C77.2289 571.658 77.1211 572.606 77.0133 573.563L76.9611 573.821L76.8467 574.899H76.8696C76.7683 575.86 76.6736 576.81 76.5854 577.728L76.5397 577.99L76.4384 579.064H76.4613C76.3959 579.803 76.3316 580.543 76.2685 581.286C76.2521 581.479 76.2391 581.668 76.2228 581.857L76.1737 582.351C76.1737 582.544 76.1444 582.733 76.128 582.922L76.1051 583.249C76.0365 584.17 75.9712 585.121 75.9124 586.078L75.883 586.353C75.883 586.604 75.8536 586.856 75.8373 587.111L75.821 587.414C75.7687 588.329 75.723 589.28 75.6805 590.244L75.6576 590.521C75.6576 590.688 75.6576 590.848 75.638 591.018L75.6184 591.58C75.5857 592.527 75.5563 593.478 75.54 594.412V594.693C75.54 594.948 75.54 595.199 75.54 595.454V595.745C75.54 596.725 75.5236 597.669 75.54 598.577V598.868V599.041C75.54 599.237 75.54 599.433 75.54 599.626V599.913C75.5563 600.894 75.5792 601.828 75.6118 602.743V603.043C75.6118 603.213 75.6119 603.37 75.6347 603.553L75.6576 604.079C75.7001 605.029 75.7556 605.977 75.8242 606.908L75.8536 607.48C75.8536 607.646 75.8765 607.806 75.8928 607.976L75.9124 608.244C76.0006 609.28 76.1052 610.289 76.2195 611.249V611.397L76.3077 612.083L76.3502 612.409H76.373C76.5037 613.389 76.6508 614.35 76.8076 615.238L76.85 615.565C76.8859 615.764 76.9219 615.957 76.9611 616.15L77.0395 616.561H77.0624C77.2584 617.541 77.474 618.502 77.7158 619.391L77.7942 619.753C77.8562 619.982 77.9182 620.207 77.9836 620.433L78.0751 620.727C78.2711 621.409 78.4573 621.997 78.637 622.523L78.7056 622.723H78.9147L108.277 622.014L137.8 622.713ZM108.261 621.406L79.0976 622.109C78.9343 621.615 78.7709 621.066 78.5847 620.436L78.5684 620.344L78.5063 620.135H78.49L78.4214 619.897L78.3561 619.57C78.0784 618.525 77.817 617.385 77.5818 616.179L77.5361 615.947H77.5164L77.4773 615.732L77.438 615.428C77.2453 614.376 77.0689 613.232 76.912 612.034L76.8794 611.782H76.8598L76.8304 611.57L76.7978 611.148C76.6736 610.106 76.5625 609.008 76.4711 607.881L76.4384 607.617C76.4384 607.555 76.4384 607.496 76.4384 607.437V607.127C76.3567 606.013 76.2881 604.869 76.2391 603.726V603.448V603.252V602.971C76.1967 601.883 76.1705 600.74 76.1542 599.57V599.283V599.107V598.816C76.1542 597.731 76.1542 596.62 76.1542 595.412V595.118C76.1542 595.059 76.1542 594.997 76.1542 594.938V594.657C76.1738 593.537 76.2065 592.393 76.2489 591.253V590.952C76.2489 590.89 76.2489 590.825 76.2489 590.76L76.275 590.498C76.3208 589.329 76.3763 588.185 76.4416 587.094L76.458 586.787V586.608L76.4874 586.336C76.556 585.18 76.6344 584.05 76.7193 582.932L76.7422 582.622C76.7422 582.563 76.7422 582.504 76.7422 582.442L76.7749 582.178L76.7978 581.851C76.7978 581.707 76.8206 581.563 76.8304 581.42C76.9022 580.531 76.9807 579.643 77.0591 578.757L77.0885 578.431H77.0657L77.0852 578.248L77.131 577.99C77.2355 576.889 77.3499 575.745 77.4577 574.585L77.4936 574.259H77.4707L77.4903 574.076L77.5393 573.821C77.6667 572.668 77.7974 571.534 77.9281 570.417L77.9673 570.09H77.9444L77.9673 569.911L78.0196 569.656C78.16 568.516 78.3071 567.369 78.4541 566.252L78.4965 565.925H78.4736L78.4998 565.742L78.5553 565.494L78.6011 565.072C78.7383 564.066 78.8777 563.072 79.0192 562.09L79.0682 561.763L79.0944 561.577L79.1433 561.335C79.3002 560.263 79.47 559.205 79.6203 558.169L79.7085 557.598H79.6856L79.715 557.415L79.7738 557.173C79.9568 556.014 80.1409 554.88 80.326 553.769L80.3815 553.442H80.3586L80.3913 553.263H80.4142L80.4534 553.021C80.6494 551.851 80.8487 550.714 81.0414 549.617L81.1035 549.29H81.0806L81.11 549.11H81.1362L81.1786 548.872C81.2537 548.454 81.3288 548.039 81.4007 547.63V547.546C81.5053 546.964 81.6098 546.399 81.7274 545.843L81.7928 545.517L81.8287 545.334L81.8843 545.105C82.0705 544.125 82.2534 543.174 82.4298 542.283L82.6161 541.352H82.5899L82.6258 541.175H82.652L82.6977 540.943C82.9362 539.761 83.1747 538.614 83.4034 537.536L83.4785 537.186H83.4556C83.4556 537.127 83.4785 537.069 83.4916 537.01H83.5177L83.5667 536.781C83.7986 535.7 84.0175 534.73 84.2201 533.9V533.821C84.256 533.665 84.292 533.518 84.3246 533.38L84.4128 533.021C84.4292 532.956 84.4455 532.89 84.4585 532.828L84.5239 532.626C84.5696 532.453 84.6088 532.299 84.6382 532.211C84.782 531.731 84.9813 530.813 85.2361 529.48L85.3537 528.856H85.3308C85.3308 528.797 85.3537 528.738 85.3635 528.676H85.3864L85.4321 528.441C85.6117 527.461 85.811 526.308 86.0234 525.027L86.0822 524.7H86.056L86.0854 524.521H86.1116L86.1508 524.279C86.3272 523.207 86.5102 522.064 86.6964 520.868L86.7486 520.542H86.7257L86.7552 520.362L86.8172 520.117C86.8858 519.676 86.9545 519.225 87.0231 518.771V518.679C87.1211 518.026 87.219 517.373 87.3171 516.719L87.3693 516.393L87.4444 515.968C87.611 514.841 87.7711 513.701 87.9345 512.557L87.9802 512.231L88.0064 512.051H88.0259L88.0619 511.803C88.222 510.663 88.3886 509.516 88.5291 508.392L88.5716 508.065H88.5487L88.5716 507.886L88.6271 507.634C88.7806 506.474 88.9244 505.347 89.0616 504.224L89.1008 503.897H89.0779C89.0779 503.838 89.0942 503.776 89.1008 503.717L89.1531 503.462C89.3001 502.254 89.4307 501.107 89.5451 500.052L89.5777 499.725H89.5549L89.5744 499.545L89.6235 499.284C89.7117 498.464 89.7835 497.693 89.8489 496.997V496.86C89.8783 496.533 89.9044 496.207 89.9306 495.88L89.9567 495.553C89.9567 495.491 89.9567 495.432 89.9567 495.374L89.9861 495.102C90.0351 494.397 90.0677 493.796 90.0841 493.28C90.1004 492.763 90.1331 492.198 90.1625 491.692L90.1821 491.388C90.1821 491.326 90.1821 491.267 90.1821 491.208L90.2148 490.94C90.2997 489.787 90.4173 488.654 90.561 487.549L90.6035 487.223C90.6035 487.161 90.6035 487.095 90.6296 487.03L90.6787 486.798L90.7113 486.576C90.7603 486.249 90.8094 485.903 90.8616 485.566C90.9694 484.913 91.1001 484.198 91.2569 483.404L91.3255 483.058H91.3026C91.3026 482.999 91.3255 482.94 91.3386 482.881H91.3615L91.4105 482.652C91.4562 482.43 91.5052 482.215 91.5542 481.999V481.973C91.6587 481.512 91.7665 481.052 91.8809 480.617L91.6065 480.519L91.8874 480.591C92.005 480.121 92.1161 479.696 92.2141 479.284L92.4134 478.889H92.3023C92.3186 478.83 92.3349 478.771 92.3545 478.713H92.3774L92.4722 478.386C92.5212 478.216 92.5702 478.059 92.6224 477.88V477.801C92.8381 477.102 93.0864 476.367 93.3869 475.557L93.6973 474.72H93.6776C93.7038 474.662 93.7266 474.603 93.7495 474.544H93.7757L93.8475 474.361C94.2876 473.26 94.8017 472.191 95.3862 471.16L95.4254 471.094V471.065V471.042L95.4581 470.996L95.6149 470.738C95.7103 470.608 95.8129 470.484 95.922 470.366L96.0168 470.287L96.1572 470.147L96.3336 469.99C96.868 469.518 97.4492 469.102 98.0683 468.749L98.199 468.673H98.2186C98.4375 468.546 98.6727 468.419 98.9112 468.298L98.9732 468.265L99.0712 468.216C99.6135 467.942 100.205 467.674 100.835 467.416L101.116 467.305L101.508 467.151L101.652 467.096H101.685L103.122 466.573C103.478 466.455 103.838 466.341 104.197 466.246H104.256L104.439 466.194H104.471L104.628 466.151C105.239 465.975 105.834 465.825 106.399 465.688L106.621 465.635C106.83 465.586 107.029 465.544 107.212 465.508L107.405 465.472C107.689 465.416 107.938 465.377 108.124 465.354H108.261H108.398C109.693 465.56 110.972 465.86 112.224 466.249H112.279L112.537 466.331L112.91 466.449C113.151 466.524 113.393 466.602 113.642 466.687L114.337 466.929L114.507 466.991C116.931 467.876 120.061 469.307 121.1 471.104C122.292 473.136 123.387 475.952 124.318 479.271V479.353L124.35 479.382C124.455 479.774 124.563 480.186 124.677 480.637L124.964 480.594L124.684 480.663C124.791 481.094 124.896 481.542 125.01 482.035C125.848 485.747 126.339 489.529 126.477 493.332C126.738 501.708 130.933 529.003 131.913 532.283C132.472 534.155 136.075 550.25 138.395 568.783C140.495 585.588 142.024 608.456 137.415 622.177L108.261 621.406Z" fill="#1D1D1B"/>
</g>
</g>
<path d="M-6 683H507" stroke="#515151" stroke-width="3.70463" stroke-miterlimit="10"/>
<path d="M-6 621H507" stroke="#515151" stroke-width="3.70463" stroke-miterlimit="10"/>
<g opacity="0.15">
<path d="M1.03662 651.926L507.037 651.926" stroke="#263239" stroke-width="3.70463" stroke-miterlimit="10" stroke-dasharray="45.16 45.16"/>
</g>
<path d="M292.127 520.21L274.365 466.812C250.549 462.453 228.417 451.545 210.454 435.311C156.745 386.906 152.459 304.139 200.865 250.429C249.271 196.72 332.036 192.408 385.745 240.814C439.455 289.22 443.754 371.999 395.348 425.709C375.953 447.287 349.909 461.773 321.347 466.87L321.42 466.88L292.127 520.21Z" fill="white"/>
<path d="M292.126 520.21L321.847 467.113C321.881 467.058 321.903 466.996 321.913 466.932C321.922 466.868 321.918 466.803 321.9 466.741C321.883 466.678 321.853 466.62 321.812 466.57C321.771 466.52 321.721 466.478 321.663 466.449C321.599 466.415 321.529 466.395 321.458 466.39L321.384 466.38L321.435 467.353C344.236 463.349 365.567 453.363 383.246 438.416C388.563 433.955 393.476 429.032 397.928 423.707C400.168 420.92 402.54 418.163 404.766 415.237L410.939 405.89C428.232 377.043 433.886 342.691 426.75 309.824C422.834 291.597 415.065 274.418 403.963 259.441C392.147 243.693 376.997 230.75 359.598 221.537C341.867 212.237 321.584 206.433 300.711 206.31C279.468 206.086 258.399 210.435 240.086 219.689C222.107 228.615 206.367 241.473 194.033 257.31C182.072 272.68 173.76 290.21 169.753 308.044C162.146 341.295 167.603 376.197 184.998 405.539C192.861 418.705 202.841 429.34 212.868 438.301C230.42 453.212 251.607 463.208 274.276 467.274L273.928 466.961L292.154 520.222L274.825 466.665C274.8 466.587 274.754 466.517 274.693 466.462C274.632 466.407 274.557 466.369 274.477 466.352C252.04 462.152 231.103 452.124 213.767 437.276C203.875 428.361 194.051 417.798 186.32 404.744C169.252 375.728 163.953 341.274 171.514 308.47C175.499 290.869 183.709 273.6 195.519 258.466C207.694 242.882 223.213 230.231 240.93 221.447C258.969 212.336 279.746 208.059 300.661 208.283C321.219 208.406 341.195 214.116 358.665 223.264C375.817 232.336 390.758 245.078 402.424 260.582C413.384 275.335 421.069 292.257 424.963 310.219C432.074 342.648 426.592 376.567 409.628 405.105L403.556 414.361C401.368 417.265 399.032 419.997 396.827 422.765C392.451 428.056 387.618 432.95 382.383 437.392C364.927 452.272 343.855 462.284 321.293 466.418C321.164 466.425 321.043 466.483 320.957 466.579C320.87 466.675 320.825 466.801 320.832 466.93C320.839 467.059 320.896 467.18 320.992 467.266C321.088 467.353 321.215 467.398 321.344 467.391L321.414 467.397L321.025 466.674L292.126 520.21Z" fill="#E33443"/>
<g clip-path="url(#clip0_435_9970)">
<path d="M253.95 307.853C253.95 302.468 255.607 297.014 258.922 291.49C262.238 285.967 267.071 281.391 273.423 277.763C279.777 274.14 287.192 272.327 295.668 272.325C303.542 272.325 310.501 273.841 316.545 276.874C322.589 279.906 327.246 284.027 330.518 289.239C333.758 294.314 335.465 300.216 335.433 306.237C335.433 311.052 334.496 315.272 332.623 318.9C330.877 322.347 328.626 325.514 325.943 328.295C323.371 330.93 318.738 335.363 312.044 341.594C310.477 343.056 308.992 344.603 307.595 346.228C306.625 347.343 305.791 348.57 305.111 349.883C304.583 350.943 304.16 352.053 303.848 353.196C303.547 354.3 303.098 356.239 302.503 359.014C301.469 364.909 298.237 367.856 292.807 367.854C291.484 367.884 290.169 367.644 288.942 367.147C287.716 366.65 286.604 365.908 285.675 364.965C283.749 363.04 282.785 360.178 282.783 356.382C282.783 351.62 283.489 347.497 284.902 344.013C286.238 340.655 288.14 337.551 290.525 334.835C293.518 331.552 296.676 328.423 299.987 325.461C303.464 322.289 305.974 319.894 307.517 318.274C309.065 316.66 310.383 314.84 311.435 312.867C312.495 310.88 313.04 308.66 313.023 306.409C313.064 304.263 312.653 302.133 311.819 300.156C310.984 298.18 309.743 296.4 308.177 294.933C304.944 291.819 300.774 290.261 295.668 290.258C289.693 290.258 285.293 291.83 282.468 294.974C279.644 298.118 277.248 302.751 275.281 308.873C273.433 315.277 269.93 318.478 264.771 318.476C263.322 318.5 261.885 318.213 260.556 317.634C259.228 317.055 258.039 316.197 257.071 315.118C254.99 312.887 253.95 310.465 253.95 307.853Z" fill="#E33443"/>
<path d="M293.135 409.686C289.837 409.72 286.651 408.485 284.237 406.236C281.7 403.938 280.432 400.725 280.432 396.595C280.432 392.929 281.659 389.848 284.114 387.355C285.277 386.136 286.681 385.172 288.236 384.524C289.792 383.876 291.465 383.558 293.149 383.59C294.809 383.559 296.456 383.878 297.984 384.526C299.512 385.175 300.886 386.139 302.016 387.355C304.417 389.864 305.616 392.945 305.613 396.595C305.613 400.668 304.359 403.862 301.849 406.178C299.515 408.442 296.387 409.701 293.135 409.686Z" fill="#E33443"/>
<g opacity="0.2">
<path d="M293.824 386.892C293.451 386.595 292.982 386.443 292.506 386.464C291.224 386.405 289.941 386.565 288.714 386.94C286.813 387.676 285.242 389.075 284.292 390.879C283.361 392.692 283.118 394.781 283.608 396.759C283.83 397.645 284.419 398.648 285.336 398.607C285.938 398.579 286.411 398.093 286.815 397.642L289.7 394.411C291.137 392.799 292.588 391.17 293.673 389.301C294.097 388.549 294.44 387.505 293.824 386.892Z" fill="white"/>
</g>
</g>
<g clip-path="url(#clip1_435_9970)">
<path d="M230.428 606.132C230.428 606.132 226.062 608.575 226.062 608.961C226.062 609.347 228.634 612.948 230.428 614.49C232.223 616.032 233.386 616.163 233.646 615.391C233.905 614.619 232.361 614.619 232.104 612.304C231.95 610.89 231.994 609.462 232.232 608.06L230.428 606.132Z" fill="white" stroke="#263239" stroke-width="0.114904" stroke-linejoin="round"/>
<path d="M265.64 614.906C265.64 614.906 265.254 618.378 265.64 618.636C266.026 618.893 269.625 619.663 271.941 619.663C274.258 619.663 275.797 619.534 275.926 618.764L276.055 617.992C274.416 617.722 272.818 617.247 271.298 616.576L269.112 615.549C269.112 615.549 266.796 614.262 265.64 614.906Z" fill="white" stroke="#263239" stroke-width="0.114904" stroke-linejoin="round"/>
<path d="M249.925 559.527C249.925 562.099 251.993 567.623 251.612 574.954C251.23 582.285 243.624 594.12 240.666 597.475C237.709 600.831 236.167 601.975 235.266 602.361C234.365 602.747 233.466 603.133 233.08 603.905C232.694 604.678 232.952 604.806 231.793 605.054C231.073 605.227 230.409 605.582 229.865 606.084C229.865 606.084 230.766 608.913 232.051 608.913C233.335 608.913 233.08 606.985 234.107 607.5C235.135 608.014 236.424 608.913 237.58 606.599C238.736 604.285 240.025 603.255 240.924 602.998C241.822 602.74 242.211 603.77 243.881 602.226C245.552 600.681 246.968 597.468 248.898 595.791C250.828 594.113 255.585 587.433 257.642 582.547C259.699 577.661 260.374 579.077 260.374 579.077C260.374 579.077 265.743 595.021 267.287 600.936C268.831 606.852 267.544 608.52 266.515 609.037C265.485 609.554 264.973 609.938 265.485 610.967C265.998 611.997 266.515 612.252 265.871 612.895C265.228 613.539 265.23 613.796 265.357 614.309C265.5 614.79 265.672 615.263 265.871 615.724L269.215 615.853C270.176 615.138 270.822 614.077 271.017 612.895C271.403 610.827 269.601 610.967 270.888 609.678C272.175 608.389 273.588 607.61 273.331 605.691C273.074 603.772 271.658 603.634 272.182 600.548C272.706 597.462 271.033 592.884 270.907 587.095C270.78 581.306 266.412 565.355 264.578 561.255L249.925 559.527Z" fill="#232323"/>
<path d="M287.966 541.946C287.86 541.82 288.072 541.257 288.437 540.71L290.519 537.543C290.882 536.989 291.275 536.608 291.39 536.695C291.505 536.782 291.303 537.311 290.942 537.869L288.812 541.16C288.451 541.716 288.07 542.07 287.966 541.946Z" fill="white" stroke="#263239" stroke-width="0.114904" stroke-linejoin="round"/>
<path d="M272.811 555.188C272.811 555.188 275.196 558.656 275.676 559.281C276.156 559.906 289.168 545.431 289.235 544.594C289.301 543.758 289.352 542.485 289.591 542.117C289.83 541.749 290.237 540.715 290.039 540.379C289.841 540.044 289.12 540.924 288.43 541.322C288.098 541.532 287.778 541.762 287.472 542.011C287.219 542.158 286.971 541.738 287.258 541.455C287.546 541.172 288.237 540.425 288.123 540.039C288.008 539.653 287.792 539.667 287.419 540C287.047 540.334 286.693 540.883 286.02 541.278C285.347 541.673 285.174 542.344 285.268 543.082C285.363 543.82 286.171 545.38 286.153 545.736C286.135 546.092 284.273 548.317 281.58 549.905L277.878 552.088C277.878 552.088 273.472 554.002 272.811 555.188Z" fill="white" stroke="#263239" stroke-width="0.114904" stroke-linejoin="round"/>
<path d="M269.701 527.236C269.701 527.236 274.5 527.071 275.479 524.014C276.458 520.956 272.339 515.814 266.237 515.234C260.135 514.653 257.698 518.418 256.81 522.15C255.921 525.881 250.887 528.255 244.865 525.605C238.842 522.956 235.618 527.332 238.042 532.698C240.466 538.063 239.523 538.704 234.409 537.822C229.294 536.94 223.684 540.087 228.138 545.185C232.592 550.283 235.477 549.908 232.838 552.146C230.199 554.385 227.774 555.565 230.625 557.602C233.475 559.64 243.565 557.805 244.472 560.785C245.378 563.766 240.262 561.507 240.954 564.173C241.645 566.838 243.709 568.116 247.432 567.629C251.155 567.142 255.049 562.674 255.937 558.94C256.825 555.206 258.04 552.64 257.043 545.022C256.047 537.404 266.822 526.293 269.701 527.236Z" fill="#232323"/>
<path d="M264.259 534.824C264.259 534.824 262.395 537 262.206 538.851C262.017 540.702 261.883 542.118 261.883 542.118L257.698 538.046C258.692 536.48 259.592 534.855 260.392 533.181C261.566 530.663 261.969 529.644 261.969 529.644L264.259 534.824Z" fill="white" stroke="#263239" stroke-width="0.114904" stroke-miterlimit="10"/>
<path d="M270.229 522.978C270.229 522.978 271.135 524.148 270.044 529.77C268.953 535.392 266.543 536.673 265.338 536.509C264.132 536.344 261.29 533.492 261.374 531.655C261.459 529.818 261.333 528.879 262.313 528.202C263.293 527.524 265.15 527.724 266.97 526.842C268.79 525.959 270.284 523.4 270.229 522.978Z" fill="white" stroke="#263239" stroke-width="0.114904" stroke-miterlimit="10"/>
<path d="M257.813 537.28C257.813 537.28 264.611 543.27 265.151 548.215C265.691 553.159 264.765 559.228 266.377 562.514C267.989 565.801 270.084 567.044 268.725 568.154C267.366 569.263 253.937 572.538 252.88 572.676C251.823 572.815 250.814 571.662 250.876 570.489C250.938 569.315 249.846 562.611 250.267 555.093C250.688 547.575 254.568 537.121 257.813 537.28Z" fill="#E33443"/>
<path d="M256.579 542.839C258.95 540.8 264.41 543.863 266.341 545.444C268.272 547.025 269.839 548.424 270.305 548.476C270.771 548.529 272.05 547.784 272.367 548.438C272.684 549.092 272.985 549.618 272.985 549.618C272.985 549.618 273.91 548.802 274.401 549.897L274.891 550.991C274.891 550.991 276.034 550.953 276.178 551.968C276.264 552.548 276.225 553.14 276.064 553.705C276.064 553.705 275.541 551.634 276.897 552.4L278.272 557.363C276.615 561.443 274.166 558.435 274.055 558.452C273.599 558.512 273.16 559.496 272.128 559.511C271.096 559.525 270.54 557.999 269.984 558.074C269.429 558.149 269.404 558.954 268.675 558.593C267.947 558.231 267.676 557.117 267.24 557.29C266.803 557.463 266.3 557.99 265.804 557.71C265.309 557.429 265.001 556.888 264.546 556.947C264.09 557.007 258.207 555.035 255.401 553.8C253.39 552.916 253.95 548.022 253.95 548.022C253.95 548.022 254.211 544.875 256.579 542.839Z" fill="#E33443"/>
</g>
<defs>
<clipPath id="clip0_435_9970">
<rect width="81.4796" height="137.36" fill="white" transform="translate(253.95 272.325)"/>
</clipPath>
<clipPath id="clip1_435_9970">
<rect width="65.9271" height="104.73" fill="white" transform="translate(226 514.99)"/>
</clipPath>
</defs>
</svg>
