<svg width="194" height="58" viewBox="0 0 194 58" fill="none" xmlns="http://www.w3.org/2000/svg">
<path d="M186.828 57.4666H7.53502C3.59061 57.4666 0.363281 54.2341 0.363281 50.2833V7.18336C0.363281 3.23249 3.59054 0 7.53502 0H186.828C190.773 0 194 3.23249 194 7.18336V50.2832C194 54.2341 190.773 57.4666 186.828 57.4666Z" fill="black"/>
<path d="M186.828 0H7.53502C3.59061 0 0.363281 3.23249 0.363281 7.18336V50.2832C0.363281 54.2341 3.59054 57.4666 7.53502 57.4666H186.828C190.773 57.4666 194 54.2341 194 50.2833V7.18336C194 3.23249 190.773 0 186.828 0ZM186.828 1.1493C190.15 1.1493 192.852 3.8566 192.852 7.18336V50.2832C192.852 53.6106 190.15 56.3179 186.828 56.3179H7.53502C4.21368 56.3179 1.51077 53.6106 1.51077 50.2833V7.18336C1.51077 3.8566 4.21362 1.14936 7.53502 1.14936H186.828" fill="#A6A6A6"/>
<path d="M68.3778 14.7161C68.3778 15.9197 68.0219 16.8782 67.3092 17.5933C66.4996 18.4435 65.4445 18.8689 64.1474 18.8689C62.9053 18.8689 61.8491 18.4379 60.9806 17.5747C60.1106 16.7122 59.6764 15.6426 59.6764 14.3664C59.6764 13.0896 60.1106 12.0207 60.9806 11.1574C61.8491 10.2949 62.9053 9.86328 64.1474 9.86328C64.7638 9.86328 65.3538 9.98402 65.9141 10.2248C66.4743 10.4661 66.9237 10.7865 67.2599 11.1877L66.5035 11.9459C65.9337 11.2641 65.1493 10.9234 64.1474 10.9234C63.2415 10.9234 62.4582 11.2422 61.7971 11.8803C61.1359 12.519 60.8053 13.3473 60.8053 14.3664C60.8053 15.3856 61.1359 16.2138 61.7971 16.8526C62.4582 17.4906 63.2415 17.8094 64.1474 17.8094C65.1084 17.8094 65.9096 17.4889 66.5511 16.8469C66.9675 16.4287 67.2083 15.8474 67.2727 15.101H64.1473V14.0656H68.3177C68.358 14.2907 68.3777 14.5068 68.3777 14.7161" fill="white"/>
<path d="M68.3778 14.7162H68.2343C68.2332 15.8924 67.8902 16.806 67.2077 17.4918L67.2062 17.493L67.2056 17.4941C66.4218 18.315 65.4142 18.7236 64.1474 18.7254C62.9384 18.7236 61.9265 18.3106 61.0815 17.4733C60.2383 16.6343 59.8214 15.6101 59.8198 14.3665C59.8214 13.1224 60.2383 12.0987 61.0815 11.2603C61.9265 10.4224 62.9384 10.0088 64.1474 10.0071C64.7453 10.0071 65.3146 10.1239 65.8574 10.3567C66.4009 10.5914 66.8302 10.8989 67.1501 11.2806L67.2599 11.1879L67.1585 11.0863L66.4021 11.845L66.5034 11.946L66.6139 11.8541C66.0176 11.1385 65.1807 10.7777 64.1474 10.7799C63.2079 10.7787 62.3815 11.115 61.6978 11.7772C61.0076 12.4416 60.6608 13.3165 60.662 14.3665C60.6608 15.4166 61.0076 16.2914 61.6978 16.9558C62.3815 17.6181 63.2079 17.9543 64.1474 17.9531C65.1402 17.9549 65.9864 17.6175 66.6525 16.9486C67.0974 16.5018 67.3496 15.8829 67.4157 15.1134L67.4291 14.9574H64.2908V14.2093H68.3178V14.0657L68.1765 14.0909C68.2158 14.3088 68.2343 14.5158 68.2343 14.7162H68.5212C68.5212 14.4978 68.5009 14.2734 68.4589 14.04L68.4377 13.922H64.004V15.2447H67.2728V15.1011L67.1299 15.0887C67.0667 15.8116 66.8369 16.356 66.4497 16.7455C65.8334 17.3605 65.077 17.6641 64.1474 17.6658C63.2751 17.6647 62.535 17.3638 61.8968 16.7494C61.2648 16.1371 60.9505 15.3553 60.9488 14.3665C60.9505 13.3777 61.2648 12.5959 61.8968 11.9836C62.535 11.3692 63.2751 11.0683 64.1474 11.0672C65.1174 11.0695 65.8498 11.3905 66.3938 12.0387L66.4947 12.1588L67.3614 11.2895L67.4544 11.1964L67.3697 11.0958C67.0173 10.675 66.5478 10.341 65.9707 10.0931C65.3925 9.84434 64.7823 9.71973 64.1474 9.71973C62.8723 9.71863 61.7719 10.1676 60.8793 11.056C59.9834 11.9427 59.5319 13.0573 59.5331 14.3665C59.5319 15.6751 59.9834 16.7904 60.8799 17.6776C61.7719 18.5654 62.8723 19.0139 64.1474 19.0127C65.4754 19.0139 66.577 18.5721 67.4129 17.6927L67.3092 17.5934L67.4106 17.695C68.1536 16.9514 68.5221 15.9468 68.5212 14.7162H68.3778ZM74.9891 11.1155H71.0699V13.8486H74.6043V14.8844H71.0699V17.6175H74.9891V18.6765H69.965V10.0565H74.9891V11.1155Z" fill="white"/>
<path d="M74.989 11.1157V10.9721H70.9264V13.9925H74.4608V14.7406L70.9263 14.741V17.7614H74.8456V18.5331H70.1084V10.2004H74.8456V11.1157H74.989H75.1324V9.91309H69.8215V18.8204H75.1324V17.4741H71.2132V15.0283H74.7476V13.7052H71.2132V11.2594H75.1324V11.1157H74.989ZM79.6523 18.6768H78.5458V11.1156H76.1421V10.0567H82.056V11.1156H79.6523V18.6767" fill="white"/>
<path d="M79.6524 18.6768V18.5331H78.6893V10.9721H76.2857V10.2005H81.9127V10.9721H79.509V18.6767H79.6524H79.7959V11.2594H82.1996V9.91309H75.9988V11.2593H78.4024V18.8203H79.7959V18.6767H79.6524M86.3351 18.6768V10.0567H87.4405V18.6767H86.3351" fill="white"/>
<path d="M86.3351 18.6768H86.4785V10.2004H87.297V18.5331H86.3351V18.6767V18.8204H87.5839V9.91309H86.1917V18.8204H86.3351V18.6767M92.3458 18.6768H91.2393V11.1156H88.8357V10.0567H94.7495V11.1156H92.3458V18.6767" fill="white"/>
<path d="M92.3458 18.6764V18.5327H91.3826V10.9717H88.9791V10.2001H94.606V10.9717H92.2024V18.6764H92.3458H92.4893V11.259H94.8929V9.91274H88.6923V11.259H91.0958V18.82H92.4893V18.6763H92.3458M100.451 16.8408C101.088 17.4867 101.867 17.8093 102.789 17.8093C103.711 17.8093 104.491 17.4867 105.127 16.8408C105.764 16.1949 106.084 15.3692 106.084 14.3664C106.084 13.3637 105.764 12.538 105.127 11.892C104.491 11.2461 103.711 10.9234 102.789 10.9234C101.867 10.9234 101.088 11.2461 100.451 11.892C99.8151 12.538 99.4958 13.3636 99.4958 14.3664C99.4958 15.3692 99.8151 16.1949 100.451 16.8408ZM105.945 17.5624C105.099 18.4339 104.046 18.8689 102.789 18.8689C101.531 18.8689 100.479 18.4339 99.6347 17.5624C98.7881 16.6919 98.3667 15.6264 98.3667 14.3664C98.3667 13.1064 98.7881 12.0407 99.6347 11.1704C100.479 10.2987 101.531 9.86328 102.789 9.86328C104.04 9.86328 105.089 10.301 105.939 11.176C106.788 12.0509 107.213 13.1143 107.213 14.3664C107.213 15.6264 106.789 16.6919 105.945 17.5624Z" fill="white"/>
<path d="M100.451 16.8409L100.349 16.9419C101.01 17.6137 101.834 17.9549 102.789 17.9531C103.744 17.9549 104.569 17.6137 105.229 16.9419C105.894 16.2695 106.228 15.3996 106.227 14.3665C106.228 13.3334 105.894 12.4635 105.229 11.7911C104.569 11.1194 103.744 10.7782 102.789 10.7799C101.834 10.7782 101.01 11.1194 100.349 11.7911C99.6856 12.4635 99.3505 13.3334 99.3522 14.3665C99.3505 15.3996 99.6856 16.2695 100.349 16.9419L100.451 16.8409L100.553 16.7399C99.9445 16.1197 99.6403 15.3396 99.6391 14.3665C99.6403 13.3935 99.9445 12.6134 100.553 11.9931C101.167 11.3731 101.9 11.0689 102.789 11.0672C103.677 11.0689 104.412 11.3731 105.025 11.9931C105.634 12.6134 105.938 13.3935 105.94 14.3665C105.938 15.3395 105.634 16.1197 105.025 16.7399C104.412 17.36 103.677 17.6641 102.789 17.6658C101.9 17.6641 101.167 17.36 100.553 16.7399L100.451 16.8409ZM105.945 17.5625L105.842 17.4627C105.02 18.3067 104.014 18.7237 102.789 18.7254C101.564 18.7236 100.558 18.3067 99.737 17.4627C98.9163 16.6158 98.5113 15.5944 98.5101 14.3665C98.5113 13.1386 98.9163 12.1172 99.737 11.2704C100.558 10.4263 101.564 10.0088 102.789 10.0071C104.006 10.0088 105.009 10.428 105.836 11.2765C106.66 12.1273 107.067 13.147 107.069 14.3665C107.067 15.5944 106.661 16.6158 105.842 17.4627L105.945 17.5625L106.048 17.6623C106.917 16.7679 107.357 15.6584 107.356 14.3665C107.357 13.082 106.916 11.9747 106.042 11.0763C105.168 10.1743 104.073 9.71818 102.789 9.71973C101.498 9.71818 100.4 10.1722 99.5315 11.0707V11.07C98.6603 11.9651 98.2221 13.0746 98.2233 14.3665C98.2221 15.6584 98.6603 16.7679 99.5315 17.6629L99.5354 17.667L99.5315 17.6623C100.4 18.5609 101.498 19.0139 102.789 19.0127C104.079 19.0139 105.178 18.5609 106.048 17.6623L105.945 17.5625ZM108.765 18.6766V10.0564H110.11L114.293 16.7622H114.341L114.293 15.101V10.0564H115.4V18.6764H114.245L109.869 11.6457H109.822L109.869 13.3075V18.6764H108.765" fill="white"/>
<path d="M108.765 18.6768H108.908V10.2004H110.031L114.213 16.9062H114.488L114.436 15.0992V10.2005H115.256V18.5331H114.325L109.949 11.5023H109.675L109.726 13.3101V18.5331H108.765V18.6767V18.8204H110.013V13.3055L109.965 11.6421L109.822 11.646V11.7897H109.87V11.646L109.748 11.7224L114.166 18.8204H115.543V9.91309H114.15V15.103L114.197 16.7664L114.341 16.7625V16.6188H114.293V16.7625L114.415 16.6862L110.19 9.91309H108.621V18.8204H108.765V18.6767M153.747 43.1H156.423V25.14H153.747L153.747 43.1ZM177.854 31.6097L174.786 39.3962H174.694L171.509 31.6096H168.626L173.401 42.4928L170.679 48.5465H173.472L180.83 31.6096L177.854 31.6097ZM162.675 41.0602C161.798 41.0602 160.575 40.6212 160.575 39.5348C160.575 38.1486 162.099 37.6172 163.413 37.6172C164.59 37.6172 165.142 37.8713 165.858 38.2183C165.65 39.8816 164.22 41.0602 162.675 41.0602ZM162.998 31.2167C161.06 31.2167 159.054 32.0719 158.223 33.9666L160.598 34.9599C161.106 33.9666 162.051 33.6428 163.044 33.6428C164.428 33.6428 165.835 34.475 165.858 35.9538V36.1385C165.373 35.8612 164.336 35.4453 163.067 35.4453C160.507 35.4453 157.899 36.8545 157.899 39.4887C157.899 41.8919 159.999 43.4401 162.351 43.4401C164.151 43.4401 165.142 42.6314 165.766 41.6842H165.858V43.0703H168.441V36.1844C168.441 32.9963 166.066 31.2167 162.998 31.2167ZM146.457 33.7959H142.65V27.6397H146.457C148.458 27.6397 149.594 29.2991 149.594 30.7177C149.594 32.1095 148.458 33.7959 146.457 33.7959ZM146.388 25.14H139.975V43.1H142.65V36.2956H146.388C149.355 36.2956 152.271 34.1444 152.271 30.7177C152.271 27.2912 149.355 25.14 146.388 25.14ZM111.418 41.0635C109.569 41.0635 108.02 39.5129 108.02 37.3831C108.02 35.231 109.569 33.6568 111.418 33.6568C113.243 33.6568 114.676 35.231 114.676 37.3831C114.676 39.5129 113.243 41.0635 111.418 41.0635ZM114.491 32.6153H114.398C113.798 31.898 112.642 31.2499 111.186 31.2499C108.136 31.2499 105.34 33.9346 105.34 37.3831C105.34 40.8087 108.136 43.4705 111.186 43.4705C112.642 43.4705 113.798 42.8222 114.398 42.082H114.491V42.9614C114.491 45.2995 113.243 46.5492 111.233 46.5492C109.592 46.5492 108.575 45.3684 108.159 44.3734L105.825 45.3454C106.495 46.9655 108.275 48.9562 111.233 48.9562C114.375 48.9562 117.033 47.1042 117.033 42.5911V31.6203H114.491V32.6153ZM118.881 43.1H121.562V25.1394H118.881V43.1ZM125.513 37.175C125.444 34.8139 127.339 33.6107 128.702 33.6107C129.766 33.6107 130.666 34.1428 130.966 34.9072L125.513 37.175ZM133.832 35.1383C133.324 33.7723 131.775 31.2499 128.609 31.2499C125.467 31.2499 122.856 33.7264 122.856 37.3601C122.856 40.7858 125.444 43.4705 128.91 43.4705C131.706 43.4705 133.324 41.7576 133.994 40.7626L131.914 39.3736C131.222 40.3922 130.274 41.0635 128.91 41.0635C127.547 41.0635 126.576 40.4383 125.952 39.212L134.109 35.8326L133.832 35.1383ZM68.8445 33.1247V35.7169H75.0372C74.8524 37.175 74.3671 38.2396 73.6275 38.9803C72.7266 39.8832 71.317 40.8783 68.8444 40.8783C65.0315 40.8783 62.0508 37.8 62.0508 33.9811C62.0508 30.1622 65.0315 27.0836 68.8445 27.0836C70.9012 27.0836 72.4028 27.8938 73.5121 28.9354L75.3376 27.1071C73.7895 25.6254 71.7327 24.4914 68.8445 24.4914C63.6219 24.4914 59.2314 28.7502 59.2314 33.9811C59.2314 39.212 63.6219 43.4705 68.8445 43.4705C71.6638 43.4705 73.7895 42.5451 75.453 40.8087C77.1631 39.0959 77.6948 36.689 77.6948 34.745C77.6948 34.1428 77.6488 33.5877 77.5558 33.1247H68.8445ZM84.7354 41.0635C82.8864 41.0635 81.2919 39.5358 81.2919 37.3601C81.2919 35.1613 82.8864 33.6568 84.7354 33.6568C86.5837 33.6568 88.1783 35.1613 88.1783 37.3601C88.1783 39.5359 86.5837 41.0635 84.7354 41.0635ZM84.7354 31.2499C81.3613 31.2499 78.6114 33.8189 78.6114 37.3601C78.6114 40.8783 81.3613 43.4705 84.7354 43.4705C88.1089 43.4705 90.8588 40.8783 90.8588 37.3601C90.8588 33.8189 88.1089 31.2499 84.7354 31.2499ZM98.0937 41.0635C96.2455 41.0635 94.6507 39.5358 94.6507 37.3601C94.6507 35.1613 96.2455 33.6568 98.0938 33.6568C99.9422 33.6568 101.537 35.1613 101.537 37.3601C101.537 39.5359 99.9422 41.0635 98.0937 41.0635ZM98.0937 31.2499C94.7198 31.2499 91.9704 33.8189 91.9704 37.3601C91.9704 40.8783 94.7198 43.4705 98.0938 43.4705C101.467 43.4705 104.217 40.8783 104.217 37.3601C104.217 33.8189 101.467 31.2499 98.0937 31.2499Z" fill="white"/>
<path d="M15.4363 10.9351C14.9549 11.3701 14.6676 12.0956 14.6676 13.0587V12.841V44.6216V44.4123C14.6676 45.3017 14.9141 45.9886 15.3314 46.4309L15.438 46.5331V46.5335C15.7758 46.8389 16.209 47.001 16.7054 47.0005C17.1905 47.0005 17.7363 46.8456 18.3123 46.5185L39.1321 34.6699L46.2836 30.5995C47.1918 30.0827 47.7017 29.416 47.7869 28.7369V28.7341C47.7017 28.0534 47.1918 27.3872 46.2836 26.8704L39.1315 22.8005L18.3124 10.9519C17.7351 10.6242 17.189 10.4688 16.7026 10.4688C16.2067 10.4688 15.7741 10.6304 15.4364 10.9351H15.4363Z" fill="#00C1FF"/>
<path d="M15.438 46.5332L15.3314 46.4311C14.9141 45.9888 14.6676 45.3018 14.6676 44.4124V44.6218V12.849V13.0589C14.6676 12.0958 14.9549 11.3702 15.4363 10.9352L33.2076 28.7348L15.438 46.5332Z" fill="url(#paint0_linear_328_7443)"/>
<path d="M39.1323 34.6699L33.2078 28.7348L39.1318 22.8006L46.2838 26.8704C47.192 27.3873 47.7019 28.0535 47.7872 28.7342V28.7369C47.7019 29.416 47.192 30.0828 46.2838 30.5995L39.1324 34.6699" fill="url(#paint1_linear_328_7443)"/>
<path d="M16.7054 47C16.209 47.0005 15.7759 46.8383 15.4381 46.533V46.5325L33.2076 28.7341L39.1322 34.6693L18.3123 46.5179C17.7363 46.8451 17.1905 47 16.7054 47Z" fill="url(#paint2_linear_328_7443)"/>
<path d="M33.2077 28.7344L15.4364 10.9348C15.7742 10.6301 16.2068 10.4684 16.7026 10.4684C17.189 10.4684 17.7353 10.6239 18.3124 10.9516L39.1317 22.8002L33.2077 28.7344" fill="url(#paint3_linear_328_7443)"/>
<path d="M16.7061 47.2109C16.2097 47.2109 15.776 47.0487 15.4381 46.7435L15.4376 46.744C15.4362 46.7426 15.4347 46.7413 15.4331 46.7401L15.3407 46.6497C15.3378 46.6469 15.3351 46.6436 15.3317 46.6403L15.4382 46.5336C15.776 46.8388 16.2091 47.001 16.7057 47.0004C17.1907 47.0004 17.7365 46.8456 18.3125 46.5185L39.1323 34.6699L39.2657 34.8035L39.1306 34.8803L18.3124 46.7283C17.7875 47.0263 17.2882 47.1818 16.8372 47.2076C16.7935 47.2098 16.7498 47.2109 16.7061 47.2109Z" fill="url(#paint4_linear_328_7443)"/>
<path d="M15.3314 46.6396C14.9141 46.1974 14.6676 45.511 14.6676 44.621V44.4117C14.6676 45.3011 14.9141 45.988 15.3314 46.4303L15.438 46.5325L15.3314 46.6396Z" fill="url(#paint5_linear_328_7443)"/>
<path d="M39.2656 34.8036L39.1322 34.67L46.2837 30.5997C47.1919 30.0829 47.7018 29.4162 47.787 28.737C47.787 28.9863 47.7315 29.2354 47.6212 29.478C47.3987 29.9667 46.9528 30.4286 46.2837 30.8096L39.2656 34.8037" fill="url(#paint6_linear_328_7443)"/>
<path d="M47.7871 28.7334C47.7019 28.0527 47.192 27.3865 46.2838 26.8696L39.1317 22.7998L39.2651 22.6661H39.2657L46.2838 26.6603C47.2851 27.2305 47.7866 27.9818 47.7871 28.7334Z" fill="url(#paint7_linear_328_7443)"/>
<path d="M14.6676 13.0586V12.8391C14.6676 12.7599 14.6697 12.6825 14.6738 12.6073V12.6039C14.6738 12.6029 14.6738 12.6018 14.6742 12.6006V12.5922C14.7174 11.8261 14.9549 11.2285 15.3314 10.8295L15.4363 10.9349C14.9549 11.37 14.6676 12.0955 14.6676 13.0586Z" fill="url(#paint8_linear_328_7443)"/>
<path d="M39.1315 22.7998L18.3122 10.9511C17.7351 10.6234 17.1889 10.468 16.7025 10.468C16.2066 10.468 15.774 10.6296 15.4363 10.9344L15.3314 10.8289C15.3642 10.7941 15.3982 10.7606 15.4334 10.7285C15.4345 10.7273 15.4363 10.7261 15.4374 10.725C15.7725 10.4226 16.2005 10.261 16.6919 10.2581H16.7025C17.1889 10.2581 17.7351 10.4136 18.3122 10.7414L39.2654 22.6657L39.2649 22.6662L39.1315 22.7998Z" fill="url(#paint9_linear_328_7443)"/>
<defs>
<linearGradient id="paint0_linear_328_7443" x1="26.0245" y1="12.5132" x2="10.7097" y2="27.8527" gradientUnits="userSpaceOnUse">
<stop stop-color="#00A0FF"/>
<stop offset="0.00657" stop-color="#00A1FF"/>
<stop offset="0.2601" stop-color="#00BEFF"/>
<stop offset="0.5122" stop-color="#00D2FF"/>
<stop offset="0.7604" stop-color="#00DFFF"/>
<stop offset="1" stop-color="#00E3FF"/>
</linearGradient>
<linearGradient id="paint1_linear_328_7443" x1="48.8937" y1="28.6322" x2="14.1869" y2="28.6322" gradientUnits="userSpaceOnUse">
<stop stop-color="#FFE000"/>
<stop offset="0.4087" stop-color="#FFBD00"/>
<stop offset="0.7754" stop-color="#FFA500"/>
<stop offset="1" stop-color="#FF9C00"/>
</linearGradient>
<linearGradient id="paint2_linear_328_7443" x1="35.9868" y1="34.377" x2="10.0346" y2="60.1812" gradientUnits="userSpaceOnUse">
<stop stop-color="#FF3A44"/>
<stop offset="1" stop-color="#C31162"/>
</linearGradient>
<linearGradient id="paint3_linear_328_7443" x1="10.8562" y1="8.29594" x2="22.4225" y2="19.814" gradientUnits="userSpaceOnUse">
<stop stop-color="#32A071"/>
<stop offset="0.0685" stop-color="#2DA771"/>
<stop offset="0.4762" stop-color="#15CF74"/>
<stop offset="0.8009" stop-color="#06E775"/>
<stop offset="1" stop-color="#00F076"/>
</linearGradient>
<linearGradient id="paint4_linear_328_7443" x1="35.974" y1="38.4946" x2="15.1902" y2="59.312" gradientUnits="userSpaceOnUse">
<stop stop-color="#CC2E36"/>
<stop offset="1" stop-color="#9C0E4E"/>
</linearGradient>
<linearGradient id="paint5_linear_328_7443" x1="17.035" y1="12.5124" x2="3.54283" y2="26.0266" gradientUnits="userSpaceOnUse">
<stop stop-color="#008DE0"/>
<stop offset="0.00657" stop-color="#008DE0"/>
<stop offset="0.2601" stop-color="#00A7E0"/>
<stop offset="0.5122" stop-color="#00B8E0"/>
<stop offset="0.7604" stop-color="#00C4E0"/>
<stop offset="1" stop-color="#00C7E0"/>
</linearGradient>
<linearGradient id="paint6_linear_328_7443" x1="48.8937" y1="28.7357" x2="14.1867" y2="28.7357" gradientUnits="userSpaceOnUse">
<stop stop-color="#E0C500"/>
<stop offset="0.4087" stop-color="#E0A600"/>
<stop offset="0.7754" stop-color="#E09100"/>
<stop offset="1" stop-color="#E08900"/>
</linearGradient>
<linearGradient id="paint7_linear_328_7443" x1="48.8938" y1="28.7348" x2="14.1869" y2="28.7348" gradientUnits="userSpaceOnUse">
<stop stop-color="#FFE840"/>
<stop offset="0.4087" stop-color="#FFCE40"/>
<stop offset="0.7754" stop-color="#FFBC40"/>
<stop offset="1" stop-color="#FFB540"/>
</linearGradient>
<linearGradient id="paint8_linear_328_7443" x1="17.0204" y1="12.5373" x2="4.02502" y2="24.9898" gradientUnits="userSpaceOnUse">
<stop stop-color="#40B8FF"/>
<stop offset="0.00657" stop-color="#40B9FF"/>
<stop offset="0.2601" stop-color="#40CEFF"/>
<stop offset="0.5122" stop-color="#40DDFF"/>
<stop offset="0.7604" stop-color="#40E7FF"/>
<stop offset="1" stop-color="#40EAFF"/>
</linearGradient>
<linearGradient id="paint9_linear_328_7443" x1="10.8301" y1="12.0598" x2="20.111" y2="21.3557" gradientUnits="userSpaceOnUse">
<stop stop-color="#65B895"/>
<stop offset="0.0685" stop-color="#62BD95"/>
<stop offset="0.4762" stop-color="#50DB97"/>
<stop offset="0.8009" stop-color="#44ED98"/>
<stop offset="1" stop-color="#40F498"/>
</linearGradient>
</defs>
</svg>
