<svg width="414" height="464" viewBox="0 0 414 464" fill="none" xmlns="http://www.w3.org/2000/svg">
<g opacity="0.05">
<path d="M170.902 411.843H-87.0961V387.557H170.902V411.843ZM-85.4822 410.229H169.291V389.171H-85.4822V410.229Z" fill="#1D1D1B"/>
<path d="M16.9781 395.028L17.9644 393.564C18.5539 392.689 77.0491 305.791 91.12 284.295C105.346 262.56 142.182 250.086 142.554 249.964L142.807 249.88L143.062 249.964C147.667 251.499 150.748 254.284 155.016 258.137C157.627 260.495 160.583 263.168 164.659 266.304C173.312 272.955 174.44 313.165 175.054 334.77C175.23 341.068 175.371 346.042 175.638 347.469C176.869 354.033 162.89 376.2 162.295 377.143L162.088 377.466L161.711 377.51L16.9781 395.028ZM142.809 251.575C139.527 252.716 105.772 264.853 92.4703 285.173C79.4046 305.131 28.0794 381.433 20.2901 392.993L161.14 375.953C165.232 369.432 174.967 352.615 174.056 347.762C173.766 346.213 173.63 341.432 173.445 334.813C172.885 314.999 171.725 273.767 163.681 267.583C159.554 264.41 156.57 261.712 153.94 259.335C149.743 255.55 146.95 253.026 142.809 251.583V251.575Z" fill="#1D1D1B"/>
<path d="M34.3147 411.868H30.5898V384.022L34.3147 378.485V411.868ZM32.2064 410.254H32.7009V383.781L32.2064 384.514V410.254Z" fill="#1D1D1B"/>
<path d="M20.6052 411.868H16.8721V387.581H20.597L20.6052 411.868ZM18.4968 410.254H18.9913V389.195H18.5023L18.4968 410.254Z" fill="#1D1D1B"/>
<path d="M7.15908 411.868H3.4342V387.581H7.15908V411.868ZM5.05075 410.254H5.54525V389.195H5.05075V410.254Z" fill="#1D1D1B"/>
<path d="M73.5985 411.869H69.8736V377.584H60.1525V411.869H56.4276V377.584H47.7606V411.869H44.0412V377.584H34.9259L37.4309 373.862H44.0412V364.024L47.766 358.481V373.862H56.433V345.57L60.6252 339.322H69.879V325.511L73.6039 319.953V339.322H83.5886V308.509H81.2629L87.3216 299.429V304.787H97.021V284.75L97.2927 284.318C97.8849 283.413 98.556 282.47 99.2869 281.519L100.735 279.634V304.787H109.402V271.268L109.698 271.024C111.04 269.937 112.475 268.85 113.961 267.763L114.173 267.611H122.848V261.995L123.247 261.762C123.959 261.349 124.666 260.946 125.369 260.553L126.57 259.882V267.611H136.557V254.915L137.033 254.701C137.757 254.369 138.464 254.056 139.152 253.761L140.28 253.271V267.617H150.003V250.229L151.139 250.737C151.892 251.075 152.624 251.458 153.332 251.883L153.726 252.117V267.617H162.395V259.262L163.738 260.452C164.398 261.036 165.096 261.648 165.835 262.278L166.107 262.52V267.609H169.834L170.076 267.935C170.586 268.638 171.034 269.385 171.416 270.165L171.994 271.334H166.131V304.784H175.852V283.361L177.455 283.217C178.3 287.931 179.012 293.691 179.574 300.334V304.779H179.919L179.971 305.529C180.02 306.235 180.066 306.94 180.11 307.642L180.167 308.501H179.574V339.316H181.359L181.384 340.096C181.408 340.843 181.433 341.547 181.457 342.201L181.49 343.038H179.588V356.68L179.523 356.835C178.925 358.229 178.208 359.766 177.395 361.402L175.863 364.48V343.038H166.142V373.862H170.513L169.766 375.087C168.976 376.388 168.484 377.165 168.484 377.165L168.28 377.489L167.432 377.584H166.142V377.747L162.42 378.198V377.584H153.75V379.247L150.028 379.698V377.584H140.304V380.874L136.582 381.325V377.584H126.595V382.534L122.872 382.985V377.584H113.149V384.161L109.426 384.612V377.584H100.759V385.661L97.0346 386.112V377.584H87.3134V387.291L83.5886 387.74V377.584H73.6039L73.5985 411.869ZM71.4874 410.255H71.9819V389.196H71.5146L71.4874 388.748V410.255ZM58.0414 410.255H58.5386V375.97H71.482V387.579L71.9765 387.52V375.97H85.1915V385.919L85.6887 385.86V375.97H98.6511V384.292L99.1456 384.232V375.97H111.043V382.792L111.537 382.73V375.97H124.489V381.165L124.983 381.102V375.97H138.199V379.502L138.693 379.442V375.967H151.631V377.869L152.125 377.809V375.965H164.023V376.369L164.517 376.31V375.965H167.316L167.625 375.47H164.517V341.427H177.469V357.457C177.64 357.074 177.806 356.702 177.963 356.338V341.414H179.816C179.816 341.251 179.816 341.088 179.8 340.919H177.963V306.876H178.447L178.414 306.382H177.963V300.426C177.807 298.615 177.643 296.867 177.469 295.183V306.382H164.517V269.703H169.329C169.222 269.522 169.116 269.356 169.011 269.206H164.517V263.245C164.349 263.104 164.186 262.974 164.023 262.819V269.206H152.125V253.016C151.96 252.921 151.797 252.831 151.631 252.744V269.209H138.679V255.73L138.185 255.95V269.222H124.97V262.637L124.475 262.908V269.209H114.695L114.018 269.706H124.462V306.384H111.529V271.641L111.035 272.034V306.401H99.1375V284.492C98.9744 284.733 98.8141 284.97 98.6593 285.206L98.643 285.23V306.401H85.6942V304.771L85.197 305.512V306.412H84.5993L84.2678 306.906H85.197V340.949H71.9819V325.278L71.4874 326.017V340.96H61.4783L61.1468 341.454H71.482V375.497H58.5332V345.339L58.036 346.079V375.492H46.1413V363.809L45.6468 364.545V375.505H38.2786L37.9471 376H45.6468V410.285H46.1413V375.97H58.036L58.0414 410.255ZM60.1525 373.848H69.8736V343.046H60.1525V373.848ZM113.132 304.773H122.856V271.336H113.132V304.773ZM164.017 375.462H152.12V341.419H164.017V375.462ZM153.734 373.848H162.403V343.046H153.734V373.848ZM151.625 375.462H138.674V341.419H151.631L151.625 375.462ZM140.288 373.848H150.012V343.046H140.288V373.848ZM138.179 375.462H124.964V341.419H138.179V375.462ZM126.578 373.848H136.566V343.046H126.578V373.848ZM124.47 375.462H111.529V341.419H124.481L124.47 375.462ZM113.132 373.848H122.856V343.046H113.132V373.848ZM111.024 375.462H99.1266V341.419H111.024V375.462ZM100.743 373.848H109.41V343.046H100.743V373.848ZM98.6321 375.462H85.6833V341.419H98.6511L98.6321 375.462ZM87.2971 373.848H97.021V343.046H87.2998L87.2971 373.848ZM85.1861 375.462H71.971V341.419H85.1861V375.462ZM73.5876 373.848H83.5722V343.046H73.5876V373.848ZM177.463 340.925H164.512V306.882H177.463V340.925ZM166.126 339.311H175.847V308.509H166.126V339.311ZM164.017 340.925H152.12V306.882H164.017V340.925ZM153.734 339.311H162.403V308.509H153.734V339.311ZM151.625 340.925H138.674V306.882H151.631L151.625 340.925ZM140.288 339.311H150.012V308.509H140.288V339.311ZM138.179 340.925H124.964V306.882H138.179V340.925ZM126.578 339.311H136.566V308.509H126.578V339.311ZM124.47 340.925H111.529V306.882H124.481L124.47 340.925ZM113.132 339.311H122.856V308.509H113.132V339.311ZM111.024 340.925H99.1266V306.882H111.024V340.925ZM100.743 339.311H109.41V308.509H100.743V339.311ZM98.6321 340.925H85.6833V306.882H98.6511L98.6321 340.925ZM87.2971 339.311H97.021V308.509H87.2998L87.2971 339.311ZM164.017 306.387H152.12V269.709H164.017V306.387ZM153.734 304.773H162.403V271.336H153.734V304.773ZM151.625 306.387H138.674V269.709H151.631L151.625 306.387ZM140.288 304.773H150.012V271.336H140.288V304.773ZM138.179 306.387H124.964V269.709H138.179V306.387ZM126.578 304.773H136.566V271.336H126.578V304.773Z" fill="#1D1D1B"/>
<path d="M166.136 411.868H162.414V387.581H166.136V411.868ZM164.028 410.254H164.523V389.195H164.028V410.254Z" fill="#1D1D1B"/>
<path d="M100.754 411.868H97.0211V387.581H100.746L100.754 411.868ZM98.6431 410.254H99.1376V389.195H98.6513L98.6431 410.254Z" fill="#1D1D1B"/>
<path d="M113.143 411.868H109.421V387.581H113.143V411.868ZM111.035 410.254H111.529V389.195H111.035V410.254Z" fill="#1D1D1B"/>
<path d="M87.3081 411.868H83.5833V387.581H87.3081V411.868ZM85.1971 410.254H85.6943V389.195H85.1971V410.254Z" fill="#1D1D1B"/>
<path d="M126.589 411.868H122.867V387.581H126.589V411.868ZM124.481 410.254H124.976V389.195H124.481V410.254Z" fill="#1D1D1B"/>
<path d="M153.745 411.868H150.023V387.581H153.745V411.868ZM151.637 410.254H152.131V389.195H151.631L151.637 410.254Z" fill="#1D1D1B"/>
<path d="M140.299 411.868H136.577V387.581H140.299V411.868ZM138.191 410.254H138.685V389.195H138.191V410.254Z" fill="#1D1D1B"/>
<path d="M159.73 391.425H36.4773L36.4529 373.67H153.652C154.419 373.545 163.281 371.961 167.259 365.274L168.715 365.956L159.73 391.425ZM38.0885 389.811H158.589L165.653 369.738C160.763 374.229 154.158 375.226 153.815 375.275H153.701H38.064L38.0885 389.811Z" fill="#1D1D1B"/>
<g opacity="0.4">
<path d="M86.2513 331.695H71.224V328.369H86.2513V331.695ZM72.8378 330.081H84.6374V329.983H72.8405L72.8378 330.081Z" fill="#1D1D1B"/>
</g>
<g opacity="0.4">
<path d="M112.88 331.695H97.8524V328.369H112.88V331.695ZM99.4662 330.081H111.266V329.983H99.4662V330.081Z" fill="#1D1D1B"/>
</g>
<g opacity="0.4">
<path d="M138.717 331.695H123.687V328.369H138.717V331.695ZM125.301 330.081H137.104V329.983H125.301V330.081Z" fill="#1D1D1B"/>
</g>
<g opacity="0.4">
<path d="M165.61 331.695H150.58V328.369H165.61V331.695ZM152.194 330.081H163.996V329.983H152.194V330.081Z" fill="#1D1D1B"/>
</g>
<g opacity="0.4">
<path d="M73.335 318.251H58.3051V314.923H73.335V318.251ZM59.9189 316.635H71.7185V316.537H59.9189V316.635Z" fill="#1D1D1B"/>
</g>
<g opacity="0.4">
<path d="M99.9609 318.251H84.9336V314.923H99.9609V318.251ZM86.5474 316.635H98.347V316.537H86.5474V316.635Z" fill="#1D1D1B"/>
</g>
<g opacity="0.4">
<path d="M125.798 318.251H110.769V314.923H125.798V318.251ZM112.385 316.635H124.19V316.537H112.391L112.385 316.635Z" fill="#1D1D1B"/>
</g>
<g opacity="0.4">
<path d="M59.6255 366.233H44.5847V362.904H59.6146L59.6255 366.233ZM46.2094 364.602H58.0089V364.505H46.2148L46.2094 364.602Z" fill="#1D1D1B"/>
</g>
<g opacity="0.4">
<path d="M152.691 318.251H137.661V314.923H152.691V318.251ZM139.275 316.635H151.088V316.537H139.286L139.275 316.635Z" fill="#1D1D1B"/>
</g>
<g opacity="0.4">
<path d="M86.2511 296.629H71.2239V293.301H86.2511V296.629ZM72.8404 295.015H84.64V294.917H72.8404V295.015Z" fill="#1D1D1B"/>
</g>
<g opacity="0.4">
<path d="M112.88 296.629H97.8523V293.301H112.88V296.629ZM99.4661 295.015H111.266V294.917H99.4661V295.015Z" fill="#1D1D1B"/>
</g>
<g opacity="0.4">
<path d="M138.717 296.629H123.687V293.301H138.717V296.629ZM125.301 295.015H137.103V294.917H125.301V295.015Z" fill="#1D1D1B"/>
</g>
<g opacity="0.4">
<path d="M165.61 296.629H150.58V293.301H165.61V296.629ZM152.193 295.015H163.996V294.917H152.193V295.015Z" fill="#1D1D1B"/>
</g>
<g opacity="0.4">
<path d="M177.61 318.251H162.58V314.923H177.61V318.251ZM164.194 316.635H175.994V316.537H164.194V316.635Z" fill="#1D1D1B"/>
</g>
<g opacity="0.4">
<path d="M177.61 352.786H162.58V349.463H177.61V352.786ZM164.194 351.172H175.994V351.074H164.194V351.172Z" fill="#1D1D1B"/>
</g>
<g opacity="0.4">
<path d="M99.9609 283.182H84.9336V279.856H99.9609V283.182ZM86.5474 281.568H98.347V281.47H86.5474V281.568Z" fill="#1D1D1B"/>
</g>
<g opacity="0.4">
<path d="M125.798 283.182H110.769V279.856H125.798V283.182ZM112.385 281.568H124.19V281.47H112.391L112.385 281.568Z" fill="#1D1D1B"/>
</g>
<g opacity="0.4">
<path d="M152.691 283.182H137.661V279.856H152.691V283.182ZM139.274 281.568H151.088V281.47H139.285L139.274 281.568Z" fill="#1D1D1B"/>
</g>
<g opacity="0.4">
<path d="M86.2511 366.233H71.2239V362.904H86.2511V366.233ZM72.8377 364.602H84.6372V364.505H72.8404L72.8377 364.602Z" fill="#1D1D1B"/>
</g>
<g opacity="0.4">
<path d="M112.88 366.233H97.8525V362.904H112.88V366.233ZM99.4664 364.602H111.266V364.505H99.4664V364.602Z" fill="#1D1D1B"/>
</g>
<g opacity="0.4">
<path d="M138.717 366.233H123.688V362.904H138.717V366.233ZM125.301 364.602H137.104V364.505H125.301V364.602Z" fill="#1D1D1B"/>
</g>
<g opacity="0.4">
<path d="M165.61 366.233H150.58V362.904H165.61V366.233ZM152.193 364.602H163.996V364.505H152.193V364.602Z" fill="#1D1D1B"/>
</g>
<g opacity="0.4">
<path d="M46.4429 398.134H31.413V394.806H46.4429V398.134ZM33.0268 396.52H44.8291V396.419H33.0268V396.52Z" fill="#1D1D1B"/>
</g>
<g opacity="0.4">
<path d="M73.0716 398.134H58.0416V394.806H73.0716V398.134ZM59.6555 396.52H71.455V396.419H59.6555V396.52Z" fill="#1D1D1B"/>
</g>
<g opacity="0.4">
<path d="M99.6972 398.134H84.6699V394.806H99.6972V398.134ZM86.2838 396.52H98.0833V396.419H86.2838V396.52Z" fill="#1D1D1B"/>
</g>
<g opacity="0.4">
<path d="M125.549 398.134H110.519V394.806H125.549V398.134ZM112.133 396.52H123.919V396.419H112.116L112.133 396.52Z" fill="#1D1D1B"/>
</g>
<g opacity="0.4">
<path d="M152.427 398.134H137.397V394.806H152.427V398.134ZM139.011 396.52H150.816V396.419H139.014L139.011 396.52Z" fill="#1D1D1B"/>
</g>
<g opacity="0.4">
<path d="M59.6256 406.306H44.5847V402.986H59.6147L59.6256 406.306ZM46.2094 404.693H58.009V404.592H46.2149L46.2094 404.693Z" fill="#1D1D1B"/>
</g>
<g opacity="0.4">
<path d="M86.2513 406.306H71.224V402.986H86.2513V406.306ZM72.8378 404.693H84.6374V404.592H72.8405L72.8378 404.693Z" fill="#1D1D1B"/>
</g>
<g opacity="0.4">
<path d="M112.88 406.306H97.8525V402.986H112.88V406.306ZM99.4664 404.693H111.266V404.592H99.4664V404.693Z" fill="#1D1D1B"/>
</g>
<g opacity="0.4">
<path d="M138.717 406.306H123.688V402.986H138.717V406.306ZM125.301 404.693H137.104V404.592H125.301V404.693Z" fill="#1D1D1B"/>
</g>
<g opacity="0.4">
<path d="M165.61 406.306H150.58V402.986H165.61V406.306ZM152.194 404.693H163.996V404.592H152.194V404.693Z" fill="#1D1D1B"/>
</g>
<g opacity="0.4">
<path d="M6.105 406.306H-8.92499V402.986H6.105V406.306ZM-7.31116 404.693H4.4911V404.592H-7.30844L-7.31116 404.693Z" fill="#1D1D1B"/>
</g>
<g opacity="0.4">
<path d="M32.997 406.306H17.9589V402.986H32.9888L32.997 406.306ZM19.5809 404.693H31.3831V404.592H19.589L19.5809 404.693Z" fill="#1D1D1B"/>
</g>
<g opacity="0.4">
<path d="M19.2873 398.396H4.25739V395.067H19.2873V398.396ZM5.87122 396.782H17.6871V396.681H5.88481L5.87122 396.782Z" fill="#1D1D1B"/>
</g>
<g opacity="0.4">
<path d="M73.335 352.786H58.3051V349.463H73.335V352.786ZM59.9189 351.172H71.7185V351.074H59.9189V351.172Z" fill="#1D1D1B"/>
</g>
<g opacity="0.4">
<path d="M99.9607 352.786H84.9335V349.463H99.9607V352.786ZM86.5473 351.172H98.3468V351.074H86.5473V351.172Z" fill="#1D1D1B"/>
</g>
<g opacity="0.4">
<path d="M125.798 352.786H110.769V349.463H125.798V352.786ZM112.385 351.172H124.19V351.074H112.391L112.385 351.172Z" fill="#1D1D1B"/>
</g>
<g opacity="0.15">
<path d="M-10.8267 411.794C-18.5753 411.794 -26.4979 409.428 -34.4286 404.73L-40.998 400.856L-33.7602 403.28C-28.6478 405.04 -23.2243 405.715 -17.8364 405.26C11.6476 402.581 33.4671 381.294 40.887 370.416C44.2315 365.525 48.766 358.038 54.0097 349.387C69.9308 323.128 93.9945 283.445 116.414 263.937L116.485 263.883C124.486 258.359 131.156 254.588 136.886 252.352L137.028 252.312C137.253 252.268 137.481 252.227 137.707 252.189C143.622 251.236 148.873 252.844 153.297 256.977L155.005 258.574L152.674 258.37C151.196 258.251 149.709 258.313 148.246 258.555C121.533 262.867 86.5719 320.536 65.6734 354.992C60.4135 363.664 55.8708 371.155 52.5045 376.094C44.9379 387.193 22.6755 408.904 -7.40616 411.64C-8.54183 411.743 -9.68199 411.794 -10.8267 411.794ZM-27.4651 406.518C-20.7353 409.452 -14.0625 410.637 -7.55282 410.05C21.9311 407.369 43.7506 386.084 51.1705 375.206C54.515 370.315 59.0496 362.827 64.2932 354.174C74.7316 336.96 89.0172 313.382 103.778 294.1C121.386 271.083 135.838 258.941 147.988 256.979C148.805 256.847 149.63 256.764 150.457 256.729C146.806 254.037 142.611 253.053 137.96 253.803C137.775 253.833 137.587 253.868 137.403 253.904C131.817 256.094 125.285 259.791 117.436 265.203C95.2171 284.556 71.2485 324.082 55.3872 350.243C50.1299 358.915 45.5873 366.403 42.2183 371.342C34.6517 382.441 12.3893 404.152 -17.6924 406.888C-20.9525 407.177 -24.2362 407.053 -27.4651 406.518Z" fill="#1D1D1B"/>
</g>
<g opacity="0.4">
<path d="M152.691 352.786H137.661V349.463H152.691V352.786ZM139.275 351.172H151.088V351.074H139.286L139.275 351.172Z" fill="#1D1D1B"/>
</g>
<path d="M-100.393 411.843H-108.962C-112.026 411.843 -115.346 409.873 -118.827 405.988C-127.643 396.15 -136.351 374.684 -134.81 360.678C-132.86 342.958 -117.352 331.243 -116.691 330.751L-116.588 330.686C-107.166 325.676 -86.702 326.882 -62.9969 328.284C-38.7485 329.716 -11.2642 331.338 12.1637 327.037C27.4572 324.228 50.2793 305.5 72.3515 287.389C96.3962 267.659 121.256 247.258 137.503 246.418C160.994 245.207 170.207 249.768 181.311 305.685C187.062 334.637 184.231 356.203 180.846 369.196C177.165 383.324 172.176 390.488 171.967 390.787L171.733 391.118L153.666 391.559L154.364 390.322C154.481 390.11 166.319 368.859 168.644 347.306C169.459 339.698 170.003 321.905 168.125 303.99C166.522 288.68 162.618 268.537 153.125 259.53C149.05 255.675 144.23 254.164 138.775 255.047C112.062 259.359 77.1007 317.028 56.2022 351.481C50.9422 360.157 46.3996 367.647 43.0306 372.586C35.464 383.685 13.2043 405.396 -16.8801 408.129C-30.3369 409.346 -43.7775 403.611 -57.987 390.575C-69.887 379.653 -79.7603 365.976 -87.691 354.983L-88.3919 354.016C-96.6568 342.573 -104.202 337.171 -109.073 334.675C-109.824 334.285 -110.675 334.133 -111.514 334.239C-112.352 334.344 -113.139 334.702 -113.771 335.264C-118.971 339.867 -127.784 349.362 -128.369 361.243C-129.184 377.596 -120.49 394.536 -112.1 403.355C-107.88 407.787 -103.723 410.226 -100.393 410.226V411.843ZM-115.773 332.074C-116.708 332.789 -131.382 344.273 -133.205 360.847C-134.55 373.056 -126.978 394.466 -117.623 404.901C-114.507 408.382 -111.51 410.221 -108.962 410.221H-106.027C-108.367 408.974 -110.825 407.031 -113.271 404.461C-121.897 395.4 -130.806 377.985 -129.98 361.159C-129.368 348.686 -120.231 338.821 -114.841 334.05C-113.966 333.268 -112.873 332.771 -111.708 332.625C-110.543 332.479 -109.362 332.692 -108.321 333.235C-103.292 335.821 -95.5211 341.361 -87.0688 353.068L-86.3706 354.035C-78.4915 364.968 -68.659 378.569 -56.8812 389.38C-43.0249 402.092 -29.9837 407.697 -17.0132 406.518C12.4708 403.836 34.293 382.552 41.7101 371.671C45.0547 366.78 49.5892 359.293 54.8328 350.639C65.2712 333.425 79.5568 309.85 94.3178 290.568C111.929 267.551 126.391 255.406 138.53 253.447C144.507 252.482 149.8 254.132 154.25 258.354C173.459 276.579 171.454 336.441 170.264 347.469C168.223 366.367 159.013 384.981 156.448 389.869L170.88 389.518C171.891 387.956 176.151 380.903 179.322 368.685C182.65 355.872 185.421 334.593 179.743 305.992C168.837 251.075 160.521 246.845 137.601 248.024C121.886 248.839 97.2303 269.067 73.3894 288.631C51.1596 306.87 28.1718 325.733 12.4707 328.616C-11.1501 332.963 -38.7376 331.333 -63.0785 329.887C-86.4983 328.515 -106.726 327.32 -115.773 332.074Z" fill="#1D1D1B"/>
<path d="M-99.4879 411.979H-100.303C-104.223 411.979 -108.932 409.303 -113.559 404.445C-122.253 395.302 -131.249 377.732 -130.404 360.751C-129.781 348.085 -120.539 338.098 -115.083 333.272C-114.131 332.421 -112.942 331.88 -111.675 331.722C-110.407 331.563 -109.122 331.794 -107.989 332.384C-102.906 334.998 -95.062 340.586 -86.5499 352.372L-85.8517 353.34C-77.9726 364.253 -68.1727 377.832 -56.4357 388.605C-42.6963 401.212 -29.7855 406.773 -16.9698 405.605C12.3185 402.945 33.9968 381.796 41.3678 370.989C44.7123 366.082 49.2468 358.621 54.4742 349.981C64.918 332.756 79.2198 309.168 93.9917 289.862C111.687 266.73 126.258 254.523 138.549 252.539C145.227 251.453 151.118 254.009 156.054 260.114C164.099 270.072 169.535 290.188 170.967 315.3C172.206 337.071 170.13 359.173 165.805 370.296L165.512 371.048L163.023 370.081L163.316 369.329C167.522 358.529 169.527 336.878 168.307 315.452C166.908 290.883 161.686 271.324 153.984 261.793C149.694 256.487 144.646 254.256 138.978 255.175C112.507 259.448 77.6196 316.987 56.7727 351.353C51.5101 360.048 46.9646 367.53 43.5875 372.48C41.7916 375.113 34.9558 384.397 22.3494 393.292C10.0255 401.986 -3.11626 407.018 -16.709 408.254C-23.9686 408.911 -31.4075 407.496 -38.8246 404.045C-45.1578 401.1 -51.6838 396.563 -58.2234 390.559C-70.1615 379.601 -80.0538 365.9 -88.0008 354.891L-88.699 353.924C-96.9014 342.567 -104.37 337.226 -109.193 334.745C-109.848 334.404 -110.592 334.271 -111.326 334.363C-112.059 334.455 -112.747 334.769 -113.298 335.261C-118.438 339.809 -127.154 349.183 -127.719 360.871C-128.515 377.066 -119.919 393.851 -111.597 402.592C-107.478 406.917 -103.446 409.3 -100.273 409.3H-99.458L-99.4879 411.979Z" fill="#1D1D1B"/>
<path d="M-19.2276 386.215C-27.65 386.215 -36.6158 383.707 -45.8316 378.763C-54.398 374.171 -63.2551 367.466 -72.1611 358.834C-87.1042 344.361 -97.279 329.016 -97.7001 328.369L-98.5152 327.155L-95.4125 327.076L-95.1653 327.451C-95.0674 327.6 -85.2975 342.394 -70.2974 356.93C-56.6503 370.155 -36.0289 385.457 -15.2636 383.346C-0.904671 381.871 16.8694 370.607 37.5668 349.868C55.2811 332.119 71.9113 310.783 84.0505 295.204C93.9645 282.486 100.298 274.786 103.341 273.069L104.044 272.67L104.903 274.189L104.199 274.588C102.297 275.675 98.1676 281.109 92.9375 288.001C90.9053 290.68 88.5905 293.707 86.1616 296.845C61.204 328.869 19.4287 382.466 -14.9864 386.001C-16.3955 386.144 -17.8111 386.216 -19.2276 386.215Z" fill="#1D1D1B"/>
<path d="M-20.0779 367.576C-28.0574 367.576 -36.2353 366 -44.3861 362.892C-52.2651 359.882 -60.1931 355.428 -67.9255 349.658C-81.04 339.877 -90.0601 328.496 -90.1498 328.382L-91.2012 327.048L-87.7942 327.105L-87.5578 327.412C-87.4763 327.515 -79.2849 337.975 -66.366 347.612C-54.5501 356.428 -36.0859 366.573 -15.2254 364.799C17.9399 361.995 57.8106 317.378 81.6325 290.72C92.2692 278.817 98.0263 273.169 100.887 271.835L101.618 271.492L102.352 273.071L101.621 273.41C99.4799 274.41 94.6574 279.874 88.5525 286.788C86.9767 288.576 85.2922 290.47 83.5506 292.431C59.4733 319.375 19.1761 364.47 -15.0081 367.364C-16.6845 367.505 -18.3907 367.576 -20.0779 367.576Z" fill="#1D1D1B"/>
<path d="M-21.8981 351.596C-40.2101 351.596 -53.7485 346.067 -61.883 341.432C-72.1284 335.593 -77.641 328.885 -77.7035 328.817L-78.8474 327.413L-75.5083 327.578L-75.28 327.85C-75.2339 327.904 -70.4548 333.664 -60.6087 339.261C-51.4581 344.469 -36.1565 350.357 -15.2145 348.83C18.0024 346.401 56.8082 308.804 79.9943 286.341C90.362 276.288 95.9942 271.526 98.8224 270.385L99.5723 270.083L100.203 271.648L99.4528 271.95C97.3553 272.794 92.8127 277.269 87.0583 282.931C85.3901 284.561 83.6132 286.325 81.7385 288.14C58.3079 310.839 19.092 348.833 -15.0297 351.327C-17.3228 351.512 -19.6349 351.596 -21.8981 351.596Z" fill="#1D1D1B"/>
<path d="M-21.6836 340.66C-38.5285 340.66 -48.4697 338.084 -53.841 335.924C-60.924 333.077 -63.0785 329.692 -63.1763 329.548L-63.9914 328.224L-60.8616 328.409L-60.6415 328.765C-60.6415 328.765 -58.9923 331.18 -52.7624 333.656C-46.7173 336.06 -35.2845 338.769 -15.1576 338.033C-0.565056 337.489 16.7036 330.613 36.1703 317.558C52.7869 306.418 67.9772 292.907 79.0703 283.053C87.8731 275.226 93.5434 270.463 96.4776 269.281L96.7955 269.153L99.0152 270.142L97.2465 270.854C95.3637 271.612 91.6117 275.038 86.8652 279.377C85.0313 281.051 82.9528 282.95 80.7358 284.922C69.5965 294.836 54.322 308.407 37.564 319.644C17.4263 333.15 0.211937 339.986 -15.0653 340.543C-17.3257 340.619 -19.5509 340.66 -21.6836 340.66Z" fill="#1D1D1B"/>
<g opacity="0.15">
<path d="M170.902 399.584H36.4556V389.803H170.902V399.584ZM38.064 397.97H169.291V391.425H38.064V397.97Z" fill="#1D1D1B"/>
</g>
<g opacity="0.15">
<path d="M155.883 391.503L158.771 389.911C158.771 389.911 159.203 389.669 159.901 389.194C163.445 386.764 166.276 383.434 168.104 379.546L174.176 366.431C174.238 366.298 179.792 354.224 176.814 311.963C174.689 281.805 161.855 258.102 155.367 249.791L152.943 246.691L156.391 248.593C166.884 254.369 174.793 273.678 182.039 311.207C186.88 336.298 183.903 356.58 180.55 369.156C176.912 382.825 172.19 390.438 171.992 390.756L171.761 391.123L155.883 391.503ZM159.624 253.057C166.56 263.865 176.564 285.421 178.425 311.848C181.444 354.721 175.871 366.638 175.632 367.124L169.563 380.228C167.805 383.965 165.177 387.226 161.898 389.737L170.84 389.52C172.926 385.909 189.057 356.102 180.449 311.503C174.29 279.588 167.745 261.086 159.624 253.057Z" fill="#1D1D1B"/>
</g>
<path d="M150.846 383.37H41.0826V381.229H150.74C151.9 381.058 166.226 378.73 169.459 368.017C175.285 348.667 175.803 325.782 171.09 295.991C167.851 275.525 156.049 254.732 152.615 253.314L151.867 253.007L152.539 251.377L153.286 251.687C157.421 253.393 169.709 273.558 173.203 295.652C177.969 325.771 177.428 348.96 171.508 368.628C167.761 381.074 151.131 383.335 150.949 383.356L150.846 383.37Z" fill="#1D1D1B"/>
<g style="mix-blend-mode:darken" opacity="0.29">
<path d="M-99.488 411.979H-100.303C-100.632 411.978 -100.96 411.96 -101.287 411.925H-105.033C-105.397 411.925 -105.76 411.897 -106.12 411.844H-108.981C-120.626 411.844 -134.859 382.601 -134.998 364.235C-135.012 363.047 -134.955 361.86 -134.83 360.679C-132.879 342.959 -117.371 331.244 -116.71 330.752L-116.607 330.687C-112.532 328.513 -106.324 327.386 -97.0726 327.117L-95.8744 327.087C-93.921 327.049 -91.7991 327.046 -89.525 327.087L-88.2073 327.108C-84.9905 327.174 -81.3444 327.304 -77.068 327.513L-75.8997 327.57C-71.7401 327.782 -67.4773 328.032 -62.9591 328.298L-61.3126 328.396C-39.0176 329.711 -11.2698 331.344 12.1337 327.038C27.4272 324.229 50.2493 305.501 72.3215 287.39C96.3662 267.66 121.226 247.258 137.473 246.419C145.915 245.984 152.223 246.297 157.578 249.193C163.284 252.282 167.563 258.121 171.434 268.127L171.864 269.214H171.456C171.549 269.374 171.641 269.54 171.728 269.711H172.035L172.228 270.254C173.586 274.009 174.904 278.315 176.224 283.325L177.423 283.217C178.031 286.618 178.575 290.585 179.039 295.011C179.765 298.285 180.517 301.876 181.272 305.686C187.024 334.637 184.193 356.204 180.808 369.196C177.126 383.324 172.138 390.489 171.929 390.787L171.695 391.119L170.864 391.141V411.844L-88.5877 411.868V411.925H-99.526L-99.488 411.979ZM-115.773 332.075C-116.705 332.79 -131.382 344.274 -133.205 360.847C-133.325 361.966 -133.379 363.091 -133.365 364.216C-133.3 372.693 -130.048 384.117 -124.877 394.029C-119.666 404.016 -113.57 410.222 -108.962 410.222H-105.913C-105.62 410.269 -105.323 410.294 -105.025 410.295H-101.145H-101.102H-89.756V410.213H169.291V389.565L170.872 389.527C171.88 387.965 176.143 380.911 179.314 368.694C182.642 355.881 185.413 334.602 179.735 306.001C178.977 302.197 178.221 298.592 177.496 295.315L177.48 295.223C177.463 295.046 177.444 294.867 177.425 294.679L175.888 288.379C174.238 281.622 172.627 276.036 170.945 271.325H170.777L170.554 270.876C170.218 270.179 169.819 269.514 169.364 268.888L168.408 267.6H169.535C161.988 248.883 153.506 247.196 137.593 248.022C121.878 248.837 97.222 269.064 73.3811 288.629C51.1513 306.867 28.1635 325.731 12.4625 328.614C-11.1339 332.944 -38.9904 331.303 -61.3724 329.972L-63.0025 329.877C-67.5153 329.605 -71.7781 329.358 -75.9323 329.149L-77.1006 329.089C-81.377 328.883 -85.0068 328.752 -88.1992 328.69L-89.487 328.665C-91.7909 328.635 -93.8503 328.638 -95.8011 328.665L-96.9938 328.692C-105.835 328.986 -111.975 330.083 -115.773 332.075Z" fill="#1D1D1B"/>
</g>
</g>
<path d="M242.169 124.404C242.169 124.432 242.607 124.255 243.411 124.076C244.551 123.828 245.725 123.783 246.88 123.942C248.595 124.168 250.213 124.866 251.553 125.958C253.197 127.297 254.356 129.137 254.854 131.197C254.86 131.215 254.864 131.234 254.868 131.254L254.966 131.629L255.11 131.273C255.913 129.32 257.291 127.657 259.06 126.505C260.504 125.565 262.164 125.011 263.883 124.896C265.041 124.813 266.206 124.919 267.331 125.211C268.127 125.42 268.545 125.605 268.556 125.583C268.461 125.524 268.36 125.475 268.254 125.437C267.962 125.311 267.661 125.204 267.355 125.116C266.225 124.785 265.047 124.65 263.872 124.72C262.115 124.81 260.412 125.358 258.933 126.309C257.112 127.478 255.695 129.179 254.873 131.18L255.113 131.199L255.096 131.14C254.586 129.026 253.391 127.14 251.697 125.776C250.32 124.669 248.658 123.972 246.902 123.766C245.727 123.619 244.535 123.692 243.386 123.981C243.075 124.055 242.77 124.152 242.474 124.271C242.368 124.307 242.267 124.351 242.169 124.404Z" fill="#9C9B9B"/>
<path d="M207.488 105.376C207.488 105.397 207.733 105.308 208.178 105.215C208.804 105.088 209.448 105.069 210.08 105.161C211.013 105.29 211.893 105.673 212.623 106.269C213.514 107.001 214.143 108.002 214.416 109.122V109.155L214.511 109.53L214.655 109.174C215.093 108.11 215.842 107.204 216.804 106.574C217.59 106.059 218.495 105.753 219.432 105.685C220.064 105.635 220.701 105.687 221.317 105.84C221.757 105.949 221.991 106.044 221.999 106.022C222.007 106 221.947 105.984 221.839 105.932C221.679 105.858 221.513 105.796 221.344 105.745C220.722 105.553 220.071 105.473 219.421 105.509C218.446 105.554 217.5 105.853 216.677 106.378C215.665 107.025 214.878 107.968 214.422 109.079L214.661 109.1V109.065C214.376 107.889 213.706 106.842 212.759 106.09C212.117 105.581 211.366 105.228 210.564 105.06C209.762 104.892 208.932 104.912 208.14 105.12C207.969 105.163 207.802 105.22 207.64 105.289C207.542 105.337 207.485 105.367 207.488 105.376Z" fill="#9C9B9B"/>
<path d="M230.163 97.5859C230.147 97.6022 230.4 97.8576 230.829 98.3412C231.433 99.027 231.978 99.7622 232.459 100.539C234.057 103.105 234.895 106.07 234.877 109.092V109.201L235.13 109.22C235.377 107.596 235.906 106.029 236.692 104.587C237.774 102.614 239.295 100.915 241.137 99.6209C241.664 99.2568 241.968 99.0775 241.952 99.0558C241.869 99.0821 241.791 99.1196 241.718 99.1672C241.572 99.2514 241.346 99.3601 241.077 99.5421C240.308 100.034 239.592 100.605 238.942 101.246C236.763 103.384 235.334 106.168 234.866 109.184L235.116 109.206V109.095C235.138 106.027 234.263 103.021 232.598 100.444C232.101 99.6662 231.529 98.9383 230.891 98.2706C230.671 98.0288 230.476 97.8658 230.348 97.749C230.293 97.6875 230.231 97.6327 230.163 97.5859Z" fill="#9C9B9B"/>
<path opacity="0.03" d="M66.513 203.171C66.513 203.171 64.4074 196.555 72.2185 193.246C80.0296 189.937 92.6687 194.751 92.0683 198.058C91.4678 201.364 85.4526 204.676 89.6611 204.975C93.8696 205.274 96.5783 198.96 105.3 201.967C114.021 204.975 103.797 208.885 105.903 208.885C108.008 208.885 113.722 207.382 118.833 208.885C123.943 210.387 118.833 213.096 99.5859 214.59C80.3393 216.084 84.8494 212.186 77.6333 211.585C70.4171 210.985 71.3165 214.302 55.9795 211.585C40.6425 208.868 46.0628 199.563 66.513 203.171Z" fill="black"/>
<path opacity="0.02" d="M257.952 31.9517C257.952 31.9517 263.22 15.4003 243.658 7.12456C224.097 -1.15115 192.496 10.8848 194.015 19.1632C195.534 27.4416 210.566 35.7146 200.033 36.4672C189.5 37.2198 182.729 21.4182 160.909 28.9414C139.09 36.4645 164.672 46.2563 159.393 46.2563C154.114 46.2563 139.832 42.4933 127.04 46.2563C114.249 50.0192 127.04 56.7897 175.192 60.5499C223.344 64.3101 212.058 54.532 230.115 53.0268C248.171 51.5216 245.916 59.7974 284.285 53.0268C322.653 46.2563 309.114 22.9234 257.952 31.9517Z" fill="black"/>
<path d="M-135 462H543.361" stroke="#515151" stroke-width="3.08098" stroke-miterlimit="10"/>
<path d="M-135 409.818H543.361" stroke="#515151" stroke-width="3.08098" stroke-miterlimit="10"/>
<g opacity="0.15">
<path d="M-135 436.338L542.505 436.338" stroke="#263239" stroke-width="3.08098" stroke-miterlimit="10" stroke-dasharray="37.56 37.56"/>
</g>
<path d="M81.7273 397.992H333.251" stroke="#1E2E34" stroke-width="0.578703" stroke-linecap="round" stroke-linejoin="round"/>
<path d="M312.744 243.199H84.6781C86.9576 232.405 96.4967 227.563 96.4967 227.563H300.914C300.914 227.563 310.454 232.405 312.744 243.199Z" fill="#E33443"/>
<path d="M163.425 227.563C161.993 230.21 159.483 235.611 158.062 243.199H152.218C153.111 237.8 154.713 232.543 156.983 227.563H163.425Z" fill="#232323"/>
<path d="M245.193 243.199H239.357C237.928 235.57 235.429 230.193 233.997 227.563H240.428C242.699 232.542 244.301 237.8 245.193 243.199Z" fill="#232323"/>
<path opacity="0.1" d="M312.744 243.199H84.6781C85.0684 241.346 85.6995 239.553 86.5555 237.865L309.736 235.896C311.172 238.128 312.191 240.603 312.744 243.199Z" fill="black"/>
<path d="M88.9814 243.201H81.7273V408.452H88.9814V243.201Z" fill="#232323"/>
<path d="M107.918 257.288H100.664V397.992H107.918V257.288Z" fill="#232323"/>
<path d="M161.92 257.288H156.236V397.992H161.92V257.288Z" fill="#232323"/>
<path d="M241.175 257.288H235.491V397.992H241.175V257.288Z" fill="#232323"/>
<path d="M308.43 408.449H315.684V243.198H308.43V408.449Z" fill="#232323"/>
<path d="M289.495 397.992H296.749V257.289H289.495V397.992Z" fill="#232323"/>
<path d="M316.73 240.061H80.6814L78.5894 244.323L99.6183 258.938L101.71 259.56H295.698L297.79 258.938L318.819 244.323L316.73 240.061ZM294.503 254.68H102.908L88.8974 244.943H308.514L294.503 254.68Z" fill="#232323"/>
<path d="M308.514 244.943L294.503 254.681H102.909L88.8975 244.943H308.514Z" fill="#A63443"/>
<path d="M157.037 258.834L152.522 241.603L157.646 240.791L162.161 258.022L157.037 258.834Z" fill="#232323"/>
<path d="M240.373 258.834L235.249 258.022L239.765 240.791L244.889 241.603L240.373 258.834Z" fill="#232323"/>
<path opacity="0.7" d="M293.155 366.672L308.432 376.665V283.322L293.155 287.506V366.672Z" fill="#DCDCDC"/>
<path opacity="0.7" d="M104.175 366.672L88.8975 376.665V283.322L104.175 287.506V366.672Z" fill="#DCDCDC"/>
<path d="M235.492 318.637H107.919V329.023H235.492V318.637Z" fill="#A63443"/>
<path opacity="0.2" d="M235.492 318.637H107.919V329.023H235.492V318.637Z" fill="#A63443"/>
<path d="M235.492 333.908H107.919V344.295H235.492V333.908Z" fill="#A63443"/>
<path opacity="0.2" d="M235.492 333.908H107.919V344.295H235.492V333.908Z" fill="#A63443"/>
<path d="M251.181 359.499H92.2284L107.919 349.112H235.491L251.181 359.499Z" fill="#A63443"/>
<path opacity="0.2" d="M251.181 359.499H92.2284L107.919 349.112H235.491L251.181 359.499Z" fill="#A63443"/>
<path d="M251.179 359.498H92.2284V362.807H251.179V359.498Z" fill="#E33443"/>
<path d="M331.792 90.5H327.722V397.992H331.792V90.5Z" fill="#3C3C3B"/>
<path d="M354.16 93.1055V150.136H305.354V93.1055H329.76H354.16Z" fill="#E33443"/>
<path d="M350.835 96.2822V146.958H308.679V96.2822H329.76H350.835Z" stroke="#1D1D1B" stroke-width="0.271691" stroke-miterlimit="10"/>
<path d="M330.89 98.2648C330.89 98.4889 330.824 98.7079 330.699 98.8942C330.575 99.0805 330.398 99.2258 330.191 99.3115C329.984 99.3973 329.756 99.4197 329.536 99.376C329.316 99.3323 329.115 99.2243 328.956 99.0659C328.798 98.9075 328.69 98.7056 328.646 98.4858C328.602 98.266 328.625 98.0382 328.711 97.8312C328.796 97.6242 328.941 97.4473 329.128 97.3228C329.314 97.1983 329.533 97.1318 329.757 97.1318C329.906 97.1318 330.053 97.1611 330.191 97.2181C330.328 97.275 330.453 97.3585 330.558 97.4637C330.664 97.5689 330.747 97.6938 330.804 97.8312C330.861 97.9687 330.89 98.116 330.89 98.2648Z" fill="#DCDCDC"/>
<path d="M330.89 144.976C330.89 145.2 330.824 145.419 330.699 145.605C330.575 145.791 330.398 145.937 330.191 146.022C329.984 146.108 329.756 146.131 329.536 146.087C329.316 146.043 329.115 145.935 328.956 145.777C328.798 145.618 328.69 145.417 328.646 145.197C328.602 144.977 328.625 144.749 328.711 144.542C328.796 144.335 328.941 144.158 329.128 144.034C329.314 143.909 329.533 143.843 329.757 143.843C330.058 143.843 330.346 143.962 330.558 144.175C330.771 144.387 330.89 144.675 330.89 144.976Z" fill="#DCDCDC"/>
<path d="M318.721 138.418C318.724 138.577 318.688 138.735 318.617 138.877C318.545 139.019 318.44 139.141 318.311 139.233C318.176 139.33 318.025 139.403 317.865 139.448C317.689 139.498 317.506 139.523 317.322 139.521H315.233V135.204H317.547C317.69 135.202 317.831 135.236 317.958 135.302C318.077 135.365 318.182 135.451 318.268 135.555C318.354 135.66 318.422 135.779 318.466 135.908C318.512 136.036 318.535 136.171 318.536 136.307C318.538 136.516 318.483 136.721 318.379 136.902C318.273 137.087 318.11 137.232 317.914 137.315C318.148 137.378 318.355 137.515 318.504 137.706C318.654 137.913 318.73 138.163 318.721 138.418ZM316.086 135.913V137H317.208C317.275 137.001 317.342 136.989 317.405 136.964C317.468 136.939 317.524 136.901 317.572 136.853C317.623 136.8 317.662 136.737 317.688 136.668C317.714 136.599 317.725 136.525 317.721 136.451C317.726 136.379 317.716 136.307 317.692 136.239C317.668 136.171 317.631 136.108 317.583 136.055C317.541 136.007 317.489 135.97 317.43 135.944C317.372 135.919 317.309 135.907 317.246 135.908L316.086 135.913ZM317.884 138.25C317.884 138.174 317.872 138.099 317.846 138.027C317.822 137.959 317.786 137.896 317.74 137.84C317.696 137.788 317.641 137.745 317.58 137.715C317.518 137.684 317.449 137.668 317.379 137.668H316.086V138.81H317.336C317.41 138.811 317.484 138.796 317.553 138.766C317.619 138.739 317.678 138.699 317.727 138.647C317.777 138.595 317.817 138.534 317.844 138.467C317.87 138.401 317.883 138.331 317.884 138.261V138.25Z" fill="#1D1D1B"/>
<path d="M321.221 138.821C321.386 138.828 321.55 138.791 321.696 138.714C321.842 138.636 321.965 138.521 322.052 138.381C322.14 138.244 322.2 138.092 322.231 137.932C322.265 137.761 322.283 137.588 322.283 137.414V135.205H323.117V137.414C323.119 137.695 323.083 137.976 323.011 138.248C322.948 138.496 322.833 138.728 322.674 138.93C322.518 139.128 322.317 139.288 322.087 139.394C321.817 139.514 321.522 139.573 321.226 139.565C320.923 139.574 320.622 139.513 320.346 139.386C320.117 139.274 319.916 139.112 319.759 138.911C319.604 138.706 319.492 138.472 319.43 138.223C319.363 137.957 319.329 137.683 319.33 137.408V135.199H320.172V137.408C320.171 137.585 320.188 137.762 320.224 137.935C320.255 138.094 320.315 138.246 320.4 138.383C320.484 138.511 320.595 138.618 320.726 138.696C320.877 138.781 321.048 138.824 321.221 138.821Z" fill="#1D1D1B"/>
<path d="M326.543 136.337C326.495 136.294 326.443 136.256 326.388 136.223C326.302 136.167 326.211 136.119 326.117 136.079C326.003 136.03 325.886 135.99 325.766 135.959C325.641 135.927 325.512 135.91 325.383 135.91C325.2 135.897 325.018 135.943 324.864 136.041C324.808 136.082 324.763 136.136 324.733 136.199C324.703 136.261 324.689 136.33 324.693 136.4C324.69 136.479 324.713 136.557 324.758 136.622C324.807 136.687 324.87 136.74 324.943 136.777C325.041 136.83 325.145 136.871 325.253 136.899C325.375 136.935 325.524 136.975 325.682 137.016C325.894 137.073 326.084 137.133 326.258 137.198C326.416 137.255 326.564 137.338 326.695 137.443C326.811 137.538 326.904 137.657 326.967 137.793C327.035 137.952 327.069 138.123 327.065 138.296C327.07 138.502 327.024 138.706 326.932 138.891C326.848 139.051 326.727 139.188 326.578 139.29C326.423 139.395 326.25 139.47 326.068 139.513C325.868 139.56 325.664 139.584 325.459 139.584C325.133 139.584 324.809 139.534 324.497 139.437C324.192 139.345 323.903 139.205 323.641 139.021L324.014 138.296C324.075 138.35 324.142 138.398 324.212 138.44C324.322 138.505 324.435 138.564 324.552 138.617C324.691 138.678 324.836 138.728 324.984 138.766C325.143 138.807 325.308 138.827 325.473 138.826C325.935 138.826 326.168 138.679 326.168 138.38C326.17 138.294 326.142 138.21 326.087 138.144C326.025 138.071 325.948 138.013 325.861 137.973C325.748 137.918 325.63 137.873 325.508 137.839L325.046 137.704C324.861 137.655 324.679 137.593 324.503 137.519C324.364 137.46 324.235 137.379 324.122 137.28C324.022 137.194 323.943 137.086 323.891 136.965C323.839 136.827 323.815 136.68 323.818 136.533C323.814 136.331 323.855 136.132 323.938 135.949C324.016 135.782 324.133 135.636 324.277 135.522C324.426 135.401 324.597 135.309 324.78 135.25C324.98 135.191 325.188 135.162 325.397 135.163C325.683 135.159 325.967 135.208 326.236 135.307C326.473 135.391 326.698 135.505 326.907 135.644L326.543 136.337Z" fill="#1D1D1B"/>
<path d="M331.746 136.337C331.697 136.296 331.645 136.257 331.591 136.223C331.505 136.168 331.414 136.12 331.32 136.079C331.205 136.03 331.087 135.99 330.966 135.959C330.841 135.927 330.713 135.91 330.583 135.91C330.401 135.897 330.219 135.943 330.064 136.041C330.009 136.082 329.964 136.136 329.935 136.199C329.906 136.262 329.892 136.33 329.896 136.4C329.892 136.479 329.914 136.557 329.958 136.622C330.008 136.687 330.071 136.74 330.143 136.777C330.241 136.83 330.345 136.871 330.453 136.899C330.578 136.935 330.725 136.975 330.882 137.016C331.094 137.073 331.287 137.133 331.458 137.198C331.617 137.255 331.766 137.338 331.898 137.443C332.014 137.538 332.106 137.658 332.17 137.793C332.24 137.951 332.273 138.123 332.268 138.296C332.273 138.502 332.229 138.706 332.137 138.891C332.052 139.05 331.93 139.187 331.781 139.29C331.626 139.395 331.453 139.471 331.271 139.513C331.072 139.56 330.869 139.584 330.665 139.584C330.338 139.583 330.013 139.534 329.7 139.437C329.395 139.346 329.107 139.205 328.847 139.021L329.219 138.296C329.28 138.351 329.347 138.399 329.418 138.44C329.527 138.505 329.639 138.564 329.755 138.617C329.895 138.678 330.041 138.728 330.189 138.766C330.348 138.806 330.512 138.826 330.676 138.826C331.14 138.826 331.371 138.679 331.371 138.38C331.373 138.295 331.345 138.211 331.292 138.144C331.23 138.072 331.153 138.013 331.067 137.973C330.952 137.918 330.833 137.873 330.711 137.839L330.249 137.704C330.064 137.654 329.882 137.593 329.706 137.519C329.567 137.46 329.438 137.379 329.325 137.28C329.227 137.193 329.149 137.085 329.097 136.965C329.043 136.827 329.017 136.68 329.021 136.533C329.018 136.331 329.06 136.132 329.143 135.949C329.221 135.782 329.336 135.636 329.48 135.522C329.63 135.401 329.8 135.309 329.983 135.25C330.183 135.192 330.391 135.162 330.6 135.163C330.887 135.159 331.172 135.208 331.442 135.307C331.678 135.393 331.903 135.506 332.113 135.644L331.746 136.337Z" fill="#1D1D1B"/>
<path d="M336.109 135.943H334.724V139.535H333.89V135.943H332.504V135.204H336.109V135.943Z" fill="#1D1D1B"/>
<path d="M338.283 139.564C337.985 139.568 337.69 139.504 337.421 139.377C337.169 139.258 336.943 139.091 336.756 138.885C336.57 138.678 336.424 138.439 336.327 138.178C336.224 137.919 336.173 137.642 336.174 137.363C336.173 137.079 336.227 136.798 336.335 136.535C336.44 136.275 336.591 136.037 336.78 135.831C336.971 135.628 337.2 135.464 337.454 135.347C337.72 135.227 338.009 135.166 338.302 135.168C338.598 135.164 338.891 135.229 339.158 135.358C339.409 135.482 339.635 135.654 339.82 135.864C340.004 136.072 340.148 136.311 340.247 136.57C340.348 136.83 340.4 137.106 340.399 137.385C340.399 137.664 340.346 137.941 340.242 138.2C340.139 138.457 339.99 138.693 339.801 138.896C339.611 139.099 339.383 139.263 339.13 139.379C338.865 139.502 338.575 139.565 338.283 139.564ZM337.027 137.369C337.027 137.553 337.055 137.737 337.112 137.912C337.166 138.08 337.25 138.236 337.359 138.374C337.468 138.508 337.603 138.618 337.756 138.697C337.924 138.782 338.111 138.824 338.299 138.82C338.488 138.825 338.675 138.782 338.842 138.695C338.997 138.613 339.132 138.501 339.239 138.363C339.348 138.224 339.431 138.065 339.484 137.896C339.596 137.548 339.596 137.173 339.484 136.825C339.427 136.657 339.341 136.5 339.231 136.361C339.124 136.228 338.99 136.119 338.837 136.043C338.67 135.963 338.487 135.921 338.302 135.921C338.116 135.921 337.933 135.963 337.766 136.043C337.612 136.123 337.477 136.235 337.37 136.372C337.263 136.511 337.181 136.669 337.128 136.836C337.071 137.008 337.04 137.188 337.038 137.369H337.027Z" fill="#1D1D1B"/>
<path d="M341.057 139.535V135.204H342.902C343.09 135.203 343.276 135.246 343.445 135.329C343.609 135.41 343.757 135.522 343.88 135.658C344.002 135.795 344.1 135.952 344.168 136.122C344.235 136.288 344.27 136.465 344.271 136.644C344.273 136.83 344.239 137.014 344.173 137.187C344.111 137.356 344.019 137.513 343.901 137.649C343.783 137.784 343.638 137.893 343.475 137.97C343.305 138.051 343.12 138.093 342.932 138.092H341.907V139.546L341.057 139.535ZM341.899 137.345H342.874C342.949 137.346 343.023 137.329 343.09 137.296C343.157 137.263 343.215 137.215 343.26 137.155C343.372 137.009 343.428 136.828 343.418 136.644C343.42 136.543 343.403 136.443 343.369 136.348C343.34 136.266 343.296 136.191 343.239 136.125C343.188 136.065 343.125 136.018 343.054 135.987C342.985 135.957 342.911 135.943 342.836 135.943H341.899V137.345Z" fill="#1D1D1B"/>
<path d="M333.251 352.579H326.269V397.992H333.251V352.579Z" fill="#232323"/>
<path d="M325.932 129.24H333.588L329.76 132.734L325.932 129.24Z" fill="white"/>
<path d="M340.59 103.756H318.933C317.875 103.756 317.018 104.613 317.018 105.671V127.328C317.018 128.386 317.875 129.243 318.933 129.243H340.59C341.648 129.243 342.505 128.386 342.505 127.328V105.671C342.505 104.613 341.648 103.756 340.59 103.756Z" fill="white"/>
<path d="M333.786 125.646H329.168C328.002 125.646 326.836 125.646 325.671 125.646H324.215C323.646 125.619 323.099 125.415 322.651 125.064C322.203 124.712 321.875 124.23 321.712 123.684C321.636 123.428 321.599 123.161 321.601 122.894C321.601 119.856 321.601 114.414 321.601 111.377C321.593 111.283 321.61 111.189 321.649 111.104C321.689 111.018 321.75 110.945 321.826 110.89C321.902 110.835 321.992 110.801 322.085 110.791C322.178 110.781 322.273 110.796 322.359 110.833C322.46 110.88 322.544 110.958 322.597 111.056C322.651 111.153 322.671 111.266 322.655 111.377C322.655 112.447 322.669 115.922 322.655 116.99C322.642 117.153 322.669 117.318 322.732 117.469C322.796 117.62 322.896 117.754 323.022 117.859C323.565 118.335 324.049 118.848 324.554 119.351C324.759 119.563 325.006 119.731 325.279 119.844C325.552 119.956 325.846 120.011 326.141 120.005C328.561 120.005 330.981 120.005 333.401 120.005C333.947 120.024 334.479 119.829 334.884 119.462C334.98 119.358 335.112 119.295 335.253 119.287C335.394 119.279 335.532 119.326 335.639 119.419C335.739 119.525 335.795 119.665 335.795 119.811C335.795 119.957 335.739 120.097 335.639 120.204C335.411 120.461 335.121 120.658 334.797 120.774C334.338 120.974 333.842 121.076 333.341 121.073C330.865 121.073 328.39 121.073 325.915 121.073C325.343 121.055 324.79 120.858 324.334 120.511C323.823 120.13 323.35 119.7 322.921 119.228C322.858 119.157 322.8 119.08 322.748 119L322.682 119.052C322.682 119.101 322.682 119.147 322.682 119.193C322.682 120.408 322.682 121.619 322.682 122.834C322.66 123.253 322.796 123.665 323.062 123.989C323.329 124.313 323.707 124.526 324.122 124.586C324.237 124.602 324.354 124.608 324.47 124.605H335.085C335.324 124.619 335.564 124.583 335.788 124.498C336.012 124.413 336.215 124.281 336.385 124.112C336.554 123.942 336.686 123.739 336.771 123.515C336.856 123.291 336.892 123.051 336.878 122.812C336.878 119.09 336.878 115.367 336.878 111.643C336.878 111.461 336.816 111.434 336.655 111.434C331.881 111.434 327.108 111.434 322.337 111.434H321.351C321.234 111.427 321.117 111.445 321.008 111.487C320.898 111.528 320.799 111.592 320.716 111.675C320.633 111.757 320.568 111.856 320.526 111.965C320.484 112.075 320.465 112.192 320.471 112.308C320.471 112.871 320.471 113.433 320.471 113.996C320.476 114.107 320.446 114.216 320.385 114.309C320.324 114.402 320.235 114.473 320.131 114.512C320.035 114.551 319.93 114.561 319.829 114.538C319.728 114.516 319.636 114.463 319.566 114.387C319.521 114.345 319.485 114.294 319.459 114.237C319.434 114.181 319.421 114.12 319.419 114.058C319.388 113.4 319.393 112.741 319.433 112.083C319.468 111.609 319.686 111.167 320.041 110.851C320.396 110.535 320.86 110.37 321.335 110.39C321.492 110.411 321.651 110.375 321.785 110.291C321.919 110.206 322.02 110.077 322.068 109.926C322.305 109.409 322.587 108.915 322.856 108.415C323.013 108.088 323.263 107.814 323.573 107.626C323.884 107.439 324.243 107.347 324.606 107.361H334.911C335.277 107.346 335.64 107.439 335.954 107.628C336.268 107.818 336.519 108.095 336.677 108.426C336.996 109.024 337.311 109.624 337.623 110.227C337.642 110.277 337.677 110.319 337.723 110.347C337.769 110.375 337.822 110.386 337.875 110.379C338.219 110.352 338.564 110.393 338.891 110.499C339.25 110.635 339.558 110.875 339.778 111.189C339.997 111.504 340.116 111.877 340.119 112.26C340.119 112.836 340.119 113.411 340.119 113.987C340.125 114.06 340.115 114.133 340.091 114.202C340.066 114.27 340.028 114.333 339.979 114.386C339.929 114.44 339.869 114.482 339.802 114.511C339.736 114.54 339.664 114.555 339.591 114.555C339.518 114.555 339.446 114.54 339.38 114.511C339.313 114.482 339.253 114.44 339.203 114.386C339.154 114.333 339.116 114.27 339.091 114.202C339.067 114.133 339.057 114.06 339.063 113.987C339.063 113.444 339.063 112.901 339.063 112.344C339.068 112.211 339.043 112.079 338.991 111.957C338.938 111.835 338.859 111.727 338.759 111.639C338.659 111.552 338.54 111.489 338.412 111.454C338.284 111.418 338.15 111.413 338.019 111.436C337.946 111.436 337.905 111.463 337.911 111.545C337.916 111.626 337.911 111.654 337.911 111.711C337.911 115.433 337.911 119.156 337.911 122.88C337.925 123.528 337.707 124.159 337.296 124.66C336.886 125.161 336.31 125.499 335.672 125.613L335.612 125.627L333.786 125.646ZM329.765 110.374H336.305C336.468 110.374 336.514 110.352 336.424 110.189C336.191 109.768 335.971 109.344 335.751 108.918C335.677 108.758 335.557 108.625 335.406 108.535C335.255 108.445 335.081 108.402 334.906 108.412H324.622C324.443 108.403 324.265 108.447 324.112 108.541C323.96 108.635 323.839 108.773 323.766 108.937C323.557 109.344 323.34 109.752 323.128 110.154C323.014 110.371 323.014 110.371 323.264 110.371L329.765 110.374Z" fill="#E33443"/>
<path d="M324.201 122.82C324.198 122.723 324.215 122.626 324.251 122.535C324.287 122.445 324.342 122.362 324.411 122.294C324.481 122.225 324.563 122.172 324.654 122.136C324.745 122.101 324.843 122.085 324.94 122.09C325.134 122.09 325.32 122.167 325.457 122.304C325.594 122.441 325.671 122.627 325.671 122.82C325.671 123.014 325.594 123.2 325.457 123.337C325.32 123.474 325.134 123.551 324.94 123.551C324.843 123.556 324.745 123.54 324.654 123.505C324.563 123.47 324.48 123.417 324.41 123.348C324.341 123.279 324.286 123.197 324.25 123.106C324.214 123.015 324.198 122.918 324.201 122.82Z" fill="#E33443"/>
<path d="M335.327 122.829C335.327 123.025 335.249 123.213 335.11 123.351C334.972 123.49 334.784 123.568 334.588 123.568C334.392 123.568 334.204 123.49 334.065 123.351C333.927 123.213 333.849 123.025 333.849 122.829C333.847 122.731 333.865 122.634 333.902 122.543C333.939 122.453 333.994 122.371 334.063 122.302C334.133 122.233 334.216 122.179 334.307 122.144C334.398 122.108 334.495 122.092 334.593 122.095C334.69 122.092 334.787 122.109 334.877 122.145C334.968 122.181 335.05 122.235 335.119 122.303C335.187 122.372 335.241 122.454 335.277 122.544C335.313 122.635 335.33 122.732 335.327 122.829Z" fill="#E33443"/>
<g clip-path="url(#clip0_413_5975)">
<path d="M375.085 402.755C375.085 402.755 375.644 407.786 375.085 408.159C374.525 408.532 369.311 409.647 365.955 409.647C362.599 409.647 360.369 409.461 360.182 408.345L359.996 407.227C362.37 406.836 364.686 406.147 366.888 405.176L370.054 403.687C370.054 403.687 373.41 401.823 375.085 402.755Z" fill="white" stroke="#263239" stroke-width="0.166469" stroke-linejoin="round"/>
<path d="M397.851 322.523C397.851 326.249 394.855 334.253 395.408 344.874C395.96 355.494 406.98 372.641 411.265 377.502C415.55 382.362 417.784 384.02 419.089 384.58C420.395 385.139 421.696 385.698 422.256 386.817C422.815 387.936 422.442 388.122 424.12 388.482C425.163 388.732 426.125 389.246 426.913 389.973C426.913 389.973 425.608 394.072 423.747 394.072C421.886 394.072 422.256 391.279 420.767 392.024C419.279 392.77 417.411 394.072 415.737 390.719C414.062 387.367 412.194 385.875 410.892 385.502C409.591 385.129 409.028 386.621 406.607 384.383C404.187 382.146 402.136 377.492 399.339 375.061C396.543 372.631 389.651 362.952 386.671 355.874C383.691 348.796 382.712 350.847 382.712 350.847C382.712 350.847 374.935 373.946 372.698 382.516C370.46 391.085 372.325 393.503 373.816 394.252C375.308 395.001 376.05 395.557 375.308 397.048C374.566 398.54 373.816 398.909 374.749 399.842C375.681 400.774 375.678 401.147 375.494 401.889C375.286 402.587 375.037 403.272 374.749 403.94L369.904 404.127C368.513 403.09 367.577 401.554 367.294 399.842C366.735 396.845 369.345 397.048 367.481 395.181C365.616 393.313 363.569 392.184 363.941 389.404C364.314 386.624 366.365 386.424 365.606 381.953C364.847 377.482 367.271 370.849 367.454 362.463C367.637 354.076 373.966 330.967 376.623 325.027L397.851 322.523Z" fill="#232323"/>
<path d="M342.739 297.053C342.892 296.87 342.585 296.055 342.056 295.262L339.04 290.674C338.514 289.872 337.944 289.319 337.778 289.446C337.611 289.572 337.904 290.338 338.427 291.147L341.513 295.915C342.036 296.72 342.589 297.233 342.739 297.053Z" fill="white" stroke="#263239" stroke-width="0.166469" stroke-linejoin="round"/>
<path d="M364.696 316.238C364.696 316.238 361.24 321.262 360.544 322.167C359.848 323.073 340.997 302.101 340.901 300.889C340.804 299.677 340.731 297.833 340.385 297.3C340.038 296.767 339.449 295.269 339.736 294.783C340.022 294.297 341.067 295.572 342.066 296.148C342.548 296.453 343.012 296.786 343.454 297.147C343.821 297.36 344.18 296.751 343.764 296.341C343.348 295.932 342.346 294.85 342.512 294.29C342.679 293.731 342.992 293.751 343.531 294.234C344.07 294.716 344.583 295.512 345.559 296.085C346.534 296.657 346.784 297.63 346.647 298.698C346.511 299.767 345.339 302.028 345.366 302.544C345.392 303.06 348.089 306.283 351.991 308.583L357.355 311.746C357.355 311.746 363.737 314.52 364.696 316.238Z" fill="white" stroke="#263239" stroke-width="0.166469" stroke-linejoin="round"/>
<path d="M369.202 275.741C369.202 275.741 362.249 275.503 360.83 271.073C359.412 266.644 365.379 259.194 374.219 258.353C383.06 257.511 386.59 262.966 387.878 268.372C389.165 273.779 396.458 277.217 405.183 273.379C413.908 269.541 418.579 275.88 415.068 283.654C411.556 291.428 412.922 292.355 420.332 291.078C427.742 289.801 435.869 294.36 429.416 301.745C422.964 309.131 418.784 308.588 422.607 311.831C426.43 315.075 429.944 316.783 425.814 319.735C421.684 322.687 407.066 320.03 405.753 324.347C404.439 328.665 411.851 325.393 410.849 329.254C409.847 333.116 406.858 334.968 401.464 334.262C396.07 333.557 390.429 327.084 389.142 321.674C387.855 316.264 386.096 312.545 387.539 301.509C388.983 290.473 373.373 274.376 369.202 275.741Z" fill="#232323"/>
<path d="M377.085 286.735C377.085 286.735 379.785 289.888 380.059 292.57C380.333 295.252 380.528 297.302 380.528 297.302L386.591 291.403C385.15 289.134 383.847 286.78 382.688 284.355C380.986 280.707 380.404 279.231 380.404 279.231L377.085 286.735Z" fill="white" stroke="#263239" stroke-width="0.166469" stroke-miterlimit="10"/>
<path d="M368.436 269.573C368.436 269.573 367.123 271.268 368.704 279.413C370.285 287.557 373.776 289.414 375.523 289.176C377.269 288.937 381.386 284.805 381.264 282.143C381.142 279.481 381.323 278.122 379.904 277.14C378.484 276.159 375.794 276.448 373.157 275.17C370.521 273.892 368.357 270.184 368.436 269.573Z" fill="white" stroke="#263239" stroke-width="0.166469" stroke-miterlimit="10"/>
<path d="M386.424 290.293C386.424 290.293 376.576 298.971 375.793 306.135C375.011 313.299 376.352 322.09 374.017 326.851C371.682 331.613 368.646 333.415 370.615 335.022C372.584 336.63 392.039 341.374 393.571 341.574C395.103 341.775 396.563 340.105 396.473 338.405C396.384 336.704 397.966 326.992 397.356 316.101C396.746 305.209 391.125 290.062 386.424 290.293Z" fill="#E33443"/>
<path d="M388.211 298.347C384.776 295.393 376.866 299.831 374.068 302.121C371.27 304.411 369.001 306.438 368.326 306.514C367.651 306.59 365.798 305.512 365.338 306.459C364.878 307.406 364.443 308.169 364.443 308.169C364.443 308.169 363.103 306.986 362.392 308.572L361.681 310.158C361.681 310.158 360.026 310.102 359.817 311.573C359.693 312.414 359.749 313.271 359.982 314.089C359.982 314.089 360.74 311.089 358.775 312.199L356.784 319.389C359.184 325.3 362.732 320.943 362.893 320.967C363.553 321.053 364.189 322.48 365.684 322.501C367.179 322.521 367.985 320.31 368.79 320.419C369.595 320.527 369.631 321.694 370.687 321.17C371.742 320.647 372.135 319.033 372.767 319.283C373.399 319.534 374.128 320.298 374.846 319.891C375.564 319.485 376.009 318.7 376.67 318.787C377.33 318.873 385.853 316.016 389.918 314.227C392.832 312.946 392.02 305.856 392.02 305.856C392.02 305.856 391.643 301.297 388.211 298.347Z" fill="#E33443"/>
</g>
<defs>
<clipPath id="clip0_413_5975">
<rect width="95.5134" height="151.73" fill="white" transform="matrix(-1 0 0 1 432.513 258)"/>
</clipPath>
</defs>
</svg>
