<svg width="792" height="839" viewBox="0 0 792 839" fill="none" xmlns="http://www.w3.org/2000/svg">
<g opacity="0.05">
<path d="M136.303 778.366H37.1368L36.8637 777.893C33.8051 772.57 7.18979 725.592 14.2502 715.232C20.0401 706.743 41.4976 683.284 48.7612 687.197C55.2817 690.691 80.7568 727.362 80.9982 727.724C82.3067 729.683 113.689 758.099 134.467 776.721L136.303 778.366ZM38.2294 776.479H131.37C121.207 767.361 81.1507 731.354 79.426 728.769C76.1642 723.871 53.2807 691.771 47.8687 688.858C43.0221 686.238 23.8006 704.577 15.8096 716.296C10.4548 724.151 29.9208 761.936 38.2294 776.479Z" fill="#1D1D1B"/>
<path d="M357.598 778.366H55.9995V749.976H357.598V778.366ZM57.8861 776.48H355.715V751.862H57.8861V776.48Z" fill="#1D1D1B"/>
<path d="M177.661 758.71L178.814 756.998C179.504 755.975 247.884 654.392 264.333 629.263C280.963 603.855 324.024 589.274 324.459 589.131L324.754 589.032L325.053 589.131C330.436 590.925 334.038 594.181 339.027 598.684C342.08 601.441 345.535 604.566 350.299 608.232C360.415 616.006 361.733 663.012 362.451 688.268C362.657 695.63 362.822 701.446 363.134 703.113C364.573 710.786 348.232 736.7 347.536 737.802L347.295 738.18L346.853 738.231L177.661 758.71ZM324.757 591.014C320.921 592.348 281.461 606.535 265.911 630.289C250.638 653.621 190.639 742.817 181.533 756.331L346.186 736.411C350.969 728.788 362.349 709.128 361.285 703.456C360.945 701.646 360.787 696.056 360.571 688.319C359.916 665.156 358.56 616.956 349.156 609.727C344.331 606.018 340.844 602.864 337.77 600.085C332.863 595.661 329.598 592.71 324.757 591.024V591.014Z" fill="#1D1D1B"/>
<path d="M135.979 778.395H131.628V750.004H135.979V778.395ZM133.514 776.508H134.092V751.89H133.514V776.508Z" fill="#1D1D1B"/>
<path d="M89.7515 778.394H85.3971V738.316H74.0332V778.394H69.6788V738.316H58.0068V778.394H53.6524V738.316H42.2885V774.726L40.5131 771.442C39.7667 770.064 38.9251 768.504 38.0421 766.805L37.9341 766.599V738.332H27.8025V745.78L25.9826 741.298C25.0488 738.995 24.2136 736.791 23.5021 734.752L23.4481 734.6V712.561L23.645 712.307C24.4105 711.313 25.2331 710.271 26.1351 709.214L27.8025 707.222V733.965H37.9341V696.827L38.2517 696.544C39.3093 695.591 40.3606 694.658 41.3706 693.81L41.6342 693.591H53.6619V686.67L54.7355 686.819C55.18 686.877 55.6103 687.015 56.0059 687.226C56.6097 687.575 57.174 687.988 57.6892 688.458L58.0068 688.741V693.591H62.5803L62.863 693.908C63.5299 694.686 64.2255 695.518 64.9401 696.389L66.2105 697.929H58.01V733.965H69.682V702.337L71.3748 704.561C72.2006 705.64 73.0243 706.727 73.8458 707.819L74.0364 708.07V733.974H85.4003V723.674L87.1186 726.136C87.6712 726.93 88.0714 727.492 88.2365 727.759C88.6188 728.228 89.0337 728.669 89.4783 729.08L89.7547 729.356V733.974H94.595L94.8681 734.228C95.6939 735 96.58 735.816 97.517 736.69L99.2829 738.325H89.7547L89.7515 778.394ZM87.2837 776.508H87.8617V736.429H94.4679L93.8486 735.851H87.8617V730.134C87.6267 729.896 87.4362 729.699 87.2837 729.537V735.858H72.1434V708.699C71.9528 708.442 71.7592 708.188 71.5654 707.93V735.858H56.117V696.062H62.1992L61.7101 695.483H56.117V689.614C55.9074 689.439 55.7137 689.297 55.539 689.169V695.483H42.3107C42.0884 695.674 41.8597 695.865 41.6342 696.062H55.539V735.858H40.3987V697.138L39.8207 697.659V735.851H25.9159V712.469C25.719 712.717 25.5253 712.961 25.3379 713.206V734.279C25.5814 734.978 25.8397 735.694 26.1128 736.429H39.8207V766.132L40.3987 767.231V736.423H55.539V776.501H56.117V736.429H71.5654V776.508H72.1434V736.429H87.2837V776.508ZM42.2885 733.949H53.6524V697.942H42.2885V733.949Z" fill="#1D1D1B"/>
<path d="M104.234 778.395H99.8831V738.872L104.234 742.868V778.395ZM101.77 776.508H102.348V743.696L101.77 743.166V776.508Z" fill="#1D1D1B"/>
<path d="M119.953 778.395H115.605V750.004H119.956L119.953 778.395ZM117.488 776.508H118.066V751.89H117.488V776.508Z" fill="#1D1D1B"/>
<path d="M197.928 778.395H193.574V745.844L197.928 739.371V778.395ZM195.463 776.509H196.041V745.561L195.463 746.419V776.509Z" fill="#1D1D1B"/>
<path d="M181.902 778.395H177.538V750.004H181.892L181.902 778.395ZM179.437 776.508H180.015V751.89H179.443L179.437 776.508Z" fill="#1D1D1B"/>
<path d="M166.183 778.395H161.829V750.004H166.183V778.395ZM163.719 776.508H164.297V751.89H163.719V776.508Z" fill="#1D1D1B"/>
<path d="M151.697 778.395H147.346V750.004H151.697V778.395ZM149.233 776.508H149.811V751.89H149.233V776.508Z" fill="#1D1D1B"/>
<path d="M243.851 778.395H239.496V738.316H228.132V778.395H223.778V738.316H213.646V778.395H209.298V738.316H198.643L201.571 733.965H209.298V722.464L213.653 715.985V733.965H223.784V700.893L228.685 693.588H239.503V677.444L243.857 670.946V693.588H255.529V657.568H252.81L259.893 646.954V653.217H271.231V629.793L271.549 629.288C272.241 628.231 273.026 627.129 273.88 626.017L275.573 623.813V653.217H285.705V614.034L286.051 613.748C287.62 612.478 289.297 611.207 291.034 609.937L291.282 609.759H301.423V603.194L301.89 602.921C302.722 602.438 303.549 601.967 304.37 601.507L305.774 600.723V609.759H317.449V594.917L318.005 594.666C318.852 594.279 319.678 593.912 320.482 593.567L321.801 592.996V609.765H333.168V589.438L334.495 590.032C335.375 590.428 336.231 590.876 337.058 591.373L337.519 591.646V609.765H347.654V599.999L349.223 601.39C349.994 602.073 350.811 602.787 351.675 603.524L351.992 603.807V609.756H356.35L356.632 610.137C357.228 610.96 357.752 611.832 358.198 612.744L358.875 614.11H352.021V653.214H363.385V628.17L365.259 628.002C366.246 633.513 367.078 640.246 367.736 648.011V653.207H368.139L368.2 654.084C368.257 654.91 368.311 655.733 368.362 656.555L368.428 657.559H367.736V693.581H369.822L369.851 694.493C369.88 695.366 369.908 696.189 369.937 696.954L369.975 697.933H367.752V713.88L367.675 714.061C366.977 715.69 366.138 717.488 365.189 719.4L363.397 722.998V697.933H352.033V733.965H357.144L356.27 735.397C355.346 736.919 354.771 737.827 354.771 737.827L354.533 738.205L353.542 738.316H352.033V738.507L347.682 739.034V738.316H337.547V740.26L333.196 740.787V738.316H321.829V742.162L317.478 742.69V738.316H305.803V744.103L301.452 744.63V738.316H290.084V746.005L285.733 746.533V738.316H275.602V747.759L271.247 748.286V738.316H259.883V749.664L255.529 750.188V738.316H243.857L243.851 778.395ZM241.383 776.508H241.961V751.891H241.415L241.383 751.367V776.508ZM225.664 776.508H226.246V736.43H241.376V750.001L241.954 749.931V736.43H257.403V748.06L257.984 747.99V736.43H273.137V746.158L273.715 746.088V736.43H287.623V744.405L288.201 744.332V736.43H303.341V742.502L303.919 742.429V736.43H319.368V740.558L319.946 740.489V736.426H335.07V738.65L335.648 738.58V736.423H349.556V736.896L350.134 736.827V736.423H353.405L353.768 735.845H350.134V696.049H365.274V714.788C365.475 714.34 365.668 713.905 365.852 713.479V696.033H368.019C368.019 695.843 368.018 695.652 367.999 695.455H365.852V655.659H366.418L366.38 655.081H365.852V648.119C365.67 646.002 365.478 643.959 365.274 641.989V655.081H350.134V612.204H355.759C355.634 611.993 355.51 611.799 355.387 611.623H350.134V604.655C349.937 604.49 349.747 604.337 349.556 604.156V611.623H335.648V592.697C335.454 592.586 335.264 592.481 335.07 592.38V611.626H319.93V595.87L319.352 596.127V611.642H303.903V603.944L303.325 604.261V611.626H291.892L291.101 612.208H303.31V655.084H288.191V614.469L287.613 614.93V655.103H273.706V629.492C273.515 629.774 273.328 630.051 273.147 630.327L273.127 630.356V655.103H257.99V653.198L257.409 654.065V655.116H256.71L256.323 655.694H257.409V695.49H241.961V677.171L241.383 678.035V695.503H229.682L229.295 696.081H241.376V735.877H226.239V700.623L225.658 701.487V735.871H211.753V722.214L211.175 723.074V735.886H202.562L202.174 736.465H211.175V776.543H211.753V736.43H225.658L225.664 776.508ZM228.132 733.949H239.496V697.942H228.132V733.949ZM290.065 653.201H301.433V614.113H290.065V653.201ZM349.55 735.836H335.642V696.04H349.55V735.836ZM337.528 733.949H347.663V697.942H337.528V733.949ZM335.064 735.836H319.924V696.04H335.07L335.064 735.836ZM321.81 733.949H333.177V697.942H321.81V733.949ZM319.345 735.836H303.897V696.04H319.345V735.836ZM305.784 733.949H317.459V697.942H305.784V733.949ZM303.319 735.836H288.191V696.04H303.332L303.319 735.836ZM290.065 733.949H301.433V697.942H290.065V733.949ZM287.601 735.836H273.693V696.04H287.601V735.836ZM275.583 733.949H285.714V697.942H275.583V733.949ZM273.115 735.836H257.978V696.04H273.137L273.115 735.836ZM259.864 733.949H271.231V697.942H259.867L259.864 733.949ZM257.396 735.836H241.948V696.04H257.396V735.836ZM243.838 733.949H255.51V697.942H243.838V733.949ZM365.268 695.462H350.128V655.666H365.268V695.462ZM352.014 693.575H363.378V657.568H352.014V693.575ZM349.55 695.462H335.642V655.666H349.55V695.462ZM337.528 693.575H347.663V657.568H337.528V693.575ZM335.064 695.462H319.924V655.666H335.07L335.064 695.462ZM321.81 693.575H333.177V657.568H321.81V693.575ZM319.345 695.462H303.897V655.666H319.345V695.462ZM305.784 693.575H317.459V657.568H305.784V693.575ZM303.319 695.462H288.191V655.666H303.332L303.319 695.462ZM290.065 693.575H301.433V657.568H290.065V693.575ZM287.601 695.462H273.693V655.666H287.601V695.462ZM275.583 693.575H285.714V657.568H275.583V693.575ZM273.115 695.462H257.978V655.666H273.137L273.115 695.462ZM259.864 693.575H271.231V657.568H259.867L259.864 693.575ZM349.55 655.088H335.642V612.211H349.55V655.088ZM337.528 653.201H347.663V614.113H337.528V653.201ZM335.064 655.088H319.924V612.211H335.07L335.064 655.088ZM321.81 653.201H333.177V614.113H321.81V653.201ZM319.345 655.088H303.897V612.211H319.345V655.088ZM305.784 653.201H317.459V614.113H305.784V653.201Z" fill="#1D1D1B"/>
<path d="M352.027 778.395H347.676V750.004H352.027V778.395ZM349.562 776.508H350.141V751.89H349.562V776.508Z" fill="#1D1D1B"/>
<path d="M275.595 778.395H271.231V750.004H275.586L275.595 778.395ZM273.128 776.508H273.706V751.89H273.137L273.128 776.508Z" fill="#1D1D1B"/>
<path d="M290.078 778.395H285.727V750.004H290.078V778.395ZM287.613 776.508H288.191V751.89H287.613V776.508Z" fill="#1D1D1B"/>
<path d="M259.877 778.395H255.523V750.004H259.877V778.395ZM257.409 776.508H257.991V751.89H257.409V776.508Z" fill="#1D1D1B"/>
<path d="M305.796 778.395H301.445V750.004H305.796V778.395ZM303.332 776.508H303.91V751.89H303.332V776.508Z" fill="#1D1D1B"/>
<path d="M337.541 778.395H333.19V750.004H337.541V778.395ZM335.077 776.508H335.655V751.89H335.07L335.077 776.508Z" fill="#1D1D1B"/>
<path d="M321.823 778.395H317.472V750.004H321.823V778.395ZM319.358 776.508H319.936V751.89H319.358V776.508Z" fill="#1D1D1B"/>
<path d="M55.4023 778.366H30.4386C26.856 778.366 22.9748 776.063 18.9063 771.522C8.6 760.021 -1.57928 734.927 0.221541 718.555C2.49877 697.84 20.6309 684.145 21.4027 683.573L21.6091 683.418L21.8664 683.389C37.1496 681.801 45.8361 692.146 46.1981 692.6L47.1128 693.711L45.7249 694.105C44.896 694.34 25.3727 700.14 25.9889 721.623C27.0402 758.255 55.612 776.454 55.901 776.635L58.7055 778.379L55.4023 778.366ZM22.3269 685.241C20.3292 686.807 4.15986 700.016 2.0986 718.761C0.526454 733.034 9.37812 758.061 20.3133 770.261C23.9562 774.329 27.4594 776.479 30.4386 776.479H52.4518C45.312 771.036 24.998 752.85 24.1023 721.667C23.5433 702.185 38.9409 694.671 43.7939 692.765C41.2245 690.297 33.6623 684.164 22.3269 685.241Z" fill="#1D1D1B"/>
<path d="M344.538 754.498H200.456L200.427 733.743H337.433C338.329 733.597 348.689 731.745 353.339 723.929L355.041 724.726L344.538 754.498ZM202.339 752.612H343.204L351.462 729.147C345.745 734.397 338.024 735.563 337.624 735.62H337.49H202.311L202.339 752.612Z" fill="#1D1D1B"/>
<g opacity="0.4">
<path d="M258.641 684.673H241.075V680.785H258.641V684.673ZM242.961 682.786H256.755V682.672H242.964L242.961 682.786Z" fill="#1D1D1B"/>
</g>
<g opacity="0.4">
<path d="M289.77 684.673H272.203V680.785H289.77V684.673ZM274.09 682.786H287.884V682.672H274.09V682.786Z" fill="#1D1D1B"/>
</g>
<g opacity="0.4">
<path d="M319.974 684.673H302.404V680.785H319.974V684.673ZM304.291 682.786H318.088V682.672H304.291V682.786Z" fill="#1D1D1B"/>
</g>
<g opacity="0.4">
<path d="M351.411 684.673H333.841V680.785H351.411V684.673ZM335.728 682.786H349.524V682.672H335.728V682.786Z" fill="#1D1D1B"/>
</g>
<g opacity="0.4">
<path d="M243.543 668.957H225.973V665.066H243.543V668.957ZM227.859 667.067H241.653V666.953H227.859V667.067Z" fill="#1D1D1B"/>
</g>
<g opacity="0.4">
<path d="M274.668 668.957H257.101V665.066H274.668V668.957ZM258.988 667.067H272.781V666.953H258.988V667.067Z" fill="#1D1D1B"/>
</g>
<g opacity="0.4">
<path d="M304.872 668.957H287.302V665.066H304.872V668.957ZM289.192 667.067H302.992V666.953H289.198L289.192 667.067Z" fill="#1D1D1B"/>
</g>
<g opacity="0.4">
<path d="M227.516 725.05H209.934V721.159H227.504L227.516 725.05ZM211.833 723.144H225.626V723.03H211.839L211.833 723.144Z" fill="#1D1D1B"/>
</g>
<g opacity="0.4">
<path d="M336.309 668.957H318.739V665.066H336.309V668.957ZM320.626 667.067H334.435V666.953H320.638L320.626 667.067Z" fill="#1D1D1B"/>
</g>
<g opacity="0.4">
<path d="M258.641 643.683H241.075V639.792H258.641V643.683ZM242.964 641.796H256.758V641.682H242.964V641.796Z" fill="#1D1D1B"/>
</g>
<g opacity="0.4">
<path d="M289.77 643.683H272.203V639.792H289.77V643.683ZM274.09 641.796H287.884V641.682H274.09V641.796Z" fill="#1D1D1B"/>
</g>
<g opacity="0.4">
<path d="M319.974 643.683H302.404V639.792H319.974V643.683ZM304.291 641.796H318.088V641.682H304.291V641.796Z" fill="#1D1D1B"/>
</g>
<g opacity="0.4">
<path d="M351.411 643.683H333.841V639.792H351.411V643.683ZM335.728 641.796H349.524V641.682H335.728V641.796Z" fill="#1D1D1B"/>
</g>
<g opacity="0.4">
<path d="M365.44 668.957H347.87V665.066H365.44V668.957ZM349.756 667.067H363.55V666.953H349.756V667.067Z" fill="#1D1D1B"/>
</g>
<g opacity="0.4">
<path d="M365.44 709.329H347.87V705.444H365.44V709.329ZM349.756 707.442H363.55V707.328H349.756V707.442Z" fill="#1D1D1B"/>
</g>
<g opacity="0.4">
<path d="M274.668 627.964H257.101V624.076H274.668V627.964ZM258.988 626.077H272.781V625.963H258.988V626.077Z" fill="#1D1D1B"/>
</g>
<g opacity="0.4">
<path d="M304.872 627.964H287.302V624.076H304.872V627.964ZM289.192 626.077H302.992V625.963H289.198L289.192 626.077Z" fill="#1D1D1B"/>
</g>
<g opacity="0.4">
<path d="M336.309 627.964H318.739V624.076H336.309V627.964ZM320.626 626.077H334.435V625.963H320.638L320.626 626.077Z" fill="#1D1D1B"/>
</g>
<g opacity="0.4">
<path d="M258.641 725.05H241.075V721.159H258.641V725.05ZM242.961 723.144H256.755V723.03H242.964L242.961 723.144Z" fill="#1D1D1B"/>
</g>
<g opacity="0.4">
<path d="M289.77 725.05H272.203V721.159H289.77V725.05ZM274.09 723.144H287.884V723.03H274.09V723.144Z" fill="#1D1D1B"/>
</g>
<g opacity="0.4">
<path d="M319.974 725.05H302.404V721.159H319.974V725.05ZM304.291 723.144H318.088V723.03H304.291V723.144Z" fill="#1D1D1B"/>
</g>
<g opacity="0.4">
<path d="M351.411 725.05H333.841V721.159H351.411V725.05ZM335.728 723.144H349.524V723.03H335.728V723.144Z" fill="#1D1D1B"/>
</g>
<g opacity="0.4">
<path d="M212.106 762.34H194.536V758.449H212.106V762.34ZM196.423 760.453H210.219V760.336H196.423V760.453Z" fill="#1D1D1B"/>
</g>
<g opacity="0.4">
<path d="M243.235 762.34H225.665V758.449H243.235V762.34ZM227.551 760.453H241.345V760.336H227.551V760.453Z" fill="#1D1D1B"/>
</g>
<g opacity="0.4">
<path d="M274.36 762.34H256.793V758.449H274.36V762.34ZM258.68 760.453H272.473V760.336H258.68V760.453Z" fill="#1D1D1B"/>
</g>
<g opacity="0.4">
<path d="M304.58 762.34H287.01V758.449H304.58V762.34ZM288.897 760.453H302.674V760.336H288.878L288.897 760.453Z" fill="#1D1D1B"/>
</g>
<g opacity="0.4">
<path d="M336.001 762.34H318.431V758.449H336.001V762.34ZM320.317 760.453H334.117V760.336H320.321L320.317 760.453Z" fill="#1D1D1B"/>
</g>
<g opacity="0.4">
<path d="M227.516 771.894H209.934V768.013H227.504L227.516 771.894ZM211.833 770.007H225.626V769.89H211.839L211.833 770.007Z" fill="#1D1D1B"/>
</g>
<g opacity="0.4">
<path d="M258.641 771.894H241.075V768.013H258.641V771.894ZM242.961 770.007H256.755V769.89H242.964L242.961 770.007Z" fill="#1D1D1B"/>
</g>
<g opacity="0.4">
<path d="M289.77 771.894H272.203V768.013H289.77V771.894ZM274.09 770.007H287.884V769.89H274.09V770.007Z" fill="#1D1D1B"/>
</g>
<g opacity="0.4">
<path d="M319.974 771.894H302.404V768.013H319.974V771.894ZM304.291 770.007H318.088V769.89H304.291V770.007Z" fill="#1D1D1B"/>
</g>
<g opacity="0.4">
<path d="M351.411 771.894H333.841V768.013H351.411V771.894ZM335.728 770.007H349.524V769.89H335.728V770.007Z" fill="#1D1D1B"/>
</g>
<g opacity="0.4">
<path d="M72.4896 771.894H54.9197V768.013H72.4896V771.894ZM56.8094 770.007H70.603V769.89H56.8094V770.007Z" fill="#1D1D1B"/>
</g>
<g opacity="0.4">
<path d="M103.618 771.894H86.0482V768.013H103.618V771.894ZM87.938 770.007H101.732V769.89H87.938V770.007Z" fill="#1D1D1B"/>
</g>
<g opacity="0.4">
<path d="M134.747 771.894H117.193V768.013H134.763L134.747 771.894ZM119.063 770.007H132.86V769.89H119.063V770.007Z" fill="#1D1D1B"/>
</g>
<g opacity="0.4">
<path d="M164.951 771.894H147.381V768.013H164.951V771.894ZM149.268 770.007H163.064V769.89H149.271L149.268 770.007Z" fill="#1D1D1B"/>
</g>
<g opacity="0.4">
<path d="M196.388 771.894H178.808V768.013H196.378L196.388 771.894ZM180.704 770.007H194.501V769.89H180.714L180.704 770.007Z" fill="#1D1D1B"/>
</g>
<g opacity="0.4">
<path d="M56.4633 762.648H38.8965V758.757H56.4633V762.648ZM40.7831 760.761H54.5767V760.643H40.7831V760.761Z" fill="#1D1D1B"/>
</g>
<g opacity="0.4">
<path d="M87.5918 762.648H70.0219V758.757H87.5918V762.648ZM71.9116 760.761H85.7053V760.643H71.9116V760.761Z" fill="#1D1D1B"/>
</g>
<g opacity="0.4">
<path d="M118.72 762.648H101.15V758.757H118.72V762.648ZM103.04 760.761H116.834V760.643H103.04V760.761Z" fill="#1D1D1B"/>
</g>
<g opacity="0.4">
<path d="M148.925 762.648H131.355V758.757H148.925V762.648ZM133.241 760.761H147.048V760.643H133.251L133.241 760.761Z" fill="#1D1D1B"/>
</g>
<g opacity="0.4">
<path d="M180.361 762.648H162.791V758.757H180.361V762.648ZM164.678 760.761H178.49V760.643H164.694L164.678 760.761Z" fill="#1D1D1B"/>
</g>
<g opacity="0.4">
<path d="M243.543 709.329H225.973V705.444H243.543V709.329ZM227.859 707.442H241.653V707.328H227.859V707.442Z" fill="#1D1D1B"/>
</g>
<g opacity="0.4">
<path d="M41.3642 725.05H24.7947V721.159H41.3642V725.05ZM26.6813 723.144H39.4744V723.03H26.6749L26.6813 723.144Z" fill="#1D1D1B"/>
</g>
<g opacity="0.4">
<path d="M57.3907 709.329H39.8208V705.444H57.3907V709.329ZM41.7074 707.442H55.501V707.328H41.7074V707.442Z" fill="#1D1D1B"/>
</g>
<g opacity="0.4">
<path d="M72.4896 725.05H54.9197V721.159H72.4896V725.05ZM56.8094 723.144H70.603V723.03H56.8094V723.144Z" fill="#1D1D1B"/>
</g>
<g opacity="0.4">
<path d="M88.516 709.329H70.9492V705.444H88.516V709.329ZM72.8359 707.442H86.6294V707.328H72.8359V707.442Z" fill="#1D1D1B"/>
</g>
<g opacity="0.4">
<path d="M274.668 709.329H257.101V705.444H274.668V709.329ZM258.988 707.442H272.781V707.328H258.988V707.442Z" fill="#1D1D1B"/>
</g>
<g opacity="0.4">
<path d="M304.872 709.329H287.302V705.444H304.872V709.329ZM289.192 707.442H302.992V707.328H289.198L289.192 707.442Z" fill="#1D1D1B"/>
</g>
<g opacity="0.15">
<path d="M54.3067 778.461H35.0471C31.7408 778.461 28.1646 776.489 24.42 772.595L24.0166 772.173C23.0416 771.537 22.4699 770.55 21.8188 769.413C20.8619 767.639 19.6673 766.004 18.268 764.553L18.1473 764.404C9.23211 750.337 3.50566 730.668 4.8269 718.65C7.1073 697.932 25.2394 684.24 26.0112 683.666L26.1319 683.589C26.3511 683.472 26.5766 683.361 26.8052 683.249L27.2848 683.018L27.7294 683.307C28.2027 683.624 31.0421 684.803 33.5448 685.847C38.5058 687.928 41.8216 689.341 42.6601 689.976L44.1782 691.161L42.3139 691.637C42.063 691.701 41.6374 691.764 40.837 691.879C38.7377 692.177 34.8248 692.739 32.3665 693.823C22.9717 697.951 16.7213 708.944 16.0543 722.512C15.2634 738.627 24.7567 754.638 33.9069 764.245C41.1356 771.839 48.955 776.556 54.3067 776.556V778.461ZM26.8783 772.373C29.8098 775.126 32.6142 776.575 35.0471 776.575H46.9732C42.4283 774.466 37.3942 770.664 32.5412 765.563C20.3419 752.751 13.4848 736.633 14.1709 722.439C14.8696 708.147 21.552 696.532 31.6074 692.111C33.7576 691.158 36.7876 690.602 39.0394 690.256C37.2418 689.449 34.8089 688.43 32.8143 687.594C30.0511 686.435 28.136 685.628 27.1991 685.161L27.0815 685.222C26.0017 686.048 8.83827 699.454 6.70396 718.856C5.43353 730.477 11.0075 749.572 19.6909 763.321C21.1702 764.867 22.437 766.604 23.4577 768.485C24.5375 770.372 24.9028 771.007 26.8783 771.007V772.373Z" fill="#1D1D1B"/>
</g>
<g opacity="0.15">
<path d="M145.158 778.309C136.1 778.309 126.838 775.543 117.568 770.051L109.888 765.522L118.349 768.355C124.325 770.413 130.665 771.202 136.964 770.67C171.43 767.539 196.937 742.654 205.611 729.938C209.521 724.221 214.822 715.467 220.951 705.355C239.563 674.658 267.693 628.269 293.902 605.465L293.985 605.401C303.338 598.944 311.135 594.536 317.834 591.922L317.999 591.874C318.263 591.824 318.529 591.776 318.793 591.731C325.707 590.617 331.847 592.497 337.017 597.328L339.015 599.195L336.29 598.957C334.562 598.817 332.823 598.89 331.113 599.173C299.886 604.213 259.016 671.628 234.586 711.907C228.437 722.045 223.127 730.801 219.192 736.576C210.346 749.55 184.322 774.93 149.157 778.128C147.829 778.249 146.496 778.309 145.158 778.309ZM125.708 772.141C133.575 775.571 141.375 776.956 148.985 776.27C183.452 773.135 208.959 748.254 217.632 735.537C221.542 729.82 226.843 721.067 232.973 710.951C245.175 690.828 261.875 663.266 279.13 640.725C299.714 613.818 316.608 599.624 330.811 597.331C331.767 597.176 332.731 597.079 333.698 597.039C329.43 593.891 324.526 592.741 319.088 593.618C318.872 593.653 318.653 593.694 318.437 593.736C311.907 596.295 304.272 600.618 295.096 606.945C269.123 629.568 241.103 675.773 222.562 706.355C216.416 716.493 211.106 725.247 207.167 731.021C198.322 743.995 172.297 769.375 137.132 772.573C133.321 772.912 129.482 772.767 125.708 772.141Z" fill="#1D1D1B"/>
</g>
<g opacity="0.4">
<path d="M336.309 709.329H318.739V705.444H336.309V709.329ZM320.626 707.442H334.435V707.328H320.638L320.626 707.442Z" fill="#1D1D1B"/>
</g>
<path d="M40.4558 778.366H30.4385C26.856 778.366 22.9748 776.064 18.9063 771.522C8.6 760.021 -1.57928 734.927 0.221541 718.555C2.50195 697.841 20.6309 684.146 21.4027 683.571L21.5234 683.494C32.5379 677.638 56.46 679.048 84.1711 680.687C112.517 682.361 144.646 684.257 172.033 679.229C189.911 675.945 216.59 654.052 242.393 632.881C270.501 609.816 299.562 585.967 318.555 584.986C346.015 583.569 356.785 588.902 369.765 654.268C376.489 688.112 373.18 713.324 369.222 728.512C364.919 745.027 359.087 753.403 358.843 753.752L358.57 754.139L337.449 754.654L338.265 753.209C338.402 752.961 352.24 728.118 354.958 702.922C355.911 694.029 356.546 673.229 354.352 652.286C352.478 634.389 347.914 610.842 336.817 600.313C332.053 595.807 326.418 594.041 320.041 595.073C288.814 600.113 247.944 667.528 223.514 707.804C217.365 717.945 212.055 726.701 208.117 732.476C199.271 745.45 173.25 770.83 138.081 774.025C122.35 775.448 106.638 768.743 90.0277 753.504C76.1166 740.736 64.5748 724.748 55.3039 711.898L54.4845 710.767C44.8229 697.39 36.003 691.076 30.3083 688.157C29.4309 687.702 28.4361 687.524 27.4555 687.647C26.4748 687.77 25.5547 688.188 24.8169 688.846C18.738 694.226 8.43485 705.327 7.752 719.216C6.79918 738.332 16.9626 758.135 26.7702 768.444C31.7026 773.625 36.562 776.477 40.4558 776.477V778.366ZM22.4762 685.117C21.3836 685.953 4.22974 699.378 2.0986 718.752C0.526454 733.025 9.37812 758.052 20.3133 770.252C23.9562 774.32 27.4594 776.47 30.4385 776.47H33.8687C31.1341 775.012 28.2598 772.742 25.4013 769.737C15.3173 759.145 4.90306 738.786 5.86858 719.117C6.58319 704.536 17.2643 693.004 23.5656 687.426C24.589 686.512 25.8665 685.931 27.2282 685.761C28.5899 685.591 29.9711 685.839 31.1881 686.474C37.067 689.497 46.1505 695.973 56.0312 709.659L56.8475 710.789C66.058 723.57 77.5522 739.469 91.3204 752.107C107.518 766.968 122.763 773.52 137.926 772.141C172.392 769.007 197.902 744.125 206.573 731.405C210.483 725.688 215.784 716.935 221.913 706.819C234.116 686.696 250.816 659.137 268.071 636.597C288.658 609.689 305.564 595.492 319.755 593.202C326.742 592.075 332.929 594.003 338.132 598.938C360.586 620.243 358.243 690.221 356.851 703.113C354.466 725.206 343.699 746.965 340.701 752.678L357.572 752.269C358.754 750.443 363.734 742.197 367.44 727.915C371.331 712.936 374.571 688.062 367.933 654.627C355.184 590.43 345.462 585.484 318.669 586.863C300.299 587.816 271.476 611.461 243.606 634.332C217.619 655.653 190.747 677.704 172.392 681.074C144.78 686.156 112.53 684.25 84.0758 682.561C56.6982 680.957 33.0525 679.559 22.4762 685.117Z" fill="#1D1D1B"/>
<path d="M41.5135 778.525H40.5607C35.9776 778.525 30.4735 775.396 25.0647 769.717C14.9013 759.03 4.38542 738.491 5.37317 718.64C6.10049 703.833 16.9054 692.158 23.2829 686.518C24.3961 685.523 25.7859 684.89 27.2673 684.705C28.7487 684.519 30.2515 684.789 31.5756 685.479C37.518 688.534 46.6873 695.067 56.6379 708.845L57.4541 709.976C66.6647 722.734 78.1207 738.608 91.8413 751.201C107.903 765.938 122.995 772.439 137.977 771.074C172.215 767.964 197.556 743.242 206.173 730.608C210.083 724.872 215.383 716.15 221.494 706.05C233.703 685.914 250.422 658.34 267.69 635.771C288.376 608.73 305.409 594.46 319.777 592.141C327.584 590.871 334.47 593.859 340.241 600.996C349.645 612.636 356 636.152 357.674 665.508C359.122 690.958 356.696 716.795 351.64 729.798L351.297 730.677L348.387 729.547L348.73 728.667C353.647 716.042 355.991 690.732 354.565 665.686C352.929 636.965 346.825 614.1 337.82 602.959C332.806 596.756 326.904 594.148 320.279 595.222C289.335 600.218 248.551 667.48 224.181 707.654C218.029 717.818 212.716 726.564 208.768 732.351C206.668 735.429 198.677 746.281 183.941 756.68C169.534 766.843 154.171 772.725 138.282 774.17C129.795 774.939 121.099 773.284 112.428 769.251C105.025 765.808 97.3962 760.504 89.7515 753.485C75.7959 740.676 64.2318 724.659 54.9419 711.789L54.1256 710.659C44.5371 697.383 35.8061 691.139 30.1686 688.239C29.402 687.841 28.5323 687.685 27.675 687.793C26.8178 687.9 26.0137 688.267 25.3696 688.842C19.3605 694.159 9.17174 705.117 8.51112 718.78C7.58053 737.712 17.6296 757.334 27.3578 767.551C32.1727 772.608 36.886 775.393 40.5956 775.393H41.5484L41.5135 778.525Z" fill="#1D1D1B"/>
<path d="M135.337 748.407C125.492 748.407 115.011 745.475 104.237 739.695C94.2233 734.327 83.8694 726.489 73.4583 716.398C55.99 699.479 44.0956 681.541 43.6033 680.785L42.6505 679.366L46.2775 679.273L46.5666 679.712C46.6809 679.886 58.102 697.18 75.637 714.172C91.5903 729.633 115.697 747.52 139.971 745.053C156.757 743.328 177.534 730.16 201.73 705.917C222.438 685.168 241.878 660.227 256.069 642.015C267.658 627.148 275.062 618.147 278.619 616.14L279.441 615.673L280.445 617.448L279.622 617.915C277.399 619.186 272.572 625.538 266.458 633.595C264.082 636.727 261.376 640.265 258.537 643.933C229.361 681.37 180.526 744.024 140.295 748.156C138.648 748.324 136.993 748.408 135.337 748.407Z" fill="#1D1D1B"/>
<path d="M134.343 726.619C125.015 726.619 115.455 724.777 105.927 721.144C96.7166 717.625 87.4489 712.419 78.4098 705.673C63.079 694.239 52.5345 680.935 52.4297 680.801L51.2006 679.242L55.1833 679.309L55.4597 679.667C55.5549 679.788 65.1307 692.016 80.2329 703.281C94.0455 713.588 115.63 725.447 140.016 723.373C178.786 720.095 225.395 667.938 253.242 636.775C265.677 622.861 272.407 616.257 275.751 614.698L276.605 614.298L277.463 616.143L276.608 616.54C274.106 617.709 268.468 624.096 261.332 632.179C259.49 634.269 257.52 636.483 255.485 638.776C227.338 670.273 180.231 722.989 140.27 726.371C138.31 726.537 136.316 726.619 134.343 726.619Z" fill="#1D1D1B"/>
<path d="M132.215 707.937C110.809 707.937 94.9825 701.474 85.4734 696.056C73.4965 689.23 67.0523 681.389 66.9792 681.309L65.6421 679.667L69.5455 679.861L69.8123 680.179C69.8662 680.242 75.453 686.975 86.963 693.518C97.66 699.607 115.547 706.489 140.028 704.704C178.859 701.865 224.223 657.915 251.327 631.655C263.447 619.904 270.031 614.336 273.337 613.002L274.214 612.649L274.951 614.479L274.074 614.831C271.622 615.819 266.312 621.05 259.585 627.669C257.635 629.575 255.558 631.636 253.366 633.758C225.976 660.293 180.133 704.707 140.245 707.623C137.564 707.839 134.861 707.937 132.215 707.937Z" fill="#1D1D1B"/>
<path d="M132.466 695.153C112.775 695.153 101.154 692.142 94.8745 689.617C86.5945 686.289 84.0759 682.331 83.9616 682.163L83.0088 680.616L86.6675 680.832L86.9248 681.248C86.9248 681.248 88.8527 684.072 96.1354 686.965C103.202 689.776 116.567 692.943 140.095 692.082C157.154 691.447 177.341 683.408 200.097 668.147C219.522 655.125 237.279 639.331 250.247 627.811C260.538 618.661 267.166 613.093 270.596 611.712L270.968 611.562L273.563 612.719L271.495 613.551C269.294 614.437 264.908 618.442 259.359 623.514C257.215 625.47 254.786 627.69 252.194 629.996C239.172 641.586 221.316 657.45 201.727 670.586C178.186 686.374 158.062 694.365 140.203 695.017C137.561 695.105 134.96 695.153 132.466 695.153Z" fill="#1D1D1B"/>
<g opacity="0.15">
<path d="M357.598 764.035H200.431V752.602H357.598V764.035ZM202.311 762.149H355.714V754.498H202.311V762.149Z" fill="#1D1D1B"/>
</g>
<g opacity="0.15">
<path d="M340.041 754.59L343.417 752.729C343.417 752.729 343.922 752.447 344.738 751.891C348.881 749.051 352.191 745.158 354.327 740.613L361.425 725.282C361.498 725.126 367.99 711.012 364.509 661.608C362.025 626.354 347.022 598.646 339.437 588.931L336.604 585.307L340.635 587.53C352.901 594.282 362.146 616.854 370.617 660.725C376.276 690.056 372.795 713.765 368.876 728.467C364.623 744.446 359.104 753.345 358.872 753.717L358.602 754.146L340.041 754.59ZM344.414 592.748C352.523 605.382 364.217 630.581 366.393 661.475C369.921 711.593 363.407 725.523 363.128 726.092L356.032 741.41C353.977 745.778 350.905 749.59 347.073 752.526L357.525 752.272C359.964 748.051 378.821 713.206 368.759 661.071C361.559 623.762 353.907 602.133 344.414 592.748Z" fill="#1D1D1B"/>
</g>
<path d="M334.152 745.081H205.84V742.579H334.028C335.385 742.379 352.132 739.657 355.911 727.134C362.721 704.514 363.328 677.762 357.817 642.936C354.031 619.011 340.234 594.705 336.22 593.047L335.346 592.688L336.131 590.782L337.004 591.144C341.838 593.139 356.204 616.712 360.288 642.539C365.859 677.749 365.227 704.857 358.306 727.848C353.926 742.398 334.486 745.04 334.273 745.066L334.152 745.081Z" fill="#1D1D1B"/>
<g style="mix-blend-mode:darken" opacity="0.29">
<path d="M41.5135 778.525H40.5607C40.1766 778.524 39.7929 778.503 39.411 778.462H35.0312C34.606 778.461 34.1813 778.429 33.7608 778.366H30.4164C16.8038 778.366 0.164436 744.182 0.00245747 722.712C-0.0134914 721.324 0.0522591 719.936 0.199371 718.555C2.47978 697.841 20.6087 684.145 21.3805 683.571L21.5012 683.494C26.2653 680.953 33.5225 679.635 44.337 679.321L45.7377 679.286C48.0213 679.242 50.5018 679.238 53.1601 679.286L54.7005 679.311C58.4609 679.388 62.7232 679.54 67.7223 679.785L69.0881 679.851C73.9506 680.099 78.9338 680.391 84.2156 680.703L86.1403 680.817C112.203 682.354 144.64 684.263 171.999 679.229C189.877 675.945 216.556 654.052 242.358 632.881C270.466 609.816 299.527 585.967 318.52 584.986C328.388 584.478 335.762 584.843 342.022 588.228C348.692 591.84 353.694 598.665 358.22 610.362L358.722 611.633H358.246C358.354 611.82 358.462 612.014 358.563 612.214H358.922L359.148 612.849C360.736 617.239 362.276 622.273 363.82 628.129L365.22 628.002C365.932 631.979 366.567 636.616 367.11 641.79C367.958 645.617 368.838 649.815 369.721 654.268C376.445 688.112 373.135 713.324 369.178 728.512C364.874 745.027 359.043 753.402 358.798 753.752L358.525 754.139L357.553 754.165V778.366L54.2558 778.395V778.462H41.469L41.5135 778.525ZM22.4762 685.117C21.3869 685.953 4.22978 699.378 2.09865 718.752C1.95786 720.06 1.8953 721.375 1.91127 722.69C1.9875 732.599 5.78923 745.955 11.8333 757.541C17.9249 769.216 25.052 776.47 30.4386 776.47H34.0021C34.3455 776.526 34.6928 776.555 35.0407 776.556H39.5761H39.6269H52.8902V776.461H355.714V752.323L357.563 752.278C358.741 750.452 363.724 742.207 367.431 727.924C371.322 712.946 374.561 688.071 367.923 654.637C367.037 650.19 366.154 645.976 365.306 642.145L365.287 642.037C365.268 641.831 365.246 641.621 365.224 641.402L363.426 634.037C361.498 626.138 359.615 619.608 357.649 614.101H357.452L357.191 613.577C356.798 612.762 356.332 611.984 355.8 611.252L354.682 609.746H356C347.177 587.866 337.262 585.894 318.659 586.86C300.289 587.812 271.466 611.458 243.596 634.329C217.61 655.65 190.737 677.701 172.383 681.071C144.799 686.134 112.235 684.215 86.0704 682.659L84.1648 682.548C78.8894 682.23 73.9061 681.941 69.0499 681.697L67.6842 681.627C62.6851 681.385 58.4419 681.233 54.71 681.16L53.2046 681.131C50.5113 681.096 48.1038 681.1 45.8234 681.131L44.4291 681.163C34.0943 681.506 26.9164 682.789 22.4762 685.117Z" fill="#1D1D1B"/>
</g>
</g>
<path d="M440.909 442.353C440.909 442.385 441.42 442.178 442.36 441.968C443.692 441.679 445.065 441.626 446.416 441.813C448.42 442.076 450.312 442.892 451.879 444.169C453.8 445.734 455.156 447.885 455.738 450.293C455.744 450.315 455.749 450.337 455.754 450.36L455.868 450.798L456.036 450.382C456.975 448.099 458.585 446.155 460.654 444.808C462.342 443.71 464.283 443.062 466.292 442.928C467.646 442.83 469.008 442.955 470.322 443.296C471.253 443.541 471.742 443.757 471.755 443.731C471.644 443.662 471.525 443.604 471.402 443.56C471.06 443.413 470.709 443.288 470.351 443.185C469.03 442.797 467.653 442.641 466.279 442.721C464.225 442.827 462.235 443.468 460.505 444.579C458.377 445.946 456.721 447.934 455.76 450.274L456.039 450.296L456.02 450.226C455.424 447.755 454.027 445.551 452.047 443.957C450.437 442.662 448.494 441.848 446.441 441.606C445.068 441.435 443.674 441.52 442.332 441.857C441.968 441.944 441.611 442.058 441.264 442.197C441.142 442.239 441.022 442.291 440.909 442.353Z" fill="#9C9B9B"/>
<path d="M400.367 420.108C400.367 420.133 400.653 420.029 401.173 419.921C401.905 419.772 402.657 419.75 403.397 419.857C404.488 420.008 405.516 420.456 406.37 421.153C407.411 422.008 408.147 423.178 408.466 424.488V424.526L408.577 424.964L408.745 424.548C409.257 423.305 410.133 422.245 411.257 421.509C412.176 420.907 413.233 420.55 414.329 420.47C415.068 420.411 415.813 420.472 416.533 420.651C417.047 420.778 417.321 420.889 417.33 420.864C417.34 420.839 417.27 420.819 417.143 420.759C416.955 420.673 416.762 420.599 416.565 420.54C415.838 420.315 415.076 420.221 414.316 420.264C413.176 420.316 412.07 420.667 411.108 421.28C409.925 422.036 409.005 423.138 408.472 424.437L408.752 424.462V424.421C408.418 423.047 407.636 421.823 406.528 420.943C405.778 420.348 404.9 419.936 403.963 419.739C403.025 419.542 402.055 419.566 401.129 419.81C400.93 419.86 400.734 419.926 400.545 420.006C400.43 420.064 400.364 420.099 400.367 420.108Z" fill="#9C9B9B"/>
<path d="M426.874 411.002C426.855 411.021 427.15 411.32 427.652 411.885C428.358 412.687 428.996 413.546 429.558 414.454C431.425 417.453 432.405 420.92 432.384 424.453V424.58L432.68 424.602C432.968 422.704 433.586 420.872 434.506 419.187C435.771 416.879 437.549 414.893 439.702 413.381C440.318 412.955 440.674 412.746 440.655 412.72C440.558 412.751 440.466 412.795 440.382 412.85C440.21 412.949 439.947 413.076 439.632 413.289C438.733 413.863 437.896 414.531 437.136 415.28C434.589 417.779 432.918 421.035 432.372 424.561L432.664 424.586V424.456C432.689 420.87 431.666 417.355 429.72 414.343C429.138 413.434 428.47 412.583 427.725 411.802C427.468 411.52 427.239 411.329 427.09 411.193C427.026 411.121 426.953 411.057 426.874 411.002Z" fill="#9C9B9B"/>
<path opacity="0.03" d="M235.568 534.43C235.568 534.43 233.106 526.696 242.237 522.827C251.368 518.959 266.144 524.587 265.442 528.452C264.74 532.318 257.708 536.189 262.628 536.539C267.547 536.888 270.714 529.507 280.909 533.023C291.104 536.539 279.153 541.109 281.614 541.109C284.076 541.109 290.755 539.352 296.729 541.109C302.703 542.865 296.729 546.032 274.23 547.779C251.731 549.525 257.003 544.968 248.567 544.266C240.132 543.564 241.183 547.442 223.254 544.266C205.325 541.09 211.661 530.212 235.568 534.43Z" fill="black"/>
<path opacity="0.02" d="M459.359 334.275C459.359 334.275 465.517 314.926 442.65 305.252C419.782 295.578 382.841 309.648 384.617 319.325C386.392 329.002 403.965 338.674 391.652 339.553C379.338 340.433 371.423 321.961 345.916 330.756C320.41 339.55 350.315 350.997 344.144 350.997C337.973 350.997 321.277 346.598 306.324 350.997C291.371 355.395 306.324 363.31 362.613 367.706C418.902 372.102 405.709 360.671 426.817 358.911C447.925 357.152 445.289 366.826 490.141 358.911C534.993 350.997 519.167 323.721 459.359 334.275Z" fill="black"/>
<path d="M0.00012207 837H793" stroke="#515151" stroke-width="3.60165" stroke-miterlimit="10"/>
<path d="M0.00012207 776H793" stroke="#515151" stroke-width="3.60165" stroke-miterlimit="10"/>
<g opacity="0.15">
<path d="M0 807L792 807" stroke="#263239" stroke-width="3.60165" stroke-miterlimit="10" stroke-dasharray="43.9 43.9"/>
</g>
<path d="M253.353 762.175H547.383" stroke="#1E2E34" stroke-width="0.6765" stroke-linecap="round" stroke-linejoin="round"/>
<path d="M523.41 581.223H256.802C259.467 568.604 270.618 562.944 270.618 562.944H509.582C509.582 562.944 520.733 568.604 523.41 581.223Z" fill="#E33443"/>
<path d="M348.857 562.944C347.184 566.038 344.249 572.352 342.588 581.223H335.756C336.8 574.911 338.674 568.765 341.327 562.944H348.857Z" fill="#232323"/>
<path d="M444.444 581.223H437.622C435.951 572.304 433.029 566.019 431.355 562.944H438.873C441.528 568.765 443.401 574.911 444.444 581.223Z" fill="#232323"/>
<path opacity="0.1" d="M523.41 581.223H256.802C257.259 579.058 257.997 576.962 258.997 574.988L519.894 572.686C521.572 575.296 522.764 578.188 523.41 581.223Z" fill="black"/>
<path d="M261.833 581.226H253.353V774.403H261.833V581.226Z" fill="#232323"/>
<path d="M283.97 597.693H275.49V762.175H283.97V597.693Z" fill="#232323"/>
<path d="M347.097 597.693H340.453V762.175H347.097V597.693Z" fill="#232323"/>
<path d="M439.746 597.693H433.102V762.175H439.746V597.693Z" fill="#232323"/>
<path d="M518.367 774.399H526.847V581.222H518.367V774.399Z" fill="#232323"/>
<path d="M496.232 762.175H504.712V597.693H496.232V762.175Z" fill="#232323"/>
<path d="M528.069 577.554H252.131L249.685 582.537L274.268 599.621L276.713 600.348H503.484L505.929 599.621L530.512 582.537L528.069 577.554ZM502.086 594.644H278.114L261.735 583.261H518.465L502.086 594.644Z" fill="#232323"/>
<path d="M518.465 583.262L502.086 594.645H278.114L261.735 583.262H518.465Z" fill="#A63443"/>
<path d="M341.39 599.5L336.112 579.358L342.102 578.408L347.38 598.551L341.39 599.5Z" fill="#232323"/>
<path d="M438.809 599.5L432.819 598.551L438.098 578.408L444.088 579.358L438.809 599.5Z" fill="#232323"/>
<path opacity="0.7" d="M500.511 725.562L518.37 737.244V628.127L500.511 633.018V725.562Z" fill="#DCDCDC"/>
<path opacity="0.7" d="M279.594 725.562L261.735 737.244V628.127L279.594 633.018V725.562Z" fill="#DCDCDC"/>
<path d="M433.102 669.409H283.971V681.551H433.102V669.409Z" fill="#A63443"/>
<path opacity="0.2" d="M433.102 669.409H283.971V681.551H433.102V669.409Z" fill="#A63443"/>
<path d="M433.102 687.262H283.971V699.404H433.102V687.262Z" fill="#A63443"/>
<path opacity="0.2" d="M433.102 687.262H283.971V699.404H433.102V687.262Z" fill="#A63443"/>
<path d="M451.444 717.177H265.629L283.97 705.035H433.102L451.444 717.177Z" fill="#A63443"/>
<path opacity="0.2" d="M451.444 717.177H265.629L283.97 705.035H433.102L451.444 717.177Z" fill="#A63443"/>
<path d="M451.441 717.177H265.629V721.045H451.441V717.177Z" fill="#E33443"/>
<path d="M545.677 402.719H540.919V762.175H545.677V402.719Z" fill="#3C3C3B"/>
<path d="M571.826 405.765V472.433H514.771V405.765H543.302H571.826Z" fill="#E33443"/>
<path d="M567.938 409.478V468.717H518.659V409.478H543.302H567.938Z" stroke="#1D1D1B" stroke-width="0.317606" stroke-miterlimit="10"/>
<path d="M544.623 411.796C544.623 412.058 544.546 412.314 544.4 412.532C544.254 412.75 544.048 412.919 543.806 413.02C543.564 413.12 543.297 413.146 543.04 413.095C542.783 413.044 542.548 412.918 542.362 412.733C542.177 412.547 542.051 412.311 542 412.054C541.949 411.798 541.975 411.531 542.075 411.289C542.175 411.047 542.345 410.84 542.563 410.695C542.781 410.549 543.037 410.472 543.299 410.472C543.473 410.472 543.645 410.506 543.806 410.572C543.966 410.639 544.112 410.737 544.235 410.86C544.358 410.983 544.456 411.129 544.522 411.289C544.589 411.45 544.623 411.622 544.623 411.796Z" fill="#DCDCDC"/>
<path d="M544.623 466.402C544.623 466.664 544.546 466.92 544.4 467.137C544.254 467.355 544.048 467.525 543.806 467.625C543.564 467.725 543.297 467.752 543.04 467.701C542.783 467.649 542.548 467.523 542.362 467.338C542.177 467.153 542.051 466.917 542 466.66C541.949 466.403 541.975 466.137 542.075 465.895C542.175 465.653 542.345 465.446 542.563 465.3C542.781 465.155 543.037 465.077 543.299 465.077C543.65 465.077 543.987 465.217 544.235 465.465C544.484 465.713 544.623 466.05 544.623 466.402Z" fill="#DCDCDC"/>
<path d="M530.397 458.735C530.401 458.921 530.359 459.105 530.276 459.271C530.192 459.437 530.069 459.58 529.918 459.688C529.76 459.801 529.584 459.886 529.397 459.939C529.19 459.997 528.977 460.026 528.762 460.024H526.319V454.978H529.025C529.192 454.975 529.357 455.014 529.505 455.092C529.644 455.165 529.767 455.266 529.867 455.387C529.969 455.51 530.047 455.65 530.099 455.8C530.152 455.95 530.18 456.108 530.181 456.267C530.183 456.511 530.119 456.751 529.997 456.963C529.874 457.179 529.683 457.348 529.454 457.445C529.728 457.519 529.97 457.679 530.143 457.903C530.318 458.144 530.408 458.437 530.397 458.735ZM527.317 455.807V457.077H528.628C528.707 457.079 528.786 457.064 528.859 457.035C528.932 457.005 528.998 456.961 529.054 456.906C529.113 456.843 529.16 456.769 529.19 456.688C529.22 456.608 529.233 456.522 529.229 456.435C529.234 456.351 529.222 456.267 529.194 456.187C529.166 456.108 529.123 456.034 529.067 455.972C529.017 455.916 528.956 455.873 528.888 455.843C528.821 455.813 528.747 455.799 528.673 455.8L527.317 455.807ZM529.419 458.538C529.419 458.449 529.404 458.361 529.375 458.278C529.346 458.198 529.304 458.124 529.251 458.058C529.199 457.998 529.135 457.948 529.063 457.912C528.99 457.876 528.91 457.858 528.828 457.858H527.317V459.192H528.778C528.865 459.194 528.952 459.176 529.032 459.141C529.109 459.11 529.178 459.063 529.235 459.002C529.294 458.942 529.34 458.87 529.372 458.792C529.402 458.715 529.418 458.633 529.419 458.551V458.538Z" fill="#1D1D1B"/>
<path d="M533.32 459.204C533.513 459.213 533.705 459.17 533.876 459.079C534.046 458.989 534.19 458.854 534.292 458.69C534.394 458.53 534.465 458.352 534.501 458.166C534.541 457.966 534.561 457.763 534.562 457.559V454.977H535.537V457.559C535.539 457.888 535.497 458.216 535.413 458.534C535.338 458.824 535.204 459.096 535.019 459.331C534.836 459.564 534.601 459.75 534.333 459.875C534.016 460.015 533.672 460.083 533.326 460.075C532.971 460.085 532.619 460.013 532.297 459.865C532.029 459.735 531.794 459.544 531.611 459.309C531.43 459.07 531.299 458.797 531.227 458.506C531.148 458.194 531.109 457.874 531.109 457.553V454.971H532.094V457.553C532.093 457.76 532.113 457.966 532.154 458.169C532.191 458.355 532.261 458.532 532.36 458.693C532.458 458.842 532.588 458.967 532.742 459.058C532.918 459.158 533.117 459.208 533.32 459.204Z" fill="#1D1D1B"/>
<path d="M539.541 456.302C539.485 456.252 539.425 456.207 539.36 456.169C539.26 456.103 539.154 456.047 539.043 456C538.91 455.943 538.773 455.896 538.633 455.861C538.487 455.822 538.336 455.803 538.185 455.803C537.972 455.787 537.759 455.841 537.579 455.956C537.513 456.004 537.461 456.067 537.426 456.14C537.391 456.213 537.374 456.294 537.379 456.375C537.375 456.468 537.402 456.559 537.455 456.635C537.512 456.711 537.586 456.773 537.671 456.817C537.785 456.878 537.907 456.926 538.033 456.959C538.176 457.001 538.35 457.048 538.535 457.096C538.782 457.163 539.005 457.233 539.208 457.309C539.393 457.375 539.566 457.472 539.719 457.595C539.855 457.706 539.963 457.846 540.037 458.004C540.117 458.19 540.156 458.39 540.151 458.592C540.157 458.833 540.103 459.072 539.996 459.288C539.898 459.474 539.756 459.634 539.583 459.754C539.401 459.877 539.199 459.965 538.986 460.015C538.753 460.07 538.514 460.098 538.274 460.097C537.893 460.097 537.514 460.039 537.15 459.926C536.793 459.818 536.455 459.654 536.149 459.44L536.584 458.592C536.657 458.655 536.734 458.711 536.816 458.76C536.945 458.836 537.077 458.905 537.213 458.967C537.377 459.038 537.546 459.097 537.718 459.141C537.905 459.189 538.097 459.212 538.29 459.211C538.83 459.211 539.103 459.04 539.103 458.69C539.106 458.59 539.072 458.492 539.008 458.414C538.936 458.329 538.846 458.261 538.744 458.214C538.612 458.15 538.473 458.098 538.331 458.058L537.791 457.9C537.575 457.842 537.363 457.77 537.156 457.684C536.994 457.615 536.844 457.521 536.712 457.404C536.595 457.303 536.502 457.177 536.442 457.036C536.381 456.874 536.352 456.703 536.356 456.531C536.351 456.296 536.399 456.062 536.496 455.848C536.588 455.653 536.723 455.482 536.893 455.349C537.067 455.208 537.266 455.1 537.48 455.032C537.714 454.963 537.957 454.929 538.201 454.93C538.536 454.925 538.868 454.982 539.182 455.098C539.459 455.197 539.723 455.329 539.967 455.492L539.541 456.302Z" fill="#1D1D1B"/>
<path d="M545.624 456.302C545.566 456.254 545.506 456.209 545.443 456.169C545.341 456.104 545.235 456.048 545.125 456C544.991 455.943 544.853 455.897 544.712 455.861C544.566 455.822 544.415 455.803 544.264 455.803C544.051 455.788 543.838 455.841 543.658 455.956C543.593 456.004 543.541 456.067 543.507 456.141C543.472 456.214 543.456 456.294 543.461 456.375C543.456 456.467 543.482 456.559 543.534 456.635C543.591 456.711 543.665 456.773 543.75 456.817C543.864 456.878 543.986 456.926 544.112 456.959C544.258 457.001 544.43 457.048 544.614 457.096C544.861 457.163 545.087 457.233 545.287 457.309C545.473 457.375 545.647 457.472 545.802 457.595C545.936 457.706 546.045 457.846 546.119 458.004C546.201 458.189 546.24 458.39 546.234 458.592C546.24 458.833 546.188 459.072 546.081 459.288C545.981 459.474 545.839 459.634 545.665 459.754C545.484 459.877 545.281 459.965 545.068 460.015C544.836 460.07 544.598 460.098 544.36 460.097C543.977 460.097 543.597 460.039 543.232 459.926C542.875 459.819 542.539 459.655 542.235 459.44L542.67 458.592C542.741 458.656 542.819 458.713 542.902 458.76C543.029 458.836 543.161 458.905 543.296 458.967C543.46 459.039 543.63 459.097 543.804 459.141C543.99 459.189 544.181 459.212 544.372 459.211C544.915 459.211 545.185 459.04 545.185 458.69C545.188 458.59 545.155 458.493 545.093 458.414C545.02 458.33 544.931 458.262 544.83 458.214C544.696 458.15 544.557 458.098 544.414 458.058L543.874 457.9C543.657 457.842 543.445 457.77 543.238 457.684C543.076 457.615 542.926 457.521 542.794 457.404C542.679 457.302 542.588 457.177 542.527 457.036C542.463 456.875 542.433 456.703 542.438 456.531C542.435 456.295 542.483 456.062 542.581 455.848C542.672 455.653 542.807 455.483 542.975 455.349C543.149 455.208 543.349 455.1 543.562 455.032C543.797 454.963 544.039 454.929 544.283 454.93C544.619 454.925 544.953 454.982 545.268 455.098C545.544 455.198 545.808 455.33 546.052 455.492L545.624 456.302Z" fill="#1D1D1B"/>
<path d="M550.724 455.841H549.105V460.04H548.13V455.841H546.51V454.978H550.724V455.841Z" fill="#1D1D1B"/>
<path d="M553.265 460.075C552.917 460.079 552.573 460.004 552.258 459.855C551.963 459.717 551.699 459.522 551.48 459.281C551.263 459.039 551.093 458.759 550.978 458.455C550.859 458.151 550.799 457.828 550.8 457.502C550.798 457.17 550.862 456.841 550.988 456.533C551.111 456.23 551.287 455.951 551.509 455.711C551.732 455.473 552 455.281 552.296 455.145C552.607 455.004 552.946 454.933 553.287 454.936C553.633 454.931 553.976 455.007 554.288 455.158C554.582 455.303 554.845 455.503 555.063 455.749C555.277 455.992 555.446 456.272 555.561 456.575C555.679 456.878 555.74 457.202 555.739 457.527C555.74 457.854 555.677 458.177 555.555 458.48C555.435 458.781 555.261 459.057 555.04 459.293C554.818 459.531 554.551 459.723 554.256 459.859C553.945 460.002 553.607 460.076 553.265 460.075ZM551.798 457.508C551.797 457.724 551.83 457.938 551.896 458.144C551.959 458.339 552.057 458.522 552.185 458.684C552.313 458.84 552.47 458.968 552.649 459.061C552.846 459.161 553.064 459.21 553.284 459.204C553.505 459.21 553.723 459.16 553.919 459.058C554.099 458.963 554.257 458.831 554.383 458.671C554.511 458.508 554.608 458.323 554.669 458.125C554.8 457.718 554.8 457.28 554.669 456.873C554.602 456.676 554.503 456.493 554.373 456.33C554.248 456.174 554.091 456.048 553.913 455.958C553.718 455.864 553.504 455.816 553.287 455.816C553.071 455.816 552.857 455.864 552.662 455.958C552.481 456.052 552.323 456.183 552.198 456.343C552.073 456.506 551.977 456.69 551.915 456.886C551.848 457.087 551.813 457.297 551.81 457.508H551.798Z" fill="#1D1D1B"/>
<path d="M556.508 460.04V454.978H558.664C558.885 454.976 559.102 455.026 559.3 455.124C559.492 455.218 559.664 455.349 559.808 455.508C559.951 455.668 560.065 455.852 560.144 456.051C560.223 456.245 560.264 456.452 560.265 456.661C560.267 456.878 560.228 457.093 560.151 457.296C560.078 457.493 559.97 457.676 559.833 457.836C559.694 457.994 559.525 458.121 559.335 458.211C559.136 458.306 558.919 458.355 558.699 458.354H557.502V460.053L556.508 460.04ZM557.492 457.48H558.633C558.72 457.481 558.806 457.462 558.885 457.423C558.963 457.384 559.031 457.328 559.084 457.258C559.215 457.087 559.28 456.876 559.268 456.661C559.27 456.543 559.25 456.426 559.211 456.315C559.177 456.219 559.125 456.131 559.058 456.054C559 455.984 558.926 455.929 558.842 455.892C558.762 455.858 558.675 455.841 558.588 455.841H557.492V457.48Z" fill="#1D1D1B"/>
<path d="M547.383 709.087H539.22V762.175H547.383V709.087Z" fill="#232323"/>
<path d="M538.827 448.006H547.777L543.302 452.09L538.827 448.006Z" fill="white"/>
<path d="M555.962 418.215H530.645C529.409 418.215 528.406 419.217 528.406 420.454V445.77C528.406 447.007 529.409 448.009 530.645 448.009H555.962C557.198 448.009 558.201 447.007 558.201 445.77V420.454C558.201 419.217 557.198 418.215 555.962 418.215Z" fill="white"/>
<path d="M548.009 443.804H542.609C541.247 443.804 539.884 443.804 538.522 443.804H536.819C536.154 443.773 535.515 443.535 534.991 443.124C534.467 442.713 534.084 442.15 533.894 441.511C533.805 441.211 533.761 440.9 533.764 440.587C533.764 437.036 533.764 430.675 533.764 427.124C533.755 427.014 533.774 426.904 533.82 426.805C533.867 426.705 533.938 426.619 534.027 426.555C534.116 426.491 534.221 426.451 534.33 426.44C534.439 426.428 534.549 426.445 534.65 426.489C534.769 426.543 534.867 426.634 534.929 426.749C534.991 426.863 535.015 426.995 534.996 427.124C534.996 428.375 535.012 432.437 534.996 433.685C534.981 433.877 535.012 434.069 535.087 434.246C535.161 434.423 535.277 434.579 535.425 434.702C536.06 435.258 536.626 435.858 537.216 436.445C537.456 436.694 537.745 436.89 538.064 437.022C538.383 437.153 538.726 437.218 539.071 437.211C541.9 437.211 544.729 437.211 547.558 437.211C548.196 437.233 548.818 437.005 549.292 436.576C549.404 436.454 549.558 436.381 549.723 436.371C549.888 436.362 550.05 436.417 550.175 436.525C550.292 436.649 550.357 436.813 550.357 436.984C550.357 437.154 550.292 437.318 550.175 437.443C549.908 437.744 549.569 437.973 549.19 438.11C548.653 438.343 548.073 438.462 547.488 438.459C544.593 438.459 541.7 438.459 538.808 438.459C538.138 438.438 537.492 438.208 536.959 437.802C536.362 437.356 535.808 436.854 535.308 436.303C535.234 436.219 535.166 436.129 535.104 436.036L535.028 436.096C535.028 436.153 535.028 436.207 535.028 436.261C535.028 437.681 535.028 439.097 535.028 440.517C535.003 441.007 535.161 441.489 535.472 441.868C535.784 442.247 536.226 442.496 536.711 442.566C536.846 442.584 536.982 442.592 537.118 442.588H549.527C549.806 442.605 550.086 442.562 550.348 442.462C550.61 442.363 550.848 442.209 551.046 442.011C551.244 441.813 551.398 441.575 551.497 441.313C551.597 441.051 551.64 440.771 551.623 440.492C551.623 436.141 551.623 431.788 551.623 427.435C551.623 427.222 551.55 427.19 551.363 427.19C545.781 427.19 540.202 427.19 534.625 427.19H533.472C533.335 427.183 533.199 427.204 533.071 427.252C532.943 427.301 532.826 427.376 532.729 427.472C532.632 427.569 532.557 427.685 532.507 427.812C532.458 427.94 532.436 428.076 532.443 428.213C532.443 428.871 532.443 429.528 532.443 430.185C532.449 430.315 532.414 430.443 532.343 430.552C532.271 430.66 532.167 430.743 532.046 430.789C531.934 430.835 531.811 430.846 531.693 430.82C531.574 430.794 531.467 430.732 531.385 430.643C531.332 430.594 531.29 430.534 531.26 430.468C531.231 430.402 531.215 430.331 531.214 430.259C531.178 429.489 531.183 428.718 531.23 427.95C531.27 427.395 531.525 426.879 531.94 426.51C532.355 426.14 532.898 425.947 533.453 425.971C533.637 425.995 533.823 425.953 533.98 425.854C534.136 425.755 534.253 425.604 534.31 425.428C534.587 424.824 534.917 424.246 535.231 423.662C535.415 423.279 535.707 422.959 536.07 422.74C536.433 422.521 536.853 422.413 537.277 422.43H549.324C549.752 422.412 550.176 422.521 550.543 422.742C550.91 422.963 551.204 423.288 551.388 423.675C551.761 424.373 552.129 425.075 552.493 425.78C552.516 425.839 552.557 425.888 552.61 425.92C552.664 425.952 552.727 425.966 552.789 425.958C553.19 425.926 553.594 425.974 553.977 426.098C554.395 426.256 554.756 426.538 555.012 426.905C555.269 427.272 555.408 427.708 555.412 428.156C555.412 428.829 555.412 429.503 555.412 430.176C555.418 430.261 555.407 430.346 555.378 430.426C555.35 430.506 555.306 430.58 555.248 430.642C555.19 430.705 555.12 430.754 555.042 430.788C554.964 430.822 554.879 430.84 554.794 430.84C554.709 430.84 554.625 430.822 554.547 430.788C554.469 430.754 554.399 430.705 554.341 430.642C554.283 430.58 554.239 430.506 554.21 430.426C554.182 430.346 554.171 430.261 554.177 430.176C554.177 429.541 554.177 428.906 554.177 428.254C554.183 428.099 554.154 427.945 554.093 427.802C554.031 427.66 553.939 427.533 553.822 427.431C553.704 427.329 553.566 427.255 553.416 427.214C553.267 427.173 553.11 427.166 552.957 427.194C552.871 427.194 552.824 427.225 552.83 427.321C552.836 427.416 552.83 427.448 552.83 427.514C552.83 431.866 552.83 436.218 552.83 440.571C552.846 441.328 552.592 442.066 552.112 442.652C551.632 443.238 550.958 443.633 550.213 443.766L550.143 443.782L548.009 443.804ZM543.308 425.952H550.953C551.143 425.952 551.197 425.926 551.093 425.736C550.819 425.244 550.562 424.748 550.305 424.249C550.219 424.063 550.078 423.907 549.902 423.802C549.726 423.697 549.522 423.647 549.317 423.659H537.296C537.087 423.647 536.879 423.7 536.7 423.809C536.521 423.919 536.38 424.08 536.295 424.272C536.051 424.748 535.797 425.224 535.549 425.695C535.416 425.949 535.416 425.949 535.708 425.949L543.308 425.952Z" fill="#E33443"/>
<path d="M536.804 440.502C536.8 440.388 536.82 440.274 536.862 440.168C536.904 440.062 536.968 439.966 537.049 439.886C537.13 439.806 537.227 439.743 537.333 439.702C537.44 439.661 537.553 439.642 537.667 439.647C537.894 439.647 538.111 439.737 538.272 439.897C538.432 440.058 538.522 440.275 538.522 440.502C538.522 440.728 538.432 440.945 538.272 441.106C538.111 441.266 537.894 441.356 537.667 441.356C537.553 441.361 537.439 441.343 537.333 441.302C537.226 441.261 537.129 441.199 537.048 441.118C536.967 441.038 536.903 440.942 536.861 440.836C536.819 440.729 536.799 440.616 536.804 440.502Z" fill="#E33443"/>
<path d="M549.81 440.51C549.81 440.739 549.718 440.959 549.556 441.121C549.394 441.283 549.175 441.374 548.946 441.374C548.716 441.374 548.497 441.283 548.335 441.121C548.173 440.959 548.082 440.739 548.082 440.51C548.079 440.396 548.101 440.283 548.144 440.177C548.187 440.071 548.251 439.975 548.332 439.894C548.414 439.814 548.511 439.751 548.617 439.71C548.724 439.668 548.838 439.649 548.952 439.653C549.066 439.649 549.179 439.669 549.284 439.711C549.39 439.753 549.486 439.816 549.566 439.896C549.646 439.976 549.71 440.072 549.751 440.178C549.793 440.284 549.813 440.397 549.81 440.51Z" fill="#E33443"/>
<g opacity="0.03">
<path d="M745.779 294.687H723.935V249.744H745.779V294.687ZM726.517 292.208H743.197V252.232H726.517V292.208Z" fill="#1D1D1B"/>
<path d="M755.891 258.175H713.843V249.749H755.906L755.891 258.175ZM716.406 255.697H753.309V252.227H716.406V255.697Z" fill="#1D1D1B"/>
<path d="M749.185 234.23H720.53V225.804H749.185V234.23ZM723.112 231.752H746.602V228.282H723.112V231.752Z" fill="#1D1D1B"/>
<path d="M744.689 252.232H725.026V228.861H744.689V252.232ZM727.608 249.754H742.097V231.345H727.598L727.608 249.754Z" fill="#1D1D1B"/>
<path d="M739.881 231.855H729.834V180.975H739.881V231.855ZM732.416 229.377H737.299V183.458H732.416V229.377Z" fill="#1D1D1B"/>
<path d="M738.404 184.073H731.311V149.197H738.404V184.073ZM733.893 181.594H735.821V151.681H733.893V181.594Z" fill="#1D1D1B"/>
<path d="M738.404 152.999H731.311V118.123H738.404V152.999ZM733.893 150.52H735.821V120.606H733.893V150.52Z" fill="#1D1D1B"/>
<path d="M738.404 122.431H731.311V87.5557H738.404V122.431ZM733.893 119.953H735.821V90.039H733.893V119.953Z" fill="#1D1D1B"/>
<path d="M737.452 90.0392H732.262V55.8379H737.452V90.0392ZM734.845 87.5609H734.87V58.3162H734.845V87.5609Z" fill="#1D1D1B"/>
<path d="M737.452 59.0986H732.262V40.7588H737.452V59.0986ZM734.845 56.6203H734.87V43.2371H734.845V56.6203Z" fill="#1D1D1B"/>
<path d="M736.838 14.7764H732.877V43.3122H736.838V14.7764Z" fill="#1D1D1B"/>
<path d="M736.481 0H733.229V18.3448H736.481V0Z" fill="#1D1D1B"/>
<g opacity="0.1">
<path d="M736.838 15.3857H732.877V19.133H736.838V15.3857Z" fill="#1D1D1B"/>
</g>
<g opacity="0.1">
<path d="M744.689 231.896H725.031V236.545H744.689V231.896Z" fill="#1D1D1B"/>
</g>
<g opacity="0.1">
<path d="M745.779 255.692H723.935V260.342H745.779V255.692Z" fill="#1D1D1B"/>
</g>
<path d="M755.891 284.158H713.843V275.707H755.906L755.891 284.158ZM716.406 281.68H753.309V278.21H716.406V281.68Z" fill="#1D1D1B"/>
<g opacity="0.1">
<path d="M745.779 281.67H723.935V286.319H745.779V281.67Z" fill="#1D1D1B"/>
</g>
<path d="M739.42 14.1221H730.299V17.8693H739.42V14.1221Z" fill="#1D1D1B"/>
<path d="M748.253 200.608H721.462V193.669H748.253V200.608ZM724.044 198.13H745.67V196.147H724.044V198.13Z" fill="#1D1D1B"/>
<g opacity="0.1">
<path d="M739.881 205.064H729.834V198.125H739.881V205.064ZM732.416 202.586H737.299V200.603H732.416V202.586Z" fill="#1D1D1B"/>
</g>
<path d="M743.494 108.403H726.235V101.464H743.509L743.494 108.403ZM728.802 105.925H740.912V103.942H728.802V105.925Z" fill="#1D1D1B"/>
<g opacity="0.1">
<path d="M738.414 112.859H731.301V105.92H738.414V112.859ZM733.883 110.381H735.831V108.398H733.883V110.381Z" fill="#1D1D1B"/>
</g>
<path d="M724.996 205.064C724.716 205.07 724.438 205.02 724.177 204.917C723.916 204.815 723.679 204.663 723.477 204.468C723.275 204.274 723.114 204.042 723.002 203.785C722.89 203.529 722.83 203.253 722.825 202.973V192.564C722.825 191.988 723.053 191.436 723.461 191.028C723.868 190.621 724.42 190.393 724.996 190.393C725.572 190.393 726.124 190.621 726.531 191.028C726.938 191.436 727.167 191.988 727.167 192.564V202.973C727.162 203.253 727.101 203.529 726.989 203.785C726.878 204.042 726.716 204.274 726.515 204.468C726.313 204.663 726.075 204.815 725.814 204.917C725.554 205.02 725.276 205.07 724.996 205.064Z" fill="#1D1D1B"/>
<path d="M744.575 204.049C744.01 204.058 743.464 203.843 743.057 203.451C742.651 203.059 742.416 202.522 742.404 201.957V191.548C742.43 190.989 742.671 190.462 743.076 190.077C743.48 189.691 744.018 189.476 744.577 189.476C745.136 189.476 745.674 189.691 746.079 190.077C746.484 190.462 746.724 190.989 746.751 191.548V201.957C746.739 202.523 746.503 203.061 746.095 203.453C745.687 203.845 745.141 204.059 744.575 204.049Z" fill="#1D1D1B"/>
<path d="M740.342 111.839C739.777 111.848 739.231 111.633 738.824 111.241C738.417 110.849 738.182 110.312 738.171 109.747V99.3378C738.197 98.7793 738.438 98.2525 738.843 97.8667C739.247 97.4809 739.785 97.2656 740.344 97.2656C740.903 97.2656 741.441 97.4809 741.846 97.8667C742.25 98.2525 742.491 98.7793 742.518 99.3378V109.747C742.506 110.313 742.27 110.851 741.862 111.243C741.454 111.635 740.907 111.849 740.342 111.839Z" fill="#1D1D1B"/>
<path d="M729.209 111.839C728.929 111.844 728.651 111.794 728.39 111.692C728.13 111.59 727.892 111.437 727.69 111.243C727.489 111.049 727.327 110.816 727.215 110.56C727.104 110.303 727.043 110.027 727.038 109.747V99.338C727.038 98.7622 727.267 98.21 727.674 97.8029C728.081 97.3957 728.633 97.167 729.209 97.167C729.785 97.167 730.337 97.3957 730.744 97.8029C731.151 98.21 731.38 98.7622 731.38 99.338V109.747C731.375 110.027 731.315 110.303 731.203 110.56C731.091 110.816 730.93 111.049 730.728 111.243C730.526 111.437 730.288 111.59 730.028 111.692C729.767 111.794 729.489 111.844 729.209 111.839Z" fill="#1D1D1B"/>
<path d="M755.891 270.211H713.828V273.631H755.891V270.211Z" fill="#1D1D1B"/>
<path d="M736.634 269.402H733.08V278.215H736.634V269.402Z" fill="#1D1D1B"/>
<path d="M730.815 269.402H727.261V278.215H730.815V269.402Z" fill="#1D1D1B"/>
<path d="M724.991 269.402H721.437V278.215H724.991V269.402Z" fill="#1D1D1B"/>
<path d="M719.172 269.402H715.618V278.215H719.172V269.402Z" fill="#1D1D1B"/>
<path d="M741.928 269.402H738.374V278.215H741.928V269.402Z" fill="#1D1D1B"/>
<path d="M747.747 269.402H744.193V278.215H747.747V269.402Z" fill="#1D1D1B"/>
<path d="M753.571 269.402H750.017V278.215H753.571V269.402Z" fill="#1D1D1B"/>
<path d="M755.891 244.228H713.828V247.648H755.891V244.228Z" fill="#1D1D1B"/>
<path d="M736.634 243.419H733.08V252.232H736.634V243.419Z" fill="#1D1D1B"/>
<path d="M730.815 243.419H727.261V252.232H730.815V243.419Z" fill="#1D1D1B"/>
<path d="M724.991 243.419H721.437V252.232H724.991V243.419Z" fill="#1D1D1B"/>
<path d="M719.172 243.419H715.618V252.232H719.172V243.419Z" fill="#1D1D1B"/>
<path d="M741.928 243.419H738.374V252.232H741.928V243.419Z" fill="#1D1D1B"/>
<path d="M747.747 243.419H744.193V252.232H747.747V243.419Z" fill="#1D1D1B"/>
<path d="M753.571 243.419H750.017V252.232H753.571V243.419Z" fill="#1D1D1B"/>
<g opacity="0.1">
<path d="M745.78 294.687H733.566V0H736.486V14.1217H739.415V17.869H736.838V40.7591H737.452V87.5604H738.404V98.4007C738.591 98.0504 738.871 97.758 739.212 97.5553C739.554 97.3526 739.945 97.2473 740.342 97.2508C740.908 97.2402 741.455 97.4544 741.863 97.8466C742.271 98.2388 742.506 98.7767 742.518 99.3425V101.464H743.509V108.403H742.518V109.752C742.506 110.317 742.271 110.855 741.863 111.248C741.455 111.64 740.908 111.854 740.342 111.843C739.948 111.847 739.561 111.744 739.222 111.545C738.882 111.346 738.603 111.058 738.414 110.713V180.98H739.901V193.669H742.424V191.542C742.45 190.984 742.691 190.457 743.096 190.071C743.5 189.685 744.038 189.47 744.597 189.47C745.156 189.47 745.694 189.685 746.099 190.071C746.504 190.457 746.744 190.984 746.771 191.542V193.664H748.258V200.603H746.771V201.952C746.744 202.51 746.504 203.037 746.099 203.423C745.694 203.808 745.156 204.024 744.597 204.024C744.038 204.024 743.5 203.808 743.096 203.423C742.691 203.037 742.45 202.51 742.424 201.952V200.603H739.901V225.798H749.205V234.225H744.709V243.414H747.767V243.623C748.385 243.738 748.984 243.94 749.547 244.222H750.042V243.414H753.591V244.222H755.916V247.643H753.591V247.786H755.916V258.195H745.804V269.422H747.787V270.23H750.027V269.422H753.576V270.23H755.901V273.645H753.576V273.794H755.901V284.178H745.789L745.78 294.687ZM736.149 292.208H743.197V281.655H753.309V278.186H746.682L747.371 276.496C747.452 276.286 747.502 276.065 747.519 275.841V275.524L747.46 275.237C747.373 274.856 747.191 274.505 746.931 274.214C746.671 273.924 746.341 273.704 745.973 273.576L745.13 273.274V272.669H743.147V255.667H753.259V252.198H752.55V253.283L752.02 252.198H750.934V249.962L750.087 248.208C749.908 247.843 749.674 247.509 749.393 247.216L748.897 246.681H748.808L748.501 246.507C747.886 246.156 747.191 245.968 746.483 245.962H746.077L745.695 246.032C745.234 246.121 744.791 246.288 744.387 246.527L744.079 246.701H742.097V231.746H746.592V228.277H737.289V198.125H745.661V196.142H737.289V183.458H736.149V292.208ZM749.68 273.784H750.017V273.636H749.611C749.636 273.675 749.661 273.725 749.68 273.774V273.784ZM740.758 105.925H740.917V103.942H736.149V105.925H740.758Z" fill="#1D1D1B"/>
</g>
<path d="M718.502 620.551H711.181V604.655H718.502V620.551ZM713.764 618.073H715.92V607.168H713.764V618.073Z" fill="#1D1D1B"/>
<path d="M718.502 738.036H711.181V618.083H718.502V738.036ZM713.764 735.557H715.92V620.561H713.764V735.557Z" fill="#1D1D1B"/>
<path d="M758.727 620.551H751.406V604.655H758.727V620.551ZM753.988 618.073H756.144V607.168H753.993L753.988 618.073Z" fill="#1D1D1B"/>
<path d="M758.727 738.036H751.406V618.083H758.727V738.036ZM753.988 735.557H756.144V620.561H753.993L753.988 735.557Z" fill="#1D1D1B"/>
<path d="M750.974 738.041H718.934L721.065 366.232H748.823V367.472L750.974 738.041ZM721.531 735.562H748.377L746.275 368.726H723.633L721.531 735.562Z" fill="#1D1D1B"/>
<path d="M755.306 738.041H714.602L715.682 600.918H754.23L755.306 738.041ZM717.204 735.562H752.704L751.668 603.406H718.245L717.204 735.562Z" fill="#1D1D1B"/>
<path d="M743.732 738.04H726.176V618.088H743.732V738.04ZM728.758 735.562H741.15V620.566H728.758V735.562Z" fill="#1D1D1B"/>
<path d="M734.954 633.969C730.032 633.969 726.176 627.525 726.176 619.312C726.176 611.411 733.804 605.2 734.107 604.938L734.934 604.273L735.762 604.938C736.084 605.195 743.693 611.381 743.693 619.312C743.732 627.53 739.876 633.969 734.954 633.969ZM734.954 607.585C733.1 609.334 728.758 613.994 728.758 619.312C728.758 626.594 731.96 631.481 734.954 631.481C737.948 631.481 741.155 626.594 741.155 619.312C741.155 613.979 736.813 609.329 734.954 607.585Z" fill="#1D1D1B"/>
<path d="M741.254 738.041H728.654V616.958H741.254V738.041ZM731.236 735.562H738.671V619.446H731.236V735.562Z" fill="#1D1D1B"/>
<path d="M734.954 628.417C731.419 628.417 728.654 623.956 728.654 618.202C728.654 612.749 733.903 608.452 734.106 608.288L734.934 607.624L735.761 608.288C735.985 608.467 741.214 612.749 741.214 618.202C741.254 623.932 738.488 628.417 734.954 628.417ZM734.954 610.94C733.645 612.239 731.236 615.054 731.236 618.202C731.236 622.623 733.219 625.934 734.954 625.934C736.688 625.934 738.671 622.623 738.671 618.202C738.671 615.039 736.267 612.234 734.954 610.94Z" fill="#1D1D1B"/>
<g opacity="0.25">
<path d="M742.384 618.068H727.41V621.87H742.384V618.068Z" fill="#1D1D1B"/>
</g>
<g opacity="0.25">
<path d="M736.877 618.058H732.927V738.03H736.877V618.058Z" fill="#1D1D1B"/>
</g>
<g opacity="0.25">
<path d="M733.705 618.058H729.754V738.03H733.705V618.058Z" fill="#1D1D1B"/>
</g>
<g opacity="0.25">
<path d="M740.055 618.058H736.104V738.03H740.055V618.058Z" fill="#1D1D1B"/>
</g>
<g opacity="0.25">
<path d="M742.384 623.674H727.41V627.476H742.384V623.674Z" fill="#1D1D1B"/>
</g>
<g opacity="0.25">
<path d="M742.384 629.275H727.41V633.077H742.384V629.275Z" fill="#1D1D1B"/>
</g>
<g opacity="0.25">
<path d="M742.384 634.881H727.41V638.683H742.384V634.881Z" fill="#1D1D1B"/>
</g>
<g opacity="0.25">
<path d="M742.384 640.482H727.41V644.284H742.384V640.482Z" fill="#1D1D1B"/>
</g>
<g opacity="0.25">
<path d="M742.384 646.088H727.41V649.89H742.384V646.088Z" fill="#1D1D1B"/>
</g>
<g opacity="0.25">
<path d="M742.384 651.689H727.41V655.491H742.384V651.689Z" fill="#1D1D1B"/>
</g>
<g opacity="0.25">
<path d="M742.384 656.785H727.41V660.587H742.384V656.785Z" fill="#1D1D1B"/>
</g>
<g opacity="0.25">
<path d="M742.384 662.391H727.41V666.192H742.384V662.391Z" fill="#1D1D1B"/>
</g>
<g opacity="0.25">
<path d="M742.384 667.992H727.41V671.794H742.384V667.992Z" fill="#1D1D1B"/>
</g>
<g opacity="0.25">
<path d="M742.384 673.598H727.41V677.399H742.384V673.598Z" fill="#1D1D1B"/>
</g>
<g opacity="0.25">
<path d="M742.384 679.199H727.41V683.001H742.384V679.199Z" fill="#1D1D1B"/>
</g>
<g opacity="0.25">
<path d="M742.384 685.315H727.41V689.117H742.384V685.315Z" fill="#1D1D1B"/>
</g>
<g opacity="0.25">
<path d="M742.384 690.917H727.41V694.719H742.384V690.917Z" fill="#1D1D1B"/>
</g>
<g opacity="0.25">
<path d="M742.384 696.522H727.41V700.324H742.384V696.522Z" fill="#1D1D1B"/>
</g>
<g opacity="0.25">
<path d="M742.384 702.124H727.41V705.926H742.384V702.124Z" fill="#1D1D1B"/>
</g>
<g opacity="0.25">
<path d="M742.384 707.729H727.41V711.531H742.384V707.729Z" fill="#1D1D1B"/>
</g>
<g opacity="0.25">
<path d="M742.384 713.331H727.41V717.133H742.384V713.331Z" fill="#1D1D1B"/>
</g>
<g opacity="0.25">
<path d="M742.384 718.938H727.41V722.739H742.384V718.938Z" fill="#1D1D1B"/>
</g>
<g opacity="0.25">
<path d="M742.384 724.538H727.41V728.34H742.384V724.538Z" fill="#1D1D1B"/>
</g>
<g opacity="0.25">
<path d="M742.384 730.145H727.41V733.946H742.384V730.145Z" fill="#1D1D1B"/>
</g>
<g opacity="0.25">
<path d="M742.443 620.933H727.469V624.734H742.443V620.933Z" fill="#1D1D1B"/>
</g>
<g opacity="0.25">
<path d="M742.443 626.539H727.469V630.341H742.443V626.539Z" fill="#1D1D1B"/>
</g>
<g opacity="0.25">
<path d="M742.443 632.14H727.469V635.941H742.443V632.14Z" fill="#1D1D1B"/>
</g>
<g opacity="0.25">
<path d="M742.443 637.746H727.469V641.548H742.443V637.746Z" fill="#1D1D1B"/>
</g>
<g opacity="0.25">
<path d="M742.443 643.348H727.469V647.149H742.443V643.348Z" fill="#1D1D1B"/>
</g>
<g opacity="0.25">
<path d="M742.443 648.953H727.469V652.755H742.443V648.953Z" fill="#1D1D1B"/>
</g>
<g opacity="0.25">
<path d="M742.443 654.237H727.469V658.039H742.443V654.237Z" fill="#1D1D1B"/>
</g>
<g opacity="0.25">
<path d="M742.443 659.649H727.469V663.451H742.443V659.649Z" fill="#1D1D1B"/>
</g>
<g opacity="0.25">
<path d="M742.443 665.256H727.469V669.058H742.443V665.256Z" fill="#1D1D1B"/>
</g>
<g opacity="0.25">
<path d="M742.443 670.856H727.469V674.658H742.443V670.856Z" fill="#1D1D1B"/>
</g>
<g opacity="0.25">
<path d="M742.443 676.463H727.469V680.265H742.443V676.463Z" fill="#1D1D1B"/>
</g>
<g opacity="0.25">
<path d="M742.443 682.258H727.469V686.06H742.443V682.258Z" fill="#1D1D1B"/>
</g>
<g opacity="0.25">
<path d="M742.443 688.181H727.469V691.982H742.443V688.181Z" fill="#1D1D1B"/>
</g>
<g opacity="0.25">
<path d="M742.443 693.781H727.469V697.583H742.443V693.781Z" fill="#1D1D1B"/>
</g>
<g opacity="0.25">
<path d="M742.443 699.388H727.469V703.19H742.443V699.388Z" fill="#1D1D1B"/>
</g>
<g opacity="0.25">
<path d="M742.443 704.989H727.469V708.791H742.443V704.989Z" fill="#1D1D1B"/>
</g>
<g opacity="0.25">
<path d="M742.443 710.595H727.469V714.397H742.443V710.595Z" fill="#1D1D1B"/>
</g>
<g opacity="0.25">
<path d="M742.443 716.201H727.469V720.003H742.443V716.201Z" fill="#1D1D1B"/>
</g>
<g opacity="0.25">
<path d="M742.443 721.802H727.469V725.604H742.443V721.802Z" fill="#1D1D1B"/>
</g>
<g opacity="0.25">
<path d="M742.443 727.408H727.469V731.21H742.443V727.408Z" fill="#1D1D1B"/>
</g>
<g opacity="0.25">
<path d="M742.443 733.009H727.469V736.811H742.443V733.009Z" fill="#1D1D1B"/>
</g>
<path d="M731.271 599.876H724.277V594.389C724.311 593.485 724.694 592.628 725.347 592C725.999 591.372 726.869 591.021 727.774 591.021C728.679 591.021 729.549 591.372 730.202 592C730.854 592.628 731.237 593.485 731.271 594.389V599.876ZM726.86 597.398H728.713V594.394C728.696 594.163 728.593 593.947 728.423 593.79C728.253 593.632 728.03 593.545 727.799 593.545C727.567 593.545 727.344 593.632 727.175 593.79C727.005 593.947 726.901 594.163 726.884 594.394L726.86 597.398Z" fill="#1D1D1B"/>
<path d="M739.826 561.814H729.967V553.571C730.096 552.353 730.67 551.226 731.58 550.407C732.491 549.587 733.672 549.134 734.897 549.134C736.121 549.134 737.303 549.587 738.213 550.407C739.123 551.226 739.698 552.353 739.826 553.571V561.814ZM732.55 559.336H737.244V553.576C737.216 552.973 736.957 552.403 736.519 551.985C736.082 551.568 735.501 551.335 734.897 551.335C734.292 551.335 733.711 551.568 733.274 551.985C732.837 552.403 732.577 552.973 732.55 553.576V559.336Z" fill="#1D1D1B"/>
<path d="M739.826 484.881H729.967V476.648C730.096 475.43 730.67 474.302 731.58 473.483C732.491 472.663 733.672 472.21 734.897 472.21C736.121 472.21 737.303 472.663 738.213 473.483C739.123 474.302 739.698 475.43 739.826 476.648V484.881ZM732.55 482.402H737.244V476.648C737.216 476.044 736.957 475.474 736.519 475.056C736.082 474.639 735.501 474.406 734.897 474.406C734.292 474.406 733.711 474.639 733.274 475.056C732.837 475.474 732.577 476.044 732.55 476.648V482.402Z" fill="#1D1D1B"/>
<path d="M739.826 413.063H729.967V404.815C730.096 403.597 730.67 402.47 731.58 401.651C732.491 400.831 733.672 400.378 734.897 400.378C736.121 400.378 737.303 400.831 738.213 401.651C739.123 402.47 739.698 403.597 739.826 404.815V413.063ZM732.55 410.585H737.244V404.815C737.216 404.212 736.957 403.642 736.519 403.224C736.082 402.807 735.501 402.574 734.897 402.574C734.292 402.574 733.711 402.807 733.274 403.224C732.837 403.642 732.577 404.212 732.55 404.815V410.585Z" fill="#1D1D1B"/>
<path d="M745.011 599.877H738.022V594.39C738.022 593.463 738.39 592.574 739.045 591.919C739.701 591.264 740.59 590.896 741.516 590.896C742.443 590.896 743.332 591.264 743.987 591.919C744.643 592.574 745.011 593.463 745.011 594.39V599.877ZM740.604 597.399H742.433V594.395C742.416 594.164 742.313 593.948 742.143 593.791C741.973 593.633 741.75 593.545 741.519 593.545C741.287 593.545 741.064 593.633 740.895 593.791C740.725 593.948 740.621 594.164 740.604 594.395V597.399Z" fill="#1D1D1B"/>
<path d="M768.863 322.94H699.86V321.696C699.86 303.391 715.335 288.486 734.354 288.486C753.373 288.486 768.843 303.381 768.843 321.696L768.863 322.94ZM702.492 320.462H766.236C765.552 304.105 751.514 290.994 734.354 290.994C717.194 290.994 703.152 304.095 702.473 320.452L702.492 320.462Z" fill="#1D1D1B"/>
<path d="M772.427 336.705H697.486V328.655H772.427V336.705ZM700.059 334.227H769.854V331.148H700.069L700.059 334.227Z" fill="#1D1D1B"/>
<path d="M770.692 344.491H699.216V333.805H770.692V344.491ZM701.793 342.013H768.104V336.288H701.798L701.793 342.013Z" fill="#1D1D1B"/>
<path d="M769.111 350.058H700.797V342.009H769.111V350.058ZM703.38 347.58H766.528V344.502H703.38V347.58Z" fill="#1D1D1B"/>
<path d="M767.296 358.257H702.611V347.58H767.296V358.257ZM705.194 355.778H764.714V350.058H705.194V355.778Z" fill="#1D1D1B"/>
<path d="M765.889 363.818H704.039V355.773H765.889V363.818ZM706.641 361.34H763.312V358.262H706.622L706.641 361.34Z" fill="#1D1D1B"/>
<path d="M764.01 371.605H705.912V360.918H764.025L764.01 371.605ZM708.495 369.126H761.428V363.401H708.48L708.495 369.126Z" fill="#1D1D1B"/>
<g opacity="0.1">
<path d="M749.115 414.936L720.991 379.302L721.05 369.106H748.912L749.115 414.936ZM723.578 378.485L746.503 407.516L746.339 371.605H723.618L723.578 378.485Z" fill="#1D1D1B"/>
</g>
<g opacity="0.1">
<path d="M748.887 374.391H721.041V369.122H748.887V374.391ZM723.608 371.913H746.29V371.615H723.608V371.913Z" fill="#1D1D1B"/>
</g>
<g opacity="0.2">
<path d="M739.96 320.457H735.658V371.61H739.96V320.457Z" fill="#1D1D1B"/>
</g>
<g opacity="0.2">
<path d="M734.136 320.457H729.834V371.61H734.136V320.457Z" fill="#1D1D1B"/>
</g>
<g opacity="0.2">
<path d="M727.787 320.457H723.484V371.61H727.787V320.457Z" fill="#1D1D1B"/>
</g>
<g opacity="0.2">
<path d="M721.967 320.457H717.665V371.61H721.967V320.457Z" fill="#1D1D1B"/>
</g>
<g opacity="0.2">
<path d="M715.613 320.457H711.31V371.61H715.613V320.457Z" fill="#1D1D1B"/>
</g>
<g opacity="0.2">
<path d="M709.794 320.457H705.491V363.823H709.794V320.457Z" fill="#1D1D1B"/>
</g>
<g opacity="0.2">
<path d="M770.127 320.457H765.824V337.543H770.127V320.457Z" fill="#1D1D1B"/>
</g>
<g opacity="0.2">
<path d="M769.111 336.393H765.824V350.053H769.111V336.393Z" fill="#1D1D1B"/>
</g>
<g opacity="0.2">
<path d="M763.772 320.457H759.47V371.61H763.772V320.457Z" fill="#1D1D1B"/>
</g>
<g opacity="0.2">
<path d="M757.953 320.457H753.651V371.61H757.953V320.457Z" fill="#1D1D1B"/>
</g>
<g opacity="0.2">
<path d="M751.604 320.457H747.301V371.61H751.604V320.457Z" fill="#1D1D1B"/>
</g>
<g opacity="0.2">
<path d="M745.779 320.457H741.477V371.61H745.779V320.457Z" fill="#1D1D1B"/>
</g>
<g opacity="0.2">
<path d="M703.97 328.367H699.667V337.007H703.97V328.367Z" fill="#1D1D1B"/>
</g>
<g opacity="0.2">
<path d="M703.969 342.009H700.772V350.058H703.969V342.009Z" fill="#1D1D1B"/>
</g>
<g opacity="0.1">
<path d="M772.427 328.66H697.486V333.404H772.427V328.66Z" fill="#1D1D1B"/>
</g>
<g opacity="0.1">
<path d="M769.106 342.009H700.797V346.752H769.106V342.009Z" fill="#1D1D1B"/>
</g>
<g opacity="0.1">
<path d="M765.884 355.764H704.024V360.507H765.884V355.764Z" fill="#1D1D1B"/>
</g>
<path d="M739.242 325.166H730.473V317.964C730.511 316.827 730.99 315.749 731.808 314.958C732.626 314.167 733.719 313.725 734.857 313.725C735.995 313.725 737.089 314.167 737.907 314.958C738.725 315.749 739.203 316.827 739.242 317.964V325.166ZM733.056 322.688H736.644V317.974C736.62 317.512 736.42 317.078 736.084 316.76C735.749 316.441 735.305 316.264 734.842 316.264C734.38 316.264 733.936 316.441 733.601 316.76C733.265 317.078 733.065 317.512 733.041 317.974L733.056 322.688Z" fill="#1D1D1B"/>
<path d="M725.283 325.166H716.515V317.964C716.553 316.827 717.032 315.749 717.85 314.958C718.668 314.167 719.761 313.725 720.899 313.725C722.037 313.725 723.13 314.167 723.948 314.958C724.766 315.749 725.245 316.827 725.283 317.964V325.166ZM719.092 322.688H722.701V317.974C722.701 317.495 722.511 317.036 722.172 316.698C721.834 316.36 721.375 316.17 720.897 316.17C720.418 316.17 719.959 316.36 719.621 316.698C719.282 317.036 719.092 317.495 719.092 317.974V322.688Z" fill="#1D1D1B"/>
<path d="M711.325 325.165H702.552V317.963C702.605 316.836 703.091 315.773 703.908 314.994C704.725 314.215 705.81 313.78 706.938 313.78C708.067 313.78 709.152 314.215 709.969 314.994C710.786 315.773 711.272 316.836 711.325 317.963V325.165ZM705.134 322.687H708.743V317.973C708.743 317.495 708.553 317.036 708.214 316.697C707.876 316.359 707.417 316.169 706.938 316.169C706.46 316.169 706.001 316.359 705.663 316.697C705.324 317.036 705.134 317.495 705.134 317.973V322.687Z" fill="#1D1D1B"/>
<path d="M752.754 325.165H743.98V317.963C744.034 316.836 744.519 315.773 745.336 314.994C746.153 314.215 747.238 313.78 748.367 313.78C749.496 313.78 750.581 314.215 751.398 314.994C752.214 315.773 752.7 316.836 752.754 317.963V325.165ZM746.563 322.687H750.171V317.973C750.171 317.495 749.981 317.036 749.643 316.697C749.304 316.359 748.845 316.169 748.367 316.169C747.888 316.169 747.429 316.359 747.091 316.697C746.753 317.036 746.563 317.495 746.563 317.973V322.687Z" fill="#1D1D1B"/>
<path d="M766.712 325.165H757.958V317.963C758.012 316.836 758.497 315.773 759.314 314.994C760.131 314.215 761.216 313.78 762.345 313.78C763.473 313.78 764.559 314.215 765.375 314.994C766.192 315.773 766.678 316.836 766.731 317.963L766.712 325.165ZM760.521 322.687H764.129V317.973C764.129 317.495 763.939 317.036 763.601 316.697C763.262 316.359 762.803 316.169 762.325 316.169C761.846 316.169 761.387 316.359 761.049 316.697C760.711 317.036 760.521 317.495 760.521 317.973V322.687Z" fill="#1D1D1B"/>
<path d="M774.167 331.144H695.746V320.452H774.167V331.144ZM698.329 328.665H771.589V322.94H698.329V328.665Z" fill="#1D1D1B"/>
<path d="M786.266 744.033H574.639V735.557H786.266V744.033ZM577.221 741.554H783.683V738.045H577.221V741.554Z" fill="#1D1D1B"/>
<path d="M786.266 776.44H574.639V751.553H786.266V776.44ZM577.221 773.962H783.683V754.031H577.221V773.962Z" fill="#1D1D1B"/>
<path d="M783.446 754.031H576.314V741.56H783.446V754.031ZM578.897 751.552H780.863V744.053H578.897V751.552Z" fill="#1D1D1B"/>
<g opacity="0.25">
<path d="M783.445 744.662H576.314V747.998H783.445V744.662Z" fill="#1D1D1B"/>
</g>
<g opacity="0.25">
<path d="M783.445 741.55H576.314V745.778H783.445V741.55Z" fill="#1D1D1B"/>
</g>
<g opacity="0.25">
<path d="M783.445 748.231H576.314V751.567H783.445V748.231Z" fill="#1D1D1B"/>
</g>
<g opacity="0.25">
<path d="M782.018 741.55H778.776V754.021H782.018V741.55Z" fill="#1D1D1B"/>
</g>
<g opacity="0.25">
<path d="M776.199 741.55H772.957V754.021H776.199V741.55Z" fill="#1D1D1B"/>
</g>
<g opacity="0.25">
<path d="M770.375 741.55H767.133V754.021H770.375V741.55Z" fill="#1D1D1B"/>
</g>
<g opacity="0.25">
<path d="M764.555 741.55H761.314V754.021H764.555V741.55Z" fill="#1D1D1B"/>
</g>
<g opacity="0.25">
<path d="M758.731 741.55H755.49V754.021H758.731V741.55Z" fill="#1D1D1B"/>
</g>
<g opacity="0.25">
<path d="M753.442 741.55H750.201V754.021H753.442V741.55Z" fill="#1D1D1B"/>
</g>
<g opacity="0.25">
<path d="M747.618 741.55H744.376V754.021H747.618V741.55Z" fill="#1D1D1B"/>
</g>
<g opacity="0.25">
<path d="M741.799 741.55H738.557V754.021H741.799V741.55Z" fill="#1D1D1B"/>
</g>
<g opacity="0.25">
<path d="M735.975 741.55H732.733V754.021H735.975V741.55Z" fill="#1D1D1B"/>
</g>
<g opacity="0.25">
<path d="M730.156 741.55H726.914V754.021H730.156V741.55Z" fill="#1D1D1B"/>
</g>
<g opacity="0.25">
<path d="M779.044 741.555H775.802V754.026H779.044V741.555Z" fill="#1D1D1B"/>
</g>
<g opacity="0.25">
<path d="M773.22 741.555H769.978V754.026H773.22V741.555Z" fill="#1D1D1B"/>
</g>
<g opacity="0.25">
<path d="M767.4 741.555H764.159V754.026H767.4V741.555Z" fill="#1D1D1B"/>
</g>
<g opacity="0.25">
<path d="M761.576 741.555H758.335V754.026H761.576V741.555Z" fill="#1D1D1B"/>
</g>
<g opacity="0.25">
<path d="M755.757 741.555H752.515V754.026H755.757V741.555Z" fill="#1D1D1B"/>
</g>
<g opacity="0.25">
<path d="M750.464 741.555H747.222V754.026H750.464V741.555Z" fill="#1D1D1B"/>
</g>
<g opacity="0.25">
<path d="M744.644 741.555H741.402V754.026H744.644V741.555Z" fill="#1D1D1B"/>
</g>
<g opacity="0.25">
<path d="M738.82 741.555H735.578V754.026H738.82V741.555Z" fill="#1D1D1B"/>
</g>
<g opacity="0.25">
<path d="M733.001 741.555H729.759V754.026H733.001V741.555Z" fill="#1D1D1B"/>
</g>
<g opacity="0.25">
<path d="M727.177 741.555H723.935V754.026H727.177V741.555Z" fill="#1D1D1B"/>
</g>
<g opacity="0.25">
<path d="M723.806 741.55H720.564V754.021H723.806V741.55Z" fill="#1D1D1B"/>
</g>
<g opacity="0.25">
<path d="M717.982 741.55H714.74V754.021H717.982V741.55Z" fill="#1D1D1B"/>
</g>
<g opacity="0.25">
<path d="M712.163 741.55H708.921V754.021H712.163V741.55Z" fill="#1D1D1B"/>
</g>
<g opacity="0.25">
<path d="M706.339 741.55H703.097V754.021H706.339V741.55Z" fill="#1D1D1B"/>
</g>
<g opacity="0.25">
<path d="M700.52 741.55H697.278V754.021H700.52V741.55Z" fill="#1D1D1B"/>
</g>
<g opacity="0.25">
<path d="M695.226 741.55H691.984V754.021H695.226V741.55Z" fill="#1D1D1B"/>
</g>
<g opacity="0.25">
<path d="M689.406 741.55H686.165V754.021H689.406V741.55Z" fill="#1D1D1B"/>
</g>
<g opacity="0.25">
<path d="M683.583 741.55H680.341V754.021H683.583V741.55Z" fill="#1D1D1B"/>
</g>
<g opacity="0.25">
<path d="M677.763 741.55H674.522V754.021H677.763V741.55Z" fill="#1D1D1B"/>
</g>
<g opacity="0.25">
<path d="M671.939 741.55H668.697V754.021H671.939V741.55Z" fill="#1D1D1B"/>
</g>
<g opacity="0.25">
<path d="M720.827 741.555H717.585V754.026H720.827V741.555Z" fill="#1D1D1B"/>
</g>
<g opacity="0.25">
<path d="M715.008 741.555H711.766V754.026H715.008V741.555Z" fill="#1D1D1B"/>
</g>
<g opacity="0.25">
<path d="M709.184 741.555H705.942V754.026H709.184V741.555Z" fill="#1D1D1B"/>
</g>
<g opacity="0.25">
<path d="M703.365 741.555H700.123V754.026H703.365V741.555Z" fill="#1D1D1B"/>
</g>
<g opacity="0.25">
<path d="M697.541 741.555H694.299V754.026H697.541V741.555Z" fill="#1D1D1B"/>
</g>
<g opacity="0.25">
<path d="M692.247 741.555H689.005V754.026H692.247V741.555Z" fill="#1D1D1B"/>
</g>
<g opacity="0.25">
<path d="M686.427 741.555H683.186V754.026H686.427V741.555Z" fill="#1D1D1B"/>
</g>
<g opacity="0.25">
<path d="M680.608 741.555H677.367V754.026H680.608V741.555Z" fill="#1D1D1B"/>
</g>
<g opacity="0.25">
<path d="M674.784 741.555H671.542V754.026H674.784V741.555Z" fill="#1D1D1B"/>
</g>
<g opacity="0.25">
<path d="M668.965 741.555H665.723V754.026H668.965V741.555Z" fill="#1D1D1B"/>
</g>
<g opacity="0.25">
<path d="M666.12 741.55H662.878V754.021H666.12V741.55Z" fill="#1D1D1B"/>
</g>
<g opacity="0.25">
<path d="M660.296 741.55H657.054V754.021H660.296V741.55Z" fill="#1D1D1B"/>
</g>
<g opacity="0.25">
<path d="M654.477 741.55H651.235V754.021H654.477V741.55Z" fill="#1D1D1B"/>
</g>
<g opacity="0.25">
<path d="M648.652 741.55H645.411V754.021H648.652V741.55Z" fill="#1D1D1B"/>
</g>
<g opacity="0.25">
<path d="M642.833 741.55H639.592V754.021H642.833V741.55Z" fill="#1D1D1B"/>
</g>
<g opacity="0.25">
<path d="M637.54 741.55H634.298V754.021H637.54V741.55Z" fill="#1D1D1B"/>
</g>
<g opacity="0.25">
<path d="M631.72 741.55H628.479V754.021H631.72V741.55Z" fill="#1D1D1B"/>
</g>
<g opacity="0.25">
<path d="M625.896 741.55H622.655V754.021H625.896V741.55Z" fill="#1D1D1B"/>
</g>
<g opacity="0.25">
<path d="M620.077 741.55H616.835V754.021H620.077V741.55Z" fill="#1D1D1B"/>
</g>
<g opacity="0.25">
<path d="M614.253 741.55H611.011V754.021H614.253V741.55Z" fill="#1D1D1B"/>
</g>
<g opacity="0.25">
<path d="M663.141 741.555H659.899V754.026H663.141V741.555Z" fill="#1D1D1B"/>
</g>
<g opacity="0.25">
<path d="M657.322 741.555H654.08V754.026H657.322V741.555Z" fill="#1D1D1B"/>
</g>
<g opacity="0.25">
<path d="M651.498 741.555H648.256V754.026H651.498V741.555Z" fill="#1D1D1B"/>
</g>
<g opacity="0.25">
<path d="M645.678 741.555H642.437V754.026H645.678V741.555Z" fill="#1D1D1B"/>
</g>
<g opacity="0.25">
<path d="M639.854 741.555H636.613V754.026H639.854V741.555Z" fill="#1D1D1B"/>
</g>
<g opacity="0.25">
<path d="M634.566 741.555H631.324V754.026H634.566V741.555Z" fill="#1D1D1B"/>
</g>
<g opacity="0.25">
<path d="M628.741 741.555H625.5V754.026H628.741V741.555Z" fill="#1D1D1B"/>
</g>
<g opacity="0.25">
<path d="M622.922 741.555H619.681V754.026H622.922V741.555Z" fill="#1D1D1B"/>
</g>
<g opacity="0.25">
<path d="M617.098 741.555H613.856V754.026H617.098V741.555Z" fill="#1D1D1B"/>
</g>
<g opacity="0.25">
<path d="M611.279 741.555H608.037V754.026H611.279V741.555Z" fill="#1D1D1B"/>
</g>
<g opacity="0.25">
<path d="M608.434 741.55H605.192V754.021H608.434V741.55Z" fill="#1D1D1B"/>
</g>
<g opacity="0.25">
<path d="M602.61 741.55H599.368V754.021H602.61V741.55Z" fill="#1D1D1B"/>
</g>
<g opacity="0.25">
<path d="M596.79 741.55H593.549V754.021H596.79V741.55Z" fill="#1D1D1B"/>
</g>
<g opacity="0.25">
<path d="M590.966 741.55H587.725V754.021H590.966V741.55Z" fill="#1D1D1B"/>
</g>
<g opacity="0.25">
<path d="M585.147 741.55H581.905V754.021H585.147V741.55Z" fill="#1D1D1B"/>
</g>
<g opacity="0.25">
<path d="M579.853 741.55H576.612V754.021H579.853V741.55Z" fill="#1D1D1B"/>
</g>
<g opacity="0.25">
<path d="M605.455 741.555H602.213V754.026H605.455V741.555Z" fill="#1D1D1B"/>
</g>
<g opacity="0.25">
<path d="M599.635 741.555H596.394V754.026H599.635V741.555Z" fill="#1D1D1B"/>
</g>
<g opacity="0.25">
<path d="M593.812 741.555H590.57V754.026H593.812V741.555Z" fill="#1D1D1B"/>
</g>
<g opacity="0.25">
<path d="M587.992 741.555H584.75V754.026H587.992V741.555Z" fill="#1D1D1B"/>
</g>
<g opacity="0.25">
<path d="M582.168 741.555H578.926V754.026H582.168V741.555Z" fill="#1D1D1B"/>
</g>
<g style="mix-blend-mode:color-burn" opacity="0.1">
<path d="M786.266 776.44H574.639V751.552H576.314V744.053H574.639V735.577H711.181V604.655H715.642L715.672 600.918H719.712L721.025 371.605H705.912V363.818H704.054V358.257H702.641V350.058H700.802V344.492H699.246V336.705H697.486V331.143H695.746V320.452H699.885C700.435 306.528 710.121 294.26 723.935 290.047V284.159H713.843V273.774H715.632V273.626H713.843V270.21H715.632V269.402H719.181V270.21H720.222C721.14 268.879 722.439 267.858 723.95 267.281V258.176H713.843V247.766H715.632V247.623H713.843V244.203H715.632V243.395H719.181V244.203H721.452V243.395H725.006V244.203H725.04V234.23H720.545V225.803H729.848V200.608H727.182V202.973C727.182 203.548 726.953 204.101 726.546 204.508C726.139 204.915 725.586 205.144 725.011 205.144C724.435 205.144 723.883 204.915 723.475 204.508C723.068 204.101 722.84 203.548 722.84 202.973V200.608H721.476V193.669H722.84V192.568C722.84 191.993 723.068 191.44 723.475 191.033C723.883 190.626 724.435 190.397 725.011 190.397C725.586 190.397 726.139 190.626 726.546 191.033C726.953 191.44 727.182 191.993 727.182 192.568V193.669H729.848V180.98H731.335V112.859V110.381C731.192 110.816 730.914 111.195 730.541 111.462C730.169 111.729 729.722 111.871 729.263 111.868C728.984 111.873 728.705 111.823 728.445 111.721C728.184 111.619 727.946 111.466 727.745 111.272C727.543 111.078 727.382 110.846 727.27 110.589C727.158 110.332 727.098 110.056 727.092 109.776V108.428H726.235V101.489H727.073V99.3673C727.08 98.8063 727.309 98.2711 727.709 97.8776C728.109 97.4842 728.648 97.2643 729.209 97.2656C729.669 97.2604 730.119 97.4016 730.493 97.669C730.867 97.9363 731.147 98.3159 731.291 98.7527V87.5554H732.242V40.7591H732.857V17.869H730.28V14.1217H733.209V0H736.466V14.1217H739.395V17.869H736.817V40.7591H737.432V87.5604H738.384V98.4057C738.399 98.3711 738.417 98.3379 738.438 98.3066C738.633 97.9813 738.909 97.7124 739.239 97.5264C739.57 97.3404 739.943 97.2437 740.322 97.2458C740.888 97.2352 741.435 97.4495 741.842 97.8416C742.25 98.2338 742.486 98.7718 742.498 99.3376V101.459H743.489V108.398H742.498V109.747C742.495 110.164 742.366 110.571 742.13 110.915C741.893 111.258 741.558 111.523 741.169 111.675C740.9 111.784 740.612 111.84 740.322 111.838C739.928 111.842 739.541 111.739 739.202 111.54C738.862 111.341 738.583 111.053 738.394 110.708V180.975H739.881V193.664H742.404V191.542C742.404 191.181 742.503 190.826 742.691 190.516C742.887 190.192 743.163 189.925 743.493 189.74C743.824 189.555 744.196 189.458 744.575 189.461C745.14 189.451 745.686 189.666 746.094 190.058C746.502 190.45 746.738 190.987 746.751 191.552V193.674H748.238V200.613H746.751V201.961C746.747 202.379 746.618 202.785 746.382 203.129C746.145 203.472 745.811 203.737 745.422 203.89C745.153 203.999 744.865 204.054 744.575 204.053C744.01 204.062 743.464 203.848 743.057 203.456C742.65 203.064 742.415 202.526 742.404 201.961V200.613H739.881V225.808H749.185V234.235H744.689V243.424H747.747V243.637C747.901 243.637 748.039 243.697 748.178 243.732L748.297 243.761C748.721 243.878 749.133 244.036 749.526 244.232H750.022V243.424H753.571V244.232H755.896V247.652H753.571V247.796H755.896V258.205H745.784V269.432H747.767V270.24H750.027V269.432H753.576V270.24H755.901V273.655H753.576V273.804H755.901V284.188H745.789V290.399C759.217 294.925 768.308 306.816 768.828 320.481H774.176V331.173H772.436V336.735H770.702V344.522H769.12V350.058H767.306V358.262H765.889V363.823H764.03V371.61H748.942L749.12 411.204L750.206 600.923H754.25L754.28 604.66H758.741V735.562H786.281V744.038H783.46V751.552H786.281L786.266 776.44ZM577.221 773.962H783.683V754.031H780.863V741.559H783.683V738.05H752.714V735.572H756.144V620.576H751.792V618.098H756.144V607.193H751.683L751.653 603.451H747.603L746.503 411.264L746.315 369.171H761.428V361.335H763.291V355.773H764.704V350.058H762.473V347.58H766.518V342.008H768.099V334.197H769.834V328.655H771.574V322.94H766.25V321.696C766.25 308.313 757.328 296.536 744.084 292.451L743.187 292.174V281.655H753.299V278.186H746.671L747.36 276.496C747.442 276.286 747.492 276.066 747.509 275.841V275.524L747.45 275.237C747.43 275.148 747.405 275.06 747.375 274.974V274.924C747.375 274.855 747.321 274.79 747.291 274.726L747.261 274.671C747.178 274.509 747.075 274.357 746.954 274.22C746.885 274.151 746.82 274.087 746.751 274.027C746.528 273.831 746.271 273.678 745.992 273.576L745.15 273.274V272.669H743.167V255.667H753.279V252.198H752.57V253.283L752.04 252.198H750.954V249.962L750.106 248.208C749.928 247.843 749.694 247.509 749.412 247.216L748.917 246.681H748.828L748.52 246.507C748.222 246.338 747.904 246.207 747.574 246.116H747.504C747.37 246.081 747.232 246.056 747.093 246.032H746.969C746.814 246.009 746.659 245.998 746.503 245.997H746.101L745.71 246.066L745.407 246.136H745.343L745.065 246.225H745.011C744.915 246.258 744.821 246.298 744.728 246.344C744.6 246.403 744.5 246.453 744.406 246.507L744.104 246.681H742.121V231.712H746.617V228.242H737.313V198.125H745.685V196.142H737.313V183.458H735.826V105.915H740.907V103.932H735.816V90.0388H734.865V43.2374H734.835V90.0388H733.888V103.942H728.798V105.925H733.878V183.468H732.391V196.152H724.019V198.135H732.391V228.296H723.112V231.766H727.608V249.239L725.625 248.019C725.122 247.708 724.52 247.598 723.94 247.712L723.618 247.771L723.32 247.915C723.03 248.057 722.774 248.258 722.569 248.507C722.364 248.756 722.214 249.046 722.131 249.358L722.051 249.655V249.933C722.06 250.157 722.1 250.379 722.17 250.592L722.74 252.227H716.401V255.697H726.512V269.14L725.521 269.383C724.791 269.562 724.106 269.89 723.509 270.346C722.912 270.802 722.416 271.377 722.051 272.035L721.863 272.386L721.719 272.788C721.524 273.333 721.423 273.909 721.422 274.488C721.422 274.632 721.431 274.776 721.447 274.919L721.476 275.306L721.566 275.678C721.633 275.959 721.724 276.235 721.838 276.5L722.572 278.216H716.376V281.685H726.488V291.926L725.551 292.184C711.93 295.926 702.413 308.045 702.413 321.711V322.955H698.294V328.67H700.039V334.197H701.769V341.989H703.325V347.58H706.75V350.058H705.164V355.778H706.577V361.34H708.435V369.127H723.588L722.27 603.401H718.225L718.195 607.143H713.734V618.048H718.126L718.051 620.526H713.734V735.522H717.164V738.001H577.221V741.51H578.896V754.031H577.221V773.962ZM749.68 273.774H750.017V273.626H749.611V273.665L749.68 273.774ZM719.167 247.791H719.984L720.064 247.647H719.167V247.791ZM760.763 350.058H756.659V347.58H760.763V350.058ZM754.939 350.058H750.31V347.58H754.939V350.058ZM748.59 350.058H744.49V347.58H748.59V350.058ZM742.77 350.058H738.666V347.58H742.77V350.058ZM732.857 350.058V347.58H736.956V350.058H732.857ZM726.508 350.058V347.58H731.137V350.058H726.508ZM720.683 350.058V347.58H724.783V350.058H720.683ZM714.339 350.058V347.58H718.968V350.058H714.339ZM712.619 350.058H708.515V347.58H712.619V350.058Z" fill="#1D1D1B"/>
</g>
</g>
</svg>
