<svg width="414" height="498" viewBox="0 0 414 498" fill="none" xmlns="http://www.w3.org/2000/svg">
<g opacity="0.09">
<path d="M-66.9421 430.938L-67.0504 430.854C-78.0563 422.647 -85.4802 405.612 -89.1164 380.224C-92.1109 359.3 -92.5711 332.607 -90.4701 300.895C-86.0623 234.052 -72.3869 171.298 -71.8048 168.658C-63.3953 130.394 -59.7727 83.9143 -59.7375 83.4513L-59.6996 82.9775L-59.2393 83.0885C-47.7055 85.8393 -38.2347 88.2707 -30.0635 92.3969C-21.0449 96.9481 -14.2031 103.322 -8.53092 112.457C3.8531 132.403 12.1705 168.501 19.2776 233.124C26.7936 301.487 43.6124 351.089 56.3999 380.657C70.2432 412.678 82.4567 428.734 82.5785 428.891L83.074 429.535H82.2617L-66.9421 430.938ZM-58.974 83.9739C-59.3801 88.9881 -63.0542 132.576 -71.0223 168.824C-71.6017 171.458 -85.2664 234.155 -89.6687 300.949C-91.7589 332.626 -91.2932 359.252 -88.315 380.121C-84.7249 405.203 -77.4444 422.03 -66.6795 430.133L81.4495 428.742C79.0561 425.444 67.9852 409.519 55.6445 380.979C47.4923 362.13 40.3851 341.534 34.5262 319.768C27.1943 292.564 21.801 263.453 18.4681 233.213C3.7502 99.4011 -15.944 94.2407 -58.974 83.9739Z" fill="#1D1D1B"/>
<path d="M39.2021 429.931L41.1461 339.545L41.8852 341.846C42.3428 343.273 42.8139 344.714 43.3256 346.249L43.3473 346.316L41.5495 429.931H39.2021ZM41.8528 344.375L40.0306 429.119H40.7562L42.535 346.452C42.2995 345.742 42.0721 345.057 41.8528 344.375Z" fill="#1D1D1B"/>
<path d="M60.331 429.741L61.1595 391.216L61.8933 392.756C62.3878 393.792 62.8779 394.807 63.3634 395.8L63.4067 395.886L62.6784 429.708L60.331 429.741ZM61.896 394.646L61.1595 428.923H61.8851L62.5918 396.089L61.896 394.646Z" fill="#1D1D1B"/>
<path d="M51.8786 429.82L53.1051 372.825L53.8442 374.615C54.3316 375.797 54.818 376.96 55.3036 378.102L55.3361 378.183L54.226 429.799L51.8786 429.82ZM53.8334 376.7L52.7071 429.003H53.4327L54.5157 378.348C54.2937 377.796 54.0635 377.252 53.8334 376.7Z" fill="#1D1D1B"/>
<path d="M64.5632 429.701L65.2103 399.529L65.944 400.962C66.4394 401.934 66.9322 402.889 67.4169 403.81L67.4656 403.902L66.9241 429.68L64.5632 429.701ZM65.9521 402.754L65.3917 428.881H66.1173L66.6588 404.1C66.4124 403.669 66.1876 403.206 65.9467 402.754H65.9521Z" fill="#1D1D1B"/>
<path d="M47.6522 429.861L49.1007 362.594L49.8398 364.53C50.3253 365.793 50.81 367.043 51.2937 368.279L51.3235 368.355L49.9995 429.837L47.6522 429.861ZM49.8181 366.742L48.4644 429.041H49.19L50.4923 368.507L49.8181 366.742Z" fill="#1D1D1B"/>
<path d="M73.0078 429.621L73.3327 414.546L74.0556 415.772C74.5673 416.636 75.0628 417.465 75.5366 418.242L75.5989 418.344L75.3552 429.599L73.0078 429.621ZM74.0908 417.402L73.8444 428.803H74.57L74.7921 418.569C74.5538 418.187 74.3101 417.798 74.0827 417.402H74.0908Z" fill="#1D1D1B"/>
<path d="M77.2341 429.582L77.4127 421.275L78.1302 422.394C78.6311 423.171 79.1158 423.912 79.6139 424.66L79.6843 424.765L79.5814 429.56L77.2341 429.582ZM78.1654 423.937L78.0625 428.762H78.7882L78.8694 425.009C78.6365 424.653 78.4019 424.296 78.1654 423.937Z" fill="#1D1D1B"/>
<path d="M-3.05612 430.337L3.19003 140.033L3.92649 142.603C4.41112 144.292 4.89035 146.044 5.35333 147.812V147.923L-0.722271 430.313L-3.05612 430.337ZM3.88316 145.456L-2.22761 429.517H-1.50203L4.55461 147.963C4.3344 147.122 4.11058 146.287 3.88316 145.456Z" fill="#1D1D1B"/>
<path d="M81.4605 429.541L81.5065 427.435L82.2105 428.398C82.4433 428.715 82.5706 428.88 82.5706 428.883L83.066 429.527L81.4605 429.541Z" fill="#1D1D1B"/>
<path d="M13.8468 430.178L18.1463 230.317L18.9585 230.282C19.0614 231.222 19.167 232.177 19.2726 233.114C19.5433 235.648 19.8628 238.299 20.2527 241.461V241.521L16.1915 430.157L13.8468 430.178ZM18.8258 236.409L14.6753 429.361H15.4009L19.4404 241.54C19.213 239.677 19.0099 237.996 18.8258 236.409Z" fill="#1D1D1B"/>
<path d="M9.62014 430.219L14.5451 201.331L15.3573 201.282C15.7986 204.455 16.2427 207.799 16.6813 211.221V211.281L11.9703 430.197L9.62014 430.219ZM15.2436 206.519L10.4486 429.398H11.1743L15.8663 211.3C15.6606 209.683 15.453 208.089 15.2436 206.519Z" fill="#1D1D1B"/>
<path d="M1.1676 430.297L7.09699 154.786L7.82528 158.035C8.3018 160.171 8.77291 162.367 9.22235 164.576V164.666L3.50686 430.27L1.1676 430.297ZM7.76302 161.558L1.9961 429.479H2.72169L8.4074 164.714C8.20434 163.653 7.97691 162.6 7.76302 161.558Z" fill="#1D1D1B"/>
<path d="M34.9759 429.976L37.2041 326.418L37.9406 328.958C38.3981 330.523 38.8638 332.101 39.3728 333.782L39.3918 333.845L37.3233 429.96L34.9759 429.976ZM37.9 331.695L35.8044 429.164H36.53L38.5714 333.956C38.344 333.184 38.1193 332.434 37.9 331.695Z" fill="#1D1D1B"/>
<path d="M26.523 430.059L29.42 295.462L30.1483 298.689C30.6573 300.936 31.1176 302.921 31.5535 304.754V304.857L28.8595 430.037L26.523 430.059ZM30.0887 302.06L27.3515 429.241H28.0771L30.7521 304.9C30.5382 303.99 30.3189 303.051 30.0887 302.06Z" fill="#1D1D1B"/>
<path d="M22.2967 430.1L25.6025 276.545L26.3227 280.319C26.7451 282.528 27.1972 284.819 27.7062 287.321V287.41L24.6387 430.075L22.2967 430.1ZM26.2496 284.18L23.1252 429.279H23.8508L26.9048 287.445C26.6747 286.314 26.4581 285.231 26.2496 284.18Z" fill="#1D1D1B"/>
<g style="mix-blend-mode:color-burn" opacity="0.39">
<path d="M-66.942 430.941L-67.0503 430.858C-78.0562 422.651 -85.4801 405.618 -89.1163 380.228C-92.1107 359.304 -92.571 332.611 -90.47 300.898C-86.0622 234.056 -72.3868 171.302 -71.8074 168.662C-63.3952 130.398 -59.7726 83.9182 -59.7374 83.4553L-59.7022 82.9814L-59.2392 83.0925C-47.7081 85.8433 -38.2346 88.2746 -30.0634 92.4008C-21.0448 96.9521 -14.2057 103.325 -8.53351 112.46C3.85322 132.407 12.1706 168.505 19.2777 233.127C26.7937 301.494 43.6126 351.092 56.4 380.661C70.2433 412.682 82.4568 428.738 82.5786 428.895L83.0741 429.542H82.2619L-66.942 430.941ZM-58.9739 83.9805C-59.38 88.9921 -63.0541 132.582 -71.0222 168.828C-71.6016 171.462 -85.2662 234.159 -89.6686 300.953C-91.7588 332.63 -91.2931 359.255 -88.3149 380.125C-84.7247 405.207 -77.4443 422.034 -66.6794 430.137L81.4496 428.746C79.0535 425.448 67.9853 409.523 55.6446 380.983C47.4924 362.134 40.3853 341.538 34.5263 319.772C27.1944 292.568 21.8011 263.457 18.4682 233.217C3.75033 99.405 -15.9439 94.2446 -58.9739 83.9805Z" fill="#1D1D1B"/>
</g>
<g style="mix-blend-mode:color-burn" opacity="0.39">
<path d="M-66.9424 430.942L-67.0507 430.86C-67.2105 430.741 -67.3648 430.619 -67.5191 430.495L-68.5832 429.658L34.8805 427.728C33.1477 421.463 16.0608 357.666 2.33659 232.86C-10.616 115.038 -27.3239 97.499 -59.7757 87.6384L-60.0898 87.5436L-60.0627 87.216C-59.8488 84.7793 -59.7459 83.4445 -59.7459 83.4445L-59.7107 82.9707L-59.2478 83.0817C-47.7166 85.8325 -38.2431 88.2638 -30.072 92.39C-21.0533 96.9413 -14.2142 103.315 -8.53937 112.45C3.84465 132.396 12.162 168.495 19.2692 233.117C26.7824 301.462 43.5959 351.052 56.3616 380.615C70.2077 412.65 82.4347 428.727 82.5565 428.884L83.052 429.531H82.2398L-66.9424 430.942ZM-59.2261 86.9588C-42.4695 92.103 -30.0828 99.5215 -20.2194 120.318C-10.3182 141.19 -3.11357 175.873 3.14342 232.77C17.5337 363.653 35.6196 427.384 35.801 428.012L35.9473 428.521L-33.616 429.815L81.4519 428.732C79.0558 425.435 67.9876 409.509 55.6469 380.97C47.4946 362.12 40.3875 341.524 34.5285 319.759C27.1967 292.554 21.8034 263.443 18.4705 233.203C3.75801 99.4024 -15.9362 94.2419 -58.9635 83.9779C-59.0176 84.5275 -59.1016 85.5401 -59.2261 86.9588Z" fill="#1D1D1B"/>
</g>
<path d="M296.998 431.241H296.865L163.584 429.294L164.082 428.653C164.19 428.512 175.129 414.281 187.583 385.875C199.076 359.661 214.244 315.67 221.237 254.971C227.849 197.556 235.405 165.515 246.506 147.838C251.593 139.74 257.709 134.101 265.751 130.093C273.039 126.463 281.47 124.343 291.743 121.952L292.205 121.844L292.238 122.318C292.262 122.732 295.273 164.056 302.57 198.097C303.073 200.445 314.94 256.284 318.544 315.716C320.255 343.922 319.724 367.648 316.965 386.235C313.614 408.793 306.931 423.909 297.103 431.16L296.998 431.241ZM165.195 428.504L296.735 430.426C306.325 423.276 312.864 408.368 316.167 386.116C318.92 367.586 319.448 343.914 317.74 315.764C314.133 256.395 302.28 200.612 301.766 198.26C294.878 166.127 291.81 127.54 291.456 122.84C253.22 131.753 235.711 136.291 222.028 255.057C218.933 281.913 213.997 307.772 207.353 331.917C202.038 351.238 195.624 369.511 188.292 386.229C177.289 411.352 167.447 425.431 165.195 428.504Z" fill="#1D1D1B"/>
<path d="M270.299 430.852L268.133 430.819L263.26 131.437L263.471 131.32C263.91 131.071 264.37 130.822 264.825 130.578L265.407 130.272L270.299 430.852ZM268.921 430.02H269.463L264.589 131.599L264.048 131.9L268.921 430.02Z" fill="#1D1D1B"/>
<path d="M274.054 430.906L271.888 430.873L266.961 129.512L267.202 129.401C267.651 129.193 268.102 128.99 268.556 128.792L269.097 128.551L274.054 430.906ZM272.676 430.075H273.218L268.331 129.78L267.789 130.026L272.676 430.075Z" fill="#1D1D1B"/>
<path d="M281.565 431.014L279.399 430.982L274.422 126.566L274.707 126.474C275.156 126.325 275.611 126.176 276.061 126.033L276.58 125.87L281.565 431.014ZM280.187 430.183H280.742L275.795 126.964L275.254 127.14L280.187 430.183Z" fill="#1D1D1B"/>
<path d="M247.765 430.521L245.599 430.489L241.156 158.116L241.191 158.035C241.624 157.055 242.068 156.083 242.515 155.152L243.257 153.608L247.765 430.521ZM246.387 429.69H246.942L242.493 157.09C242.313 157.486 242.132 157.884 241.952 158.284L246.387 429.69Z" fill="#1D1D1B"/>
<path d="M251.52 430.579L249.354 430.547L244.781 150.767L244.833 150.672C245.274 149.887 245.723 149.12 246.17 148.395L246.898 147.209L251.52 430.579ZM250.142 429.748H250.697L246.132 150.033C245.954 150.342 245.772 150.656 245.591 150.972L250.142 429.748Z" fill="#1D1D1B"/>
<path d="M262.789 430.743L260.623 430.713L255.814 136.71L255.958 136.589C256.393 136.207 256.851 135.825 257.311 135.451L257.956 134.932L262.789 430.743ZM261.408 429.912H261.963L257.179 136.613L256.637 137.079L261.408 429.912Z" fill="#1D1D1B"/>
<path d="M259.033 430.686L256.867 430.654L252.121 140.366L252.229 140.249C252.69 139.743 253.144 139.261 253.583 138.82L254.26 138.135L259.033 430.686ZM257.652 429.855H258.207L253.48 140.09C253.301 140.279 253.117 140.477 252.939 140.674L257.652 429.855Z" fill="#1D1D1B"/>
<path d="M305.529 421.923L301.887 198.729L302.7 198.637C303.163 200.803 303.661 203.269 304.183 205.947V206.017L307.646 418.257L307.598 418.346C307.167 419.158 306.718 419.954 306.26 420.718L305.529 421.923ZM302.77 203.02L306.29 419.034C306.474 418.709 306.653 418.379 306.831 418.048L303.374 206.053C303.164 205.009 302.961 203.998 302.765 203.02H302.77Z" fill="#1D1D1B"/>
<path d="M317.008 385.97L316.196 385.918L314.442 278.431L315.254 278.38C315.852 283.705 316.399 289.009 316.878 294.146L318.216 376.004V376.028C317.878 379.456 317.471 382.805 317.008 385.97ZM315.403 287.347L316.922 380.43C317.095 378.963 317.257 377.468 317.404 375.958L316.069 294.175C315.86 291.934 315.638 289.651 315.403 287.347Z" fill="#1D1D1B"/>
<path d="M312.769 405.639L310.161 245.762L310.974 245.694C311.515 249.271 312.027 252.888 312.517 256.451V256.5L314.821 397.79V397.836C314.42 399.59 313.987 401.304 313.535 402.934L312.769 405.639ZM311.074 252.049L313.486 399.877C313.667 399.155 313.839 398.433 314.003 397.711L311.702 256.546C311.496 255.053 311.287 253.554 311.074 252.049Z" fill="#1D1D1B"/>
<path d="M285.32 431.071L283.154 431.039L278.159 125.4L278.457 125.313C278.906 125.18 279.361 125.042 279.811 124.923L280.317 124.782L285.32 431.071ZM283.942 430.24H284.497L279.537 125.846L278.996 126.006L283.942 430.24Z" fill="#1D1D1B"/>
<path d="M301.85 426.809L297.767 176.511L298.579 176.44C299.066 179.486 299.575 182.494 300.09 185.375V185.44L303.986 424.137L303.902 424.248C303.433 424.882 302.992 425.447 302.548 425.975L301.85 426.809ZM298.666 181.98L302.624 424.584C302.803 424.354 302.981 424.118 303.165 423.869L299.275 185.481C299.072 184.333 298.869 183.163 298.666 181.98Z" fill="#1D1D1B"/>
<path d="M292.833 431.18L290.668 431.15L285.637 123.407L285.948 123.328L287.302 122.998L287.795 122.879L292.833 431.18ZM291.453 430.351H292.008L287.01 123.905L286.468 124.04L291.453 430.351Z" fill="#1D1D1B"/>
<path d="M296.594 431.236L294.428 431.203L289.392 122.507L291.558 121.998L296.594 431.236ZM295.213 430.404H295.768L290.748 123.016L290.207 123.146L295.213 430.404Z" fill="#1D1D1B"/>
<path d="M202.699 429.865L200.533 429.832L199.309 355.477L199.331 355.412C199.766 354.126 200.199 352.824 200.63 351.505L201.383 349.206L202.699 429.865ZM201.318 429.033H201.86L200.636 354.036L200.094 355.609L201.318 429.033Z" fill="#1D1D1B"/>
<path d="M183.92 429.591L181.754 429.558L181.256 399.44L181.299 399.354C181.736 398.475 182.175 397.572 182.617 396.646L183.359 395.108L183.92 429.591ZM182.542 428.76H183.083L182.609 398.525L182.068 399.608L182.542 428.76Z" fill="#1D1D1B"/>
<path d="M187.675 429.643L185.509 429.611L184.894 391.855L184.932 391.771C185.368 390.826 185.807 389.876 186.248 388.885L186.995 387.23L187.675 429.643ZM186.297 428.812H186.838L186.218 390.853C186.04 391.243 185.861 391.633 185.677 392.017L186.297 428.812Z" fill="#1D1D1B"/>
<path d="M191.43 429.699L189.264 429.669L188.517 383.737L188.55 383.655C188.986 382.643 189.424 381.612 189.863 380.564L190.61 378.779L191.43 429.699ZM190.052 428.868H190.594L189.838 382.637C189.662 383.057 189.484 383.471 189.297 383.886L190.052 428.868Z" fill="#1D1D1B"/>
<path d="M180.172 429.535L178.007 429.505L177.633 406.537L177.682 406.445C178.115 405.633 178.556 404.783 179.003 403.922L179.742 402.492L180.172 429.535ZM178.794 428.706H179.336L178.962 405.692L178.421 406.71L178.794 428.706Z" fill="#1D1D1B"/>
<path d="M195.185 429.757L193.019 429.724L192.129 375.033L192.158 374.957C192.593 373.874 193.03 372.766 193.469 371.632L194.216 369.699L195.185 429.757ZM193.807 428.925H194.349L193.45 373.823C193.271 374.272 193.095 374.719 192.908 375.176L193.807 428.925Z" fill="#1D1D1B"/>
<path d="M172.654 429.425L170.488 429.393L170.323 419.332L170.385 419.232C170.81 418.541 171.254 417.808 171.712 417.041L172.443 415.82L172.654 429.425ZM171.273 428.594H171.814L171.652 418.663C171.471 418.964 171.289 419.259 171.111 419.546L171.273 428.594Z" fill="#1D1D1B"/>
<path d="M168.899 429.371L166.733 429.339L166.662 425.007L166.733 424.901C167.136 424.303 167.577 423.637 168.062 422.892L168.785 421.779L168.899 429.371ZM167.518 428.54H168.059L167.992 424.443C167.805 424.714 167.626 424.985 167.45 425.256L167.518 428.54Z" fill="#1D1D1B"/>
<path d="M240.254 430.414L238.088 430.382L233.994 179.219C234.417 177.649 234.85 176.092 235.289 174.598L236.039 172.028L240.254 430.414ZM238.876 429.583H239.418L235.305 177.449C235.129 178.082 234.956 178.724 234.782 179.368L238.876 429.583Z" fill="#1D1D1B"/>
<path d="M165.141 429.318L163.578 429.294L164.076 428.652C164.076 428.652 164.19 428.503 164.396 428.224L165.108 427.266L165.141 429.318Z" fill="#1D1D1B"/>
<path d="M198.943 429.81L196.777 429.778L195.729 365.637L195.756 365.567C196.191 364.385 196.626 363.186 197.061 361.971L197.811 359.873L198.943 429.81ZM197.562 428.979H198.104L197.051 364.319C196.872 364.803 196.696 365.285 196.509 365.767L197.562 428.979Z" fill="#1D1D1B"/>
<path d="M176.409 429.478L174.243 429.448L173.972 413.16L174.026 413.062C174.46 412.304 174.898 411.522 175.35 410.71L176.087 409.386L176.409 429.478ZM175.031 428.647H175.572L175.302 412.402C175.12 412.724 174.939 413.041 174.76 413.355L175.031 428.647Z" fill="#1D1D1B"/>
<path d="M225.23 430.203L223.064 430.171L220.333 262.399C220.695 259.583 220.985 257.228 221.242 254.983C221.34 254.138 221.437 253.302 221.535 252.468L222.347 252.508L225.23 430.203ZM223.852 429.372H224.394L221.608 258.565C221.459 259.781 221.296 261.067 221.118 262.464L223.852 429.372Z" fill="#1D1D1B"/>
<path d="M228.988 430.249L226.822 430.217L223.638 235.535C224.042 232.508 224.451 229.538 224.862 226.706L225.674 226.757L228.988 430.249ZM227.608 429.418H228.149L224.927 231.942C224.762 233.147 224.597 234.379 224.432 235.597L227.608 429.418Z" fill="#1D1D1B"/>
<path d="M236.488 430.357L234.322 430.327L230.477 194.11C230.889 192.15 231.317 190.195 231.75 188.303L232.497 185.04L236.488 430.357ZM235.11 429.528H235.651L231.774 191.811C231.601 192.61 231.428 193.414 231.26 194.221L235.11 429.528Z" fill="#1D1D1B"/>
<path d="M210.209 429.975L208.043 429.942L206.435 332.226L206.451 332.17C206.909 330.507 207.331 328.953 207.737 327.415L208.487 324.586L210.209 429.975ZM208.831 429.143H209.373L207.764 330.412C207.594 331.035 207.421 331.669 207.239 332.308L208.831 429.143Z" fill="#1D1D1B"/>
<path d="M206.454 429.931L204.288 429.902L202.894 344.421L202.913 344.359C203.37 342.872 203.793 341.472 204.207 340.075L204.957 337.544L206.454 429.931ZM205.076 429.1H205.617L204.21 342.802C204.039 343.365 203.866 343.939 203.684 344.524L205.076 429.1Z" fill="#1D1D1B"/>
<path d="M213.964 430.03L211.798 429.997L209.995 318.585C210.393 316.944 210.807 315.184 211.27 313.199L212.018 309.978L213.964 430.03ZM212.586 429.199H213.128L211.289 316.568C211.111 317.315 210.94 318.032 210.77 318.734L212.586 429.199Z" fill="#1D1D1B"/>
<path d="M217.72 430.083L215.554 430.05L213.475 303.107C213.935 300.909 214.349 298.875 214.736 296.893L215.478 293.119L217.72 430.083ZM216.342 429.251H216.883L214.785 300.738C214.62 301.55 214.449 302.362 214.273 303.221L216.342 429.251Z" fill="#1D1D1B"/>
<g style="mix-blend-mode:color-burn" opacity="0.39">
<path d="M296.998 431.243H296.862L163.578 429.296L164.077 428.655C164.185 428.514 175.123 414.283 187.578 385.877C199.071 359.663 214.238 315.674 221.232 254.973C227.849 197.558 235.405 165.517 246.506 147.84C251.593 139.742 257.709 134.102 265.751 130.095C273.039 126.465 281.47 124.345 291.743 121.954L292.205 121.846L292.238 122.32C292.262 122.734 295.273 164.055 302.57 198.099C303.073 200.447 314.94 256.286 318.544 315.718C320.255 343.924 319.724 367.65 316.965 386.234C313.614 408.795 306.931 423.911 297.103 431.162L296.998 431.243ZM165.195 428.506L296.735 430.428C306.325 423.278 312.864 408.37 316.169 386.115C318.92 367.587 319.448 343.916 317.74 315.766C314.133 256.397 302.28 200.614 301.766 198.262C294.878 166.129 291.81 127.542 291.456 122.842C253.22 131.755 235.711 136.293 222.028 255.059C218.933 281.915 213.997 307.774 207.353 331.919C202.038 351.24 195.624 369.512 188.292 386.231C177.289 411.357 167.447 425.433 165.195 428.506Z" fill="#1D1D1B"/>
</g>
<g style="mix-blend-mode:overlay">
<path d="M296.998 431.243H296.863L163.579 429.296L164.077 428.655C164.185 428.514 175.123 414.283 187.578 385.877C199.071 359.663 214.238 315.674 221.232 254.973C227.849 197.558 235.405 165.517 246.506 147.84C251.593 139.742 257.71 134.102 265.751 130.095C273.039 126.465 281.471 124.345 291.743 121.954L292.206 121.846L292.238 122.32C292.238 122.32 292.325 123.519 292.509 125.671L292.536 125.999L292.219 126.094C263.352 134.701 248.431 150.207 236.375 254.834C223.65 365.335 208.217 421.954 206.568 427.842L298.582 430.036L297.534 430.848C297.396 430.959 297.263 431.067 297.114 431.173L296.998 431.243ZM165.195 428.506L257.609 429.86L205.49 428.617L205.639 428.11C205.805 427.553 222.171 370.983 235.565 254.745C241.389 204.199 247.955 173.404 256.851 154.893C265.716 136.455 276.757 129.903 291.667 125.414C291.569 124.217 291.502 123.346 291.467 122.853C253.229 131.766 235.722 136.304 222.039 255.07C218.944 281.926 214.008 307.785 207.364 331.93C202.049 351.251 195.635 369.523 188.303 386.242C177.289 411.357 167.448 425.433 165.195 428.506Z" fill="#1D1D1B"/>
</g>
<g style="mix-blend-mode:color-burn" opacity="0.39">
<path d="M296.998 431.242H296.865L248.076 431.393L248.986 430.668C267.316 416.047 282.163 379.309 290.789 327.242C298.1 283.08 299.784 232.702 295.062 198.891C290.754 168.026 287.237 136.297 286.165 124.081C286.119 124.087 286.073 124.084 286.029 124.072C285.984 124.06 285.943 124.039 285.907 124.011C285.87 123.982 285.84 123.947 285.817 123.907C285.795 123.867 285.78 123.823 285.775 123.777C285.707 123.477 285.91 123.352 286.111 123.287L286.287 123.239L287.123 123.041C287.936 122.846 289.36 122.499 291.726 121.958L292.189 121.85L292.222 122.323C292.262 122.735 295.27 164.057 302.567 198.1C303.071 200.448 314.937 256.29 318.541 315.719C320.252 343.925 319.722 367.651 316.963 386.235C313.611 408.797 306.929 423.912 297.101 431.163L296.998 431.242ZM250.378 430.575L296.73 430.432C306.322 423.284 312.861 408.374 316.164 386.119C318.917 367.589 319.445 343.92 317.737 315.767C314.131 256.398 302.277 200.616 301.763 198.263C294.875 166.13 291.807 127.543 291.453 122.843C288.94 123.428 287.627 123.737 286.953 123.899C288.014 136.031 291.537 167.842 295.855 198.769C300.585 232.653 298.906 283.129 291.577 327.374C283.057 378.803 268.458 415.362 250.378 430.575Z" fill="#1D1D1B"/>
</g>
<path d="M165.752 431.393H165.455L124.314 430.402L82.89 431.398L82.7925 431.128C76.1565 411.78 78.309 379.396 81.2818 355.638C84.5308 329.616 89.6046 306.979 90.3925 304.342C91.7462 299.766 97.6133 261.655 97.9734 249.948C98.3335 238.45 101.477 225.489 105.617 218.431C108.438 213.619 120.448 210.519 123.665 210.013V209.861L124.312 209.932L124.959 209.861V210.013C128.175 210.519 140.186 213.619 143.01 218.431C147.149 225.489 150.29 238.45 150.65 249.948C151.018 261.653 156.877 299.766 158.231 304.342C159.016 306.979 164.085 329.616 167.342 355.638C170.32 379.396 172.464 411.78 165.828 431.128L165.752 431.393ZM124.328 429.584L165.189 430.57C171.66 411.347 169.521 379.285 166.57 355.727C163.321 329.751 158.269 307.184 157.487 304.555C156.114 299.953 150.233 261.699 149.865 249.956C149.51 238.585 146.413 225.776 142.333 218.82C139.736 214.394 127.799 211.128 124.531 210.747L124.339 210.725L124.147 210.747C120.879 211.128 108.939 214.394 106.342 218.82C102.265 225.773 99.1674 238.585 98.8127 249.956C98.4445 261.699 92.5638 299.958 91.1912 304.555C90.406 307.179 85.3565 329.735 82.1076 355.727C79.1591 379.282 77.0175 411.336 83.4857 430.57L124.328 429.584Z" fill="#1D1D1B"/>
<g opacity="0.8">
<path d="M105.546 430.85V218.583L105.644 218.413C106.043 217.765 106.538 217.182 107.111 216.682L107.788 216.073V430.793L105.546 430.85ZM106.359 218.802V430.018H106.976V217.966C106.745 218.225 106.538 218.505 106.359 218.802Z" fill="#1D1D1B"/>
<path d="M101.618 430.944V228.089L101.637 228.029C102.078 226.597 102.563 225.2 103.074 223.878L103.857 221.861V430.879L101.618 430.944ZM102.43 228.21V430.113L103.047 430.099V226.329C102.834 226.935 102.628 227.569 102.43 228.224V228.21Z" fill="#1D1D1B"/>
<path d="M117.335 430.565V211.606L117.605 211.517C118.095 211.362 118.577 211.216 119.043 211.083L119.56 210.935V430.511L117.335 430.565ZM118.147 212.202V429.734H118.764V212.015L118.147 212.202Z" fill="#1D1D1B"/>
<path d="M113.406 430.658V213.039L113.658 212.936C114.132 212.741 114.616 212.552 115.098 212.376L115.64 212.173V430.604L113.406 430.658ZM114.218 213.583V429.827H114.838V213.332L114.218 213.583Z" fill="#1D1D1B"/>
<path d="M169.221 415.435L168.409 415.387V373.345L169.221 373.312C170.588 389.969 170.585 404.137 169.221 415.435ZM169.221 386.409V405.513C169.505 399.705 169.505 393.323 169.224 386.409H169.221Z" fill="#1D1D1B"/>
<path d="M82.909 431.393L82.8142 431.122C82.5435 430.353 82.289 429.511 81.9884 428.471L81.9722 428.36V350.488V350.461C82.4054 347.263 82.8873 343.963 83.4017 340.654L84.214 340.717V431.363L82.909 431.393ZM82.7845 428.293C83.0038 429.059 83.2041 429.717 83.4017 430.315V346.145C83.1879 347.626 82.9794 349.096 82.7845 350.542V428.293Z" fill="#1D1D1B"/>
<path d="M79.4758 415.583C78.0842 404.211 78.0842 389.908 79.4758 373.075L80.2881 373.108V415.526L79.4758 415.583ZM79.4758 385.949C79.1699 393.189 79.1699 399.849 79.4758 405.887V385.949Z" fill="#1D1D1B"/>
<path d="M89.8319 431.229V306.598C90.0864 305.515 90.2894 304.703 90.4005 304.329C90.6008 303.666 90.8878 302.344 91.256 300.4L92.0682 300.476V431.174L89.8319 431.229ZM90.6441 306.736V430.397H91.2614V304.305C91.237 304.397 91.2154 304.478 91.191 304.554C91.0963 304.914 90.8851 305.704 90.6414 306.741L90.6441 306.736Z" fill="#1D1D1B"/>
<path d="M93.7605 431.133V285.349C94.2533 282.1 94.7352 278.802 95.1874 275.551L95.9996 275.608V431.079L93.7605 431.133ZM94.5728 285.441V430.291H95.1928V281.304C94.9888 282.689 94.7813 284.068 94.5701 285.441H94.5728Z" fill="#1D1D1B"/>
<path d="M154.936 431.132L152.697 431.078V275.747L153.509 275.69C153.964 278.939 154.446 282.243 154.939 285.478V431.14L154.936 431.132ZM153.509 430.288H154.126V285.57C153.918 284.2 153.712 282.819 153.509 281.436V430.288Z" fill="#1D1D1B"/>
<path d="M151.008 431.037L148.769 430.983V238.982L149.581 238.917C150.191 242.561 150.56 246.241 150.685 249.934C150.726 251.22 150.837 252.893 151.016 254.913V431.037H151.008ZM149.578 430.2H150.198V254.967C150.019 252.942 149.908 251.255 149.868 249.961C149.819 248.437 149.722 246.886 149.578 245.307V430.2Z" fill="#1D1D1B"/>
<path d="M165.766 431.392L164.485 431.363V340.854L165.297 340.792C165.812 344.103 166.294 347.406 166.73 350.615V428.349L166.713 428.403C166.416 429.446 166.14 430.336 165.869 431.111L165.766 431.392ZM165.281 346.269V430.255C165.479 429.646 165.685 428.977 165.901 428.225V350.685C165.712 349.234 165.505 347.762 165.281 346.269Z" fill="#1D1D1B"/>
<path d="M162.796 431.323L160.554 431.269V318.524L161.366 318.445C161.848 320.882 162.327 323.408 162.796 325.969V326.043V431.323ZM161.366 430.478H161.984V326.078C161.78 324.962 161.575 323.852 161.366 322.756V430.478Z" fill="#1D1D1B"/>
<path d="M127.433 430.472L125.194 430.418V210.029L125.674 210.121C126.104 210.203 126.591 210.308 127.119 210.433L127.433 210.506V430.472ZM126.004 429.628L126.621 429.644V211.15C126.407 211.101 126.202 211.058 126.004 211.018V429.628Z" fill="#1D1D1B"/>
<path d="M131.362 430.565L129.123 430.511V210.935L129.64 211.083C130.106 211.219 130.588 211.354 131.078 211.517L131.349 211.606L131.362 430.565ZM129.933 429.721L130.55 429.737V212.207L129.933 212.02V429.721Z" fill="#1D1D1B"/>
<path d="M143.15 430.849L140.911 430.795V216.092L141.588 216.706C142.154 217.201 142.641 217.778 143.034 218.418L143.075 218.491L143.15 218.623V430.849ZM141.721 430.004H142.338V218.821C142.16 218.523 141.954 218.242 141.724 217.982L141.721 430.004Z" fill="#1D1D1B"/>
<path d="M139.219 430.743L136.98 430.689V213.793L137.568 214.088C138.074 214.343 138.564 214.605 139.019 214.873L139.219 214.99V430.743ZM137.792 429.899H138.41V215.458C138.209 215.341 138.003 215.227 137.792 215.117V429.899Z" fill="#1D1D1B"/>
</g>
<g style="mix-blend-mode:color-burn" opacity="0.76">
<path d="M82.909 431.392L82.7979 431.122C76.1619 411.774 78.3144 379.39 81.2845 355.632C84.5335 329.61 89.61 306.973 90.3979 304.336C91.7516 299.76 97.6187 261.65 97.9788 249.942C98.1738 244.565 98.8672 239.218 100.05 233.968C100.21 233.259 100.359 232.615 100.513 232.016V231.976C100.678 231.318 100.835 230.719 100.992 230.151L101.006 230.097C101.013 230.074 101.02 230.05 101.025 230.026V229.996C102.324 225.321 103.905 221.332 105.606 218.425C106.913 216.196 110.184 214.382 113.26 213.094H113.135L115.258 212.308L115.388 212.262L115.491 212.227C115.832 212.105 116.168 211.989 116.503 211.875C116.839 211.762 117.197 211.645 117.54 211.537L118.06 211.372L118.491 211.239L118.572 211.22C120.24 210.713 121.937 210.308 123.654 210.007V209.855L124.301 209.926L124.948 209.855V210.007L125.173 210.042L125.652 210.132C126.082 210.213 126.57 210.318 127.098 210.443L127.412 210.519C127.953 210.651 128.525 210.79 129.101 210.96L129.618 211.104L129.889 211.188L130.049 211.228H130.106L130.163 211.247C131.262 211.572 132.35 211.932 133.398 212.33L135.548 213.115H135.337C135.9 213.35 136.441 213.59 136.961 213.835L137.549 214.122L137.689 214.198L137.781 214.247C138.128 214.426 138.466 214.607 138.786 214.789L138.875 214.837L139 214.905L139.2 215.032C139.786 215.382 140.351 215.767 140.892 216.183V216.14L141.569 216.735C141.686 216.843 141.805 216.957 141.932 217.084L142.081 217.209C142.415 217.553 142.711 217.932 142.966 218.338L143.345 218.955H143.283C143.992 220.24 144.625 221.565 145.178 222.924H145.246L145.349 223.176C145.49 223.526 145.62 223.883 145.766 224.259L145.974 224.801H145.939L145.969 224.882C146.399 226.054 146.759 227.116 147.071 228.131L147.09 228.237C147.144 228.413 147.195 228.589 147.247 228.778H147.282L147.366 229.07C147.474 229.436 147.574 229.783 147.672 230.137L147.815 230.652H147.777C147.894 231.082 148.01 231.534 148.129 232.005V232.046C148.281 232.658 148.438 233.31 148.59 233.987V234.055C148.63 234.239 148.674 234.423 148.712 234.596H148.766L148.833 234.916C148.909 235.271 148.98 235.628 149.053 235.983L149.147 236.467H149.115C149.288 237.358 149.434 238.173 149.562 238.945H149.578C149.662 239.443 149.732 239.941 149.805 240.439L149.878 240.783C149.922 241.086 149.96 241.39 150 241.693L150.082 242.31H150.065C150.228 243.602 150.363 244.931 150.469 246.277L150.539 247.005C150.558 247.243 150.577 247.481 150.591 247.72L150.618 248.147H150.593C150.628 248.735 150.661 249.352 150.68 249.964C150.699 250.576 150.737 251.318 150.791 252.13L150.829 252.49C150.853 252.829 150.88 253.183 150.91 253.549L150.943 253.985H150.932C150.959 254.296 150.986 254.616 151.016 254.94V255.13C151.094 256.002 151.186 256.949 151.286 257.957L151.354 258.314L151.514 259.825H151.473C151.609 261.07 151.76 262.4 151.928 263.791L152.001 264.149C152.044 264.498 152.088 264.853 152.131 265.207L152.188 265.662H152.155C152.315 266.959 152.483 268.286 152.662 269.634L152.738 269.98L152.938 271.502H152.908C153.084 272.815 153.263 274.142 153.45 275.469L153.517 275.818L153.731 277.339H153.715C153.896 278.672 154.086 279.994 154.286 281.306L154.354 281.652L154.579 283.179H154.562C154.679 283.962 154.795 284.739 154.914 285.505V285.635C154.994 286.144 155.071 286.649 155.147 287.149L155.234 287.49L155.472 289.02H155.44C155.656 290.398 155.87 291.727 156.076 292.986H156.108L156.42 294.857H156.387C156.634 296.319 156.864 297.648 157.078 298.823H157.11L157.17 299.156C157.237 299.525 157.302 299.877 157.367 300.215L157.457 300.697H157.44C157.779 302.465 158.055 303.727 158.253 304.355C158.277 304.433 158.307 304.539 158.339 304.663L158.437 304.967C158.51 305.254 158.599 305.611 158.708 306.033L158.829 306.534H158.81C158.81 306.591 158.835 306.648 158.848 306.707V306.816C159.1 307.899 159.39 309.128 159.68 310.501H159.712L159.782 310.82L160.01 311.884L160.113 312.374H160.08C160.351 313.644 160.622 314.973 160.893 316.341H160.949L161.323 318.212H161.291L161.342 318.482C161.575 319.66 161.816 320.9 162.059 322.192L162.141 322.519L162.43 324.062H162.414C162.531 324.699 162.652 325.346 162.772 326.006V326.126C162.853 326.578 162.937 327.035 163.021 327.498H163.053L163.386 329.372C163.614 330.659 163.842 331.981 164.071 333.338H164.104L164.418 335.209H164.385C164.6 336.505 164.814 337.827 165.027 339.176L165.113 339.519L165.352 341.049H165.336C165.536 342.352 165.735 343.675 165.934 345.016L166.002 345.362L166.221 346.887H166.205C166.381 348.127 166.557 349.375 166.73 350.642V350.861L166.808 351.205L167.009 352.727H166.976C167.15 354.034 167.317 355.364 167.483 356.693L167.558 357.05L167.74 358.564H167.718C167.87 359.861 168.021 361.19 168.17 362.533L168.241 362.893L168.403 364.404H168.371C168.511 365.758 168.641 367.082 168.769 368.37L168.834 368.739L168.972 370.244H168.942C169.034 371.278 169.126 372.315 169.213 373.355H169.229C169.251 373.626 169.269 373.896 169.291 374.154L169.362 374.847C169.383 375.117 169.405 375.388 169.424 375.645L169.456 376.081H169.44C169.535 377.375 169.627 378.705 169.711 380.048L169.751 380.429L169.816 381.494L169.841 381.921H169.825C169.895 383.202 169.96 384.534 170.019 385.888L170.055 386.275L170.079 386.968L170.109 387.761H170.093C170.141 389.088 170.176 390.417 170.204 391.728L170.228 392.123L170.244 393.187V393.599H170.225C170.244 394.99 170.25 396.306 170.241 397.565V397.974V398.218C170.241 398.488 170.241 398.759 170.241 399.03V399.431H170.223C170.204 400.784 170.171 402.116 170.125 403.397V403.817C170.125 404.058 170.106 404.293 170.095 404.531L170.063 405.268H170.047C169.984 406.603 169.906 407.932 169.811 409.234L169.768 410.047C169.751 410.279 169.735 410.512 169.716 410.742L169.684 411.116H169.667C169.543 412.567 169.397 413.983 169.24 415.332V415.537C169.199 415.86 169.158 416.179 169.115 416.499L169.056 416.953H169.029C168.842 418.345 168.636 419.661 168.417 420.92L168.357 421.399C168.306 421.67 168.251 421.941 168.2 422.211L168.086 422.785H168.059C167.788 424.177 167.483 425.509 167.163 426.752L167.055 427.261C166.971 427.583 166.881 427.897 166.784 428.214L166.657 428.625C166.386 429.581 166.115 430.407 165.869 431.143L165.774 431.414H165.476L124.323 430.423L82.909 431.392ZM124.314 429.584L165.197 430.569C165.428 429.879 165.666 429.107 165.92 428.225L165.942 428.095L166.026 427.802H166.05C166.083 427.691 166.113 427.58 166.145 427.469L166.24 427.025C166.63 425.56 166.995 423.96 167.323 422.276L167.388 421.949H167.415L167.472 421.648L167.526 421.218C167.797 419.745 168.04 418.145 168.262 416.461L168.308 416.109H168.338C168.338 416.008 168.362 415.908 168.376 415.811L168.422 415.221C168.598 413.761 168.752 412.221 168.882 410.642L168.928 410.269C168.928 410.187 168.928 410.103 168.947 410.02L168.964 409.584C169.083 408.024 169.177 406.421 169.234 404.818L169.251 404.431H169.267C169.267 404.337 169.267 404.244 169.28 404.161V403.768C169.34 402.244 169.378 400.638 169.399 399V398.599H169.416C169.416 398.515 169.416 398.432 169.416 398.35V397.941C169.416 396.425 169.416 394.863 169.397 393.171V392.762C169.397 392.675 169.397 392.591 169.397 392.491L169.375 392.099C169.345 390.531 169.299 388.926 169.24 387.328L169.226 386.908H169.24V386.638L169.204 386.27C169.14 384.645 169.061 383.021 168.972 381.499L168.947 381.068H168.964L168.947 380.817L168.907 380.438C168.809 378.813 168.698 377.213 168.582 375.667L168.549 375.231H168.566C168.566 375.147 168.566 375.063 168.547 374.979L168.501 374.606L168.465 374.175C168.465 373.972 168.436 373.769 168.419 373.566H168.403C168.304 372.321 168.196 371.077 168.081 369.835L168.04 369.391H168.07L168.046 369.12L167.983 368.76C167.837 367.217 167.675 365.611 167.501 363.987L167.455 363.54H167.488L167.458 363.269L167.39 362.917C167.214 361.293 167.03 359.693 166.849 358.144L166.795 357.689H166.827L166.798 357.438L166.719 357.083C166.524 355.483 166.321 353.877 166.113 352.31L166.053 351.852H166.094L166.058 351.581L165.98 351.235L165.918 350.644C165.724 349.233 165.529 347.839 165.33 346.461L165.262 345.998H165.281L165.243 345.728L165.176 345.389C164.956 343.888 164.733 342.407 164.507 340.949L164.38 340.137H164.412L164.374 339.882L164.288 339.544C164.031 337.919 163.773 336.325 163.516 334.771L163.438 334.299H163.467L163.427 334.048H163.386L163.329 333.709C163.059 332.085 162.788 330.476 162.517 328.936L162.433 328.459H162.466L162.42 328.21H162.387L162.328 327.875L162.013 326.134V326.015C161.865 325.202 161.718 324.412 161.572 323.632L161.483 323.153H161.502L161.453 322.882L161.372 322.56C161.101 321.182 160.855 319.852 160.608 318.604H160.592L160.321 317.302H160.354L160.302 317.05H160.27L160.205 316.725C159.872 315.071 159.539 313.476 159.217 311.952L159.111 311.462H159.144C159.127 311.378 159.108 311.294 159.089 311.213H159.057L158.989 310.893C158.659 309.377 158.356 308.018 158.082 306.856V306.745C158.031 306.523 157.982 306.32 157.933 306.125L157.814 305.624H157.83C157.809 305.53 157.787 305.44 157.765 305.354L157.673 305.069C157.608 304.823 157.554 304.617 157.514 304.487C157.313 303.813 157.032 302.527 156.674 300.659H156.661L156.496 299.782H156.528C156.515 299.701 156.498 299.617 156.482 299.533H156.45L156.39 299.2C156.138 297.819 155.848 296.221 155.556 294.416L155.478 293.944H155.513L155.469 293.693H155.437L155.38 293.354C155.134 291.849 154.876 290.246 154.614 288.573L154.541 288.104H154.573L154.533 287.853L154.449 287.511C154.351 286.889 154.255 286.257 154.159 285.616V285.486C154.021 284.579 153.888 283.653 153.745 282.722L153.674 282.259H153.691L153.588 281.661C153.355 280.085 153.125 278.487 152.897 276.882L152.832 276.419H152.827L152.792 276.167H152.762L152.711 275.818C152.489 274.218 152.269 272.62 152.058 271.039L151.998 270.579H152.015L151.979 270.33L151.901 269.975C151.69 268.351 151.484 266.75 151.295 265.196L151.238 264.742H151.27C151.27 264.658 151.251 264.574 151.24 264.49L151.165 264.132C150.961 262.44 150.777 260.832 150.623 259.351L150.574 258.902H150.607L150.58 258.65L150.509 258.287C150.39 257.136 150.287 256.053 150.198 255.073V254.884C150.155 254.407 150.117 253.944 150.082 253.5L150.046 253.064H150.065C150.065 252.98 150.065 252.896 150.046 252.812L150.006 252.436C149.938 251.445 149.892 250.584 149.87 249.877C149.846 249.122 149.803 248.361 149.759 247.655L149.732 247.224H149.751C149.751 247.14 149.751 247.056 149.732 246.972L149.686 246.599C149.567 244.974 149.416 243.382 149.202 241.844L149.142 241.384C149.142 241.295 149.118 241.205 149.104 241.113L149.034 240.786L148.99 240.477C148.923 240.003 148.855 239.532 148.779 239.061H148.766C148.614 238.13 148.433 237.139 148.224 236.029L148.127 235.544H148.159C148.143 235.46 148.127 235.376 148.108 235.292H148.075L148.008 234.973C147.943 234.664 147.875 234.358 147.805 234.052V234.02C147.658 233.37 147.504 232.723 147.355 232.125L147.737 231.989L147.344 232.087C147.179 231.429 147.022 230.83 146.868 230.264L146.597 229.723H146.751L146.678 229.474H146.646L146.513 229.022C146.443 228.783 146.375 228.545 146.302 228.31L146.283 228.204C145.982 227.221 145.63 226.192 145.214 225.058L144.778 223.886H144.802L144.705 223.634H144.669L144.566 223.382C143.948 221.838 143.224 220.338 142.4 218.893L142.346 218.798V218.76L142.325 218.728L142.281 218.663L142.062 218.3C141.928 218.119 141.785 217.945 141.632 217.78L141.499 217.672C141.431 217.602 141.366 217.534 141.301 217.472L141.055 217.252C140.305 216.59 139.488 216.008 138.618 215.514L138.437 215.406H138.41C138.101 215.23 137.773 215.051 137.438 214.864L137.351 214.818L137.213 214.751C136.455 214.369 135.624 213.993 134.741 213.632L134.346 213.473L133.804 213.259L133.598 213.18L133.555 213.161L131.541 212.43C131.043 212.264 130.54 212.106 130.033 211.956H129.951L129.697 211.878H129.648L129.429 211.818C128.573 211.572 127.739 211.353 126.949 211.166L126.635 211.09C126.342 211.025 126.066 210.966 125.806 210.914L125.536 210.863C125.138 210.787 124.788 210.73 124.531 210.7L124.339 210.679L124.147 210.7C122.331 210.988 120.538 211.406 118.783 211.954L118.705 211.97L118.344 212.081L117.822 212.246C117.483 212.354 117.145 212.465 116.799 212.582C116.452 212.698 116.149 212.801 115.824 212.92L115.586 213.007C112.185 214.247 107.821 216.256 106.342 218.774C104.672 221.619 103.112 225.57 101.832 230.197V230.31L101.788 230.354C101.639 230.895 101.488 231.477 101.331 232.111L100.927 232.051L101.32 232.149C101.171 232.753 101.022 233.381 100.865 234.074C99.6903 239.276 99.0032 244.577 98.8127 249.907C98.4445 261.65 92.5638 299.909 91.1911 304.506C90.406 307.13 85.3565 329.686 82.1076 355.678C79.1591 379.233 77.0175 411.287 83.4857 430.521L124.314 429.584Z" fill="#1D1D1B"/>
</g>
</g>
<g opacity="0.62">
<path d="M159.442 198.461C159.442 198.496 160.051 198.249 161.178 198C162.768 197.653 164.408 197.59 166.021 197.813C168.416 198.129 170.676 199.104 172.549 200.629C174.841 202.497 176.458 205.065 177.152 207.939C177.152 207.967 177.168 207.996 177.173 208.021L177.309 208.543L177.509 208.048C178.63 205.319 180.555 202.995 183.027 201.385C185.046 200.076 187.367 199.307 189.769 199.151C191.386 199.034 193.012 199.182 194.582 199.59C195.695 199.885 196.283 200.131 196.294 200.109C196.162 200.027 196.022 199.959 195.877 199.906C195.468 199.731 195.048 199.582 194.62 199.46C192.654 198.883 190.587 198.733 188.558 199.02C186.529 199.308 184.585 200.025 182.856 201.125C180.314 202.757 178.335 205.131 177.187 207.926L177.523 207.953L177.501 207.872C176.789 204.919 175.12 202.285 172.755 200.38C170.829 198.833 168.507 197.859 166.054 197.57C164.414 197.364 162.751 197.464 161.148 197.865C160.713 197.971 160.286 198.107 159.87 198.271C159.721 198.319 159.578 198.383 159.442 198.461Z" fill="#9C9B9B"/>
<path d="M111 171.878C111 171.907 111.344 171.783 111.961 171.656C112.834 171.477 113.73 171.451 114.612 171.577C115.916 171.757 117.146 172.294 118.164 173.129C119.411 174.148 120.291 175.548 120.668 177.114V177.157L120.804 177.68L121.004 177.184C121.615 175.699 122.661 174.432 124.004 173.551C125.103 172.833 126.366 172.406 127.675 172.311C128.559 172.241 129.449 172.314 130.31 172.527C130.922 172.679 131.249 172.798 131.26 172.782C131.271 172.766 131.187 172.728 131.035 172.655C130.812 172.549 130.583 172.459 130.348 172.384C129.261 172.052 128.116 171.96 126.991 172.113C125.865 172.266 124.787 172.66 123.828 173.269C122.414 174.172 121.314 175.489 120.677 177.041L121.012 177.068V177.022C120.611 175.39 119.682 173.937 118.37 172.888C117.475 172.179 116.427 171.688 115.31 171.453C114.193 171.218 113.036 171.246 111.931 171.534C111.692 171.596 111.458 171.676 111.23 171.772C111.148 171.795 111.071 171.831 111 171.878Z" fill="#9C9B9B"/>
<path d="M142.672 161C142.65 161.022 143.002 161.379 143.603 162.056C144.446 163.013 145.206 164.04 145.875 165.126C148.106 168.709 149.277 172.851 149.251 177.072C149.251 177.123 149.251 177.174 149.251 177.221L149.6 177.25C149.946 174.982 150.686 172.793 151.785 170.779C153.292 168.019 155.417 165.645 157.994 163.843C158.73 163.334 159.155 163.079 159.139 163.052C159.025 163.09 158.915 163.142 158.814 163.207C158.608 163.326 158.292 163.477 157.918 163.729C156.845 164.417 155.847 165.216 154.94 166.112C151.899 169.098 149.904 172.987 149.254 177.199L149.606 177.229C149.606 177.18 149.606 177.128 149.606 177.074C149.636 172.789 148.412 168.589 146.086 164.991C145.392 163.907 144.594 162.894 143.704 161.964C143.398 161.628 143.124 161.398 142.954 161.233C142.87 161.143 142.776 161.065 142.672 161Z" fill="#9C9B9B"/>
</g>
<path opacity="0.03" d="M342.366 153.327C342.366 153.327 339.06 142.938 351.339 137.745C363.617 132.552 383.447 140.106 382.502 145.299C381.557 150.492 372.113 155.688 378.725 156.159C385.337 156.63 389.585 146.715 403.279 151.437C416.973 156.159 400.918 162.297 404.224 162.297C407.53 162.297 416.5 159.936 424.53 162.297C432.56 164.658 424.53 168.908 394.309 171.269C364.088 173.63 371.174 167.479 359.84 166.548C348.507 165.616 349.925 170.796 325.842 166.548C301.759 162.3 310.258 147.66 342.366 153.327Z" fill="black"/>
<path opacity="0.06" d="M342.314 218.456C342.314 218.456 341.082 214.587 345.655 212.651C350.228 210.715 357.619 213.531 357.267 215.464C356.915 217.397 353.395 219.335 355.859 219.511C358.323 219.687 359.904 215.992 365.008 217.752C370.111 219.511 364.128 221.797 365.357 221.797C366.586 221.797 369.933 220.919 372.922 221.797C375.911 222.674 372.922 224.26 361.664 225.14C350.406 226.02 353.043 223.732 348.822 223.38C344.601 223.028 345.129 224.964 336.157 223.38C327.184 221.797 330.352 216.344 342.314 218.456Z" fill="black"/>
<path d="M494 482H-124" stroke="#515151" stroke-width="3.07028" stroke-miterlimit="10"/>
<path d="M494 431H-124" stroke="#515151" stroke-width="3.07028" stroke-miterlimit="10"/>
<g opacity="0.15">
<path d="M494.474 456.074L-124 456.074" stroke="#263239" stroke-width="3.07028" stroke-miterlimit="10" stroke-dasharray="37.41 37.41"/>
</g>
<path d="M344.76 493.122C344.76 493.198 352.729 493.257 362.551 493.257C372.374 493.257 380.345 493.198 380.345 493.122C380.345 493.046 372.379 492.986 362.551 492.986C352.723 492.986 344.76 493.046 344.76 493.122Z" fill="#1D1D1B"/>
<path d="M308.204 489.379C308.204 489.454 321.038 489.517 336.866 489.517C352.693 489.517 365.53 489.454 365.53 489.379C365.53 489.303 352.699 489.243 336.866 489.243C321.032 489.243 308.204 489.303 308.204 489.379Z" fill="#1D1D1B"/>
<path d="M130.747 493.122C130.747 493.198 136.39 493.257 143.351 493.257C150.312 493.257 155.957 493.198 155.957 493.122C155.957 493.046 150.314 492.986 143.351 492.986C136.387 492.986 130.747 493.046 130.747 493.122Z" fill="#1D1D1B"/>
<path d="M112.529 489.379C112.529 489.454 119.168 489.517 127.355 489.517C135.542 489.517 142.187 489.454 142.187 489.379C142.187 489.303 135.548 489.243 127.355 489.243C119.162 489.243 112.529 489.303 112.529 489.379Z" fill="#1D1D1B"/>
<path d="M25.7028 461.676H28.3101C29.1792 461.676 29.8858 461.947 29.8858 462.264V466.688C29.8858 467.069 29.0546 467.378 28.0312 467.378H26.5177V467.649C26.9861 468.41 28.5131 470.067 32.9588 470.126C35.6663 470.164 39.0669 470.172 41.1733 470.172V444.906C41.0352 444.906 41.1733 438.438 41.1733 435.622L47.4222 432.847H96.6821C96.59 432.931 96.5115 433.015 96.4113 433.099H99.0186C102.473 429.972 110.772 427.789 120.383 427.841C129.765 427.889 137.736 430.053 141.096 433.099H144.615C144.531 433.015 144.456 432.928 144.366 432.847H275.105C275.016 432.931 274.934 433.015 274.851 433.099H277.913C281.365 429.972 289.663 427.789 299.275 427.841C308.656 427.889 316.627 430.053 319.99 433.099H323.049C322.965 433.015 322.889 432.928 322.8 432.847H356.237L391.343 435.067L391.267 436.475H391.343L390.999 441.811C390.953 443.644 390.891 445.469 390.693 447.253L379.806 470.906C379.744 472.105 377.126 473.072 373.912 473.072L355.745 474.095L353.76 474.769C352.429 475.185 351.04 475.387 349.645 475.368H323.848C322.343 475.396 320.845 475.156 319.424 474.658L318.143 474.155L263.249 474.244V474.296H232.024L185.168 474.371L183.83 475.222C182.815 475.866 180.966 476.261 178.957 476.261H84.8098C83.1393 476.261 81.5608 475.966 80.5617 475.468L78.4743 474.434L48.007 474.407C44.758 474.407 41.1625 473.053 41.1625 471.854V471.523H34.1474C29.0032 471.523 24.4654 469.977 24.3599 468.068H24.1162V462.272C24.127 461.941 24.8336 461.676 25.7028 461.676Z" fill="#F5F4F5"/>
<path d="M386.252 449.575C386.252 449.575 359.245 460.088 353.993 459.636C348.74 459.184 326.065 458.399 326.065 458.399L303.991 466.675C303.991 466.675 286.354 466.721 281.898 461.924C277.441 457.126 276.513 456.78 276.513 456.78H138.883L116.122 465.852C116.122 465.852 97.6159 461.52 93.2623 458.125H47.4544V452.737C47.4544 452.737 311.721 439.162 312.75 438.388C313.778 437.613 386.252 449.575 386.252 449.575Z" fill="#E0E0E0"/>
<path d="M279.286 413.409H338.758V452.04H279.286V413.409Z" fill="#9E3443"/>
<path opacity="0.3" d="M279.286 413.409H338.758V452.04H279.286V413.409Z" fill="#9E3443"/>
<path d="M93.1653 413.409H152.638V452.04H93.1653V413.409Z" fill="#9E3443"/>
<path opacity="0.3" d="M93.1653 413.409H152.638V452.04H93.1653V413.409Z" fill="#9E3443"/>
<path d="M33.0563 345.093H42.4106V348.856C42.4106 348.856 36.2457 348.813 31.8109 348.975C25.8084 349.2 24.9257 356.924 24.9257 356.924L22.8816 356.946V354.897C22.868 349.492 27.6549 345.093 33.0563 345.093Z" fill="#E33443"/>
<path d="M25.1208 354.777V356.594H26.6939C27.2044 356.594 27.694 356.797 28.0551 357.158C28.4161 357.519 28.6189 358.008 28.6189 358.519V370.83C28.6189 371.26 28.4478 371.674 28.1431 371.978C27.8385 372.283 27.4252 372.454 26.9944 372.454H24.2869C23.8561 372.454 23.4429 372.283 23.1382 371.978C22.8336 371.674 22.6624 371.26 22.6624 370.83V354.701L25.1208 354.777Z" fill="#E33443"/>
<path d="M25.118 363.422C25.1992 363.422 25.2642 361.732 25.2642 359.647C25.2642 357.563 25.1992 355.873 25.118 355.873C25.0368 355.873 24.9691 357.563 24.9691 359.647C24.9691 361.732 25.034 363.422 25.118 363.422Z" fill="#E33443"/>
<path d="M79.0998 336.993L81.2658 334.11C81.7821 333.428 82.4497 332.875 83.2161 332.496C83.9824 332.116 84.8265 331.92 85.6817 331.922H183.47C184.491 331.922 185.494 332.188 186.38 332.695C187.267 333.202 188.005 333.931 188.523 334.811L189.914 337.174L395.902 338.076C397.508 338.082 399.048 338.716 400.193 339.843C401.337 340.97 401.995 342.5 402.026 344.106L404.081 446.557L367.614 452.738H332.875C334.57 448.573 335.19 444.049 334.678 439.582C333.256 426.873 322.781 416.839 310.021 415.957C305.484 415.632 300.939 416.469 296.815 418.389C292.692 420.309 289.126 423.249 286.454 426.93C283.782 430.611 282.093 434.913 281.546 439.429C280.999 443.944 281.612 448.525 283.328 452.738H147.553C149.25 448.574 149.871 444.049 149.359 439.582C147.937 426.873 137.462 416.839 124.705 415.957C120.167 415.63 115.62 416.466 111.495 418.385C107.37 420.304 103.802 423.243 101.129 426.925C98.4565 430.607 96.7664 434.909 96.2189 439.426C95.6715 443.942 96.2847 448.524 98.0007 452.738H46.8293L40.3314 445.011V344.173C40.3314 340.813 44.0812 337.063 47.4412 337.063L79.0998 336.993Z" fill="#E33443"/>
<path d="M394.892 351.556V398.571C394.892 400.949 393.947 403.23 392.266 404.912C390.584 406.593 388.303 407.538 385.925 407.538H273.735V352.809L394.892 351.556Z" fill="#232323"/>
<path d="M390.779 355.236V381.702L384.254 385.945H335.652V355.282L390.779 355.236Z" fill="#455A64"/>
<path d="M331.25 390.493V355.236H276.743V403.489L286.184 394.048C287.333 392.9 288.697 391.989 290.198 391.369C291.699 390.749 293.308 390.431 294.932 390.434L331.25 390.493Z" fill="#455A64"/>
<path opacity="0.2" d="M326.063 390.485L286.923 355.277L276.741 355.236L315.171 390.466L326.063 390.485Z" fill="white"/>
<path d="M93.2627 351.556H205.117V407.538H93.2627V351.556Z" fill="#232323"/>
<path d="M151.663 354.182H202.455V404.27H151.663V354.182Z" fill="#455A64"/>
<path d="M96.4953 354.182H147.288V404.27H96.4953V354.182Z" fill="#455A64"/>
<path d="M161.367 452.721C161.367 452.721 161.367 452.54 161.38 452.196C161.394 451.852 161.38 451.337 161.38 450.685C161.38 449.356 161.399 447.436 161.413 444.967C161.413 440.045 161.448 433.019 161.475 424.544L161.353 424.669L196.16 424.693L196.014 424.544C196.014 434.73 196.014 444.347 196.014 452.721L196.147 452.591L171.019 452.656L163.89 452.691L161.995 452.707H161.505H161.334C161.385 452.711 161.437 452.711 161.488 452.707H161.965L163.833 452.724L170.932 452.759L196.144 452.824H196.277V452.691C196.277 444.317 196.277 434.7 196.293 424.514V424.368H196.141L161.334 424.393H161.21V424.514C161.237 433.019 161.258 440.074 161.275 445.015C161.275 447.452 161.299 449.383 161.304 450.701C161.304 451.346 161.304 451.841 161.321 452.19C161.337 452.54 161.367 452.721 161.367 452.721Z" fill="#263239"/>
<path d="M337.518 452.736C337.526 452.67 337.531 452.604 337.531 452.538C337.531 452.397 337.531 452.205 337.531 451.959C337.531 451.433 337.545 450.681 337.556 449.714C337.556 447.743 337.58 444.898 337.599 441.337C337.599 434.184 337.629 424.166 337.651 412.638L337.507 412.781H350.395L387.863 412.738L399.219 412.689L402.305 412.662H403.117C403.299 412.662 403.388 412.646 403.388 412.646C403.388 412.646 403.296 412.646 403.117 412.63H402.305L399.219 412.603L387.863 412.554L350.395 412.511H337.507H337.364V412.654C337.385 424.18 337.401 434.198 337.415 441.354C337.434 444.914 337.447 447.759 337.458 449.73C337.458 450.697 337.475 451.45 337.48 451.975C337.48 452.221 337.48 452.414 337.494 452.554C337.497 452.615 337.505 452.676 337.518 452.736Z" fill="#263239"/>
<path d="M366.128 413.416C366.044 413.416 365.979 422.215 365.979 433.064C365.979 443.913 366.044 452.715 366.128 452.715C366.212 452.715 366.274 443.921 366.274 433.064C366.274 422.207 366.209 413.416 366.128 413.416Z" fill="#263239"/>
<path d="M393.793 412.942C393.712 412.942 393.647 420.832 393.647 430.563C393.647 440.293 393.712 448.183 393.793 448.183C393.874 448.183 393.942 440.296 393.942 430.563C393.942 420.829 393.874 412.942 393.793 412.942Z" fill="#263239"/>
<path d="M341.455 444.118C341.458 444.077 341.458 444.035 341.455 443.994C341.455 443.902 341.455 443.788 341.455 443.639C341.455 443.317 341.455 442.862 341.471 442.285C341.471 441.083 341.49 439.35 341.506 437.155C341.523 432.75 341.544 426.498 341.571 419.044L341.441 419.174L363.223 419.191L363.077 419.047V425.851C363.077 428.073 363.077 430.239 363.077 432.349C363.077 436.562 363.077 440.52 363.093 444.124L363.22 443.999L347.447 444.064L343.02 444.097H341.847C341.577 444.097 341.436 444.11 341.436 444.11C341.436 444.11 341.56 444.11 341.82 444.11L342.968 444.126L347.368 444.159L363.22 444.221H363.345V444.094C363.345 440.49 363.345 436.532 363.361 432.319C363.361 430.209 363.361 428.043 363.361 425.821V419.017C363.494 419.147 363.182 418.833 363.212 418.866L341.431 418.882H341.298V419.015C341.325 426.503 341.347 432.785 341.363 437.209C341.376 439.391 341.39 441.116 341.398 442.31C341.398 442.884 341.398 443.33 341.412 443.647C341.412 443.788 341.412 443.899 341.412 443.988C341.42 444.033 341.435 444.077 341.455 444.118Z" fill="#263239"/>
<path d="M360.583 419.034C360.502 419.034 360.434 424.652 360.434 431.578C360.434 438.504 360.502 444.119 360.583 444.119C360.664 444.119 360.732 438.506 360.732 431.578C360.732 424.649 360.664 419.034 360.583 419.034Z" fill="#263239"/>
<path d="M357.288 419.034C357.207 419.034 357.142 424.652 357.142 431.578C357.142 438.504 357.207 444.119 357.288 444.119C357.369 444.119 357.437 438.506 357.437 431.578C357.437 424.649 357.369 419.034 357.288 419.034Z" fill="#263239"/>
<path d="M353.993 419.034C353.912 419.034 353.847 424.652 353.847 431.578C353.847 438.504 353.912 444.119 353.993 444.119C354.074 444.119 354.142 438.506 354.142 431.578C354.142 424.649 354.074 419.034 353.993 419.034Z" fill="#263239"/>
<path d="M350.698 419.034C350.617 419.034 350.552 424.652 350.552 431.578C350.552 438.504 350.617 444.119 350.698 444.119C350.779 444.119 350.847 438.506 350.847 431.578C350.847 424.649 350.779 419.034 350.698 419.034Z" fill="#263239"/>
<path d="M347.403 419.034C347.322 419.034 347.257 424.652 347.257 431.578C347.257 438.504 347.322 444.119 347.403 444.119C347.484 444.119 347.552 438.506 347.552 431.578C347.552 424.649 347.495 419.034 347.403 419.034Z" fill="#263239"/>
<path d="M344.108 419.034C344.027 419.034 343.962 424.652 343.962 431.578C343.962 438.504 344.027 444.119 344.108 444.119C344.189 444.119 344.257 438.506 344.257 431.578C344.257 424.649 344.189 419.034 344.108 419.034Z" fill="#263239"/>
<path d="M209.939 358.277H269.43V452.736H209.939V358.277Z" fill="#232323"/>
<path d="M243.485 364.748H266.108V438.641H243.485V364.748Z" fill="#455A64"/>
<path d="M213.699 364.748H236.323V438.641H213.699V364.748Z" fill="#455A64"/>
<path d="M239.781 358.277C239.699 358.277 239.632 379.268 239.632 405.155C239.632 431.041 239.699 452.04 239.781 452.04C239.862 452.04 239.927 431.052 239.927 405.155C239.927 379.258 239.862 358.277 239.781 358.277Z" fill="#455A64"/>
<path opacity="0.3" d="M356.654 355.236L389.832 382.338L384.254 385.945L348.278 355.236H356.654Z" fill="white"/>
<path opacity="0.3" d="M377.802 385.947L341.904 355.279H339.857L375.634 385.947H377.802Z" fill="white"/>
<path opacity="0.3" d="M202.455 388.55L164.291 354.22L154.11 354.182L202.569 398.606L202.455 388.55Z" fill="white"/>
<path opacity="0.3" d="M266.108 410.2V420.153L243.485 399.413V389.848L266.108 410.2Z" fill="white"/>
<path opacity="0.3" d="M236.323 422.045V432L213.702 411.261V401.695L236.323 422.045Z" fill="white"/>
<path opacity="0.2" d="M226.63 364.748L236.323 373.466V383.422L215.955 364.748H226.63Z" fill="white"/>
<path opacity="0.3" d="M266.119 423.953L266.154 427.213L243.485 406.682V403.81L266.119 423.953Z" fill="white"/>
<path d="M51.9085 358.277H87.4631V452.736H51.9085V358.277Z" fill="#232323"/>
<path d="M55.7965 364.748H84.1411V438.641H55.7965V364.748Z" fill="#455A64"/>
<path opacity="0.5" d="M55.7966 364.748H66.7781V423.863H55.7966V364.748Z" fill="#232323"/>
<path opacity="0.3" d="M84.1301 410.2V420.153L55.7963 399.413V389.848L84.1301 410.2Z" fill="white"/>
<path opacity="0.3" d="M84.1411 423.953L84.1871 427.213L55.7965 406.682V403.81L84.1411 423.953Z" fill="white"/>
<path opacity="0.2" d="M146.408 388.875L107.84 354.182H97.1288L146.524 398.931L146.408 388.875Z" fill="white"/>
<path opacity="0.3" d="M147.288 404.543L98.5449 359.279H96.4953L145.119 404.543H147.288Z" fill="white"/>
<path d="M276.304 358.779H390.779V359.781H276.304V358.779Z" fill="#263239"/>
<path d="M94.145 358.779H203.438V359.781H94.145V358.779Z" fill="#263239"/>
<path d="M92.3394 420.152H96.4494C96.8457 420.152 97.1669 420.474 97.1669 420.87V422.546C97.1669 422.942 96.8457 423.263 96.4494 423.263H92.3394C91.9432 423.263 91.622 422.942 91.622 422.546V420.87C91.622 420.474 91.9432 420.152 92.3394 420.152Z" fill="#F3986E"/>
<path d="M153.558 438.633H157.668C158.065 438.633 158.386 438.954 158.386 439.35V441.026C158.386 441.422 158.065 441.744 157.668 441.744H153.558C153.162 441.744 152.841 441.422 152.841 441.026V439.35C152.841 438.954 153.162 438.633 153.558 438.633Z" fill="white"/>
<path d="M201.131 438.633H205.241C205.638 438.633 205.959 438.954 205.959 439.35V441.026C205.959 441.422 205.638 441.744 205.241 441.744H201.131C200.735 441.744 200.414 441.422 200.414 441.026V439.35C200.414 438.954 200.735 438.633 201.131 438.633Z" fill="#F3986E"/>
<path d="M274.458 438.374H278.568C278.964 438.374 279.285 438.695 279.285 439.091V440.767C279.285 441.164 278.964 441.485 278.568 441.485H274.458C274.062 441.485 273.74 441.164 273.74 440.767V439.091C273.74 438.695 274.062 438.374 274.458 438.374Z" fill="#F3986E"/>
<path d="M386.97 441.485H391.08C391.476 441.485 391.797 441.807 391.797 442.203V443.879C391.797 444.275 391.476 444.596 391.08 444.596H386.97C386.574 444.596 386.253 444.275 386.253 443.879V442.203C386.253 441.807 386.574 441.485 386.97 441.485Z" fill="#F3986E"/>
<path opacity="0.5" d="M73.8122 364.748V399.745H84.1304L84.1439 364.748H73.8122Z" fill="#232323"/>
<path d="M40.3422 349.182H47.452V419.17H40.3422V349.182Z" fill="#232323"/>
<path d="M40.3449 413.205C40.3449 413.205 43.9567 414.128 44.8799 410.893C45.8032 407.657 44.8799 351.556 44.8799 351.556H40.3449V413.205Z" fill="#455A64"/>
<path opacity="0.3" d="M45.2914 386.915L40.3448 383.25V376.719C40.3448 376.178 45.2914 379.546 45.2914 379.546V386.915Z" fill="white"/>
<path opacity="0.2" d="M175.061 332.193H176.334V335.231H175.061V332.193Z" fill="black"/>
<path opacity="0.2" d="M172.638 332.193H173.91V335.231H172.638V332.193Z" fill="black"/>
<path opacity="0.2" d="M170.215 332.193H171.487V335.231H170.215V332.193Z" fill="black"/>
<path opacity="0.2" d="M167.794 332.193H169.067V335.231H167.794V332.193Z" fill="black"/>
<path opacity="0.2" d="M165.371 332.193H166.643V335.231H165.371V332.193Z" fill="black"/>
<path opacity="0.2" d="M162.95 332.193H164.223V335.231H162.95V332.193Z" fill="black"/>
<path opacity="0.2" d="M160.527 332.193H161.8V335.231H160.527V332.193Z" fill="black"/>
<path opacity="0.2" d="M158.107 332.193H159.379V335.231H158.107V332.193Z" fill="black"/>
<path opacity="0.2" d="M155.684 332.193H156.956V335.231H155.684V332.193Z" fill="black"/>
<path opacity="0.2" d="M153.26 332.193H154.533V335.231H153.26V332.193Z" fill="black"/>
<path opacity="0.2" d="M150.84 332.193H152.112V335.231H150.84V332.193Z" fill="black"/>
<path opacity="0.2" d="M148.417 332.193H149.689V335.231H148.417V332.193Z" fill="black"/>
<path opacity="0.2" d="M145.996 332.193H147.269V335.231H145.996V332.193Z" fill="black"/>
<path opacity="0.2" d="M143.573 332.193H144.846V335.231H143.573V332.193Z" fill="black"/>
<path d="M78.8967 336.993C78.8967 337.074 103.806 337.142 134.495 337.142C165.184 337.142 190.098 337.074 190.098 336.993C190.098 336.912 165.209 336.847 134.495 336.847C103.781 336.847 78.8967 336.912 78.8967 336.993Z" fill="black"/>
<path d="M40.3448 348.026C40.3448 348.107 121.334 348.175 221.204 348.175C321.075 348.175 402.094 348.107 402.094 348.026C402.094 347.945 321.121 347.877 221.204 347.877C121.288 347.877 40.3448 347.945 40.3448 348.026Z" fill="#263239"/>
<path d="M306.753 465.096C295.389 465.096 286.176 455.884 286.176 444.519C286.176 433.155 295.389 423.942 306.753 423.942C318.117 423.942 327.33 433.155 327.33 444.519C327.33 455.884 318.117 465.096 306.753 465.096Z" fill="#455A64"/>
<path d="M43.0578 431.523H46.8267V438.04H43.0578V431.523Z" fill="#F3986E"/>
<path d="M40.3312 431.523H43.0576V438.04H40.3312V431.523Z" fill="white"/>
<path d="M207.735 337.374H271.017V354.182H207.735V337.374Z" fill="#263239"/>
<path d="M209.939 339.178H269.046V352.379H209.939V339.178Z" fill="#232323"/>
<path d="M284.505 444.014C283.948 430.975 294.065 419.952 307.105 419.394C320.144 418.836 331.166 428.954 331.724 441.993C332.282 455.032 322.164 466.055 309.125 466.613C296.086 467.171 285.063 457.053 284.505 444.014Z" fill="#232323"/>
<path d="M331.735 442.641C331.735 442.662 331.735 442.681 331.735 442.703C331.794 445.815 331.238 448.907 330.098 451.804C328.959 454.7 327.258 457.342 325.094 459.58C322.931 461.817 320.347 463.605 317.49 464.84C314.634 466.076 311.561 466.735 308.449 466.78C305.337 466.825 302.247 466.255 299.356 465.102C296.465 463.949 293.83 462.237 291.603 460.063C289.376 457.889 287.6 455.297 286.377 452.435C285.154 449.573 284.509 446.497 284.478 443.385C284.478 443.364 284.478 443.345 284.478 443.323L331.735 442.641Z" fill="#232323"/>
<path d="M324.698 442.803C324.746 446.084 323.82 449.306 322.036 452.061C320.253 454.815 317.693 456.98 314.679 458.279C311.666 459.579 308.335 459.956 305.107 459.362C301.88 458.769 298.901 457.231 296.547 454.945C294.193 452.658 292.57 449.725 291.884 446.516C291.197 443.306 291.478 439.966 292.69 436.916C293.902 433.867 295.992 431.245 298.694 429.383C301.396 427.521 304.59 426.502 307.871 426.455C312.27 426.392 316.514 428.079 319.67 431.144C322.825 434.21 324.634 438.404 324.698 442.803Z" fill="#FBFBFB"/>
<path d="M307.871 426.455C312.27 426.392 316.514 428.079 319.67 431.144C322.825 434.21 324.634 438.404 324.698 442.803L291.521 443.282C291.489 441.103 291.887 438.94 292.692 436.915C293.496 434.89 294.692 433.044 296.21 431.482C297.729 429.919 299.54 428.671 301.541 427.808C303.541 426.946 305.692 426.486 307.871 426.455Z" fill="#E0E0E0"/>
<path d="M318.214 442.897C318.242 444.896 317.677 446.857 316.59 448.534C315.504 450.211 313.944 451.529 312.109 452.319C310.273 453.11 308.245 453.339 306.28 452.977C304.314 452.615 302.501 451.678 301.068 450.285C299.635 448.893 298.647 447.106 298.229 445.152C297.811 443.198 297.983 441.163 298.721 439.306C299.459 437.45 300.732 435.853 302.377 434.719C304.023 433.586 305.968 432.965 307.966 432.937C310.645 432.899 313.23 433.927 315.152 435.795C317.074 437.663 318.175 440.218 318.214 442.897Z" fill="#232323"/>
<path d="M121.281 466.633C108.241 466.091 98.1097 455.081 98.6517 442.041C99.1936 429.002 110.204 418.87 123.243 419.412C136.283 419.954 146.415 430.964 145.873 444.004C145.331 457.044 134.321 467.175 121.281 466.633Z" fill="#232323"/>
<path d="M145.918 442.641C145.919 442.661 145.919 442.682 145.918 442.703C145.977 445.815 145.421 448.907 144.281 451.804C143.142 454.7 141.441 457.342 139.277 459.58C137.114 461.817 134.53 463.605 131.673 464.84C128.817 466.076 125.744 466.735 122.632 466.78C119.52 466.825 116.43 466.255 113.539 465.102C110.648 463.949 108.013 462.237 105.786 460.063C103.559 457.889 101.783 455.297 100.56 452.435C99.3372 449.573 98.692 446.497 98.6612 443.385C98.6626 443.364 98.6626 443.344 98.6612 443.323L145.918 442.641Z" fill="#232323"/>
<path d="M138.884 442.803C138.931 446.084 138.005 449.306 136.222 452.061C134.439 454.815 131.878 456.98 128.865 458.279C125.852 459.579 122.521 459.956 119.293 459.362C116.065 458.769 113.086 457.231 110.733 454.945C108.379 452.658 106.756 449.725 106.07 446.516C105.383 443.306 105.664 439.966 106.876 436.916C108.088 433.867 110.177 431.245 112.879 429.383C115.582 427.521 118.775 426.502 122.057 426.455C126.456 426.392 130.7 428.079 133.855 431.144C137.011 434.21 138.819 438.404 138.884 442.803Z" fill="#FBFBFB"/>
<path d="M122.057 426.455C126.456 426.392 130.7 428.079 133.855 431.144C137.011 434.21 138.819 438.404 138.884 442.803L105.706 443.282C105.675 441.103 106.072 438.94 106.877 436.915C107.682 434.89 108.878 433.044 110.396 431.482C111.914 429.919 113.725 428.671 115.726 427.808C117.727 426.946 119.878 426.486 122.057 426.455Z" fill="#E0E0E0"/>
<path d="M132.399 442.897C132.428 444.896 131.863 446.859 130.777 448.537C129.69 450.214 128.13 451.532 126.294 452.324C124.459 453.115 122.43 453.344 120.464 452.983C118.498 452.621 116.683 451.684 115.25 450.291C113.816 448.898 112.828 447.111 112.41 445.156C111.992 443.201 112.163 441.166 112.901 439.309C113.639 437.451 114.912 435.854 116.558 434.72C118.204 433.586 120.15 432.965 122.149 432.937C124.829 432.898 127.414 433.926 129.337 435.794C131.259 437.662 132.361 440.217 132.399 442.897Z" fill="#232323"/>
<path opacity="0.2" d="M335.652 355.236H390.779V356.79H335.652V355.236Z" fill="black"/>
<path opacity="0.2" d="M276.741 355.236H331.24V356.79H276.741V355.236Z" fill="black"/>
<path opacity="0.2" d="M213.7 364.748H266.108V366.302H213.7V364.748Z" fill="black"/>
<path opacity="0.2" d="M96.4981 354.182H202.455V355.736H96.4981V354.182Z" fill="black"/>
<path d="M367.092 337.934L365.034 336.039C363.865 334.971 362.339 334.379 360.756 334.379H333.952C333.092 334.378 332.24 334.553 331.448 334.892C330.657 335.231 329.943 335.727 329.35 336.35L327.858 337.92L367.092 337.934Z" fill="#E33443"/>
<path d="M326.068 337.934C326.068 338.015 335.42 338.083 346.951 338.083C358.482 338.083 367.833 338.015 367.833 337.934C367.833 337.853 358.485 337.788 346.951 337.788C335.417 337.788 326.068 337.853 326.068 337.934Z" fill="#263239"/>
<path d="M400.816 442.64H404.081L403.618 423.385H398.482V440.307C398.482 440.925 398.728 441.519 399.166 441.957C399.604 442.395 400.197 442.64 400.816 442.64Z" fill="white"/>
<path d="M403.394 412.641C403.374 412.755 403.369 412.871 403.377 412.987C403.377 413.244 403.377 413.572 403.377 413.975C403.394 414.872 403.415 416.103 403.442 417.609C403.478 420.712 403.524 424.919 403.575 429.598C403.626 434.276 403.689 438.532 403.797 441.592C403.848 443.127 403.903 444.367 403.954 445.225C403.981 445.629 404.003 445.953 404.019 446.211C404.02 446.327 404.035 446.442 404.062 446.555C404.082 446.44 404.087 446.324 404.079 446.208C404.079 445.951 404.079 445.623 404.079 445.22C404.062 444.324 404.041 443.092 404.014 441.586C403.978 438.484 403.932 434.276 403.878 429.595C403.824 424.914 403.767 420.66 403.659 417.603C403.608 416.068 403.553 414.828 403.502 413.97C403.475 413.569 403.453 413.242 403.437 412.984C403.436 412.869 403.421 412.753 403.394 412.641Z" fill="#263239"/>
<path d="M40.3448 419.17C40.2636 419.17 40.2067 420.616 40.1742 422.96C40.1417 425.305 40.1363 428.53 40.1498 432.098C40.1634 435.667 40.1932 438.897 40.2283 441.236C40.2527 442.368 40.2717 443.302 40.2852 444.003C40.2783 444.342 40.2983 444.682 40.3448 445.018C40.3873 444.682 40.4054 444.342 40.3989 444.003C40.3989 443.302 40.4233 442.378 40.4395 441.233C40.4558 438.897 40.4585 435.667 40.4395 432.095C40.3935 425.367 40.3556 420.71 40.3448 419.17Z" fill="#263239"/>
<path d="M361.472 107.404C334.96 107.404 313.468 85.912 313.468 59.4002C313.468 32.8885 334.96 11.3965 361.472 11.3965C387.984 11.3965 409.476 32.8885 409.476 59.4002C409.476 85.912 387.984 107.404 361.472 107.404Z" fill="#E33443"/>
<path opacity="0.9" d="M361.472 107.404C334.96 107.404 313.468 85.912 313.468 59.4002C313.468 32.8885 334.96 11.3965 361.472 11.3965C387.984 11.3965 409.476 32.8885 409.476 59.4002C409.476 85.912 387.984 107.404 361.472 107.404Z" fill="white"/>
<path d="M319.89 69.2922C314.428 46.3655 328.586 23.3519 351.513 17.89C374.439 12.4281 397.453 26.5861 402.915 49.5128C408.377 72.4396 394.219 95.4532 371.292 100.915C348.365 106.377 325.352 92.219 319.89 69.2922Z" fill="#E33443"/>
<path opacity="0.6" d="M319.89 69.2922C314.428 46.3655 328.586 23.3519 351.513 17.89C374.439 12.4281 397.453 26.5861 402.915 49.5128C408.377 72.4396 394.219 95.4532 371.292 100.915C348.365 106.377 325.352 92.219 319.89 69.2922Z" fill="white"/>
<path d="M361.472 94.6594C341.998 94.6594 326.212 78.8733 326.212 59.4C326.212 39.9268 341.998 24.1406 361.472 24.1406C380.945 24.1406 396.731 39.9268 396.731 59.4C396.731 78.8733 380.945 94.6594 361.472 94.6594Z" fill="#E33443"/>
<path opacity="0.3" d="M361.472 94.6594C341.998 94.6594 326.212 78.8733 326.212 59.4C326.212 39.9268 341.998 24.1406 361.472 24.1406C380.945 24.1406 396.731 39.9268 396.731 59.4C396.731 78.8733 380.945 94.6594 361.472 94.6594Z" fill="white"/>
<path d="M350.62 85.7222C336.092 79.7638 329.145 63.1564 335.104 48.6285C341.062 34.1005 357.669 27.1535 372.197 33.1119C386.725 39.0702 393.672 55.6776 387.714 70.2055C381.756 84.7335 365.148 91.6805 350.62 85.7222Z" fill="#E33443"/>
</svg>
