<svg width="414" height="504" viewBox="0 0 414 504" fill="none" xmlns="http://www.w3.org/2000/svg">
<g opacity="0.05">
<path d="M-63.916 451.942H70.9395L68.7431 184.31H-61.725L-63.916 451.942ZM67.1487 448.175H-60.1198L-57.9796 188.076H65.0085L67.1487 448.175Z" fill="#1D1D1B"/>
<path d="M-22.2253 202.378H71.2205V192.402H-22.2253V202.378ZM67.4537 198.612H-18.4585V196.169H67.4537V198.612Z" fill="#1D1D1B"/>
<g opacity="0.1">
<path d="M-22.2254 208.587H68.7565V198.611H-22.2254V208.587ZM64.987 204.821H-18.464V202.378H64.9923L64.987 204.821Z" fill="#1D1D1B"/>
</g>
<g opacity="0.5">
<path d="M-22.2254 217.469H68.7565V207.493H-22.2254V217.469ZM64.987 213.702H-18.464V211.26H64.9923L64.987 213.702Z" fill="#1D1D1B"/>
</g>
<g opacity="0.5">
<path d="M-22.2253 230.682H69.0802V220.706H-22.2253V230.682ZM65.3135 226.918H-18.4586V224.478H65.3135V226.918Z" fill="#1D1D1B"/>
</g>
<g opacity="0.5">
<path d="M-22.2252 243.895H69.1899V233.919H-22.2252V243.895ZM65.4259 240.131H-18.4585V237.686H65.4259V240.131Z" fill="#1D1D1B"/>
</g>
<g opacity="0.5">
<path d="M-22.2253 256.675H69.4012V246.702H-22.2253V256.675ZM65.6372 252.911H-18.4585V250.466H65.6372V252.911Z" fill="#1D1D1B"/>
</g>
<g opacity="0.5">
<path d="M-22.2254 269.89H69.4011V259.914H-22.2254V269.89ZM65.6371 266.123H-18.4586V263.681H65.6371V266.123Z" fill="#1D1D1B"/>
</g>
<g opacity="0.5">
<path d="M-22.2254 283.103H69.5109V273.127H-22.2254V283.103ZM65.7441 279.336H-18.4586V276.894H65.7441V279.336Z" fill="#1D1D1B"/>
</g>
<g opacity="0.5">
<path d="M-22.2252 295.665H69.6127V285.689H-22.2252V295.665ZM65.8326 291.893H-18.4717V289.448H65.8326V291.893Z" fill="#1D1D1B"/>
</g>
<g opacity="0.5">
<path d="M-22.2254 308.879H69.7168V298.905H-22.2254V308.879ZM65.9528 305.114H-18.4587V302.669H65.9528V305.114Z" fill="#1D1D1B"/>
</g>
<g opacity="0.5">
<path d="M-22.2253 322.095H69.8292V312.119H-22.2253V322.095ZM66.0571 318.328H-18.4639V315.886H66.0625L66.0571 318.328Z" fill="#1D1D1B"/>
</g>
<g opacity="0.5">
<path d="M69.955 324.898V334.874H-17.6346V324.898H69.955ZM-14.0471 331.108H66.3674V328.665H-14.0606L-14.0471 331.108Z" fill="#1D1D1B"/>
</g>
<g opacity="0.5">
<path d="M70.0593 338.111V348.087H-17.6345V338.111H70.0593ZM-14.0524 344.329H-3.61898L-3.57626 344.366C-3.33572 344.572 -3.06506 344.74 -2.7737 344.864H-0.291016C0.000350952 344.74 0.271011 344.572 0.511559 344.366L0.554398 344.329H66.4826V341.886H1.62711C1.61872 341.503 1.5408 341.124 1.39707 340.768C1.15915 340.183 0.752052 339.682 0.227837 339.329C-0.296379 338.976 -0.913879 338.788 -1.54568 338.788C-2.17755 338.788 -2.7953 338.976 -3.31958 339.329C-3.84386 339.681 -4.25081 340.183 -4.48843 340.768C-4.63216 341.124 -4.71021 341.503 -4.71859 341.886H-14.0658L-14.0524 344.329Z" fill="#1D1D1B"/>
</g>
<g opacity="0.5">
<path d="M-4.70516 351.327V355.091H-14.0524V357.536H-4.70516V360.423H1.62708V357.536H66.5815V355.091H1.62708V351.327H70.1583V361.3H-17.6345V351.327H-4.70516Z" fill="#1D1D1B"/>
</g>
<g opacity="0.5">
<path d="M70.2573 364.54V374.516H-17.6346V364.54H70.2573ZM-14.0524 370.749H66.6805V368.304H-14.0524V370.749Z" fill="#1D1D1B"/>
</g>
<g opacity="0.5">
<path d="M70.3617 377.753V387.729H-17.6346V377.753H70.3617ZM-14.0524 383.962H66.7849V381.514H-14.0524V383.962Z" fill="#1D1D1B"/>
</g>
<g opacity="0.57">
<path d="M36.9615 406.905H45.68C46.3827 406.903 47.0562 406.623 47.553 406.127C48.0499 405.63 48.3298 404.956 48.3312 404.253V401.897C48.3298 401.194 48.0499 400.521 47.5529 400.024C47.0559 399.528 46.3824 399.249 45.68 399.248H36.9615C36.2593 399.249 35.586 399.528 35.0895 400.024C34.5929 400.521 34.3137 401.194 34.313 401.897V404.253C34.3137 404.956 34.5929 405.629 35.0893 406.126C35.5858 406.623 36.259 406.903 36.9615 406.905ZM44.5644 403.138H38.077V403.012H44.5644V403.138Z" fill="#1D1D1B"/>
</g>
<path d="M7.14067 439.834H15.8593C16.5618 439.834 17.2353 439.554 17.7322 439.058C18.2292 438.561 18.509 437.888 18.5104 437.186V434.829C18.509 434.126 18.2292 433.453 17.7324 432.956C17.2355 432.459 16.562 432.179 15.8593 432.178H7.14067C6.43797 432.179 5.7645 432.459 5.26762 432.956C4.77074 433.453 4.49102 434.126 4.48961 434.829V437.186C4.49102 437.888 4.77079 438.561 5.26775 439.058C5.76471 439.554 6.43822 439.834 7.14067 439.834ZM14.7357 436.065H8.24825V435.939H14.7357V436.065Z" fill="#1D1D1B"/>
<path d="M-7.15567 391.656H1.56285C2.26551 391.657 2.93916 391.937 3.43577 392.434C3.93238 392.931 4.21143 393.605 4.21143 394.307V396.664C4.21072 397.366 3.93138 398.04 3.43485 398.536C2.93832 399.033 2.26505 399.312 1.56285 399.313H-7.15567C-7.85834 399.313 -8.53227 399.034 -9.02938 398.537C-9.52649 398.041 -9.80615 397.367 -9.80686 396.664V394.307C-9.80686 393.604 -9.52748 392.93 -9.03029 392.433C-8.5331 391.936 -7.8588 391.656 -7.15567 391.656ZM-6.04274 395.546H0.447299V395.423H-6.04274V395.546Z" fill="#1D1D1B"/>
<path d="M39.1097 262.124H47.8283C48.531 262.123 49.2045 261.843 49.7014 261.346C50.1982 260.849 50.478 260.176 50.4794 259.473V257.116C50.478 256.414 50.1982 255.741 49.7012 255.244C49.2043 254.748 48.5308 254.468 47.8283 254.468H39.1097C38.4072 254.468 37.7337 254.748 37.2367 255.244C36.7398 255.741 36.46 256.414 36.4586 257.116V259.473C36.46 260.176 36.7397 260.849 37.2366 261.346C37.7335 261.843 38.407 262.123 39.1097 262.124ZM46.7126 258.358H40.2252V258.232H46.7126V258.358Z" fill="#1D1D1B"/>
<path d="M13.382 324.393V387.729H-16.0294V324.393H13.382ZM-12.2654 384.096H9.61528V328.025H-12.2654V384.096Z" fill="#1D1D1B"/>
<path d="M-8.36762 340.76C-8.20105 339.812 -7.83642 338.909 -7.29753 338.112C-6.66702 337.159 -5.81015 336.377 -4.80362 335.837C-3.79708 335.296 -2.67226 335.013 -1.52973 335.014C-0.38729 335.014 0.73731 335.297 1.74376 335.837C2.75022 336.378 3.60708 337.159 4.23794 338.112C4.77683 338.909 5.14146 339.812 5.30803 340.76C5.37531 341.129 5.41026 341.503 5.4124 341.878V341.945C5.41385 342.756 5.27169 343.56 4.99244 344.321C4.92556 344.503 4.85331 344.682 4.77038 344.856C4.12452 346.242 3.04073 347.378 1.6859 348.088L1.64566 348.109C0.667296 348.614 -0.417872 348.878 -1.51902 348.877C-2.62016 348.878 -3.70546 348.614 -4.68383 348.109L-4.72406 348.088C-6.07962 347.379 -7.16369 346.243 -7.80854 344.856C-7.89147 344.682 -7.96373 344.503 -8.03061 344.321C-8.30986 343.56 -8.45201 342.756 -8.45057 341.945V341.878C-8.4555 341.504 -8.42773 341.13 -8.36762 340.76ZM-3.58435 344.358C-3.3438 344.564 -3.07314 344.732 -2.78178 344.856C-2.39038 345.028 -1.96805 345.119 -1.54044 345.123C-1.11283 345.119 -0.69063 345.028 -0.29923 344.856C-0.00787067 344.732 0.26279 344.564 0.503338 344.358L0.546184 344.321C0.883749 344.024 1.15386 343.659 1.33843 343.249C1.52301 342.839 1.61777 342.395 1.61627 341.945V341.878C1.60789 341.495 1.52997 341.116 1.38624 340.76C1.14832 340.175 0.74122 339.674 0.217005 339.321C-0.30721 338.969 -0.924711 338.78 -1.55651 338.78C-2.18839 338.78 -2.80613 338.968 -3.33041 339.321C-3.8547 339.673 -4.26164 340.175 -4.49926 340.76C-4.64299 341.116 -4.7209 341.495 -4.72929 341.878V341.945C-4.73078 342.395 -4.63615 342.839 -4.45158 343.249C-4.267 343.659 -3.99676 344.024 -3.6592 344.321L-3.58435 344.358Z" fill="#1D1D1B"/>
<path d="M-4.4751 340.76C-4.61883 341.116 -4.69675 341.494 -4.70514 341.878V341.945C-4.70663 342.394 -4.61187 342.839 -4.42729 343.248C-4.24272 343.658 -3.97261 344.024 -3.63505 344.32L-3.5922 344.358H-4.71323V360.409H1.6271V344.358H0.506198L0.549044 344.32C0.886609 344.024 1.15672 343.658 1.34129 343.248C1.52587 342.839 1.62063 342.394 1.61913 341.945V341.878C1.61075 341.494 1.5327 341.116 1.38897 340.76H5.38574V364.034H-8.47723V340.76H-4.4751Z" fill="#1D1D1B"/>
<path d="M-1.90149 290.982C-0.758896 290.981 0.33652 290.526 1.14446 289.718C1.95239 288.91 2.40685 287.815 2.40826 286.673C2.40685 285.53 1.95221 284.435 1.14419 283.627C0.336182 282.82 -0.759141 282.366 -1.90149 282.365C-3.04337 282.367 -4.13804 282.821 -4.94547 283.628C-5.7529 284.436 -6.20721 285.531 -6.20863 286.673C-6.20792 287.815 -5.75403 288.91 -4.94652 289.718C-4.13901 290.526 -3.04383 290.981 -1.90149 290.982ZM-1.90149 286.132C-1.75958 286.132 -1.62353 286.188 -1.52319 286.289C-1.42285 286.389 -1.36644 286.525 -1.36644 286.667C-1.36644 286.809 -1.42285 286.945 -1.52319 287.045C-1.62353 287.146 -1.75958 287.202 -1.90149 287.202C-2.04339 287.202 -2.17944 287.146 -2.27978 287.045C-2.38012 286.945 -2.43653 286.809 -2.43653 286.667C-2.43653 286.597 -2.42267 286.527 -2.39578 286.462C-2.36889 286.397 -2.32946 286.338 -2.27978 286.289C-2.2301 286.239 -2.17122 286.2 -2.10631 286.173C-2.0414 286.146 -1.97175 286.132 -1.90149 286.132Z" fill="#1D1D1B"/>
<path d="M-6.20863 298.258H2.40826V284.614H-6.20863V298.258ZM-1.35847 294.494H-2.44463V288.373H-1.35847V294.494Z" fill="#1D1D1B"/>
<path d="M53.422 290.982C55.217 290.982 56.5199 289.171 56.5199 286.673C56.5199 284.174 55.217 282.365 53.422 282.365C51.6269 282.365 50.3268 284.177 50.3268 286.673C50.3268 289.168 51.6296 290.982 53.422 290.982Z" fill="#1D1D1B"/>
<path d="M50.3269 284.607H56.5175V298.259H50.3269V284.607Z" fill="#1D1D1B"/>
<path d="M53.422 317.194C55.217 317.194 56.5199 315.38 56.5199 312.884C56.5199 310.388 55.217 308.577 53.422 308.577C51.6269 308.577 50.3268 310.388 50.3268 312.884C50.3268 315.38 51.6296 317.194 53.422 317.194Z" fill="#1D1D1B"/>
<path d="M50.3269 310.815H56.5175V324.467H50.3269V310.815Z" fill="#1D1D1B"/>
<path d="M53.422 343.403C55.217 343.403 56.5199 341.592 56.5199 339.093C56.5199 336.594 55.217 334.786 53.422 334.786C51.6269 334.786 50.3268 336.597 50.3268 339.093C50.3268 341.589 51.6296 343.403 53.422 343.403Z" fill="#1D1D1B"/>
<path d="M50.3269 337.028H56.5175V350.68H50.3269V337.028Z" fill="#1D1D1B"/>
<path d="M53.422 369.614C55.217 369.614 56.5199 367.8 56.5199 365.304C56.5199 362.808 55.217 360.997 53.422 360.997C51.6269 360.997 50.3268 362.808 50.3268 365.304C50.3268 367.8 51.6296 369.614 53.422 369.614Z" fill="#1D1D1B"/>
<path d="M50.3269 363.237H56.5175V376.889H50.3269V363.237Z" fill="#1D1D1B"/>
<path d="M53.422 413.154C55.217 413.154 56.5199 411.34 56.5199 408.844C56.5199 406.348 55.217 404.537 53.422 404.537C51.6269 404.537 50.3268 406.348 50.3268 408.844C50.3268 411.34 51.6296 413.154 53.422 413.154Z" fill="#1D1D1B"/>
<path d="M50.3269 406.778H56.5175V420.43H50.3269V406.778Z" fill="#1D1D1B"/>
<path d="M12.1059 264.687C13.2482 264.686 14.3437 264.233 15.1517 263.425C15.9597 262.618 16.4142 261.523 16.4156 260.38C16.4142 259.238 15.9598 258.142 15.1518 257.334C14.3439 256.526 13.2485 256.072 12.1059 256.07C10.9636 256.072 9.86851 256.527 9.061 257.335C8.25349 258.143 7.79947 259.238 7.79876 260.38C7.80017 261.522 8.25448 262.617 9.06191 263.424C9.86935 264.231 10.964 264.686 12.1059 264.687ZM12.1059 259.837C12.2478 259.837 12.3839 259.893 12.4842 259.994C12.5845 260.094 12.6409 260.23 12.6409 260.372C12.6409 260.514 12.5845 260.65 12.4842 260.75C12.3839 260.851 12.2478 260.907 12.1059 260.907C11.964 260.907 11.8279 260.851 11.7276 260.75C11.6273 260.65 11.5709 260.514 11.5709 260.372C11.5709 260.23 11.6273 260.094 11.7276 259.994C11.8279 259.893 11.964 259.837 12.1059 259.837Z" fill="#1D1D1B"/>
<path d="M7.79876 271.964H16.4156V258.32H7.79876V271.964ZM12.649 268.2H11.5629V262.079H12.649V268.2Z" fill="#1D1D1B"/>
<path d="M23.4275 238.352C24.5699 238.351 25.6649 237.896 26.4724 237.088C27.28 236.28 27.7339 235.185 27.7346 234.042C27.7331 232.9 27.279 231.806 26.4715 230.998C25.6641 230.191 24.5694 229.737 23.4275 229.735C22.2857 229.737 21.1909 230.191 20.3834 230.998C19.576 231.806 19.1218 232.9 19.1204 234.042C19.1211 235.185 19.575 236.28 20.3825 237.088C21.19 237.896 22.2852 238.351 23.4275 238.352ZM23.4275 233.499C23.5695 233.499 23.7055 233.556 23.8058 233.656C23.9062 233.756 23.9626 233.892 23.9626 234.034C23.9626 234.176 23.9062 234.312 23.8058 234.413C23.7055 234.513 23.5695 234.569 23.4275 234.569C23.2856 234.569 23.1495 234.513 23.0491 234.413C22.9488 234.312 22.8925 234.176 22.8925 234.034C22.8925 233.892 22.9488 233.756 23.0491 233.656C23.1495 233.556 23.2856 233.499 23.4275 233.499Z" fill="#1D1D1B"/>
<path d="M19.1204 245.629H27.7346V231.985H19.1204V245.629ZM23.9706 241.868H22.8844V235.749H23.9706V241.868Z" fill="#1D1D1B"/>
<path d="M38.101 212.265C39.2429 212.264 40.3377 211.81 41.1451 211.002C41.9526 210.195 42.4067 209.1 42.4081 207.958C42.4074 206.816 41.9535 205.721 41.146 204.913C40.3385 204.105 39.2433 203.65 38.101 203.648C36.9587 203.65 35.8636 204.105 35.0561 204.913C34.2486 205.721 33.7947 206.816 33.794 207.958C33.7954 209.1 34.2496 210.195 35.057 211.002C35.8645 211.81 36.9591 212.264 38.101 212.265ZM38.101 207.415C38.2429 207.415 38.3791 207.472 38.4794 207.572C38.5798 207.672 38.636 207.808 38.636 207.95C38.636 208.092 38.5798 208.228 38.4794 208.329C38.3791 208.429 38.2429 208.485 38.101 208.485C37.9591 208.485 37.823 208.429 37.7227 208.329C37.6224 208.228 37.566 208.092 37.566 207.95C37.566 207.808 37.6224 207.672 37.7227 207.572C37.823 207.472 37.9591 207.415 38.101 207.415Z" fill="#1D1D1B"/>
<path d="M33.794 219.543H42.4081V205.899H33.794V219.543ZM38.6441 215.779H37.558V209.658H38.6441V215.779Z" fill="#1D1D1B"/>
<g opacity="0.4">
<path d="M-8.47186 344.863V351.72H-4.70512V348.116C-3.72675 348.622 -2.64145 348.885 -1.54031 348.884C-0.439162 348.885 0.646137 348.622 1.62451 348.116V351.72H5.39111V344.863H-8.47186Z" fill="#1D1D1B"/>
</g>
</g>
<path d="M5.1604 45.455C5.1604 25.1554 23.507 9.14151 44.5236 13.0848C57.7419 15.5647 68.2769 26.362 70.591 39.6098C71.9822 47.3519 70.5489 55.3364 66.5515 62.1112H66.5702L66.4765 62.2342C65.2111 64.3744 63.6274 65.8886 62.0276 68.1197L42.8837 93.4782C42.3289 94.2134 41.6109 94.8098 40.7865 95.2205C39.962 95.6312 39.0536 95.8449 38.1326 95.8449C37.2115 95.8449 36.3029 95.6312 35.4785 95.2205C34.6541 94.8098 33.9361 94.2134 33.3813 93.4782L14.5557 68.5369C14.5557 68.5369 11.0432 64.3476 9.76707 62.194L9.70019 62.1031H9.71364C6.73477 57.0607 5.16242 51.3116 5.1604 45.455ZM38.1326 59.8103C41.9807 59.8096 45.6711 58.2806 48.3922 55.5595C51.1133 52.8384 52.6422 49.148 52.6429 45.2998C52.6422 41.4517 51.1133 37.7615 48.3922 35.0405C45.6711 32.3194 41.9807 30.7903 38.1326 30.7896C34.2842 30.7896 30.5934 32.3184 27.8721 35.0397C25.1509 37.7609 23.6221 41.4514 23.6221 45.2998C23.6221 49.1482 25.1509 52.839 27.8721 55.5603C30.5934 58.2815 34.2842 59.8103 38.1326 59.8103Z" fill="#E33443"/>
<path opacity="0.4" d="M334.571 294.04C327.073 294.04 320.995 287.962 320.995 280.463C320.995 272.965 327.073 266.887 334.571 266.887C342.07 266.887 348.148 272.965 348.148 280.463C348.148 287.962 342.07 294.04 334.571 294.04Z" fill="#E33443"/>
<path d="M338.758 275.276C337.383 274.169 335.625 273.652 333.87 273.84C332.114 274.027 330.505 274.904 329.395 276.277C328.288 277.652 327.773 279.41 327.961 281.166C328.149 282.921 329.025 284.53 330.398 285.64C331.773 286.748 333.531 287.264 335.287 287.077C337.042 286.889 338.652 286.013 339.761 284.639C340.869 283.264 341.385 281.506 341.197 279.75C341.009 277.995 340.132 276.386 338.758 275.276Z" fill="#E33443"/>
<path d="M139.537 43.6007C139.016 43.7607 138.454 43.7088 137.972 43.4563C137.492 43.2005 137.131 42.7676 136.966 42.2498C136.806 41.7295 136.858 41.1669 137.11 40.6846C137.376 40.2158 137.811 39.866 138.326 39.706C138.84 39.546 139.397 39.5879 139.882 39.8233C140.363 40.0773 140.724 40.5108 140.888 41.0297C141.046 41.5505 140.993 42.1129 140.741 42.5949C140.486 43.0749 140.054 43.4361 139.537 43.6007Z" fill="#E33443"/>
<path d="M133.555 45.1474C133.035 45.3085 132.472 45.2566 131.99 45.0029C131.51 44.7477 131.15 44.3145 130.987 43.7965C130.825 43.2766 130.876 42.7136 131.128 42.2313C131.394 41.7624 131.829 41.4127 132.344 41.2532C132.859 41.0936 133.416 41.1363 133.9 41.3725C134.139 41.4976 134.351 41.6687 134.523 41.8757C134.696 42.0828 134.826 42.3216 134.906 42.579C135.064 43.0986 135.012 43.6597 134.761 44.1416C134.506 44.6219 134.073 44.9831 133.555 45.1474Z" fill="#E33443"/>
<path d="M127.474 47.146C127.217 47.2263 126.946 47.2552 126.678 47.2309C126.409 47.2066 126.148 47.1294 125.909 47.0041C125.429 46.7479 125.068 46.314 124.903 45.795C124.744 45.2756 124.796 44.7141 125.048 44.2327C125.314 43.7639 125.749 43.4138 126.263 43.2538C126.778 43.0938 127.335 43.1357 127.82 43.3711C128.301 43.6251 128.662 44.0589 128.825 44.5779C128.984 45.0986 128.931 45.6607 128.678 46.1428C128.424 46.6221 127.992 46.9825 127.474 47.146Z" fill="#E33443"/>
<path d="M121.399 49.0775C120.887 49.2637 120.322 49.2396 119.828 49.0107C119.335 48.7809 118.951 48.3671 118.758 47.8577C118.573 47.3462 118.596 46.7821 118.822 46.2874C119.064 45.8059 119.481 45.4348 119.987 45.2494C120.493 45.064 121.05 45.0785 121.546 45.2896C121.791 45.4021 122.012 45.5618 122.196 45.7596C122.379 45.9575 122.522 46.1895 122.616 46.4425C122.799 46.9547 122.775 47.5181 122.549 48.0129C122.32 48.5047 121.907 48.8868 121.399 49.0775Z" fill="#E33443"/>
<path d="M115.46 51.2424C115.207 51.3356 114.938 51.3778 114.668 51.3668C114.399 51.3557 114.134 51.2916 113.889 51.1781C113.396 50.9472 113.012 50.5324 112.819 50.0223C112.634 49.5117 112.657 48.9483 112.884 48.4546C113.125 47.9727 113.541 47.6009 114.047 47.415C114.553 47.2292 115.111 47.2433 115.607 47.4542C115.852 47.5667 116.073 47.7264 116.257 47.9242C116.44 48.1221 116.583 48.3541 116.677 48.6071C116.86 49.1193 116.836 49.6827 116.61 50.1775C116.381 50.6693 115.968 51.0517 115.46 51.2424Z" fill="#E33443"/>
<path d="M109.395 53.3691C109.138 53.4495 108.868 53.4782 108.599 53.4534C108.331 53.4286 108.071 53.3508 107.833 53.2246C107.352 52.9701 106.991 52.5368 106.827 52.0181C106.747 51.761 106.719 51.4907 106.743 51.2226C106.768 50.9545 106.846 50.6939 106.971 50.4558C107.236 49.9867 107.67 49.6365 108.185 49.4764C108.699 49.3163 109.256 49.3585 109.74 49.5945C109.979 49.7191 110.191 49.8898 110.364 50.0969C110.537 50.304 110.666 50.5433 110.746 50.8009C110.907 51.3212 110.855 51.8838 110.602 52.3658C110.347 52.846 109.914 53.2064 109.395 53.3691Z" fill="#E33443"/>
<path d="M103.183 55.4949C102.93 55.5877 102.661 55.6295 102.391 55.618C102.122 55.6065 101.857 55.542 101.613 55.4281C101.119 55.1983 100.735 54.7845 100.543 54.2751C100.357 53.7636 100.38 53.1995 100.607 52.7048C100.849 52.2238 101.266 51.8529 101.771 51.6676C102.277 51.4823 102.835 51.4963 103.33 51.7068C103.576 51.8192 103.797 51.9789 103.98 52.1768C104.164 52.3746 104.307 52.6069 104.4 52.8599C104.583 53.3721 104.559 53.9355 104.334 54.4303C104.104 54.9221 103.691 55.3042 103.183 55.4949Z" fill="#E33443"/>
<path d="M97.2496 57.6592C96.9965 57.7524 96.7275 57.7949 96.458 57.7839C96.1885 57.7728 95.9239 57.7088 95.6792 57.5952C95.1847 57.3653 94.8004 56.9501 94.6091 56.4395C94.4235 55.9288 94.4465 55.3654 94.6733 54.8717C94.9148 54.3898 95.3309 54.018 95.8369 53.8322C96.3429 53.6463 96.9006 53.6601 97.3967 53.8711C97.8924 54.0994 98.2773 54.5151 98.4668 55.0269C98.6499 55.5381 98.6259 56.1008 98.3999 56.5946C98.1713 57.0869 97.7581 57.4693 97.2496 57.6592Z" fill="#E33443"/>
<path d="M91.1794 59.789C90.66 59.9488 90.0983 59.8969 89.617 59.6445C89.1374 59.3887 88.7765 58.9559 88.6112 58.4381C88.5312 58.1805 88.5028 57.9098 88.5276 57.6413C88.5524 57.3727 88.6299 57.1117 88.7557 56.8732C89.0212 56.4045 89.4552 56.0545 89.9696 55.8945C90.4839 55.7345 91.0399 55.7763 91.5244 56.0116C91.7633 56.1365 91.9751 56.3074 92.1478 56.5145C92.3204 56.7215 92.4504 56.9608 92.5304 57.2183C92.6912 57.7385 92.6393 58.3012 92.3859 58.7832C92.1315 59.2639 91.6981 59.6252 91.1794 59.789Z" fill="#E33443"/>
<path d="M85.251 62.2266C84.9979 62.3198 84.7288 62.362 84.4594 62.351C84.1899 62.34 83.9252 62.2759 83.6806 62.1624C83.1861 61.9324 82.8018 61.5175 82.6105 61.0068C82.4248 60.4962 82.448 59.9328 82.6747 59.4391C82.9162 58.9572 83.3323 58.5854 83.8382 58.3995C84.3442 58.2137 84.902 58.2275 85.398 58.4385C85.6437 58.5511 85.8648 58.7112 86.0484 58.9095C86.2321 59.1078 86.3747 59.3406 86.4681 59.5942C86.6524 60.1053 86.6283 60.6682 86.4012 61.1618C86.1719 61.6535 85.759 62.0359 85.251 62.2266Z" fill="#E33443"/>
<path d="M79.3174 64.3931C78.8056 64.5792 78.241 64.5552 77.747 64.3262C77.2533 64.0964 76.8693 63.6827 76.6769 63.1733C76.4914 62.6617 76.5145 62.0977 76.7411 61.6029C76.9836 61.122 77.3999 60.7513 77.9057 60.566C78.4114 60.3807 78.9688 60.3947 79.4646 60.6052C79.7099 60.7177 79.9307 60.8774 80.1143 61.0752C80.2979 61.273 80.4408 61.5051 80.5347 61.7581C80.7191 62.2701 80.695 62.834 80.4678 63.3285C80.2384 63.8203 79.8254 64.2024 79.3174 64.3931Z" fill="#E33443"/>
<path d="M77.3217 68.8819C77.1753 69.4065 76.8285 69.8522 76.356 70.1231C75.8827 70.39 75.3235 70.4602 74.799 70.3185C74.5389 70.2474 74.2956 70.1259 74.0826 69.9606C73.8696 69.7954 73.6912 69.5898 73.5577 69.3556C73.3057 68.879 73.2448 68.3241 73.3874 67.8042C73.5301 67.2843 73.8656 66.8385 74.3256 66.5573C74.7978 66.2876 75.3578 66.2163 75.8825 66.3593C76.4069 66.5059 76.8527 66.8526 77.1238 67.3248C77.3902 67.7982 77.4612 68.3569 77.3217 68.8819Z" fill="#E33443"/>
<path d="M75.6391 74.9707C75.5679 75.2307 75.4459 75.4742 75.2801 75.6868C75.1144 75.8994 74.9082 76.0768 74.6734 76.2093C74.2005 76.477 73.6413 76.5482 73.1164 76.4073C72.5924 76.2628 72.1469 75.9166 71.8777 75.4443C71.6254 74.9681 71.5642 74.4134 71.7063 73.8935C71.8485 73.3737 72.1834 72.9277 72.6429 72.6461C73.1162 72.3765 73.6769 72.3052 74.2025 72.448C74.7258 72.5956 75.1705 72.9424 75.4412 73.4139C75.7101 73.8864 75.7812 74.4459 75.6391 74.9707Z" fill="#E33443"/>
<path d="M73.8493 81.1432C73.7646 81.399 73.6303 81.6356 73.4541 81.8394C73.2778 82.0432 73.063 82.2104 72.8221 82.3311C72.3362 82.5747 71.7739 82.6169 71.2571 82.4487C70.7403 82.278 70.3122 81.9096 70.0665 81.424C69.8396 80.9354 69.8071 80.379 69.9755 79.8672C70.1439 79.3555 70.5007 78.9269 70.9735 78.6686C71.4598 78.4234 72.0236 78.3809 72.5411 78.5508C73.0562 78.7231 73.4829 79.0911 73.7289 79.5754C73.9733 80.0619 74.0166 80.6251 73.8493 81.1432Z" fill="#E33443"/>
<path d="M71.9713 87.4406C71.8269 87.9653 71.4806 88.4115 71.0082 88.6818C70.5336 88.9474 69.974 89.0176 69.4485 88.8772C68.9245 88.7327 68.4791 88.3862 68.2099 87.914C67.9579 87.4374 67.8971 86.8828 68.0397 86.3629C68.1824 85.843 68.5178 85.3969 68.9777 85.1157C69.45 84.846 70.01 84.775 70.5347 84.9179C71.0587 85.0654 71.5043 85.4118 71.776 85.8835C72.0429 86.3568 72.113 86.9161 71.9713 87.4406Z" fill="#E33443"/>
<path d="M70.2914 93.5285C70.2198 93.7883 70.0976 94.0315 69.9319 94.2441C69.7662 94.4566 69.56 94.6343 69.3255 94.7671C68.8525 95.0346 68.2935 95.1057 67.7686 94.9651C67.2442 94.8199 66.7982 94.474 66.5273 94.0021C66.2752 93.5256 66.2144 92.9707 66.357 92.4508C66.4997 91.9309 66.8351 91.4851 67.2951 91.2039C67.7682 90.934 68.3292 90.8627 68.8548 91.0058C69.3786 91.1523 69.8235 91.4994 70.0934 91.9717C70.3597 92.4451 70.4308 93.0035 70.2914 93.5285Z" fill="#E33443"/>
<path d="M68.4988 99.7029C68.4151 99.9592 68.2815 100.196 68.1056 100.401C67.9298 100.605 67.7151 100.772 67.4742 100.893C66.9882 101.137 66.426 101.179 65.9091 101.011C65.6531 100.927 65.4161 100.793 65.2119 100.617C65.0076 100.441 64.8401 100.227 64.7188 99.9866C64.4911 99.4981 64.4582 98.9412 64.6267 98.4293C64.7951 97.9174 65.1524 97.4888 65.6257 97.2309C66.1121 96.9857 66.6758 96.9435 67.1933 97.1134C67.7085 97.2857 68.1351 97.6537 68.3811 98.138C68.6259 98.6235 68.6682 99.1862 68.4988 99.7029Z" fill="#E33443"/>
<path d="M67.0381 105.948C66.9673 106.208 66.8455 106.452 66.6797 106.665C66.514 106.878 66.3075 107.056 66.0723 107.189C65.5991 107.456 65.0398 107.526 64.5153 107.384C64.2556 107.313 64.0126 107.191 63.8001 107.026C63.5875 106.861 63.4096 106.655 63.2767 106.421C63.0245 105.945 62.9633 105.391 63.1054 104.872C63.2476 104.352 63.5824 103.907 64.0417 103.626C64.2758 103.491 64.5342 103.405 64.8019 103.371C65.0695 103.337 65.3412 103.356 65.6014 103.427C66.1249 103.573 66.5699 103.919 66.84 104.391C67.1075 104.864 67.1786 105.423 67.0381 105.948Z" fill="#E33443"/>
<path d="M65.3608 112.036C65.2901 112.297 65.1686 112.54 65.0033 112.753C64.838 112.966 64.6322 113.145 64.3977 113.278C63.9235 113.545 63.3634 113.615 62.838 113.473C62.5784 113.402 62.3354 113.28 62.1229 113.115C61.9103 112.95 61.7324 112.744 61.5995 112.51C61.3481 112.033 61.2876 111.479 61.4302 110.959C61.5728 110.439 61.9078 109.993 62.3673 109.712C62.8395 109.442 63.3995 109.371 63.9242 109.514C64.4482 109.661 64.8938 110.008 65.1655 110.479C65.4324 110.953 65.5025 111.512 65.3608 112.036Z" fill="#E33443"/>
<path d="M56.5834 110.813C56.0946 110.574 55.7198 110.152 55.54 109.639C55.3642 109.124 55.3968 108.562 55.631 108.071C55.869 107.582 56.2913 107.207 56.8054 107.028C57.3199 106.866 57.8767 106.907 58.362 107.142C58.8472 107.378 59.2243 107.789 59.4164 108.293C59.5059 108.548 59.5441 108.817 59.5285 109.086C59.5128 109.355 59.4438 109.619 59.3255 109.861C59.0859 110.349 58.664 110.723 58.151 110.902C57.6372 111.079 57.074 111.048 56.5834 110.813Z" fill="#E33443"/>
<path d="M50.8399 107.925C50.6033 107.796 50.3946 107.621 50.2257 107.41C50.0568 107.2 49.9309 106.959 49.8554 106.7C49.7066 106.177 49.7681 105.616 50.0266 105.138C50.2892 104.661 50.7297 104.308 51.2519 104.155C51.774 104.021 52.3275 104.091 52.8001 104.351C53.2726 104.61 53.6287 105.04 53.796 105.552C53.8713 105.811 53.895 106.081 53.8656 106.349C53.8362 106.617 53.7543 106.876 53.6247 107.112C53.3617 107.588 52.9213 107.941 52.3994 108.094C51.8776 108.245 51.3173 108.184 50.8399 107.925Z" fill="#E33443"/>
<path d="M44.9651 105.351C44.7225 105.233 44.5055 105.069 44.3264 104.868C44.1474 104.666 44.0099 104.431 43.9216 104.177C43.7469 103.662 43.7806 103.099 44.0153 102.609C44.2525 102.12 44.6738 101.745 45.187 101.566C45.7015 101.405 46.2578 101.447 46.7428 101.682C47.2277 101.917 47.605 102.328 47.7981 102.831C47.8876 103.085 47.9257 103.355 47.91 103.624C47.8944 103.893 47.8255 104.156 47.7072 104.399C47.4686 104.888 47.0465 105.263 46.5327 105.442C46.0185 105.619 45.4553 105.586 44.9651 105.351Z" fill="#E33443"/>
<path d="M39.2882 102.588C39.0452 102.47 38.8279 102.305 38.6489 102.103C38.4698 101.901 38.3325 101.666 38.2448 101.41C38.0677 100.897 38.1004 100.335 38.3358 99.8455C38.4525 99.6024 38.6165 99.3848 38.8182 99.2057C39.0198 99.0266 39.255 98.8894 39.5102 98.8021C40.0244 98.6407 40.5808 98.6818 41.0656 98.917C41.5504 99.1522 41.9271 99.5639 42.1186 100.068C42.2078 100.322 42.2459 100.591 42.2308 100.86C42.2156 101.129 42.1475 101.392 42.0303 101.635C41.7898 102.123 41.367 102.497 40.8532 102.676C40.3401 102.852 39.7782 102.821 39.2882 102.588Z" fill="#E33443"/>
<path d="M140.457 237.237C140.395 236.975 140.385 236.703 140.428 236.437C140.471 236.171 140.566 235.916 140.708 235.687C140.85 235.457 141.036 235.259 141.255 235.101C141.474 234.944 141.722 234.832 141.985 234.771C142.247 234.708 142.519 234.698 142.786 234.741C143.052 234.784 143.307 234.88 143.536 235.022C143.766 235.164 143.965 235.349 144.122 235.569C144.28 235.788 144.392 236.036 144.454 236.298C144.516 236.56 144.525 236.832 144.482 237.098C144.439 237.364 144.344 237.619 144.202 237.848C144.06 238.078 143.874 238.276 143.655 238.434C143.436 238.591 143.189 238.704 142.926 238.765C142.664 238.827 142.392 238.837 142.125 238.794C141.859 238.751 141.604 238.656 141.374 238.514C141.145 238.372 140.946 238.186 140.788 237.967C140.631 237.748 140.518 237.5 140.457 237.237ZM138.873 230.512C138.811 230.249 138.801 229.977 138.844 229.711C138.887 229.444 138.982 229.189 139.124 228.96C139.266 228.73 139.452 228.531 139.671 228.374C139.89 228.216 140.138 228.104 140.401 228.043C140.663 227.981 140.935 227.971 141.202 228.014C141.468 228.057 141.723 228.153 141.952 228.294C142.182 228.436 142.381 228.622 142.538 228.841C142.696 229.06 142.808 229.308 142.87 229.57C142.932 229.833 142.942 230.105 142.899 230.371C142.855 230.637 142.76 230.892 142.618 231.121C142.476 231.351 142.291 231.55 142.072 231.707C141.853 231.865 141.605 231.978 141.343 232.039C141.08 232.102 140.808 232.112 140.542 232.069C140.275 232.025 140.02 231.93 139.791 231.788C139.561 231.646 139.362 231.46 139.205 231.241C139.047 231.022 138.935 230.774 138.873 230.512ZM137.29 223.784C137.228 223.521 137.218 223.249 137.261 222.983C137.305 222.717 137.4 222.463 137.542 222.233C137.684 222.004 137.869 221.805 138.088 221.648C138.307 221.491 138.555 221.378 138.817 221.317C139.08 221.255 139.352 221.245 139.618 221.288C139.884 221.332 140.139 221.427 140.368 221.569C140.598 221.711 140.797 221.896 140.954 222.115C141.112 222.334 141.225 222.582 141.286 222.844C141.348 223.107 141.358 223.379 141.315 223.645C141.271 223.911 141.176 224.166 141.034 224.395C140.892 224.624 140.707 224.823 140.488 224.98C140.269 225.137 140.021 225.25 139.759 225.311C139.496 225.374 139.224 225.384 138.958 225.341C138.691 225.298 138.436 225.203 138.206 225.061C137.977 224.919 137.778 224.733 137.62 224.514C137.463 224.295 137.351 224.047 137.29 223.784ZM135.706 217.058C135.644 216.796 135.634 216.524 135.678 216.258C135.721 215.992 135.816 215.737 135.958 215.508C136.1 215.279 136.286 215.08 136.504 214.923C136.723 214.766 136.971 214.653 137.233 214.592C137.496 214.529 137.768 214.519 138.035 214.561C138.301 214.604 138.556 214.7 138.786 214.842C139.015 214.984 139.214 215.17 139.372 215.389C139.529 215.608 139.642 215.856 139.703 216.119C139.765 216.381 139.774 216.653 139.731 216.919C139.688 217.185 139.592 217.44 139.451 217.669C139.309 217.898 139.123 218.097 138.904 218.255C138.685 218.412 138.438 218.524 138.175 218.586C137.913 218.648 137.64 218.659 137.374 218.616C137.107 218.573 136.852 218.478 136.623 218.336C136.393 218.194 136.194 218.008 136.037 217.788C135.879 217.569 135.767 217.321 135.706 217.058ZM134.122 210.333C134.06 210.07 134.05 209.798 134.094 209.532C134.137 209.266 134.232 209.011 134.374 208.781C134.516 208.552 134.702 208.353 134.92 208.195C135.139 208.038 135.387 207.925 135.65 207.863C135.912 207.801 136.184 207.791 136.451 207.834C136.717 207.877 136.972 207.972 137.202 208.114C137.431 208.256 137.63 208.442 137.787 208.661C137.945 208.88 138.058 209.128 138.119 209.391C138.181 209.653 138.191 209.925 138.148 210.192C138.105 210.458 138.01 210.713 137.868 210.943C137.726 211.172 137.54 211.371 137.321 211.529C137.102 211.686 136.854 211.799 136.591 211.86C136.329 211.922 136.057 211.932 135.791 211.889C135.525 211.845 135.269 211.75 135.04 211.608C134.811 211.466 134.612 211.281 134.454 211.062C134.297 210.843 134.184 210.595 134.122 210.333ZM132.538 203.607C132.476 203.344 132.467 203.072 132.51 202.806C132.554 202.54 132.649 202.284 132.791 202.055C132.934 201.826 133.119 201.626 133.339 201.469C133.558 201.312 133.806 201.199 134.069 201.138C134.331 201.076 134.603 201.066 134.869 201.11C135.135 201.153 135.39 201.248 135.619 201.39C135.848 201.532 136.047 201.718 136.204 201.936C136.361 202.155 136.474 202.403 136.535 202.665C136.658 203.195 136.567 203.752 136.28 204.215C135.994 204.677 135.537 205.008 135.008 205.135C134.478 205.258 133.921 205.166 133.458 204.88C132.995 204.594 132.665 204.136 132.538 203.607ZM130.955 196.879C130.893 196.616 130.883 196.344 130.927 196.078C130.97 195.812 131.066 195.557 131.208 195.328C131.35 195.099 131.536 194.9 131.755 194.743C131.974 194.586 132.222 194.473 132.485 194.412C132.747 194.35 133.019 194.339 133.286 194.382C133.552 194.425 133.807 194.52 134.036 194.662C134.266 194.804 134.464 194.991 134.621 195.21C134.779 195.429 134.891 195.677 134.951 195.94C135.075 196.47 134.984 197.027 134.697 197.489C134.411 197.951 133.953 198.281 133.424 198.406C132.894 198.529 132.337 198.438 131.874 198.152C131.412 197.866 131.081 197.408 130.955 196.879ZM129.371 190.153C129.245 189.622 129.336 189.062 129.622 188.597C129.908 188.131 130.367 187.798 130.898 187.671C131.43 187.548 131.989 187.642 132.452 187.93C132.915 188.219 133.244 188.68 133.368 189.212C133.492 189.742 133.401 190.299 133.115 190.762C132.828 191.225 132.37 191.556 131.84 191.681C131.31 191.803 130.754 191.711 130.291 191.425C129.829 191.139 129.498 190.682 129.371 190.153ZM127.784 183.414C127.723 183.152 127.713 182.879 127.756 182.613C127.8 182.347 127.895 182.092 128.037 181.862C128.18 181.633 128.366 181.434 128.585 181.277C128.804 181.119 129.052 181.006 129.315 180.945C129.577 180.883 129.849 180.874 130.115 180.917C130.381 180.96 130.636 181.056 130.865 181.197C131.094 181.339 131.293 181.525 131.45 181.744C131.607 181.963 131.72 182.21 131.781 182.473C131.844 182.735 131.854 183.007 131.811 183.274C131.768 183.54 131.673 183.796 131.531 184.025C131.389 184.255 131.203 184.454 130.984 184.611C130.765 184.769 130.517 184.881 130.254 184.942C129.991 185.004 129.719 185.014 129.453 184.97C129.187 184.927 128.932 184.832 128.703 184.69C128.473 184.548 128.274 184.362 128.117 184.144C127.959 183.925 127.846 183.677 127.784 183.414ZM126.204 176.689C126.141 176.427 126.131 176.154 126.174 175.888C126.217 175.622 126.313 175.367 126.454 175.137C126.596 174.908 126.782 174.709 127.001 174.551C127.22 174.394 127.468 174.281 127.731 174.22C127.993 174.158 128.265 174.148 128.532 174.191C128.798 174.234 129.053 174.33 129.282 174.471C129.512 174.613 129.711 174.799 129.868 175.018C130.026 175.237 130.139 175.485 130.2 175.747C130.262 176.01 130.272 176.282 130.229 176.548C130.185 176.814 130.09 177.069 129.948 177.299C129.806 177.528 129.621 177.727 129.402 177.885C129.183 178.042 128.935 178.155 128.673 178.217C128.41 178.279 128.138 178.288 127.872 178.245C127.606 178.202 127.351 178.106 127.121 177.964C126.892 177.823 126.693 177.637 126.535 177.418C126.378 177.199 126.265 176.952 126.204 176.689ZM124.62 169.961C124.558 169.698 124.548 169.426 124.591 169.16C124.635 168.894 124.73 168.639 124.872 168.409C125.014 168.18 125.199 167.981 125.418 167.823C125.637 167.666 125.885 167.553 126.147 167.491C126.41 167.429 126.682 167.42 126.948 167.463C127.214 167.506 127.469 167.602 127.699 167.743C127.928 167.885 128.127 168.071 128.285 168.29C128.442 168.509 128.555 168.757 128.617 169.019C128.679 169.282 128.689 169.554 128.646 169.82C128.603 170.086 128.507 170.341 128.365 170.571C128.224 170.8 128.038 170.999 127.819 171.157C127.6 171.314 127.352 171.427 127.089 171.488C126.827 171.551 126.554 171.561 126.288 171.518C126.022 171.474 125.767 171.379 125.537 171.237C125.308 171.095 125.109 170.909 124.951 170.69C124.794 170.471 124.681 170.223 124.62 169.961ZM127.159 164.682C126.621 164.605 126.135 164.319 125.809 163.884C125.482 163.45 125.341 162.904 125.417 162.366C125.497 161.826 125.787 161.34 126.224 161.013C126.661 160.687 127.209 160.546 127.75 160.621C128.287 160.699 128.772 160.986 129.098 161.421C129.424 161.855 129.564 162.401 129.489 162.938C129.431 163.349 129.251 163.732 128.971 164.039C128.692 164.345 128.327 164.56 127.924 164.656C127.672 164.712 127.413 164.721 127.159 164.682ZM128.135 157.845C127.597 157.768 127.112 157.481 126.786 157.046C126.46 156.612 126.32 156.066 126.396 155.528C126.431 155.26 126.519 155.002 126.655 154.769C126.791 154.536 126.972 154.332 127.188 154.17C127.404 154.008 127.65 153.891 127.912 153.825C128.174 153.76 128.446 153.747 128.713 153.789C128.98 153.824 129.238 153.912 129.471 154.048C129.704 154.184 129.908 154.365 130.07 154.581C130.232 154.797 130.349 155.043 130.415 155.305C130.48 155.567 130.493 155.839 130.452 156.106C130.395 156.512 130.216 156.892 129.939 157.196C129.662 157.499 129.3 157.711 128.9 157.804C128.65 157.866 128.39 157.88 128.135 157.845ZM129.109 150.996C128.571 150.919 128.085 150.631 127.759 150.196C127.432 149.761 127.291 149.215 127.367 148.677C127.445 148.139 127.732 147.653 128.167 147.327C128.602 147.001 129.149 146.861 129.687 146.938C129.954 146.974 130.211 147.063 130.443 147.2C130.675 147.336 130.878 147.517 131.04 147.733C131.202 147.948 131.319 148.194 131.385 148.455C131.451 148.716 131.465 148.988 131.426 149.254C131.372 149.664 131.195 150.047 130.919 150.354C130.642 150.66 130.278 150.875 129.877 150.969C129.623 151.026 129.361 151.035 129.103 150.996H129.109ZM130.088 144.158C129.55 144.081 129.064 143.794 128.737 143.359C128.41 142.924 128.27 142.377 128.346 141.839C128.382 141.571 128.471 141.314 128.607 141.081C128.743 140.848 128.924 140.644 129.139 140.481C129.354 140.319 129.599 140.2 129.86 140.132C130.121 140.064 130.393 140.049 130.66 140.086C131.199 140.167 131.684 140.457 132.01 140.893C132.336 141.33 132.477 141.877 132.402 142.417C132.346 142.824 132.168 143.205 131.891 143.509C131.614 143.812 131.251 144.025 130.85 144.118C130.601 144.178 130.342 144.192 130.088 144.158ZM131.064 137.32C130.526 137.24 130.04 136.95 129.714 136.513C129.387 136.077 129.246 135.53 129.32 134.99C129.397 134.452 129.684 133.967 130.118 133.64C130.553 133.314 131.099 133.173 131.637 133.248C132.175 133.325 132.66 133.613 132.987 134.047C133.313 134.481 133.454 135.027 133.378 135.565C133.323 135.977 133.143 136.361 132.864 136.668C132.584 136.975 132.218 137.189 131.813 137.283C131.569 137.345 131.314 137.358 131.064 137.323V137.32ZM132.038 130.469C131.771 130.433 131.513 130.345 131.28 130.209C131.046 130.073 130.842 129.892 130.679 129.677C130.516 129.462 130.397 129.217 130.329 128.956C130.261 128.694 130.246 128.422 130.283 128.155C130.365 127.617 130.655 127.132 131.091 126.806C131.527 126.48 132.074 126.339 132.613 126.413C132.88 126.451 133.136 126.541 133.368 126.678C133.6 126.815 133.802 126.996 133.964 127.211C134.126 127.426 134.243 127.671 134.311 127.932C134.378 128.192 134.393 128.464 134.355 128.73C134.295 129.139 134.114 129.52 133.834 129.824C133.554 130.128 133.19 130.341 132.787 130.434C132.545 130.492 132.293 130.504 132.046 130.469H132.038ZM132.999 123.623C132.461 123.546 131.975 123.259 131.649 122.825C131.322 122.39 131.181 121.844 131.257 121.306C131.336 120.767 131.625 120.28 132.062 119.953C132.499 119.626 133.047 119.486 133.587 119.562C134.125 119.639 134.61 119.926 134.937 120.36C135.263 120.795 135.404 121.341 135.329 121.879C135.273 122.29 135.094 122.675 134.814 122.982C134.534 123.289 134.168 123.503 133.764 123.596C133.513 123.659 133.253 123.668 132.999 123.623ZM133.975 116.785C133.438 116.708 132.953 116.42 132.627 115.986C132.301 115.552 132.16 115.006 132.236 114.469C132.272 114.202 132.362 113.944 132.498 113.712C132.634 113.479 132.816 113.276 133.031 113.114C133.247 112.952 133.492 112.835 133.753 112.768C134.014 112.702 134.286 112.688 134.553 112.727C134.82 112.763 135.078 112.852 135.311 112.988C135.544 113.124 135.747 113.304 135.91 113.519C136.073 113.735 136.192 113.98 136.26 114.241C136.327 114.502 136.343 114.774 136.305 115.041C136.244 115.45 136.062 115.83 135.783 116.135C135.503 116.439 135.139 116.652 134.737 116.748C134.488 116.807 134.229 116.82 133.975 116.785ZM134.951 109.95C134.413 109.868 133.928 109.577 133.602 109.141C133.277 108.704 133.136 108.157 133.21 107.617C133.287 107.08 133.574 106.594 134.008 106.268C134.443 105.942 134.989 105.802 135.527 105.878C135.795 105.915 136.054 106.004 136.287 106.141C136.521 106.279 136.725 106.461 136.887 106.678C137.049 106.895 137.167 107.142 137.233 107.405C137.299 107.667 137.312 107.941 137.271 108.208C137.213 108.616 137.034 108.996 136.757 109.299C136.479 109.603 136.117 109.816 135.717 109.91C135.466 109.97 135.207 109.984 134.951 109.95ZM135.925 103.099C135.387 103.021 134.902 102.733 134.576 102.299C134.25 101.864 134.11 101.318 134.186 100.779C134.264 100.242 134.551 99.7573 134.986 99.4314C135.42 99.1055 135.965 98.9649 136.503 99.0406C137.041 99.1175 137.526 99.4044 137.853 99.8387C138.179 100.273 138.32 100.819 138.245 101.357C138.185 101.766 138.003 102.147 137.724 102.451C137.444 102.755 137.079 102.968 136.677 103.061C136.431 103.121 136.176 103.134 135.925 103.099ZM136.904 96.2608C136.366 96.1801 135.88 95.8903 135.554 95.4541C135.227 95.0179 135.086 94.4705 135.16 93.9307C135.237 93.3929 135.524 92.9076 135.958 92.5811C136.393 92.2546 136.939 92.1136 137.477 92.1892C138.015 92.2668 138.5 92.5544 138.827 92.9892C139.153 93.4239 139.294 93.9703 139.218 94.5086C139.162 94.9195 138.982 95.3037 138.702 95.6103C138.423 95.9169 138.057 96.1316 137.653 96.2261C137.408 96.2849 137.154 96.2966 136.904 96.2608ZM137.878 89.4098C137.61 89.3747 137.352 89.2866 137.119 89.1506C136.886 89.0146 136.682 88.8332 136.52 88.6174C136.358 88.4016 136.241 88.1558 136.175 87.894C136.109 87.6322 136.096 87.3598 136.137 87.093C136.173 86.8257 136.262 86.5684 136.399 86.3359C136.535 86.1033 136.717 85.9002 136.933 85.7384C137.148 85.5766 137.394 85.4593 137.656 85.3933C137.917 85.3273 138.189 85.314 138.456 85.3541C138.994 85.4309 139.479 85.7181 139.805 86.1525C140.131 86.5869 140.271 87.1331 140.195 87.6709C140.135 88.0796 139.954 88.4607 139.674 88.7647C139.394 89.0687 139.03 89.2812 138.627 89.3748C138.382 89.4335 138.128 89.4455 137.878 89.4098ZM138.841 82.5772C138.301 82.4991 137.814 82.2097 137.487 81.7728C137.16 81.336 137.02 80.7873 137.097 80.2471C137.175 79.707 137.464 79.2198 137.901 78.8928C138.338 78.5658 138.887 78.4255 139.427 78.5027C139.967 78.5809 140.454 78.8703 140.781 79.3071C141.108 79.744 141.249 80.2926 141.171 80.8328C141.112 81.2413 140.931 81.6224 140.652 81.9264C140.373 82.2305 140.008 82.4433 139.606 82.537C139.356 82.5975 139.097 82.6112 138.841 82.5772ZM139.815 75.7259C139.549 75.6881 139.292 75.5983 139.06 75.4615C138.829 75.3246 138.626 75.1434 138.464 74.9283C138.303 74.7131 138.185 74.4681 138.118 74.2075C138.051 73.9468 138.036 73.6756 138.073 73.4091C138.151 72.871 138.439 72.3856 138.873 72.0592C139.308 71.7328 139.855 71.5919 140.393 71.6676C140.661 71.7029 140.919 71.7912 141.152 71.9275C141.385 72.0639 141.588 72.2455 141.75 72.4615C141.912 72.6776 142.029 72.9238 142.095 73.1857C142.16 73.4477 142.173 73.7201 142.132 73.987C142.074 74.3938 141.896 74.7739 141.619 75.0774C141.342 75.381 140.98 75.594 140.58 75.6885C140.326 75.7494 140.063 75.7621 139.804 75.7259H139.815ZM140.791 68.8907C140.253 68.8093 139.768 68.5186 139.442 68.0819C139.116 67.6452 138.975 67.0978 139.05 66.558C139.127 66.0206 139.415 65.5356 139.849 65.2097C140.283 64.8837 140.829 64.7435 141.367 64.8191C141.634 64.8555 141.891 64.9444 142.123 65.0809C142.356 65.2173 142.559 65.3984 142.721 65.6138C142.883 65.8293 143 66.0747 143.067 66.3359C143.133 66.5972 143.147 66.869 143.108 67.1356C143.054 67.5453 142.877 67.9289 142.6 68.2352C142.323 68.5416 141.959 68.7562 141.557 68.8505C141.306 68.9107 141.047 68.9244 140.791 68.8907ZM141.765 62.0394C141.227 61.9619 140.742 61.6743 140.416 61.2394C140.09 60.8046 139.95 60.2581 140.026 59.72C140.104 59.1826 140.391 58.6978 140.826 58.3719C141.26 58.046 141.806 57.9054 142.343 57.9811C142.881 58.058 143.366 58.3452 143.693 58.7795C144.019 59.2138 144.16 59.7598 144.085 60.2979C144.029 60.7067 143.851 61.0892 143.574 61.3951C143.297 61.7011 142.934 61.9163 142.533 62.0127C142.281 62.0698 142.021 62.0788 141.765 62.0394ZM142.747 55.1935C142.479 55.1565 142.221 55.0666 141.987 54.9291C141.754 54.7917 141.551 54.6092 141.388 54.3925C141.226 54.1758 141.109 53.9292 141.042 53.6668C140.976 53.4043 140.963 53.1311 141.003 52.8634C141.08 52.3255 141.367 51.84 141.801 51.5135C142.235 51.187 142.782 51.0463 143.32 51.1219C143.86 51.2007 144.347 51.4903 144.674 51.9276C145.001 52.3649 145.141 52.9141 145.064 53.4546C145.003 53.8631 144.822 54.2438 144.542 54.5477C144.263 54.8516 143.898 55.0646 143.496 55.1588C143.251 55.2175 142.997 55.2293 142.747 55.1935ZM143.707 48.3477C143.169 48.2701 142.684 47.9824 142.358 47.5477C142.031 47.113 141.89 46.5666 141.966 46.0283C142.047 45.4894 142.338 45.0044 142.775 44.6784C143.211 44.3523 143.759 44.2116 144.299 44.2867C144.836 44.3636 145.322 44.6507 145.648 45.0851C145.974 45.5195 146.114 46.0655 146.038 46.6033C145.978 47.0121 145.797 47.3936 145.517 47.6977C145.237 48.0017 144.872 48.2142 144.47 48.3074C144.22 48.3694 143.961 48.3859 143.705 48.3558L143.707 48.3477ZM144.684 41.5096C144.145 41.4288 143.66 41.1391 143.333 40.7029C143.007 40.2667 142.865 39.7193 142.94 39.1795C143.021 38.6405 143.312 38.1553 143.748 37.8288C144.185 37.5024 144.732 37.361 145.272 37.4354C145.811 37.5155 146.297 37.8054 146.623 38.2419C146.949 38.6783 147.09 39.2259 147.014 39.7655C146.955 40.174 146.774 40.5551 146.495 40.8591C146.215 41.1631 145.851 41.376 145.449 41.4697C145.198 41.5332 144.938 41.5495 144.681 41.5177L144.684 41.5096Z" fill="#E33443"/>
<path d="M144.513 245.503C144.249 245.566 143.975 245.574 143.708 245.528C143.441 245.482 143.186 245.383 142.958 245.236C142.728 245.099 142.527 244.917 142.37 244.699C142.213 244.482 142.102 244.235 142.043 243.973C142.011 243.84 141.993 243.703 141.99 243.566C141.982 243.433 141.988 243.3 142.009 243.168C142.033 243.035 142.068 242.905 142.113 242.777C142.159 242.649 142.219 242.526 142.292 242.411C142.364 242.302 142.443 242.2 142.53 242.103C142.622 242.005 142.724 241.915 142.833 241.835C142.939 241.754 143.054 241.684 143.175 241.627C143.427 241.526 143.693 241.463 143.964 241.442C144.098 241.438 144.232 241.449 144.363 241.474C144.497 241.494 144.629 241.529 144.756 241.579C144.881 241.626 145.001 241.682 145.117 241.747C145.23 241.817 145.334 241.901 145.428 241.996C145.528 242.086 145.618 242.188 145.695 242.298C145.775 242.407 145.844 242.522 145.901 242.644C145.96 242.769 146.005 242.9 146.038 243.034C146.097 243.295 146.104 243.565 146.058 243.829C146.012 244.092 145.914 244.344 145.77 244.57C145.633 244.801 145.451 245.003 145.235 245.163C145.019 245.323 144.774 245.439 144.513 245.503Z" fill="#E33443"/>
<path d="M252.715 217.925C252.592 217.395 252.683 216.838 252.97 216.375C253.256 215.912 253.713 215.582 254.242 215.455C254.505 215.393 254.777 215.384 255.043 215.427C255.309 215.47 255.564 215.565 255.794 215.707C256.023 215.849 256.222 216.035 256.38 216.254C256.537 216.472 256.65 216.72 256.712 216.983C256.835 217.513 256.743 218.07 256.457 218.533C256.171 218.995 255.713 219.326 255.184 219.452C254.654 219.573 254.098 219.48 253.636 219.195C253.174 218.909 252.843 218.453 252.715 217.925ZM246.201 219.457C246.139 219.195 246.129 218.923 246.172 218.657C246.216 218.391 246.311 218.136 246.453 217.907C246.595 217.678 246.78 217.479 246.999 217.322C247.218 217.165 247.466 217.052 247.728 216.991C247.991 216.929 248.263 216.919 248.529 216.962C248.796 217.005 249.051 217.1 249.28 217.242C249.509 217.384 249.709 217.57 249.866 217.789C250.023 218.008 250.136 218.256 250.197 218.518C250.32 219.048 250.229 219.605 249.942 220.067C249.656 220.529 249.199 220.859 248.67 220.985C248.139 221.108 247.582 221.016 247.119 220.728C246.656 220.441 246.326 219.982 246.201 219.452V219.457ZM239.7 220.988C239.638 220.725 239.628 220.454 239.672 220.188C239.715 219.922 239.81 219.667 239.952 219.437C240.094 219.208 240.28 219.01 240.498 218.852C240.717 218.695 240.965 218.582 241.227 218.521C241.757 218.397 242.315 218.488 242.778 218.774C243.241 219.06 243.571 219.519 243.697 220.049C243.817 220.578 243.724 221.133 243.438 221.595C243.152 222.056 242.697 222.387 242.169 222.515C241.639 222.638 241.082 222.547 240.62 222.261C240.157 221.974 239.826 221.517 239.7 220.988ZM233.188 222.521C233.126 222.258 233.117 221.986 233.16 221.72C233.203 221.454 233.299 221.2 233.441 220.971C233.582 220.741 233.768 220.543 233.987 220.385C234.206 220.228 234.453 220.115 234.716 220.054C234.979 219.992 235.252 219.983 235.518 220.027C235.785 220.071 236.04 220.167 236.269 220.31C236.498 220.453 236.697 220.64 236.854 220.86C237.011 221.08 237.122 221.329 237.182 221.592C237.305 222.122 237.213 222.679 236.927 223.142C236.64 223.604 236.182 223.933 235.652 224.059C235.122 224.181 234.564 224.088 234.102 223.8C233.64 223.511 233.311 223.051 233.188 222.521ZM226.674 224.054C226.612 223.791 226.603 223.519 226.646 223.253C226.689 222.987 226.784 222.732 226.926 222.503C227.068 222.274 227.254 222.075 227.473 221.918C227.692 221.761 227.939 221.648 228.202 221.587C228.464 221.524 228.737 221.514 229.003 221.557C229.269 221.6 229.525 221.695 229.754 221.837C229.984 221.979 230.183 222.165 230.34 222.384C230.498 222.603 230.61 222.852 230.671 223.115C230.794 223.644 230.702 224.201 230.416 224.663C230.13 225.125 229.672 225.455 229.143 225.581C228.614 225.705 228.056 225.613 227.593 225.327C227.131 225.041 226.8 224.583 226.674 224.054ZM220.16 225.589C220.098 225.327 220.088 225.055 220.131 224.788C220.174 224.522 220.269 224.267 220.411 224.037C220.553 223.808 220.739 223.609 220.958 223.451C221.177 223.294 221.425 223.181 221.688 223.12C221.95 223.057 222.222 223.048 222.488 223.091C222.755 223.134 223.01 223.229 223.239 223.371C223.469 223.513 223.668 223.699 223.825 223.918C223.983 224.137 224.095 224.385 224.157 224.647C224.279 225.177 224.187 225.734 223.901 226.196C223.615 226.659 223.158 226.99 222.629 227.117C222.099 227.239 221.543 227.147 221.08 226.861C220.618 226.575 220.287 226.118 220.16 225.589ZM213.662 227.117C213.6 226.854 213.59 226.583 213.634 226.317C213.677 226.051 213.772 225.796 213.914 225.566C214.056 225.337 214.242 225.139 214.46 224.981C214.679 224.824 214.927 224.711 215.189 224.65C215.719 224.527 216.276 224.619 216.738 224.905C217.2 225.191 217.53 225.649 217.656 226.178C217.778 226.707 217.685 227.264 217.399 227.726C217.113 228.188 216.657 228.519 216.128 228.647C215.599 228.77 215.042 228.678 214.579 228.391C214.117 228.104 213.787 227.646 213.662 227.117ZM207.148 228.652C207.085 228.39 207.075 228.118 207.118 227.851C207.162 227.585 207.257 227.33 207.399 227.1C207.541 226.871 207.727 226.672 207.946 226.514C208.165 226.357 208.413 226.244 208.675 226.183C209.205 226.06 209.762 226.152 210.225 226.438C210.687 226.724 211.018 227.182 211.145 227.711C211.265 228.24 211.172 228.796 210.886 229.258C210.6 229.72 210.145 230.051 209.617 230.18C209.087 230.302 208.53 230.21 208.068 229.924C207.606 229.638 207.275 229.181 207.148 228.652ZM200.634 230.185C200.572 229.923 200.562 229.651 200.605 229.384C200.648 229.118 200.744 228.863 200.886 228.634C201.027 228.405 201.213 228.205 201.432 228.048C201.651 227.89 201.899 227.777 202.161 227.716C202.424 227.653 202.696 227.644 202.962 227.687C203.228 227.73 203.484 227.825 203.713 227.967C203.942 228.109 204.141 228.295 204.299 228.514C204.456 228.733 204.569 228.981 204.63 229.243C204.753 229.773 204.662 230.33 204.376 230.793C204.089 231.255 203.632 231.586 203.103 231.713C202.573 231.835 202.016 231.743 201.554 231.457C201.092 231.171 200.761 230.714 200.634 230.185ZM194.122 231.718C194.06 231.455 194.05 231.184 194.094 230.917C194.137 230.651 194.232 230.396 194.374 230.167C194.516 229.938 194.702 229.738 194.92 229.581C195.139 229.423 195.387 229.311 195.65 229.249C195.912 229.187 196.184 229.177 196.45 229.22C196.717 229.264 196.971 229.359 197.201 229.501C197.43 229.643 197.629 229.828 197.787 230.047C197.944 230.266 198.057 230.514 198.119 230.776C198.242 231.306 198.15 231.863 197.864 232.326C197.578 232.788 197.12 233.119 196.591 233.245C196.06 233.372 195.5 233.282 195.035 232.995C194.57 232.709 194.238 232.249 194.111 231.718H194.122ZM187.608 233.251C187.546 232.989 187.536 232.716 187.58 232.45C187.623 232.184 187.718 231.929 187.86 231.7C188.002 231.47 188.187 231.271 188.406 231.114C188.625 230.956 188.873 230.843 189.135 230.782C189.398 230.719 189.67 230.71 189.936 230.753C190.203 230.796 190.458 230.891 190.687 231.033C190.917 231.175 191.116 231.36 191.273 231.579C191.431 231.799 191.543 232.046 191.605 232.309C191.728 232.839 191.636 233.396 191.35 233.859C191.064 234.321 190.606 234.652 190.077 234.779C189.547 234.901 188.991 234.809 188.528 234.523C188.066 234.237 187.735 233.78 187.608 233.251ZM181.11 234.781C181.048 234.519 181.038 234.247 181.081 233.98C181.125 233.714 181.22 233.459 181.362 233.23C181.504 233 181.689 232.802 181.908 232.644C182.127 232.487 182.375 232.374 182.637 232.312C183.167 232.19 183.724 232.281 184.186 232.568C184.649 232.854 184.979 233.311 185.107 233.84C185.227 234.37 185.133 234.926 184.847 235.387C184.561 235.849 184.104 236.18 183.576 236.309C183.047 236.432 182.49 236.34 182.028 236.054C181.566 235.767 181.236 235.31 181.11 234.781ZM174.582 236.306C174.52 236.044 174.511 235.771 174.554 235.505C174.597 235.239 174.692 234.984 174.834 234.755C174.976 234.525 175.162 234.326 175.381 234.169C175.599 234.011 175.847 233.898 176.11 233.837C176.372 233.775 176.644 233.765 176.91 233.808C177.177 233.852 177.432 233.947 177.661 234.089C177.89 234.231 178.089 234.416 178.247 234.635C178.404 234.854 178.517 235.102 178.579 235.364C178.702 235.894 178.61 236.451 178.324 236.914C178.038 237.377 177.58 237.707 177.051 237.834C176.522 237.957 175.965 237.865 175.502 237.579C175.039 237.293 174.709 236.835 174.582 236.306ZM168.068 237.839C168.006 237.577 167.996 237.305 168.04 237.039C168.083 236.773 168.178 236.518 168.32 236.289C168.462 236.06 168.648 235.861 168.867 235.704C169.086 235.546 169.333 235.434 169.596 235.372C169.858 235.31 170.13 235.299 170.397 235.342C170.663 235.385 170.919 235.48 171.148 235.622C171.378 235.764 171.577 235.95 171.734 236.17C171.891 236.389 172.004 236.637 172.065 236.9C172.188 237.429 172.096 237.986 171.81 238.448C171.524 238.91 171.066 239.241 170.537 239.367C170.01 239.486 169.458 239.394 168.998 239.109C168.539 238.825 168.21 238.372 168.081 237.847L168.068 237.839ZM161.557 239.372C161.495 239.11 161.485 238.838 161.528 238.572C161.571 238.306 161.667 238.051 161.809 237.822C161.951 237.593 162.136 237.394 162.355 237.236C162.574 237.079 162.822 236.967 163.084 236.905C163.347 236.843 163.619 236.833 163.885 236.876C164.151 236.919 164.407 237.015 164.636 237.156C164.865 237.298 165.064 237.484 165.222 237.703C165.379 237.922 165.492 238.17 165.553 238.433C165.676 238.962 165.584 239.519 165.297 239.981C165.011 240.443 164.554 240.773 164.026 240.899C163.499 241.02 162.946 240.928 162.486 240.644C162.026 240.359 161.697 239.905 161.57 239.38L161.557 239.372ZM155.042 240.905C154.98 240.643 154.971 240.371 155.014 240.105C155.057 239.839 155.153 239.584 155.294 239.355C155.436 239.125 155.622 238.927 155.841 238.769C156.06 238.612 156.307 238.5 156.57 238.438C156.832 238.376 157.104 238.366 157.371 238.41C157.637 238.453 157.892 238.548 158.121 238.69C158.351 238.832 158.55 239.018 158.707 239.237C158.865 239.455 158.977 239.703 159.039 239.966C159.162 240.495 159.07 241.052 158.784 241.514C158.498 241.976 158.04 242.307 157.512 242.432C156.984 242.554 156.43 242.462 155.97 242.178C155.51 241.893 155.18 241.439 155.053 240.913L155.042 240.905ZM148.542 242.435C148.48 242.173 148.47 241.901 148.513 241.635C148.557 241.369 148.652 241.114 148.794 240.885C148.936 240.656 149.121 240.457 149.34 240.3C149.559 240.142 149.807 240.03 150.069 239.969C150.599 239.845 151.156 239.936 151.619 240.222C152.082 240.509 152.413 240.967 152.538 241.496C152.658 242.025 152.566 242.581 152.28 243.042C151.994 243.504 151.538 243.834 151.011 243.963C150.484 244.083 149.931 243.99 149.471 243.706C149.012 243.422 148.683 242.968 148.555 242.443L148.542 242.435Z" fill="#E33443"/>
<path d="M261.696 217.918C261.432 217.979 261.159 217.987 260.893 217.94C260.627 217.902 260.373 217.803 260.152 217.651C259.923 217.512 259.724 217.329 259.567 217.113C259.409 216.897 259.296 216.651 259.234 216.391C259.204 216.256 259.187 216.12 259.181 215.982C259.18 215.847 259.191 215.713 259.213 215.58C259.23 215.449 259.26 215.32 259.304 215.195C259.356 215.068 259.417 214.945 259.486 214.826C259.787 214.381 260.245 214.065 260.769 213.942C261.292 213.819 261.843 213.898 262.311 214.163C262.425 214.238 262.533 214.321 262.635 214.411C262.73 214.506 262.819 214.606 262.902 214.711C262.969 214.823 263.041 214.946 263.095 215.061C263.152 215.186 263.197 215.316 263.228 215.449C263.345 215.977 263.249 216.53 262.961 216.988C262.828 217.226 262.64 217.428 262.413 217.579C262.201 217.742 261.956 217.858 261.696 217.918Z" fill="#E33443"/>
<path d="M335.042 271.7C334.781 271.765 334.508 271.776 334.242 271.732C333.975 271.689 333.721 271.591 333.493 271.445C333.264 271.304 333.064 271.119 332.906 270.901C332.748 270.682 332.635 270.434 332.573 270.172C332.544 270.042 332.527 269.909 332.522 269.776C332.518 269.642 332.529 269.507 332.554 269.375C332.571 269.243 332.602 269.114 332.648 268.99C332.699 268.863 332.759 268.741 332.827 268.623C333.125 268.174 333.584 267.855 334.108 267.732C334.633 267.609 335.186 267.69 335.652 267.96C335.767 268.033 335.875 268.115 335.976 268.206C336.071 268.301 336.161 268.402 336.244 268.508C336.315 268.62 336.38 268.736 336.436 268.856C336.493 268.977 336.537 269.103 336.567 269.233C336.629 269.495 336.639 269.767 336.595 270.033C336.552 270.299 336.456 270.553 336.313 270.782C336.174 271.013 335.99 271.213 335.772 271.371C335.553 271.529 335.305 271.64 335.042 271.7Z" fill="#E33443"/>
<path d="M331.043 263.674C330.92 263.144 331.011 262.587 331.298 262.124C331.584 261.661 332.041 261.331 332.57 261.204C333.1 261.081 333.657 261.173 334.12 261.459C334.583 261.745 334.913 262.203 335.04 262.732C335.165 263.263 335.075 263.823 334.79 264.288C334.504 264.753 334.045 265.086 333.515 265.214C332.983 265.336 332.424 265.243 331.961 264.954C331.498 264.665 331.168 264.205 331.043 263.674ZM327.942 260.228C327.481 259.939 327.154 259.479 327.031 258.949C326.909 258.419 327.002 257.862 327.29 257.4C327.581 256.938 328.043 256.61 328.576 256.488C329.108 256.366 329.667 256.459 330.131 256.747C330.59 257.039 330.916 257.5 331.035 258.03C331.155 258.561 331.06 259.118 330.77 259.578C330.63 259.806 330.446 260.003 330.23 260.16C330.013 260.317 329.767 260.429 329.507 260.49C329.242 260.553 328.967 260.562 328.698 260.517C328.43 260.472 328.173 260.374 327.942 260.228ZM322.287 256.681C321.827 256.39 321.501 255.929 321.381 255.398C321.261 254.867 321.357 254.31 321.647 253.85C321.79 253.621 321.976 253.422 322.195 253.265C322.414 253.108 322.663 252.996 322.926 252.935C323.189 252.875 323.461 252.867 323.727 252.913C323.993 252.958 324.247 253.056 324.475 253.2C324.936 253.489 325.264 253.949 325.386 254.479C325.508 255.01 325.414 255.567 325.125 256.028C324.834 256.484 324.376 256.808 323.849 256.932C323.585 256.995 323.311 257.006 323.043 256.963C322.775 256.92 322.518 256.824 322.287 256.681ZM316.642 253.13C316.414 252.988 316.216 252.801 316.06 252.582C315.904 252.363 315.792 252.115 315.732 251.853C315.671 251.59 315.663 251.319 315.708 251.053C315.753 250.788 315.849 250.534 315.992 250.306C316.135 250.075 316.321 249.876 316.542 249.718C316.762 249.56 317.011 249.448 317.275 249.387C317.539 249.326 317.812 249.318 318.079 249.363C318.346 249.408 318.601 249.506 318.831 249.65C319.291 249.941 319.616 250.402 319.736 250.933C319.856 251.464 319.76 252.02 319.47 252.48C319.329 252.707 319.145 252.903 318.927 253.058C318.71 253.213 318.464 253.323 318.204 253.382C317.94 253.449 317.664 253.461 317.395 253.418C317.125 253.375 316.867 253.277 316.637 253.13H316.642ZM310.984 249.586C310.525 249.294 310.2 248.833 310.081 248.302C309.961 247.772 310.057 247.215 310.347 246.755C310.636 246.294 311.096 245.967 311.626 245.844C312.156 245.722 312.713 245.815 313.175 246.103C313.633 246.394 313.959 246.854 314.08 247.383C314.202 247.912 314.11 248.468 313.825 248.931C313.535 249.388 313.077 249.713 312.549 249.835C312.285 249.9 312.01 249.911 311.741 249.868C311.473 249.826 311.215 249.729 310.984 249.586ZM305.342 246.036C305.112 245.893 304.913 245.705 304.756 245.485C304.598 245.264 304.486 245.015 304.426 244.751C304.365 244.487 304.357 244.214 304.402 243.947C304.447 243.68 304.545 243.424 304.689 243.195C304.833 242.967 305.02 242.77 305.24 242.615C305.46 242.46 305.709 242.35 305.971 242.291C306.234 242.231 306.506 242.225 306.771 242.27C307.036 242.316 307.29 242.414 307.517 242.558C307.978 242.847 308.306 243.307 308.428 243.837C308.55 244.367 308.457 244.924 308.17 245.386C308.028 245.612 307.844 245.808 307.627 245.962C307.41 246.117 307.164 246.227 306.904 246.287C306.64 246.353 306.366 246.364 306.097 246.321C305.829 246.278 305.572 246.181 305.342 246.036ZM299.687 242.489C299.227 242.198 298.901 241.737 298.781 241.206C298.661 240.675 298.757 240.118 299.047 239.658C299.189 239.429 299.375 239.23 299.595 239.073C299.814 238.916 300.062 238.804 300.325 238.743C300.588 238.683 300.861 238.675 301.127 238.721C301.393 238.766 301.647 238.864 301.875 239.008C302.335 239.299 302.66 239.761 302.779 240.291C302.899 240.822 302.802 241.379 302.512 241.838C302.371 242.065 302.187 242.261 301.971 242.416C301.754 242.57 301.509 242.681 301.249 242.74C300.985 242.804 300.711 242.815 300.442 242.772C300.174 242.729 299.917 242.633 299.687 242.489ZM294.042 238.941C293.812 238.799 293.613 238.613 293.456 238.394C293.299 238.174 293.187 237.926 293.127 237.663C293.066 237.4 293.059 237.128 293.104 236.862C293.15 236.596 293.247 236.341 293.392 236.113C293.68 235.653 294.14 235.325 294.669 235.203C295.199 235.08 295.755 235.173 296.217 235.461C296.445 235.603 296.644 235.79 296.8 236.009C296.957 236.229 297.068 236.477 297.129 236.739C297.19 237.002 297.198 237.274 297.153 237.54C297.109 237.805 297.012 238.06 296.87 238.288C296.726 238.516 296.54 238.713 296.32 238.868C296.101 239.023 295.853 239.133 295.591 239.193C295.329 239.257 295.057 239.268 294.791 239.225C294.525 239.182 294.27 239.085 294.042 238.941ZM288.386 235.394C287.928 235.101 287.604 234.639 287.484 234.109C287.364 233.579 287.457 233.023 287.744 232.561C287.888 232.331 288.075 232.132 288.295 231.974C288.516 231.817 288.765 231.705 289.029 231.644C289.293 231.584 289.567 231.576 289.834 231.621C290.101 231.666 290.356 231.764 290.585 231.908C291.045 232.198 291.37 232.659 291.49 233.19C291.61 233.72 291.514 234.276 291.225 234.736C291.085 234.964 290.901 235.162 290.685 235.319C290.468 235.476 290.223 235.589 289.962 235.651C289.696 235.717 289.419 235.728 289.148 235.684C288.877 235.64 288.618 235.541 288.386 235.394ZM282.728 231.846C282.269 231.555 281.943 231.094 281.824 230.563C281.705 230.032 281.801 229.476 282.092 229.016C282.233 228.786 282.419 228.587 282.639 228.43C282.858 228.273 283.106 228.161 283.37 228.1C283.633 228.04 283.905 228.032 284.171 228.078C284.437 228.123 284.691 228.221 284.919 228.366C285.378 228.657 285.703 229.117 285.825 229.646C285.946 230.176 285.855 230.731 285.569 231.194C285.278 231.65 284.82 231.974 284.293 232.098C284.029 232.162 283.754 232.173 283.486 232.129C283.217 232.086 282.959 231.99 282.728 231.846ZM277.086 228.296C276.625 228.008 276.298 227.549 276.175 227.019C276.053 226.489 276.146 225.933 276.434 225.471C276.576 225.243 276.763 225.045 276.982 224.888C277.201 224.732 277.45 224.62 277.712 224.559C277.975 224.499 278.247 224.49 278.512 224.535C278.778 224.579 279.033 224.676 279.261 224.818C279.491 224.961 279.69 225.147 279.847 225.366C280.004 225.585 280.116 225.834 280.177 226.097C280.237 226.359 280.245 226.632 280.2 226.898C280.155 227.164 280.058 227.418 279.914 227.646C279.773 227.872 279.588 228.069 279.371 228.223C279.154 228.378 278.908 228.488 278.649 228.548C278.385 228.614 278.11 228.626 277.842 228.583C277.573 228.54 277.316 228.442 277.086 228.296ZM271.431 224.752C270.971 224.461 270.645 224 270.525 223.469C270.405 222.938 270.501 222.382 270.791 221.921C270.933 221.692 271.12 221.493 271.339 221.336C271.558 221.179 271.806 221.067 272.069 221.006C272.332 220.945 272.604 220.937 272.87 220.982C273.136 221.027 273.391 221.125 273.619 221.269C274.078 221.56 274.403 222.022 274.522 222.552C274.642 223.083 274.546 223.639 274.256 224.099C274.116 224.326 273.932 224.522 273.715 224.677C273.499 224.832 273.253 224.942 272.993 225.001C272.728 225.066 272.453 225.078 272.184 225.035C271.915 224.993 271.657 224.896 271.425 224.752H271.431ZM265.786 221.202C265.558 221.059 265.36 220.873 265.204 220.653C265.048 220.434 264.936 220.186 264.876 219.924C264.815 219.662 264.807 219.39 264.852 219.125C264.897 218.859 264.993 218.605 265.136 218.377C265.279 218.148 265.465 217.95 265.684 217.794C265.903 217.637 266.151 217.525 266.413 217.465C266.676 217.404 266.947 217.396 267.213 217.44C267.479 217.485 267.733 217.581 267.961 217.724C268.191 217.866 268.39 218.052 268.547 218.271C268.705 218.49 268.817 218.738 268.877 219.001C268.938 219.264 268.946 219.537 268.901 219.803C268.856 220.069 268.758 220.324 268.614 220.552C268.474 220.779 268.291 220.977 268.075 221.133C267.858 221.29 267.613 221.402 267.354 221.464C267.088 221.528 266.813 221.537 266.543 221.492C266.274 221.447 266.016 221.348 265.786 221.202Z" fill="#E33443"/>
<path d="M296.649 359.029C296.649 359.029 294.705 357.98 293.656 359.628C292.607 361.276 291.561 367.119 291.861 370.257C292.16 373.395 294.555 373.55 294.555 373.55L296.649 359.029Z" fill="#263239" stroke="#263239" stroke-width="0.133761" stroke-linejoin="round"/>
<path d="M315.376 341.514C315.197 340.869 305.946 341.364 302.203 345.259C298.461 349.154 290.967 368.164 293.969 373.403C296.971 378.641 305.646 378.194 308.19 374.74C310.735 371.286 317.471 348.999 315.376 341.514Z" fill="#232323"/>
<path d="M315.48 342.09C314.916 342.513 314.425 343.026 314.028 343.609C312.69 345.707 308.038 362.173 308.038 362.173L297.259 360.527C297.259 360.527 298.139 353.36 300.039 348.425C296.219 355.222 291.478 369.051 293.966 373.401C296.96 378.641 305.643 378.192 308.188 374.738C310.676 371.384 317.139 350.051 315.48 342.09Z" fill="#232323"/>
<path d="M279.145 434.329C279.145 434.329 274.062 437.175 274.062 437.625C274.062 438.074 277.056 442.264 279.145 444.062C281.235 445.859 282.588 446.006 282.891 445.11C283.193 444.214 281.395 444.211 281.096 441.515C280.917 439.869 280.968 438.207 281.245 436.576L279.145 434.329Z" fill="white" stroke="#263239" stroke-width="0.133761" stroke-linejoin="round"/>
<path d="M320.914 444.96C320.914 444.96 320.464 449 320.914 449.299C321.363 449.599 325.553 450.498 328.249 450.498C330.946 450.498 332.738 450.348 332.888 449.449L333.038 448.553C331.13 448.239 329.269 447.685 327.5 446.905L324.956 445.706C324.956 445.706 322.259 444.211 320.914 444.96Z" fill="white" stroke="#263239" stroke-width="0.133761" stroke-linejoin="round"/>
<path d="M323.009 328.788C323.009 328.788 323.009 332.381 321.81 334.778C320.612 337.175 319.865 336.723 316.872 338.82C313.878 340.918 310.882 346.006 308.188 352.143C305.494 358.28 302.5 377.143 302.5 380.136C302.5 383.13 302.201 390.019 301.751 398.55C301.302 407.081 295.165 420.407 291.722 424.299C288.279 428.191 286.481 429.54 285.432 429.989C284.384 430.439 283.338 430.886 282.888 431.784C282.439 432.683 282.739 432.833 281.393 433.122C280.554 433.322 279.78 433.734 279.146 434.318C279.146 434.318 280.194 437.614 281.69 437.614C283.185 437.614 282.888 435.366 284.097 435.966C285.307 436.565 286.791 437.614 288.14 434.917C289.488 432.22 290.984 431.025 292.032 430.725C293.081 430.425 293.528 431.624 295.475 429.829C297.423 428.034 299.068 424.288 301.313 422.338C303.557 420.388 309.098 412.606 311.478 406.918C313.859 401.231 314.622 397.188 314.622 397.188C314.622 397.188 320.911 421.439 322.706 428.325C324.501 435.211 323.006 437.153 321.807 437.755C320.609 438.357 320.012 438.804 320.612 440.003C321.211 441.201 321.807 441.498 321.061 442.247C320.315 442.996 320.312 443.296 320.462 443.895C320.629 444.455 320.829 445.004 321.061 445.54L324.953 445.69C326.071 444.857 326.822 443.623 327.048 442.247C327.498 439.839 325.4 440.003 326.898 438.502C328.396 437.001 330.042 436.094 329.742 433.863C329.443 431.632 327.797 431.455 328.405 427.873C329.012 424.291 330.2 418.892 330.05 412.153C329.9 405.414 324.213 390.752 323.913 385.808C323.613 380.864 325.408 369.938 326.757 364.406C328.105 358.874 331.548 350.182 329.451 344.944C327.353 339.706 325.705 339.254 325.858 336.26C326.01 333.266 326.757 331.471 326.757 331.471C326.757 331.471 324.357 327.143 323.009 328.788Z" fill="#232323"/>
<path d="M323.897 383.535C324.084 378.043 325.585 369.214 326.751 364.42C328.089 358.88 331.543 350.196 329.445 344.958C327.348 339.72 325.7 339.268 325.852 336.274C326.005 333.281 326.751 331.486 326.751 331.486C326.751 331.486 324.344 327.144 323.006 328.789C323.006 328.789 323.006 332.382 321.807 334.779C320.609 337.176 319.863 336.724 316.869 338.821C313.875 340.919 310.879 346.007 308.185 352.144C305.491 358.281 302.498 377.144 302.498 380.137C302.498 380.293 302.498 380.499 302.498 380.672C305.122 382.171 309.394 384.065 314.627 384.329C317.739 384.498 320.859 384.231 323.897 383.535Z" fill="#E33443"/>
<path d="M304.442 366.747C304.322 367.387 304.207 368.018 304.095 368.647C306.196 367.761 308.217 366.697 310.135 365.466C314.475 362.772 320.764 357.681 321.96 351.694C323.156 345.707 324.057 341.365 321.96 339.268C320.59 337.898 318.343 338.32 316.938 338.775L316.871 338.821C315.948 339.503 315.119 340.306 314.408 341.207C315.539 340.886 318.244 340.244 319.416 341.065C320.914 342.114 321.513 348.401 317.621 356.186C314.48 362.464 307.16 365.72 304.442 366.747Z" fill="white" stroke="#263239" stroke-width="0.133761" stroke-linejoin="round"/>
<path d="M323.008 328.789C323.008 328.789 323.008 332.382 321.81 334.779C321.307 335.785 320.876 336.282 320.331 336.686C321.026 337.056 322.182 337.917 323.158 339.867C324.118 341.814 324.968 343.814 325.703 345.857L327.797 341.488C326.564 339.276 325.745 338.412 325.852 336.274C326.002 333.281 326.751 331.486 326.751 331.486C326.751 331.486 324.357 327.144 323.008 328.789Z" fill="white" stroke="#263239" stroke-width="0.133761" stroke-linejoin="round"/>
<path d="M334.686 324.446C334.686 324.446 336.93 325.645 338.279 324.596C339.627 323.547 337.23 323.4 337.979 321.303C338.728 319.206 341.724 320.107 341.724 317.411C341.724 314.714 340.676 313.371 338.431 313.968C336.187 314.564 334.539 314.567 334.539 313.818C334.539 313.069 334.988 310.375 332.741 310.525C330.494 310.674 330.497 313.072 329.598 313.818C328.699 314.564 327.053 312.622 323.91 313.221C320.767 313.82 318.519 316.967 319.418 321.153C320.317 325.34 321.366 326.844 323.164 327.742C324.961 328.641 334.686 324.446 334.686 324.446Z" fill="#232323"/>
<path d="M324.204 325.944C324.204 325.944 321.957 322.651 320.911 324.299C319.865 325.947 321.361 328.788 321.807 329.238C322.254 329.687 323.455 329.387 323.455 329.387C323.455 329.387 325.55 335.077 327.947 334.928C330.344 334.778 332.139 332.081 333.185 329.537C333.91 327.683 334.51 325.783 334.983 323.85C334.983 323.85 331.39 324.149 328.996 323.7C327.51 323.408 326.09 322.85 324.804 322.052L324.204 325.944Z" fill="white" stroke="#263239" stroke-width="0.133761" stroke-linejoin="round"/>
<path d="M342.457 354.842C342.415 354.575 343.177 353.97 344.154 353.489L349.731 350.749C350.708 350.27 351.577 350.056 351.666 350.278C351.754 350.5 351.029 351.081 350.06 351.563L344.309 354.438C343.335 354.925 342.503 355.107 342.457 354.842Z" fill="white" stroke="#263239" stroke-width="0.133761" stroke-linejoin="round"/>
<path d="M310.026 360.929C310.026 360.929 310.507 367.815 310.665 369.097C310.823 370.378 341.254 360.768 342.054 359.648C342.853 358.527 343.977 356.764 344.616 356.437C345.256 356.111 346.698 354.998 346.698 354.356C346.698 353.714 344.937 354.356 343.656 354.356C342.375 354.356 342.214 354.517 341.735 354.517C341.256 354.517 341.254 353.714 341.896 353.556C342.538 353.398 344.138 352.914 344.303 352.275C344.469 351.635 344.146 351.472 343.343 351.635C342.54 351.798 341.583 352.275 340.301 352.275C339.02 352.275 338.22 353.077 337.738 354.195C337.257 355.314 337.099 358.208 336.778 358.679C336.457 359.15 331.963 360.763 326.85 360.763H319.804C319.804 360.763 311.949 359.808 310.026 360.929Z" fill="white" stroke="#263239" stroke-width="0.133761" stroke-linejoin="round"/>
<path d="M321.513 345.107C321.2 350.284 318.816 360.527 318.816 360.527L309.547 361.729C309.547 361.729 311.312 348.17 312.433 344.168C313.554 340.166 317.92 339.417 317.92 339.417C317.92 339.417 321.96 337.622 321.513 345.107Z" fill="#232323"/>
<path opacity="0.03" d="M183.264 385.991C183.264 385.991 185.843 377.89 176.268 373.84C166.694 369.79 151.223 375.681 151.961 379.726C152.699 383.77 160.062 387.829 154.904 388.195C149.746 388.562 146.434 380.831 135.755 384.514C125.075 388.198 137.595 392.984 135.016 392.984C132.437 392.984 125.442 391.144 119.182 392.984C112.921 394.825 119.182 398.139 142.75 399.983C166.319 401.826 160.797 397.04 169.636 396.299C178.475 395.558 177.37 399.613 196.153 396.299C214.936 392.984 208.299 381.571 183.264 385.991Z" fill="black"/>
<path opacity="0.02" d="M366.036 32.4661C366.036 32.4661 372.229 13.0036 349.228 3.27115C326.226 -6.46132 289.073 7.69601 290.841 17.4258C292.609 27.1556 310.303 36.8909 297.917 37.7737C285.53 38.6566 277.585 20.0824 251.916 28.9267C226.248 37.771 256.338 49.2743 250.145 49.2743C243.952 49.2743 227.138 44.8522 212.106 49.2743C197.074 53.6965 212.106 61.6606 268.725 66.0828C325.343 70.5049 312.063 59.007 333.305 57.236C354.546 55.465 351.881 65.2001 396.999 57.236C442.117 49.2718 426.194 21.8508 366.036 32.4661Z" fill="black"/>
<path opacity="0.03" d="M453.847 160.706C453.847 160.706 455.921 154.191 448.229 150.933C440.538 147.675 428.093 152.415 428.684 155.671C429.275 158.927 435.198 162.185 431.054 162.482C426.91 162.779 424.243 156.559 415.656 159.521C407.068 162.482 417.135 166.332 415.062 166.332C412.989 166.332 407.363 164.852 402.328 166.332C397.293 167.811 402.328 170.478 421.282 171.95C440.236 173.421 435.792 169.582 442.898 168.988C450.003 168.394 449.118 171.663 464.219 168.988C479.321 166.313 473.984 157.153 453.847 160.706Z" fill="black"/>
<path d="M469.066 502H-134.519" stroke="#515151" stroke-width="3.03371" stroke-miterlimit="10"/>
<path d="M469.066 450.361H-134.519" stroke="#515151" stroke-width="3.03371" stroke-miterlimit="10"/>
<g opacity="0.15">
<path d="M468.643 476.232H-121.916" stroke="#263239" stroke-width="3.03371" stroke-miterlimit="10" stroke-dasharray="36.83 36.83"/>
</g>
<path d="M38.1325 67.9565C25.6196 67.9565 15.476 57.8129 15.476 45.3C15.476 32.7872 25.6196 22.6436 38.1325 22.6436C50.6453 22.6436 60.7889 32.7872 60.7889 45.3C60.7889 57.8129 50.6453 67.9565 38.1325 67.9565Z" fill="#E33443"/>
<path opacity="0.3" d="M38.1325 67.9565C25.6196 67.9565 15.476 57.8129 15.476 45.3C15.476 32.7872 25.6196 22.6436 38.1325 22.6436C50.6453 22.6436 60.7889 32.7872 60.7889 45.3C60.7889 57.8129 50.6453 67.9565 38.1325 67.9565Z" fill="white"/>
<path d="M19.5718 49.8159C17.1198 39.5236 23.4757 29.1923 33.7679 26.7403C44.0602 24.2884 54.3912 30.6443 56.8432 40.9365C59.2951 51.2288 52.9395 61.5599 42.6472 64.0119C32.355 66.4638 22.0237 60.1081 19.5718 49.8159Z" fill="#E33443"/>
<path opacity="0.6" d="M19.5718 49.8159C17.1198 39.5236 23.4757 29.1923 33.7679 26.7403C44.0602 24.2884 54.3912 30.6443 56.8432 40.9365C59.2951 51.2288 52.9395 61.5599 42.6472 64.0119C32.355 66.4638 22.0237 60.1081 19.5718 49.8159Z" fill="white"/>
<path d="M38.1323 61.2417C29.328 61.2417 22.1906 54.1044 22.1906 45.3001C22.1906 36.4957 29.328 29.3584 38.1323 29.3584C46.9367 29.3584 54.074 36.4957 54.074 45.3001C54.074 54.1044 46.9367 61.2417 38.1323 61.2417Z" fill="#E33443"/>
<path opacity="0.3" d="M38.1323 61.2388C29.328 61.2388 22.1906 54.1015 22.1906 45.2971C22.1906 36.4928 29.328 29.3555 38.1323 29.3555C46.9367 29.3555 54.074 36.4928 54.074 45.2971C54.074 54.1015 46.9367 61.2388 38.1323 61.2388Z" fill="white"/>
<path d="M38.1323 61.2388C29.328 61.2388 22.1906 54.1015 22.1906 45.2971C22.1906 36.4928 29.328 29.3555 38.1323 29.3555C46.9367 29.3555 54.074 36.4928 54.074 45.2971C54.074 54.1015 46.9367 61.2388 38.1323 61.2388Z" fill="#E33443"/>
<path opacity="0.9" d="M38.1323 61.2417C29.328 61.2417 22.1906 54.1044 22.1906 45.3001C22.1906 36.4957 29.328 29.3584 38.1323 29.3584C46.9367 29.3584 54.074 36.4957 54.074 45.3001C54.074 54.1044 46.9367 61.2417 38.1323 61.2417Z" fill="white"/>
<path d="M42.2089 54.6317H37.5084C36.3206 54.6317 35.1301 54.6317 33.9423 54.6317H32.455C31.8746 54.6054 31.3167 54.3987 30.8593 54.0405C30.4018 53.6823 30.0675 53.1903 29.9028 52.6331C29.8258 52.3726 29.7879 52.1022 29.7905 51.8305C29.7905 48.73 29.7905 43.1789 29.7905 40.081C29.7799 39.9849 29.7954 39.8878 29.8356 39.7999C29.8757 39.7119 29.9389 39.6366 30.0184 39.5817C30.098 39.5268 30.1909 39.4945 30.2874 39.4882C30.3838 39.4819 30.4803 39.5018 30.5663 39.5459C30.665 39.5936 30.7468 39.6707 30.8004 39.7664C30.854 39.8621 30.8767 39.9718 30.8658 40.081C30.8658 41.1725 30.8819 44.7172 30.8658 45.8061C30.8523 45.9727 30.8791 46.14 30.9438 46.2941C31.0085 46.4482 31.1093 46.5844 31.2377 46.6914C31.7727 47.1783 32.2865 47.7001 32.8001 48.2164C33.0084 48.4306 33.258 48.6003 33.534 48.7148C33.81 48.8294 34.1065 48.8864 34.4053 48.8826C36.8754 48.8826 39.3446 48.8826 41.8129 48.8826C42.3711 48.8988 42.9135 48.6961 43.3244 48.318C43.3712 48.2632 43.4285 48.2184 43.4931 48.1863C43.5576 48.1542 43.628 48.1355 43.7 48.1312C43.7719 48.127 43.844 48.1372 43.9118 48.1615C43.9797 48.1858 44.0419 48.2236 44.0949 48.2725C44.1964 48.3815 44.2529 48.5249 44.2529 48.6738C44.2529 48.8228 44.1964 48.9662 44.0949 49.0751C43.8604 49.3366 43.5656 49.5368 43.2361 49.6582C42.7673 49.8603 42.2619 49.9634 41.7514 49.9608C39.226 49.9608 36.7005 49.9608 34.1751 49.9608C33.5936 49.9413 33.0326 49.741 32.57 49.3881C32.049 48.9986 31.5663 48.5607 31.1281 48.08C31.0632 48.0063 31.0041 47.9276 30.9515 47.8446L30.8819 47.9008C30.8819 47.9489 30.8819 47.9942 30.8819 48.0424C30.8819 49.281 30.8819 50.5199 30.8819 51.7558C30.8601 52.1838 30.999 52.6043 31.2711 52.9354C31.5433 53.2664 31.9291 53.484 32.3532 53.5454C32.4703 53.5611 32.5884 53.5674 32.7065 53.5642C36.3145 53.5642 39.9233 53.5642 43.533 53.5642C43.7771 53.5795 44.0216 53.5427 44.2503 53.4563C44.479 53.3699 44.6868 53.2359 44.8598 53.0631C45.0328 52.8904 45.1672 52.6828 45.2539 52.4542C45.3406 52.2255 45.3779 51.9811 45.363 51.737C45.363 47.94 45.363 44.1421 45.363 40.3433C45.363 40.1587 45.3014 40.1319 45.1355 40.1319C40.2684 40.1319 35.4003 40.1319 30.5314 40.1319C30.197 40.1319 29.8627 40.1319 29.5256 40.1319C29.4062 40.1245 29.2866 40.1424 29.1747 40.1847C29.0628 40.2269 28.9611 40.2925 28.8764 40.377C28.7917 40.4614 28.7259 40.5628 28.6833 40.6745C28.6407 40.7863 28.6223 40.906 28.6294 41.0254C28.6294 41.5979 28.6294 42.1703 28.6294 42.7455C28.6367 42.8599 28.6072 42.9736 28.5451 43.07C28.483 43.1663 28.3915 43.2401 28.2842 43.2805C28.186 43.3184 28.0788 43.3264 27.976 43.3035C27.8732 43.2807 27.7795 43.2281 27.7065 43.1523C27.615 43.0634 27.5613 42.9427 27.5567 42.8152C27.5259 42.1449 27.5312 41.4732 27.5727 40.8033C27.6098 40.3189 27.8336 39.8679 28.197 39.5454C28.5604 39.2229 29.0348 39.0543 29.5202 39.0752C29.6807 39.0956 29.8432 39.0594 29.9799 38.973C30.1166 38.8866 30.2189 38.7555 30.2692 38.6018C30.51 38.0667 30.8043 37.569 31.0718 37.058C31.2336 36.7254 31.4888 36.447 31.8062 36.257C32.1235 36.067 32.4893 35.9735 32.8589 35.9879H43.3699C43.7434 35.9726 44.1132 36.0673 44.4333 36.2604C44.7534 36.4535 45.0096 36.7364 45.1703 37.074C45.494 37.6839 45.8177 38.2966 46.1334 38.9093C46.1539 38.9617 46.1914 39.0058 46.2399 39.0344C46.2884 39.063 46.3451 39.0745 46.4009 39.0671C46.7508 39.0381 47.1029 39.08 47.4363 39.1901C47.8022 39.3272 48.1179 39.5723 48.3415 39.8929C48.5651 40.2134 48.6859 40.5943 48.6882 40.9852C48.7042 41.5737 48.6882 42.1598 48.6882 42.7484C48.6943 42.8214 48.6849 42.8948 48.6605 42.9639C48.6361 43.033 48.5974 43.0963 48.5469 43.1494C48.4963 43.2025 48.4351 43.2442 48.3672 43.2719C48.2994 43.2996 48.2264 43.3126 48.1531 43.3101C48.079 43.3132 48.0051 43.3002 47.9364 43.2722C47.8678 43.2441 47.806 43.2016 47.7553 43.1476C47.7045 43.0935 47.6659 43.0292 47.6423 42.9589C47.6186 42.8886 47.6104 42.814 47.6181 42.7403C47.6181 42.1811 47.6181 41.6193 47.6181 41.0601C47.6236 40.9243 47.5986 40.7889 47.5446 40.6641C47.4906 40.5393 47.409 40.4283 47.3062 40.3394C47.2033 40.2504 47.0817 40.1859 46.9505 40.1505C46.8192 40.115 46.6817 40.1095 46.548 40.1345C46.4731 40.1345 46.4331 40.1639 46.4384 40.2469C46.4438 40.3298 46.4384 40.3592 46.4384 40.4154C46.4384 44.2106 46.4384 48.0077 46.4384 51.8065C46.4501 52.4668 46.2272 53.1098 45.8093 53.6212C45.3915 54.1326 44.8057 54.4794 44.1564 54.5996H44.0949L42.2089 54.6317ZM38.105 39.0456C40.329 39.0456 42.553 39.0456 44.777 39.0456C44.9455 39.0456 44.9911 39.0216 44.8974 38.8557C44.662 38.4277 44.4373 37.9944 44.2125 37.5583C44.137 37.3957 44.014 37.2597 43.8599 37.168C43.7057 37.0764 43.5275 37.0334 43.3485 37.0447C39.8528 37.0447 36.3563 37.0447 32.8589 37.0447C32.6764 37.035 32.4953 37.0808 32.3395 37.1764C32.1838 37.2719 32.0609 37.4127 31.9868 37.5797C31.7728 37.9971 31.5533 38.4089 31.334 38.8236C31.2189 39.0429 31.219 39.0456 31.4758 39.0456H38.105Z" fill="#E33443"/>
<path d="M32.431 51.7501C32.4276 51.6504 32.4449 51.5511 32.4817 51.4585C32.5185 51.3659 32.5741 51.282 32.645 51.2119C32.7159 51.1418 32.8004 51.087 32.8934 51.0512C32.9865 51.0154 33.0859 50.9992 33.1855 51.0037C33.2836 51.0012 33.3811 51.0185 33.4724 51.0543C33.5637 51.0902 33.6468 51.1441 33.7169 51.2127C33.787 51.2813 33.8426 51.363 33.8805 51.4535C33.9183 51.544 33.9377 51.6413 33.9373 51.7393C33.9398 51.8389 33.9221 51.9379 33.8853 52.0304C33.8485 52.1229 33.7932 52.207 33.7229 52.2775C33.6526 52.3481 33.5688 52.4036 33.4764 52.4408C33.3841 52.478 33.2851 52.4961 33.1855 52.4938C33.0862 52.4983 32.9869 52.4822 32.8941 52.4466C32.8013 52.4109 32.7167 52.3565 32.6459 52.2867C32.5751 52.2169 32.5195 52.1332 32.4825 52.0408C32.4455 51.9485 32.428 51.8495 32.431 51.7501Z" fill="#E33443"/>
<path d="M43.7793 51.7553C43.7813 51.8551 43.7627 51.9541 43.7246 52.0463C43.6865 52.1386 43.6299 52.2221 43.558 52.2914C43.4862 52.3607 43.4008 52.4144 43.3072 52.4492C43.2137 52.484 43.1139 52.4992 43.0142 52.4936C42.9163 52.4947 42.8191 52.4763 42.7284 52.4393C42.6377 52.4023 42.5553 52.3473 42.486 52.2781C42.4167 52.2088 42.3619 52.1263 42.3249 52.0356C42.2879 51.9449 42.2695 51.8478 42.2706 51.7498C42.2687 51.6501 42.2871 51.5511 42.3248 51.4588C42.3625 51.3665 42.4187 51.2831 42.4898 51.2132C42.5609 51.1433 42.6454 51.0886 42.7384 51.0525C42.8313 51.0165 42.9307 50.9998 43.0303 51.0034C43.1298 51 43.229 51.0172 43.3216 51.0538C43.4142 51.0905 43.4982 51.1458 43.5685 51.2163C43.6388 51.2869 43.6938 51.371 43.7301 51.4637C43.7664 51.5565 43.783 51.6558 43.7793 51.7553Z" fill="#E33443"/>
<path d="M236.134 171.64C236.134 156.193 250.093 144.007 266.083 147.009C276.142 148.898 284.157 157.111 285.92 167.194C286.979 173.085 285.888 179.16 282.846 184.315H282.859L282.787 184.411C281.827 186.032 280.62 187.191 279.403 188.895L264.836 208.189C264.414 208.747 263.868 209.199 263.242 209.511C262.615 209.823 261.925 209.985 261.225 209.985C260.525 209.985 259.835 209.823 259.208 209.511C258.581 209.199 258.036 208.747 257.613 208.189L243.282 189.221C243.282 189.221 240.607 186.032 239.638 184.406L239.588 184.336C237.319 180.49 236.127 176.105 236.134 171.64ZM261.222 182.563C262.672 182.563 264.108 182.277 265.447 181.722C266.787 181.167 268.004 180.354 269.029 179.329C270.054 178.304 270.867 177.087 271.422 175.747C271.977 174.408 272.263 172.972 272.263 171.522C272.263 168.594 271.1 165.785 269.029 163.715C266.959 161.644 264.15 160.481 261.222 160.481C258.294 160.481 255.486 161.644 253.415 163.715C251.345 165.785 250.181 168.594 250.181 171.522C250.181 172.972 250.467 174.408 251.022 175.747C251.577 177.087 252.39 178.304 253.415 179.329C254.44 180.354 255.658 181.167 256.997 181.722C258.337 182.277 259.772 182.563 261.222 182.563Z" fill="#E33443"/>
<path d="M261.219 188.76C251.698 188.76 243.98 181.041 243.98 171.52C243.98 161.999 251.698 154.281 261.219 154.281C270.74 154.281 278.458 161.999 278.458 171.52C278.458 181.041 270.74 188.76 261.219 188.76Z" fill="#E33443"/>
<path opacity="0.3" d="M261.219 188.76C251.698 188.76 243.98 181.041 243.98 171.52C243.98 161.999 251.698 154.281 261.219 154.281C270.74 154.281 278.458 161.999 278.458 171.52C278.458 181.041 270.74 188.76 261.219 188.76Z" fill="white"/>
<path d="M247.107 174.974C245.241 167.143 250.077 159.282 257.909 157.416C265.74 155.55 273.602 160.386 275.468 168.218C277.333 176.05 272.497 183.911 264.665 185.777C256.834 187.642 248.972 182.806 247.107 174.974Z" fill="#E33443"/>
<path opacity="0.6" d="M247.107 174.974C245.241 167.143 250.077 159.282 257.909 157.416C265.74 155.55 273.602 160.386 275.468 168.218C277.333 176.05 272.497 183.911 264.665 185.777C256.834 187.642 248.972 182.806 247.107 174.974Z" fill="white"/>
<path d="M261.219 183.65C254.521 183.65 249.09 178.219 249.09 171.52C249.09 164.821 254.521 159.391 261.219 159.391C267.918 159.391 273.349 164.821 273.349 171.52C273.349 178.219 267.918 183.65 261.219 183.65Z" fill="#E33443"/>
<path opacity="0.3" d="M261.219 183.65C254.521 183.65 249.09 178.219 249.09 171.52C249.09 164.821 254.521 159.391 261.219 159.391C267.918 159.391 273.349 164.821 273.349 171.52C273.349 178.219 267.918 183.65 261.219 183.65Z" fill="white"/>
<path d="M261.222 183.65C254.523 183.65 249.093 178.219 249.093 171.52C249.093 164.821 254.523 159.391 261.222 159.391C267.921 159.391 273.352 164.821 273.352 171.52C273.352 178.219 267.921 183.65 261.222 183.65Z" fill="#E33443"/>
<path opacity="0.9" d="M261.222 183.652C254.523 183.652 249.093 178.222 249.093 171.523C249.093 164.824 254.523 159.394 261.222 159.394C267.921 159.394 273.352 164.824 273.352 171.523C273.352 178.222 267.921 183.652 261.222 183.652Z" fill="white"/>
<path d="M253.352 165.55V167.356H255.804V177.146H257.957V165.55H253.352ZM265.194 170.337L268.01 166.991V165.55H260.108V167.356H265.376L262.742 170.486V171.961H263.802C265.558 171.961 266.32 172.64 266.32 173.683C266.32 174.76 265.409 175.439 263.868 175.439C262.56 175.439 261.301 174.992 260.473 174.296L259.545 175.969C260.622 176.814 262.262 177.311 263.902 177.311C267.016 177.311 268.49 175.622 268.49 173.667C268.49 171.928 267.38 170.619 265.194 170.337Z" fill="#333333"/>
<path d="M146.639 219.406C146.642 217.868 146.985 216.35 147.643 214.96C148.301 213.57 149.258 212.342 150.446 211.366C151.634 210.389 153.024 209.687 154.515 209.31C156.006 208.933 157.562 208.89 159.071 209.184C161.127 209.589 163.013 210.605 164.482 212.1C165.951 213.594 166.934 215.498 167.303 217.56C167.743 220.006 167.291 222.528 166.03 224.669L166 224.706C165.599 225.38 165.099 225.862 164.596 226.579L158.55 234.586C158.375 234.819 158.149 235.009 157.888 235.14C157.628 235.27 157.34 235.338 157.049 235.338C156.757 235.338 156.47 235.27 156.209 235.14C155.949 235.009 155.722 234.819 155.548 234.586L149.601 226.71C149.06 226.07 148.556 225.401 148.09 224.706L148.068 224.679C147.128 223.082 146.634 221.26 146.639 219.406ZM157.054 223.954C158.27 223.954 159.435 223.471 160.295 222.612C161.154 221.753 161.637 220.587 161.637 219.372C161.637 218.156 161.154 216.99 160.295 216.131C159.435 215.272 158.27 214.789 157.054 214.789C155.839 214.789 154.673 215.272 153.814 216.131C152.954 216.99 152.472 218.156 152.472 219.372C152.475 220.585 152.959 221.747 153.818 222.603C154.677 223.46 155.841 223.941 157.054 223.941V223.954Z" fill="#E33443"/>
<path d="M157.051 226.515C153.099 226.515 149.895 223.311 149.895 219.358C149.895 215.406 153.099 212.202 157.051 212.202C161.004 212.202 164.208 215.406 164.208 219.358C164.208 223.311 161.004 226.515 157.051 226.515Z" fill="#E33443"/>
<path opacity="0.3" d="M157.051 226.515C153.099 226.515 149.895 223.311 149.895 219.358C149.895 215.406 153.099 212.202 157.051 212.202C161.004 212.202 164.208 215.406 164.208 219.358C164.208 223.311 161.004 226.515 157.051 226.515Z" fill="white"/>
<path d="M151.235 220.834C150.461 217.583 152.468 214.32 155.719 213.545C158.97 212.771 162.234 214.778 163.008 218.029C163.783 221.28 161.775 224.544 158.524 225.318C155.273 226.093 152.01 224.085 151.235 220.834Z" fill="#E33443"/>
<path opacity="0.6" d="M151.235 220.834C150.461 217.583 152.468 214.32 155.719 213.545C158.97 212.771 162.234 214.778 163.008 218.029C163.783 221.28 161.775 224.544 158.524 225.318C155.273 226.093 152.01 224.085 151.235 220.834Z" fill="white"/>
<path d="M157.052 224.393C154.271 224.393 152.017 222.139 152.017 219.358C152.017 216.577 154.271 214.323 157.052 214.323C159.832 214.323 162.086 216.577 162.086 219.358C162.086 222.139 159.832 224.393 157.052 224.393Z" fill="#E33443"/>
<path opacity="0.3" d="M157.052 224.391C154.271 224.391 152.017 222.137 152.017 219.356C152.017 216.575 154.271 214.321 157.052 214.321C159.832 214.321 162.086 216.575 162.086 219.356C162.086 222.137 159.832 224.391 157.052 224.391Z" fill="white"/>
<path d="M157.052 224.393C154.271 224.393 152.017 222.139 152.017 219.358C152.017 216.577 154.271 214.323 157.052 214.323C159.832 214.323 162.086 216.577 162.086 219.358C162.086 222.139 159.832 224.393 157.052 224.393Z" fill="#E33443"/>
<path opacity="0.9" d="M157.052 224.393C154.271 224.393 152.017 222.139 152.017 219.358C152.017 216.577 154.271 214.323 157.052 214.323C159.832 214.323 162.086 216.577 162.086 219.358C162.086 222.139 159.832 224.393 157.052 224.393Z" fill="white"/>
<path d="M155.153 220.295L156.439 219.072C157.106 218.446 157.237 218.02 157.237 217.552C157.237 216.7 156.563 216.17 155.518 216.17C154.727 216.17 154.06 216.466 153.689 216.968L154.315 217.449C154.583 217.105 154.975 216.947 155.442 216.947C156.033 216.947 156.336 217.202 156.336 217.642C156.336 217.91 156.253 218.192 155.786 218.639L153.875 220.454V221.052H157.422V220.295H155.153ZM157.691 216.239V216.988H158.708V221.052H159.602V216.239H157.691Z" fill="#333333"/>
<path d="M320.074 229.122C320.075 226.914 320.565 224.735 321.508 222.739C322.451 220.744 323.824 218.982 325.529 217.58C327.234 216.178 329.228 215.17 331.368 214.63C333.508 214.09 335.742 214.031 337.907 214.456C340.857 215.037 343.563 216.495 345.67 218.639C347.778 220.784 349.189 223.514 349.719 226.473C350.349 229.981 349.7 233.599 347.889 236.668L347.846 236.725C347.273 237.69 346.556 238.381 345.831 239.4L337.156 250.903C336.904 251.236 336.579 251.507 336.206 251.693C335.832 251.879 335.421 251.975 335.004 251.975C334.586 251.975 334.175 251.879 333.801 251.693C333.428 251.507 333.103 251.236 332.851 250.903L324.323 239.603C324.323 239.603 322.718 237.704 322.153 236.727L322.121 236.687C320.775 234.394 320.068 231.781 320.074 229.122ZM335.013 235.625C336.756 235.625 338.428 234.933 339.661 233.7C340.893 232.467 341.586 230.795 341.586 229.052C341.586 227.309 340.893 225.637 339.661 224.403C338.428 223.17 336.756 222.477 335.013 222.476C333.269 222.476 331.596 223.169 330.363 224.402C329.13 225.636 328.437 227.308 328.437 229.052C328.437 229.916 328.607 230.77 328.938 231.568C329.268 232.366 329.753 233.09 330.363 233.701C330.974 234.311 331.699 234.795 332.497 235.125C333.294 235.456 334.149 235.626 335.013 235.625Z" fill="#E33443"/>
<path d="M335.01 239.314C329.341 239.314 324.745 234.718 324.745 229.049C324.745 223.38 329.341 218.784 335.01 218.784C340.679 218.784 345.275 223.38 345.275 229.049C345.275 234.718 340.679 239.314 335.01 239.314Z" fill="#E33443"/>
<path opacity="0.3" d="M335.01 239.314C329.341 239.314 324.745 234.718 324.745 229.049C324.745 223.38 329.341 218.784 335.01 218.784C340.679 218.784 345.275 223.38 345.275 229.049C345.275 234.718 340.679 239.314 335.01 239.314Z" fill="white"/>
<path d="M326.63 231.136C325.518 226.473 328.399 221.791 333.063 220.68C337.726 219.569 342.408 222.449 343.519 227.113C344.63 231.777 341.75 236.458 337.086 237.569C332.422 238.681 327.741 235.8 326.63 231.136Z" fill="#E33443"/>
<path opacity="0.6" d="M326.63 231.136C325.518 226.473 328.399 221.791 333.063 220.68C337.726 219.569 342.408 222.449 343.519 227.113C344.63 231.777 341.75 236.458 337.086 237.569C332.422 238.681 327.741 235.8 326.63 231.136Z" fill="white"/>
<path d="M335.01 236.272C331.021 236.272 327.787 233.038 327.787 229.049C327.787 225.06 331.021 221.826 335.01 221.826C338.999 221.826 342.233 225.06 342.233 229.049C342.233 233.038 338.999 236.272 335.01 236.272Z" fill="#E33443"/>
<path opacity="0.3" d="M335.01 236.272C331.021 236.272 327.787 233.038 327.787 229.049C327.787 225.06 331.021 221.826 335.01 221.826C338.999 221.826 342.233 225.06 342.233 229.049C342.233 233.038 338.999 236.272 335.01 236.272Z" fill="white"/>
<path d="M335.01 236.272C331.021 236.272 327.787 233.038 327.787 229.049C327.787 225.06 331.021 221.826 335.01 221.826C338.999 221.826 342.233 225.06 342.233 229.049C342.233 233.038 338.999 236.272 335.01 236.272Z" fill="#E33443"/>
<path opacity="0.9" d="M335.01 236.272C331.021 236.272 327.787 233.038 327.787 229.049C327.787 225.06 331.021 221.826 335.01 221.826C338.999 221.826 342.233 225.06 342.233 229.049C342.233 233.038 338.999 236.272 335.01 236.272Z" fill="white"/>
<path d="M333.482 229.213C333.987 228.939 334.27 228.496 334.27 227.912C334.27 226.849 333.332 226.186 331.951 226.186C330.579 226.186 329.649 226.849 329.649 227.912C329.649 228.496 329.923 228.939 330.419 229.213C329.782 229.505 329.428 230.01 329.428 230.691C329.428 231.842 330.41 232.559 331.951 232.559C333.491 232.559 334.491 231.842 334.491 230.691C334.491 230.01 334.128 229.505 333.482 229.213ZM331.951 227.088C332.659 227.088 333.137 227.407 333.137 227.965C333.137 228.496 332.685 228.832 331.951 228.832C331.225 228.832 330.782 228.496 330.782 227.965C330.782 227.407 331.242 227.088 331.951 227.088ZM331.951 231.656C331.101 231.656 330.587 231.284 330.587 230.656C330.587 230.045 331.101 229.665 331.951 229.665C332.8 229.665 333.332 230.045 333.332 230.656C333.332 231.284 332.8 231.656 331.951 231.656ZM339.257 229.213C339.761 228.939 340.045 228.496 340.045 227.912C340.045 226.849 339.106 226.186 337.725 226.186C336.353 226.186 335.424 226.849 335.424 227.912C335.424 228.496 335.698 228.939 336.194 229.213C335.557 229.505 335.202 230.01 335.202 230.691C335.202 231.842 336.185 232.559 337.725 232.559C339.266 232.559 340.266 231.842 340.266 230.691C340.266 230.01 339.903 229.505 339.257 229.213ZM337.725 227.088C338.434 227.088 338.912 227.407 338.912 227.965C338.912 228.496 338.46 228.832 337.725 228.832C336.999 228.832 336.557 228.496 336.557 227.965C336.557 227.407 337.017 227.088 337.725 227.088ZM337.725 231.656C336.876 231.656 336.362 231.284 336.362 230.656C336.362 230.045 336.876 229.665 337.725 229.665C338.575 229.665 339.106 230.045 339.106 230.656C339.106 231.284 338.575 231.656 337.725 231.656Z" fill="#333333"/>
<path d="M133.919 16.8676C133.92 15.2192 134.286 13.5913 134.991 12.1011C135.695 10.6108 136.721 9.29509 137.994 8.24813C139.268 7.20117 140.757 6.44885 142.355 6.04551C143.953 5.64217 145.621 5.59769 147.239 5.91514C149.443 6.34881 151.465 7.43757 153.04 9.03894C154.615 10.6403 155.67 12.6797 156.067 14.8905C156.538 17.5102 156.053 20.2119 154.7 22.5042L154.668 22.547C154.24 23.2666 153.705 23.783 153.164 24.5401L146.685 33.1196C146.497 33.3674 146.254 33.5683 145.976 33.7067C145.698 33.845 145.391 33.9167 145.08 33.9167C144.769 33.9167 144.462 33.845 144.184 33.7067C143.905 33.5683 143.663 33.3674 143.475 33.1196L137.105 24.682C136.531 23.9988 135.995 23.2843 135.5 22.5418L135.476 22.5096C134.46 20.8026 133.923 18.8539 133.919 16.8676ZM145.075 21.7259C146.377 21.7259 147.626 21.2088 148.547 20.2882C149.468 19.3677 149.986 18.1189 149.986 16.8167C149.986 16.1718 149.859 15.5333 149.612 14.9375C149.365 14.3417 149.004 13.8005 148.547 13.3446C148.091 12.8888 147.55 12.5271 146.954 12.2806C146.358 12.034 145.719 11.9074 145.075 11.9078C144.43 11.9078 143.791 12.0346 143.196 12.2813C142.6 12.528 142.059 12.8896 141.603 13.3454C141.147 13.8013 140.786 14.3424 140.539 14.938C140.292 15.5336 140.166 16.172 140.166 16.8167C140.166 17.4617 140.293 18.1004 140.54 18.6961C140.788 19.2919 141.15 19.8331 141.606 20.289C142.062 20.7448 142.604 21.1063 143.2 21.3528C143.796 21.5993 144.435 21.7262 145.08 21.7259H145.075Z" fill="#E33443"/>
<path d="M145.08 24.4809C140.845 24.4809 137.413 21.0482 137.413 16.8137C137.413 12.5792 140.845 9.14648 145.08 9.14648C149.314 9.14648 152.747 12.5792 152.747 16.8137C152.747 21.0482 149.314 24.4809 145.08 24.4809Z" fill="#E33443"/>
<path opacity="0.3" d="M145.08 24.4809C140.845 24.4809 137.413 21.0482 137.413 16.8137C137.413 12.5792 140.845 9.14648 145.08 9.14648C149.314 9.14648 152.747 12.5792 152.747 16.8137C152.747 21.0482 149.314 24.4809 145.08 24.4809Z" fill="white"/>
<path d="M138.846 18.3961C138.016 14.9136 140.167 11.4179 143.649 10.5882C147.132 9.7586 150.627 11.9092 151.457 15.3917C152.287 18.8742 150.136 22.3698 146.654 23.1994C143.171 24.0291 139.676 21.8786 138.846 18.3961Z" fill="#E33443"/>
<path opacity="0.6" d="M138.846 18.3961C138.016 14.9136 140.167 11.4179 143.649 10.5882C147.132 9.7586 150.627 11.9092 151.457 15.3917C152.287 18.8742 150.136 22.3698 146.654 23.1994C143.171 24.0291 139.676 21.8786 138.846 18.3961Z" fill="white"/>
<path d="M145.08 22.2074C142.101 22.2074 139.687 19.7928 139.687 16.8142C139.687 13.8355 142.101 11.4209 145.08 11.4209C148.058 11.4209 150.473 13.8355 150.473 16.8142C150.473 19.7928 148.058 22.2074 145.08 22.2074Z" fill="#E33443"/>
<path opacity="0.3" d="M145.08 22.2074C142.101 22.2074 139.687 19.7928 139.687 16.8142C139.687 13.8355 142.101 11.4209 145.08 11.4209C148.058 11.4209 150.473 13.8355 150.473 16.8142C150.473 19.7928 148.058 22.2074 145.08 22.2074Z" fill="white"/>
<path d="M145.08 22.2074C142.101 22.2074 139.687 19.7928 139.687 16.8142C139.687 13.8355 142.101 11.4209 145.08 11.4209C148.058 11.4209 150.473 13.8355 150.473 16.8142C150.473 19.7928 148.058 22.2074 145.08 22.2074Z" fill="#E33443"/>
<path opacity="0.9" d="M145.08 22.2074C142.101 22.2074 139.687 19.7928 139.687 16.8142C139.687 13.8355 142.101 11.4209 145.08 11.4209C148.058 11.4209 150.473 13.8355 150.473 16.8142C150.473 19.7928 148.058 22.2074 145.08 22.2074Z" fill="white"/>
<path d="M145.619 16.1752L146.871 14.6875V14.0467H143.358V14.8495H145.7L144.529 16.2415V16.8969H145C145.781 16.8969 146.119 17.1989 146.119 17.6629C146.119 18.1416 145.714 18.4436 145.029 18.4436C144.448 18.4436 143.888 18.2447 143.52 17.9354L143.107 18.6792C143.586 19.0549 144.315 19.2758 145.044 19.2758C146.429 19.2758 147.084 18.5246 147.084 17.6555C147.084 16.8822 146.591 16.3004 145.619 16.1752Z" fill="#333333"/>
</svg>
