<svg width="1400" height="665" viewBox="0 0 1400 665" fill="none" xmlns="http://www.w3.org/2000/svg">
<g clip-path="url(#clip0_326_7210)">
<g opacity="0.09">
<path d="M739.219 568.415L739.091 568.316C726.137 558.657 717.4 538.607 713.12 508.725C709.595 484.099 709.054 452.681 711.527 415.356C716.714 336.683 732.81 262.822 733.495 259.715C743.393 214.677 747.657 159.972 747.699 159.427L747.743 158.869L748.285 159C761.86 162.237 773.007 165.099 782.625 169.956C793.239 175.312 801.292 182.814 807.968 193.566C822.544 217.042 832.334 259.53 840.699 335.59C849.545 416.053 869.34 474.433 884.391 509.235C900.685 546.924 915.06 565.821 915.203 566.006L915.786 566.764H914.83L739.219 568.415ZM748.597 160.042C748.119 165.944 743.795 217.246 734.416 259.909C733.734 263.01 717.651 336.804 712.47 415.419C710.01 452.703 710.558 484.041 714.063 508.604C718.289 538.126 726.858 557.931 739.528 567.469L913.874 565.831C911.057 561.949 898.027 543.205 883.502 509.614C873.907 487.429 865.542 463.188 858.646 437.57C850.016 405.55 843.669 371.287 839.746 335.695C822.423 178.2 799.243 172.126 748.597 160.042Z" fill="#1D1D1B"/>
<path d="M774.619 568.081L783.179 170.227L783.864 170.59C784.47 170.909 785.075 171.227 785.665 171.581L785.91 171.721L777.366 568.055L774.619 568.081ZM784.1 171.801L775.595 567.118H776.449L784.944 172.288C784.664 172.11 784.377 171.954 784.1 171.801Z" fill="#1D1D1B"/>
<path d="M769.645 568.128L778.249 167.909L778.886 168.199C779.492 168.463 780.092 168.735 780.687 169.015L780.967 169.146L772.382 568.118L769.645 568.128ZM779.18 169.362L770.62 567.162H771.474L780.027 169.748L779.18 169.362Z" fill="#1D1D1B"/>
<path d="M759.7 568.22L768.39 164.302L768.998 164.496C769.604 164.689 770.205 164.887 770.802 165.089L771.121 165.2L762.462 568.185L759.7 568.22ZM769.317 165.602L760.675 567.258H761.529L770.165 165.882L769.317 165.602Z" fill="#1D1D1B"/>
<path d="M804.453 567.8L812.347 201.437L813.21 203.262C813.8 204.505 814.383 205.793 814.944 207.087L814.985 207.182L807.226 567.771L804.453 567.8ZM813.21 205.541L805.438 566.844H806.292L814.014 207.373C813.754 206.755 813.487 206.144 813.21 205.541Z" fill="#1D1D1B"/>
<path d="M799.488 567.847L807.557 192.89L808.405 194.289C808.994 195.245 809.584 196.274 810.161 197.31L810.221 197.421L802.254 567.822L799.488 567.847ZM808.44 196.213L800.473 566.882H801.327L809.262 197.66C808.991 197.173 808.717 196.688 808.44 196.213Z" fill="#1D1D1B"/>
<path d="M784.568 567.988L792.981 176.479L793.74 177.094C794.352 177.587 794.954 178.097 795.531 178.604L795.696 178.751L787.322 567.962L784.568 567.988ZM793.902 178.454L785.544 567.022H786.398L794.74 179.174C794.466 178.935 794.186 178.696 793.902 178.454Z" fill="#1D1D1B"/>
<path d="M789.543 567.94L797.873 180.758L798.666 181.567C799.246 182.16 799.845 182.797 800.448 183.479L800.575 183.619L792.306 567.933L789.543 567.94ZM798.784 183.065L790.524 566.977H791.378L799.613 183.967C799.332 183.658 799.036 183.358 798.778 183.065H798.784Z" fill="#1D1D1B"/>
<path d="M727.916 555.866L727.065 554.429C726.466 553.415 725.873 552.354 725.312 551.283L725.255 551.175L731.309 270.072C732.023 266.531 732.702 263.284 733.327 260.416L734.283 260.528L727.916 555.866ZM726.214 550.949C726.482 551.459 726.756 551.965 727.036 552.463L733.209 265.559C732.899 267.046 732.58 268.599 732.253 270.218L726.214 550.949Z" fill="#1D1D1B"/>
<path d="M713.072 508.374C712.479 504.177 711.963 499.741 711.545 495.185V495.13L713.878 386.809C714.544 379.98 715.306 372.956 716.138 365.907L717.094 365.971L714.031 508.32L713.072 508.374ZM712.498 495.124C712.709 497.428 712.944 499.7 713.206 501.928L715.905 376.401C715.522 379.932 715.162 383.412 714.825 386.866L712.498 495.124Z" fill="#1D1D1B"/>
<path d="M718.442 534.046L717.575 530.86C716.988 528.699 716.424 526.427 715.905 524.107V523.992L719.93 336.934V336.906C720.605 332.18 721.316 327.39 722.046 322.674L723.002 322.757L718.442 534.046ZM716.848 523.951C717.101 525.073 717.361 526.181 717.629 527.275L721.874 330.14C721.534 332.439 721.2 334.73 720.873 337.014L716.848 523.951Z" fill="#1D1D1B"/>
<path d="M754.725 568.269L763.447 162.84L764.043 163.009C764.648 163.181 765.249 163.355 765.843 163.531L766.194 163.637L757.488 568.249L754.725 568.269ZM764.374 164.092L755.697 567.303H756.551L765.225 164.338L764.374 164.092Z" fill="#1D1D1B"/>
<path d="M732.753 562.411L731.934 561.416C731.354 560.712 730.774 559.96 730.159 559.122L730.063 558.991L736.87 242.873C737.574 239.049 738.269 235.075 738.932 231.047L739.888 231.133L732.753 562.411ZM731.023 558.689C731.307 559.071 731.585 559.438 731.854 559.788L738.785 237.592C738.467 239.421 738.148 241.228 737.829 243.01L731.023 558.689Z" fill="#1D1D1B"/>
<path d="M744.776 568.36L753.559 160.258L754.136 160.401L755.936 160.847L756.306 160.943L747.539 568.335L744.776 568.36ZM754.486 161.472L745.752 567.398H746.606L755.337 161.692L754.486 161.472Z" fill="#1D1D1B"/>
<path d="M739.802 568.408L748.61 159.066L749.247 159.216L750.997 159.634L751.37 159.726L742.578 568.383L739.802 568.408ZM749.541 160.268L740.777 567.446H741.631L750.388 160.472L749.541 160.268Z" fill="#1D1D1B"/>
<path d="M864.149 567.229L866.437 460.845L867.307 463.553C867.846 465.233 868.4 466.928 869.003 468.735L869.028 468.815L866.912 567.229H864.149ZM867.269 466.53L865.125 566.273H865.979L868.072 468.974C867.795 468.139 867.527 467.333 867.269 466.53Z" fill="#1D1D1B"/>
<path d="M889.018 567.003L889.993 521.66L890.857 523.473C891.439 524.693 892.016 525.887 892.587 527.055L892.638 527.157L891.781 566.965L889.018 567.003ZM890.86 525.698L889.993 566.041H890.847L891.679 527.396L890.86 525.698Z" fill="#1D1D1B"/>
<path d="M879.07 567.098L880.513 500.016L881.383 502.122C881.957 503.514 882.529 504.882 883.101 506.226L883.139 506.322L881.832 567.073L879.07 567.098ZM881.37 504.576L880.045 566.136H880.899L882.173 506.516C881.912 505.866 881.641 505.226 881.37 504.576Z" fill="#1D1D1B"/>
<path d="M893.999 566.959L894.761 531.446L895.624 533.132C896.207 534.276 896.787 535.401 897.358 536.484L897.415 536.593L896.778 566.933L893.999 566.959ZM895.634 535.242L894.974 565.993H895.828L896.466 536.825C896.176 536.319 895.911 535.774 895.627 535.242H895.634Z" fill="#1D1D1B"/>
<path d="M874.095 567.147L875.8 487.974L876.67 490.252C877.241 491.739 877.812 493.21 878.381 494.666L878.416 494.755L876.858 567.118L874.095 567.147ZM876.644 492.856L875.051 566.181H875.905L877.438 494.933L876.644 492.856Z" fill="#1D1D1B"/>
<path d="M903.938 566.863L904.321 549.119L905.172 550.563C905.774 551.579 906.357 552.554 906.915 553.469L906.988 553.59L906.701 566.837L903.938 566.863ZM905.213 552.481L904.923 565.9H905.777L906.038 553.855C905.758 553.405 905.471 552.946 905.204 552.481H905.213Z" fill="#1D1D1B"/>
<path d="M908.913 566.818L909.123 557.041L909.967 558.357C910.557 559.272 911.127 560.145 911.714 561.024L911.797 561.149L911.676 566.792L908.913 566.818ZM910.009 560.174L909.888 565.852H910.742L910.837 561.435C910.563 561.017 910.287 560.596 910.009 560.174Z" fill="#1D1D1B"/>
<path d="M814.412 567.707L821.763 226.021L822.63 229.046C823.201 231.034 823.765 233.096 824.31 235.177V235.307L817.159 567.678L814.412 567.707ZM822.579 232.404L815.387 566.741H816.241L823.369 235.355C823.11 234.365 822.847 233.382 822.579 232.404Z" fill="#1D1D1B"/>
<path d="M913.887 566.77L913.941 564.291L914.77 565.425C915.044 565.798 915.194 565.993 915.194 565.996L915.777 566.754L913.887 566.77Z" fill="#1D1D1B"/>
<path d="M834.306 567.519L839.367 332.285L840.323 332.243C840.444 333.349 840.568 334.474 840.692 335.576C841.011 338.559 841.387 341.679 841.846 345.401V345.471L837.066 567.493L834.306 567.519ZM840.167 339.455L835.281 566.557H836.135L840.89 345.493C840.622 343.301 840.383 341.322 840.167 339.455Z" fill="#1D1D1B"/>
<path d="M829.332 567.568L835.128 298.169L836.084 298.111C836.604 301.846 837.126 305.782 837.642 309.81V309.88L832.098 567.542L829.332 567.568ZM835.95 304.274L830.307 566.602H831.161L836.683 309.902C836.441 307.999 836.197 306.123 835.95 304.274Z" fill="#1D1D1B"/>
<path d="M819.383 567.659L826.362 243.386L827.219 247.21C827.78 249.724 828.334 252.308 828.863 254.909V255.014L822.136 567.627L819.383 567.659ZM827.146 251.356L820.358 566.697H821.212L827.904 255.071C827.665 253.822 827.398 252.583 827.146 251.356Z" fill="#1D1D1B"/>
<path d="M859.175 567.283L861.798 445.396L862.665 448.385C863.203 450.227 863.751 452.084 864.35 454.063L864.373 454.137L861.938 567.264L859.175 567.283ZM862.617 451.606L860.15 566.327H861.004L863.407 454.267C863.139 453.359 862.875 452.476 862.617 451.606Z" fill="#1D1D1B"/>
<path d="M849.226 567.379L852.636 408.96L853.493 412.758C854.092 415.403 854.634 417.739 855.147 419.897V420.018L851.976 567.354L849.226 567.379ZM853.423 416.726L850.201 566.417H851.055L854.204 420.069C853.952 418.998 853.694 417.892 853.423 416.726Z" fill="#1D1D1B"/>
<path d="M844.252 567.427L848.143 386.694L848.99 391.137C849.487 393.737 850.02 396.433 850.619 399.377V399.482L847.008 567.398L844.252 567.427ZM848.904 395.681L845.227 566.461H846.081L849.675 399.524C849.405 398.192 849.15 396.917 848.904 395.681Z" fill="#1D1D1B"/>
<g style="mix-blend-mode:color-burn" opacity="0.39">
<path d="M739.219 568.418L739.091 568.319C726.137 558.66 717.4 538.613 713.12 508.728C709.595 484.102 709.054 452.684 711.527 415.358C716.714 336.686 732.81 262.825 733.492 259.718C743.393 214.68 747.657 159.975 747.699 159.43L747.74 158.872L748.285 159.003C761.857 162.24 773.007 165.102 782.625 169.959C793.239 175.315 801.289 182.817 807.965 193.569C822.544 217.045 832.334 259.533 840.699 335.593C849.545 416.06 869.34 474.436 884.391 509.238C900.685 546.927 915.06 565.824 915.203 566.009L915.786 566.77H914.83L739.219 568.418ZM748.597 160.048C748.119 165.947 743.795 217.252 734.416 259.912C733.734 263.013 717.651 336.807 712.47 415.422C710.01 452.706 710.558 484.044 714.063 508.607C718.289 538.129 726.858 557.934 739.528 567.471L913.874 565.834C911.054 561.952 898.027 543.208 883.502 509.617C873.907 487.432 865.542 463.191 858.646 437.573C850.016 405.553 843.669 371.29 839.746 335.698C822.423 178.202 799.243 172.129 748.597 160.048Z" fill="#1D1D1B"/>
</g>
<g style="mix-blend-mode:color-burn" opacity="0.39">
<path d="M739.219 568.418L739.091 568.322C738.903 568.182 738.721 568.039 738.54 567.892L737.287 566.908L859.063 564.635C857.024 557.261 836.913 482.174 820.759 335.277C805.514 196.602 785.849 175.959 747.654 164.353L747.284 164.242L747.316 163.856C747.568 160.988 747.689 159.417 747.689 159.417L747.73 158.859L748.275 158.99C761.847 162.228 772.997 165.089 782.615 169.946C793.23 175.303 801.279 182.804 807.958 193.556C822.534 217.032 832.324 259.52 840.689 335.58C849.532 416.021 869.321 474.389 884.346 509.184C900.643 546.889 915.034 565.811 915.177 565.996L915.761 566.758H914.805L739.219 568.418ZM748.301 163.553C768.023 169.608 782.602 178.34 794.211 202.816C805.865 227.383 814.345 268.204 821.709 335.172C838.646 489.219 859.933 564.231 860.147 564.97L860.319 565.569L778.443 567.092L913.877 565.818C911.057 561.936 898.03 543.192 883.505 509.601C873.91 487.416 865.545 463.175 858.649 437.557C850.019 405.537 843.672 371.274 839.749 335.682C822.432 178.199 799.252 172.126 748.61 160.045C748.546 160.692 748.447 161.884 748.301 163.553Z" fill="#1D1D1B"/>
</g>
<g style="mix-blend-mode:overlay">
<path d="M739.219 568.415L739.095 568.319C726.141 558.66 717.403 538.613 713.123 508.728C709.599 484.102 709.057 452.684 711.53 415.358C716.718 336.686 732.814 262.825 733.499 259.718C743.4 214.68 747.66 159.975 747.702 159.43L747.746 158.872L748.288 159.003C751.43 159.752 753.304 160.201 754.391 160.465L755.496 160.733L755.732 160.8C755.984 160.886 756.21 161.033 756.127 161.38C756.121 161.439 756.102 161.496 756.072 161.546C756.042 161.597 756.001 161.641 755.952 161.675C755.903 161.708 755.848 161.731 755.79 161.741C755.731 161.751 755.672 161.749 755.614 161.734C754.113 177.865 749.241 219.916 743.311 260.792C736.826 305.539 738.699 372.275 748.091 430.811C759.158 499.837 778.574 548.597 802.761 568.106L803.826 568.963L739.219 568.415ZM748.6 160.048C748.122 165.947 743.798 217.249 734.42 259.912C733.738 263.013 717.655 336.807 712.473 415.422C710.013 452.706 710.561 484.044 714.066 508.607C718.292 538.132 726.861 557.937 739.538 567.475L801.104 567.988C777.204 547.791 758.084 499.235 747.135 430.96C737.734 372.326 735.86 305.491 742.355 260.658C748.291 219.69 753.189 177.54 754.665 161.517C753.785 161.288 752.029 160.864 748.6 160.048Z" fill="#1D1D1B"/>
</g>
<path d="M1167.57 568.771H1167.42L1010.55 566.48L1011.13 565.725C1011.26 565.559 1024.13 548.81 1038.79 515.375C1052.32 484.522 1070.17 432.745 1078.4 361.302C1086.18 293.726 1095.08 256.014 1108.14 235.209C1114.13 225.677 1121.33 219.039 1130.8 214.323C1139.37 210.05 1149.3 207.555 1161.39 204.741L1161.93 204.613L1161.97 205.171C1162 205.659 1165.54 254.297 1174.13 294.363C1174.72 297.126 1188.69 362.848 1192.93 432.799C1194.95 465.998 1194.32 493.922 1191.07 515.799C1187.13 542.35 1179.26 560.142 1167.7 568.676L1167.57 568.771ZM1012.44 565.549L1167.26 567.812C1178.55 559.396 1186.25 541.85 1190.13 515.659C1193.38 493.849 1194 465.988 1191.99 432.856C1187.74 362.979 1173.79 297.323 1173.18 294.554C1165.08 256.735 1161.47 211.318 1161.05 205.786C1116.05 216.277 1095.44 221.617 1079.33 361.404C1075.69 393.013 1069.88 423.449 1062.06 451.868C1055.81 474.608 1048.26 496.115 1039.63 515.793C1026.68 545.362 1015.09 561.933 1012.44 565.549Z" fill="#1D1D1B"/>
<path d="M1136.15 568.313L1133.6 568.275L1127.86 215.904L1128.11 215.767C1128.63 215.474 1129.17 215.181 1129.71 214.894L1130.39 214.534L1136.15 568.313ZM1134.53 567.335H1135.16L1129.43 216.096L1128.79 216.449L1134.53 567.335Z" fill="#1D1D1B"/>
<path d="M1140.57 568.376L1138.02 568.338L1132.22 213.638L1132.5 213.507C1133.03 213.263 1133.56 213.024 1134.1 212.79L1134.73 212.507L1140.57 568.376ZM1138.95 567.398H1139.58L1133.83 213.954L1133.19 214.244L1138.95 567.398Z" fill="#1D1D1B"/>
<path d="M1149.41 568.504L1146.86 568.466L1141 210.172L1141.34 210.063C1141.87 209.888 1142.4 209.713 1142.93 209.544L1143.54 209.353L1149.41 568.504ZM1147.79 567.526H1148.44L1142.62 210.64L1141.98 210.847L1147.79 567.526Z" fill="#1D1D1B"/>
<path d="M1109.63 567.924L1107.08 567.886L1101.85 247.306L1101.89 247.21C1102.4 246.057 1102.92 244.913 1103.45 243.816L1104.32 242L1109.63 567.924ZM1108 566.946H1108.66L1103.42 246.098C1103.21 246.563 1103 247.032 1102.78 247.503L1108 566.946Z" fill="#1D1D1B"/>
<path d="M1114.05 567.991L1111.5 567.953L1106.11 238.654L1106.17 238.543C1106.69 237.618 1107.22 236.717 1107.75 235.863L1108.61 234.467L1114.05 567.991ZM1112.42 567.013H1113.08L1107.7 237.791C1107.49 238.154 1107.28 238.523 1107.07 238.896L1112.42 567.013Z" fill="#1D1D1B"/>
<path d="M1127.31 568.185L1124.76 568.15L1119.1 222.111L1119.27 221.968C1119.78 221.519 1120.32 221.069 1120.86 220.629L1121.62 220.018L1127.31 568.185ZM1125.68 567.206H1126.34L1120.71 221.997L1120.07 222.545L1125.68 567.206Z" fill="#1D1D1B"/>
<path d="M1122.89 568.118L1120.34 568.08L1114.75 226.414L1114.88 226.277C1115.42 225.681 1115.96 225.114 1116.47 224.594L1117.27 223.788L1122.89 568.118ZM1121.26 567.14H1121.92L1116.35 226.089C1116.14 226.312 1115.93 226.545 1115.72 226.777L1121.26 567.14Z" fill="#1D1D1B"/>
<path d="M1177.61 557.803L1173.33 295.105L1174.28 294.997C1174.83 297.546 1175.41 300.449 1176.03 303.601V303.684L1180.11 553.488L1180.05 553.593C1179.54 554.549 1179.01 555.486 1178.47 556.385L1177.61 557.803ZM1174.37 300.156L1178.51 554.402C1178.73 554.02 1178.94 553.631 1179.15 553.242L1175.08 303.725C1174.83 302.497 1174.59 301.308 1174.36 300.156H1174.37Z" fill="#1D1D1B"/>
<path d="M1191.13 515.487L1190.17 515.426L1188.1 388.915L1189.06 388.854C1189.76 395.123 1190.41 401.365 1190.97 407.411L1192.55 503.757V503.785C1192.15 507.82 1191.67 511.762 1191.13 515.487ZM1189.24 399.409L1191.02 508.967C1191.23 507.24 1191.42 505.481 1191.59 503.702L1190.02 407.446C1189.77 404.807 1189.51 402.121 1189.24 399.409Z" fill="#1D1D1B"/>
<path d="M1186.13 538.638L1183.07 350.464L1184.02 350.385C1184.66 354.594 1185.26 358.852 1185.84 363.045V363.103L1188.55 529.4V529.454C1188.08 531.519 1187.57 533.536 1187.04 535.454L1186.13 538.638ZM1184.14 357.864L1186.98 531.857C1187.19 531.007 1187.39 530.157 1187.59 529.307L1184.88 363.157C1184.64 361.4 1184.39 359.636 1184.14 357.864Z" fill="#1D1D1B"/>
<path d="M1153.83 568.571L1151.28 568.533L1145.4 208.798L1145.75 208.696C1146.28 208.54 1146.81 208.377 1147.34 208.237L1147.94 208.071L1153.83 568.571ZM1152.21 567.593H1152.86L1147.02 209.324L1146.38 209.512L1152.21 567.593Z" fill="#1D1D1B"/>
<path d="M1173.28 563.555L1168.48 268.956L1169.43 268.873C1170.01 272.458 1170.61 275.998 1171.21 279.389V279.466L1175.8 560.41L1175.7 560.54C1175.15 561.286 1174.63 561.952 1174.1 562.573L1173.28 563.555ZM1169.54 275.393L1174.19 560.936C1174.4 560.665 1174.61 560.387 1174.83 560.094L1170.25 279.513C1170.01 278.162 1169.77 276.786 1169.54 275.393Z" fill="#1D1D1B"/>
<path d="M1162.67 568.698L1160.12 568.663L1154.2 206.452L1154.57 206.36L1156.16 205.971L1156.74 205.831L1162.67 568.698ZM1161.05 567.723H1161.7L1155.82 207.039L1155.18 207.198L1161.05 567.723Z" fill="#1D1D1B"/>
<path d="M1167.1 568.765L1164.55 568.727L1158.62 205.394L1161.17 204.795L1167.1 568.765ZM1165.47 567.787H1166.13L1160.22 205.993L1159.58 206.146L1165.47 567.787Z" fill="#1D1D1B"/>
<path d="M1056.58 567.149L1054.03 567.111L1052.59 479.595L1052.62 479.519C1053.13 478.006 1053.64 476.473 1054.15 474.92L1055.03 472.215L1056.58 567.149ZM1054.96 566.171H1055.6L1054.16 477.9L1053.52 479.751L1054.96 566.171Z" fill="#1D1D1B"/>
<path d="M1034.48 566.828L1031.93 566.79L1031.34 531.341L1031.4 531.239C1031.91 530.204 1032.43 529.142 1032.95 528.052L1033.82 526.242L1034.48 566.828ZM1032.86 565.849H1033.5L1032.94 530.264L1032.3 531.538L1032.86 565.849Z" fill="#1D1D1B"/>
<path d="M1038.9 566.891L1036.35 566.853L1035.63 522.415L1035.67 522.316C1036.19 521.204 1036.7 520.085 1037.22 518.919L1038.1 516.972L1038.9 566.891ZM1037.28 565.913H1037.92L1037.19 521.235C1036.98 521.694 1036.77 522.153 1036.55 522.606L1037.28 565.913Z" fill="#1D1D1B"/>
<path d="M1043.32 566.955L1040.77 566.92L1039.89 512.858L1039.93 512.763C1040.44 511.571 1040.96 510.358 1041.48 509.123L1042.35 507.023L1043.32 566.955ZM1041.7 565.977H1042.34L1041.45 511.564C1041.24 512.058 1041.03 512.546 1040.81 513.034L1041.7 565.977Z" fill="#1D1D1B"/>
<path d="M1030.07 566.761L1027.52 566.726L1027.08 539.693L1027.14 539.585C1027.65 538.629 1028.17 537.629 1028.69 536.615L1029.56 534.933L1030.07 566.761ZM1028.45 565.786H1029.09L1028.65 538.699L1028.01 539.897L1028.45 565.786Z" fill="#1D1D1B"/>
<path d="M1047.74 567.022L1045.19 566.984L1044.14 502.613L1044.18 502.523C1044.69 501.249 1045.2 499.944 1045.72 498.61L1046.6 496.335L1047.74 567.022ZM1046.12 566.044H1046.76L1045.7 501.188C1045.49 501.717 1045.28 502.243 1045.06 502.782L1046.12 566.044Z" fill="#1D1D1B"/>
<path d="M1021.22 566.633L1018.67 566.595L1018.48 554.753L1018.55 554.635C1019.05 553.823 1019.57 552.959 1020.11 552.057L1020.97 550.62L1021.22 566.633ZM1019.6 565.655H1020.23L1020.04 553.966C1019.83 554.32 1019.61 554.667 1019.4 555.005L1019.6 565.655Z" fill="#1D1D1B"/>
<path d="M1016.8 566.569L1014.25 566.531L1014.17 561.432L1014.25 561.308C1014.73 560.604 1015.25 559.82 1015.82 558.944L1016.67 557.634L1016.8 566.569ZM1015.18 565.591H1015.81L1015.73 560.769C1015.51 561.088 1015.3 561.407 1015.1 561.725L1015.18 565.591Z" fill="#1D1D1B"/>
<path d="M1100.79 567.796L1098.24 567.758L1093.42 272.143C1093.92 270.294 1094.43 268.462 1094.94 266.703L1095.82 263.679L1100.79 567.796ZM1099.16 566.818H1099.8L1094.96 270.058C1094.75 270.804 1094.55 271.559 1094.35 272.318L1099.16 566.818Z" fill="#1D1D1B"/>
<path d="M1012.38 566.506L1010.54 566.478L1011.13 565.722C1011.13 565.722 1011.26 565.547 1011.5 565.219L1012.34 564.091L1012.38 566.506Z" fill="#1D1D1B"/>
<path d="M1052.16 567.086L1049.61 567.047L1048.38 491.555L1048.41 491.472C1048.92 490.081 1049.44 488.67 1049.95 487.24L1050.83 484.771L1052.16 567.086ZM1050.54 566.107H1051.18L1049.94 490.003C1049.73 490.573 1049.52 491.141 1049.3 491.708L1050.54 566.107Z" fill="#1D1D1B"/>
<path d="M1025.64 566.697L1023.09 566.662L1022.77 547.491L1022.84 547.376C1023.35 546.484 1023.86 545.563 1024.39 544.607L1025.26 543.049L1025.64 566.697ZM1024.02 565.719H1024.66L1024.34 546.599C1024.12 546.978 1023.91 547.351 1023.7 547.721L1024.02 565.719Z" fill="#1D1D1B"/>
<path d="M1083.1 567.548L1080.55 567.51L1077.34 370.044C1077.77 366.73 1078.11 363.958 1078.41 361.316C1078.52 360.322 1078.64 359.337 1078.75 358.355L1079.71 358.403L1083.1 567.548ZM1081.48 566.57H1082.12L1078.84 365.532C1078.66 366.963 1078.47 368.476 1078.26 370.121L1081.48 566.57Z" fill="#1D1D1B"/>
<path d="M1087.53 567.602L1084.98 567.564L1081.23 338.426C1081.7 334.863 1082.19 331.367 1082.67 328.034L1083.63 328.095L1087.53 567.602ZM1085.9 566.624H1086.54L1082.75 334.197C1082.55 335.615 1082.36 337.065 1082.16 338.499L1085.9 566.624Z" fill="#1D1D1B"/>
<path d="M1096.35 567.73L1093.8 567.695L1089.28 289.67C1089.76 287.362 1090.27 285.062 1090.78 282.834L1091.66 278.994L1096.35 567.73ZM1094.73 566.755H1095.37L1090.81 286.964C1090.6 287.904 1090.4 288.851 1090.2 289.8L1094.73 566.755Z" fill="#1D1D1B"/>
<path d="M1065.42 567.28L1062.87 567.242L1060.98 452.231L1061 452.164C1061.54 450.208 1062.04 448.378 1062.51 446.568L1063.4 443.238L1065.42 567.28ZM1063.8 566.302H1064.44L1062.55 450.096C1062.34 450.829 1062.14 451.575 1061.93 452.327L1063.8 566.302Z" fill="#1D1D1B"/>
<path d="M1061 567.229L1058.45 567.194L1056.81 466.584L1056.84 466.511C1057.37 464.762 1057.87 463.114 1058.36 461.47L1059.24 458.49L1061 567.229ZM1059.38 566.251H1060.02L1058.36 464.679C1058.16 465.342 1057.96 466.017 1057.74 466.706L1059.38 566.251Z" fill="#1D1D1B"/>
<path d="M1069.84 567.344L1067.29 567.305L1065.17 436.173C1065.64 434.242 1066.13 432.171 1066.67 429.835L1067.55 426.043L1069.84 567.344ZM1068.22 566.365H1068.86L1066.69 433.799C1066.48 434.679 1066.28 435.523 1066.08 436.349L1068.22 566.365Z" fill="#1D1D1B"/>
<path d="M1074.26 567.408L1071.71 567.37L1069.27 417.959C1069.81 415.371 1070.3 412.978 1070.75 410.645L1071.62 406.203L1074.26 567.408ZM1072.64 566.429H1073.28L1070.81 415.17C1070.61 416.126 1070.41 417.082 1070.21 418.093L1072.64 566.429Z" fill="#1D1D1B"/>
<g style="mix-blend-mode:color-burn" opacity="0.39">
<path d="M1167.57 568.775H1167.41L1010.54 566.484L1011.13 565.729C1011.25 565.563 1024.13 548.814 1038.79 515.379C1052.31 484.526 1070.17 432.752 1078.4 361.306C1086.18 293.73 1095.08 256.018 1108.14 235.213C1114.13 225.681 1121.33 219.043 1130.8 214.327C1139.37 210.054 1149.3 207.559 1161.39 204.745L1161.93 204.617L1161.97 205.175C1162 205.662 1165.54 254.298 1174.13 294.367C1174.72 297.13 1188.69 362.852 1192.93 432.803C1194.95 466.002 1194.32 493.926 1191.07 515.8C1187.13 542.354 1179.26 560.146 1167.7 568.68L1167.57 568.775ZM1012.44 565.553L1167.26 567.816C1178.55 559.4 1186.25 541.854 1190.14 515.66C1193.38 493.853 1194 465.992 1191.99 432.86C1187.74 362.982 1173.79 297.327 1173.18 294.558C1165.08 256.739 1161.47 211.322 1161.05 205.79C1116.05 216.28 1095.44 221.621 1079.33 361.408C1075.69 393.017 1069.88 423.453 1062.06 451.872C1055.81 474.612 1048.26 496.119 1039.63 515.797C1026.68 545.369 1015.09 561.937 1012.44 565.553Z" fill="#1D1D1B"/>
</g>
<g style="mix-blend-mode:overlay">
<path d="M1167.57 568.775H1167.41L1010.54 566.484L1011.13 565.729C1011.25 565.563 1024.13 548.814 1038.79 515.379C1052.31 484.526 1070.17 432.752 1078.4 361.306C1086.18 293.73 1095.08 256.018 1108.14 235.213C1114.13 225.681 1121.33 219.043 1130.8 214.327C1139.37 210.054 1149.3 207.559 1161.39 204.745L1161.93 204.617L1161.97 205.175C1161.97 205.175 1162.07 206.587 1162.29 209.12L1162.32 209.506L1161.95 209.617C1127.97 219.748 1110.41 237.998 1096.22 361.144C1081.24 491.202 1063.08 557.842 1061.14 564.773L1169.44 567.354L1168.2 568.31C1168.04 568.441 1167.88 568.568 1167.71 568.692L1167.57 568.775ZM1012.44 565.553L1121.21 567.147L1059.87 565.684L1060.04 565.088C1060.24 564.432 1079.5 497.849 1095.27 361.039C1102.12 301.546 1109.85 265.301 1120.32 243.514C1130.75 221.813 1143.75 214.101 1161.3 208.817C1161.18 207.409 1161.1 206.383 1161.06 205.803C1116.06 216.293 1095.45 221.634 1079.35 361.421C1075.7 393.03 1069.89 423.466 1062.07 451.885C1055.82 474.625 1048.27 496.132 1039.64 515.809C1026.68 545.369 1015.09 561.937 1012.44 565.553Z" fill="#1D1D1B"/>
</g>
<g style="mix-blend-mode:color-burn" opacity="0.39">
<path d="M1167.57 568.772H1167.42L1109.99 568.95L1111.06 568.096C1132.64 550.888 1150.11 507.648 1160.27 446.365C1168.87 394.387 1170.85 335.092 1165.29 295.297C1160.22 258.969 1156.08 221.624 1154.82 207.246C1154.77 207.253 1154.71 207.249 1154.66 207.235C1154.61 207.221 1154.56 207.197 1154.52 207.164C1154.48 207.13 1154.44 207.089 1154.41 207.042C1154.39 206.995 1154.37 206.943 1154.36 206.889C1154.28 206.535 1154.52 206.389 1154.76 206.312L1154.97 206.255L1155.95 206.022C1156.91 205.793 1158.58 205.385 1161.37 204.748L1161.91 204.62L1161.95 205.178C1162 205.662 1165.54 254.297 1174.13 294.367C1174.72 297.129 1188.69 362.855 1192.93 432.802C1194.94 466.001 1194.32 493.926 1191.07 515.799C1187.13 542.354 1179.26 560.145 1167.69 568.679L1167.57 568.772ZM1112.7 567.988L1167.26 567.819C1178.55 559.406 1186.24 541.857 1190.13 515.663C1193.37 493.853 1193.99 465.995 1191.98 432.86C1187.74 362.982 1173.79 297.327 1173.18 294.558C1165.07 256.738 1161.46 211.322 1161.05 205.79C1158.09 206.478 1156.54 206.841 1155.75 207.032C1157 221.312 1161.14 258.752 1166.23 295.154C1171.79 335.035 1169.82 394.444 1161.19 446.521C1151.16 507.052 1133.98 550.082 1112.7 567.988Z" fill="#1D1D1B"/>
</g>
<path d="M1013.1 568.95H1012.75L964.326 567.783L915.57 568.956L915.455 568.637C907.644 545.865 910.178 507.749 913.677 479.786C917.501 449.159 923.473 422.515 924.4 419.411C925.993 414.026 932.899 369.17 933.323 355.391C933.747 341.857 937.446 326.603 942.319 318.295C945.639 312.632 959.775 308.983 963.561 308.387V308.209L964.323 308.292L965.084 308.209V308.387C968.87 308.983 983.006 312.632 986.33 318.295C991.202 326.603 994.899 341.857 995.323 355.391C995.756 369.167 1002.65 414.026 1004.25 419.411C1005.17 422.515 1011.14 449.159 1014.97 479.786C1018.47 507.749 1021 545.865 1013.19 568.637L1013.1 568.95ZM964.342 566.821L1012.44 567.981C1020.05 545.355 1017.53 507.619 1014.06 479.891C1010.24 449.318 1004.29 422.757 1003.37 419.663C1001.75 414.246 994.832 369.221 994.399 355.401C993.981 342.016 990.336 326.94 985.533 318.754C982.477 313.543 968.427 309.7 964.581 309.251L964.355 309.226L964.128 309.251C960.282 309.7 946.229 313.543 943.173 318.754C938.374 326.937 934.728 342.016 934.311 355.401C933.877 369.221 926.956 414.252 925.34 419.663C924.416 422.751 918.473 449.299 914.649 479.891C911.178 507.616 908.658 545.343 916.271 567.981L964.342 566.821Z" fill="#1D1D1B"/>
<g opacity="0.8">
<path d="M942.236 568.31V318.475L942.351 318.274C942.821 317.512 943.403 316.826 944.078 316.238L944.875 315.521V568.243L942.236 568.31ZM943.192 318.733V567.332H943.919V317.748C943.646 318.053 943.403 318.383 943.192 318.733Z" fill="#1D1D1B"/>
<path d="M937.612 568.421V329.662L937.634 329.592C938.154 327.907 938.724 326.262 939.326 324.707L940.247 322.333V568.345L937.612 568.421ZM938.568 329.806V567.443L939.295 567.427V327.591C939.043 328.305 938.801 329.051 938.568 329.822V329.806Z" fill="#1D1D1B"/>
<path d="M956.111 567.975V310.262L956.429 310.157C957.006 309.975 957.573 309.803 958.121 309.647L958.73 309.472V567.911L956.111 567.975ZM957.067 310.963V566.997H957.793V310.743L957.067 310.963Z" fill="#1D1D1B"/>
<path d="M951.487 568.086V311.95L951.783 311.829C952.341 311.6 952.911 311.377 953.479 311.17L954.116 310.931V568.023L951.487 568.086ZM952.443 312.591V567.108H953.173V312.295L952.443 312.591Z" fill="#1D1D1B"/>
<path d="M1017.18 550.168L1016.22 550.111V500.628L1017.18 500.59C1018.79 520.194 1018.79 536.87 1017.18 550.168ZM1017.18 516.004V538.489C1017.51 531.654 1017.51 524.143 1017.18 516.004H1017.18Z" fill="#1D1D1B"/>
<path d="M915.592 568.951L915.48 568.632C915.162 567.727 914.862 566.736 914.508 565.512L914.489 565.382V473.726V473.694C914.999 469.931 915.566 466.046 916.172 462.152L917.128 462.226V568.916L915.592 568.951ZM915.445 565.302C915.704 566.204 915.939 566.978 916.172 567.682V468.615C915.92 470.358 915.675 472.088 915.445 473.79V565.302Z" fill="#1D1D1B"/>
<path d="M911.551 550.34C909.913 536.956 909.913 520.121 911.551 500.31L912.507 500.348V550.274L911.551 550.34ZM911.551 515.462C911.191 523.983 911.191 531.823 911.551 538.929V515.462Z" fill="#1D1D1B"/>
<path d="M923.74 568.756V422.067C924.04 420.792 924.279 419.836 924.409 419.396C924.645 418.616 924.983 417.06 925.416 414.772L926.372 414.862V568.692L923.74 568.756ZM924.696 422.229V567.778H925.423V419.368C925.394 419.476 925.369 419.572 925.34 419.661C925.228 420.085 924.98 421.015 924.693 422.236L924.696 422.229Z" fill="#1D1D1B"/>
<path d="M928.364 568.645V397.058C928.944 393.234 929.511 389.353 930.044 385.525L931 385.592V568.581L928.364 568.645ZM929.32 397.166V567.654H930.05V392.297C929.81 393.927 929.566 395.55 929.317 397.166H929.32Z" fill="#1D1D1B"/>
<path d="M1000.37 568.644L997.732 568.58V385.757L998.688 385.69C999.223 389.514 999.791 393.402 1000.37 397.21V568.654L1000.37 568.644ZM998.688 567.65H999.415V397.319C999.169 395.706 998.927 394.081 998.688 392.453V567.65Z" fill="#1D1D1B"/>
<path d="M995.743 568.533L993.108 568.469V342.486L994.064 342.409C994.783 346.698 995.217 351.03 995.364 355.376C995.412 356.889 995.543 358.859 995.753 361.236V568.533H995.743ZM994.061 567.548H994.791V361.3C994.58 358.916 994.45 356.931 994.402 355.408C994.344 353.615 994.231 351.789 994.061 349.93V567.548Z" fill="#1D1D1B"/>
<path d="M1013.11 568.95L1011.61 568.915V462.388L1012.56 462.314C1013.17 466.212 1013.74 470.1 1014.25 473.876V565.369L1014.23 565.432C1013.88 566.659 1013.55 567.708 1013.23 568.619L1013.11 568.95ZM1012.54 468.761V567.612C1012.78 566.895 1013.02 566.108 1013.27 565.222V473.959C1013.05 472.251 1012.81 470.518 1012.54 468.761Z" fill="#1D1D1B"/>
<path d="M1009.62 568.868L1006.98 568.804V436.104L1007.94 436.012C1008.5 438.88 1009.07 441.853 1009.62 444.868V444.954V568.868ZM1007.94 567.873H1008.66V444.995C1008.42 443.682 1008.18 442.376 1007.94 441.085V567.873Z" fill="#1D1D1B"/>
<path d="M967.997 567.867L965.362 567.803V308.407L965.926 308.516C966.432 308.611 967.006 308.735 967.627 308.882L967.997 308.968V567.867ZM966.314 566.873L967.041 566.892V309.727C966.789 309.669 966.547 309.618 966.314 309.57V566.873Z" fill="#1D1D1B"/>
<path d="M972.621 567.975L969.985 567.911V309.472L970.594 309.647C971.142 309.806 971.709 309.966 972.286 310.157L972.605 310.262L972.621 567.975ZM970.938 566.981L971.665 567V310.969L970.938 310.75V566.981Z" fill="#1D1D1B"/>
<path d="M986.495 568.31L983.86 568.246V315.542L984.657 316.265C985.322 316.847 985.896 317.526 986.358 318.279L986.406 318.365L986.495 318.522V568.31ZM984.813 567.315H985.539V318.754C985.33 318.403 985.087 318.072 984.816 317.766L984.813 567.315Z" fill="#1D1D1B"/>
<path d="M981.868 568.186L979.233 568.122V312.837L979.925 313.184C980.52 313.484 981.097 313.793 981.633 314.108L981.868 314.245V568.186ZM980.189 567.191H980.916V314.797C980.68 314.659 980.438 314.525 980.189 314.395V567.191Z" fill="#1D1D1B"/>
</g>
<g style="mix-blend-mode:color-burn" opacity="0.76">
<path d="M915.592 568.95L915.461 568.631C907.651 545.859 910.184 507.743 913.68 479.78C917.504 449.153 923.479 422.509 924.406 419.406C926 414.02 932.905 369.164 933.329 355.385C933.559 349.056 934.375 342.762 935.767 336.584C935.955 335.749 936.13 334.99 936.312 334.286V334.238C936.506 333.464 936.691 332.76 936.876 332.09L936.892 332.027C936.901 332 936.908 331.972 936.914 331.944V331.909C938.444 326.405 940.305 321.711 942.306 318.289C943.845 315.666 947.695 313.531 951.315 312.014H951.168L953.666 311.09L953.819 311.036L953.94 310.995C954.342 310.851 954.737 310.714 955.132 310.58C955.527 310.447 955.948 310.31 956.353 310.182L956.965 309.988L957.471 309.832L957.567 309.809C959.53 309.213 961.528 308.736 963.548 308.382V308.203L964.31 308.286L965.072 308.203V308.382L965.336 308.423L965.9 308.528C966.407 308.624 966.98 308.748 967.602 308.895L967.971 308.984C968.609 309.14 969.281 309.303 969.96 309.503L970.569 309.672L970.887 309.771L971.075 309.819H971.142L971.209 309.841C972.503 310.223 973.784 310.647 975.017 311.116L977.547 312.04H977.299C977.962 312.316 978.599 312.599 979.211 312.888L979.902 313.225L980.068 313.315L980.176 313.372C980.584 313.582 980.983 313.796 981.359 314.009L981.464 314.067L981.61 314.146L981.846 314.296C982.536 314.708 983.201 315.16 983.838 315.65V315.599L984.635 316.3C984.772 316.428 984.912 316.562 985.062 316.712L985.237 316.858C985.63 317.263 985.979 317.709 986.279 318.187L986.725 318.914H986.652C987.486 320.426 988.231 321.986 988.882 323.585H988.962L989.083 323.882C989.249 324.293 989.402 324.713 989.574 325.156L989.819 325.794H989.778L989.813 325.889C990.32 327.269 990.743 328.518 991.11 329.713L991.132 329.838C991.196 330.045 991.257 330.252 991.317 330.475H991.359L991.457 330.819C991.585 331.249 991.703 331.657 991.817 332.075L991.986 332.68H991.942C992.079 333.187 992.216 333.719 992.356 334.273V334.321C992.534 335.041 992.719 335.809 992.898 336.606V336.686C992.945 336.902 992.996 337.119 993.041 337.323H993.105L993.184 337.699C993.274 338.116 993.357 338.537 993.443 338.955L993.554 339.525H993.516C993.72 340.573 993.892 341.533 994.042 342.441H994.061C994.16 343.027 994.242 343.614 994.328 344.2L994.415 344.605C994.466 344.961 994.51 345.318 994.558 345.675L994.654 346.402H994.634C994.826 347.922 994.985 349.487 995.109 351.07L995.192 351.928C995.214 352.208 995.237 352.488 995.253 352.769L995.285 353.272H995.256C995.297 353.964 995.335 354.69 995.358 355.411C995.38 356.131 995.425 357.004 995.488 357.96L995.533 358.384C995.562 358.782 995.594 359.2 995.629 359.63L995.667 360.143H995.654C995.686 360.509 995.718 360.885 995.753 361.268V361.491C995.845 362.517 995.954 363.632 996.072 364.818L996.151 365.238L996.339 367.017H996.291C996.451 368.482 996.629 370.047 996.827 371.685L996.913 372.106C996.964 372.517 997.015 372.934 997.066 373.352L997.133 373.887H997.095C997.283 375.413 997.48 376.975 997.69 378.562L997.78 378.97L998.015 380.761H997.98C998.188 382.306 998.398 383.868 998.618 385.429L998.697 385.84L998.949 387.631H998.93C999.143 389.199 999.367 390.755 999.602 392.3L999.682 392.708L999.947 394.505H999.927C1000.06 395.426 1000.2 396.34 1000.34 397.242V397.395C1000.44 397.994 1000.53 398.588 1000.62 399.176L1000.72 399.578L1001 401.379H1000.96C1001.21 403.001 1001.47 404.565 1001.71 406.047H1001.75L1002.11 408.249H1002.08C1002.37 409.97 1002.64 411.534 1002.89 412.917H1002.93L1003 413.309C1003.08 413.743 1003.15 414.157 1003.23 414.555L1003.33 415.123H1003.31C1003.71 417.204 1004.04 418.689 1004.27 419.428C1004.3 419.52 1004.33 419.645 1004.37 419.791L1004.49 420.148C1004.57 420.486 1004.68 420.906 1004.81 421.404L1004.95 421.993H1004.93C1004.93 422.06 1004.96 422.127 1004.97 422.197V422.325C1005.27 423.599 1005.61 425.046 1005.95 426.662H1005.99L1006.07 427.038L1006.34 428.29L1006.46 428.867H1006.42C1006.74 430.361 1007.06 431.926 1007.38 433.535H1007.44L1007.88 435.737H1007.85L1007.91 436.056C1008.18 437.442 1008.46 438.902 1008.75 440.422L1008.85 440.807L1009.19 442.624H1009.17C1009.31 443.373 1009.45 444.134 1009.59 444.912V445.052C1009.69 445.584 1009.78 446.123 1009.88 446.668H1009.92L1010.31 448.873C1010.58 450.387 1010.85 451.944 1011.12 453.541H1011.16L1011.53 455.743H1011.49C1011.74 457.269 1011.99 458.825 1012.24 460.412L1012.35 460.816L1012.63 462.617H1012.61C1012.84 464.151 1013.08 465.707 1013.31 467.285L1013.39 467.693L1013.65 469.487H1013.63C1013.84 470.947 1014.04 472.416 1014.25 473.907V474.165L1014.34 474.57L1014.58 476.361H1014.54C1014.74 477.9 1014.94 479.465 1015.13 481.03L1015.22 481.45L1015.44 483.232H1015.41C1015.59 484.758 1015.77 486.323 1015.94 487.903L1016.03 488.327L1016.22 490.105H1016.18C1016.35 491.699 1016.5 493.257 1016.65 494.774L1016.72 495.207L1016.89 496.979H1016.85C1016.96 498.196 1017.07 499.417 1017.17 500.64H1017.19C1017.22 500.959 1017.24 501.278 1017.26 501.58L1017.35 502.396C1017.37 502.715 1017.4 503.034 1017.42 503.336L1017.46 503.849H1017.44C1017.55 505.373 1017.66 506.937 1017.76 508.518L1017.8 508.967L1017.88 510.22L1017.91 510.723H1017.89C1017.97 512.23 1018.05 513.798 1018.12 515.392L1018.16 515.847L1018.19 516.663L1018.23 517.597H1018.21C1018.26 519.158 1018.31 520.723 1018.34 522.265L1018.37 522.73L1018.38 523.983V524.467H1018.36C1018.38 526.105 1018.39 527.654 1018.38 529.136V529.617V529.904C1018.38 530.222 1018.38 530.541 1018.38 530.86V531.331H1018.36C1018.34 532.925 1018.3 534.493 1018.24 536V536.494C1018.24 536.777 1018.22 537.055 1018.21 537.335L1018.17 538.202H1018.15C1018.08 539.773 1017.99 541.338 1017.87 542.87L1017.82 543.826C1017.8 544.1 1017.79 544.374 1017.76 544.645L1017.73 545.085H1017.71C1017.56 546.793 1017.39 548.46 1017.2 550.047V550.289C1017.15 550.668 1017.11 551.044 1017.06 551.42L1016.99 551.956H1016.95C1016.73 553.593 1016.49 555.142 1016.23 556.624L1016.16 557.188C1016.1 557.507 1016.04 557.825 1015.98 558.144L1015.84 558.82H1015.81C1015.49 560.458 1015.13 562.025 1014.76 563.488L1014.63 564.087C1014.53 564.466 1014.43 564.836 1014.31 565.209L1014.16 565.693C1013.84 566.818 1013.53 567.79 1013.24 568.657L1013.12 568.976H1012.77L964.335 567.809L915.592 568.95ZM964.326 566.821L1012.44 567.981C1012.72 567.169 1013 566.261 1013.3 565.222L1013.32 565.069L1013.42 564.725H1013.45C1013.49 564.594 1013.52 564.463 1013.56 564.333L1013.67 563.81C1014.13 562.086 1014.56 560.203 1014.95 558.221L1015.02 557.835H1015.05L1015.12 557.481L1015.19 556.975C1015.5 555.241 1015.79 553.358 1016.05 551.376L1016.11 550.961H1016.14C1016.14 550.843 1016.17 550.725 1016.19 550.611L1016.24 549.916C1016.45 548.198 1016.63 546.385 1016.78 544.527L1016.84 544.088C1016.84 543.992 1016.84 543.893 1016.86 543.794L1016.88 543.281C1017.02 541.446 1017.13 539.559 1017.2 537.673L1017.22 537.217H1017.23C1017.23 537.106 1017.23 536.997 1017.25 536.898V536.436C1017.32 534.642 1017.37 532.753 1017.39 530.825V530.353H1017.41C1017.41 530.254 1017.41 530.155 1017.41 530.06V529.579C1017.41 527.794 1017.41 525.955 1017.39 523.964V523.483C1017.39 523.381 1017.39 523.282 1017.39 523.164L1017.36 522.702C1017.33 520.857 1017.27 518.967 1017.2 517.087L1017.19 516.593H1017.2V516.274L1017.16 515.841C1017.08 513.929 1016.99 512.017 1016.89 510.226L1016.86 509.719H1016.88L1016.86 509.423L1016.81 508.977C1016.7 507.065 1016.57 505.181 1016.43 503.362L1016.39 502.849H1016.41C1016.41 502.75 1016.41 502.651 1016.39 502.552L1016.33 502.113L1016.29 501.606C1016.29 501.367 1016.26 501.128 1016.24 500.889H1016.22C1016.1 499.423 1015.97 497.959 1015.84 496.498L1015.79 495.975H1015.83L1015.8 495.656L1015.72 495.233C1015.55 493.416 1015.36 491.526 1015.16 489.614L1015.1 489.089H1015.14L1015.11 488.77L1015.03 488.356C1014.82 486.444 1014.6 484.56 1014.39 482.738L1014.32 482.202H1014.36L1014.33 481.906L1014.24 481.488C1014.01 479.605 1013.77 477.715 1013.52 475.87L1013.45 475.332H1013.5L1013.46 475.013L1013.37 474.605L1013.29 473.911C1013.07 472.249 1012.83 470.608 1012.6 468.987L1012.52 468.442H1012.54L1012.5 468.124L1012.42 467.725C1012.16 465.958 1011.9 464.216 1011.63 462.499L1011.48 461.543H1011.52L1011.48 461.243L1011.37 460.845C1011.07 458.933 1010.77 457.056 1010.47 455.227L1010.37 454.673H1010.41L1010.36 454.376H1010.31L1010.25 453.978C1009.93 452.066 1009.61 450.173 1009.29 448.36L1009.19 447.799H1009.23L1009.18 447.506H1009.14L1009.07 447.111L1008.7 445.062V444.921C1008.52 443.965 1008.35 443.035 1008.18 442.117L1008.07 441.553H1008.09L1008.04 441.234L1007.94 440.855C1007.62 439.233 1007.33 437.668 1007.04 436.199H1007.02L1006.71 434.667H1006.74L1006.68 434.37H1006.65L1006.57 433.988C1006.18 432.041 1005.78 430.164 1005.41 428.37L1005.28 427.793H1005.32C1005.3 427.694 1005.28 427.595 1005.26 427.5H1005.22L1005.14 427.124C1004.75 425.339 1004.39 423.739 1004.07 422.372V422.242C1004.01 421.98 1003.95 421.741 1003.89 421.512L1003.75 420.922H1003.77C1003.75 420.811 1003.72 420.706 1003.7 420.604L1003.59 420.269C1003.51 419.979 1003.45 419.737 1003.4 419.584C1003.17 418.791 1002.83 417.277 1002.41 415.078H1002.4L1002.2 414.046H1002.24C1002.23 413.95 1002.21 413.851 1002.19 413.752H1002.15L1002.08 413.36C1001.78 411.735 1001.44 409.855 1001.1 407.73L1001 407.175H1001.05L1001 406.879H1000.96L1000.89 406.48C1000.6 404.709 1000.3 402.822 999.988 400.853L999.902 400.301H999.94L999.892 400.005L999.794 399.604C999.679 398.871 999.565 398.127 999.453 397.373V397.22C999.29 396.152 999.134 395.062 998.965 393.966L998.882 393.421H998.901L998.78 392.717C998.506 390.862 998.235 388.982 997.968 387.093L997.891 386.548H997.885L997.843 386.251H997.808L997.748 385.84C997.486 383.957 997.228 382.077 996.98 380.216L996.91 379.674H996.929L996.887 379.381L996.795 378.963C996.546 377.051 996.304 375.168 996.081 373.339L996.014 372.804H996.052C996.052 372.705 996.03 372.606 996.017 372.507L995.928 372.087C995.689 370.095 995.473 368.202 995.291 366.459L995.234 365.93H995.272L995.24 365.633L995.157 365.206C995.017 363.852 994.896 362.577 994.791 361.424V361.201C994.74 360.64 994.695 360.095 994.654 359.572L994.612 359.059H994.634C994.634 358.961 994.634 358.862 994.612 358.763L994.564 358.32C994.485 357.154 994.43 356.14 994.405 355.309C994.376 354.42 994.325 353.524 994.274 352.692L994.242 352.186H994.265C994.265 352.087 994.265 351.988 994.242 351.889L994.188 351.45C994.048 349.538 993.87 347.664 993.618 345.854L993.548 345.312C993.548 345.207 993.519 345.102 993.503 344.993L993.42 344.608L993.369 344.244C993.29 343.687 993.21 343.132 993.121 342.578H993.105C992.926 341.482 992.713 340.315 992.467 339.009L992.353 338.438H992.391C992.372 338.34 992.353 338.241 992.33 338.142H992.292L992.213 337.766C992.136 337.403 992.056 337.043 991.974 336.683V336.644C991.801 335.879 991.62 335.118 991.445 334.414L991.894 334.254L991.432 334.369C991.237 333.595 991.053 332.89 990.871 332.224L990.552 331.587H990.734L990.648 331.294H990.61L990.453 330.762C990.371 330.481 990.291 330.201 990.205 329.924L990.183 329.799C989.829 328.643 989.415 327.432 988.924 326.096L988.411 324.717H988.439L988.325 324.42H988.283L988.162 324.124C987.434 322.306 986.583 320.541 985.613 318.84L985.549 318.729V318.684L985.524 318.646L985.473 318.569L985.215 318.142C985.057 317.929 984.888 317.725 984.708 317.531L984.552 317.403C984.472 317.32 984.396 317.241 984.319 317.167L984.029 316.909C983.146 316.13 982.185 315.445 981.161 314.863L980.948 314.736H980.916C980.552 314.529 980.167 314.318 979.772 314.098L979.67 314.044L979.507 313.965C978.615 313.515 977.637 313.072 976.598 312.649L976.133 312.461L975.495 312.209L975.253 312.116L975.202 312.094L972.831 311.234C972.245 311.038 971.653 310.852 971.056 310.676H970.961L970.661 310.584H970.604L970.346 310.513C969.339 310.223 968.357 309.965 967.427 309.745L967.057 309.656C966.713 309.58 966.388 309.51 966.082 309.449L965.763 309.389C965.295 309.299 964.884 309.232 964.581 309.197L964.355 309.172L964.128 309.197C961.991 309.536 959.881 310.029 957.816 310.673L957.723 310.692L957.299 310.823L956.684 311.017C956.286 311.144 955.888 311.275 955.48 311.412C955.072 311.549 954.715 311.67 954.332 311.81L954.052 311.912C950.05 313.372 944.913 315.736 943.173 318.7C941.207 322.049 939.371 326.699 937.864 332.145V332.278L937.813 332.329C937.637 332.967 937.459 333.652 937.274 334.398L936.799 334.328L937.261 334.442C937.086 335.153 936.911 335.892 936.726 336.708C935.343 342.831 934.535 349.07 934.311 355.344C933.877 369.164 926.956 414.195 925.34 419.606C924.416 422.694 918.473 449.242 914.649 479.835C911.178 507.559 908.658 545.286 916.271 567.924L964.326 566.821Z" fill="#1D1D1B"/>
</g>
</g>
<g opacity="0.62">
<path d="M983.13 74.3925C983.13 74.4339 983.847 74.1439 985.173 73.8507C987.046 73.4419 988.976 73.3674 990.874 73.6309C993.693 74.0026 996.353 75.15 998.557 76.945C1001.26 79.1433 1003.16 82.1657 1003.97 85.549C1003.97 85.5809 1003.99 85.616 1004 85.6447L1004.16 86.2597L1004.4 85.6765C1005.71 82.4645 1007.98 79.7295 1010.89 77.8341C1013.27 76.2941 1016 75.3889 1018.82 75.2051C1020.73 75.0671 1022.64 75.2415 1024.49 75.7213C1025.8 76.0687 1026.49 76.3587 1026.5 76.3332C1026.35 76.2365 1026.19 76.1564 1026.01 76.0942C1025.53 75.8883 1025.04 75.7126 1024.54 75.5684C1022.22 74.8896 1019.79 74.7133 1017.4 75.0513C1015.01 75.3893 1012.72 76.2338 1010.69 77.5282C1007.7 79.4495 1005.37 82.244 1004.02 85.5331L1004.41 85.565L1004.39 85.4694C1003.55 81.9944 1001.58 78.8942 998.799 76.6518C996.533 74.8311 993.8 73.6848 990.912 73.3441C988.983 73.102 987.025 73.2197 985.138 73.6914C984.626 73.8164 984.124 73.9761 983.634 74.1694C983.459 74.2263 983.29 74.3011 983.13 74.3925Z" fill="#9C9B9B"/>
<path d="M926.114 43.1058C926.114 43.1409 926.519 42.9943 927.246 42.8445C928.273 42.6348 929.328 42.6035 930.365 42.7521C931.901 42.9637 933.348 43.5956 934.546 44.5781C936.014 45.7784 937.049 47.4256 937.494 49.2689V49.3198L937.653 49.9349L937.889 49.3517C938.608 47.6031 939.839 46.1125 941.42 45.0752C942.713 44.2301 944.2 43.7278 945.741 43.6157C946.782 43.5333 947.829 43.6194 948.842 43.8706C949.562 44.0491 949.948 44.1893 949.96 44.1702C949.973 44.1511 949.874 44.1064 949.696 44.0204C949.433 43.8963 949.163 43.7898 948.886 43.7017C947.608 43.3115 946.26 43.2026 944.936 43.3825C943.611 43.5623 942.341 44.0267 941.213 44.7438C939.549 45.8063 938.254 47.3566 937.504 49.1828L937.899 49.2147V49.1605C937.427 47.24 936.333 45.5293 934.789 44.2945C933.735 43.4602 932.502 42.8821 931.187 42.6056C929.872 42.3291 928.511 42.3618 927.211 42.7011C926.929 42.7744 926.653 42.8681 926.385 42.9815C926.289 43.0086 926.198 43.0505 926.114 43.1058Z" fill="#9C9B9B"/>
<path d="M963.392 30.3018C963.367 30.3273 963.781 30.7479 964.488 31.5446C965.48 32.6715 966.374 33.8804 967.162 35.1583C969.788 39.3754 971.166 44.2501 971.136 49.2179C971.136 49.2784 971.136 49.339 971.136 49.3932L971.547 49.4282C971.954 46.759 972.824 44.1815 974.119 41.8121C975.892 38.5635 978.393 35.7693 981.426 33.6478C982.292 33.0487 982.793 32.7491 982.774 32.7173C982.639 32.7615 982.511 32.8226 982.391 32.8989C982.149 33.0391 981.776 33.2176 981.336 33.5139C980.073 34.324 978.899 35.2639 977.831 36.3182C974.252 39.8327 971.904 44.4101 971.139 49.3677L971.553 49.4027C971.553 49.3454 971.553 49.2848 971.553 49.2211C971.589 44.1778 970.149 39.2343 967.411 34.9989C966.593 33.7236 965.654 32.5305 964.606 31.4362C964.246 31.0411 963.924 30.7702 963.724 30.5758C963.626 30.4703 963.514 30.3781 963.392 30.3018Z" fill="#9C9B9B"/>
</g>
<path opacity="0.03" d="M861.868 127.149C861.868 127.149 856.132 109.131 877.428 100.123C898.725 91.114 933.115 104.218 931.478 113.226C929.84 122.235 913.46 131.244 924.926 132.063C936.391 132.882 943.762 115.683 967.509 123.873C991.257 132.063 963.414 142.706 969.147 142.706C974.88 142.706 990.441 138.611 1004.36 142.706C1018.29 146.801 1004.36 154.178 951.949 158.267C899.534 162.355 911.822 151.715 892.167 150.077C872.511 148.439 874.959 157.448 833.213 150.077C791.468 142.706 806.18 117.331 861.868 127.149Z" fill="black"/>
<path opacity="0.03" d="M1269.86 367.255C1269.86 367.255 1265.97 355.028 1280.42 348.916C1294.87 342.804 1318.21 351.694 1317.1 357.806C1315.99 363.918 1304.87 370.034 1312.66 370.588C1320.44 371.143 1325.44 359.473 1341.56 365.031C1357.67 370.588 1338.78 377.812 1342.67 377.812C1346.56 377.812 1357.12 375.034 1366.57 377.812C1376.02 380.591 1366.57 385.594 1331 388.373C1295.43 391.152 1303.77 383.912 1290.43 382.816C1277.09 381.719 1278.76 387.815 1250.41 382.816C1222.07 377.816 1232.07 360.585 1269.86 367.255Z" fill="black"/>
<path opacity="0.06" d="M1222.83 409.951C1222.83 409.951 1221.38 405.397 1226.76 403.118C1232.14 400.84 1240.84 404.154 1240.43 406.429C1240.01 408.705 1235.87 410.986 1238.77 411.193C1241.67 411.401 1243.53 407.051 1249.54 409.122C1255.54 411.193 1248.5 413.883 1249.95 413.883C1251.39 413.883 1255.33 412.851 1258.85 413.883C1262.37 414.916 1258.85 416.783 1245.6 417.819C1232.35 418.854 1235.46 416.162 1230.49 415.747C1225.52 415.333 1226.14 417.611 1215.58 415.747C1205.02 413.883 1208.75 407.465 1222.83 409.951Z" fill="black"/>
<path d="M1400 629H-1.38353e-05" stroke="#515151" stroke-width="3.6137" stroke-miterlimit="10"/>
<path d="M1400 568H-1.38353e-05" stroke="#515151" stroke-width="3.6137" stroke-miterlimit="10"/>
<g opacity="0.15">
<path d="M1400 598L2.39618e-05 598" stroke="#263239" stroke-width="3.6137" stroke-miterlimit="10" stroke-dasharray="44.03 44.03"/>
</g>
<path d="M1223.79 641.604C1223.79 641.693 1233.17 641.763 1244.73 641.763C1256.29 641.763 1265.67 641.693 1265.67 641.604C1265.67 641.514 1256.3 641.444 1244.73 641.444C1233.16 641.444 1223.79 641.514 1223.79 641.604Z" fill="#1D1D1B"/>
<path d="M1180.76 637.196C1180.76 637.286 1195.87 637.359 1214.5 637.359C1233.13 637.359 1248.23 637.286 1248.23 637.196C1248.23 637.107 1233.13 637.037 1214.5 637.037C1195.86 637.037 1180.76 637.107 1180.76 637.196Z" fill="#1D1D1B"/>
<path d="M971.898 641.604C971.898 641.693 978.539 641.763 986.732 641.763C994.924 641.763 1001.57 641.693 1001.57 641.604C1001.57 641.514 994.928 641.444 986.732 641.444C978.535 641.444 971.898 641.514 971.898 641.604Z" fill="#1D1D1B"/>
<path d="M950.454 637.196C950.454 637.286 958.268 637.359 967.905 637.359C977.541 637.359 985.361 637.286 985.361 637.196C985.361 637.107 977.547 637.037 967.905 637.037C958.262 637.037 950.454 637.107 950.454 637.196Z" fill="#1D1D1B"/>
<path d="M848.261 604.593H851.33C852.353 604.593 853.184 604.911 853.184 605.284V610.491C853.184 610.94 852.206 611.304 851.001 611.304H849.22V611.622C849.771 612.518 851.569 614.468 856.801 614.538C859.988 614.583 863.99 614.592 866.47 614.592V584.854C866.307 584.854 866.47 577.241 866.47 573.927L873.824 570.661H931.803C931.695 570.76 931.602 570.858 931.484 570.957H934.553C938.619 567.277 948.386 564.708 959.699 564.769C970.741 564.826 980.122 567.372 984.077 570.957H988.22C988.121 570.858 988.032 570.756 987.927 570.661H1141.81C1141.7 570.76 1141.6 570.858 1141.51 570.957H1145.11C1149.17 567.277 1158.94 564.708 1170.25 564.769C1181.29 564.826 1190.68 567.372 1194.63 570.957H1198.23C1198.14 570.858 1198.05 570.756 1197.94 570.661H1237.3L1278.62 573.274L1278.53 574.931H1278.62L1278.21 581.212C1278.16 583.369 1278.08 585.517 1277.85 587.617L1265.04 615.456C1264.96 616.868 1261.88 618.005 1258.1 618.005L1236.72 619.21L1234.38 620.003C1232.81 620.493 1231.18 620.73 1229.54 620.708H1199.17C1197.4 620.74 1195.64 620.458 1193.97 619.873L1192.46 619.28L1127.85 619.385V619.446H1091.1L1035.95 619.535L1034.38 620.536C1033.18 621.294 1031 621.759 1028.64 621.759H917.829C915.863 621.759 914.005 621.412 912.829 620.826L910.372 619.608L874.513 619.576C870.689 619.576 866.457 617.983 866.457 616.571V616.183H858.2C852.145 616.183 846.805 614.363 846.68 612.116H846.393V605.294C846.406 604.905 847.238 604.593 848.261 604.593Z" fill="#F5F4F5"/>
<path d="M1272.62 590.348C1272.62 590.348 1240.84 602.722 1234.66 602.19C1228.47 601.658 1201.78 600.734 1201.78 600.734L1175.8 610.476C1175.8 610.476 1155.05 610.53 1149.8 604.883C1144.56 599.236 1143.46 598.828 1143.46 598.828H981.473L954.683 609.507C954.683 609.507 932.902 604.408 927.778 600.412H873.862V594.07C873.862 594.07 1184.9 578.092 1186.11 577.181C1187.32 576.27 1272.62 590.348 1272.62 590.348Z" fill="#E0E0E0"/>
<path d="M1146.73 547.781H1216.72V593.249H1146.73V547.781Z" fill="#9E3443"/>
<path opacity="0.3" d="M1146.73 547.781H1216.72V593.249H1146.73V547.781Z" fill="#9E3443"/>
<path d="M927.663 547.781H997.662V593.249H927.663V547.781Z" fill="#9E3443"/>
<path opacity="0.3" d="M927.663 547.781H997.662V593.249H927.663V547.781Z" fill="#9E3443"/>
<path d="M856.916 467.375H867.926V471.804C867.926 471.804 860.67 471.753 855.45 471.945C848.385 472.209 847.346 481.301 847.346 481.301L844.94 481.326V478.914C844.924 472.553 850.558 467.375 856.916 467.375Z" fill="#E33443"/>
<path d="M847.576 478.773V480.911H849.427C850.028 480.911 850.604 481.15 851.029 481.575C851.454 482 851.693 482.576 851.693 483.177V497.667C851.693 498.174 851.491 498.66 851.133 499.019C850.774 499.377 850.288 499.579 849.781 499.579H846.594C846.087 499.579 845.601 499.377 845.242 499.019C844.884 498.66 844.682 498.174 844.682 497.667V478.684L847.576 478.773Z" fill="#E33443"/>
<path d="M847.572 488.948C847.668 488.948 847.744 486.959 847.744 484.506C847.744 482.052 847.668 480.063 847.572 480.063C847.477 480.063 847.397 482.052 847.397 484.506C847.397 486.959 847.474 488.948 847.572 488.948Z" fill="#E33443"/>
<path d="M911.109 457.84L913.658 454.446C914.266 453.644 915.051 452.993 915.953 452.546C916.855 452.1 917.849 451.868 918.855 451.871H1033.95C1035.15 451.871 1036.33 452.185 1037.38 452.781C1038.42 453.377 1039.29 454.236 1039.9 455.271L1041.54 458.053L1283.98 459.114C1285.87 459.122 1287.69 459.868 1289.03 461.194C1290.38 462.521 1291.15 464.321 1291.19 466.211L1293.61 586.795L1250.69 594.07H1209.8C1211.79 589.169 1212.52 583.844 1211.92 578.586C1210.25 563.628 1197.92 551.818 1182.9 550.779C1177.56 550.397 1172.21 551.382 1167.36 553.642C1162.5 555.902 1158.31 559.362 1155.16 563.695C1152.02 568.028 1150.03 573.091 1149.39 578.406C1148.74 583.721 1149.46 589.112 1151.48 594.07H991.677C993.675 589.169 994.406 583.844 993.803 578.586C992.13 563.628 979.801 551.818 964.785 550.779C959.444 550.395 954.093 551.378 949.238 553.637C944.383 555.896 940.183 559.356 937.037 563.689C933.891 568.022 931.902 573.086 931.258 578.402C930.613 583.718 931.335 589.111 933.355 594.07H873.127L865.479 584.976V466.291C865.479 462.336 869.892 457.923 873.847 457.923L911.109 457.84Z" fill="#E33443"/>
<path d="M1282.79 474.981V530.318C1282.79 533.117 1281.68 535.802 1279.7 537.781C1277.72 539.76 1275.04 540.872 1272.24 540.872H1140.19V476.457L1282.79 474.981Z" fill="#232323"/>
<path d="M1277.95 479.314V510.464L1270.27 515.458H1213.07V479.369L1277.95 479.314Z" fill="#455A64"/>
<path d="M1207.89 520.811V479.314H1143.73V536.107L1154.84 524.996C1156.2 523.644 1157.8 522.572 1159.57 521.842C1161.34 521.112 1163.23 520.738 1165.14 520.741L1207.89 520.811Z" fill="#455A64"/>
<path opacity="0.2" d="M1201.78 520.802L1155.71 479.362L1143.73 479.314L1188.96 520.78L1201.78 520.802Z" fill="white"/>
<path d="M927.778 474.981H1059.43V540.872H927.778V474.981Z" fill="#232323"/>
<path d="M996.515 478.072H1056.3V537.026H996.515V478.072Z" fill="#455A64"/>
<path d="M931.583 478.072H991.365V537.026H931.583V478.072Z" fill="#455A64"/>
<path d="M1007.94 594.052C1007.94 594.052 1007.94 593.838 1007.95 593.433C1007.97 593.029 1007.95 592.423 1007.95 591.655C1007.95 590.091 1007.97 587.831 1007.99 584.925C1007.99 579.132 1008.03 570.862 1008.06 560.888L1007.92 561.034L1048.89 561.063L1048.72 560.888C1048.72 572.876 1048.72 584.195 1048.72 594.052L1048.87 593.899L1019.3 593.975L1010.91 594.017L1008.67 594.036H1008.1H1007.9C1007.96 594.04 1008.02 594.04 1008.08 594.036H1008.64L1010.84 594.055L1019.19 594.096L1048.87 594.173H1049.02V594.017C1049.02 584.16 1049.02 572.841 1049.04 560.853V560.681H1048.87L1007.9 560.709H1007.75V560.853C1007.78 570.862 1007.81 579.167 1007.83 584.982C1007.83 587.85 1007.86 590.122 1007.86 591.674C1007.86 592.433 1007.86 593.016 1007.88 593.427C1007.9 593.838 1007.94 594.052 1007.94 594.052Z" fill="#263239"/>
<path d="M1215.26 594.071C1215.27 593.994 1215.28 593.916 1215.28 593.838C1215.28 593.673 1215.28 593.446 1215.28 593.156C1215.28 592.538 1215.3 591.652 1215.31 590.515C1215.31 588.195 1215.34 584.846 1215.36 580.655C1215.36 572.236 1215.4 560.445 1215.42 546.876L1215.25 547.045H1230.42L1274.52 546.994L1287.89 546.937L1291.52 546.905H1292.47C1292.69 546.905 1292.79 546.886 1292.79 546.886C1292.79 546.886 1292.68 546.886 1292.47 546.867H1291.52L1287.89 546.835L1274.52 546.778L1230.42 546.727H1215.25H1215.08V546.895C1215.11 560.461 1215.13 572.252 1215.14 580.674C1215.17 584.865 1215.18 588.214 1215.19 590.534C1215.19 591.671 1215.21 592.557 1215.22 593.176C1215.22 593.466 1215.22 593.692 1215.24 593.858C1215.24 593.929 1215.25 594.001 1215.26 594.071Z" fill="#263239"/>
<path d="M1248.94 547.79C1248.84 547.79 1248.76 558.147 1248.76 570.916C1248.76 583.685 1248.84 594.045 1248.94 594.045C1249.04 594.045 1249.11 583.694 1249.11 570.916C1249.11 558.137 1249.03 547.79 1248.94 547.79Z" fill="#263239"/>
<path d="M1281.5 547.232C1281.4 547.232 1281.33 556.518 1281.33 567.971C1281.33 579.424 1281.4 588.71 1281.5 588.71C1281.6 588.71 1281.67 579.427 1281.67 567.971C1281.67 556.515 1281.6 547.232 1281.5 547.232Z" fill="#263239"/>
<path d="M1219.9 583.927C1219.9 583.878 1219.9 583.829 1219.9 583.781C1219.9 583.672 1219.9 583.538 1219.9 583.363C1219.9 582.984 1219.9 582.448 1219.92 581.77C1219.92 580.355 1219.94 578.315 1219.96 575.731C1219.98 570.546 1220 563.188 1220.03 554.415L1219.88 554.568L1245.52 554.587L1245.35 554.418V562.427C1245.35 565.042 1245.35 567.591 1245.35 570.075C1245.35 575.033 1245.35 579.692 1245.37 583.934L1245.52 583.787L1226.95 583.863L1221.74 583.902H1220.36C1220.04 583.902 1219.88 583.918 1219.88 583.918C1219.88 583.918 1220.02 583.918 1220.33 583.918L1221.68 583.937L1226.86 583.975L1245.52 584.048H1245.66V583.898C1245.66 579.657 1245.66 574.998 1245.68 570.04C1245.68 567.556 1245.68 565.007 1245.68 562.392V554.383C1245.84 554.536 1245.47 554.167 1245.51 554.205L1219.87 554.224H1219.71V554.38C1219.74 563.195 1219.77 570.588 1219.79 575.795C1219.81 578.363 1219.82 580.393 1219.83 581.798C1219.83 582.474 1219.83 583 1219.85 583.373C1219.85 583.538 1219.85 583.669 1219.85 583.774C1219.86 583.827 1219.87 583.879 1219.9 583.927Z" fill="#263239"/>
<path d="M1242.41 554.402C1242.32 554.402 1242.24 561.015 1242.24 569.166C1242.24 577.318 1242.32 583.927 1242.41 583.927C1242.51 583.927 1242.59 577.321 1242.59 569.166C1242.59 561.012 1242.51 554.402 1242.41 554.402Z" fill="#263239"/>
<path d="M1238.53 554.402C1238.44 554.402 1238.36 561.015 1238.36 569.166C1238.36 577.318 1238.44 583.927 1238.53 583.927C1238.63 583.927 1238.71 577.321 1238.71 569.166C1238.71 561.012 1238.63 554.402 1238.53 554.402Z" fill="#263239"/>
<path d="M1234.66 554.402C1234.56 554.402 1234.48 561.015 1234.48 569.166C1234.48 577.318 1234.56 583.927 1234.66 583.927C1234.75 583.927 1234.83 577.321 1234.83 569.166C1234.83 561.012 1234.75 554.402 1234.66 554.402Z" fill="#263239"/>
<path d="M1230.78 554.402C1230.68 554.402 1230.61 561.015 1230.61 569.166C1230.61 577.318 1230.68 583.927 1230.78 583.927C1230.87 583.927 1230.95 577.321 1230.95 569.166C1230.95 561.012 1230.87 554.402 1230.78 554.402Z" fill="#263239"/>
<path d="M1226.9 554.402C1226.8 554.402 1226.73 561.015 1226.73 569.166C1226.73 577.318 1226.8 583.927 1226.9 583.927C1226.99 583.927 1227.07 577.321 1227.07 569.166C1227.07 561.012 1227.01 554.402 1226.9 554.402Z" fill="#263239"/>
<path d="M1223.02 554.402C1222.93 554.402 1222.85 561.015 1222.85 569.166C1222.85 577.318 1222.93 583.927 1223.02 583.927C1223.12 583.927 1223.2 577.321 1223.2 569.166C1223.2 561.012 1223.12 554.402 1223.02 554.402Z" fill="#263239"/>
<path d="M1065.1 482.894H1135.13V594.07H1065.1V482.894Z" fill="#232323"/>
<path d="M1104.59 490.51H1131.22V577.481H1104.59V490.51Z" fill="#455A64"/>
<path d="M1069.53 490.51H1096.16V577.481H1069.53V490.51Z" fill="#455A64"/>
<path d="M1100.23 482.894C1100.13 482.894 1100.05 507.6 1100.05 538.068C1100.05 568.536 1100.13 593.252 1100.23 593.252C1100.32 593.252 1100.4 568.548 1100.4 538.068C1100.4 507.587 1100.32 482.894 1100.23 482.894Z" fill="#455A64"/>
<path opacity="0.3" d="M1237.79 479.314L1276.84 511.213L1270.27 515.458L1227.93 479.314H1237.79Z" fill="white"/>
<path opacity="0.3" d="M1262.68 515.459L1220.43 479.363H1218.02L1260.13 515.459H1262.68Z" fill="white"/>
<path opacity="0.3" d="M1056.3 518.524L1011.38 478.117L999.395 478.072L1056.43 530.359L1056.3 518.524Z" fill="white"/>
<path opacity="0.3" d="M1131.22 544.005V555.719L1104.59 531.309V520.051L1131.22 544.005Z" fill="white"/>
<path opacity="0.3" d="M1096.16 557.946V569.664L1069.53 545.254V533.995L1096.16 557.946Z" fill="white"/>
<path opacity="0.2" d="M1084.75 490.51L1096.16 500.771V512.488L1072.19 490.51H1084.75Z" fill="white"/>
<path opacity="0.3" d="M1131.23 560.193L1131.27 564.03L1104.59 539.865V536.484L1131.23 560.193Z" fill="white"/>
<path d="M879.105 482.894H920.952V594.07H879.105V482.894Z" fill="#232323"/>
<path d="M883.681 490.51H917.042V577.481H883.681V490.51Z" fill="#455A64"/>
<path opacity="0.5" d="M883.681 490.51H896.606V560.088H883.681V490.51Z" fill="#232323"/>
<path opacity="0.3" d="M917.029 544.005V555.719L883.681 531.309V520.051L917.029 544.005Z" fill="white"/>
<path opacity="0.3" d="M917.042 560.193L917.096 564.03L883.681 539.865V536.484L917.042 560.193Z" fill="white"/>
<path opacity="0.2" d="M990.329 518.906L944.935 478.072H932.329L990.466 530.742L990.329 518.906Z" fill="white"/>
<path opacity="0.3" d="M991.365 537.347L933.995 484.072H931.583L988.812 537.347H991.365Z" fill="white"/>
<path d="M1143.22 483.483H1277.95V484.662H1143.22V483.483Z" fill="#263239"/>
<path d="M928.817 483.483H1057.45V484.662H928.817V483.483Z" fill="#263239"/>
<path d="M926.691 555.719H931.529C931.995 555.719 932.373 556.097 932.373 556.563V558.536C932.373 559.002 931.995 559.38 931.529 559.38H926.691C926.225 559.38 925.847 559.002 925.847 558.536V556.563C925.847 556.097 926.225 555.719 926.691 555.719Z" fill="#F3986E"/>
<path d="M998.745 577.471H1003.58C1004.05 577.471 1004.43 577.849 1004.43 578.315V580.288C1004.43 580.754 1004.05 581.132 1003.58 581.132H998.745C998.279 581.132 997.901 580.754 997.901 580.288V578.315C997.901 577.849 998.279 577.471 998.745 577.471Z" fill="white"/>
<path d="M1054.74 577.471H1059.58C1060.04 577.471 1060.42 577.849 1060.42 578.315V580.288C1060.42 580.754 1060.04 581.132 1059.58 581.132H1054.74C1054.27 581.132 1053.89 580.754 1053.89 580.288V578.315C1053.89 577.849 1054.27 577.471 1054.74 577.471Z" fill="#F3986E"/>
<path d="M1141.04 577.165H1145.88C1146.35 577.165 1146.73 577.543 1146.73 578.009V579.982C1146.73 580.448 1146.35 580.827 1145.88 580.827H1141.04C1140.58 580.827 1140.2 580.448 1140.2 579.982V578.009C1140.2 577.543 1140.58 577.165 1141.04 577.165Z" fill="#F3986E"/>
<path d="M1273.47 580.827H1278.31C1278.77 580.827 1279.15 581.205 1279.15 581.672V583.644C1279.15 584.111 1278.77 584.489 1278.31 584.489H1273.47C1273 584.489 1272.62 584.111 1272.62 583.644V581.672C1272.62 581.205 1273 580.827 1273.47 580.827Z" fill="#F3986E"/>
<path opacity="0.5" d="M904.885 490.51V531.701H917.029L917.045 490.51H904.885Z" fill="#232323"/>
<path d="M865.491 472.187H873.859V554.562H865.491V472.187Z" fill="#232323"/>
<path d="M865.494 547.542C865.494 547.542 869.745 548.629 870.832 544.821C871.919 541.013 870.832 474.981 870.832 474.981H865.494V547.542Z" fill="#455A64"/>
<path opacity="0.3" d="M871.316 516.6L865.494 512.285V504.599C865.494 503.961 871.316 507.926 871.316 507.926V516.6Z" fill="white"/>
<path opacity="0.2" d="M1024.05 452.19H1025.55V455.766H1024.05V452.19Z" fill="black"/>
<path opacity="0.2" d="M1021.2 452.19H1022.7V455.766H1021.2V452.19Z" fill="black"/>
<path opacity="0.2" d="M1018.35 452.19H1019.85V455.766H1018.35V452.19Z" fill="black"/>
<path opacity="0.2" d="M1015.5 452.19H1017V455.766H1015.5V452.19Z" fill="black"/>
<path opacity="0.2" d="M1012.65 452.19H1014.15V455.766H1012.65V452.19Z" fill="black"/>
<path opacity="0.2" d="M1009.8 452.19H1011.3V455.766H1009.8V452.19Z" fill="black"/>
<path opacity="0.2" d="M1006.95 452.19H1008.45V455.766H1006.95V452.19Z" fill="black"/>
<path opacity="0.2" d="M1004.1 452.19H1005.6V455.766H1004.1V452.19Z" fill="black"/>
<path opacity="0.2" d="M1001.25 452.19H1002.74V455.766H1001.25V452.19Z" fill="black"/>
<path opacity="0.2" d="M998.395 452.19H999.893V455.766H998.395V452.19Z" fill="black"/>
<path opacity="0.2" d="M995.546 452.19H997.043V455.766H995.546V452.19Z" fill="black"/>
<path opacity="0.2" d="M992.694 452.19H994.191V455.766H992.694V452.19Z" fill="black"/>
<path opacity="0.2" d="M989.845 452.19H991.343V455.766H989.845V452.19Z" fill="black"/>
<path opacity="0.2" d="M986.993 452.19H988.491V455.766H986.993V452.19Z" fill="black"/>
<path d="M910.869 457.84C910.869 457.936 940.187 458.015 976.308 458.015C1012.43 458.015 1041.75 457.936 1041.75 457.84C1041.75 457.744 1012.46 457.668 976.308 457.668C940.158 457.668 910.869 457.744 910.869 457.84Z" fill="black"/>
<path d="M865.494 470.829C865.494 470.924 960.818 471.004 1078.36 471.004C1195.91 471.004 1291.27 470.924 1291.27 470.829C1291.27 470.733 1195.97 470.653 1078.36 470.653C960.763 470.653 865.494 470.733 865.494 470.829Z" fill="#263239"/>
<path d="M1179.05 608.617C1165.68 608.617 1154.84 597.774 1154.84 584.398C1154.84 571.023 1165.68 560.18 1179.05 560.18C1192.43 560.18 1203.27 571.023 1203.27 584.398C1203.27 597.774 1192.43 608.617 1179.05 608.617Z" fill="#455A64"/>
<path d="M868.687 569.103H873.123V576.773H868.687V569.103Z" fill="#F3986E"/>
<path d="M865.478 569.103H868.687V576.773H865.478V569.103Z" fill="white"/>
<path d="M1062.51 458.289H1136.99V478.072H1062.51V458.289Z" fill="#263239"/>
<path d="M1065.1 460.412H1134.67V475.95H1065.1V460.412Z" fill="#232323"/>
<path d="M1152.87 583.803C1152.21 568.456 1164.12 555.483 1179.47 554.826C1194.81 554.169 1207.79 566.078 1208.44 581.425C1209.1 596.772 1197.19 609.745 1181.85 610.402C1166.5 611.058 1153.53 599.15 1152.87 583.803Z" fill="#232323"/>
<path d="M1208.46 582.188C1208.46 582.213 1208.46 582.235 1208.46 582.261C1208.53 585.923 1207.87 589.563 1206.53 592.972C1205.19 596.381 1203.19 599.491 1200.64 602.125C1198.1 604.758 1195.05 606.862 1191.69 608.316C1188.33 609.771 1184.71 610.547 1181.05 610.599C1177.39 610.652 1173.75 609.981 1170.35 608.624C1166.95 607.268 1163.84 605.252 1161.22 602.694C1158.6 600.135 1156.51 597.084 1155.07 593.715C1153.63 590.347 1152.87 586.727 1152.84 583.064C1152.84 583.038 1152.84 583.016 1152.84 582.991L1208.46 582.188Z" fill="#232323"/>
<path d="M1200.18 582.379C1200.23 586.241 1199.14 590.033 1197.04 593.275C1194.94 596.518 1191.93 599.065 1188.38 600.595C1184.84 602.125 1180.92 602.568 1177.12 601.87C1173.32 601.171 1169.81 599.362 1167.04 596.67C1164.27 593.979 1162.36 590.526 1161.55 586.749C1160.75 582.972 1161.08 579.04 1162.5 575.451C1163.93 571.861 1166.39 568.776 1169.57 566.584C1172.75 564.392 1176.51 563.193 1180.37 563.138C1185.55 563.064 1190.54 565.049 1194.26 568.657C1197.97 572.266 1200.1 577.201 1200.18 582.379Z" fill="#FBFBFB"/>
<path d="M1180.37 563.138C1185.55 563.064 1190.54 565.049 1194.26 568.657C1197.97 572.266 1200.1 577.201 1200.18 582.379L1161.13 582.943C1161.09 580.379 1161.56 577.833 1162.5 575.449C1163.45 573.066 1164.86 570.893 1166.65 569.054C1168.43 567.215 1170.56 565.746 1172.92 564.731C1175.27 563.716 1177.81 563.174 1180.37 563.138Z" fill="#E0E0E0"/>
<path d="M1192.54 582.491C1192.58 584.842 1191.91 587.151 1190.63 589.125C1189.35 591.099 1187.52 592.649 1185.36 593.58C1183.2 594.511 1180.81 594.78 1178.5 594.354C1176.18 593.928 1174.05 592.826 1172.36 591.186C1170.68 589.547 1169.51 587.444 1169.02 585.144C1168.53 582.844 1168.73 580.45 1169.6 578.264C1170.47 576.079 1171.97 574.2 1173.9 572.865C1175.84 571.531 1178.13 570.8 1180.48 570.767C1183.64 570.723 1186.68 571.933 1188.94 574.131C1191.2 576.33 1192.5 579.337 1192.54 582.491Z" fill="#232323"/>
<path d="M960.755 610.428C945.408 609.79 933.483 596.831 934.121 581.483C934.759 566.136 947.718 554.211 963.065 554.849C978.413 555.487 990.338 568.446 989.7 583.793C989.062 599.141 976.103 611.065 960.755 610.428Z" fill="#232323"/>
<path d="M989.753 582.188C989.754 582.212 989.754 582.236 989.753 582.261C989.822 585.923 989.168 589.563 987.826 592.972C986.485 596.381 984.484 599.491 981.937 602.125C979.391 604.758 976.349 606.862 972.987 608.316C969.625 609.771 966.009 610.547 962.346 610.599C958.683 610.652 955.046 609.981 951.643 608.624C948.241 607.268 945.139 605.252 942.518 602.694C939.896 600.135 937.806 597.084 936.367 593.715C934.928 590.347 934.168 586.727 934.132 583.064C934.134 583.039 934.134 583.015 934.132 582.991L989.753 582.188Z" fill="#232323"/>
<path d="M981.474 582.379C981.53 586.241 980.44 590.033 978.341 593.275C976.242 596.518 973.228 599.065 969.682 600.595C966.135 602.125 962.214 602.568 958.416 601.87C954.617 601.171 951.11 599.362 948.34 596.67C945.57 593.979 943.66 590.526 942.852 586.749C942.044 582.972 942.374 579.04 943.801 575.451C945.227 571.861 947.686 568.776 950.867 566.584C954.047 564.392 957.806 563.193 961.668 563.138C966.846 563.064 971.841 565.049 975.555 568.657C979.269 572.266 981.398 577.201 981.474 582.379Z" fill="#FBFBFB"/>
<path d="M961.668 563.138C966.846 563.064 971.841 565.049 975.555 568.657C979.269 572.266 981.398 577.201 981.473 582.379L942.424 582.943C942.387 580.379 942.855 577.833 943.802 575.449C944.749 573.066 946.157 570.893 947.944 569.054C949.731 567.215 951.863 565.746 954.217 564.731C956.572 563.716 959.104 563.174 961.668 563.138Z" fill="#E0E0E0"/>
<path d="M973.841 582.49C973.875 584.842 973.211 587.152 971.932 589.127C970.653 591.102 968.817 592.653 966.656 593.584C964.496 594.516 962.107 594.786 959.794 594.36C957.48 593.934 955.344 592.832 953.657 591.192C951.969 589.552 950.806 587.449 950.314 585.148C949.822 582.847 950.023 580.452 950.892 578.266C951.762 576.08 953.26 574.2 955.197 572.865C957.134 571.53 959.424 570.8 961.777 570.766C964.931 570.721 967.974 571.931 970.237 574.129C972.5 576.328 973.796 579.335 973.841 582.49Z" fill="#232323"/>
<path opacity="0.2" d="M1213.07 479.314H1277.95V481.144H1213.07V479.314Z" fill="black"/>
<path opacity="0.2" d="M1143.73 479.314H1207.87V481.144H1143.73V479.314Z" fill="black"/>
<path opacity="0.2" d="M1069.53 490.51H1131.22V492.339H1069.53V490.51Z" fill="black"/>
<path opacity="0.2" d="M931.586 478.072H1056.3V479.901H931.586V478.072Z" fill="black"/>
<path d="M1250.07 458.949L1247.65 456.718C1246.27 455.462 1244.48 454.765 1242.62 454.765H1211.07C1210.05 454.764 1209.05 454.969 1208.12 455.368C1207.19 455.767 1206.35 456.351 1205.65 457.085L1203.89 458.933L1250.07 458.949Z" fill="#E33443"/>
<path d="M1201.79 458.949C1201.79 459.045 1212.79 459.125 1226.37 459.125C1239.94 459.125 1250.95 459.045 1250.95 458.949C1250.95 458.854 1239.94 458.777 1226.37 458.777C1212.79 458.777 1201.79 458.854 1201.79 458.949Z" fill="#263239"/>
<path d="M1289.77 582.187H1293.61L1293.06 559.523H1287.02V579.44C1287.02 580.169 1287.31 580.867 1287.82 581.383C1288.34 581.898 1289.04 582.187 1289.77 582.187Z" fill="white"/>
<path d="M1292.8 546.879C1292.78 547.014 1292.77 547.151 1292.78 547.287C1292.78 547.59 1292.78 547.975 1292.78 548.45C1292.8 549.505 1292.82 550.955 1292.86 552.726C1292.9 556.378 1292.95 561.331 1293.01 566.837C1293.07 572.344 1293.15 577.353 1293.27 580.954C1293.33 582.761 1293.4 584.22 1293.46 585.231C1293.49 585.705 1293.52 586.088 1293.54 586.391C1293.54 586.527 1293.55 586.663 1293.59 586.795C1293.61 586.661 1293.62 586.524 1293.61 586.387C1293.61 586.085 1293.61 585.699 1293.61 585.224C1293.59 584.169 1293.56 582.72 1293.53 580.948C1293.49 577.296 1293.43 572.344 1293.37 566.834C1293.31 561.324 1293.24 556.318 1293.11 552.72C1293.05 550.913 1292.99 549.454 1292.93 548.444C1292.89 547.972 1292.87 547.586 1292.85 547.284C1292.85 547.147 1292.83 547.011 1292.8 546.879Z" fill="#263239"/>
<path d="M865.494 554.562C865.399 554.562 865.332 556.264 865.293 559.024C865.255 561.784 865.249 565.579 865.265 569.779C865.281 573.979 865.316 577.781 865.357 580.534C865.386 581.866 865.408 582.965 865.424 583.791C865.416 584.19 865.439 584.59 865.494 584.986C865.544 584.589 865.566 584.19 865.558 583.791C865.558 582.965 865.587 581.879 865.606 580.531C865.625 577.781 865.628 573.979 865.606 569.776C865.552 561.857 865.507 556.376 865.494 554.562Z" fill="#263239"/>
<path d="M1281.5 166C1250.3 166 1225 140.704 1225 109.5C1225 78.2959 1250.3 53 1281.5 53C1312.7 53 1338 78.2959 1338 109.5C1338 140.704 1312.7 166 1281.5 166Z" fill="#E33443"/>
<path opacity="0.9" d="M1281.5 166C1250.3 166 1225 140.704 1225 109.5C1225 78.2959 1250.3 53 1281.5 53C1312.7 53 1338 78.2959 1338 109.5C1338 140.704 1312.7 166 1281.5 166Z" fill="white"/>
<path d="M1232.56 121.14C1226.13 94.1554 1242.79 67.0686 1269.78 60.64C1296.76 54.2114 1323.85 70.8752 1330.28 97.8598C1336.71 124.844 1320.04 151.931 1293.06 158.36C1266.07 164.788 1238.99 148.125 1232.56 121.14Z" fill="#E33443"/>
<path opacity="0.6" d="M1232.56 121.14C1226.13 94.1554 1242.79 67.0686 1269.78 60.64C1296.76 54.2114 1323.85 70.8752 1330.28 97.8598C1336.71 124.844 1320.04 151.931 1293.06 158.36C1266.07 164.788 1238.99 148.125 1232.56 121.14Z" fill="white"/>
<path d="M1281.5 151C1258.58 151 1240 132.42 1240 109.5C1240 86.5802 1258.58 68 1281.5 68C1304.42 68 1323 86.5802 1323 109.5C1323 132.42 1304.42 151 1281.5 151Z" fill="#E33443"/>
<path opacity="0.3" d="M1281.5 151C1258.58 151 1240 132.42 1240 109.5C1240 86.5802 1258.58 68 1281.5 68C1304.42 68 1323 86.5802 1323 109.5C1323 132.42 1304.42 151 1281.5 151Z" fill="white"/>
<path d="M1268.73 140.48C1251.63 133.467 1243.45 113.92 1250.47 96.8208C1257.48 79.7215 1277.02 71.5449 1294.12 78.5579C1311.22 85.5708 1319.4 105.118 1312.39 122.217C1305.37 139.316 1285.83 147.493 1268.73 140.48Z" fill="#E33443"/>
</g>
<defs>
<clipPath id="clip0_326_7210">
<rect width="1400" height="665" fill="white" transform="matrix(-1 0 0 1 1400 0)"/>
</clipPath>
</defs>
</svg>
