<svg width="414" height="496" viewBox="0 0 414 496" fill="none" xmlns="http://www.w3.org/2000/svg">
<path opacity="0.03" d="M81.7992 143.36C81.7992 143.36 79.7245 136.842 87.4209 133.581C95.1174 130.321 107.571 135.064 106.979 138.322C106.388 141.58 100.461 144.841 104.607 145.138C108.754 145.435 111.423 139.211 120.016 142.175C128.61 145.138 118.536 148.99 120.611 148.99C122.685 148.99 128.315 147.51 133.351 148.99C138.386 150.471 133.351 153.14 114.387 154.612C95.4226 156.084 99.8664 152.243 92.7562 151.648C85.646 151.054 86.5321 154.326 71.4203 151.648C56.3085 148.971 61.6518 139.811 81.7992 143.36Z" fill="black"/>
<path d="M-172 494H665" stroke="#515151" stroke-width="3.03576" stroke-miterlimit="10"/>
<path d="M-172 442H665" stroke="#515151" stroke-width="3.03576" stroke-miterlimit="10"/>
<g opacity="0.15">
<path d="M-171.779 468.565L664.171 468.565" stroke="#263239" stroke-width="3.03576" stroke-miterlimit="10" stroke-dasharray="37 37"/>
</g>
<g clip-path="url(#clip0_413_5980)">
<path d="M196.374 464.901H192.93C191.783 464.901 190.853 465.248 190.853 465.677V471.513C190.853 472.016 191.947 472.426 193.297 472.426H195.298V472.761C194.68 473.767 192.662 475.945 186.796 476.031C183.21 476.081 178.736 476.091 175.954 476.091V442.745C176.135 442.745 175.969 434.199 175.954 430.492L167.709 426.827H102.692C102.811 426.936 102.917 427.048 103.027 427.162H99.5855C95.0293 423.037 84.0752 420.156 71.3902 420.225C59.0101 420.292 48.4917 423.146 44.0544 427.162H39.3993C39.5099 427.053 39.6105 426.941 39.7345 426.827H-132.779C-132.66 426.936 -132.554 427.048 -132.444 427.162H-136.501C-141.057 423.037 -152.011 420.156 -164.696 420.225C-177.076 420.292 -187.594 423.146 -192.032 427.162H-196.072C-195.961 427.053 -195.861 426.941 -195.737 426.827H-239.851L-286.183 429.758L-286.082 431.615H-286.183L-285.729 438.653C-285.665 441.069 -285.584 443.48 -285.323 445.833L-285.595 440.737L-285.323 445.831L-270.957 477.046C-270.873 478.63 -267.42 479.895 -263.177 479.907L-239.201 481.247L-236.584 482.14C-235.099 482.643 -233.162 482.926 -231.151 482.926H-197.104C-194.897 482.926 -192.787 482.591 -191.268 481.991L-189.577 481.321L-117.13 481.44V481.507H-75.9207L-14.0874 481.607L-12.3212 482.728C-10.9806 483.578 -8.54079 484.099 -5.90323 484.099H118.353C120.557 484.099 122.633 483.712 123.957 483.055L126.713 481.688L166.92 481.654C171.192 481.654 175.954 479.876 175.954 478.283V477.847H185.214C191.997 477.847 197.991 475.808 198.13 473.288H198.45V465.68C198.45 465.248 197.52 464.901 196.374 464.901Z" fill="#F5F4F5"/>
<path d="M-279.466 448.923C-279.466 448.923 -243.821 462.797 -236.89 462.197C-229.959 461.598 -200.025 460.567 -200.025 460.567L-170.894 471.489C-170.894 471.489 -147.619 471.551 -141.737 465.217C-135.855 458.883 -134.629 458.432 -134.629 458.432H47.0071L77.0491 470.405C77.0491 470.405 101.472 464.694 107.212 460.207H167.658V453.095C167.658 453.095 -181.101 435.182 -182.458 434.145C-183.816 433.107 -279.466 448.923 -279.466 448.923Z" fill="#E0E0E0"/>
<path d="M107.339 452.181H28.8508L28.8508 401.197H107.339V452.181Z" fill="#9E3443"/>
<path opacity="0.3" d="M107.339 452.181H28.8508L28.8508 401.197H107.339V452.181Z" fill="#9E3443"/>
<path d="M186.667 311.036H174.32V316.003C174.32 316.003 182.459 315.946 188.311 316.17C196.233 316.465 197.4 326.659 197.4 326.659L200.097 326.689V323.974C200.097 316.844 193.798 311.036 186.667 311.036Z" fill="#E33443"/>
<path d="M197.141 323.817V326.216H195.064C194.39 326.216 193.744 326.484 193.267 326.96C192.791 327.437 192.523 328.083 192.523 328.757V345.011C192.523 345.583 192.751 346.132 193.155 346.537C193.56 346.942 194.109 347.169 194.682 347.169H198.259C198.832 347.169 199.381 346.942 199.785 346.537C200.19 346.132 200.417 345.583 200.417 345.011V323.729L197.141 323.817Z" fill="#E33443"/>
<path d="M197.15 335.228C197.043 335.228 196.956 332.998 196.956 330.248C196.956 327.498 197.043 325.265 197.15 325.265C197.257 325.265 197.346 327.495 197.346 330.248C197.346 333.001 197.254 335.228 197.15 335.228Z" fill="#E33443"/>
<path d="M125.901 300.347L123.039 296.539C122.36 295.637 121.481 294.905 120.471 294.401C119.461 293.896 118.348 293.634 117.219 293.634H-11.8437C-13.1904 293.633 -14.5141 293.983 -15.6839 294.651C-16.8536 295.318 -17.8288 296.279 -18.513 297.439L-20.3562 300.561L-292.21 301.749C-294.329 301.759 -296.361 302.597 -297.871 304.083C-299.381 305.57 -300.25 307.588 -300.292 309.707L-302.988 444.936L-254.864 453.094H-209.04C-211.279 447.598 -212.098 441.627 -211.421 435.732C-209.545 418.958 -195.72 405.737 -178.881 404.552C-158.233 403.107 -141.034 419.43 -141.034 439.77C-141.03 444.338 -141.916 448.864 -143.643 453.094H35.5586C33.3196 447.599 32.5007 441.628 33.1774 435.733C35.0542 418.958 48.877 405.738 65.7162 404.552C86.3658 403.107 103.565 419.43 103.565 439.77C103.569 444.338 102.682 448.864 100.956 453.094H168.487L177.041 442.904V309.821C177.041 305.385 172.093 300.437 167.657 300.437L125.901 300.347Z" fill="#E33443"/>
<path d="M-40.4109 319.565H107.21V393.449H-40.4109V319.565Z" fill="#232323"/>
<path d="M-36.8953 323.03H30.136V389.133H-36.8953V323.03Z" fill="#455A64"/>
<path d="M35.9105 323.03H102.942V389.133H35.9105V323.03Z" fill="#455A64"/>
<path d="M17.3303 453.08C17.3303 453.08 17.3186 452.837 17.3136 452.385C17.3085 451.933 17.3018 451.252 17.2951 450.391C17.2851 448.637 17.27 446.089 17.2532 442.85C17.2331 436.355 17.203 427.08 17.1678 415.898L17.3354 416.066L-28.6023 416.098L-28.4063 415.902C-28.4146 429.342 -28.4213 442.043 -28.428 453.089L-28.5956 452.921L4.56818 453.008L13.9756 453.055L16.4757 453.075L17.1225 453.085C17.1975 453.085 17.2725 453.088 17.3471 453.096C17.2793 453.104 17.2109 453.107 17.1427 453.106L16.5143 453.116L14.0493 453.137L4.68044 453.183L-28.5956 453.27H-28.7632V453.102C-28.7632 442.043 -28.7766 429.356 -28.7833 415.915V415.721H-28.5839L17.3538 415.753H17.5214V415.92C17.4862 427.147 17.456 436.454 17.4359 442.974C17.4191 446.202 17.4041 448.739 17.394 450.483C17.394 451.333 17.3806 451.991 17.3756 452.447C17.3706 452.903 17.3303 453.08 17.3303 453.08Z" fill="#263239"/>
<path opacity="0.3" d="M-36.8952 368.39L13.4713 323.082L26.9071 323.03L-37.0477 381.661L-36.8952 368.39Z" fill="white"/>
<path d="M161.784 453.101H114.863L114.863 328.438H161.784V453.101Z" fill="#232323"/>
<path opacity="0.2" d="M37.0702 368.819L87.9713 323.03H102.106L36.9194 382.089L37.0702 368.819Z" fill="white"/>
<path opacity="0.3" d="M35.9105 389.496L100.239 329.761H102.942L38.7709 389.496H35.9105Z" fill="white"/>
<path d="M106.047 330.422H-38.194V329.098H106.047V330.422Z" fill="#263239"/>
<path d="M108.931 414.204H102.503C102.258 414.204 102.059 414.005 102.059 413.76V410.541C102.059 410.296 102.258 410.097 102.503 410.097H108.931C109.176 410.097 109.375 410.296 109.375 410.541V413.76C109.375 414.005 109.176 414.204 108.931 414.204Z" fill="#F3986E"/>
<path d="M28.1354 438.594H21.7074C21.4621 438.594 21.2633 438.395 21.2633 438.15V434.931C21.2633 434.685 21.4621 434.487 21.7074 434.487H28.1354C28.3806 434.487 28.5794 434.685 28.5794 434.931V438.15C28.5794 438.395 28.3806 438.594 28.1354 438.594Z" fill="white"/>
<path d="M167.666 316.434H177.05V408.802H167.666V316.434Z" fill="#232323"/>
<path d="M177.041 400.927C177.041 400.927 172.274 402.147 171.054 397.876C169.834 393.605 171.054 319.565 171.054 319.565H177.041V400.927Z" fill="#455A64"/>
<path opacity="0.3" d="M170.52 366.231L177.055 361.394V352.774C177.055 352.065 170.52 356.507 170.52 356.507V366.231Z" fill="white"/>
<path opacity="0.2" d="M2.45179 298.018H0.774414L0.774414 294.009H2.45179L2.45179 298.018Z" fill="black"/>
<path opacity="0.2" d="M5.64735 298.018H3.96997L3.96997 294.009H5.64735V298.018Z" fill="black"/>
<path opacity="0.2" d="M8.84468 298.018H7.1673L7.1673 294.009H8.84468V298.018Z" fill="black"/>
<path opacity="0.2" d="M12.0418 298.018H10.3644V294.009H12.0418V298.018Z" fill="black"/>
<path opacity="0.2" d="M15.239 298.018H13.5616V294.009H15.239V298.018Z" fill="black"/>
<path opacity="0.2" d="M18.4347 298.018H16.7573V294.009H18.4347V298.018Z" fill="black"/>
<path opacity="0.2" d="M21.6302 298.018H19.9528V294.009H21.6302V298.018Z" fill="black"/>
<path opacity="0.2" d="M24.8275 298.018H23.1501V294.009H24.8275V298.018Z" fill="black"/>
<path opacity="0.2" d="M28.0231 298.018H26.3457V294.009H28.0231V298.018Z" fill="black"/>
<path opacity="0.2" d="M31.2203 298.018H29.543V294.009H31.2203V298.018Z" fill="black"/>
<path opacity="0.2" d="M34.4176 298.018H32.7402V294.009H34.4176V298.018Z" fill="black"/>
<path opacity="0.2" d="M37.6148 298.018H35.9374V294.009H37.6148V298.018Z" fill="black"/>
<path opacity="0.2" d="M40.8103 298.018H39.1329V294.009H40.8103V298.018Z" fill="black"/>
<path d="M126.169 300.346C126.169 300.454 93.3134 300.541 52.7949 300.541C12.2764 300.541 -20.5874 300.454 -20.5874 300.346C-20.5874 300.239 12.2563 300.15 52.7949 300.15C93.3335 300.15 126.169 300.239 126.169 300.346Z" fill="black"/>
<path d="M177.041 314.91C177.041 315.019 70.1551 315.106 -61.6656 315.106C-193.53 315.106 -300.394 315.019 -300.394 314.91C-300.394 314.801 -193.53 314.716 -61.6656 314.716C70.1635 314.716 177.041 314.803 177.041 314.91Z" fill="#263239"/>
<path d="M173.467 433.704H168.492V425.104H173.467V433.704Z" fill="#F3986E"/>
<path d="M177.067 433.704H173.469V425.104H177.067V433.704Z" fill="white"/>
<path d="M37.7179 441.619C37.0027 424.41 50.3735 409.88 67.5824 409.164C84.7914 408.449 99.3218 421.82 100.037 439.029C100.752 456.238 87.3815 470.768 70.1726 471.484C52.9636 472.199 38.4332 458.828 37.7179 441.619Z" fill="#232323"/>
<path d="M37.7169 439.776C37.7169 439.803 37.7169 439.83 37.7169 439.857C37.4672 457.08 51.2281 471.243 68.4509 471.491C85.6738 471.739 99.8352 457.98 100.085 440.757C100.085 440.73 100.085 440.703 100.085 440.676L37.7169 439.776Z" fill="#232323"/>
<path d="M47.007 439.992C46.9445 444.322 48.1674 448.573 50.5209 452.208C52.8744 455.843 56.253 458.698 60.2293 460.413C64.2056 462.127 68.6011 462.625 72.86 461.841C77.1189 461.058 81.0499 459.029 84.1558 456.012C87.2618 452.995 89.4032 449.124 90.3094 444.89C91.2156 440.655 90.8458 436.247 89.2467 432.223C87.6477 428.199 84.8913 424.739 81.326 422.281C77.7607 419.823 73.5467 418.478 69.2168 418.415C63.4105 418.332 57.8087 420.558 53.6436 424.604C49.4785 428.65 47.0913 434.185 47.007 439.992Z" fill="#FBFBFB"/>
<path d="M69.2118 418.415C63.4062 418.333 57.8055 420.559 53.6414 424.605C49.4773 428.652 47.0909 434.186 47.0071 439.992L90.7931 440.623C90.8346 437.748 90.3092 434.893 89.247 432.22C88.1848 429.548 86.6066 427.111 84.6026 425.049C82.5985 422.987 80.2078 421.34 77.567 420.201C74.9262 419.063 72.0871 418.456 69.2118 418.415Z" fill="#E0E0E0"/>
<path d="M55.5531 440.115C55.5153 442.753 56.2604 445.342 57.6942 447.556C59.128 449.77 61.1862 451.509 63.6084 452.554C66.0306 453.598 68.7081 453.901 71.3023 453.423C73.8964 452.946 76.2908 451.71 78.1827 449.872C80.0745 448.034 81.3787 445.676 81.9305 443.097C82.4823 440.517 82.2568 437.832 81.2826 435.381C80.3084 432.93 78.6292 430.822 76.4573 429.325C74.2855 427.828 71.7185 427.009 69.0811 426.971C67.3297 426.946 65.5904 427.265 63.9626 427.912C62.3349 428.559 60.8505 429.52 59.5942 430.741C58.338 431.961 57.3345 433.418 56.6411 435.026C55.9477 436.635 55.578 438.364 55.5531 440.115Z" fill="#232323"/>
<path opacity="0.2" d="M102.942 325.084H-36.8953V323.031H102.942V325.084Z" fill="black"/>
<path d="M177.041 408.802C177.147 408.792 177.222 410.709 177.264 413.792C177.306 416.875 177.316 421.142 177.3 425.857C177.283 430.573 177.239 434.83 177.192 437.922C177.164 439.417 177.139 440.649 177.12 441.575C177.093 442.438 177.068 442.916 177.041 442.916C177.015 442.916 176.99 442.438 176.968 441.575C176.954 440.649 176.938 439.415 176.917 437.92C176.892 434.834 176.891 430.571 176.917 425.855C176.986 416.978 177.033 410.833 177.041 408.802Z" fill="#263239"/>
<path d="M161.648 429.341H114.999V417.462H161.648V429.341Z" fill="#B1B1B1" stroke="#1D1D1B" stroke-width="0.16757" stroke-miterlimit="10"/>
<path d="M161.648 420.679H114.999V417.461H161.648V420.679Z" fill="white" stroke="#263239" stroke-width="0.16757" stroke-miterlimit="10"/>
<path d="M161.648 441.221H114.999V429.342H161.648V441.221Z" fill="#B1B1B1" stroke="#1D1D1B" stroke-width="0.16757" stroke-miterlimit="10"/>
<path d="M161.648 432.558H114.999V429.34H161.648V432.558Z" fill="white" stroke="#263239" stroke-width="0.16757" stroke-miterlimit="10"/>
<path d="M161.648 453.101H114.999V441.222H161.648V453.101Z" fill="#B1B1B1" stroke="#1D1D1B" stroke-width="0.16757" stroke-miterlimit="10"/>
<path d="M161.648 444.438H114.999V441.22H161.648V444.438Z" fill="white" stroke="#263239" stroke-width="0.16757" stroke-miterlimit="10"/>
<path d="M115.071 328.638V403.912H161.784V328.638H115.071ZM156.221 378.8C156.221 380.856 154.817 382.523 153.084 382.523H125.53C123.798 382.523 122.393 380.848 122.393 378.8V342.657C122.393 340.601 123.798 338.933 125.53 338.933H153.079C154.812 338.933 156.216 340.609 156.216 342.657L156.221 378.8Z" fill="#3C3C3B"/>
<path d="M129.354 352.138C129.354 352.138 129.651 354.474 129.502 355.179C129.353 355.885 129.205 356.959 129.205 356.959L134.144 360.037L134.663 357.108C134.663 357.108 132.216 355.29 131.067 354.289C130.37 353.682 129.789 352.953 129.354 352.138Z" fill="white" stroke="#212121" stroke-width="0.16757" stroke-miterlimit="10"/>
<path d="M138.921 349.432C138.921 349.432 139.884 349.767 139.291 350.102C138.698 350.437 136.548 350.251 136.548 350.251L136.622 349.695C136.622 349.695 138.333 349.209 138.921 349.432Z" fill="#6B3443" stroke="black" stroke-width="0.16757" stroke-miterlimit="10"/>
<path d="M129.242 352.879C129.242 352.879 129.688 354.512 130.281 355.142C130.874 355.772 133.026 358.034 134.582 357.774C136.139 357.514 136.622 355.735 136.882 354.733C137.141 353.731 137.217 351.581 137.141 351.174C137.066 350.766 136.771 349.208 136.771 349.208L128.945 349.913C128.945 349.913 128.909 351.916 129.242 352.879Z" fill="white" stroke="#212121" stroke-width="0.16757" stroke-miterlimit="10"/>
<path d="M129.954 351.324C129.954 351.324 129.658 350.432 128.949 350.915C128.24 351.397 128.171 352.59 128.691 352.954C129.056 353.185 129.482 353.301 129.914 353.289" fill="white"/>
<path d="M129.954 351.324C129.954 351.324 129.658 350.432 128.949 350.915C128.24 351.397 128.171 352.59 128.691 352.954C129.056 353.185 129.482 353.301 129.914 353.289" stroke="#212121" stroke-width="0.16757" stroke-miterlimit="10"/>
<path d="M128.538 350.878C128.538 350.878 132.987 349.395 137.215 349.765C137.215 349.765 137.438 347.615 136.808 346.687C136.178 345.758 133.803 344.723 132.433 344.833C131.062 344.944 128.502 346.946 128.093 347.615C127.684 348.284 128.538 350.878 128.538 350.878Z" fill="#E33443" stroke="black" stroke-width="0.16757" stroke-miterlimit="10"/>
<path d="M130.318 350.544C130.318 350.544 134.063 350.988 135.399 350.321C136.734 349.654 138.958 349.58 138.918 349.431C138.877 349.282 138.435 349.061 135.469 349.282C133.694 349.414 131.953 349.84 130.318 350.544Z" fill="#E33443" stroke="black" stroke-width="0.16757" stroke-miterlimit="10"/>
<path d="M126.181 390.711L123.072 403.912H145.382L141.837 390.82L126.181 390.711Z" fill="#9C9B9B" stroke="#212121" stroke-width="0.16757" stroke-miterlimit="10"/>
<path d="M120.235 371.455C120.235 371.455 121.437 387.602 122.146 389.02C122.854 390.438 124.381 390.657 125.363 390.657H147.018C147.018 390.657 148.762 387.22 148.709 386.565C148.655 385.91 147.945 386.02 147.509 386.02C147.073 386.02 133.326 385.911 133.326 385.911C133.326 385.911 130.226 385.332 129.539 384.175C128.852 383.019 128.634 383.621 128.145 381.22C127.655 378.818 126.507 372.875 125.907 371.511C125.308 370.146 121.435 368.183 120.235 371.455Z" fill="#232323" stroke="#1C1C1C" stroke-width="0.16757" stroke-miterlimit="10"/>
<path d="M149.749 378.354C149.749 378.354 153.865 378.467 154.642 378.69C155.42 378.913 155.983 379.729 156.015 381.175C156.047 382.621 155.458 384.253 155.274 384.694C155.09 385.134 152.01 392 151.343 393.964C150.676 395.928 150.304 399.415 150.267 399.527C150.23 399.639 150.379 399.564 149.674 399.638C148.968 399.711 147.115 399.008 147.004 398.934C146.894 398.86 147.784 394.52 148.117 391.896C148.451 389.272 149.081 385.592 149.267 385.111C149.453 384.63 149.823 383.702 149.823 383.702L149.749 378.354Z" fill="white" stroke="#212121" stroke-width="0.16757" stroke-miterlimit="10"/>
<path d="M149.823 383.694C149.823 383.694 151.009 383.359 151.453 382.805L149.823 383.694Z" fill="white"/>
<path d="M149.823 383.694C149.823 383.694 151.009 383.359 151.453 382.805" stroke="#212121" stroke-width="0.16757" stroke-miterlimit="10"/>
<path d="M140.293 378.317C140.293 378.317 144.002 377.909 146.671 377.981C149.341 378.053 150.157 378.092 150.157 378.092C150.157 378.092 150.304 382.727 149.711 384.396C149.118 386.065 149.041 386.251 149.041 386.251C149.041 386.251 135.58 385.991 134.653 385.991C133.726 385.991 131.804 386.212 130.648 385.398C129.492 384.584 129.091 383.84 129.091 383.84C129.091 383.84 129.277 381.43 130.767 380.725C132.257 380.019 135.549 377.795 136.848 377.611C138.147 377.427 140.293 378.317 140.293 378.317Z" fill="#D9D9D9" stroke="#212121" stroke-width="0.16757" stroke-miterlimit="10"/>
<path d="M132.95 382.842L133.544 383.026C133.544 383.026 133.989 382.619 134.249 382.768C134.448 382.915 134.613 383.105 134.73 383.323C134.793 383.29 134.863 383.273 134.934 383.273C135.006 383.273 135.076 383.29 135.139 383.323C135.317 383.404 135.504 383.466 135.695 383.509C135.695 383.509 136.176 383.583 137.808 383.695C139.44 383.807 145.632 383.619 146.338 383.509C147.043 383.398 147.857 383.286 148.348 383.435C148.839 383.584 149.498 383.398 149.498 383.398" fill="#D9D9D9"/>
<path d="M132.95 382.842L133.544 383.026C133.544 383.026 133.989 382.619 134.249 382.768C134.448 382.915 134.613 383.105 134.73 383.323C134.793 383.29 134.863 383.273 134.934 383.273C135.006 383.273 135.076 383.29 135.139 383.323C135.317 383.404 135.504 383.466 135.695 383.509C135.695 383.509 136.176 383.583 137.808 383.695C139.44 383.807 145.632 383.619 146.338 383.509C147.043 383.398 147.857 383.286 148.348 383.435C148.839 383.584 149.498 383.398 149.498 383.398" stroke="#212121" stroke-width="0.16757" stroke-miterlimit="10"/>
<path d="M137.698 378.91C137.698 378.91 136.325 383.099 135.399 384.324L137.698 378.91Z" fill="#D9D9D9"/>
<path d="M137.698 378.91C137.698 378.91 136.325 383.099 135.399 384.324" stroke="#212121" stroke-width="0.16757" stroke-miterlimit="10"/>
<path d="M135.509 360.63C135.509 360.63 133.433 359.184 131.208 357.625C128.982 356.067 129.354 355.919 128.428 356.662C127.501 357.404 126.388 359.628 125.757 361.706C125.125 363.783 124.607 365.858 124.793 367.527C124.979 369.196 127.166 378.687 127.278 379.726C127.39 380.765 127.538 381.876 128.093 382.878C128.41 383.465 128.921 383.923 129.539 384.175C129.539 384.175 130.948 383.84 133.619 382.285C135.228 381.338 136.558 379.981 137.473 378.354L138.215 378.799C138.215 378.799 140.032 378.763 140.216 378.763C140.401 378.763 141.032 378.206 141.292 377.501C141.552 376.795 141.478 374.795 139.549 369.38C137.621 363.966 135.99 361.706 135.878 361.407C135.769 361.142 135.645 360.882 135.509 360.63Z" fill="#E33443" stroke="black" stroke-width="0.16757" stroke-miterlimit="10"/>
<path d="M131.027 374.877C134.713 374.613 137.897 373.568 140.372 371.828C140.223 371.348 140.054 370.823 139.869 370.273C135.065 373.96 128.185 373.467 125.923 373.181C126.04 373.72 126.156 374.262 126.271 374.793C127.224 374.894 128.181 374.944 129.138 374.944C129.725 374.944 130.36 374.924 131.027 374.877Z" fill="#BD1622"/>
<path d="M140.739 373.071C136.047 376.997 129.101 376.615 126.593 376.32C126.718 376.907 126.834 377.45 126.928 377.927C127.64 377.998 128.557 378.06 129.609 378.06C130.202 378.06 130.837 378.04 131.503 377.993C135.345 377.72 138.638 376.597 141.145 374.727C141.049 374.249 140.915 373.7 140.739 373.071Z" fill="#BD1622"/>
<path d="M150.936 398.303C150.936 398.303 150.416 398.119 150.193 398.452C149.97 398.786 149.637 399.268 149.637 399.268C149.637 399.268 146.708 397.822 146.374 398.193C146.041 398.563 145.929 398.896 145.966 399.489C146.002 400.083 145.818 403.087 145.966 403.458C146.113 403.828 146.636 403.866 147.041 403.866C147.447 403.866 154.569 403.903 155.051 403.903C155.534 403.903 156.571 403.903 156.571 403.124C156.571 402.345 156.127 401.901 155.755 401.784C155.383 401.666 153.382 400.523 152.382 399.93C151.381 399.337 151.12 398.484 150.936 398.303Z" fill="#D9D9D9" stroke="#212121" stroke-width="0.16757" stroke-miterlimit="10"/>
<path d="M146.153 403.124H156.573" stroke="#212121" stroke-width="0.16757" stroke-miterlimit="10"/>
<path d="M124.379 365.836L123.017 361.312C123.017 361.312 124.544 357.821 123.562 354.713C122.58 351.604 120.944 351.058 119.743 352.094C118.541 353.129 118.057 361.091 118.057 362.121C118.057 363.152 118.548 365.012 119.039 368.34C119.53 371.668 120.73 375.042 122.802 374.94C124.875 374.838 126.348 373.194 125.748 370.848C125.148 368.502 124.379 365.836 124.379 365.836Z" fill="#9C9B9B" stroke="#212121" stroke-width="0.16757" stroke-miterlimit="10"/>
<path d="M128.689 387.056C128.689 387.056 128.416 386.511 127.598 383.892C126.78 381.273 125.361 380.402 123.888 381.111C122.415 381.819 122.144 384.221 123.235 387.276C123.235 387.276 123.943 390.711 125.852 391.421C127.761 392.132 146.09 391.421 146.09 391.421C146.09 391.421 146.689 391.366 147.236 390.057C147.782 388.748 147.509 389.293 147.509 389.293L130.38 388.693C130.38 388.693 129.116 388.638 128.689 387.056Z" fill="#9C9B9B" stroke="#212121" stroke-width="0.16757" stroke-miterlimit="10"/>
<path d="M148.855 371.928L152.935 371.476L155.591 373.354L158.505 369.792L156.239 368.496L154.88 363.501L148.855 371.928Z" fill="#303030" stroke="#1C1C1C" stroke-width="0.16757" stroke-miterlimit="10"/>
<path d="M158.505 368.43C158.505 368.43 153.776 372.899 154.036 373.223C154.295 373.546 158.31 380.607 158.31 380.607L161.509 372.867L160.254 371.669C160.254 371.669 160.318 369.337 160.318 369.079C160.318 368.821 159.606 367.847 158.505 368.43Z" fill="#303030" stroke="#1C1C1C" stroke-width="0.16757" stroke-miterlimit="10"/>
<path d="M161.583 369.7L154.507 377.638V403.903H161.583V369.7Z" fill="#9C9B9B" stroke="#212121" stroke-width="0.16757" stroke-miterlimit="10"/>
<path d="M146.327 375.834C146.189 375.835 146.054 375.792 145.942 375.712C145.797 375.61 145.698 375.456 145.667 375.281C145.635 375.107 145.674 374.928 145.774 374.782L156.202 360.078C156.311 359.95 156.463 359.868 156.63 359.847C156.796 359.826 156.964 359.868 157.101 359.965C157.237 360.062 157.333 360.207 157.368 360.371C157.403 360.534 157.376 360.705 157.292 360.85L146.864 375.553C146.803 375.638 146.722 375.709 146.629 375.757C146.536 375.806 146.433 375.833 146.327 375.834Z" fill="#303030" stroke="#1C1C1C" stroke-width="0.16757" stroke-miterlimit="10"/>
<path d="M136.845 370.976C138.192 370.683 139.539 370.388 140.887 370.091C142.497 369.736 144.137 369.481 145.701 368.945C146.988 368.504 148.668 367.71 149.49 366.562C150.046 365.784 150.267 365.451 150.75 365.376C151.232 365.3 152.09 365.821 152.826 365.969C153.562 366.116 153.939 366.414 154.012 366.785C154.086 367.155 153.642 367.49 153.568 367.638C153.495 367.785 153.531 368.343 153.122 368.75C152.856 369.007 152.541 369.209 152.196 369.344C152.196 369.344 152.159 369.53 151.861 369.64C151.562 369.751 149.85 369.826 149.562 369.826C149.273 369.826 147.226 371.383 145.186 372.31C143.147 373.236 135.99 376.315 135.248 376.611C134.505 376.908 133.802 376.574 133.617 376.055C133.433 375.535 132.133 372.829 132.133 372.829L136.583 370.53L136.845 370.976Z" fill="white" stroke="#212121" stroke-width="0.16757" stroke-miterlimit="10"/>
<path d="M129.391 359.888C129.391 359.888 127.203 362.373 127.499 364.153C127.796 365.932 131.467 373.536 131.467 373.536L137.667 370.755C137.667 370.755 135.405 363.078 133.959 361.076C132.513 359.073 130.244 358.961 129.391 359.888Z" fill="#D9D9D9" stroke="#212121" stroke-width="0.16757" stroke-miterlimit="10"/>
</g>
<g clip-path="url(#clip1_413_5980)">
<g opacity="0.06">
<path d="M324.969 306.462C325.398 306.462 325.817 306.335 326.173 306.097C326.529 305.859 326.807 305.52 326.971 305.124C327.135 304.728 327.178 304.292 327.094 303.872C327.011 303.452 326.804 303.066 326.501 302.763C326.198 302.46 325.812 302.253 325.392 302.17C324.972 302.086 324.536 302.129 324.14 302.293C323.744 302.457 323.406 302.735 323.167 303.091C322.929 303.447 322.802 303.866 322.802 304.295C322.802 304.87 323.031 305.421 323.437 305.827C323.843 306.234 324.394 306.462 324.969 306.462ZM324.969 304.136C325.011 304.137 325.05 304.154 325.079 304.184C325.108 304.214 325.124 304.253 325.124 304.295C325.124 304.463 324.814 304.463 324.814 304.295C324.814 304.253 324.831 304.214 324.859 304.184C324.888 304.154 324.928 304.137 324.969 304.136Z" fill="#1D1D1B"/>
<path d="M293.544 342.294H356.399L356.513 341.26C356.636 340.19 356.698 339.114 356.699 338.037C356.699 331.209 351.614 324.198 341.581 317.214C336.719 313.785 330.915 311.943 324.965 311.943C319.015 311.943 313.21 313.785 308.348 317.214C298.333 324.198 293.234 331.204 293.234 338.037C293.234 339.114 293.295 340.19 293.416 341.26L293.544 342.294ZM354.291 339.963H295.638C295.588 339.316 295.565 338.67 295.565 338.033C295.565 330.521 303.241 323.601 309.678 319.117C314.151 315.962 319.491 314.268 324.965 314.268C330.439 314.268 335.779 315.962 340.252 319.117C346.693 323.601 354.364 330.498 354.364 338.033C354.378 338.674 354.35 339.321 354.291 339.963Z" fill="#1D1D1B"/>
<path d="M292.488 347.988H357.455V338.597H292.488V347.988ZM355.133 345.667H294.809V340.905H355.133V345.667Z" fill="#1D1D1B"/>
<path d="M320.157 312.043H329.781L328.67 307.996H321.268L320.157 312.043Z" fill="#1D1D1B"/>
<path d="M315.514 313.545H334.425L329.162 309.589H320.776L315.514 313.545Z" fill="#1D1D1B"/>
<path d="M321.25 307.09H328.688L326.972 303.13H322.966L321.25 307.09Z" fill="#1D1D1B"/>
<path d="M322.957 308.788H326.986L328.661 304.769H321.277L322.957 308.788Z" fill="#1D1D1B"/>
<path d="M291.828 363.922H358.115V345.193H291.828V363.922ZM355.794 361.6H294.149V347.52H355.794V361.6Z" fill="#1D1D1B"/>
<path d="M320.572 310.113H329.371L327.769 307.172C327.602 306.864 327.354 306.606 327.053 306.427C326.752 306.247 326.408 306.153 326.057 306.152H323.881C323.53 306.153 323.186 306.247 322.885 306.427C322.584 306.606 322.337 306.864 322.169 307.172L320.572 310.113Z" fill="#1D1D1B"/>
<path d="M321.76 304.522H328.174V307.331H321.76V304.522Z" fill="#1D1D1B"/>
<path d="M320.79 307.545H329.153V310.354H320.79V307.545Z" fill="#1D1D1B"/>
<path d="M322.179 302.824H327.764V305.628H322.179V302.824Z" fill="#1D1D1B"/>
<path d="M326.189 308.229H328.843V311.907H326.189V308.229Z" fill="#1D1D1B"/>
<path d="M324.113 308.229H326.767V311.907H324.113V308.229Z" fill="#1D1D1B"/>
<path d="M322.033 308.229H324.687V311.907H322.033V308.229Z" fill="#1D1D1B"/>
<path d="M325.151 308.229H327.805V311.907H325.151V308.229Z" fill="#1D1D1B"/>
<path d="M323.075 308.229H325.729V311.907H323.075V308.229Z" fill="#1D1D1B"/>
<path d="M320.99 308.229H323.644V311.907H320.99V308.229Z" fill="#1D1D1B"/>
<path d="M317.326 317.579H332.617V310.851H317.326V317.579ZM330.291 315.257H319.647V313.172H330.291V315.257Z" fill="#1D1D1B"/>
<path d="M316.62 342.084H333.318L333.373 340.176C333.396 339.239 333.409 338.296 333.409 337.363C333.357 331.122 332.28 324.932 330.223 319.04C329.726 317.592 328.233 313.194 324.969 313.194C321.705 313.194 320.212 317.592 319.72 319.04C317.661 324.932 316.584 331.122 316.534 337.363C316.534 338.274 316.534 339.239 316.575 340.176L316.62 342.084ZM329.431 338.142H320.508C320.508 337.878 320.508 337.609 320.508 337.345C320.562 331.528 321.569 325.76 323.49 320.269C324.122 318.416 324.682 317.597 324.974 317.264C325.27 317.597 325.825 318.416 326.458 320.269C328.381 325.759 329.388 331.528 329.44 337.345C329.435 337.627 329.435 337.896 329.431 338.142Z" fill="#1D1D1B"/>
<path d="M310.229 342.084H339.724L339.824 340.227C339.874 339.275 339.901 338.315 339.901 337.363C339.901 331.24 337.707 324.912 333.378 318.566C330.978 315.052 328.074 313.194 324.978 313.194C321.883 313.194 318.978 315.052 316.584 318.566C312.254 324.912 310.056 331.24 310.056 337.363C310.056 338.315 310.083 339.275 310.133 340.227L310.229 342.084ZM335.913 338.142H314.03C314.03 337.878 314.03 337.609 314.03 337.345C314.03 332.019 315.996 326.419 319.88 320.742C321.5 318.361 323.267 317.1 324.978 317.1C326.69 317.1 328.456 318.361 330.082 320.742C333.96 326.428 335.927 332.019 335.927 337.345C335.918 337.627 335.918 337.896 335.913 338.142Z" fill="#1D1D1B"/>
<path d="M303.304 342.084H346.598L346.748 340.263C346.83 339.289 346.871 338.31 346.871 337.34C346.871 331.058 343.461 324.63 336.733 318.22C333.254 314.915 329.185 313.167 324.951 313.167C320.717 313.167 316.647 314.915 313.174 318.22C306.445 324.625 303.031 331.053 303.031 337.34C303.031 338.31 303.072 339.289 303.154 340.258L303.304 342.084ZM342.91 338.141H307.037C307.037 337.873 307.037 337.609 307.037 337.345C307.037 330.903 311.89 324.93 315.964 321.061C321.427 315.844 328.525 315.844 334.006 321.061C338.075 324.93 342.928 330.899 342.928 337.345C342.91 337.627 342.91 337.896 342.91 338.141Z" fill="#1D1D1B"/>
<path d="M296.13 342.084H353.813L354.009 340.34C354.123 339.352 354.181 338.358 354.182 337.363C354.182 330.962 349.516 324.466 340.32 318.061C335.829 314.891 330.466 313.188 324.969 313.188C319.472 313.188 314.11 314.891 309.619 318.061C300.423 324.466 295.761 330.962 295.761 337.363C295.76 338.358 295.817 339.352 295.929 340.34L296.13 342.084ZM350.194 338.142H299.753C299.753 337.873 299.753 337.609 299.753 337.345C299.753 331.053 306.373 325.117 311.931 321.248C315.752 318.553 320.314 317.106 324.99 317.106C329.666 317.106 334.227 318.553 338.048 321.248C343.602 325.117 350.226 331.053 350.226 337.345C350.194 337.627 350.194 337.891 350.194 338.142Z" fill="#1D1D1B"/>
<path d="M323.03 314.31H326.904V340.481H323.03V314.31Z" fill="#1D1D1B"/>
<path d="M347.959 359.839H353.777V351.28H347.959V359.839ZM351.455 357.517H350.28V353.62H351.455V357.517Z" fill="#1D1D1B"/>
<path d="M339.878 359.839H345.696V351.28H339.878V359.839ZM343.375 357.517H342.2V353.62H343.365L343.375 357.517Z" fill="#1D1D1B"/>
<path d="M332.44 359.839H338.24V351.28H332.44V359.839ZM335.936 357.517H334.761V353.62H335.936V357.517Z" fill="#1D1D1B"/>
<path d="M325.274 359.839H331.074V351.28H325.256L325.274 359.839ZM328.77 357.517H327.596V353.62H328.77V357.517Z" fill="#1D1D1B"/>
<path d="M318.751 359.839H324.569V351.28H318.751V359.839ZM322.247 357.517H321.059V353.62H322.233L322.247 357.517Z" fill="#1D1D1B"/>
<path d="M311.294 359.839H317.112V351.28H311.294V359.839ZM314.79 357.517H313.615V353.62H314.79V357.517Z" fill="#1D1D1B"/>
<path d="M303.837 359.839H309.655V351.28H303.837V359.839ZM307.329 357.517H306.159V353.62H307.329V357.517Z" fill="#1D1D1B"/>
<path d="M296.066 359.839H301.884V351.28H296.066V359.839ZM299.562 357.517H298.388V353.62H299.562V357.517Z" fill="#1D1D1B"/>
<path d="M361.885 364.008H374.322V353.752H361.889L361.885 364.008ZM371.991 361.687H364.206V356.074H371.991V361.687Z" fill="#1D1D1B"/>
<path d="M360.564 357.485H375.633V348.094H360.564V357.485ZM373.311 355.164H362.886V350.434H373.311V355.164Z" fill="#1D1D1B"/>
<path d="M276.591 364.173H289.023V353.916H276.591V364.173ZM286.702 361.851H278.917V356.238H286.702V361.851Z" fill="#1D1D1B"/>
<path d="M275.27 357.648H290.344V348.257H275.27V357.648ZM288.017 355.322H277.592V350.579H288.017V355.322Z" fill="#1D1D1B"/>
<path d="M275.535 351.121H290.057V342.417L289.724 342.08C288.828 341.15 287.754 340.41 286.565 339.904C285.377 339.399 284.099 339.139 282.807 339.139C281.516 339.139 280.237 339.399 279.049 339.904C277.86 340.41 276.786 341.15 275.89 342.08L275.557 342.417L275.535 351.121ZM287.712 348.799H277.856V343.386C279.2 342.151 280.959 341.466 282.784 341.466C284.609 341.466 286.368 342.151 287.712 343.386V348.799Z" fill="#1D1D1B"/>
<path d="M360.851 350.957H375.351V342.239L375.018 341.898C374.122 340.968 373.048 340.228 371.859 339.723C370.671 339.217 369.393 338.957 368.101 338.957C366.809 338.957 365.531 339.217 364.343 339.723C363.154 340.228 362.08 340.968 361.184 341.898L360.851 342.239V350.957ZM373.029 348.636H363.173V343.223C364.517 341.988 366.276 341.303 368.101 341.303C369.926 341.303 371.685 341.988 373.029 343.223V348.636Z" fill="#1D1D1B"/>
<path d="M265.187 419.862H385.065V361.919H265.187V419.862ZM382.744 417.54H267.509V364.241H382.744V417.54Z" fill="#1D1D1B"/>
<path d="M304.52 361.601V419.871H345.728V361.601H304.52ZM343.406 417.554H306.846V363.913H343.406V417.554Z" fill="#1D1D1B"/>
<path d="M338.025 379.428H335.554C335.781 379.888 335.899 380.394 335.9 380.907V381.749H338.221V380.907C338.222 380.408 338.156 379.91 338.025 379.428ZM308.503 365.771V381.768H310.843C310.843 381.69 310.843 381.622 310.843 381.545C310.86 380.809 311.057 380.088 311.417 379.446H310.834V368.092H339.724V379.446H339.405C339.766 380.087 339.964 380.808 339.978 381.545C339.978 381.622 339.978 381.69 339.978 381.768H342.05V365.771H308.503ZM312.869 379.428C312.738 379.91 312.673 380.408 312.673 380.907V381.749H314.995V380.907C314.995 380.394 315.114 379.888 315.341 379.428H312.869ZM323.44 379.428C323.663 379.889 323.78 380.395 323.781 380.907V381.749H327.113V380.907C327.115 380.395 327.231 379.889 327.455 379.428H323.44Z" fill="#1D1D1B"/>
<path d="M342.068 379.774C341.595 378.346 340.801 377.046 339.746 375.973C336.104 371.999 329.508 369.144 326.836 368.075C326.358 367.883 326.003 367.756 325.82 367.688L325.42 367.542L325.024 367.688C324.833 367.756 324.477 367.883 323.999 368.075C321.268 369.163 314.439 372.144 310.829 376.269C309.427 377.862 308.517 379.633 308.517 381.527C308.517 381.604 308.517 381.673 308.517 381.75C308.581 385.151 310.137 388.255 312.669 390.645C313.382 391.326 314.159 391.936 314.99 392.466V389.621C314.107 388.908 313.325 388.076 312.669 387.149C311.536 385.573 310.902 383.694 310.848 381.755C310.848 381.677 310.848 381.609 310.848 381.532C310.865 380.796 311.061 380.075 311.421 379.433C313.629 375.249 321.641 371.453 325.429 370.019C329.212 371.453 337.233 375.258 339.437 379.433C339.798 380.074 339.995 380.795 340.01 381.532C340.01 381.609 340.01 381.677 340.01 381.755C339.957 383.664 339.339 385.514 338.235 387.072C337.58 388.009 336.799 388.852 335.913 389.576V392.43C336.745 391.901 337.523 391.291 338.235 390.609C340.793 388.178 342.332 385 342.332 381.541C342.327 380.942 342.238 380.348 342.068 379.774ZM326.103 393.095C325.875 393.095 325.647 393.095 325.42 393.095C325.192 393.095 325.001 393.095 324.792 393.095C324.45 393.095 324.113 393.095 323.781 393.035V395.371C324.113 395.371 324.45 395.416 324.792 395.421H325.42H326.103C326.444 395.421 326.781 395.394 327.113 395.362V393.031C326.781 393.063 326.444 393.09 326.103 393.095Z" fill="#1D1D1B"/>
<path d="M350.276 387.149V390.645C350.989 391.326 351.767 391.936 352.598 392.466V389.621C351.712 388.91 350.93 388.078 350.276 387.149ZM379.921 381.527C379.922 381.107 379.876 380.689 379.785 380.28C378.319 373.287 365.012 368.266 363.396 367.688L363 367.542L362.604 367.688C361.011 368.266 347.699 373.287 346.215 380.28C346.126 380.69 346.08 381.108 346.079 381.527C346.095 384.055 346.909 386.513 348.405 388.551V382.601H348.469C348.427 382.245 348.406 381.886 348.405 381.527C348.405 381.103 348.476 380.681 348.614 380.28C350.076 375.773 358.939 371.548 362.982 370.014C367.024 371.548 375.888 375.782 377.354 380.28C377.49 380.682 377.561 381.103 377.563 381.527C377.562 381.886 377.541 382.245 377.499 382.601H377.563V388.551C379.071 386.517 379.896 384.059 379.921 381.527ZM373.493 389.585V392.435C374.327 391.908 375.105 391.298 375.815 390.614V387.095C375.163 388.031 374.381 388.869 373.493 389.585ZM350.276 387.158V390.655C350.989 391.335 351.767 391.945 352.598 392.476V389.63C351.711 388.916 350.929 388.081 350.276 387.149V387.158ZM363.696 393.104C363.473 393.104 363.241 393.104 363.018 393.104C362.795 393.104 362.599 393.104 362.39 393.104C362.049 393.104 361.712 393.104 361.375 393.045V395.38C361.712 395.38 362.049 395.425 362.39 395.43H363.018C363.246 395.43 363.473 395.43 363.696 395.43C364.042 395.43 364.379 395.403 364.716 395.371V393.04C364.379 393.063 364.042 393.09 363.696 393.095V393.104Z" fill="#1D1D1B"/>
<path d="M375.779 380.279H373.411C373.455 380.486 373.477 380.696 373.475 380.907V382.601H375.797V380.907C375.804 380.698 375.798 380.488 375.779 380.279ZM377.39 380.279C377.526 380.681 377.597 381.102 377.6 381.527C377.599 381.886 377.578 382.244 377.536 382.601H377.6V417.45H348.441V382.601H348.505C348.463 382.244 348.442 381.886 348.441 381.527C348.442 381.102 348.512 380.681 348.651 380.279H346.097V419.771H379.921V380.279H377.39ZM350.308 380.279C350.286 380.488 350.275 380.698 350.276 380.907V382.601H352.598V380.907C352.596 380.696 352.617 380.486 352.661 380.279H350.308ZM361.311 380.279C361.355 380.486 361.377 380.696 361.375 380.907V382.601H364.716V380.907C364.712 380.696 364.734 380.485 364.78 380.279H361.311Z" fill="#1D1D1B"/>
<path d="M363.697 382.6V393.071C364.043 393.071 364.379 393.039 364.716 393.007V382.578L363.697 382.6ZM363.697 382.6V393.071C364.043 393.071 364.379 393.039 364.716 393.007V382.578L363.697 382.6ZM375.779 380.279C375.437 377.174 372.592 374.738 369.105 374.738C367.871 374.717 366.654 375.033 365.586 375.652C364.518 376.272 363.64 377.171 363.046 378.253C362.618 379.072 362.393 379.982 362.39 380.907V419.807H375.815V380.907C375.817 380.697 375.804 380.487 375.779 380.279ZM373.503 417.485H364.716V380.907C364.712 380.696 364.734 380.485 364.78 380.279C365.117 378.458 366.924 377.06 369.105 377.06C371.285 377.06 373.093 378.458 373.43 380.279C373.474 380.485 373.495 380.696 373.493 380.907L373.503 417.485ZM363.706 382.6V393.071C364.052 393.071 364.389 393.039 364.725 393.007V382.578L363.706 382.6ZM363.706 382.6V393.071C364.052 393.071 364.389 393.039 364.725 393.007V382.578L363.706 382.6ZM373.503 382.6V389.584C374.391 388.865 375.173 388.024 375.824 387.084V382.609L373.503 382.6Z" fill="#1D1D1B"/>
<path d="M350.276 382.6V387.153C350.93 388.08 351.712 388.91 352.598 389.62V382.605L350.276 382.6ZM350.276 382.6V387.153C350.93 388.08 351.712 388.91 352.598 389.62V382.605L350.276 382.6ZM363.665 380.279C363.584 379.571 363.374 378.884 363.045 378.253C362.45 377.171 361.572 376.273 360.504 375.653C359.436 375.034 358.22 374.718 356.986 374.738C353.513 374.738 350.654 377.174 350.308 380.279C350.286 380.487 350.275 380.697 350.276 380.907V419.807H363.696V380.907C363.697 380.697 363.686 380.487 363.665 380.279ZM352.598 380.907C352.596 380.696 352.617 380.485 352.661 380.279C352.998 378.458 354.81 377.06 356.986 377.06C359.162 377.06 360.974 378.458 361.311 380.279C361.355 380.485 361.376 380.696 361.375 380.907V417.485H352.598V380.907ZM350.276 382.6V387.153C350.93 388.08 351.712 388.91 352.598 389.62V382.605L350.276 382.6Z" fill="#1D1D1B"/>
<path d="M338.025 379.427C337.297 376.737 334.652 374.738 331.502 374.738C330.269 374.719 329.054 375.035 327.988 375.653C326.921 376.272 326.043 377.169 325.447 378.248C325.253 378.623 325.1 379.019 324.992 379.427H327.432C327.837 378.709 328.425 378.112 329.136 377.696C329.848 377.28 330.657 377.061 331.481 377.061C332.305 377.061 333.115 377.28 333.826 377.696C334.538 378.112 335.126 378.709 335.531 379.427C335.758 379.887 335.876 380.393 335.877 380.907V389.556C336.762 388.833 337.544 387.99 338.198 387.052V380.893C338.205 380.399 338.147 379.906 338.025 379.427ZM338.025 379.427C337.297 376.737 334.652 374.738 331.502 374.738C330.269 374.719 329.054 375.035 327.988 375.653C326.921 376.272 326.043 377.169 325.447 378.248C325.253 378.623 325.1 379.019 324.992 379.427H327.432C327.837 378.709 328.425 378.112 329.136 377.696C329.848 377.28 330.657 377.061 331.481 377.061C332.305 377.061 333.115 377.28 333.826 377.696C334.538 378.112 335.126 378.709 335.531 379.427C335.758 379.887 335.876 380.393 335.877 380.907V389.556C336.762 388.833 337.544 387.99 338.198 387.052V380.893C338.205 380.399 338.147 379.906 338.025 379.427ZM338.025 379.427C337.297 376.737 334.652 374.738 331.502 374.738C330.269 374.719 329.054 375.035 327.988 375.653C326.921 376.272 326.043 377.169 325.447 378.248C325.253 378.623 325.1 379.019 324.992 379.427H327.432C327.837 378.709 328.425 378.112 329.136 377.696C329.848 377.28 330.657 377.061 331.481 377.061C332.305 377.061 333.115 377.28 333.826 377.696C334.538 378.112 335.126 378.709 335.531 379.427C335.758 379.887 335.876 380.393 335.877 380.907V389.556C336.762 388.833 337.544 387.99 338.198 387.052V380.893C338.205 380.399 338.147 379.906 338.025 379.427ZM338.025 379.427C337.297 376.737 334.652 374.738 331.502 374.738C330.269 374.719 329.054 375.035 327.988 375.653C326.921 376.272 326.043 377.169 325.447 378.248C325.253 378.623 325.1 379.019 324.992 379.427H327.432C327.837 378.709 328.425 378.112 329.136 377.696C329.848 377.28 330.657 377.061 331.481 377.061C332.305 377.061 333.115 377.28 333.826 377.696C334.538 378.112 335.126 378.709 335.531 379.427C335.758 379.887 335.876 380.393 335.877 380.907V389.556C336.762 388.833 337.544 387.99 338.198 387.052V380.893C338.205 380.399 338.147 379.906 338.025 379.427ZM338.025 379.427C337.297 376.737 334.652 374.738 331.502 374.738C330.269 374.719 329.054 375.035 327.988 375.653C326.921 376.272 326.043 377.169 325.447 378.248C325.253 378.623 325.1 379.019 324.992 379.427C324.861 379.909 324.796 380.407 324.796 380.907V419.807H338.221V380.907C338.222 380.407 338.156 379.909 338.025 379.427ZM335.899 417.485H327.113V380.907C327.114 380.394 327.231 379.888 327.455 379.427C327.859 378.709 328.448 378.112 329.159 377.696C329.871 377.28 330.68 377.061 331.504 377.061C332.328 377.061 333.138 377.28 333.849 377.696C334.561 378.112 335.149 378.709 335.553 379.427C335.781 379.887 335.899 380.393 335.899 380.907V417.485ZM338.025 379.427C337.297 376.737 334.652 374.738 331.502 374.738C330.269 374.719 329.054 375.035 327.988 375.653C326.921 376.272 326.043 377.169 325.447 378.248C325.253 378.623 325.1 379.019 324.992 379.427H327.432C327.837 378.709 328.425 378.112 329.136 377.696C329.848 377.28 330.657 377.061 331.481 377.061C332.305 377.061 333.115 377.28 333.826 377.696C334.538 378.112 335.126 378.709 335.531 379.427C335.758 379.887 335.876 380.393 335.877 380.907V389.556C336.762 388.833 337.544 387.99 338.198 387.052V380.893C338.205 380.399 338.147 379.906 338.025 379.427ZM338.025 379.427C337.297 376.737 334.652 374.738 331.502 374.738C330.269 374.719 329.054 375.035 327.988 375.653C326.921 376.272 326.043 377.169 325.447 378.248C325.253 378.623 325.1 379.019 324.992 379.427H327.432C327.837 378.709 328.425 378.112 329.136 377.696C329.848 377.28 330.657 377.061 331.481 377.061C332.305 377.061 333.115 377.28 333.826 377.696C334.538 378.112 335.126 378.709 335.531 379.427C335.758 379.887 335.876 380.393 335.877 380.907V389.556C336.762 388.833 337.544 387.99 338.198 387.052V380.893C338.205 380.399 338.147 379.906 338.025 379.427ZM338.025 379.427C337.297 376.737 334.652 374.738 331.502 374.738C330.269 374.719 329.054 375.035 327.988 375.653C326.921 376.272 326.043 377.169 325.447 378.248C325.253 378.623 325.1 379.019 324.992 379.427H327.432C327.837 378.709 328.425 378.112 329.136 377.696C329.848 377.28 330.657 377.061 331.481 377.061C332.305 377.061 333.115 377.28 333.826 377.696C334.538 378.112 335.126 378.709 335.531 379.427C335.758 379.887 335.876 380.393 335.877 380.907V389.556C336.762 388.833 337.544 387.99 338.198 387.052V380.893C338.205 380.399 338.147 379.906 338.025 379.427ZM338.025 379.427C337.297 376.737 334.652 374.738 331.502 374.738C330.269 374.719 329.054 375.035 327.988 375.653C326.921 376.272 326.043 377.169 325.447 378.248C325.253 378.623 325.1 379.019 324.992 379.427H327.432C327.837 378.709 328.425 378.112 329.136 377.696C329.848 377.28 330.657 377.061 331.481 377.061C332.305 377.061 333.115 377.28 333.826 377.696C334.538 378.112 335.126 378.709 335.531 379.427C335.758 379.887 335.876 380.393 335.877 380.907V389.556C336.762 388.833 337.544 387.99 338.198 387.052V380.893C338.205 380.399 338.147 379.906 338.025 379.427Z" fill="#1D1D1B"/>
<path d="M325.447 378.248C324.85 377.168 323.97 376.271 322.902 375.652C321.834 375.034 320.617 374.718 319.383 374.738C316.242 374.738 313.593 376.737 312.869 379.427H315.341C315.745 378.709 316.334 378.112 317.045 377.696C317.757 377.28 318.566 377.061 319.39 377.061C320.214 377.061 321.024 377.28 321.735 377.696C322.447 378.112 323.035 378.709 323.439 379.427C323.663 379.888 323.78 380.394 323.781 380.907V393.034C324.113 393.071 324.45 393.089 324.792 393.093V380.907C324.791 380.407 324.857 379.909 324.987 379.427H325.898C325.791 379.019 325.64 378.623 325.447 378.248ZM323.781 381.749V393.034C324.113 393.071 324.45 393.089 324.792 393.093V381.749H323.781ZM323.781 381.749V393.034C324.113 393.071 324.45 393.089 324.792 393.093V381.749H323.781ZM323.781 381.749V393.034C324.113 393.071 324.45 393.089 324.792 393.093V381.749H323.781ZM323.781 381.749V393.034C324.113 393.071 324.45 393.089 324.792 393.093V381.749H323.781ZM325.907 379.427C325.799 379.019 325.646 378.623 325.452 378.248C324.854 377.168 323.975 376.271 322.906 375.652C321.838 375.034 320.622 374.718 319.388 374.738C316.247 374.738 313.597 376.737 312.873 379.427C312.743 379.909 312.677 380.407 312.678 380.907V419.807H326.107V380.907C326.106 380.407 326.039 379.909 325.907 379.427ZM314.981 380.907C314.982 380.394 315.1 379.887 315.327 379.427C315.732 378.709 316.32 378.112 317.031 377.696C317.743 377.28 318.552 377.061 319.376 377.061C320.201 377.061 321.01 377.28 321.721 377.696C322.433 378.112 323.021 378.709 323.426 379.427C323.649 379.888 323.766 380.394 323.767 380.907V417.485H314.981V380.907ZM323.767 381.749V393.034C324.1 393.071 324.436 393.089 324.778 393.093V381.749H323.767ZM323.767 381.749V393.034C324.1 393.071 324.436 393.089 324.778 393.093V381.749H323.767ZM323.767 381.749V393.034C324.1 393.071 324.436 393.089 324.778 393.093V381.749H323.767ZM319.37 374.738C316.228 374.738 313.579 376.737 312.855 379.427H315.327C315.732 378.709 316.32 378.112 317.031 377.696C317.743 377.28 318.552 377.061 319.376 377.061C320.201 377.061 321.01 377.28 321.721 377.696C322.433 378.112 323.021 378.709 323.426 379.427C323.649 379.888 323.766 380.394 323.767 380.907V393.034C324.1 393.071 324.436 393.089 324.778 393.093V380.907C324.777 380.407 324.843 379.909 324.974 379.427C325.082 379.019 325.234 378.623 325.429 378.248C324.833 377.171 323.956 376.275 322.892 375.657C321.827 375.039 320.614 374.721 319.383 374.738H319.37Z" fill="#1D1D1B"/>
<path d="M298.611 389.584V392.439C299.442 391.909 300.22 391.3 300.932 390.618V387.09C300.277 388.024 299.496 388.864 298.611 389.584ZM275.393 387.158V390.659C276.106 391.34 276.884 391.949 277.715 392.48V389.635C276.829 388.916 276.046 388.078 275.389 387.144L275.393 387.158ZM298.611 389.584V392.439C299.442 391.909 300.22 391.3 300.932 390.618V387.09C300.277 388.024 299.496 388.864 298.611 389.584ZM275.393 387.158V390.659C276.106 391.34 276.884 391.949 277.715 392.48V389.635C276.829 388.916 276.046 388.078 275.389 387.144L275.393 387.158ZM298.611 389.584V392.439C299.442 391.909 300.22 391.3 300.932 390.618V387.09C300.277 388.024 299.496 388.864 298.611 389.584ZM275.393 387.158V390.659C276.106 391.34 276.884 391.949 277.715 392.48V389.635C276.829 388.916 276.046 388.078 275.389 387.144L275.393 387.158ZM298.611 389.584V392.439C299.442 391.909 300.22 391.3 300.932 390.618V387.09C300.277 388.024 299.496 388.864 298.611 389.584ZM275.393 387.158V390.659C276.106 391.34 276.884 391.949 277.715 392.48V389.635C276.829 388.916 276.046 388.078 275.389 387.144L275.393 387.158ZM298.611 389.584V392.439C299.442 391.909 300.22 391.3 300.932 390.618V387.09C300.277 388.024 299.496 388.864 298.611 389.584ZM275.393 387.158V390.659C276.106 391.34 276.884 391.949 277.715 392.48V389.635C276.829 388.916 276.046 388.078 275.389 387.144L275.393 387.158ZM298.611 389.584V392.439C299.442 391.909 300.22 391.3 300.932 390.618V387.09C300.277 388.024 299.496 388.864 298.611 389.584ZM304.907 380.293C304.818 379.872 304.688 379.46 304.52 379.064C301.893 372.718 290.029 368.247 288.532 367.683L288.131 367.537L287.735 367.683C286.142 368.261 272.83 373.282 271.346 380.275C271.257 380.685 271.211 381.103 271.21 381.522C271.226 384.049 272.039 386.507 273.531 388.546V382.597H273.6C273.556 382.24 273.534 381.881 273.531 381.522C273.534 381.098 273.605 380.677 273.741 380.275C275.207 375.768 284.07 371.543 288.113 370.009C292.16 371.543 301.023 375.777 302.489 380.275C302.628 380.676 302.698 381.098 302.699 381.522C302.698 381.881 302.677 382.24 302.635 382.597H302.699V388.546C303.502 387.451 304.118 386.23 304.52 384.932C304.862 383.828 305.037 382.678 305.039 381.522C305.038 381.104 304.994 380.688 304.907 380.279V380.293ZM298.611 389.584V392.439C299.442 391.909 300.22 391.3 300.932 390.618V387.09C300.277 388.024 299.496 388.864 298.611 389.584ZM275.393 387.158V390.659C276.106 391.34 276.884 391.949 277.715 392.48V389.635C276.829 388.916 276.046 388.078 275.389 387.144L275.393 387.158ZM298.611 389.584V392.439C299.442 391.909 300.22 391.3 300.932 390.618V387.09C300.277 388.024 299.496 388.864 298.611 389.584ZM275.393 387.158V390.659C276.106 391.34 276.884 391.949 277.715 392.48V389.635C276.829 388.916 276.046 388.078 275.389 387.144L275.393 387.158ZM298.611 389.584V392.439C299.442 391.909 300.22 391.3 300.932 390.618V387.09C300.277 388.024 299.496 388.864 298.611 389.584ZM275.393 387.158V390.659C276.106 391.34 276.884 391.949 277.715 392.48V389.635C276.829 388.916 276.046 388.078 275.389 387.144L275.393 387.158ZM298.611 389.584V392.439C299.442 391.909 300.22 391.3 300.932 390.618V387.09C300.277 388.024 299.496 388.864 298.611 389.584ZM275.393 387.158V390.659C276.106 391.34 276.884 391.949 277.715 392.48V389.635C276.829 388.916 276.046 388.078 275.389 387.144L275.393 387.158ZM298.611 389.584V392.439C299.442 391.909 300.22 391.3 300.932 390.618V387.09C300.277 388.024 299.496 388.864 298.611 389.584ZM275.393 387.158V390.659C276.106 391.34 276.884 391.949 277.715 392.48V389.635C276.829 388.916 276.046 388.078 275.389 387.144L275.393 387.158ZM298.611 389.584V392.439C299.442 391.909 300.22 391.3 300.932 390.618V387.09C300.277 388.024 299.496 388.864 298.611 389.584ZM275.393 387.158V390.659C276.106 391.34 276.884 391.949 277.715 392.48V389.635C276.829 388.916 276.046 388.078 275.389 387.144L275.393 387.158ZM288.823 393.108C288.595 393.108 288.368 393.108 288.136 393.108C287.903 393.108 287.717 393.108 287.507 393.108C287.166 393.108 286.829 393.108 286.497 393.049V395.384C286.829 395.384 287.166 395.43 287.507 395.434H288.136C288.363 395.434 288.591 395.434 288.823 395.434C289.164 395.434 289.501 395.407 289.829 395.375V393.044C289.497 393.062 289.16 393.09 288.818 393.094L288.823 393.108Z" fill="#1D1D1B"/>
<path d="M300.901 380.279H298.547C298.591 380.486 298.612 380.696 298.611 380.907V382.601H300.932V380.907C300.933 380.698 300.923 380.488 300.901 380.279ZM302.508 380.279C302.646 380.681 302.717 381.102 302.717 381.527C302.716 381.886 302.695 382.244 302.653 382.601H302.717V417.45H273.55V382.601H273.618C273.575 382.244 273.552 381.886 273.55 381.527C273.552 381.102 273.623 380.681 273.759 380.279H271.228V419.771H305.039V380.279H302.508ZM275.421 380.279C275.399 380.488 275.388 380.698 275.389 380.907V382.601H277.711V380.907C277.707 380.696 277.728 380.485 277.774 380.279H275.421ZM286.428 380.279C286.475 380.485 286.496 380.696 286.492 380.907V382.601H289.825V380.907C289.823 380.696 289.844 380.486 289.888 380.279H286.428Z" fill="#1D1D1B"/>
<path d="M287.503 382.6V393.071C287.712 393.071 287.922 393.071 288.131 393.071C288.341 393.071 288.586 393.071 288.819 393.071C289.16 393.071 289.497 393.039 289.825 393.007V382.577L287.503 382.6ZM287.503 382.6V393.071C287.712 393.071 287.922 393.071 288.131 393.071C288.341 393.071 288.586 393.071 288.819 393.071C289.16 393.071 289.497 393.039 289.825 393.007V382.577L287.503 382.6ZM287.503 382.6V393.071C287.712 393.071 287.922 393.071 288.131 393.071C288.341 393.071 288.586 393.071 288.819 393.071C289.16 393.071 289.497 393.039 289.825 393.007V382.577L287.503 382.6ZM287.503 382.6V393.071C287.712 393.071 287.922 393.071 288.131 393.071C288.341 393.071 288.586 393.071 288.819 393.071C289.16 393.071 289.497 393.039 289.825 393.007V382.577L287.503 382.6ZM287.503 382.6V393.071C287.712 393.071 287.922 393.071 288.131 393.071C288.341 393.071 288.586 393.071 288.819 393.071C289.16 393.071 289.497 393.039 289.825 393.007V382.577L287.503 382.6ZM287.503 382.6V393.071C287.712 393.071 287.922 393.071 288.131 393.071C288.341 393.071 288.586 393.071 288.819 393.071C289.16 393.071 289.497 393.039 289.825 393.007V382.577L287.503 382.6ZM300.901 380.279C300.555 377.174 297.687 374.738 294.218 374.738C292.984 374.718 291.769 375.034 290.701 375.652C289.633 376.271 288.755 377.168 288.159 378.248C287.731 379.069 287.506 379.981 287.503 380.907V419.807H300.933V380.907C300.933 380.697 300.923 380.487 300.901 380.279ZM298.625 417.485H289.838V380.907C289.837 380.696 289.858 380.485 289.902 380.279C290.239 378.458 292.051 377.06 294.231 377.06C296.412 377.06 298.224 378.458 298.561 380.279C298.605 380.485 298.626 380.696 298.625 380.907V417.485ZM287.517 382.6V393.071C287.726 393.071 287.935 393.071 288.145 393.071C288.354 393.071 288.6 393.071 288.832 393.071C289.174 393.071 289.511 393.039 289.838 393.007V382.577L287.517 382.6ZM287.517 382.6V393.071C287.726 393.071 287.935 393.071 288.145 393.071C288.354 393.071 288.6 393.071 288.832 393.071C289.174 393.071 289.511 393.039 289.838 393.007V382.577L287.517 382.6ZM287.517 382.6V393.071C287.726 393.071 287.935 393.071 288.145 393.071C288.354 393.071 288.6 393.071 288.832 393.071C289.174 393.071 289.511 393.039 289.838 393.007V382.577L287.517 382.6ZM287.517 382.6V393.071C287.726 393.071 287.935 393.071 288.145 393.071C288.354 393.071 288.6 393.071 288.832 393.071C289.174 393.071 289.511 393.039 289.838 393.007V382.577L287.517 382.6ZM287.517 382.6V393.071C287.726 393.071 287.935 393.071 288.145 393.071C288.354 393.071 288.6 393.071 288.832 393.071C289.174 393.071 289.511 393.039 289.838 393.007V382.577L287.517 382.6ZM287.517 382.6V393.071C287.726 393.071 287.935 393.071 288.145 393.071C288.354 393.071 288.6 393.071 288.832 393.071C289.174 393.071 289.511 393.039 289.838 393.007V382.577L287.517 382.6Z" fill="#1D1D1B"/>
<path d="M275.389 382.6V387.153C276.046 388.079 276.827 388.911 277.711 389.625V382.609L275.389 382.6ZM275.389 382.6V387.153C276.046 388.079 276.827 388.911 277.711 389.625V382.609L275.389 382.6ZM288.782 380.279C288.702 379.569 288.49 378.88 288.158 378.248C287.562 377.168 286.683 376.271 285.616 375.652C284.548 375.034 283.333 374.718 282.099 374.738C278.626 374.738 275.762 377.174 275.421 380.279C275.399 380.487 275.388 380.697 275.389 380.907V419.807H288.818V380.907C288.818 380.697 288.806 380.487 288.782 380.279ZM277.711 380.907C277.707 380.695 277.728 380.485 277.774 380.279C278.111 378.458 279.923 377.06 282.099 377.06C284.275 377.06 286.092 378.458 286.428 380.279C286.475 380.485 286.496 380.695 286.492 380.907V417.485H277.711V380.907ZM275.389 382.6V387.153C276.046 388.079 276.827 388.911 277.711 389.625V382.609L275.389 382.6Z" fill="#1D1D1B"/>
<path d="M241 442.324H305.057V417.541H241V442.324ZM302.731 440.003H243.322V419.863H302.731V440.003Z" fill="#1D1D1B"/>
<path d="M346.097 442.233H410.172V417.449H346.097V442.233ZM407.832 439.911H348.437V419.771H407.85L407.832 439.911Z" fill="#1D1D1B"/>
<path d="M350.057 442.233H406.23V417.449H350.057V442.233ZM403.912 439.911H352.384V419.771H403.912V439.911Z" fill="#1D1D1B"/>
<path d="M244.232 442.324H300.4V417.541H244.232V442.324ZM298.078 440.003H246.554V419.863H298.078V440.003Z" fill="#1D1D1B"/>
<path d="M302.712 442.233H348.555V417.449H302.712V442.233ZM346.233 439.911H305.034V419.771H346.233V439.911Z" fill="#1D1D1B"/>
<path d="M337.875 434.429H348.555V425.438H337.875V434.429ZM346.233 432.103H340.179V427.76H346.233V432.103Z" fill="#1D1D1B"/>
<path d="M302.731 434.429H313.411V425.438H302.731V434.429ZM311.089 432.103H305.057V427.76H311.089V432.103Z" fill="#1D1D1B"/>
<path d="M364.502 435.445C365.593 435.446 366.659 435.123 367.566 434.518C368.474 433.913 369.181 433.052 369.599 432.045C370.017 431.038 370.127 429.929 369.914 428.859C369.702 427.789 369.177 426.807 368.407 426.035C367.636 425.264 366.654 424.738 365.584 424.525C364.514 424.312 363.406 424.421 362.398 424.838C361.391 425.255 360.529 425.962 359.923 426.869C359.317 427.775 358.994 428.841 358.994 429.932C358.995 431.393 359.576 432.794 360.608 433.827C361.641 434.861 363.041 435.442 364.502 435.445ZM364.502 426.745C365.133 426.745 365.749 426.932 366.273 427.282C366.797 427.632 367.205 428.13 367.446 428.712C367.688 429.295 367.751 429.935 367.628 430.554C367.505 431.172 367.201 431.74 366.756 432.185C366.31 432.631 365.742 432.934 365.124 433.057C364.506 433.18 363.865 433.117 363.283 432.876C362.7 432.635 362.203 432.226 361.853 431.702C361.502 431.178 361.316 430.562 361.316 429.932C361.316 429.087 361.651 428.276 362.249 427.679C362.847 427.081 363.657 426.745 364.502 426.745Z" fill="#1D1D1B"/>
<path d="M286.82 435.445C287.911 435.446 288.977 435.123 289.884 434.518C290.791 433.913 291.499 433.052 291.917 432.045C292.335 431.038 292.444 429.929 292.232 428.859C292.02 427.789 291.495 426.807 290.724 426.035C289.954 425.264 288.971 424.738 287.902 424.525C286.832 424.312 285.724 424.421 284.716 424.838C283.708 425.255 282.847 425.962 282.241 426.869C281.635 427.775 281.312 428.841 281.312 429.932C281.313 431.393 281.893 432.794 282.926 433.827C283.959 434.861 285.359 435.442 286.82 435.445ZM286.82 426.745C287.45 426.745 288.066 426.932 288.59 427.282C289.114 427.632 289.523 428.13 289.764 428.712C290.005 429.295 290.068 429.935 289.945 430.554C289.823 431.172 289.519 431.74 289.073 432.185C288.628 432.631 288.06 432.934 287.442 433.057C286.824 433.18 286.183 433.117 285.601 432.876C285.018 432.635 284.521 432.226 284.17 431.702C283.82 431.178 283.633 430.562 283.633 429.932C283.633 429.087 283.969 428.276 284.567 427.679C285.164 427.081 285.975 426.745 286.82 426.745Z" fill="#1D1D1B"/>
<path d="M258.545 435.445C259.635 435.445 260.701 435.122 261.608 434.516C262.514 433.91 263.221 433.049 263.638 432.042C264.055 431.034 264.165 429.926 263.952 428.856C263.739 427.787 263.214 426.805 262.443 426.034C261.672 425.263 260.69 424.738 259.62 424.525C258.551 424.312 257.443 424.421 256.435 424.839C255.428 425.256 254.567 425.963 253.961 426.869C253.355 427.776 253.032 428.842 253.032 429.932C253.033 431.394 253.614 432.795 254.648 433.829C255.682 434.862 257.083 435.444 258.545 435.445ZM258.545 426.745C259.175 426.745 259.791 426.932 260.315 427.282C260.839 427.632 261.248 428.13 261.489 428.712C261.73 429.295 261.793 429.935 261.67 430.554C261.547 431.172 261.244 431.74 260.798 432.185C260.353 432.631 259.785 432.934 259.167 433.057C258.548 433.18 257.908 433.117 257.325 432.876C256.743 432.635 256.245 432.226 255.895 431.702C255.545 431.178 255.358 430.562 255.358 429.932C255.358 429.087 255.694 428.276 256.292 427.679C256.889 427.081 257.7 426.745 258.545 426.745Z" fill="#1D1D1B"/>
<path d="M413.281 296.647H515.337L515.455 295.614C515.655 293.882 515.755 292.14 515.756 290.396C515.756 279.416 507.498 268.09 491.209 256.759C483.338 251.207 473.941 248.227 464.309 248.227C454.677 248.227 445.28 251.207 437.409 256.759C421.12 268.099 412.862 279.416 412.862 290.396C412.865 292.14 412.965 293.882 413.163 295.614L413.281 296.647ZM513.252 294.325H415.375C415.257 293.01 415.198 291.694 415.198 290.396C415.198 277.723 428.004 266.146 438.743 258.666C446.226 253.386 455.16 250.552 464.318 250.552C473.477 250.552 482.41 253.386 489.894 258.666C500.633 266.146 513.439 277.723 513.439 290.396C513.43 291.708 513.37 293.01 513.252 294.325Z" fill="#1D1D1B"/>
<path d="M411.62 306.02H516.999V292.044H411.62V306.02ZM514.672 303.698H413.928V294.366H514.672V303.698Z" fill="#1D1D1B"/>
<path d="M410.536 316.896H518.087V302.92H410.536V316.896ZM515.761 314.57H412.876V305.242H515.761V314.57Z" fill="#1D1D1B"/>
<path d="M409.134 363.658H519.484V312.553H409.134V363.658ZM517.158 361.359H411.46V314.874H517.158V361.359Z" fill="#1D1D1B"/>
<path d="M412.68 295.772H517.021V299.546H412.68V295.772Z" fill="#1D1D1B"/>
<path d="M411.656 305.716H518.05V309.49H411.656V305.716Z" fill="#1D1D1B"/>
<path d="M410.195 313.172H519.507V316.946H410.195V313.172Z" fill="#1D1D1B"/>
<path d="M409.084 311.574H520.622V315.717H409.084V311.574Z" fill="#1D1D1B"/>
<path d="M411.943 363.658H418.025V322.299H418.325V314.365H417.342V311.205H417.042C417.083 310.75 417.105 310.295 417.105 309.812C417.105 308.378 416.9 305.032 414.975 305.032C413.049 305.032 412.844 308.378 412.844 309.812C412.843 310.277 412.866 310.742 412.913 311.205H412.612V314.365H411.651V322.299H411.952L411.943 363.658ZM415.712 361.336H414.265V319.978H413.964V316.691H414.947V313.504H415.029V316.691H416.013V319.978H415.712V361.336Z" fill="#1D1D1B"/>
<path d="M404.231 361.332V419.28H524.096V361.332H404.231ZM406.553 416.958V363.658H521.788V416.958H406.553Z" fill="#1D1D1B"/>
<path d="M425.532 393.522V395.844H428.873V393.522H425.532ZM437.65 393.522V395.844H439.972V393.522H437.65ZM410.391 365.866V395.844H412.598V387.968C412.639 388.023 412.671 388.077 412.712 388.127V368.188H441.638V388.123C441.679 388.073 441.716 388.018 441.757 387.964V395.839H443.974V365.866H410.391ZM414.433 393.522V395.844H416.755V393.522H414.433Z" fill="#1D1D1B"/>
<path d="M427.858 392.511C427.63 392.511 427.403 392.511 427.175 392.511C426.948 392.511 426.756 392.511 426.552 392.511C426.206 392.511 425.869 392.511 425.532 392.457V394.788C425.869 394.788 426.206 394.833 426.552 394.842H427.175H427.858C428.2 394.842 428.536 394.81 428.873 394.783V392.448C428.536 392.484 428.2 392.507 427.858 392.511ZM443.96 379.765V379.683C443.569 378.117 442.773 376.682 441.652 375.522C441.37 375.203 441.06 374.893 440.741 374.611C440.014 373.92 439.238 373.281 438.42 372.699C435.869 370.915 433.137 369.403 430.271 368.188C430.08 368.097 429.888 368.019 429.715 367.942C428.664 367.487 427.895 367.209 427.571 367.1L427.175 366.954L426.784 367.1C426.47 367.209 425.696 367.5 424.644 367.942C424.467 368.019 424.28 368.097 424.084 368.188C421.585 369.267 417.916 371.079 414.979 373.418C414.164 374.059 413.402 374.765 412.703 375.531C412.689 375.549 412.674 375.565 412.658 375.581C411.556 376.726 410.771 378.138 410.381 379.678C410.381 379.705 410.381 379.733 410.381 379.76C410.312 380.148 410.28 380.541 410.286 380.935C410.287 381.474 410.325 382.012 410.4 382.546C410.687 384.504 411.444 386.363 412.608 387.963C412.649 388.018 412.68 388.073 412.721 388.123C413.232 388.82 413.808 389.466 414.442 390.053C415.154 390.735 415.932 391.345 416.764 391.874V389.029C415.879 388.316 415.098 387.484 414.442 386.557C414.092 386.068 413.787 385.549 413.532 385.004C413.13 384.174 412.854 383.289 412.712 382.378C412.689 382.273 412.68 382.168 412.667 382.064C412.665 382.048 412.665 382.033 412.667 382.018C412.625 381.658 412.603 381.297 412.603 380.935C412.603 380.693 412.626 380.452 412.671 380.215C412.671 380.147 412.699 380.079 412.717 380.006C412.74 379.899 412.772 379.794 412.812 379.692C413.272 378.47 414.02 377.376 414.993 376.505C418.275 373.318 424.098 370.587 427.18 369.431C429.966 370.487 435.042 372.818 438.411 375.649C439.29 376.359 440.07 377.183 440.732 378.098C441.083 378.586 441.359 379.123 441.552 379.692C441.59 379.797 441.62 379.905 441.643 380.015C441.719 380.312 441.759 380.618 441.761 380.925C441.761 381.287 441.739 381.649 441.697 382.009C441.697 382.127 441.666 382.246 441.643 382.369C441.493 383.355 441.186 384.311 440.732 385.2C440.512 385.644 440.259 386.072 439.977 386.479C439.904 386.593 439.822 386.702 439.735 386.816C439.134 387.621 438.435 388.347 437.655 388.979V391.86C438.486 391.33 439.264 390.72 439.977 390.039C440.587 389.462 441.144 388.831 441.643 388.155C441.684 388.105 441.72 388.05 441.761 387.995C442.925 386.395 443.681 384.536 443.965 382.578C444.043 382.044 444.083 381.506 444.083 380.966C444.087 380.568 444.051 380.169 443.974 379.778L443.96 379.765Z" fill="#1D1D1B"/>
<path d="M425.468 379.697C425.515 379.901 425.536 380.111 425.532 380.32V382.023H428.873V380.32C428.872 380.111 428.893 379.902 428.937 379.697H425.468ZM425.468 379.697C425.515 379.901 425.536 380.111 425.532 380.32V382.023H428.873V380.32C428.872 380.111 428.893 379.902 428.937 379.697H425.468ZM425.468 379.697C425.515 379.901 425.536 380.111 425.532 380.32V382.023H428.873V380.32C428.872 380.111 428.893 379.902 428.937 379.697H425.468ZM425.468 379.697C425.515 379.901 425.536 380.111 425.532 380.32V382.023H428.873V380.32C428.872 380.111 428.893 379.902 428.937 379.697H425.468ZM414.465 379.697C414.443 379.904 414.432 380.112 414.433 380.32V382.023H416.755V380.32C416.753 380.111 416.774 379.902 416.819 379.697H414.465ZM425.468 379.697C425.515 379.901 425.536 380.111 425.532 380.32V382.023H428.873V380.32C428.872 380.111 428.893 379.902 428.937 379.697H425.468ZM414.465 379.697C414.443 379.904 414.432 380.112 414.433 380.32V382.023H416.755V380.32C416.753 380.111 416.774 379.902 416.819 379.697H414.465ZM425.468 379.697C425.515 379.901 425.536 380.111 425.532 380.32V382.023H428.873V380.32C428.872 380.111 428.893 379.902 428.937 379.697H425.468ZM439.94 379.697H437.373L437.614 379.86C437.64 380.011 437.652 380.163 437.65 380.316V382.018H439.972V380.316C439.973 380.109 439.962 379.902 439.94 379.697ZM425.468 379.697C425.515 379.901 425.536 380.111 425.532 380.32V382.023H428.873V380.32C428.872 380.111 428.893 379.902 428.937 379.697H425.468ZM439.94 379.697H437.373L437.614 379.86C437.64 380.011 437.652 380.163 437.65 380.316V382.018H439.972V380.316C439.973 380.109 439.962 379.902 439.94 379.697ZM414.447 379.697C414.425 379.904 414.414 380.112 414.415 380.32V382.023H416.737V380.32C416.735 380.111 416.756 379.902 416.8 379.697H414.447ZM425.45 379.697C425.496 379.901 425.518 380.111 425.514 380.32V382.023H428.855V380.32C428.853 380.111 428.875 379.902 428.919 379.697H425.45ZM439.922 379.697H437.354L437.596 379.86C437.622 380.011 437.634 380.163 437.632 380.316V382.018H439.954V380.316C439.961 380.109 439.956 379.903 439.94 379.697H439.922ZM414.429 379.697C414.406 379.904 414.396 380.112 414.397 380.32V382.023H416.718V380.32C416.717 380.111 416.738 379.902 416.782 379.697H414.429ZM425.432 379.697C425.478 379.901 425.5 380.111 425.495 380.32V382.023H428.837V380.32C428.835 380.111 428.857 379.902 428.901 379.697H425.432ZM439.904 379.697H437.336L437.578 379.86C437.603 380.011 437.616 380.163 437.614 380.316V382.018H439.936V380.316C439.948 380.11 439.95 379.903 439.94 379.697H439.904ZM414.41 379.697C414.388 379.904 414.378 380.112 414.378 380.32V382.023H416.7V380.32C416.698 380.111 416.72 379.902 416.764 379.697H414.41ZM425.414 379.697C425.46 379.901 425.481 380.111 425.477 380.32V382.023H428.819V380.32C428.817 380.111 428.838 379.902 428.882 379.697H425.414ZM439.886 379.697H437.318L437.559 379.86C437.585 380.011 437.597 380.163 437.596 380.316V382.018H439.917V380.316C439.936 380.11 439.944 379.903 439.94 379.697H439.886ZM414.392 379.697C414.37 379.904 414.359 380.112 414.36 380.32V382.023H416.682V380.32C416.68 380.111 416.702 379.902 416.746 379.697H414.392ZM425.395 379.697C425.442 379.901 425.463 380.111 425.459 380.32V382.023H428.801V380.32C428.799 380.111 428.82 379.902 428.864 379.697H425.395ZM439.867 379.697H437.3L437.541 379.86C437.567 380.011 437.579 380.163 437.578 380.316V382.018H439.899V380.316C439.924 380.11 439.938 379.904 439.94 379.697H439.867ZM414.374 379.697C414.352 379.904 414.341 380.112 414.342 380.32V382.023H416.664V380.32C416.662 380.111 416.683 379.902 416.728 379.697H414.374ZM425.377 379.697C425.424 379.901 425.445 380.111 425.441 380.32V382.023H428.782V380.32C428.78 380.111 428.802 379.902 428.846 379.697H425.377ZM439.849 379.697H437.282L437.523 379.86C437.549 380.011 437.561 380.163 437.559 380.316V382.018H439.881V380.316C439.912 380.111 439.932 379.904 439.94 379.697H439.849ZM441.456 379.697C441.494 379.802 441.524 379.91 441.547 380.02V382.023H441.666V416.862H412.507V382.023H412.621V380.024C412.645 379.917 412.677 379.812 412.717 379.71H410.286V419.175H444.078V379.688L441.456 379.697ZM437.559 380.32V382.023H439.881V380.32C439.882 380.112 439.871 379.904 439.849 379.697H437.282L437.523 379.86C437.58 380.009 437.622 380.163 437.65 380.32H437.559ZM425.441 382.023H428.782V380.32C428.78 380.111 428.802 379.902 428.846 379.697H425.377C425.424 379.901 425.445 380.111 425.441 380.32V382.023ZM416.664 380.32C416.662 380.111 416.683 379.902 416.728 379.697H414.374C414.352 379.904 414.341 380.112 414.342 380.32V382.023H416.664V380.32ZM439.849 379.697H437.282L437.523 379.86C437.549 380.011 437.561 380.163 437.559 380.316V382.018H439.881V380.316C439.912 380.111 439.932 379.904 439.94 379.697H439.849ZM425.377 379.697C425.424 379.901 425.445 380.111 425.441 380.32V382.023H428.782V380.32C428.78 380.111 428.802 379.902 428.846 379.697H425.377ZM414.374 379.697C414.352 379.904 414.341 380.112 414.342 380.32V382.023H416.664V380.32C416.662 380.111 416.683 379.902 416.728 379.697H414.374ZM439.867 379.697H437.3L437.541 379.86C437.567 380.011 437.579 380.163 437.578 380.316V382.018H439.899V380.316C439.924 380.11 439.938 379.904 439.94 379.697H439.867ZM425.395 379.697C425.442 379.901 425.463 380.111 425.459 380.32V382.023H428.801V380.32C428.799 380.111 428.82 379.902 428.864 379.697H425.395ZM414.392 379.697C414.37 379.904 414.359 380.112 414.36 380.32V382.023H416.682V380.32C416.68 380.111 416.702 379.902 416.746 379.697H414.392ZM439.886 379.697H437.318L437.559 379.86C437.585 380.011 437.597 380.163 437.596 380.316V382.018H439.917V380.316C439.936 380.11 439.944 379.903 439.94 379.697H439.886ZM425.414 379.697C425.46 379.901 425.481 380.111 425.477 380.32V382.023H428.819V380.32C428.817 380.111 428.838 379.902 428.882 379.697H425.414ZM414.41 379.697C414.388 379.904 414.378 380.112 414.378 380.32V382.023H416.7V380.32C416.698 380.111 416.72 379.902 416.764 379.697H414.41ZM439.904 379.697H437.336L437.578 379.86C437.603 380.011 437.616 380.163 437.614 380.316V382.018H439.936V380.316C439.948 380.11 439.95 379.903 439.94 379.697H439.904ZM425.432 379.697C425.478 379.901 425.5 380.111 425.495 380.32V382.023H428.837V380.32C428.835 380.111 428.857 379.902 428.901 379.697H425.432ZM414.429 379.697C414.406 379.904 414.396 380.112 414.397 380.32V382.023H416.718V380.32C416.717 380.111 416.738 379.902 416.782 379.697H414.429ZM439.922 379.697H437.354L437.596 379.86C437.622 380.011 437.634 380.163 437.632 380.316V382.018H439.954V380.316C439.961 380.109 439.956 379.903 439.94 379.697H439.922ZM425.45 379.697C425.496 379.901 425.518 380.111 425.514 380.32V382.023H428.855V380.32C428.853 380.111 428.875 379.902 428.919 379.697H425.45ZM414.447 379.697C414.425 379.904 414.414 380.112 414.415 380.32V382.023H416.737V380.32C416.735 380.111 416.756 379.902 416.8 379.697H414.447ZM439.94 379.697H437.373L437.614 379.86C437.64 380.011 437.652 380.163 437.65 380.316V382.018H439.972V380.316C439.973 380.109 439.962 379.902 439.94 379.697ZM425.468 379.697C425.515 379.901 425.536 380.111 425.532 380.32V382.023H428.873V380.32C428.872 380.111 428.893 379.902 428.937 379.697H425.468ZM439.94 379.697H437.373L437.614 379.86C437.64 380.011 437.652 380.163 437.65 380.316V382.018H439.972V380.316C439.973 380.109 439.962 379.902 439.94 379.697ZM425.468 379.697C425.515 379.901 425.536 380.111 425.532 380.32V382.023H428.873V380.32C428.872 380.111 428.893 379.902 428.937 379.697H425.468ZM414.465 379.697C414.443 379.904 414.432 380.112 414.433 380.32V382.023H416.755V380.32C416.753 380.111 416.774 379.902 416.819 379.697H414.465ZM425.468 379.697C425.515 379.901 425.536 380.111 425.532 380.32V382.023H428.873V380.32C428.872 380.111 428.893 379.902 428.937 379.697H425.468ZM425.468 379.697C425.515 379.901 425.536 380.111 425.532 380.32V382.023H428.873V380.32C428.872 380.111 428.893 379.902 428.937 379.697H425.468ZM425.468 379.697C425.515 379.901 425.536 380.111 425.532 380.32V382.023H428.873V380.32C428.872 380.111 428.893 379.902 428.937 379.697H425.468Z" fill="#1D1D1B"/>
<path d="M380.044 441.74H444.101V416.957H380.044V441.74ZM441.775 439.419H382.366V419.279H441.775V439.419Z" fill="#1D1D1B"/>
<path d="M383.276 441.74H439.421V416.957H383.276V441.74ZM437.122 439.419H385.598V419.279H437.122V439.419Z" fill="#1D1D1B"/>
<path d="M385.612 332.543H403.416V178.121H385.612V332.543ZM401.09 330.221H387.933V180.447H401.09V330.221Z" fill="#1D1D1B"/>
<path d="M384.219 332.543H404.823V327.217H384.232L384.219 332.543ZM402.487 330.221H386.554V329.543H402.487V330.221Z" fill="#1D1D1B"/>
<g opacity="0.1">
<path d="M392.295 327.995H396.729V332.543H392.295V327.995Z" fill="#1D1D1B"/>
</g>
<g opacity="0.1">
<path d="M395.714 327.995H400.148V332.543H395.714V327.995Z" fill="#1D1D1B"/>
</g>
<g opacity="0.1">
<path d="M399.132 327.995H403.567V332.543H399.132V327.995Z" fill="#1D1D1B"/>
</g>
<g opacity="0.1">
<path d="M388.88 327.995H393.314V332.543H388.88V327.995Z" fill="#1D1D1B"/>
</g>
<g opacity="0.1">
<path d="M385.461 327.995H389.896V332.543H385.461V327.995Z" fill="#1D1D1B"/>
</g>
<path d="M382.589 419.034H406.439V330.221H382.589V419.034ZM404.117 416.712H384.911V332.542H404.117V416.712Z" fill="#1D1D1B"/>
<path d="M382.589 178.425H406.439V168.337H382.589V178.425ZM404.117 176.103H384.911V170.64H404.117V176.103Z" fill="#1D1D1B"/>
<path d="M383.936 174.543H405.091C405.816 174.543 406.511 174.255 407.023 173.743C407.535 173.231 407.823 172.536 407.823 171.811V167.787H381.173V171.811C381.173 172.173 381.245 172.531 381.384 172.864C381.523 173.198 381.727 173.5 381.984 173.754C382.241 174.008 382.546 174.209 382.881 174.344C383.216 174.48 383.575 174.547 383.936 174.543ZM405.519 170.091V171.793C405.513 171.905 405.466 172.01 405.387 172.089C405.308 172.167 405.203 172.215 405.091 172.221H383.936C383.824 172.22 383.716 172.174 383.637 172.094C383.557 172.014 383.513 171.906 383.513 171.793V170.091H405.519Z" fill="#1D1D1B"/>
<path d="M386.24 170.09H402.788V145.835H386.24V170.09ZM400.466 167.768H388.562V148.157H400.466V167.768Z" fill="#1D1D1B"/>
<path d="M385.248 148.507H403.698V144.209C403.696 141.824 402.748 139.538 401.061 137.851C399.375 136.165 397.088 135.216 394.703 135.214H394.216C393.038 135.212 391.871 135.443 390.783 135.892C389.694 136.342 388.705 137.002 387.872 137.835C387.039 138.668 386.378 139.656 385.928 140.745C385.478 141.833 385.246 143 385.248 144.178V148.507ZM401.349 146.185H387.569V144.178C387.572 142.422 388.27 140.738 389.512 139.497C390.754 138.255 392.437 137.556 394.193 137.554H394.68C396.45 137.55 398.149 138.249 399.403 139.497C400.658 140.745 401.366 142.44 401.372 144.209L401.349 146.185Z" fill="#1D1D1B"/>
<path d="M389.331 134.622H399.629V138.655H389.331V134.622Z" fill="#1D1D1B"/>
<path d="M392.003 133.379H396.965V137.412H392.003V133.379Z" fill="#1D1D1B"/>
<path d="M392.477 129.638H396.483V135.856H392.477V129.638Z" fill="#1D1D1B"/>
<path d="M392.572 132.437H396.392L395.873 108.272H393.091L392.572 132.437Z" fill="#1D1D1B"/>
<path d="M380.582 166.936H408.383V170.969H380.582V166.936Z" fill="#1D1D1B"/>
<path d="M384.415 217.22H404.618V206.854H384.415V217.22ZM402.292 214.899H386.736V209.176H402.292V214.899Z" fill="#1D1D1B"/>
<path d="M383.208 264.138H405.82V257.879H383.208V264.138ZM403.498 261.817H385.534V260.201H403.498V261.817Z" fill="#1D1D1B"/>
<path d="M384.915 275.692H404.108V278.888H384.915V275.692Z" fill="#1D1D1B"/>
<path d="M384.915 276.994H404.108V280.19H384.915V276.994Z" fill="#1D1D1B"/>
<path d="M384.915 282.216H404.108V285.412H384.915V282.216Z" fill="#1D1D1B"/>
<path d="M384.915 283.522H404.108V286.718H384.915V283.522Z" fill="#1D1D1B"/>
<path d="M384.915 288.744H404.108V291.94H384.915V288.744Z" fill="#1D1D1B"/>
<path d="M384.915 290.046H404.108V293.242H384.915V290.046Z" fill="#1D1D1B"/>
<path d="M389.518 201.137H399.287V190.425H389.518V201.137ZM396.965 198.838H391.839V192.747H396.965V198.838Z" fill="#1D1D1B"/>
<path d="M389.518 239.045H399.287V228.333H389.518V239.045ZM396.965 236.723H391.839V230.655H396.965V236.723Z" fill="#1D1D1B"/>
<path d="M389.518 326.36H399.287V315.644H389.518V326.36ZM396.965 324.029H391.839V317.965H396.965V324.029Z" fill="#1D1D1B"/>
<path d="M389.518 355.387H399.287V334.601H389.518V355.387ZM396.965 353.065H391.839V336.922H396.965V353.065Z" fill="#1D1D1B"/>
<path d="M396.66 365.984C396.86 366.339 396.965 366.738 396.965 367.145C396.965 367.552 396.86 367.952 396.66 368.306H396.965V384.449H391.839V368.306H392.149C391.946 367.953 391.839 367.553 391.839 367.145C391.839 366.738 391.946 366.338 392.149 365.984H389.518V386.771H399.292V365.984H396.66Z" fill="#1D1D1B"/>
<path d="M399.137 365.984C398.845 364.833 398.144 363.828 397.165 363.157C396.186 362.486 394.996 362.194 393.817 362.336C392.638 362.478 391.552 363.045 390.761 363.93C389.969 364.815 389.527 365.958 389.518 367.145C389.522 367.965 389.738 368.77 390.144 369.483C390.551 370.195 391.135 370.79 391.839 371.21V368.306H392.149C391.946 367.953 391.839 367.552 391.839 367.145C391.839 366.738 391.946 366.337 392.149 365.984C392.38 365.591 392.71 365.266 393.105 365.04C393.501 364.813 393.949 364.694 394.405 364.694C394.86 364.694 395.308 364.813 395.704 365.04C396.099 365.266 396.429 365.591 396.66 365.984C396.86 366.338 396.965 366.738 396.965 367.145C396.965 367.552 396.86 367.952 396.66 368.306H396.965V371.206C397.67 370.787 398.255 370.193 398.662 369.481C399.07 368.77 399.287 367.965 399.292 367.145C399.291 366.753 399.239 366.363 399.137 365.984Z" fill="#1D1D1B"/>
<path d="M396.665 395.816C396.863 396.171 396.966 396.571 396.965 396.977C396.967 397.384 396.862 397.785 396.66 398.138H396.965V414.272H391.839V398.138H392.149C391.948 397.784 391.841 397.384 391.839 396.977C391.837 396.57 391.944 396.169 392.149 395.816H389.518V416.598H399.292V395.816H396.665Z" fill="#1D1D1B"/>
<path d="M399.146 395.816C398.854 394.664 398.152 393.658 397.172 392.986C396.193 392.314 395.001 392.022 393.822 392.164C392.642 392.306 391.554 392.873 390.762 393.759C389.97 394.645 389.528 395.789 389.518 396.977C389.522 397.797 389.738 398.602 390.145 399.315C390.551 400.027 391.135 400.622 391.839 401.042V398.138H392.149C391.948 397.784 391.842 397.384 391.839 396.977C391.837 396.569 391.944 396.168 392.149 395.816C392.376 395.42 392.704 395.091 393.1 394.864C393.496 394.636 393.946 394.519 394.402 394.523C394.863 394.517 395.316 394.634 395.716 394.861C396.116 395.088 396.448 395.418 396.679 395.816C396.877 396.171 396.98 396.571 396.979 396.977C396.981 397.384 396.876 397.784 396.674 398.138H396.979V401.038C397.684 400.619 398.269 400.025 398.676 399.313C399.084 398.602 399.301 397.797 399.305 396.977C399.299 396.585 399.246 396.195 399.146 395.816Z" fill="#1D1D1B"/>
<path d="M394.484 110.699C395.113 110.7 395.728 110.521 396.257 110.183C396.786 109.844 397.207 109.361 397.47 108.79C397.732 108.22 397.825 107.585 397.737 106.963C397.649 106.341 397.385 105.758 396.975 105.282L395.386 103.429L397.594 98.749L394.484 102.391L391.371 98.749L393.578 103.429L391.99 105.282C391.579 105.758 391.315 106.342 391.227 106.964C391.139 107.587 391.233 108.221 391.496 108.792C391.758 109.363 392.18 109.847 392.71 110.185C393.24 110.523 393.856 110.701 394.484 110.699ZM394.484 105.341L395.044 106.534C395.084 106.616 395.105 106.706 395.104 106.798C395.09 106.953 395.019 107.098 394.904 107.204C394.789 107.309 394.638 107.368 394.482 107.368C394.326 107.368 394.175 107.309 394.06 107.204C393.945 107.098 393.874 106.953 393.861 106.798C393.862 106.707 393.882 106.617 393.92 106.534L394.484 105.341Z" fill="#1D1D1B"/>
<path d="M392.477 107.681H396.483V111.013H392.477V107.681Z" fill="#1D1D1B"/>
</g>
</g>
<g clip-path="url(#clip2_413_5980)">
<path d="M86.2562 231.301C86.2562 231.351 87.0496 231.03 88.5082 230.704C90.5754 230.253 92.7055 230.171 94.801 230.462C97.9108 230.871 100.846 232.14 103.277 234.127C106.258 236.56 108.361 239.906 109.264 243.651C109.266 243.686 109.266 243.72 109.264 243.755L109.441 244.437L109.703 243.79C111.159 240.238 113.658 237.215 116.868 235.12C119.486 233.412 122.497 232.405 125.614 232.195C127.716 232.044 129.828 232.238 131.868 232.769C133.312 233.149 134.071 233.485 134.09 233.445C133.918 233.337 133.735 233.248 133.543 233.179C133.012 232.95 132.468 232.755 131.912 232.596C129.863 231.993 127.726 231.749 125.595 231.874C122.408 232.039 119.32 233.035 116.636 234.764C113.336 236.891 110.768 239.983 109.279 243.622L109.713 243.656L109.683 243.548C108.758 239.704 106.591 236.275 103.518 233.796C101.019 231.782 98.005 230.515 94.8207 230.14C92.6894 229.874 90.5273 230.007 88.4442 230.531C87.88 230.666 87.3265 230.842 86.7884 231.059C86.6045 231.125 86.4265 231.206 86.2562 231.301Z" fill="#9C9B9B"/>
<path d="M23.3531 196.702C23.3531 196.742 23.7966 196.579 24.6047 196.411C25.7403 196.179 26.9073 196.146 28.0542 196.312C29.7471 196.547 31.3429 197.244 32.6666 198.328C34.2827 199.658 35.4241 201.478 35.9189 203.515V203.574L36.0914 204.256L36.3526 203.609C37.1469 201.675 38.5055 200.027 40.2504 198.881C41.6762 197.946 43.3162 197.39 45.0156 197.266C46.1649 197.174 47.3214 197.269 48.4404 197.547C49.2338 197.745 49.6576 197.918 49.6724 197.878C49.6872 197.839 49.5788 197.809 49.3817 197.715C49.0911 197.581 48.7914 197.467 48.4848 197.374C47.3565 197.024 46.1751 196.879 44.9959 196.945C43.2276 197.026 41.5115 197.571 40.0189 198.525C38.1839 199.701 36.7555 201.416 35.9288 203.436L36.3624 203.475V203.411C35.8453 201.273 34.6314 199.37 32.913 198.002C31.749 197.076 30.3861 196.435 28.932 196.129C27.478 195.823 25.9728 195.86 24.5357 196.238C24.2262 196.317 23.9231 196.419 23.629 196.544C23.4516 196.633 23.3481 196.688 23.3531 196.702Z" fill="#9C9B9B"/>
<path d="M64.4804 182.539C64.4508 182.569 64.9091 183.033 65.6877 183.912C66.7831 185.159 67.7721 186.496 68.6443 187.909C71.5422 192.573 73.0628 197.965 73.0301 203.46V203.657L73.4884 203.692C73.9363 200.74 74.8952 197.89 76.3218 195.269C78.2846 191.681 81.0427 188.591 84.3837 186.239C85.3397 185.577 85.8916 185.251 85.862 185.212C85.7122 185.259 85.5697 185.328 85.4382 185.414C85.1721 185.567 84.7631 185.765 84.2753 186.096C82.8796 186.99 81.5814 188.028 80.402 189.193C76.451 193.081 73.8583 198.143 73.0104 203.628L73.4637 203.667V203.465C73.5031 197.887 71.9153 192.42 68.8957 187.736C67.9939 186.321 66.9575 184.998 65.801 183.784C65.4019 183.344 65.0471 183.048 64.8155 182.835C64.7159 182.724 64.6034 182.624 64.4804 182.539Z" fill="#9C9B9B"/>
<path opacity="0.02" d="M114.882 63.1998C114.882 63.1998 124.427 33.1056 88.9469 18.0733C53.4668 3.04098 -3.84826 24.9102 -1.11827 39.9622C1.61172 55.0142 28.9117 70.0416 9.80666 71.4248C-9.29837 72.808 -21.5784 44.0624 -61.1535 57.7411C-100.729 71.4198 -54.3285 89.2086 -63.8786 89.2086C-73.4286 89.2086 -99.3586 82.3668 -122.559 89.2086C-145.759 96.0505 -122.559 108.361 -35.2235 115.198C52.1117 122.035 31.6417 104.256 64.3917 101.519C97.1418 98.7823 93.0518 113.829 162.642 101.519C232.232 89.2086 207.677 46.7843 114.882 63.1998Z" fill="black"/>
</g>
<defs>
<clipPath id="clip0_413_5980">
<rect width="503.417" height="190.499" fill="white" transform="matrix(-1 0 0 1 200.417 293.634)"/>
</clipPath>
<clipPath id="clip1_413_5980">
<rect width="308.216" height="343.625" fill="white" transform="matrix(-1 0 0 1 549.216 98.6992)"/>
</clipPath>
<clipPath id="clip2_413_5980">
<rect width="333.641" height="231.437" fill="white" transform="translate(-131 13)"/>
</clipPath>
</defs>
</svg>
