<svg width="22" height="21" viewBox="0 0 22 21" fill="none" xmlns="http://www.w3.org/2000/svg">
<path d="M4.6805 2.07316C4.13066 2.07316 3.60335 2.29158 3.21455 2.68037C2.82576 3.06917 2.60734 3.59648 2.60734 4.14632V16.5853C2.60734 17.1351 2.82576 17.6624 3.21455 18.0512C3.60335 18.44 4.13066 18.6584 4.6805 18.6584H17.1195C17.6693 18.6584 18.1966 18.44 18.5854 18.0512C18.9742 17.6624 19.1926 17.1351 19.1926 16.5853V4.14632C19.1926 3.59648 18.9742 3.06917 18.5854 2.68037C18.1966 2.29158 17.6693 2.07316 17.1195 2.07316H4.6805ZM4.6805 0H17.1195C18.2191 0 19.2738 0.436843 20.0513 1.21443C20.8289 1.99201 21.2658 3.04665 21.2658 4.14632V16.5853C21.2658 17.6849 20.8289 18.7396 20.0513 19.5172C19.2738 20.2948 18.2191 20.7316 17.1195 20.7316H4.6805C3.58083 20.7316 2.52619 20.2948 1.74861 19.5172C0.971023 18.7396 0.53418 17.6849 0.53418 16.5853V4.14632C0.53418 3.04665 0.971023 1.99201 1.74861 1.21443C2.52619 0.436843 3.58083 0 4.6805 0Z" fill="white" fill-opacity="0.5"/>
<path d="M16.1807 6.58988C15.939 6.58988 15.7028 6.51823 15.5019 6.38399C15.301 6.24975 15.1444 6.05894 15.052 5.83571C14.9595 5.61247 14.9353 5.36683 14.9825 5.12984C15.0296 4.89286 15.1459 4.67517 15.3168 4.50431C15.4877 4.33345 15.7053 4.2171 15.9423 4.16996C16.1793 4.12282 16.425 4.14701 16.6482 4.23948C16.8714 4.33195 17.0622 4.48854 17.1965 4.68944C17.3307 4.89035 17.4024 5.12655 17.4024 5.36818C17.4027 5.52872 17.3714 5.68774 17.3101 5.83611C17.2488 5.98449 17.1588 6.11931 17.0453 6.23282C16.9318 6.34634 16.797 6.43631 16.6486 6.49759C16.5002 6.55886 16.3412 6.59023 16.1807 6.58988ZM10.8868 7.40406C11.5312 7.40406 12.1611 7.59514 12.6968 7.95313C13.2326 8.31112 13.6502 8.81996 13.8968 9.41528C14.1434 10.0106 14.2079 10.6657 14.0822 11.2977C13.9565 11.9297 13.6462 12.5102 13.1906 12.9658C12.7349 13.4215 12.1544 13.7318 11.5224 13.8575C10.8904 13.9832 10.2353 13.9187 9.64001 13.6721C9.04469 13.4255 8.53586 13.0079 8.17786 12.4721C7.81987 11.9363 7.62879 11.3064 7.62879 10.6621C7.62971 9.79827 7.97326 8.97012 8.58406 8.35933C9.19485 7.74853 10.023 7.40498 10.8868 7.40406ZM10.8868 5.77527C9.92028 5.77527 8.97547 6.06188 8.17184 6.59884C7.36821 7.13581 6.74186 7.89902 6.37199 8.79197C6.00212 9.68491 5.90534 10.6675 6.0939 11.6154C6.28246 12.5634 6.74788 13.4341 7.43131 14.1175C8.11474 14.801 8.98548 15.2664 9.93343 15.455C10.8814 15.6435 11.8639 15.5467 12.7569 15.1769C13.6498 14.807 14.413 14.1807 14.95 13.377C15.487 12.5734 15.7736 11.6286 15.7736 10.6621C15.7736 9.36601 15.2587 8.12303 14.3423 7.20658C13.4258 6.29013 12.1829 5.77527 10.8868 5.77527Z" fill="white" fill-opacity="0.5"/>
</svg>
