<svg width="21" height="21" viewBox="0 0 21 21" fill="none" xmlns="http://www.w3.org/2000/svg">
<path d="M15.617 11.5372V15.3694H13.3956V11.7932C13.3956 10.8955 13.0743 10.2829 12.2699 10.2829C11.6562 10.2829 11.2903 10.6955 11.1297 11.0956C11.0716 11.2387 11.0561 11.4377 11.0561 11.6367V15.3694H8.83364C8.83364 15.3694 8.8637 9.31372 8.83364 8.68659H11.0561V9.63299L11.0416 9.65476H11.0561V9.63299C11.3515 9.1769 11.8781 8.52903 13.0587 8.52903C14.5203 8.52903 15.617 9.48476 15.617 11.5372ZM6.50859 5.46387C5.74878 5.46387 5.25122 5.9635 5.25122 6.61862C5.25122 7.2613 5.73427 7.7744 6.47957 7.7744H6.49408C7.26944 7.7744 7.75145 7.26026 7.75145 6.61862C7.73694 5.9635 7.26944 5.46387 6.50859 5.46387ZM5.38287 15.3694H7.60529V8.68659H5.38287V15.3694Z" fill="white" fill-opacity="0.5"/>
<path d="M4.21468 2.07316C3.66484 2.07316 3.13753 2.29158 2.74873 2.68037C2.35994 3.06917 2.14152 3.59648 2.14152 4.14632V16.5853C2.14152 17.1351 2.35994 17.6624 2.74873 18.0512C3.13753 18.44 3.66484 18.6584 4.21468 18.6584H16.6536C17.2035 18.6584 17.7308 18.44 18.1196 18.0512C18.5084 17.6624 18.7268 17.1351 18.7268 16.5853V4.14632C18.7268 3.59648 18.5084 3.06917 18.1196 2.68037C17.7308 2.29158 17.2035 2.07316 16.6536 2.07316H4.21468ZM4.21468 0H16.6536C17.7533 0 18.8079 0.436843 19.5855 1.21443C20.3631 1.99201 20.8 3.04665 20.8 4.14632V16.5853C20.8 17.6849 20.3631 18.7396 19.5855 19.5172C18.8079 20.2948 17.7533 20.7316 16.6536 20.7316H4.21468C3.11501 20.7316 2.06037 20.2948 1.28279 19.5172C0.505203 18.7396 0.0683594 17.6849 0.0683594 16.5853V4.14632C0.0683594 3.04665 0.505203 1.99201 1.28279 1.21443C2.06037 0.436843 3.11501 0 4.21468 0Z" fill="white" fill-opacity="0.5"/>
</svg>
