<svg width="134" height="65" viewBox="0 0 134 65" fill="none" xmlns="http://www.w3.org/2000/svg">
<path d="M57.1161 0H7.72753C3.45973 0 0 3.45973 0 7.72753V57.1161C0 61.3839 3.45973 64.8437 7.72753 64.8437H57.1161C61.3839 64.8437 64.8437 61.3839 64.8437 57.1161V7.72753C64.8437 3.45973 61.3839 0 57.1161 0Z" fill="#E33443"/>
<path d="M25.5345 55.1738H39.3068L32.4218 61.4559L25.5345 55.1738Z" fill="white"/>
<path d="M50.8277 9.32812H14.014C11.5199 9.32812 9.49805 11.35 9.49805 13.844V50.6578C9.49805 53.1518 11.5199 55.1737 14.014 55.1737H50.8277C53.3218 55.1737 55.3436 53.1518 55.3436 50.6578V13.844C55.3436 11.35 53.3218 9.32812 50.8277 9.32812Z" fill="white"/>
<path d="M39.6682 48.7083C36.9056 48.7083 34.143 48.7083 31.3804 48.7083C29.2828 48.7083 27.1853 48.7083 25.0898 48.7083L22.4683 48.6955C20.2489 48.5095 18.5704 47.1859 17.9653 45.1717C17.8298 44.71 17.7628 44.2309 17.7664 43.7498C17.7664 38.2845 17.7771 28.4957 17.7664 23.0326C17.7664 22.1581 18.5233 21.7967 19.1327 22.0661C19.5604 22.2521 19.6651 22.6071 19.663 23.0347C19.663 24.9591 19.6887 31.2091 19.6459 33.1314C19.6226 33.4254 19.67 33.7207 19.7842 33.9927C19.8984 34.2646 20.0761 34.5052 20.3023 34.6944C21.2538 35.5497 22.1519 36.4734 23.0585 37.38C23.4274 37.7625 23.8714 38.0644 24.3627 38.2668C24.8539 38.4692 25.3818 38.5677 25.913 38.5561C30.2664 38.5461 34.6206 38.5461 38.9754 38.5561C39.96 38.5814 40.916 38.2234 41.6418 37.5575C42.0929 37.1448 42.6339 37.1299 42.9995 37.4805C43.3652 37.8312 43.3694 38.4342 42.9995 38.8918C42.5872 39.3549 42.0663 39.7083 41.4835 39.9202C40.6566 40.2772 39.7648 40.4592 38.8642 40.4548C34.4103 40.4398 29.9585 40.4548 25.5068 40.4548C24.4376 40.4548 23.5182 40.04 22.6629 39.4477C21.7136 38.7891 20.9203 37.9509 20.1184 37.1384C20.0056 37.0082 19.902 36.8703 19.8084 36.7257L19.6887 36.8241C19.6887 36.9075 19.6758 36.9909 19.6758 37.0764C19.6758 39.2595 19.6758 41.4427 19.6758 43.6258C19.6758 45.2979 20.6872 46.5102 22.2674 46.7775C22.4748 46.8067 22.6844 46.8189 22.8938 46.8139H41.9882C43.9126 46.8139 45.2104 45.5309 45.2126 43.5916C45.2126 36.8918 45.2126 30.1921 45.2126 23.4923C45.2126 23.1673 45.1014 23.1181 44.8106 23.1181C36.2264 23.1181 27.6421 23.1181 19.0579 23.1181C18.4656 23.1181 17.8733 23.1181 17.281 23.1181C16.3295 23.1288 15.7052 23.7596 15.7009 24.6961C15.7009 25.7075 15.7009 26.7189 15.7009 27.7303C15.7113 27.9294 15.6581 28.1267 15.5489 28.2935C15.4398 28.4604 15.2803 28.5881 15.0936 28.6582C14.9219 28.73 14.7325 28.748 14.5504 28.7098C14.3683 28.6716 14.2021 28.5791 14.0737 28.4444C13.9104 28.289 13.8151 28.0753 13.8086 27.85C13.8086 26.6654 13.7187 25.4766 13.8363 24.2984C14.0181 22.4852 15.3951 21.2429 17.2703 21.2557C17.9802 21.2557 18.3159 21.0269 18.5939 20.4197C19.0215 19.4896 19.524 18.5979 20.0073 17.6977C20.6808 16.4447 21.7349 15.8054 23.159 15.8054H41.6952C42.3549 15.7791 43.0078 15.9476 43.5724 16.2898C44.1371 16.632 44.5885 17.1328 44.8705 17.7298C45.4414 18.7989 46.0123 19.8851 46.5704 20.9692C46.604 21.0603 46.6676 21.1372 46.7508 21.1874C46.8339 21.2375 46.9317 21.2578 47.0279 21.245C47.6441 21.1949 48.264 21.2676 48.8518 21.4589C49.4946 21.701 50.0492 22.1317 50.443 22.6945C50.8368 23.2573 51.0513 23.9259 51.0585 24.6127C51.0841 25.6498 51.0734 26.6868 51.0585 27.7217C51.0585 28.3375 50.6715 28.7181 50.1006 28.7117C49.5297 28.7053 49.164 28.329 49.1597 27.7067C49.1597 26.721 49.1597 25.7332 49.1597 24.7474C49.1597 23.6783 48.3451 22.9834 47.2845 23.1138C47.152 23.1309 47.0707 23.1652 47.0878 23.3127C47.0878 23.4089 47.0878 23.5094 47.0878 23.6078C47.0878 30.3075 47.0878 37.0073 47.0878 43.707C47.1071 44.8706 46.7131 46.0033 45.9759 46.9038C45.2387 47.8042 44.206 48.4141 43.0615 48.6249L42.9525 48.6485L39.6682 48.7083ZM32.4303 21.2194C36.3518 21.2194 40.2719 21.2194 44.1905 21.2194C44.4856 21.2194 44.5668 21.1788 44.4043 20.8858C43.9874 20.131 43.5897 19.3655 43.1941 18.6001C43.0614 18.3128 42.8451 18.0721 42.5735 17.9096C42.3019 17.7471 41.9876 17.6703 41.6717 17.6892C35.5051 17.6892 29.3384 17.6892 23.1718 17.6892C22.8501 17.6717 22.5307 17.7525 22.2561 17.921C21.9815 18.0894 21.7647 18.3375 21.6344 18.6321C21.2581 19.3677 20.869 20.0947 20.4841 20.8259C20.2703 21.213 20.2703 21.213 20.7321 21.213L32.4303 21.2194Z" fill="#E33443"/>
<path d="M22.4214 43.6268C22.4166 43.4511 22.4479 43.2762 22.5135 43.1131C22.579 42.95 22.6774 42.802 22.8025 42.6785C22.9276 42.555 23.0768 42.4586 23.2408 42.3951C23.4047 42.3316 23.58 42.3026 23.7556 42.3097C23.9329 42.3025 24.1098 42.3313 24.2757 42.3942C24.4416 42.4571 24.5931 42.5529 24.7211 42.6758C24.8491 42.7987 24.9509 42.9462 25.0204 43.1095C25.09 43.2727 25.1258 43.4483 25.1258 43.6257C25.1258 43.8032 25.09 43.9788 25.0204 44.142C24.9509 44.3053 24.8491 44.4528 24.7211 44.5757C24.5931 44.6986 24.4416 44.7944 24.2757 44.8573C24.1098 44.9202 23.9329 44.949 23.7556 44.9418C23.5802 44.9489 23.4051 44.9199 23.2413 44.8566C23.0775 44.7932 22.9284 44.6969 22.8033 44.5737C22.6782 44.4504 22.5798 44.3027 22.5141 44.1399C22.4484 43.977 22.4168 43.8024 22.4214 43.6268Z" fill="#E33443"/>
<path d="M42.4372 43.644C42.4401 43.8197 42.4069 43.994 42.3396 44.1563C42.2723 44.3185 42.1724 44.4652 42.0462 44.5873C41.9199 44.7094 41.7699 44.8042 41.6054 44.866C41.441 44.9277 41.2656 44.955 41.0902 44.9462C40.9129 44.9514 40.7365 44.9208 40.5714 44.8562C40.4063 44.7915 40.2559 44.6942 40.1293 44.5701C40.0027 44.4459 39.9025 44.2975 39.8347 44.1337C39.7668 43.9699 39.7327 43.7941 39.7344 43.6168C39.7362 43.4395 39.7737 43.2644 39.8447 43.1019C39.9157 42.9395 40.0189 42.793 40.1478 42.6714C40.2768 42.5498 40.4291 42.4554 40.5954 42.394C40.7617 42.3326 40.9387 42.3054 41.1158 42.3141C41.2916 42.3087 41.4665 42.3394 41.6298 42.4045C41.7932 42.4695 41.9414 42.5674 42.0653 42.6921C42.1892 42.8169 42.2862 42.9657 42.3501 43.1295C42.4141 43.2932 42.4438 43.4684 42.4372 43.644Z" fill="#E33443"/>
<path d="M76.827 55.7695C75.9849 55.7695 75.2995 55.5149 74.7707 55.0058C74.242 54.4966 73.9776 53.8308 73.9776 53.0083V35.2071H84.2001C86.0605 35.2071 87.5488 35.6477 88.665 36.529C89.8009 37.4102 90.3688 38.595 90.3688 40.0834V41.5521C90.3688 42.1983 90.2023 42.8152 89.8694 43.4027C89.5561 43.9902 89.1057 44.47 88.5182 44.8421V44.8715C89.4582 45.2044 90.2121 45.7429 90.78 46.4871C91.3675 47.2312 91.6613 48.0635 91.6613 48.9839V50.5114C91.6613 52.1173 91.0738 53.4 89.8988 54.3595C88.7434 55.2995 87.1767 55.7695 85.1988 55.7695H76.827ZM84.2001 43.7258C84.8267 43.7258 85.3359 43.53 85.7276 43.1383C86.1192 42.7271 86.3151 42.1886 86.3151 41.5227V40.524C86.3151 39.9756 86.1094 39.5448 85.6982 39.2315C85.2869 38.8986 84.7386 38.7321 84.0532 38.7321H78.0313V43.7258H84.2001ZM84.9051 52.2445C85.7667 52.2445 86.4326 52.0781 86.9026 51.7452C87.3726 51.3927 87.6076 50.9031 87.6076 50.2764V48.9839C87.6076 48.416 87.4019 47.9558 86.9907 47.6033C86.5794 47.2508 86.0311 47.0746 85.3457 47.0746H78.0313V52.2445H84.9051ZM101.426 56.0045C99.9772 56.0045 98.7043 55.701 97.6076 55.0939C96.511 54.4672 95.6591 53.5958 95.052 52.4795C94.4449 51.3633 94.1414 50.0708 94.1414 48.6021V35.2071H98.1951V48.4846C98.1951 49.6596 98.4889 50.6093 99.0764 51.3339C99.6834 52.0585 100.467 52.4208 101.426 52.4208H104.54C105.519 52.4208 106.312 52.0585 106.919 51.3339C107.527 50.6093 107.83 49.6596 107.83 48.4846V35.2071H111.884V48.6021C111.884 50.0708 111.58 51.3633 110.973 52.4795C110.366 53.5958 109.504 54.4672 108.388 55.0939C107.272 55.701 105.989 56.0045 104.54 56.0045H101.426ZM121.569 56.0045C119.415 56.0045 117.731 55.4072 116.517 54.2127C115.303 52.9985 114.696 51.3143 114.696 49.1602H118.691C118.691 50.1785 118.945 50.9814 119.454 51.5689C119.983 52.1368 120.708 52.4208 121.628 52.4208H124.889C125.751 52.4208 126.446 52.2445 126.974 51.892C127.523 51.52 127.797 51.0304 127.797 50.4233V49.4246C127.797 48.465 127.092 47.8677 125.682 47.6327L120.277 46.7221C118.514 46.4283 117.173 45.8702 116.253 45.0477C115.352 44.2056 114.901 43.1383 114.901 41.8458V40.2009C114.901 39.1629 115.176 38.2523 115.724 37.469C116.292 36.6661 117.085 36.0492 118.103 35.6184C119.141 35.1875 120.336 34.9721 121.687 34.9721H125.006C126.279 34.9721 127.405 35.2365 128.384 35.7652C129.364 36.294 130.118 37.0382 130.646 37.9977C131.195 38.9377 131.469 40.0344 131.469 41.2877H127.474C127.474 40.4652 127.249 39.8092 126.798 39.3196C126.348 38.8104 125.751 38.5559 125.006 38.5559H121.687C120.864 38.5559 120.199 38.7321 119.689 39.0846C119.2 39.4371 118.955 39.9071 118.955 40.4946V41.2877C118.955 42.2669 119.631 42.874 120.982 43.109L126.358 44.049C128.14 44.3623 129.501 44.9204 130.441 45.7233C131.381 46.5067 131.851 47.525 131.851 48.7783V50.7171C131.851 51.755 131.557 52.6754 130.969 53.4783C130.402 54.2812 129.599 54.9079 128.561 55.3583C127.523 55.7891 126.318 56.0045 124.948 56.0045H121.569Z" fill="white"/>
<path d="M73.9776 10.3927H77.5907L84.3176 22.6126L90.8975 10.3927H94.5106V30.9551H90.545V17.942L86.2269 25.7557C85.9332 26.2845 85.6296 26.6663 85.3163 26.9013C85.0226 27.1168 84.6799 27.2245 84.2882 27.2245H83.1719L77.9432 17.942V30.9551H73.9776V10.3927ZM103.888 22.9651L96.2802 10.3927H100.686L105.915 19.2345L111.144 10.3927H115.55L107.942 22.9651V30.9551H103.888V22.9651Z" fill="white"/>
</svg>
