<svg width="414" height="497" viewBox="0 0 414 497" fill="none" xmlns="http://www.w3.org/2000/svg">
<path d="M414 480H-9.88519e-07" stroke="white" stroke-width="3.07028" stroke-miterlimit="10"/>
<path d="M414 429H-9.88519e-07" stroke="white" stroke-width="3.07028" stroke-miterlimit="10"/>
<g opacity="0.15">
<path d="M414 454.104L0.000145905 454.104" stroke="white" stroke-width="3.07028" stroke-miterlimit="10" stroke-dasharray="37.41 37.41"/>
</g>
<g opacity="0.13">
<path d="M214.466 428.967L214.575 428.883C225.58 420.677 233.004 403.641 236.641 378.253C239.635 357.33 240.095 330.637 237.994 298.924C233.587 232.082 219.911 169.328 219.329 166.688C210.919 128.423 207.297 81.9436 207.262 81.4806L207.224 81.0068L206.764 81.1178C195.23 83.8686 185.759 86.3 177.588 90.4262C168.569 94.9774 161.727 101.351 156.055 110.486C143.671 130.432 135.354 166.531 128.247 231.153C120.731 299.517 103.912 349.118 91.1243 378.686C77.281 410.708 65.0675 426.763 64.9457 426.92L64.4502 427.564H65.2624L214.466 428.967ZM206.498 82.0032C206.904 87.0174 210.578 130.605 218.546 166.853C219.126 169.487 232.791 232.184 237.193 298.978C239.283 330.656 238.817 357.281 235.839 378.15C232.249 403.232 224.969 420.059 214.204 428.163L66.0747 426.771C68.4681 423.473 79.539 407.548 91.8797 379.008C100.032 360.159 107.139 339.563 112.998 317.798C120.33 290.593 125.723 261.482 129.056 231.242C143.774 97.4304 163.468 92.27 206.498 82.0032Z" fill="white"/>
<path d="M184.389 428.685L177.116 90.6582L176.534 90.9669C176.02 91.2376 175.506 91.5084 175.005 91.8089L174.796 91.928L182.055 428.663L184.389 428.685ZM176.334 91.9957L183.56 427.867H182.835L175.617 92.41C175.855 92.2583 176.098 92.1257 176.334 91.9957Z" fill="white"/>
<path d="M188.615 428.724L181.305 88.6885L180.764 88.9349C180.249 89.1587 179.739 89.3897 179.234 89.628L178.996 89.739L186.29 428.716L188.615 428.724ZM180.515 89.9231L187.787 427.903H187.061L179.794 90.2507L180.515 89.9231Z" fill="white"/>
<path d="M197.065 428.803L189.682 85.624L189.165 85.7892C188.65 85.9534 188.14 86.1213 187.632 86.2928L187.362 86.3875L194.718 428.773L197.065 428.803ZM188.894 86.7287L196.237 427.985H195.511L188.174 86.9669L188.894 86.7287Z" fill="white"/>
<path d="M159.041 428.445L152.335 117.174L151.601 118.725C151.1 119.781 150.605 120.875 150.128 121.974L150.093 122.055L156.686 428.42L159.041 428.445ZM151.601 120.661L158.205 427.633H157.479L150.919 122.218C151.139 121.693 151.366 121.174 151.601 120.661Z" fill="white"/>
<path d="M163.26 428.486L156.404 109.913L155.684 111.102C155.183 111.914 154.682 112.788 154.192 113.668L154.141 113.763L160.909 428.464L163.26 428.486ZM155.654 112.737L162.423 427.666H161.697L154.956 113.966C155.186 113.552 155.419 113.14 155.654 112.737Z" fill="white"/>
<path d="M175.936 428.605L168.788 95.9697L168.144 96.4923C167.624 96.9119 167.112 97.3451 166.622 97.7756L166.481 97.9002L173.597 428.584L175.936 428.605ZM168.006 97.6484L175.107 427.785H174.382L167.294 98.2603C167.526 98.0572 167.765 97.8541 168.006 97.6484Z" fill="white"/>
<path d="M171.71 428.564L164.632 99.6055L163.958 100.293C163.465 100.797 162.956 101.338 162.445 101.918L162.336 102.037L169.362 428.559L171.71 428.564ZM163.858 101.566L170.876 427.747H170.15L163.154 102.332C163.392 102.069 163.644 101.815 163.863 101.566H163.858Z" fill="white"/>
<path d="M224.069 418.306L224.792 417.084C225.301 416.223 225.805 415.322 226.281 414.412L226.33 414.32L221.186 175.488C220.58 172.48 220.003 169.721 219.472 167.284L218.66 167.379L224.069 418.306ZM225.515 414.128C225.288 414.561 225.055 414.992 224.817 415.414L219.572 171.654C219.836 172.918 220.107 174.237 220.385 175.612L225.515 414.128Z" fill="white"/>
<path d="M236.681 377.955C237.185 374.39 237.623 370.621 237.978 366.749V366.703L235.996 274.67C235.43 268.868 234.783 262.901 234.077 256.912L233.264 256.966L235.866 377.909L236.681 377.955ZM237.169 366.698C236.99 368.655 236.79 370.586 236.568 372.478L234.274 265.828C234.599 268.828 234.905 271.784 235.192 274.719L237.169 366.698Z" fill="white"/>
<path d="M232.119 399.767L232.855 397.059C233.353 395.224 233.833 393.293 234.274 391.322V391.225L230.854 232.296V232.271C230.28 228.256 229.677 224.187 229.057 220.18L228.244 220.25L232.119 399.767ZM233.473 391.19C233.258 392.143 233.037 393.084 232.809 394.013L229.203 226.523C229.492 228.476 229.775 230.423 230.053 232.363L233.473 391.19Z" fill="white"/>
<path d="M201.292 428.843L193.881 84.3809L193.375 84.5244C192.861 84.6706 192.351 84.8186 191.845 84.9684L191.547 85.0577L198.944 428.827L201.292 428.843ZM193.093 85.4449L200.466 428.022H199.74L192.371 85.6534L193.093 85.4449Z" fill="white"/>
<path d="M219.96 423.867L220.655 423.022C221.148 422.424 221.641 421.785 222.163 421.073L222.245 420.962L216.461 152.38C215.863 149.131 215.273 145.754 214.71 142.332L213.897 142.405L219.96 423.867ZM221.43 420.704C221.188 421.029 220.952 421.341 220.723 421.639L214.834 147.893C215.105 149.447 215.376 150.982 215.646 152.496L221.43 420.704Z" fill="white"/>
<path d="M209.744 428.923L202.282 82.1895L201.792 82.3113L200.263 82.6903L199.948 82.7716L207.397 428.901L209.744 428.923ZM201.494 83.221L208.916 428.105H208.19L200.772 83.4078L201.494 83.221Z" fill="white"/>
<path d="M213.971 428.963L206.487 81.1768L205.946 81.304L204.459 81.6587L204.142 81.7372L211.612 428.942L213.971 428.963ZM205.696 82.1975L213.142 428.146H212.416L204.976 82.3708L205.696 82.1975Z" fill="white"/>
<path d="M108.322 427.961L106.378 337.574L105.639 339.876C105.181 341.302 104.71 342.743 104.199 344.278L104.177 344.346L105.975 427.961H108.322ZM105.671 342.404L107.494 427.149H106.768L104.989 344.481C105.225 343.772 105.452 343.087 105.671 342.404Z" fill="white"/>
<path d="M87.1931 427.77L86.3646 389.245L85.6309 390.786C85.1363 391.822 84.6463 392.836 84.1608 393.829L84.1174 393.916L84.8457 427.737L87.1931 427.77ZM85.6282 392.676L86.3646 426.952H85.639L84.9324 394.119L85.6282 392.676Z" fill="white"/>
<path d="M95.6456 427.85L94.4191 370.854L93.6799 372.644C93.1926 373.826 92.7061 374.989 92.2206 376.131L92.1881 376.213L93.2982 427.828L95.6456 427.85ZM93.6908 374.729L94.8171 427.032H94.0915L93.0085 376.378C93.2305 375.825 93.4606 375.281 93.6908 374.729Z" fill="white"/>
<path d="M82.961 427.731L82.3139 397.559L81.5802 398.991C81.0847 399.963 80.5919 400.919 80.1073 401.839L80.0586 401.931L80.6001 427.709L82.961 427.731ZM81.5721 400.783L82.1325 426.91H81.4069L80.8654 402.129C81.1118 401.698 81.3365 401.235 81.5775 400.783H81.5721Z" fill="white"/>
<path d="M99.872 427.89L98.4235 360.623L97.6844 362.559C97.1988 363.822 96.7142 365.072 96.2305 366.309L96.2007 366.385L97.5246 427.866L99.872 427.89ZM97.706 364.771L99.0598 427.07H98.3342L97.0319 366.536L97.706 364.771Z" fill="white"/>
<path d="M74.5164 427.65L74.1915 412.575L73.4685 413.802C72.9568 414.665 72.4614 415.494 71.9876 416.271L71.9253 416.374L72.169 427.629L74.5164 427.65ZM73.4334 415.432L73.6797 426.833H72.9541L72.7321 416.599C72.9704 416.217 73.214 415.827 73.4415 415.432H73.4334Z" fill="white"/>
<path d="M70.2901 427.611L70.1114 419.305L69.3939 420.423C68.8931 421.2 68.4084 421.942 67.9102 422.689L67.8398 422.795L67.9427 427.59L70.2901 427.611ZM69.3587 421.966L69.4616 426.791H68.736L68.6548 423.038C68.8876 422.683 69.1223 422.325 69.3587 421.966Z" fill="white"/>
<path d="M150.58 428.367L144.334 138.062L143.598 140.632C143.113 142.321 142.634 144.073 142.171 145.841V145.952L148.247 428.342L150.58 428.367ZM143.641 143.486L149.752 427.546H149.026L142.97 145.993C143.19 145.152 143.414 144.316 143.641 143.486Z" fill="white"/>
<path d="M66.0636 427.57L66.0176 425.464L65.3137 426.428C65.0808 426.744 64.9536 426.91 64.9536 426.912L64.4581 427.557L66.0636 427.57Z" fill="white"/>
<path d="M133.677 428.208L129.378 228.347L128.566 228.312C128.463 229.251 128.357 230.207 128.252 231.144C127.981 233.678 127.661 236.328 127.271 239.491V239.55L131.333 428.186L133.677 428.208ZM128.698 234.439L132.849 427.39H132.123L128.084 239.569C128.311 237.707 128.514 236.025 128.698 234.439Z" fill="white"/>
<path d="M137.904 428.248L132.979 199.36L132.167 199.312C131.726 202.485 131.282 205.828 130.843 209.251V209.31L135.554 428.226L137.904 428.248ZM132.281 204.548L137.076 427.428H136.35L131.658 209.329C131.864 207.712 132.071 206.118 132.281 204.548Z" fill="white"/>
<path d="M146.357 428.326L140.427 152.815L139.699 156.064C139.222 158.201 138.751 160.396 138.302 162.606V162.695L144.017 428.299L146.357 428.326ZM139.761 159.587L145.528 427.508H144.802L139.117 162.744C139.32 161.682 139.547 160.629 139.761 159.587Z" fill="white"/>
<path d="M112.548 428.006L110.32 324.447L109.584 326.987C109.126 328.552 108.66 330.13 108.151 331.812L108.132 331.874L110.201 427.989L112.548 428.006ZM109.624 329.724L111.72 427.193H110.994L108.953 331.985C109.18 331.213 109.405 330.463 109.624 329.724Z" fill="white"/>
<path d="M121.001 428.088L118.104 293.491L117.376 296.719C116.867 298.966 116.407 300.95 115.971 302.783V302.886L118.665 428.067L121.001 428.088ZM117.435 300.089L120.173 427.271H119.447L116.772 302.929C116.986 302.02 117.205 301.08 117.435 300.089Z" fill="white"/>
<path d="M125.227 428.129L121.922 274.574L121.201 278.348C120.779 280.558 120.327 282.848 119.818 285.35V285.439L122.885 428.105L125.227 428.129ZM121.274 282.209L124.399 427.309H123.673L120.619 285.475C120.849 284.343 121.066 283.26 121.274 282.209Z" fill="white"/>
<g style="mix-blend-mode:color-burn" opacity="0.39">
<path d="M214.466 428.971L214.574 428.887C225.58 420.68 233.004 403.648 236.64 378.257C239.635 357.334 240.095 330.64 237.994 298.928C233.586 232.085 219.911 169.331 219.332 166.692C210.919 128.427 207.297 81.9475 207.262 81.4846L207.226 81.0107L206.763 81.1217C195.232 83.8726 185.759 86.3039 177.588 90.4301C168.569 94.9814 161.73 101.355 156.058 110.49C143.671 130.436 135.354 166.535 128.246 231.157C120.73 299.523 103.912 349.122 91.1242 378.69C77.2808 410.711 65.0674 426.767 64.9455 426.924L64.4501 427.571H65.2623L214.466 428.971ZM206.498 82.0098C206.904 87.0214 210.578 130.612 218.546 166.857C219.126 169.491 232.79 232.188 237.193 298.982C239.283 330.659 238.817 357.285 235.839 378.154C232.249 403.236 224.968 420.063 214.204 428.167L66.0746 426.775C68.4707 423.477 79.5388 407.552 91.8795 379.012C100.032 360.163 107.139 339.567 112.998 317.802C120.33 290.597 125.723 261.486 129.056 231.246C143.774 97.4343 163.468 92.2739 206.498 82.0098Z" fill="white"/>
</g>
<g style="mix-blend-mode:color-burn" opacity="0.39">
<path d="M214.467 428.971L214.575 428.89C214.735 428.771 214.889 428.649 215.043 428.524L216.107 427.688L112.644 425.757C114.376 419.492 131.463 355.696 145.188 230.889C158.14 113.067 174.848 95.5283 207.3 85.6677L207.614 85.5729L207.587 85.2453C207.373 82.8086 207.27 81.4738 207.27 81.4738L207.235 81L206.772 81.111C195.241 83.8618 185.767 86.2931 177.596 90.4193C168.578 94.9706 161.738 101.344 156.064 110.479C143.68 130.425 135.362 166.524 128.255 231.146C120.742 299.491 103.928 349.081 91.1625 378.644C77.3165 410.679 65.0895 426.756 64.9677 426.913L64.4722 427.56H65.2844L214.467 428.971ZM206.75 84.9881C189.994 90.1323 177.607 97.5508 167.744 118.347C157.842 139.219 150.638 173.902 144.381 230.799C129.99 361.682 111.905 425.413 111.723 426.041L111.577 426.55L181.14 427.845L66.0723 426.762C68.4684 423.464 79.5366 407.538 91.8773 378.999C100.03 360.149 107.137 339.554 112.996 317.788C120.328 290.583 125.721 261.473 129.054 231.233C143.766 97.4317 163.46 92.2712 206.488 82.0072C206.542 82.5568 206.626 83.5694 206.75 84.9881Z" fill="white"/>
</g>
<g style="mix-blend-mode:overlay">
<path d="M214.466 428.967L214.572 428.886C225.577 420.68 233.001 403.647 236.637 378.256C239.632 357.333 240.092 330.64 237.991 298.927C233.583 232.085 219.908 169.331 219.326 166.691C210.914 128.426 207.294 81.9466 207.259 81.4836L207.221 81.0098L206.76 81.1208C204.091 81.757 202.499 82.1388 201.576 82.3635L200.636 82.5909L200.436 82.6478C200.222 82.7209 200.03 82.8454 200.1 83.1406C200.105 83.1905 200.121 83.2388 200.147 83.282C200.173 83.3251 200.208 83.3623 200.249 83.3908C200.29 83.4193 200.338 83.4386 200.387 83.4473C200.437 83.456 200.487 83.4538 200.536 83.4411C201.811 97.1464 205.951 132.874 210.99 167.603C216.499 205.622 214.907 262.322 206.928 312.055C197.525 370.702 181.029 412.129 160.479 428.704L159.574 429.433L214.466 428.967ZM206.495 82.0088C206.901 87.0204 210.575 130.608 218.543 166.856C219.123 169.49 232.787 232.187 237.19 298.981C239.28 330.658 238.814 357.284 235.836 378.153C232.246 403.238 224.966 420.065 214.195 428.168L161.887 428.604C182.193 411.444 198.438 370.19 207.741 312.183C215.728 262.365 217.32 205.581 211.802 167.489C206.758 132.682 202.596 96.8702 201.343 83.257C202.09 83.062 203.582 82.7019 206.495 82.0088Z" fill="white"/>
</g>
<path d="M-18.2283 429.422H-17.9305L23.2097 428.431L64.6342 429.428L64.7316 429.157C71.3677 409.809 69.2152 377.425 66.2424 353.667C62.9934 327.645 57.9196 305.008 57.1317 302.371C55.778 297.795 49.9109 259.685 49.5508 247.978C49.1907 236.479 46.0473 223.518 41.9076 216.46C39.0864 211.649 27.076 208.549 23.8595 208.042V207.891L23.2124 207.961L22.5653 207.891V208.042C19.3488 208.549 7.33845 211.649 4.51455 216.46C0.374807 223.518 -2.76588 236.479 -3.12597 247.978C-3.49419 259.682 -9.35318 297.795 -10.7069 302.371C-11.4921 305.008 -16.5605 327.645 -19.8176 353.667C-22.7958 377.425 -24.9401 409.809 -18.3041 429.157L-18.2283 429.422ZM23.1962 427.614L-17.6651 428.599C-24.136 409.376 -21.9971 377.314 -19.046 353.756C-15.797 327.781 -10.7448 305.214 -9.96237 302.585C-8.58967 297.982 -2.70902 259.728 -2.3408 247.986C-1.98612 236.614 1.11124 223.805 5.19142 216.85C7.78789 212.423 19.7252 209.158 22.9931 208.776L23.1853 208.754L23.3776 208.776C26.6455 209.158 38.5855 212.423 41.1819 216.85C45.2594 223.802 48.3568 236.614 48.7115 247.986C49.0797 259.728 54.9603 297.987 56.333 302.585C57.1182 305.208 62.1676 327.764 65.4166 353.756C68.365 377.311 70.5067 409.365 64.0385 428.599L23.1962 427.614Z" fill="white"/>
<g opacity="0.8">
<path d="M41.9778 428.879V216.612L41.8803 216.442C41.4809 215.795 40.9862 215.211 40.4128 214.712L39.736 214.103V428.822L41.9778 428.879ZM41.1655 216.832V428.048H40.5482V215.995C40.7795 216.254 40.9861 216.534 41.1655 216.832Z" fill="white"/>
<path d="M45.9063 428.973V226.118L45.8874 226.058C45.446 224.626 44.9614 223.229 44.4497 221.908L43.6672 219.891V428.908L45.9063 428.973ZM45.0941 226.24V428.142L44.4768 428.128V224.358C44.6907 224.964 44.8964 225.598 45.0941 226.253V226.24Z" fill="white"/>
<path d="M30.1897 428.595V209.635L29.9189 209.546C29.4289 209.392 28.9469 209.245 28.4812 209.113L27.9641 208.964V428.541L30.1897 428.595ZM29.3774 210.231V427.764H28.7601V210.044L29.3774 210.231Z" fill="white"/>
<path d="M34.1181 428.688V211.069L33.8663 210.966C33.3925 210.771 32.9078 210.581 32.4259 210.405L31.8844 210.202V428.634L34.1181 428.688ZM33.3058 211.613V427.857H32.6858V211.361L33.3058 211.613Z" fill="white"/>
<path d="M64.6152 429.422L64.7099 429.151C64.9807 428.382 65.2352 427.54 65.5357 426.501L65.5519 426.39V348.517V348.49C65.1188 345.293 64.6368 341.992 64.1224 338.684L63.3102 338.746V429.392L64.6152 429.422ZM64.7397 426.322C64.5204 427.088 64.3201 427.746 64.1224 428.345V344.174C64.3363 345.655 64.5448 347.126 64.7397 348.571V426.322Z" fill="white"/>
<path d="M68.0483 413.612C69.44 402.241 69.44 387.937 68.0483 371.104L67.2361 371.137V413.555L68.0483 413.612ZM68.0483 383.979C68.3543 391.218 68.3543 397.879 68.0483 403.916V383.979Z" fill="white"/>
<path d="M57.6923 429.258V304.627C57.4378 303.544 57.2347 302.732 57.1237 302.358C56.9234 301.695 56.6364 300.374 56.2682 298.43L55.4559 298.506V429.204L57.6923 429.258ZM56.8801 304.765V428.427H56.2628V302.334C56.2871 302.426 56.3088 302.507 56.3332 302.583C56.4279 302.943 56.6391 303.734 56.8828 304.771L56.8801 304.765Z" fill="white"/>
<path d="M53.7636 429.163V283.378C53.2709 280.129 52.7889 276.832 52.3368 273.58L51.5245 273.637V429.109L53.7636 429.163ZM52.9514 283.47V428.321H52.3314V279.333C52.5353 280.718 52.7429 282.097 52.9541 283.47H52.9514Z" fill="white"/>
<path d="M20.0907 428.502L22.3298 428.448V208.059L21.8506 208.151C21.4201 208.232 20.9327 208.337 20.4047 208.462L20.0907 208.535V428.502ZM21.5202 427.657L20.9029 427.673V209.179C21.1168 209.131 21.3226 209.087 21.5202 209.047V427.657Z" fill="white"/>
<path d="M16.1621 428.595L18.4012 428.541V208.964L17.8841 209.113C17.4184 209.248 16.9364 209.384 16.4464 209.546L16.1756 209.635L16.1621 428.595ZM17.5917 427.75L16.9744 427.766V210.236L17.5917 210.05V427.75Z" fill="white"/>
<path d="M4.37378 428.878L6.61287 428.824V214.121L5.936 214.736C5.37053 215.23 4.88308 215.807 4.4902 216.447L4.4496 216.52L4.37378 216.653V428.878ZM5.80334 428.034H5.18602V216.85C5.36437 216.552 5.57013 216.271 5.80063 216.011L5.80334 428.034Z" fill="white"/>
<path d="M8.30505 428.773L10.5441 428.719V211.822L9.95661 212.117C9.45031 212.372 8.96026 212.635 8.5054 212.903L8.30505 213.019V428.773ZM9.7319 427.928H9.11459V213.487C9.31494 213.37 9.52072 213.256 9.7319 213.146V427.928Z" fill="white"/>
</g>
<g style="mix-blend-mode:color-burn" opacity="0.76">
<path d="M64.6152 429.422L64.7262 429.151C71.3623 409.803 69.2098 377.419 66.2397 353.661C62.9907 327.639 57.9142 305.002 57.1263 302.365C55.7726 297.789 49.9054 259.679 49.5454 247.972C49.3503 242.594 48.657 237.247 47.4742 231.998C47.3144 231.288 47.1655 230.644 47.0112 230.046V230.005C46.846 229.347 46.689 228.749 46.5319 228.18L46.5184 228.126C46.5108 228.103 46.5045 228.079 46.4994 228.056V228.026C45.1999 223.35 43.6187 219.362 41.9184 216.454C40.6107 214.226 37.3401 212.412 34.2644 211.123H34.3889L32.2662 210.338L32.1363 210.292L32.0334 210.257C31.6923 210.135 31.3565 210.018 31.0208 209.905C30.6851 209.791 30.3277 209.674 29.9838 209.566L29.464 209.401L29.0335 209.268L28.9523 209.249C27.2844 208.743 25.5873 208.338 23.8703 208.036V207.885L23.2232 207.955L22.5761 207.885V208.036L22.3514 208.072L21.8722 208.161C21.4417 208.242 20.9544 208.348 20.4264 208.472L20.1123 208.548C19.5709 208.681 18.9996 208.819 18.4229 208.989L17.9057 209.133L17.635 209.217L17.4753 209.257H17.4184L17.3615 209.276C16.2623 209.601 15.1739 209.961 14.1261 210.359L11.9764 211.145H12.1875C11.6244 211.379 11.0829 211.619 10.5631 211.865L9.97554 212.152L9.83474 212.228L9.7427 212.276C9.39614 212.455 9.0577 212.636 8.73822 212.818L8.64888 212.867L8.52433 212.934L8.32398 213.061C7.73794 213.412 7.17291 213.796 6.63181 214.212V214.169L5.95494 214.764C5.83852 214.873 5.71938 214.986 5.59213 215.114L5.44322 215.238C5.10946 215.583 4.81271 215.961 4.55787 216.367L4.17883 216.985H4.2411C3.53212 218.269 2.89929 219.595 2.34586 220.954H2.27817L2.17529 221.206C2.0345 221.555 1.90455 221.912 1.75834 222.289L1.54986 222.83H1.58506L1.55528 222.911C1.12479 224.084 0.764694 225.145 0.453335 226.16L0.43438 226.266C0.38023 226.442 0.328783 226.618 0.277342 226.807H0.242144L0.158211 227.1C0.0499115 227.465 -0.0502663 227.812 -0.147736 228.166L-0.291224 228.681H-0.253315C-0.369736 229.111 -0.486172 229.564 -0.605301 230.035V230.075C-0.75692 230.687 -0.91394 231.34 -1.06556 232.017V232.084C-1.10617 232.268 -1.14949 232.452 -1.1874 232.626H-1.24155L-1.30924 232.945C-1.38505 233.3 -1.45544 233.657 -1.52854 234.012L-1.6233 234.497H-1.59081C-1.76409 235.387 -1.9103 236.202 -2.03755 236.974H-2.05379C-2.13773 237.472 -2.20813 237.97 -2.28123 238.468L-2.35432 238.812C-2.39764 239.116 -2.43555 239.419 -2.47616 239.722L-2.55738 240.339H-2.54114C-2.70359 241.631 -2.83896 242.96 -2.94455 244.306L-3.01495 245.034C-3.0339 245.272 -3.05285 245.511 -3.06639 245.749L-3.09348 246.177H-3.0691C-3.1043 246.764 -3.13679 247.382 -3.15574 247.993C-3.17469 248.605 -3.21259 249.347 -3.26674 250.159L-3.30465 250.519C-3.32902 250.858 -3.35609 251.213 -3.38587 251.578L-3.41836 252.014H-3.40754C-3.43461 252.325 -3.46169 252.645 -3.49147 252.97V253.159C-3.56998 254.031 -3.66204 254.979 -3.76221 255.986L-3.8299 256.343L-3.98965 257.854H-3.94903C-4.08441 259.099 -4.23602 260.429 -4.40389 261.82L-4.47699 262.178C-4.52031 262.527 -4.56363 262.882 -4.60695 263.237L-4.66381 263.691H-4.63132C-4.79106 264.988 -4.95893 266.315 -5.13762 267.663L-5.21342 268.01L-5.41377 269.531H-5.38399C-5.55998 270.845 -5.73867 272.171 -5.92549 273.498L-5.99318 273.847L-6.20708 275.369H-6.19084C-6.37133 276.701 -6.56176 278.023 -6.76211 279.335L-6.8298 279.682L-7.05451 281.209H-7.03826C-7.15468 281.991 -7.27112 282.768 -7.39025 283.534V283.664C-7.46967 284.173 -7.54728 284.678 -7.62309 285.178L-7.70973 285.519L-7.94799 287.049H-7.9155C-8.1321 288.427 -8.34598 289.756 -8.55175 291.015H-8.58424L-8.89561 292.886H-8.86312C-9.1095 294.348 -9.33963 295.678 -9.55352 296.853H-9.58601L-9.64557 297.186C-9.71325 297.554 -9.77824 297.906 -9.84322 298.244L-9.93256 298.726H-9.91632C-10.2548 300.494 -10.5309 301.756 -10.7286 302.384C-10.7529 302.462 -10.7827 302.568 -10.8152 302.693L-10.9127 302.996C-10.9858 303.283 -11.0751 303.64 -11.1834 304.063L-11.3053 304.563H-11.2863C-11.2863 304.62 -11.3107 304.677 -11.3242 304.737V304.845C-11.576 305.928 -11.8657 307.157 -12.1554 308.53H-12.1879L-12.2583 308.849L-12.4857 309.913L-12.5886 310.404H-12.5561C-12.8269 311.673 -13.0976 313.003 -13.3684 314.37H-13.4252L-13.7989 316.241H-13.7664L-13.8178 316.512C-14.0506 317.689 -14.2916 318.929 -14.5353 320.221L-14.6165 320.548L-14.9062 322.092H-14.89C-15.0064 322.728 -15.1282 323.375 -15.2473 324.036V324.155C-15.3286 324.607 -15.4125 325.065 -15.4964 325.528H-15.5289L-15.8619 327.401C-16.0894 328.688 -16.3177 330.01 -16.5469 331.368H-16.5794L-16.8935 333.238H-16.861C-17.0758 334.534 -17.2897 335.857 -17.5027 337.205L-17.5893 337.549L-17.8276 339.078H-17.8113C-18.0117 340.382 -18.2111 341.704 -18.4097 343.045L-18.4774 343.391L-18.6967 344.916H-18.6804C-18.8564 346.156 -19.0324 347.404 -19.2057 348.671V348.89L-19.2842 349.234L-19.4846 350.756H-19.4521C-19.6253 352.064 -19.7932 353.393 -19.9584 354.722L-20.0342 355.08L-20.2156 356.593H-20.1939C-20.3455 357.89 -20.4972 359.219 -20.6461 360.562L-20.7165 360.922L-20.8789 362.433H-20.8464C-20.9872 363.787 -21.1172 365.111 -21.2444 366.4L-21.3094 366.768L-21.4475 368.273H-21.4177C-21.5098 369.307 -21.6018 370.344 -21.6885 371.384H-21.7047C-21.7264 371.655 -21.7453 371.926 -21.767 372.183L-21.8374 372.876C-21.859 373.147 -21.8807 373.417 -21.8996 373.675L-21.9321 374.111H-21.9159C-22.0106 375.405 -22.1027 376.734 -22.1866 378.077L-22.2272 378.459L-22.2922 379.523L-22.3166 379.951H-22.3003C-22.3707 381.231 -22.4357 382.563 -22.4953 383.917L-22.5305 384.304L-22.5548 384.997L-22.5846 385.791H-22.5684C-22.6171 387.117 -22.6523 388.447 -22.6794 389.757L-22.7038 390.152L-22.72 391.216V391.628H-22.701C-22.72 393.02 -22.7254 394.335 -22.7173 395.594V396.003V396.247C-22.7173 396.518 -22.7173 396.788 -22.7173 397.059V397.46H-22.6983C-22.6794 398.814 -22.6469 400.146 -22.6009 401.426V401.846C-22.6009 402.087 -22.5819 402.322 -22.5711 402.561L-22.5386 403.297H-22.5223C-22.4601 404.632 -22.3816 405.961 -22.2868 407.264L-22.2435 408.076C-22.2272 408.309 -22.211 408.542 -22.192 408.772L-22.1596 409.145H-22.1433C-22.0188 410.597 -21.8726 412.013 -21.7155 413.361V413.567C-21.6749 413.889 -21.6343 414.208 -21.591 414.528L-21.5314 414.983H-21.5043C-21.3175 416.374 -21.1118 417.69 -20.8925 418.949L-20.8329 419.428C-20.7814 419.699 -20.7273 419.97 -20.6759 420.241L-20.5621 420.815H-20.5351C-20.2643 422.206 -19.9584 423.538 -19.6389 424.781L-19.5306 425.29C-19.4467 425.612 -19.3573 425.926 -19.2598 426.243L-19.1326 426.655C-18.8618 427.61 -18.5911 428.436 -18.3447 429.173L-18.2499 429.443H-17.9521L23.2016 428.452L64.6152 429.422ZM23.2097 427.613L-17.6733 428.599C-17.9034 427.908 -18.1416 427.137 -18.3961 426.254L-18.4178 426.124L-18.5017 425.832H-18.5261C-18.5586 425.721 -18.5884 425.61 -18.6209 425.499L-18.7156 425.055C-19.1055 423.59 -19.471 421.99 -19.7986 420.306L-19.8636 419.978H-19.8907L-19.9475 419.677L-20.0017 419.247C-20.2724 417.774 -20.5161 416.174 -20.7381 414.49L-20.7841 414.138H-20.8139C-20.8139 414.038 -20.8383 413.938 -20.8518 413.84L-20.8979 413.25C-21.0738 411.791 -21.2282 410.25 -21.3581 408.672L-21.4042 408.298C-21.4042 408.217 -21.4042 408.133 -21.4231 408.049L-21.4394 407.613C-21.5585 406.053 -21.6532 404.451 -21.7101 402.848L-21.7263 402.461H-21.7426C-21.7426 402.366 -21.7426 402.274 -21.7561 402.19V401.797C-21.8157 400.273 -21.8536 398.667 -21.8753 397.029V396.629H-21.8915C-21.8915 396.545 -21.8915 396.461 -21.8915 396.38V395.971C-21.8915 394.455 -21.8915 392.892 -21.8726 391.2V390.791C-21.8726 390.705 -21.8726 390.621 -21.8726 390.521L-21.8509 390.128C-21.8211 388.56 -21.7751 386.955 -21.7155 385.357L-21.702 384.938H-21.7155V384.667L-21.6803 384.299C-21.6153 382.674 -21.5368 381.05 -21.4475 379.528L-21.4231 379.098H-21.4394L-21.4231 378.846L-21.3825 378.467C-21.285 376.842 -21.174 375.242 -21.0576 373.696L-21.0251 373.26H-21.0414C-21.0414 373.176 -21.0414 373.093 -21.0224 373.009L-20.9764 372.635L-20.9412 372.204C-20.9412 372.001 -20.9114 371.798 -20.8952 371.595H-20.8789C-20.7796 370.35 -20.6722 369.106 -20.5567 367.864L-20.5161 367.42H-20.5459L-20.5215 367.15L-20.4592 366.79C-20.313 365.246 -20.1506 363.641 -19.9773 362.016L-19.9313 361.57H-19.9638L-19.934 361.299L-19.8663 360.947C-19.6903 359.322 -19.5062 357.722 -19.3248 356.173L-19.2707 355.719H-19.3032L-19.2734 355.467L-19.1949 355.112C-18.9999 353.512 -18.7969 351.907 -18.5884 350.339L-18.5288 349.881H-18.5694L-18.5342 349.611L-18.4557 349.264L-18.3934 348.674C-18.2003 347.262 -18.0045 345.868 -17.8059 344.491L-17.7382 344.028H-17.7572L-17.7193 343.757L-17.6516 343.419C-17.4314 341.917 -17.2085 340.437 -16.9828 338.978L-16.8556 338.166H-16.8881L-16.8502 337.912L-16.7635 337.573C-16.5063 335.949 -16.2491 334.354 -15.9919 332.8L-15.9134 332.329H-15.9432L-15.9026 332.077H-15.8619L-15.8051 331.738C-15.5343 330.114 -15.2636 328.506 -14.9928 326.965L-14.9089 326.489H-14.9414L-14.8954 326.24H-14.8629L-14.8033 325.904L-14.4893 324.163V324.044C-14.3403 323.232 -14.1941 322.441 -14.0479 321.661L-13.9586 321.182H-13.9775L-13.9288 320.911L-13.8476 320.589C-13.5768 319.211 -13.3305 317.882 -13.0841 316.633H-13.0678L-12.7971 315.331H-12.8296L-12.7781 315.079H-12.7456L-12.6807 314.754C-12.3476 313.1 -12.0146 311.505 -11.6924 309.981L-11.5868 309.491H-11.6193C-11.6031 309.407 -11.5841 309.323 -11.5652 309.242H-11.5327L-11.465 308.923C-11.1347 307.406 -10.8314 306.047 -10.558 304.886V304.775C-10.5065 304.553 -10.4578 304.35 -10.4091 304.155L-10.2899 303.654H-10.3062C-10.2845 303.559 -10.2629 303.47 -10.2412 303.383L-10.1492 303.099C-10.0842 302.852 -10.03 302.647 -9.98942 302.517C-9.78907 301.842 -9.5075 300.556 -9.15011 298.688H-9.13656L-8.97141 297.811H-9.0039C-8.99036 297.73 -8.97412 297.646 -8.95787 297.562H-8.92538L-8.86581 297.229C-8.61402 295.848 -8.32433 294.251 -8.03192 292.445L-7.95339 291.974H-7.98859L-7.94528 291.722H-7.91279L-7.85593 291.383C-7.60955 289.878 -7.35233 288.275 -7.0897 286.602L-7.01661 286.134H-7.0491L-7.00848 285.882L-6.92455 285.541C-6.82708 284.918 -6.73051 284.286 -6.63485 283.645V283.516C-6.49677 282.609 -6.36411 281.683 -6.22061 280.751L-6.15022 280.288H-6.16646L-6.06358 279.69C-5.83073 278.114 -5.6006 276.517 -5.37317 274.911L-5.30819 274.448H-5.30277L-5.26757 274.196H-5.23779L-5.18635 273.847C-4.96434 272.247 -4.74502 270.65 -4.53384 269.068L-4.47429 268.608H-4.49053L-4.45533 268.359L-4.37682 268.004C-4.16564 266.38 -3.95987 264.78 -3.77035 263.226L-3.71348 262.771H-3.74597C-3.74597 262.687 -3.72702 262.603 -3.71619 262.519L-3.64038 262.162C-3.43731 260.469 -3.25321 258.861 -3.09888 257.38L-3.05015 256.931H-3.08264L-3.05557 256.679L-2.98517 256.316C-2.86604 255.166 -2.76315 254.083 -2.6738 253.102V252.913C-2.63048 252.436 -2.59258 251.973 -2.55738 251.529L-2.52218 251.093H-2.54114C-2.54114 251.01 -2.54114 250.926 -2.52218 250.842L-2.48158 250.465C-2.41389 249.474 -2.36787 248.613 -2.34621 247.907C-2.32184 247.151 -2.27851 246.391 -2.23519 245.684L-2.20812 245.253H-2.22708C-2.22708 245.17 -2.22708 245.086 -2.20812 245.002L-2.1621 244.628C-2.04297 243.004 -1.89134 241.412 -1.67745 239.874L-1.6179 239.413C-1.6179 239.324 -1.59352 239.235 -1.57999 239.143L-1.50959 238.815L-1.46628 238.506C-1.39859 238.033 -1.33089 237.561 -1.25508 237.09H-1.24155C-1.08993 236.159 -0.908531 235.168 -0.700056 234.058L-0.602591 233.573H-0.635078C-0.618834 233.489 -0.602589 233.405 -0.583635 233.322H-0.551147L-0.483459 233.002C-0.41848 232.693 -0.350794 232.387 -0.280399 232.082V232.049C-0.134195 231.399 0.0201397 230.752 0.169052 230.154L-0.212711 230.018L0.179876 230.116C0.345032 229.458 0.502069 228.86 0.656395 228.294L0.927143 227.752H0.772816L0.845922 227.503H0.87841L1.01107 227.051C1.08147 226.813 1.14915 226.574 1.22225 226.339L1.2412 226.233C1.54173 225.251 1.89371 224.222 2.31066 223.087L2.74656 221.915H2.7222L2.81967 221.663H2.85487L2.95775 221.411C3.57624 219.867 4.29993 218.367 5.12374 216.922L5.17789 216.828V216.79L5.19954 216.757L5.24287 216.692L5.46217 216.329C5.59592 216.148 5.73963 215.975 5.89265 215.81L6.02533 215.701C6.09302 215.631 6.158 215.563 6.22297 215.501L6.46935 215.282C7.2195 214.62 8.03609 214.037 8.90608 213.543L9.08749 213.435H9.11456C9.42321 213.259 9.75083 213.08 10.0866 212.894L10.1732 212.848L10.3113 212.78C11.0694 212.398 11.9006 212.022 12.7832 211.662L13.1785 211.502L13.72 211.288L13.9258 211.21L13.9691 211.191L15.9834 210.46C16.4816 210.294 16.9843 210.136 17.4915 209.986H17.5727L17.8273 209.907H17.876L18.0953 209.848C18.9509 209.601 19.7847 209.382 20.5753 209.195L20.8894 209.119C21.1818 209.054 21.458 208.995 21.7179 208.943L21.9886 208.892C22.3866 208.816 22.7359 208.759 22.9931 208.73L23.1853 208.708L23.3776 208.73C25.1934 209.017 26.986 209.436 28.7411 209.983L28.8196 209.999L29.1797 210.11L29.7023 210.275C30.0407 210.384 30.3791 210.495 30.7257 210.611C31.0722 210.728 31.3755 210.831 31.7004 210.95L31.9386 211.036C35.3392 212.276 39.7037 214.285 41.1819 216.803C42.8525 219.649 44.412 223.599 45.6926 228.226V228.34L45.7359 228.383C45.8849 228.925 46.0365 229.507 46.1935 230.14L46.5969 230.081L46.2043 230.178C46.3532 230.782 46.5022 231.41 46.6592 232.103C47.8339 237.306 48.5209 242.606 48.7115 247.937C49.0797 259.679 54.9603 297.938 56.333 302.536C57.1182 305.159 62.1676 327.715 65.4166 353.707C68.3651 377.262 70.5067 409.316 64.0385 428.55L23.2097 427.613Z" fill="white"/>
</g>
</g>
<path opacity="0.1" d="M362.076 25.164C362.076 25.164 366.858 10.0766 349.097 2.53482C331.336 -5.00693 302.653 5.96356 304.02 13.5053C305.387 21.0471 319.047 28.5928 309.483 29.277C299.919 29.9611 293.775 15.5618 273.966 22.4194C254.157 29.2769 277.381 38.191 272.599 38.191C267.817 38.191 254.842 34.7622 243.226 38.191C231.611 41.6197 243.226 47.7931 286.941 51.2219C330.655 54.6507 320.406 45.717 336.8 44.3644C353.193 43.0117 351.141 50.5338 385.977 44.3644C420.813 38.1949 408.52 16.9341 362.076 25.164Z" fill="white"/>
<path opacity="0.2" d="M360.962 67.6782C360.962 67.6782 359.115 61.8778 365.97 58.9756C372.826 56.0733 383.908 60.2948 383.38 63.193C382.852 66.0912 377.575 68.9974 381.269 69.2613C384.963 69.5251 387.334 63.9845 394.985 66.6229C402.636 69.2613 393.666 72.6872 395.509 72.6872C397.351 72.6872 402.368 71.372 406.85 72.6872C411.331 74.0023 406.85 76.381 389.972 77.7002C373.094 79.0194 377.048 75.5894 370.72 75.0618C364.391 74.5341 365.183 77.4363 351.731 75.0618C338.279 72.6872 343.028 64.5121 360.962 67.6782Z" fill="white"/>
<g opacity="0.62">
<path d="M323.442 233.461C323.442 233.496 324.051 233.249 325.177 233C326.768 232.653 328.408 232.59 330.021 232.813C332.416 233.129 334.676 234.104 336.549 235.629C338.841 237.497 340.458 240.065 341.152 242.939C341.152 242.967 341.168 242.996 341.173 243.021L341.309 243.543L341.509 243.048C342.63 240.319 344.555 237.995 347.027 236.385C349.046 235.076 351.367 234.307 353.768 234.151C355.386 234.034 357.012 234.182 358.582 234.59C359.695 234.885 360.283 235.131 360.293 235.109C360.162 235.027 360.022 234.959 359.877 234.906C359.467 234.731 359.048 234.582 358.62 234.46C356.654 233.883 354.587 233.733 352.558 234.02C350.529 234.308 348.585 235.025 346.856 236.125C344.314 237.757 342.335 240.131 341.187 242.926L341.522 242.953L341.501 242.872C340.789 239.919 339.12 237.285 336.755 235.38C334.829 233.833 332.507 232.859 330.054 232.57C328.414 232.364 326.751 232.464 325.148 232.865C324.713 232.971 324.286 233.107 323.87 233.271C323.721 233.319 323.578 233.383 323.442 233.461Z" fill="white"/>
<path d="M275 206.878C275 206.907 275.344 206.783 275.961 206.656C276.833 206.477 277.73 206.451 278.612 206.577C279.916 206.757 281.145 207.294 282.164 208.129C283.411 209.148 284.29 210.548 284.668 212.114V212.157L284.804 212.68L285.004 212.184C285.615 210.699 286.661 209.432 288.004 208.551C289.103 207.833 290.366 207.406 291.675 207.311C292.559 207.241 293.449 207.314 294.309 207.527C294.921 207.679 295.249 207.798 295.26 207.782C295.271 207.766 295.187 207.728 295.035 207.655C294.812 207.549 294.582 207.459 294.347 207.384C293.261 207.052 292.116 206.96 290.991 207.113C289.865 207.266 288.786 207.66 287.828 208.269C286.414 209.172 285.313 210.489 284.676 212.041L285.012 212.068V212.022C284.611 210.39 283.682 208.937 282.369 207.888C281.474 207.179 280.427 206.688 279.31 206.453C278.192 206.218 277.036 206.246 275.931 206.534C275.692 206.596 275.458 206.676 275.23 206.772C275.148 206.795 275.07 206.831 275 206.878Z" fill="white"/>
<path d="M306.672 196C306.65 196.022 307.002 196.379 307.603 197.056C308.446 198.013 309.206 199.04 309.875 200.126C312.106 203.709 313.277 207.851 313.251 212.072C313.251 212.123 313.251 212.174 313.251 212.221L313.6 212.25C313.946 209.982 314.685 207.793 315.785 205.779C317.292 203.019 319.417 200.645 321.993 198.843C322.73 198.334 323.155 198.079 323.139 198.052C323.024 198.09 322.915 198.142 322.814 198.207C322.608 198.326 322.291 198.477 321.918 198.729C320.845 199.417 319.846 200.216 318.939 201.112C315.898 204.098 313.904 207.987 313.254 212.199L313.606 212.229C313.606 212.18 313.606 212.128 313.606 212.074C313.636 207.789 312.412 203.589 310.086 199.991C309.391 198.907 308.593 197.894 307.703 196.964C307.397 196.628 307.124 196.398 306.953 196.233C306.87 196.143 306.775 196.065 306.672 196Z" fill="white"/>
</g>
<path d="M360.085 496.2C360.085 496.276 365.727 496.335 372.688 496.335C379.649 496.335 385.294 496.276 385.294 496.2C385.294 496.124 379.652 496.064 372.688 496.064C365.725 496.064 360.085 496.124 360.085 496.2Z" fill="#1D1D1B"/>
<path d="M341.866 492.457C341.866 492.532 348.505 492.595 356.693 492.595C364.88 492.595 371.524 492.532 371.524 492.457C371.524 492.381 364.885 492.321 356.693 492.321C348.5 492.321 341.866 492.381 341.866 492.457Z" fill="#1D1D1B"/>
<path d="M322.503 416.487H381.975V455.118H322.503V416.487Z" fill="#9E3443"/>
<path opacity="0.3" d="M322.503 416.487H381.975V455.118H322.503V416.487Z" fill="#9E3443"/>
<path d="M262.394 348.171H271.748V351.934C271.748 351.934 265.583 351.891 261.148 352.053C255.146 352.278 254.263 360.003 254.263 360.003L252.219 360.024V357.975C252.206 352.571 256.992 348.171 262.394 348.171Z" fill="#E33443"/>
<path d="M254.458 357.855V359.672H256.031C256.542 359.672 257.032 359.875 257.393 360.236C257.754 360.597 257.956 361.086 257.956 361.597V373.908C257.956 374.339 257.785 374.752 257.481 375.056C257.176 375.361 256.763 375.532 256.332 375.532H253.624C253.194 375.532 252.78 375.361 252.476 375.056C252.171 374.752 252 374.339 252 373.908V357.779L254.458 357.855Z" fill="#E33443"/>
<path d="M254.456 366.5C254.537 366.5 254.602 364.81 254.602 362.725C254.602 360.641 254.537 358.951 254.456 358.951C254.374 358.951 254.307 360.641 254.307 362.725C254.307 364.81 254.372 366.5 254.456 366.5Z" fill="#E33443"/>
<path d="M308.438 340.071L310.604 337.188C311.12 336.506 311.788 335.953 312.554 335.574C313.32 335.194 314.164 334.998 315.019 335H412.808C413.829 335 414.832 335.266 415.718 335.773C416.604 336.28 417.343 337.009 417.86 337.889L419.252 340.253L625.24 341.154C626.846 341.16 628.386 341.794 629.53 342.921C630.675 344.048 631.333 345.578 631.364 347.184L633.419 449.635L596.952 455.816H562.212C563.907 451.651 564.527 447.127 564.016 442.66C562.594 429.951 552.119 419.917 539.359 419.035C534.822 418.71 530.277 419.547 526.153 421.467C522.029 423.387 518.463 426.327 515.792 430.008C513.12 433.689 511.431 437.991 510.884 442.507C510.337 447.023 510.95 451.603 512.666 455.816H376.891C378.588 451.652 379.209 447.128 378.697 442.66C377.275 429.951 366.8 419.917 354.042 419.035C349.504 418.708 344.958 419.544 340.833 421.463C336.708 423.382 333.14 426.321 330.467 430.003C327.794 433.685 326.104 437.987 325.557 442.504C325.009 447.021 325.622 451.602 327.339 455.816H276.167L269.669 448.089V347.251C269.669 343.891 273.419 340.142 276.779 340.142L308.438 340.071Z" fill="#E33443"/>
<path d="M322.6 354.634H434.454V410.616H322.6V354.634Z" fill="#232323"/>
<path d="M381.001 357.26H431.793V407.348H381.001V357.26Z" fill="#455A64"/>
<path d="M325.833 357.26H376.625V407.348H325.833V357.26Z" fill="#455A64"/>
<path d="M390.704 455.799C390.704 455.799 390.704 455.618 390.718 455.274C390.731 454.93 390.718 454.416 390.718 453.763C390.718 452.434 390.737 450.514 390.75 448.045C390.75 443.123 390.785 436.097 390.812 427.622L390.691 427.747L425.498 427.771L425.352 427.622C425.352 437.808 425.352 447.425 425.352 455.799L425.484 455.669L400.356 455.734L393.227 455.769L391.332 455.786H390.842H390.672C390.723 455.789 390.775 455.789 390.826 455.786H391.302L393.171 455.802L400.27 455.837L425.482 455.902H425.614V455.769C425.614 447.395 425.614 437.778 425.631 427.593V427.446H425.479L390.672 427.471H390.547V427.593C390.574 436.097 390.596 443.152 390.612 448.094C390.612 450.53 390.636 452.461 390.642 453.779C390.642 454.424 390.642 454.919 390.658 455.268C390.674 455.618 390.704 455.799 390.704 455.799Z" fill="#263239"/>
<path opacity="0.3" d="M431.793 391.629L393.628 357.298L383.448 357.26L431.906 401.684L431.793 391.629Z" fill="white"/>
<path d="M281.246 361.355H316.801V455.814H281.246V361.355Z" fill="#232323"/>
<path d="M285.134 367.826H313.479V441.719H285.134V367.826Z" fill="#455A64"/>
<path opacity="0.5" d="M285.134 367.826H296.116V426.941H285.134V367.826Z" fill="#232323"/>
<path opacity="0.3" d="M313.468 413.278V423.231L285.134 402.491V392.926L313.468 413.278Z" fill="white"/>
<path opacity="0.3" d="M313.479 427.031L313.525 430.291L285.134 409.76V406.888L313.479 427.031Z" fill="white"/>
<path opacity="0.2" d="M375.745 391.953L337.177 357.26H326.466L375.862 402.009L375.745 391.953Z" fill="white"/>
<path opacity="0.3" d="M376.625 407.621L327.882 362.357H325.833L374.457 407.621H376.625Z" fill="white"/>
<path d="M323.483 361.857H432.776V362.859H323.483V361.857Z" fill="#263239"/>
<path d="M321.677 423.23H325.787C326.183 423.23 326.505 423.552 326.505 423.948V425.624C326.505 426.02 326.183 426.341 325.787 426.341H321.677C321.281 426.341 320.96 426.02 320.96 425.624V423.948C320.96 423.552 321.281 423.23 321.677 423.23Z" fill="#F3986E"/>
<path d="M382.896 441.711H387.006C387.402 441.711 387.723 442.032 387.723 442.428V444.104C387.723 444.501 387.402 444.822 387.006 444.822H382.896C382.5 444.822 382.178 444.501 382.178 444.104V442.428C382.178 442.032 382.5 441.711 382.896 441.711Z" fill="white"/>
<path opacity="0.5" d="M303.15 367.826V402.823H313.468L313.482 367.826H303.15Z" fill="#232323"/>
<path d="M269.68 352.26H276.79V422.248H269.68V352.26Z" fill="#232323"/>
<path d="M269.682 416.283C269.682 416.283 273.294 417.206 274.217 413.971C275.141 410.736 274.217 354.634 274.217 354.634H269.682V416.283Z" fill="#455A64"/>
<path opacity="0.3" d="M274.629 389.994L269.682 386.328V379.797C269.682 379.256 274.629 382.624 274.629 382.624V389.994Z" fill="white"/>
<path opacity="0.2" d="M404.399 335.271H405.671V338.309H404.399V335.271Z" fill="black"/>
<path opacity="0.2" d="M401.975 335.271H403.248V338.309H401.975V335.271Z" fill="black"/>
<path opacity="0.2" d="M399.552 335.271H400.825V338.309H399.552V335.271Z" fill="black"/>
<path opacity="0.2" d="M397.132 335.271H398.404V338.309H397.132V335.271Z" fill="black"/>
<path opacity="0.2" d="M394.708 335.271H395.981V338.309H394.708V335.271Z" fill="black"/>
<path opacity="0.2" d="M392.288 335.271H393.561V338.309H392.288V335.271Z" fill="black"/>
<path opacity="0.2" d="M389.865 335.271H391.137V338.309H389.865V335.271Z" fill="black"/>
<path opacity="0.2" d="M387.445 335.271H388.717V338.309H387.445V335.271Z" fill="black"/>
<path opacity="0.2" d="M385.021 335.271H386.294V338.309H385.021V335.271Z" fill="black"/>
<path opacity="0.2" d="M382.598 335.271H383.871V338.309H382.598V335.271Z" fill="black"/>
<path opacity="0.2" d="M380.177 335.271H381.45V338.309H380.177V335.271Z" fill="black"/>
<path opacity="0.2" d="M377.754 335.271H379.027V338.309H377.754V335.271Z" fill="black"/>
<path opacity="0.2" d="M375.334 335.271H376.606V338.309H375.334V335.271Z" fill="black"/>
<path opacity="0.2" d="M372.911 335.271H374.183V338.309H372.911V335.271Z" fill="black"/>
<path d="M308.234 340.071C308.234 340.152 333.143 340.22 363.833 340.22C394.522 340.22 419.436 340.152 419.436 340.071C419.436 339.99 394.546 339.925 363.833 339.925C333.119 339.925 308.234 339.99 308.234 340.071Z" fill="black"/>
<path d="M269.682 351.104C269.682 351.185 350.671 351.253 450.542 351.253C550.413 351.253 631.432 351.185 631.432 351.104C631.432 351.023 550.459 350.955 450.542 350.955C350.625 350.955 269.682 351.023 269.682 351.104Z" fill="#263239"/>
<path d="M272.395 434.602H276.164V441.118H272.395V434.602Z" fill="#F3986E"/>
<path d="M269.669 434.602H272.395V441.118H269.669V434.602Z" fill="white"/>
<path d="M350.619 469.711C337.579 469.169 327.447 458.159 327.989 445.12C328.531 432.08 339.541 421.948 352.581 422.49C365.621 423.032 375.752 434.042 375.21 447.082C374.668 460.122 363.658 470.253 350.619 469.711Z" fill="#232323"/>
<path d="M375.255 445.719C375.257 445.739 375.257 445.76 375.255 445.781C375.314 448.893 374.758 451.986 373.619 454.882C372.479 457.778 370.779 460.421 368.615 462.658C366.451 464.895 363.867 466.683 361.011 467.918C358.154 469.154 355.082 469.813 351.97 469.858C348.858 469.903 345.768 469.333 342.877 468.18C339.986 467.027 337.351 465.315 335.123 463.141C332.896 460.967 331.12 458.375 329.898 455.513C328.675 452.651 328.03 449.575 327.999 446.463C328 446.443 328 446.422 327.999 446.401L375.255 445.719Z" fill="#232323"/>
<path d="M368.221 445.881C368.269 449.162 367.343 452.384 365.559 455.139C363.776 457.894 361.216 460.058 358.203 461.357C355.189 462.657 351.858 463.034 348.631 462.44C345.403 461.847 342.424 460.31 340.07 458.023C337.716 455.736 336.094 452.803 335.407 449.594C334.721 446.385 335.001 443.044 336.213 439.994C337.425 436.945 339.515 434.323 342.217 432.461C344.919 430.599 348.113 429.58 351.394 429.533C355.793 429.47 360.037 431.157 363.193 434.223C366.348 437.288 368.157 441.482 368.221 445.881Z" fill="#FBFBFB"/>
<path d="M351.394 429.533C355.793 429.47 360.037 431.157 363.193 434.223C366.348 437.288 368.157 441.482 368.221 445.881L335.044 446.36C335.012 444.181 335.41 442.018 336.215 439.993C337.019 437.969 338.215 436.122 339.733 434.56C341.252 432.997 343.063 431.749 345.064 430.886C347.065 430.024 349.216 429.564 351.394 429.533Z" fill="#E0E0E0"/>
<path d="M361.737 445.976C361.765 447.974 361.201 449.937 360.114 451.615C359.028 453.293 357.468 454.611 355.632 455.402C353.796 456.193 351.767 456.423 349.801 456.061C347.835 455.699 346.021 454.762 344.587 453.369C343.154 451.976 342.165 450.189 341.747 448.234C341.329 446.279 341.5 444.245 342.239 442.387C342.977 440.529 344.25 438.932 345.896 437.798C347.542 436.664 349.487 436.043 351.486 436.015C354.166 435.976 356.752 437.004 358.674 438.872C360.597 440.74 361.698 443.295 361.737 445.976Z" fill="#232323"/>
<path opacity="0.2" d="M325.836 357.26H431.793V358.814H325.836V357.26Z" fill="black"/>
<path d="M269.682 422.248C269.601 422.248 269.544 423.694 269.512 426.039C269.479 428.383 269.474 431.608 269.487 435.176C269.501 438.745 269.531 441.975 269.566 444.314C269.59 445.446 269.609 446.38 269.623 447.081C269.616 447.421 269.636 447.76 269.682 448.096C269.725 447.76 269.743 447.42 269.736 447.081C269.736 446.38 269.761 445.457 269.777 444.311C269.793 441.975 269.796 438.745 269.777 435.174C269.731 428.445 269.693 423.789 269.682 422.248Z" fill="#263239"/>
<path d="M57.4474 156.595C40.2195 156.595 26.2536 142.629 26.2536 125.401C26.2536 108.173 40.2195 94.207 57.4474 94.207C74.6753 94.207 88.6412 108.173 88.6412 125.401C88.6412 142.629 74.6753 156.595 57.4474 156.595Z" fill="#E33443"/>
<path opacity="0.9" d="M57.4474 156.595C40.2195 156.595 26.2536 142.629 26.2536 125.401C26.2536 108.173 40.2195 94.207 57.4474 94.207C74.6753 94.207 88.6412 108.173 88.6412 125.401C88.6412 142.629 74.6753 156.595 57.4474 156.595Z" fill="black"/>
<path d="M30.4265 131.829C26.8772 116.93 36.0774 101.976 50.9757 98.4263C65.874 94.877 80.8287 104.077 84.3779 118.975C87.9272 133.874 78.727 148.828 63.8287 152.378C48.9305 155.927 33.9758 146.727 30.4265 131.829Z" fill="#E33443"/>
<path opacity="0.6" d="M30.4265 131.829C26.8772 116.93 36.0774 101.976 50.9757 98.4263C65.874 94.877 80.8287 104.077 84.3779 118.975C87.9272 133.874 78.727 148.828 63.8287 152.378C48.9305 155.927 33.9758 146.727 30.4265 131.829Z" fill="black"/>
<path d="M57.4473 148.313C44.7932 148.313 34.535 138.055 34.535 125.401C34.535 112.746 44.7932 102.488 57.4473 102.488C70.1014 102.488 80.3596 112.746 80.3596 125.401C80.3596 138.055 70.1014 148.313 57.4473 148.313Z" fill="#E33443"/>
<path opacity="0.3" d="M57.4473 148.313C44.7932 148.313 34.535 138.055 34.535 125.401C34.535 112.746 44.7932 102.488 57.4473 102.488C70.1014 102.488 80.3596 112.746 80.3596 125.401C80.3596 138.055 70.1014 148.313 57.4473 148.313Z" fill="black"/>
<path d="M50.3959 142.506C40.9553 138.634 36.441 127.842 40.3129 118.402C44.1847 108.961 54.9766 104.447 64.4171 108.318C73.8577 112.19 78.372 122.982 74.5001 132.423C70.6283 141.863 59.8364 146.378 50.3959 142.506Z" fill="#E33443"/>
</svg>
