<svg width="414" height="648" viewBox="0 0 414 648" fill="none" xmlns="http://www.w3.org/2000/svg">
<g clip-path="url(#clip0_435_9964)">
<path d="M405.261 456H251.256C232.648 455.918 216.922 440.05 217 421.442L218.638 33.563C218.656 29.1358 219.546 24.7556 221.258 20.6726C222.969 16.5896 225.468 12.8838 228.613 9.767C231.757 6.65018 235.484 4.18339 239.582 2.50759C243.68 0.831791 248.067 -0.0201705 252.495 0.00036249L407.216 0.716217C416.151 0.757505 424.705 4.34582 430.995 10.6921C437.285 17.0385 440.798 25.6232 440.76 34.5587L439.122 422.442C439.103 426.869 438.212 431.25 436.5 435.332C434.788 439.415 432.289 443.121 429.144 446.237C426 449.353 422.272 451.82 418.174 453.495C414.076 455.17 409.688 456.021 405.261 456Z" fill="#E33443"/>
<path d="M406.991 15.4545L376.993 15.3168C372.974 15.3168 369.697 18.6896 369.679 22.8975V28.3353C369.679 32.5432 366.384 35.939 362.364 35.916L303.894 35.6499C299.869 35.6499 296.625 32.2037 296.639 28.0003L296.666 22.558C296.666 18.3546 293.454 14.9268 289.411 14.9084L278.857 14.8625L252.604 14.7386C249.501 14.7217 246.426 15.3168 243.553 16.4897C240.68 17.6626 238.067 19.3905 235.863 21.5744C233.658 23.7582 231.906 26.3553 230.706 29.217C229.507 32.0787 228.883 35.1488 228.871 38.2517L227.274 416.852C227.26 419.951 227.857 423.022 229.03 425.89C230.203 428.758 231.929 431.367 234.11 433.568C236.292 435.769 238.885 437.518 241.743 438.717C244.6 439.916 247.666 440.54 250.764 440.553L405.173 441.269C408.274 441.283 411.346 440.686 414.216 439.512C417.085 438.339 419.695 436.611 421.897 434.429C424.099 432.246 425.849 429.651 427.048 426.792C428.247 423.933 428.871 420.866 428.884 417.765L430.485 39.1879C430.503 36.0863 429.909 33.0117 428.737 30.1399C427.566 27.2681 425.84 24.6554 423.657 22.4511C421.475 20.2469 418.88 18.4944 416.02 17.2939C413.161 16.0934 410.092 15.4683 406.991 15.4545Z" fill="#F5F4F5"/>
<path d="M341.453 369.716C341.274 374.305 341.109 378.572 340.967 382.138H363.149L360.433 368.514L341.453 369.716Z" fill="#F5F4F5"/>
<path d="M251.32 375.416L251.512 382.139H338.764C338.911 378.362 339.072 374.177 339.223 369.854L251.32 375.416Z" fill="#F5F4F5"/>
<path d="M361.557 368.445L364.287 382.138H405.178L404.682 365.715L361.557 368.445Z" fill="#F5F4F5"/>
<path d="M343.678 177.008L351.411 132.18L331.156 130.68V177.008H343.678Z" fill="#F5F4F5"/>
<path d="M249.493 350.53L227.517 359.139L227.453 374.709L250.149 373.272L249.493 350.53Z" fill="#F5F4F5"/>
<path d="M249.396 347.029L248.194 305.275H248.176V290.55L227.797 292.711L227.531 355.569L249.387 347.006L249.396 347.029Z" fill="#F5F4F5"/>
<path d="M248.176 257.68L227.958 255.01L227.811 289.371L248.176 287.214V257.68Z" fill="#F5F4F5"/>
<path d="M398.882 291.174L398.029 303.137L374.148 305.716L375.998 315.183L403.104 313.136L402.7 299.562L404.861 290.568L398.882 291.174Z" fill="#F5F4F5"/>
<path d="M355.839 316.702L374.887 315.265L370.739 294.015L354.114 295.69L355.839 316.702Z" fill="#F5F4F5"/>
<path d="M356.023 318.905L357.477 336.627L360.061 360.934L361.121 366.253L404.618 363.504L403.173 315.354L356.023 318.905Z" fill="#F5F4F5"/>
<path d="M281.156 235.245L282.831 238.113L249.282 257.675V304.091L284.685 301.586L352.921 294.703L350.425 264.279L285.236 255.762L285.667 252.472L350.172 260.892L345.918 209.415L282.097 215.55L281.886 213.347L345.739 207.208L343.532 180.345H282.143L228.229 190.142L227.972 251.664L248.383 254.358L281.156 235.245ZM252.706 299.663C252.706 299.663 252.958 261.388 252.706 259.961L280.078 245.4L283.625 297.713L252.706 299.663Z" fill="#F5F4F5"/>
<path d="M396.643 291.398L371.845 293.899L373.722 303.536L395.954 301.136L396.643 291.398Z" fill="#F5F4F5"/>
<path d="M341.774 361.517C341.701 363.527 341.623 365.527 341.545 367.482L360.006 366.317L359.056 361.553L341.774 361.517Z" fill="#F5F4F5"/>
<path d="M302.016 177.01L305.27 162.266H330.05V130.598L252.563 124.862V154.593L228.357 160.068L228.247 186.765L281.844 177.01H302.016Z" fill="#F5F4F5"/>
<path d="M353.719 88.894L353.058 86.1774L382.651 74.4713L363.378 35.8335C363.028 35.8891 362.673 35.9167 362.318 35.9161L329.618 35.7646L330.508 89.8393L353.719 88.894Z" fill="#F5F4F5"/>
<path d="M398.565 68.1715L398.529 15.4001L376.993 15.3037C372.973 15.3037 369.697 18.6765 369.679 22.8844V28.3222C369.682 29.5393 369.397 30.74 368.847 31.8256C368.296 32.9112 367.496 33.8509 366.512 34.5676L385.785 73.2284L398.565 68.1715Z" fill="#F5F4F5"/>
<path d="M287.328 70.4339L284.831 14.9092L278.838 14.8816L255.435 14.7715L245.464 64.4087L287.328 70.4339ZM281.991 20.5213L282.789 65.7533L251.682 61.2012L258.496 20.5167L281.991 20.5213Z" fill="#F5F4F5"/>
<path d="M288.457 70.5992V71.058C288.512 75.3899 288.599 83.1955 288.668 91.5379L329.421 89.8722L328.531 35.7471L303.866 35.637C299.842 35.637 296.597 32.1908 296.611 27.9874L296.639 22.5451C296.639 18.3417 293.426 14.9139 289.384 14.8955H285.938L288.438 70.5946L288.457 70.5992Z" fill="#F5F4F5"/>
<path d="M242.174 63.9502L252.045 14.7627C245.88 14.8706 240.003 17.3881 235.671 21.776C231.34 26.164 228.899 32.0735 228.871 38.2391L228.77 62.7617L228.871 62.0413L242.174 63.9502Z" fill="#F5F4F5"/>
<path d="M249.241 124.613L228.513 123.076L228.375 156.662L249.241 151.94V124.613Z" fill="#F5F4F5"/>
<path d="M241.954 65.0417L228.77 63.1465L228.536 117.533L231.376 117.74L241.954 65.0417Z" fill="#F5F4F5"/>
<path d="M283.822 346.396L284.171 302.733L249.301 305.198L250.53 347.975L283.822 346.396Z" fill="#F5F4F5"/>
<path d="M290.233 336.319L339.618 359.974C340.21 344.515 340.733 330.06 340.682 329.138L341.756 329.078L342.279 328.036C342.981 328.39 342.981 328.39 342.61 338.926C342.408 344.808 342.114 352.632 341.816 360.461H358.891L356.371 336.732L353.008 295.8L288.484 302.316L290.233 336.319Z" fill="#F5F4F5"/>
<path d="M411.286 263.852L410.731 258.098L351.535 264.256L354.027 294.588L405.137 289.43L411.286 263.852Z" fill="#F5F4F5"/>
<path d="M330.05 165.588H307.941L305.417 177.009H330.05V165.588Z" fill="#F5F4F5"/>
<path d="M402.145 169.442L346.762 165.61L344.509 178.693L346.84 207.089L405.237 201.472L402.145 169.442ZM348.795 178.67L351.769 170.41L399.869 173.453L402.654 197.071L350.424 203.266L348.795 178.67Z" fill="#F5F4F5"/>
<path d="M407.89 228.794L405.458 203.68L347.019 209.296L349.217 236.022L407.89 228.794Z" fill="#F5F4F5"/>
<path d="M250.214 375.485L227.54 376.921L227.448 375.443L227.421 382.138H250.406L250.214 375.485Z" fill="#F5F4F5"/>
<path d="M430.082 55.6903L430.412 56.5347L430.476 39.1706C430.503 32.9122 428.043 26.8994 423.637 22.4546C419.231 18.0099 413.24 15.4973 406.982 15.4693L399.639 15.4326L399.672 67.7451L430.082 55.6903Z" fill="#F5F4F5"/>
<path d="M339.572 361.181L289.164 337.03L287.388 302.426L285.277 302.637L284.919 347.447L250.562 349.08L250.59 350.076L251.255 373.181L339.324 367.61C339.407 365.49 339.489 363.329 339.572 361.181ZM252.719 351.925L300.81 348.553L332.097 363.067L252.71 367.362L252.719 351.925Z" fill="#F5F4F5"/>
<path d="M415.75 113.803L417.815 101.569C399.735 95.1218 398.487 76.2664 398.542 70.5625L386.744 75.2339L404.512 110.898L415.75 113.803Z" fill="#F5F4F5"/>
<path d="M351.264 260.944L375.842 258.388L370.996 236.683L349.488 239.335L351.264 260.944Z" fill="#F5F4F5"/>
<path d="M402.232 132.553L356.33 132.548L352.517 132.264L347.331 162.32L401.819 166.092L400.557 153.023L405.917 133.718L402.232 132.553Z" fill="#F5F4F5"/>
<path d="M401.108 127.019L401.681 112.674L383.643 76.459L355.651 87.5272L365.287 127.019H401.108ZM382.551 80.8642L399.07 112.316L396.68 122.113L368.394 121.049L361.323 91.3038L382.551 80.8642Z" fill="#F5F4F5"/>
<path d="M408.252 300.136L409.097 328.316L428.985 327.197L429.049 328.303L409.129 329.422L410.143 363.155L428.948 361.962L429.086 364.173L410.207 365.367L410.712 382.139H429.035L429.434 288.091L410.694 289.981L408.252 300.136Z" fill="#F5F4F5"/>
<path d="M287.36 71.5581L245.249 65.5146L234.694 117.988L287.53 121.902C287.764 113.826 287.576 89.0415 287.36 71.5581Z" fill="#F5F4F5"/>
<path d="M356.633 127.018H363.007L353.99 89.9912L330.55 90.9457L331.114 125.128L356.633 127.018Z" fill="#F5F4F5"/>
<path d="M227.307 409.075L227.274 416.844C227.274 417.083 227.274 417.303 227.307 417.555V409.075Z" fill="#F5F4F5"/>
<path d="M288.626 121.985L330.004 125.046L329.444 90.9922L288.677 92.6579C288.764 104.176 288.801 116.46 288.626 121.985Z" fill="#F5F4F5"/>
<path d="M408.211 232.098L372.097 236.549L376.948 258.272L410.409 254.794L408.211 232.098Z" fill="#F5F4F5"/>
<path d="M417.999 100.463L420.293 86.7332L430.26 87.5087L430.384 57.9521L399.639 70.1171C399.034 90.9182 412.121 98.2328 417.999 100.463Z" fill="#F5F4F5"/>
<path d="M406.16 153.514L407.417 166.478L429.944 168.038L430.054 141.34L411.198 135.384L406.16 153.514Z" fill="#F5F4F5"/>
<path d="M416.884 264.243L410.964 288.843L429.439 286.976L429.549 261.182C423.877 259.691 418.931 258.474 416.274 257.97L416.884 264.243Z" fill="#F5F4F5"/>
<path d="M404.417 127.441L430.082 135.545L430.141 120.948L404.935 114.437L404.417 127.441Z" fill="#F5F4F5"/>
<path d="M415.948 254.584C418.018 254.896 421.936 255.731 429.563 257.736L429.802 201.335L410.988 203.17L415.948 254.584Z" fill="#F5F4F5"/>
<path d="M410.753 200.944L429.811 199.113L429.93 171.365L407.743 169.832L410.753 200.944Z" fill="#F5F4F5"/>
<path d="M250.214 375.484L250.406 382.138H251.512L251.32 375.415L339.241 369.854C339.072 374.176 338.911 378.362 338.783 382.138H340.994C341.137 378.573 341.302 374.287 341.481 369.716L360.46 368.514L363.177 382.138H364.306L361.552 368.445L404.687 365.692L405.183 382.115H410.717L410.212 365.343L429.09 364.15L428.948 361.938L410.134 363.131L409.12 329.399L429.04 328.279L428.976 327.173L409.088 328.293L408.239 300.113L410.685 289.958L429.425 288.067V286.966L410.951 288.834L416.87 264.233L416.26 257.951C418.917 258.465 423.864 259.681 429.536 261.163V257.717C421.909 255.712 417.99 254.876 415.921 254.564L410.937 203.128L429.751 201.293V199.072L410.694 200.907L407.679 169.791L429.871 171.328V168.001L407.344 166.441L406.087 153.477L411.134 135.347L429.99 141.312L430.017 135.517L404.348 127.413L404.871 114.408L430.077 120.92V117.496L417.825 114.33L419.862 102.229C423.533 103.344 426.961 104.207 430.132 104.84V103.702C427.016 103.078 423.657 102.229 420.037 101.133L422.07 89.0686L430.183 89.7019V87.4809L420.216 86.7054L417.921 100.435C412.02 98.205 398.956 90.8904 399.566 70.0893L430.311 57.9243V56.5156L429.981 55.6712L399.571 67.7077L399.538 15.3952H398.428L398.465 68.1666L385.648 73.2372L366.375 34.5764C365.461 35.2349 364.402 35.6645 363.287 35.8292L382.56 74.467L352.966 86.1731L353.627 88.8897L330.44 89.835L329.55 35.7603H328.444L329.334 89.9084L288.581 91.5741C288.512 83.2317 288.425 75.4261 288.37 71.0942V70.6354L285.928 14.895H284.818L287.314 70.4197L245.464 64.4083L255.436 14.7344H252.586C252.403 14.7344 252.228 14.7573 252.045 14.7619L242.174 63.9494L228.867 62.0405L228.766 62.7609V63.1418L241.954 65.037L231.377 117.735L228.536 117.528V123.072L249.264 124.609V151.935L228.371 156.644V160.048L252.572 154.574V124.838L330.064 130.579V162.242H305.284L302.031 176.986H281.84L228.242 186.742V190.119L282.156 180.308H343.546L345.753 207.171L281.899 213.311L282.111 215.514L345.918 209.415L350.149 260.906L285.667 252.481L285.236 255.771L350.424 264.288L352.921 294.712L284.685 301.595L249.282 304.101V257.676L282.831 238.113L281.156 235.245L248.383 254.358L227.972 251.664V255.009L248.19 257.68V287.214L227.825 289.371V292.711L248.204 290.55V305.275L249.406 347.034V347.011L227.55 355.573V359.144L249.525 350.535L250.182 373.277L227.481 374.713V375.448L227.572 376.925L250.214 375.484ZM341.531 367.491C341.609 365.527 341.687 363.526 341.761 361.525L359.042 361.571L359.992 366.334L341.531 367.491ZM361.107 366.252L360.047 360.933L357.464 336.612L356.009 318.89L403.159 315.339L404.604 363.489L361.107 366.252ZM371.831 293.9L396.611 291.399L395.918 301.136L373.69 303.532L371.831 293.9ZM370.725 294.014L374.855 315.265L355.807 316.702L354.082 295.689L370.725 294.014ZM403.09 313.136L375.984 315.183L374.148 305.716L398.01 303.137L398.859 291.174L404.825 290.568L402.659 299.562L403.09 313.136ZM370.968 236.682L375.81 258.387L351.232 260.943L349.461 239.334L370.968 236.682ZM376.934 258.272L372.084 236.544L408.198 232.098L410.396 254.794L376.934 258.272ZM401.805 166.092L347.318 162.32L352.503 132.263L356.312 132.543H402.2L405.871 133.709L400.507 153.014L401.805 166.092ZM398.524 70.5619C398.474 76.2658 399.722 95.1213 417.797 101.569L415.732 113.802L404.49 110.898L386.722 75.2333L398.524 70.5619ZM383.629 76.4586L401.668 112.674L401.094 127.018H365.269L355.633 87.5268L383.629 76.4586ZM353.976 89.991L362.993 127.018H356.619L331.096 125.128L330.536 90.9455L353.976 89.991ZM329.43 90.9913L329.99 125.045L288.613 121.984C288.787 116.478 288.751 104.175 288.663 92.6571L329.43 90.9913ZM245.235 65.5142L287.346 71.5577C287.562 89.0411 287.746 113.825 287.535 121.902L234.699 117.987L245.235 65.5142ZM351.393 132.181L343.66 177.009H331.142V130.662L351.393 132.181ZM307.923 165.587H330.036V177.009H305.403L307.923 165.587ZM344.496 178.693L346.749 165.61L402.131 169.442L405.233 201.472L346.827 207.088L344.496 178.693ZM405.444 203.674L407.876 228.794L349.213 236.03L347.019 209.305L405.444 203.674ZM351.549 264.251L410.744 258.098L411.304 263.852L405.151 289.43L354.04 294.588L351.549 264.251ZM356.39 336.755L358.909 360.483H341.829C342.128 352.655 342.421 344.831 342.623 338.948C342.995 328.394 342.995 328.394 342.293 328.059L341.77 329.1L340.696 329.16C340.746 330.078 340.237 344.537 339.631 359.997L290.247 336.342L288.503 302.339L353.026 295.822L356.39 336.755ZM284.18 302.756L283.831 346.419L250.544 347.997L249.31 305.22L284.18 302.756ZM250.595 350.099L250.567 349.103L284.924 347.47L285.281 302.66L287.392 302.449L289.168 337.053L339.576 361.204C339.494 363.351 339.411 365.513 339.329 367.656L251.26 373.227L250.595 350.099Z" fill="white"/>
<g opacity="0.72">
<path d="M300.81 348.554L252.719 351.926V367.363L332.096 363.068L300.81 348.554Z" fill="#D9D9D9"/>
</g>
<g opacity="0.72">
<path d="M399.878 173.457L351.773 170.415L348.8 178.67L350.429 203.271L402.659 197.076L399.878 173.457Z" fill="#D9D9D9"/>
</g>
<path d="M250.764 440.545L405.174 441.261C408.274 441.275 411.346 440.678 414.216 439.504C417.085 438.33 419.696 436.603 421.897 434.42C424.099 432.238 425.849 429.643 427.048 426.784C428.247 423.925 428.871 420.857 428.884 417.757L429.035 382.139H227.421L227.306 409.075V417.555C227.461 423.685 229.997 429.513 234.376 433.804C238.755 438.096 244.633 440.514 250.764 440.545Z" fill="#EBEBEB"/>
<g opacity="0.72">
<path d="M282.79 65.7525L281.991 20.5205H258.497L251.682 61.2004L282.79 65.7525Z" fill="#D9D9D9"/>
</g>
<g opacity="0.72">
<path d="M396.698 122.113L399.084 112.316L382.551 80.8643L361.336 91.3038L368.408 121.049L396.698 122.113Z" fill="#D9D9D9"/>
</g>
<g opacity="0.72">
<path d="M252.719 259.961C252.971 261.388 252.719 299.664 252.719 299.664L283.638 297.704L280.091 245.392L252.719 259.961Z" fill="#D9D9D9"/>
</g>
<g opacity="0.72">
<path d="M355.848 291.041L354.21 267.321L407.243 260.507V264.595L400.832 286.406L355.848 291.041Z" fill="#D9D9D9"/>
</g>
<path d="M316.618 94.3598C316.618 96.0734 315.938 97.7168 314.726 98.9284C313.514 100.14 311.871 100.821 310.157 100.821C308.445 100.82 306.802 100.138 305.592 98.9268C304.381 97.7153 303.701 96.0726 303.701 94.3598C303.701 92.6474 304.381 91.0052 305.592 89.7944C306.803 88.5836 308.445 87.9033 310.157 87.9033C311.006 87.9027 311.846 88.0693 312.63 88.3935C313.413 88.7177 314.126 89.1932 314.726 89.7928C315.326 90.3923 315.802 91.1043 316.127 91.8879C316.451 92.6716 316.618 93.5115 316.618 94.3598Z" fill="#E9505B"/>
<g opacity="0.6">
<path d="M316.614 94.0838C316.686 95.7948 316.076 97.4643 314.918 98.7257C313.76 99.9871 312.148 100.737 310.437 100.811C309.59 100.848 308.743 100.718 307.946 100.427C307.148 100.137 306.416 99.6917 305.791 99.1181C305.166 98.5445 304.66 97.8532 304.302 97.0839C303.944 96.3146 303.741 95.4822 303.705 94.6345C303.669 93.7872 303.8 92.941 304.091 92.1443C304.382 91.3477 304.826 90.6161 305.4 89.9913C305.974 89.3666 306.665 88.861 307.434 88.5035C308.203 88.1459 309.035 87.9433 309.882 87.9073C311.594 87.8339 313.264 88.4434 314.527 89.6017C315.789 90.7599 316.54 92.3722 316.614 94.0838Z" fill="white"/>
</g>
<path d="M310.162 98.435C312.534 98.435 314.457 96.512 314.457 94.1399C314.457 91.7677 312.534 89.8447 310.162 89.8447C307.79 89.8447 305.867 91.7677 305.867 94.1399C305.867 96.512 307.79 98.435 310.162 98.435Z" fill="#E33443"/>
<path d="M410.005 352.362C410.005 353.092 409.715 353.792 409.199 354.309C408.683 354.825 407.982 355.115 407.252 355.115C406.522 355.115 405.822 354.825 405.305 354.309C404.789 353.792 404.499 353.092 404.499 352.362C404.499 351.631 404.789 350.931 405.305 350.415C405.822 349.898 406.522 349.608 407.252 349.608C407.982 349.608 408.683 349.898 409.199 350.415C409.715 350.931 410.005 351.631 410.005 352.362Z" fill="#E33443"/>
<path d="M405.586 351.462L404.921 335.998L358.299 338.26C357.08 338.322 355.867 338.064 354.779 337.512L288.654 304.12C287.902 303.737 287.264 303.163 286.803 302.456C286.343 301.749 286.076 300.933 286.029 300.091L277.031 125.537C277.01 125.124 277.077 124.711 277.227 124.326C277.377 123.94 277.607 123.591 277.903 123.302C278.2 123.013 278.554 122.791 278.943 122.648C279.332 122.506 279.747 122.447 280.16 122.476L308.501 124.573V93.5938H311.818V125.004C311.82 125.404 311.739 125.801 311.581 126.168C311.423 126.536 311.192 126.868 310.901 127.143C310.606 127.415 310.258 127.624 309.879 127.757C309.501 127.89 309.099 127.945 308.698 127.918L280.38 125.821L289.361 299.916C289.374 300.176 289.456 300.427 289.598 300.644C289.74 300.862 289.937 301.038 290.168 301.155L356.289 334.553C356.864 334.846 357.507 334.982 358.152 334.947L405.16 332.653C405.546 332.634 405.932 332.691 406.296 332.822C406.66 332.952 406.994 333.154 407.28 333.415C407.567 333.674 407.799 333.989 407.963 334.339C408.127 334.69 408.219 335.07 408.234 335.457L408.918 351.311L405.586 351.462Z" fill="#E33443"/>
<path d="M282.446 209.691C287.066 209.691 290.811 205.945 290.811 201.325C290.811 196.705 287.066 192.96 282.446 192.96C277.826 192.96 274.08 196.705 274.08 201.325C274.08 205.945 277.826 209.691 282.446 209.691Z" fill="#E33443"/>
<path d="M282.445 207.14C285.656 207.14 288.259 204.537 288.259 201.326C288.259 198.115 285.656 195.512 282.445 195.512C279.234 195.512 276.631 198.115 276.631 201.326C276.631 204.537 279.234 207.14 282.445 207.14Z" fill="#FBFBFB"/>
<path d="M282.446 207.552C280.794 207.55 279.211 206.894 278.044 205.727C276.876 204.559 276.22 202.976 276.219 201.325C276.22 199.674 276.876 198.09 278.044 196.923C279.211 195.755 280.794 195.099 282.446 195.098C284.098 195.098 285.683 195.753 286.852 196.921C288.021 198.088 288.679 199.672 288.682 201.325C288.681 202.143 288.519 202.953 288.206 203.709C287.892 204.465 287.432 205.152 286.853 205.73C286.274 206.308 285.587 206.766 284.831 207.079C284.074 207.392 283.264 207.552 282.446 207.552ZM282.446 195.928C281.014 195.929 279.642 196.498 278.629 197.51C277.617 198.522 277.047 199.893 277.045 201.325C277.046 202.756 277.615 204.129 278.628 205.141C279.641 206.153 281.014 206.721 282.446 206.721C283.876 206.72 285.248 206.151 286.26 205.139C287.272 204.127 287.841 202.756 287.842 201.325C287.84 199.894 287.27 198.523 286.259 197.511C285.247 196.5 283.876 195.931 282.446 195.928Z" fill="#E9505B"/>
<path d="M318.569 72.6684C318.568 71.4446 318.296 70.2361 317.773 69.1297C317.25 68.0233 316.488 67.0463 315.543 66.269C314.598 65.4917 313.492 64.9333 312.305 64.6339C311.119 64.3344 309.881 64.3014 308.68 64.5371C307.045 64.8605 305.545 65.6693 304.377 66.8579C303.209 68.0466 302.426 69.5598 302.131 71.2C301.782 73.1451 302.142 75.151 303.146 76.8534L303.173 76.881C303.49 77.4179 303.884 77.7987 304.288 78.3632L309.097 84.7325C309.236 84.9177 309.416 85.068 309.623 85.1715C309.83 85.2751 310.059 85.329 310.29 85.329C310.522 85.329 310.75 85.2751 310.957 85.1715C311.164 85.068 311.344 84.9177 311.483 84.7325L316.214 78.4687C316.643 77.9597 317.045 77.4282 317.417 76.8764C318.171 75.6023 318.569 74.149 318.569 72.6684ZM310.286 76.2752C309.807 76.2752 309.333 76.1809 308.89 75.9975C308.448 75.8141 308.046 75.5453 307.708 75.2065C307.369 74.8676 307.101 74.4654 306.918 74.0229C306.735 73.5803 306.642 73.106 306.642 72.6271C306.642 71.6608 307.026 70.7341 307.709 70.0508C308.393 69.3675 309.319 68.9836 310.286 68.9836C311.252 68.9836 312.179 69.3675 312.862 70.0508C313.545 70.7341 313.929 71.6608 313.929 72.6271C313.928 73.5927 313.544 74.5182 312.86 75.2005C312.177 75.8828 311.251 76.2661 310.286 76.2661V76.2752Z" fill="#E33443"/>
<path d="M322.4 431.927H335.359L328.88 437.837L322.4 431.927Z" fill="white"/>
<path d="M343.1 388.792H314.654C310.599 388.792 307.312 392.079 307.312 396.134V424.58C307.312 428.635 310.599 431.922 314.654 431.922H343.1C347.155 431.922 350.443 428.635 350.443 424.58V396.134C350.443 392.079 347.155 388.792 343.1 388.792Z" fill="white"/>
<path d="M335.699 425.843H327.898C325.925 425.843 323.956 425.843 321.983 425.843H319.514C318.551 425.798 317.626 425.455 316.866 424.861C316.107 424.266 315.552 423.45 315.279 422.525C315.152 422.091 315.089 421.642 315.091 421.19C315.091 416.05 315.091 406.836 315.091 401.696C315.077 401.538 315.105 401.378 315.172 401.233C315.239 401.089 315.342 400.964 315.472 400.872C315.601 400.779 315.753 400.722 315.911 400.705C316.07 400.689 316.23 400.714 316.375 400.779C316.546 400.858 316.686 400.99 316.776 401.155C316.866 401.32 316.901 401.51 316.876 401.696C316.876 403.504 316.876 409.387 316.876 411.195C316.854 411.472 316.898 411.751 317.006 412.007C317.114 412.263 317.282 412.49 317.495 412.668C318.413 413.476 319.234 414.339 320.088 415.192C320.435 415.551 320.853 415.834 321.315 416.025C321.777 416.215 322.273 416.308 322.772 416.298C326.869 416.298 330.965 416.298 335.061 416.298C335.985 416.326 336.884 415.998 337.571 415.38C337.733 415.203 337.957 415.097 338.196 415.083C338.436 415.069 338.671 415.15 338.851 415.307C339.019 415.488 339.111 415.726 339.111 415.972C339.111 416.219 339.019 416.456 338.851 416.638C338.464 417.073 337.973 417.404 337.424 417.601C336.647 417.939 335.808 418.111 334.96 418.106C330.771 418.106 326.581 418.106 322.391 418.106C321.423 418.075 320.488 417.743 319.716 417.156C318.852 416.51 318.052 415.783 317.325 414.986C317.217 414.864 317.119 414.733 317.032 414.596L316.922 414.687C316.922 414.765 316.922 414.848 316.922 414.926C316.922 416.977 316.922 419.056 316.922 421.089C316.886 421.798 317.115 422.494 317.566 423.043C318.017 423.591 318.656 423.951 319.358 424.053C319.553 424.08 319.749 424.091 319.946 424.085H337.911C338.316 424.111 338.721 424.05 339.101 423.906C339.481 423.763 339.825 423.541 340.112 423.254C340.399 422.967 340.622 422.622 340.765 422.242C340.909 421.863 340.97 421.457 340.944 421.052C340.944 414.753 340.944 408.453 340.944 402.151C340.944 401.848 340.843 401.797 340.568 401.797C332.491 401.797 324.415 401.797 316.339 401.797H314.668C314.471 401.786 314.273 401.817 314.087 401.887C313.902 401.958 313.734 402.066 313.594 402.206C313.453 402.346 313.344 402.514 313.273 402.699C313.202 402.884 313.171 403.082 313.182 403.28C313.182 404.229 313.182 405.184 313.182 406.134C313.191 406.322 313.14 406.508 313.037 406.665C312.934 406.823 312.784 406.944 312.608 407.01C312.445 407.075 312.267 407.089 312.096 407.052C311.925 407.014 311.77 406.926 311.649 406.799C311.499 406.651 311.41 406.451 311.401 406.239C311.351 405.126 311.36 404.011 311.429 402.899C311.486 402.097 311.854 401.35 312.454 400.815C313.054 400.281 313.838 400.001 314.641 400.035C314.908 400.069 315.178 400.008 315.405 399.864C315.632 399.72 315.801 399.502 315.884 399.246C316.284 398.374 316.761 397.534 317.215 396.685C317.484 396.133 317.907 395.671 318.433 395.355C318.959 395.039 319.566 394.882 320.18 394.905H337.617C338.237 394.88 338.851 395.037 339.382 395.358C339.913 395.679 340.338 396.148 340.604 396.708C341.141 397.722 341.678 398.737 342.206 399.755C342.239 399.84 342.299 399.911 342.377 399.958C342.456 400.005 342.547 400.024 342.637 400.012C343.217 399.966 343.801 400.036 344.353 400.219C344.96 400.448 345.483 400.854 345.854 401.386C346.225 401.917 346.427 402.549 346.432 403.197C346.432 404.17 346.432 405.147 346.432 406.12C346.441 406.243 346.423 406.366 346.38 406.481C346.337 406.597 346.27 406.702 346.183 406.789C346.096 406.876 345.991 406.943 345.876 406.986C345.761 407.029 345.637 407.047 345.514 407.038C345.391 407.043 345.269 407.022 345.154 406.975C345.04 406.929 344.938 406.858 344.853 406.769C344.769 406.679 344.705 406.572 344.665 406.456C344.626 406.339 344.612 406.215 344.624 406.092C344.624 405.175 344.624 404.257 344.624 403.307C344.633 403.083 344.592 402.859 344.503 402.653C344.414 402.446 344.28 402.263 344.11 402.115C343.94 401.968 343.739 401.861 343.523 401.802C343.306 401.743 343.079 401.734 342.858 401.774C342.734 401.774 342.665 401.82 342.674 401.958C342.683 402.096 342.674 402.146 342.674 402.238C342.674 408.54 342.674 414.84 342.674 421.139C342.693 422.235 342.323 423.302 341.628 424.15C340.934 424.998 339.961 425.572 338.884 425.769H338.778L335.699 425.843ZM328.889 399.98H339.957C340.237 399.98 340.311 399.943 340.159 399.668C339.765 398.957 339.393 398.236 339.021 397.516C338.896 397.246 338.693 397.02 338.437 396.868C338.182 396.716 337.886 396.644 337.59 396.662C331.777 396.662 325.975 396.662 320.184 396.662C319.881 396.647 319.58 396.724 319.321 396.883C319.062 397.042 318.858 397.275 318.734 397.553C318.381 398.246 318.018 398.929 317.656 399.618C317.463 399.98 317.463 399.98 317.89 399.98H328.889Z" fill="#E33443"/>
<path d="M319.473 421.06C319.468 420.895 319.497 420.731 319.558 420.577C319.619 420.423 319.711 420.284 319.829 420.168C319.947 420.051 320.087 419.961 320.241 419.901C320.395 419.842 320.56 419.814 320.726 419.821C320.888 419.818 321.05 419.847 321.201 419.906C321.352 419.966 321.49 420.055 321.606 420.169C321.723 420.283 321.815 420.419 321.878 420.568C321.941 420.718 321.974 420.879 321.974 421.042C321.978 421.207 321.949 421.372 321.888 421.526C321.827 421.679 321.735 421.819 321.618 421.936C321.501 422.053 321.362 422.145 321.209 422.207C321.055 422.269 320.891 422.299 320.726 422.295C320.561 422.302 320.396 422.276 320.241 422.217C320.087 422.158 319.947 422.067 319.829 421.952C319.712 421.836 319.619 421.697 319.558 421.543C319.497 421.39 319.468 421.225 319.473 421.06Z" fill="#E33443"/>
<path d="M338.3 421.069C338.305 421.235 338.274 421.399 338.211 421.553C338.149 421.706 338.055 421.844 337.936 421.96C337.817 422.075 337.675 422.164 337.52 422.222C337.365 422.279 337.199 422.304 337.034 422.294C336.872 422.296 336.711 422.266 336.56 422.205C336.41 422.144 336.274 422.053 336.159 421.939C336.044 421.824 335.953 421.688 335.891 421.538C335.829 421.388 335.798 421.227 335.8 421.065C335.796 420.899 335.827 420.734 335.889 420.581C335.952 420.427 336.045 420.288 336.163 420.172C336.281 420.055 336.422 419.964 336.576 419.904C336.731 419.844 336.896 419.815 337.061 419.821C337.227 419.815 337.391 419.844 337.545 419.904C337.698 419.965 337.838 420.057 337.954 420.174C338.07 420.291 338.161 420.431 338.221 420.586C338.28 420.74 338.307 420.904 338.3 421.069Z" fill="#E33443"/>
</g>
<path d="M115.399 63.5151C114.392 63.3036 113.469 62.7981 112.749 62.0624C112.029 61.3268 111.543 60.3941 111.353 59.3822C111.162 58.3704 111.277 57.3249 111.681 56.3779C112.085 55.4309 112.76 54.625 113.622 54.0621C114.79 53.3487 116.187 53.1083 117.526 53.39C118.865 53.6716 120.046 54.4542 120.828 55.5776C121.386 56.4402 121.677 57.4487 121.664 58.4762C121.651 59.5037 121.335 60.5044 120.755 61.3526C120.175 62.2008 119.357 62.8586 118.404 63.2434C117.451 63.6282 116.406 63.7227 115.399 63.5151Z" fill="#E33443"/>
<path d="M100.235 59.5511C99.5648 59.4114 98.9291 59.1403 98.3646 58.7535C97.8 58.3667 97.3177 57.8718 96.9456 57.2974C96.1968 56.1388 95.9318 54.7329 96.2074 53.3813C96.4951 52.0328 97.304 50.8527 98.4578 50.098C99.6266 49.3879 101.022 49.1494 102.36 49.4309C103.698 49.7124 104.879 50.4928 105.663 51.6136C106.417 52.7699 106.683 54.1781 106.401 55.5297C106.12 56.8775 105.317 58.0591 104.167 58.8158C103.016 59.5726 101.613 59.8429 100.264 59.5676L100.235 59.5511Z" fill="#E33443"/>
<path d="M84.2965 56.4452C83.6281 56.3045 82.994 56.0333 82.4306 55.6472C81.8673 55.261 81.3856 54.7675 81.0132 54.1949C80.2645 53.0363 79.9995 51.6304 80.2751 50.2787C80.5607 48.927 81.3713 47.7439 82.5288 46.9896C83.6962 46.2792 85.0905 46.0408 86.4276 46.3229C87.7647 46.6049 88.9439 47.3863 89.7249 48.5077C90.1018 49.0788 90.3612 49.7192 90.4879 50.3915C90.6147 51.0639 90.6062 51.7548 90.463 52.4239C90.1803 53.7708 89.3765 54.9512 88.2268 55.7077C87.0771 56.4641 85.6749 56.7352 84.3261 56.4617L84.2965 56.4452Z" fill="#E33443"/>
<path d="M68.4442 53.2391C67.4267 53.0791 66.4796 52.6209 65.7226 51.9225C64.9657 51.2241 64.4329 50.3168 64.1918 49.3155C63.9506 48.3141 64.012 47.2638 64.368 46.2973C64.724 45.3309 65.3587 44.4917 66.1918 43.8861C67.3223 43.1167 68.7036 42.8071 70.0543 43.0204C71.4051 43.2336 72.6238 43.9537 73.4623 45.034C73.867 45.5864 74.1588 46.213 74.3212 46.8782C74.4836 47.5435 74.5134 48.2342 74.4088 48.9109C74.1888 50.2734 73.4388 51.4936 72.3224 52.3051C71.2061 53.1166 69.814 53.4536 68.4501 53.2424L68.4442 53.2391Z" fill="#E33443"/>
<path d="M52.6229 50.7042C51.947 50.5979 51.2987 50.3593 50.7152 50.0019C50.1318 49.6446 49.6245 49.1756 49.2227 48.6218C48.411 47.5054 48.076 46.1123 48.2912 44.7489C48.5064 43.3855 49.2544 42.1634 50.3705 41.3513C51.5015 40.5835 52.8824 40.2749 54.2326 40.488C55.5829 40.7012 56.8015 41.4202 57.641 42.4991C58.2467 43.3315 58.592 44.3248 58.6332 45.3534C58.6745 46.382 58.4098 47.3997 57.8728 48.2779C57.3357 49.1561 56.5502 49.8554 55.6158 50.2872C54.6813 50.7191 53.6398 50.8642 52.6229 50.7042Z" fill="#E33443"/>
<path d="M36.5423 47.9225C35.1906 47.6369 34.0076 46.8263 33.2532 45.6689C32.5087 44.5098 32.246 43.1059 32.521 41.7561C32.8066 40.4043 33.6172 39.2213 34.7746 38.4669C35.942 37.7566 37.3362 37.5176 38.6736 37.7985C40.0109 38.0794 41.191 38.8591 41.974 39.9791C42.3488 40.5511 42.607 41.1915 42.7337 41.8635C42.8604 42.5356 42.853 43.226 42.7121 43.8952C42.4292 45.243 41.625 46.4244 40.4749 47.1818C39.3248 47.9393 37.9219 48.2114 36.5719 47.939L36.5423 47.9225Z" fill="#E33443"/>
<path d="M20.1539 44.955C19.478 44.8488 18.8297 44.6101 18.2462 44.2527C17.6627 43.8954 17.1556 43.4264 16.7537 42.8726C15.9421 41.7562 15.607 40.3631 15.8222 38.9997C16.0375 37.6363 16.7854 36.4142 17.9015 35.6021C19.032 34.8327 20.4133 34.5231 21.7641 34.7364C23.1148 34.9496 24.3335 35.6697 25.172 36.7499C25.9883 37.8682 26.3275 39.2646 26.1152 40.6328C25.8955 41.9943 25.1458 43.2136 24.0299 44.0241C22.914 44.8346 21.5226 45.1705 20.1598 44.9583L20.1539 44.955Z" fill="#E33443"/>
<path d="M4.32934 42.4249C3.31261 42.2626 2.36673 41.8028 1.61102 41.1036C0.855301 40.4043 0.32363 39.4969 0.0830506 38.4957C-0.157528 37.4946 -0.0962377 36.4447 0.259216 35.4784C0.61467 34.5121 1.24834 33.6727 2.0803 33.0661C3.21176 32.2999 4.5923 31.9928 5.94186 32.2071C7.29142 32.4214 8.5089 33.1409 9.34742 34.2198C9.75211 34.7722 10.044 35.3989 10.2064 36.0641C10.3688 36.7293 10.3985 37.42 10.2939 38.0967C10.0739 39.4592 9.32394 40.6794 8.20758 41.4909C7.09121 42.3025 5.69918 42.6394 4.33528 42.4283L4.32934 42.4249Z" fill="#E33443"/>
<path d="M119.997 567.243C119.838 566.577 119.813 565.886 119.922 565.211C120.032 564.535 120.273 563.888 120.633 563.306C120.993 562.724 121.465 562.218 122.021 561.819C122.576 561.42 123.205 561.134 123.872 560.978C124.537 560.821 125.227 560.797 125.902 560.906C126.577 561.016 127.223 561.258 127.804 561.618C128.386 561.978 128.89 562.449 129.289 563.004C129.688 563.559 129.974 564.188 130.129 564.854C130.288 565.519 130.313 566.21 130.203 566.885C130.094 567.561 129.853 568.208 129.493 568.79C129.132 569.372 128.661 569.878 128.105 570.277C127.55 570.676 126.92 570.962 126.254 571.118C125.589 571.275 124.899 571.299 124.224 571.19C123.549 571.08 122.903 570.838 122.321 570.478C121.74 570.118 121.236 569.647 120.837 569.092C120.438 568.537 120.152 567.908 119.997 567.243ZM115.979 550.174C115.821 549.508 115.797 548.818 115.907 548.142C116.016 547.467 116.258 546.82 116.618 546.238C116.978 545.656 117.449 545.151 118.004 544.752C118.559 544.352 119.188 544.066 119.854 543.909C120.52 543.752 121.21 543.728 121.885 543.837C122.561 543.947 123.208 544.189 123.789 544.549C124.371 544.908 124.876 545.38 125.276 545.935C125.676 546.49 125.962 547.119 126.118 547.785C126.276 548.451 126.301 549.142 126.192 549.818C126.082 550.494 125.84 551.141 125.479 551.724C125.118 552.306 124.646 552.811 124.09 553.21C123.533 553.609 122.903 553.894 122.236 554.049C121.571 554.205 120.882 554.229 120.208 554.119C119.534 554.008 118.888 553.766 118.308 553.406C117.727 553.047 117.224 552.576 116.825 552.021C116.427 551.466 116.141 550.839 115.986 550.174H115.979ZM111.961 533.112C111.803 532.446 111.778 531.755 111.887 531.08C111.996 530.404 112.238 529.757 112.598 529.175C112.958 528.593 113.429 528.087 113.985 527.688C114.541 527.289 115.17 527.003 115.836 526.847C116.502 526.69 117.192 526.665 117.868 526.775C118.543 526.885 119.19 527.127 119.772 527.486C120.353 527.846 120.859 528.317 121.258 528.873C121.658 529.428 121.944 530.057 122.1 530.723C122.414 532.064 122.183 533.476 121.458 534.647C120.733 535.819 119.573 536.656 118.232 536.973C117.567 537.132 116.877 537.157 116.203 537.049C115.528 536.941 114.881 536.7 114.299 536.341C113.717 535.983 113.212 535.513 112.812 534.959C112.412 534.404 112.125 533.777 111.968 533.112H111.961ZM107.943 516.049C107.785 515.384 107.76 514.693 107.869 514.018C107.978 513.342 108.22 512.695 108.58 512.113C108.94 511.531 109.411 511.025 109.967 510.626C110.523 510.227 111.152 509.941 111.818 509.785C112.484 509.628 113.174 509.603 113.85 509.713C114.525 509.823 115.172 510.064 115.754 510.424C116.336 510.784 116.841 511.255 117.24 511.811C117.64 512.366 117.926 512.995 118.083 513.66C118.24 514.326 118.264 515.016 118.155 515.692C118.045 516.367 117.803 517.014 117.444 517.596C117.084 518.178 116.612 518.683 116.057 519.082C115.502 519.482 114.873 519.768 114.207 519.925C113.542 520.082 112.852 520.106 112.177 519.997C111.503 519.887 110.856 519.645 110.275 519.285C109.694 518.925 109.189 518.454 108.79 517.899C108.391 517.344 108.106 516.715 107.95 516.049H107.943ZM103.932 498.967C103.618 497.629 103.846 496.221 104.567 495.051C105.289 493.881 106.444 493.044 107.78 492.723C108.446 492.565 109.137 492.54 109.812 492.649C110.488 492.758 111.135 493 111.717 493.36C112.299 493.72 112.804 494.191 113.204 494.747C113.603 495.303 113.889 495.932 114.044 496.598C114.202 497.264 114.226 497.954 114.116 498.628C114.007 499.303 113.765 499.95 113.405 500.531C113.045 501.112 112.574 501.617 112.019 502.016C111.463 502.415 110.835 502.7 110.169 502.856C109.504 503.011 108.815 503.033 108.142 502.921C107.468 502.81 106.823 502.566 106.244 502.205C105.665 501.844 105.162 501.372 104.766 500.816C104.369 500.261 104.086 499.632 103.932 498.967ZM99.9143 481.905C99.7571 481.239 99.7327 480.55 99.8424 479.875C99.9522 479.2 100.194 478.553 100.554 477.972C100.914 477.391 101.385 476.886 101.94 476.488C102.495 476.089 103.124 475.803 103.79 475.647C104.455 475.488 105.146 475.462 105.822 475.571C106.498 475.68 107.146 475.922 107.728 476.282C108.31 476.642 108.815 477.114 109.215 477.67C109.614 478.226 109.899 478.856 110.054 479.523C110.366 480.866 110.133 482.278 109.407 483.451C108.681 484.623 107.52 485.461 106.179 485.78C104.836 486.093 103.425 485.862 102.251 485.139C101.078 484.416 100.238 483.258 99.9143 481.918V481.905ZM95.8965 464.843C95.7384 464.176 95.7135 463.485 95.8232 462.81C95.9329 462.134 96.1751 461.486 96.5358 460.904C96.8965 460.322 97.3687 459.817 97.9252 459.418C98.4817 459.019 99.1116 458.733 99.7786 458.578C100.444 458.421 101.134 458.397 101.809 458.507C102.483 458.616 103.13 458.858 103.711 459.218C104.292 459.578 104.797 460.049 105.196 460.604C105.595 461.16 105.88 461.788 106.036 462.454C106.346 463.798 106.113 465.21 105.387 466.383C104.662 467.556 103.502 468.396 102.161 468.718C100.818 469.03 99.4069 468.8 98.2337 468.077C97.0604 467.353 96.2204 466.196 95.8965 464.856V464.843ZM91.8787 447.774C91.5586 446.426 91.787 445.006 92.5137 443.826C93.2404 442.646 94.4059 441.803 95.754 441.482C96.422 441.328 97.114 441.306 97.7904 441.418C98.4669 441.531 99.1144 441.776 99.6962 442.139C100.278 442.502 100.782 442.976 101.181 443.534C101.579 444.092 101.864 444.724 102.018 445.392C102.332 446.735 102.1 448.148 101.374 449.321C100.647 450.494 99.4855 451.331 98.1429 451.649C96.8004 451.963 95.3881 451.734 94.2144 451.01C93.0407 450.287 92.201 449.128 91.8787 447.787V447.774ZM87.8541 430.678C87.697 430.012 87.6728 429.322 87.783 428.647C87.8932 427.971 88.1356 427.325 88.4963 426.743C88.8569 426.162 89.3287 425.658 89.8847 425.259C90.4407 424.86 91.0698 424.575 91.7362 424.42C92.4016 424.261 93.092 424.235 93.7674 424.344C94.4429 424.453 95.0901 424.695 95.6717 425.055C96.2534 425.415 96.7581 425.887 97.1566 426.443C97.5551 426.999 97.8396 427.629 97.9936 428.296C98.1527 428.961 98.1785 429.651 98.0696 430.327C97.9606 431.002 97.7191 431.65 97.3588 432.231C96.9986 432.813 96.5268 433.318 95.9706 433.716C95.4145 434.115 94.785 434.399 94.1183 434.553C93.4534 434.712 92.7638 434.737 92.089 434.629C91.4141 434.52 90.7672 434.28 90.1854 433.921C89.6035 433.563 89.0981 433.093 88.6981 432.538C88.2981 431.984 88.0113 431.357 87.8541 430.691V430.678ZM83.8431 413.616C83.6858 412.95 83.6613 412.26 83.771 411.584C83.8807 410.909 84.1224 410.262 84.4823 409.68C84.8422 409.098 85.3132 408.593 85.8685 408.194C86.4238 407.794 87.0524 407.508 87.7184 407.351C88.3837 407.194 89.0736 407.17 89.7484 407.28C90.4232 407.389 91.0697 407.631 91.651 407.991C92.2322 408.351 92.7367 408.822 93.1357 409.377C93.5346 409.933 93.8201 410.561 93.9758 411.227C94.135 411.893 94.1609 412.583 94.052 413.259C93.9431 413.935 93.7016 414.583 93.3414 415.165C92.9813 415.747 92.5095 416.253 91.9533 416.652C91.3971 417.051 90.7674 417.336 90.1006 417.491C89.4361 417.648 88.7472 417.673 88.0731 417.564C87.399 417.456 86.7529 417.215 86.1719 416.856C85.5908 416.498 85.086 416.028 84.6865 415.474C84.2869 414.921 84.0003 414.294 83.8431 413.629V413.616ZM79.8253 396.547C79.6671 395.881 79.642 395.191 79.7514 394.516C79.8607 393.841 80.1024 393.194 80.4625 392.613C80.8226 392.031 81.294 391.527 81.8497 391.128C82.4054 390.729 83.0344 390.444 83.7006 390.289C84.366 390.13 85.0563 390.104 85.7318 390.213C86.4072 390.322 87.0545 390.564 87.6361 390.924C88.2178 391.284 88.7224 391.756 89.1209 392.312C89.5194 392.868 89.8039 393.498 89.958 394.165C90.1171 394.83 90.1429 395.52 90.0339 396.196C89.925 396.871 89.6834 397.519 89.3232 398.1C88.963 398.682 88.4912 399.186 87.935 399.585C87.3789 399.983 86.7494 400.268 86.0828 400.422C85.4182 400.581 84.7288 400.608 84.054 400.5C83.3793 400.392 82.7326 400.151 82.1511 399.792C81.5696 399.433 81.0647 398.963 80.6656 398.408C80.2664 397.854 79.9809 397.226 79.8253 396.56V396.547ZM86.266 383.156C84.9014 382.961 83.67 382.233 82.8417 381.131C82.0134 380.029 81.6559 378.644 81.8477 377.279C82.051 375.91 82.787 374.677 83.8955 373.848C85.0041 373.019 86.3952 372.662 87.7659 372.854C89.1297 373.052 90.3595 373.783 91.1863 374.885C92.013 375.988 92.3693 377.373 92.1773 378.738C92.029 379.779 91.5711 380.751 90.863 381.528C90.155 382.305 89.2295 382.851 88.207 383.095C87.5701 383.24 86.9121 383.265 86.266 383.17V383.156ZM88.7432 365.816C87.3781 365.619 86.1466 364.89 85.3185 363.787C84.4903 362.684 84.1331 361.298 84.3249 359.932C84.4154 359.253 84.6403 358.599 84.9865 358.008C85.3326 357.418 85.7932 356.902 86.341 356.491C86.8889 356.08 87.5132 355.783 88.1773 355.616C88.8415 355.449 89.5322 355.417 90.2091 355.52C90.8876 355.61 91.5414 355.834 92.1321 356.18C92.7229 356.525 93.2388 356.985 93.6496 357.532C94.0604 358.08 94.3579 358.703 94.5246 359.367C94.6914 360.031 94.724 360.721 94.6206 361.398C94.4777 362.431 94.0251 363.396 93.3224 364.167C92.6196 364.938 91.6998 365.477 90.6842 365.714C90.0494 365.869 89.3919 365.908 88.7432 365.83V365.816ZM91.2136 348.435C89.8491 348.24 88.6176 347.512 87.7893 346.41C86.961 345.308 86.6036 343.923 86.7954 342.557C86.9921 341.192 87.7218 339.961 88.8247 339.133C89.9276 338.305 91.3138 337.947 92.6795 338.139C93.3565 338.232 94.0083 338.459 94.5972 338.805C95.1862 339.152 95.7006 339.612 96.1108 340.158C96.521 340.705 96.8188 341.327 96.9871 341.989C97.1553 342.652 97.1906 343.341 97.091 344.017C96.9569 345.056 96.5087 346.029 95.8065 346.806C95.1043 347.584 94.1815 348.128 93.1614 348.367C92.523 348.516 91.8622 348.544 91.2136 348.448V348.435ZM93.6908 331.088C92.3267 330.893 91.0958 330.164 90.2686 329.062C89.4414 327.96 89.0856 326.575 89.2793 325.21C89.3693 324.531 89.5931 323.877 89.9376 323.285C90.2822 322.693 90.7408 322.176 91.2868 321.762C91.8327 321.349 92.4553 321.048 93.1184 320.877C93.7815 320.705 94.4721 320.667 95.15 320.765C96.5157 320.972 97.7451 321.708 98.572 322.814C99.3989 323.92 99.7568 325.308 99.5682 326.676C99.425 327.709 98.9721 328.673 98.2693 329.442C97.5665 330.212 96.6468 330.75 95.6318 330.986C94.9984 331.15 94.3391 331.189 93.6908 331.101V331.088ZM96.1748 313.754C94.807 313.551 93.5748 312.816 92.7462 311.709C91.9175 310.602 91.5594 309.212 91.7497 307.843C91.9447 306.479 92.6733 305.248 93.7754 304.421C94.8775 303.593 96.2628 303.238 97.6271 303.431C98.303 303.527 98.9533 303.755 99.5409 304.102C100.129 304.45 100.642 304.909 101.052 305.455C101.461 306.001 101.759 306.623 101.929 307.284C102.098 307.945 102.135 308.633 102.039 309.309C101.904 310.356 101.452 311.336 100.743 312.119C100.035 312.901 99.1035 313.448 98.0751 313.686C97.4516 313.828 96.8068 313.851 96.1748 313.754ZM98.6452 296.38C97.9664 296.289 97.3123 296.065 96.7205 295.72C96.1288 295.375 95.6111 294.917 95.1973 294.371C94.7834 293.825 94.4817 293.203 94.3093 292.541C94.137 291.878 94.0974 291.187 94.193 290.509C94.398 289.142 95.1335 287.911 96.24 287.083C97.3466 286.255 98.735 285.896 100.104 286.084C101.47 286.279 102.703 287.009 103.531 288.112C104.36 289.215 104.716 290.602 104.523 291.968C104.371 293.005 103.911 293.972 103.201 294.744C102.492 295.515 101.566 296.054 100.546 296.292C99.9233 296.441 99.2785 296.471 98.6452 296.38ZM101.082 279.006C100.406 278.91 99.755 278.682 99.1671 278.335C98.5792 277.987 98.0654 277.528 97.6551 276.982C97.2448 276.436 96.9461 275.815 96.7759 275.154C96.6058 274.492 96.5675 273.804 96.6634 273.128C96.8633 271.759 97.5976 270.524 98.7054 269.695C99.8133 268.866 101.205 268.509 102.575 268.703C103.941 268.898 105.173 269.627 106.002 270.731C106.83 271.834 107.187 273.221 106.993 274.587C106.849 275.63 106.393 276.604 105.684 277.382C104.975 278.16 104.047 278.705 103.023 278.944C102.387 279.101 101.726 279.122 101.082 279.006ZM103.559 261.665C102.195 261.467 100.965 260.736 100.138 259.634C99.3117 258.531 98.9554 257.146 99.1474 255.781C99.2406 255.104 99.4669 254.452 99.8134 253.863C100.16 253.274 100.62 252.76 101.166 252.35C101.713 251.94 102.335 251.642 102.997 251.473C103.66 251.305 104.349 251.27 105.025 251.37C105.703 251.461 106.356 251.686 106.947 252.031C107.538 252.376 108.055 252.835 108.468 253.38C108.881 253.926 109.183 254.548 109.355 255.21C109.527 255.873 109.566 256.563 109.47 257.24C109.315 258.276 108.853 259.241 108.144 260.012C107.436 260.782 106.512 261.323 105.493 261.563C104.86 261.717 104.204 261.752 103.559 261.665ZM106.036 244.318C104.67 244.111 103.441 243.375 102.614 242.269C101.787 241.163 101.429 239.775 101.618 238.407C101.714 237.731 101.942 237.08 102.289 236.492C102.636 235.904 103.096 235.39 103.641 234.98C104.187 234.57 104.808 234.271 105.47 234.101C106.131 233.931 106.819 233.893 107.495 233.988C108.176 234.081 108.832 234.307 109.425 234.656C110.017 235.004 110.535 235.467 110.946 236.017C111.358 236.567 111.657 237.194 111.824 237.86C111.991 238.527 112.024 239.22 111.92 239.9C111.776 240.933 111.322 241.899 110.618 242.67C109.914 243.44 108.993 243.979 107.977 244.216C107.342 244.372 106.684 244.407 106.036 244.318ZM108.506 226.937C107.143 226.74 105.913 226.011 105.086 224.91C104.26 223.808 103.903 222.424 104.095 221.06C104.191 220.383 104.419 219.733 104.766 219.145C105.113 218.557 105.573 218.043 106.119 217.633C106.664 217.223 107.286 216.924 107.947 216.754C108.608 216.584 109.296 216.545 109.972 216.641C111.337 216.838 112.569 217.568 113.397 218.671C114.225 219.774 114.583 221.16 114.391 222.526C114.237 223.562 113.776 224.528 113.067 225.299C112.358 226.07 111.433 226.61 110.414 226.849C109.789 226.998 109.142 227.028 108.506 226.937ZM110.99 209.597C109.623 209.39 108.392 208.653 107.564 207.545C106.735 206.438 106.377 205.049 106.565 203.678C106.76 202.314 107.489 201.083 108.591 200.256C109.693 199.429 111.079 199.073 112.443 199.267C113.807 199.462 115.039 200.19 115.867 201.292C116.695 202.394 117.053 203.779 116.861 205.144C116.72 206.188 116.265 207.164 115.555 207.942C114.846 208.72 113.917 209.264 112.891 209.502C112.268 209.649 111.624 209.681 110.99 209.597ZM113.461 192.202C112.782 192.113 112.127 191.89 111.536 191.544C110.944 191.199 110.427 190.74 110.016 190.192C109.604 189.645 109.306 189.021 109.139 188.357C108.972 187.692 108.939 187.002 109.043 186.325C109.133 185.646 109.358 184.993 109.703 184.402C110.049 183.811 110.509 183.296 111.056 182.884C111.603 182.473 112.226 182.175 112.89 182.007C113.553 181.839 114.243 181.805 114.92 181.906C116.285 182.101 117.516 182.83 118.344 183.932C119.173 185.033 119.53 186.419 119.338 187.784C119.188 188.821 118.727 189.789 118.018 190.56C117.308 191.331 116.382 191.87 115.361 192.107C114.74 192.261 114.094 192.294 113.461 192.202ZM115.924 174.875C114.554 174.677 113.319 173.943 112.489 172.835C111.66 171.726 111.304 170.334 111.499 168.964C111.699 167.594 112.434 166.36 113.541 165.531C114.649 164.701 116.041 164.345 117.411 164.539C118.781 164.739 120.017 165.474 120.846 166.583C121.676 167.693 122.032 169.086 121.836 170.457C121.684 171.493 121.224 172.459 120.516 173.23C119.808 174 118.884 174.541 117.865 174.78C117.23 174.931 116.572 174.964 115.924 174.875ZM118.395 157.501C117.029 157.306 115.796 156.577 114.968 155.473C114.139 154.37 113.783 152.983 113.977 151.617C114.175 150.253 114.905 149.023 116.008 148.196C117.111 147.37 118.496 147.013 119.861 147.205C120.539 147.295 121.193 147.519 121.784 147.864C122.375 148.21 122.89 148.67 123.301 149.217C123.712 149.764 124.01 150.388 124.176 151.052C124.343 151.716 124.376 152.406 124.272 153.083C124.129 154.116 123.677 155.081 122.974 155.852C122.271 156.622 121.351 157.162 120.336 157.399C119.694 157.555 119.029 157.59 118.374 157.501H118.395ZM120.872 140.154C119.506 139.949 118.275 139.213 117.448 138.106C116.621 136.999 116.263 135.611 116.454 134.242C116.55 133.566 116.778 132.916 117.125 132.328C117.472 131.74 117.932 131.226 118.477 130.816C119.023 130.406 119.644 130.107 120.306 129.937C120.967 129.766 121.655 129.728 122.331 129.824C123.008 129.917 123.66 130.144 124.25 130.49C124.839 130.836 125.354 131.296 125.765 131.843C126.175 132.389 126.474 133.011 126.643 133.674C126.812 134.336 126.848 135.025 126.749 135.702C126.614 136.741 126.164 137.714 125.461 138.492C124.758 139.269 123.834 139.813 122.813 140.052C122.172 140.21 121.506 140.245 120.852 140.154H120.872ZM123.322 122.773C121.959 122.576 120.729 121.847 119.902 120.745C119.075 119.644 118.719 118.259 118.911 116.895C119.006 116.219 119.234 115.569 119.582 114.981C119.929 114.394 120.389 113.88 120.935 113.471C121.481 113.061 122.102 112.763 122.763 112.594C123.424 112.424 124.112 112.387 124.788 112.484C125.464 112.579 126.115 112.807 126.703 113.155C127.291 113.502 127.804 113.961 128.215 114.507C128.625 115.053 128.924 115.674 129.094 116.336C129.264 116.997 129.302 117.685 129.206 118.361C129.062 119.397 128.609 120.366 127.907 121.142C127.205 121.918 126.287 122.464 125.27 122.711C124.63 122.854 123.969 122.875 123.322 122.773ZM125.799 105.432C125.12 105.336 124.466 105.106 123.875 104.756C123.285 104.406 122.77 103.942 122.359 103.392C121.948 102.842 121.65 102.217 121.483 101.551C121.315 100.885 121.28 100.193 121.381 99.5141C121.578 98.1508 122.307 96.921 123.408 96.0941C124.51 95.2673 125.894 94.9107 127.258 95.1026C128.629 95.3009 129.864 96.0347 130.694 97.143C131.523 98.2513 131.879 99.6435 131.683 101.014C131.532 102.051 131.071 103.018 130.362 103.789C129.653 104.56 128.727 105.1 127.706 105.337C127.082 105.485 126.435 105.518 125.799 105.432ZM128.243 88.0579C126.878 87.8629 125.647 87.1345 124.818 86.0327C123.99 84.9309 123.633 83.5455 123.824 82.1805C124.031 80.813 124.768 79.5819 125.875 78.7537C126.983 77.9255 128.372 77.5669 129.742 77.7555C131.106 77.9522 132.336 78.6812 133.162 79.7828C133.989 80.8845 134.346 82.2689 134.154 83.6329C134.003 84.6707 133.542 85.6388 132.833 86.4112C132.124 87.1836 131.198 87.7243 130.177 87.9629C129.544 88.1143 128.888 88.1466 128.243 88.0579ZM130.72 70.7175C129.353 70.5126 128.122 69.7771 127.293 68.6705C126.465 67.564 126.106 66.1755 126.295 64.8062C126.501 63.4387 127.238 62.2076 128.346 61.3794C129.453 60.5512 130.843 60.1926 132.213 60.3812C133.581 60.586 134.812 61.3228 135.64 62.4311C136.467 63.5394 136.823 64.9296 136.631 66.2993C136.479 67.335 136.019 68.301 135.311 69.072C134.603 69.8429 133.68 70.3832 132.661 70.6225C132.025 70.7737 131.367 70.8059 130.72 70.7175Z" fill="#E33443"/>
<path d="M131.139 588.072C130.471 588.232 129.778 588.254 129.101 588.137C128.425 588.02 127.779 587.767 127.203 587.394C126.617 587.048 126.109 586.587 125.71 586.037C125.311 585.487 125.029 584.861 124.882 584.197C124.799 583.857 124.754 583.509 124.746 583.159C124.725 582.821 124.741 582.482 124.793 582.147C124.857 581.811 124.945 581.48 125.058 581.157C125.178 580.832 125.33 580.52 125.513 580.227C125.695 579.952 125.897 579.691 126.117 579.446C126.354 579.2 126.61 578.973 126.884 578.768C127.157 578.566 127.448 578.389 127.753 578.238C128.404 577.982 129.09 577.824 129.789 577.77C130.128 577.759 130.467 577.786 130.8 577.851C131.139 577.904 131.471 577.993 131.791 578.116C132.108 578.236 132.417 578.379 132.714 578.544C132.999 578.726 133.263 578.94 133.501 579.182C133.757 579.407 133.984 579.662 134.18 579.942C134.38 580.217 134.555 580.51 134.702 580.817C134.85 581.135 134.963 581.467 135.042 581.808C135.339 583.151 135.1 584.558 134.377 585.728C133.653 586.897 132.501 587.739 131.166 588.072H131.139Z" fill="#E33443"/>
<path d="M404.793 518.242C404.481 516.899 404.713 515.487 405.439 514.314C406.166 513.142 407.326 512.304 408.668 511.985C409.333 511.828 410.023 511.803 410.698 511.913C411.373 512.023 412.019 512.265 412.601 512.625C413.182 512.985 413.686 513.456 414.085 514.011C414.484 514.566 414.77 515.195 414.925 515.86C415.239 517.204 415.007 518.617 414.281 519.79C413.555 520.963 412.393 521.8 411.05 522.118C409.707 522.426 408.296 522.192 407.125 521.466C405.953 520.741 405.115 519.582 404.793 518.242ZM388.267 522.138C388.109 521.472 388.083 520.782 388.193 520.106C388.302 519.431 388.543 518.783 388.904 518.201C389.264 517.619 389.735 517.114 390.291 516.715C390.846 516.315 391.476 516.03 392.142 515.874C392.807 515.717 393.497 515.692 394.172 515.802C394.847 515.912 395.493 516.154 396.075 516.514C396.656 516.873 397.16 517.345 397.559 517.9C397.958 518.455 398.244 519.083 398.399 519.749C398.713 521.094 398.482 522.508 397.756 523.682C397.029 524.856 395.867 525.694 394.524 526.013C393.181 526.323 391.77 526.09 390.597 525.364C389.425 524.638 388.588 523.479 388.267 522.138ZM371.775 526.02C371.617 525.354 371.591 524.664 371.701 523.988C371.81 523.313 372.051 522.665 372.412 522.083C372.772 521.501 373.243 520.996 373.799 520.597C374.354 520.197 374.984 519.912 375.65 519.756C376.994 519.444 378.407 519.676 379.581 520.402C380.755 521.128 381.593 522.289 381.914 523.631C382.219 524.975 381.983 526.385 381.259 527.556C380.534 528.728 379.377 529.568 378.039 529.895C376.697 530.203 375.287 529.969 374.117 529.244C372.946 528.518 372.109 527.359 371.788 526.02H371.775ZM355.256 529.909C355.096 529.243 355.071 528.552 355.179 527.876C355.288 527.201 355.53 526.553 355.89 525.971C356.25 525.388 356.722 524.883 357.278 524.484C357.834 524.085 358.464 523.8 359.131 523.645C359.796 523.488 360.486 523.463 361.161 523.573C361.836 523.683 362.482 523.924 363.063 524.284C363.645 524.644 364.149 525.115 364.548 525.671C364.947 526.226 365.233 526.854 365.388 527.52C365.702 528.864 365.471 530.278 364.744 531.453C364.018 532.627 362.856 533.465 361.513 533.784C360.17 534.096 358.757 533.864 357.585 533.138C356.412 532.411 355.575 531.251 355.256 529.909ZM338.73 533.798C338.571 533.132 338.546 532.442 338.655 531.766C338.765 531.09 339.006 530.443 339.366 529.861C339.726 529.279 340.198 528.774 340.754 528.374C341.309 527.975 341.938 527.689 342.605 527.534C343.271 527.375 343.961 527.35 344.637 527.46C345.312 527.569 345.96 527.81 346.542 528.17C347.124 528.53 347.629 529.002 348.028 529.558C348.428 530.113 348.713 530.743 348.869 531.409C349.181 532.753 348.949 534.166 348.223 535.34C347.497 536.513 346.336 537.352 344.994 537.673C343.65 537.985 342.236 537.753 341.063 537.027C339.889 536.301 339.051 535.14 338.73 533.798ZM322.204 537.687C322.046 537.021 322.022 536.331 322.132 535.655C322.241 534.98 322.483 534.333 322.843 533.751C323.203 533.17 323.674 532.664 324.229 532.265C324.784 531.865 325.413 531.579 326.079 531.423C326.745 531.264 327.435 531.239 328.111 531.348C328.786 531.458 329.434 531.699 330.016 532.059C330.598 532.419 331.103 532.891 331.502 533.447C331.902 534.002 332.188 534.631 332.343 535.298C332.655 536.642 332.423 538.055 331.697 539.229C330.971 540.402 329.81 541.241 328.468 541.562C327.124 541.874 325.711 541.642 324.537 540.916C323.363 540.19 322.525 539.029 322.204 537.687ZM305.718 541.569C305.56 540.903 305.535 540.212 305.644 539.537C305.754 538.861 305.995 538.214 306.355 537.632C306.715 537.05 307.187 536.545 307.742 536.145C308.298 535.746 308.927 535.46 309.594 535.305C310.937 534.993 312.349 535.225 313.522 535.951C314.694 536.677 315.532 537.838 315.851 539.18C316.16 540.524 315.926 541.935 315.2 543.108C314.475 544.281 313.316 545.12 311.976 545.444C310.632 545.756 309.22 545.523 308.048 544.797C306.875 544.071 306.038 542.91 305.718 541.569ZM289.192 545.458C289.035 544.792 289.011 544.102 289.12 543.426C289.23 542.751 289.472 542.104 289.832 541.522C290.192 540.94 290.663 540.435 291.218 540.036C291.773 539.636 292.402 539.35 293.068 539.193C294.412 538.881 295.825 539.114 296.999 539.84C298.172 540.566 299.011 541.727 299.332 543.069C299.639 544.413 299.404 545.823 298.679 546.995C297.953 548.168 296.796 549.007 295.457 549.333C294.113 549.645 292.699 549.413 291.526 548.687C290.352 547.961 289.513 546.8 289.192 545.458ZM272.667 549.347C272.351 548.002 272.582 546.587 273.308 545.413C274.035 544.238 275.198 543.4 276.542 543.082C277.208 542.924 277.899 542.899 278.575 543.009C279.251 543.119 279.899 543.361 280.481 543.722C281.063 544.082 281.568 544.554 281.967 545.111C282.366 545.667 282.651 546.297 282.806 546.964C283.118 548.308 282.885 549.72 282.159 550.893C281.433 552.065 280.272 552.902 278.931 553.222C277.587 553.534 276.173 553.302 275 552.575C273.826 551.849 272.987 550.689 272.667 549.347ZM256.147 553.263C255.99 552.597 255.966 551.907 256.076 551.233C256.185 550.558 256.427 549.911 256.787 549.33C257.147 548.749 257.618 548.244 258.173 547.845C258.729 547.446 259.357 547.161 260.023 547.005C260.688 546.846 261.378 546.82 262.054 546.929C262.729 547.038 263.377 547.28 263.958 547.64C264.54 548 265.045 548.472 265.443 549.028C265.842 549.584 266.126 550.214 266.28 550.88C266.594 552.224 266.362 553.637 265.636 554.81C264.909 555.983 263.747 556.82 262.405 557.138C261.061 557.452 259.648 557.22 258.475 556.493C257.302 555.767 256.465 554.605 256.147 553.263ZM239.621 557.151C239.464 556.486 239.44 555.796 239.55 555.121C239.659 554.447 239.901 553.8 240.261 553.219C240.621 552.638 241.092 552.133 241.647 551.734C242.203 551.335 242.831 551.05 243.497 550.894C244.163 550.735 244.853 550.709 245.529 550.818C246.205 550.927 246.853 551.168 247.435 551.528C248.017 551.888 248.523 552.36 248.922 552.916C249.321 553.473 249.606 554.102 249.761 554.769C250.073 556.113 249.84 557.525 249.114 558.697C248.388 559.87 247.227 560.707 245.886 561.027C244.538 561.34 243.12 561.105 241.945 560.373C240.771 559.641 239.935 558.472 239.621 557.124V557.151ZM223.157 561.006C222.997 560.341 222.972 559.651 223.081 558.975C223.19 558.3 223.431 557.652 223.791 557.071C224.152 556.489 224.623 555.984 225.18 555.586C225.736 555.187 226.365 554.903 227.032 554.749C228.375 554.435 229.789 554.667 230.961 555.393C232.134 556.12 232.972 557.282 233.289 558.624C233.596 559.967 233.361 561.377 232.635 562.548C231.91 563.719 230.753 564.557 229.414 564.882C228.07 565.195 226.657 564.964 225.484 564.237C224.311 563.511 223.474 562.349 223.157 561.006ZM206.631 564.895C206.473 564.23 206.449 563.54 206.559 562.865C206.669 562.19 206.91 561.544 207.27 560.963C207.63 560.381 208.101 559.877 208.657 559.478C209.212 559.079 209.84 558.793 210.506 558.638C211.171 558.481 211.861 558.456 212.536 558.566C213.211 558.676 213.857 558.917 214.438 559.277C215.02 559.637 215.524 560.108 215.923 560.664C216.322 561.219 216.608 561.847 216.763 562.513C217.077 563.857 216.845 565.27 216.119 566.443C215.393 567.616 214.231 568.453 212.888 568.77C212.221 568.929 211.53 568.954 210.854 568.845C210.177 568.736 209.529 568.495 208.946 568.135C208.363 567.775 207.856 567.303 207.455 566.747C207.055 566.192 206.767 565.562 206.61 564.895H206.631ZM190.105 568.791C189.946 568.125 189.921 567.434 190.031 566.759C190.14 566.083 190.381 565.436 190.741 564.854C191.102 564.272 191.573 563.767 192.129 563.367C192.684 562.968 193.314 562.682 193.98 562.527C194.646 562.368 195.336 562.343 196.012 562.452C196.687 562.562 197.335 562.803 197.917 563.163C198.499 563.523 199.004 563.995 199.403 564.551C199.803 565.106 200.089 565.735 200.244 566.402C200.554 567.746 200.321 569.158 199.596 570.331C198.87 571.505 197.71 572.344 196.369 572.666C195.022 572.984 193.603 572.755 192.425 572.028C191.247 571.302 190.405 570.137 190.084 568.791H190.105ZM173.586 572.68C173.427 572.014 173.402 571.323 173.511 570.648C173.621 569.972 173.862 569.325 174.222 568.743C174.582 568.161 175.054 567.656 175.609 567.256C176.165 566.857 176.794 566.571 177.461 566.415C178.127 566.258 178.817 566.234 179.492 566.343C180.167 566.453 180.814 566.695 181.396 567.055C181.978 567.415 182.483 567.886 182.883 568.441C183.282 568.996 183.569 569.625 183.725 570.291C184.035 571.636 183.801 573.049 183.074 574.222C182.347 575.395 181.185 576.234 179.843 576.555C178.497 576.873 177.079 576.643 175.902 575.917C174.725 575.19 173.884 574.026 173.565 572.68H173.586ZM157.06 576.569C156.901 575.903 156.876 575.212 156.985 574.537C157.095 573.861 157.336 573.214 157.696 572.632C158.056 572.05 158.528 571.544 159.084 571.145C159.639 570.746 160.268 570.46 160.935 570.304C161.601 570.147 162.291 570.122 162.966 570.232C163.641 570.342 164.288 570.584 164.87 570.943C165.452 571.303 165.957 571.774 166.357 572.33C166.756 572.885 167.043 573.514 167.199 574.18C167.511 575.525 167.278 576.939 166.55 578.113C165.823 579.286 164.66 580.124 163.317 580.444C161.971 580.762 160.553 580.532 159.376 579.806C158.199 579.079 157.358 577.915 157.039 576.569H157.06ZM140.568 580.451C140.409 579.785 140.384 579.094 140.493 578.419C140.603 577.743 140.844 577.096 141.204 576.514C141.564 575.932 142.036 575.427 142.592 575.027C143.147 574.628 143.776 574.342 144.443 574.186C145.787 573.874 147.2 574.107 148.374 574.833C149.547 575.559 150.386 576.719 150.707 578.062C151.014 579.406 150.779 580.816 150.054 581.988C149.329 583.16 148.171 584 146.832 584.326C145.485 584.644 144.066 584.415 142.888 583.688C141.71 582.962 140.868 581.797 140.547 580.451H140.568Z" fill="#E33443"/>
<defs>
<clipPath id="clip0_435_9964">
<rect width="197" height="456" fill="white" transform="translate(217)"/>
</clipPath>
</defs>
</svg>
