<svg width="305" height="622" viewBox="0 0 305 622" fill="none" xmlns="http://www.w3.org/2000/svg">
<g clip-path="url(#clip0_348_9002)">
<path d="M256.612 621.559H46.6925C21.329 621.447 -0.106427 599.818 -9.43612e-05 574.454L2.23286 45.7486C2.25745 39.7141 3.4708 33.7436 5.8036 28.1782C8.13641 22.6127 11.543 17.5615 15.8286 13.3131C20.1142 9.06465 25.1949 5.70224 30.7804 3.41802C36.3659 1.13379 42.3468 -0.0274937 48.3813 0.000494099L259.277 0.976252C271.457 1.03253 283.115 5.92365 291.689 14.5741C300.264 23.2246 305.051 34.9262 305 47.1059L302.767 575.818C302.742 581.852 301.527 587.822 299.194 593.388C296.86 598.953 293.453 604.003 289.167 608.251C284.881 612.499 279.799 615.861 274.214 618.144C268.628 620.428 262.647 621.588 256.612 621.559Z" fill="#E33443"/>
<path d="M258.97 21.0661L218.082 20.8784C212.603 20.8784 208.137 25.4758 208.112 31.2115V38.6235C208.112 44.3592 203.621 48.9878 198.141 48.9565L118.442 48.5938C112.956 48.5938 108.534 43.8964 108.553 38.1669L108.59 30.7486C108.59 25.0191 104.212 20.3468 98.7014 20.3217L84.3152 20.2592L48.5311 20.0903C44.3016 20.0673 40.109 20.8783 36.1933 22.4771C32.2776 24.076 28.7155 26.4311 25.7108 29.4079C22.7061 32.3847 20.3179 35.9246 18.6826 39.8253C17.0474 43.726 16.1973 47.9107 16.1809 52.1403L14.0042 568.198C13.9853 572.422 14.7984 576.608 16.3973 580.517C17.9961 584.427 20.3493 587.983 23.3226 590.983C26.2958 593.983 29.8308 596.368 33.7257 598.002C37.6206 599.635 41.7992 600.486 46.0229 600.505L256.493 601.481C260.719 601.5 264.907 600.686 268.818 599.086C272.73 597.486 276.287 595.131 279.289 592.156C282.29 589.181 284.676 585.644 286.31 581.747C287.944 577.85 288.794 573.669 288.812 569.443L290.995 53.4163C291.019 49.1886 290.209 44.9978 288.612 41.0833C287.015 37.1688 284.662 33.6075 281.688 30.603C278.714 27.5985 275.176 25.2097 271.278 23.5733C267.38 21.9369 263.198 21.0849 258.97 21.0661Z" fill="#F5F4F5"/>
<path d="M169.638 503.948C169.394 510.203 169.169 516.02 168.975 520.88H199.211L195.508 502.31L169.638 503.948Z" fill="#F5F4F5"/>
<path d="M46.7798 511.718L47.0425 520.881H165.973C166.173 515.733 166.392 510.029 166.598 504.137L46.7798 511.718Z" fill="#F5F4F5"/>
<path d="M197.041 502.216L200.762 520.88H256.499L255.824 498.494L197.041 502.216Z" fill="#F5F4F5"/>
<path d="M172.671 241.275L183.211 180.171L155.602 178.126V241.275H172.671Z" fill="#F5F4F5"/>
<path d="M44.2907 477.797L14.3361 489.531L14.2485 510.754L45.1851 508.796L44.2907 477.797Z" fill="#F5F4F5"/>
<path d="M44.159 473.024L42.5202 416.111H42.4952V396.039L14.7173 398.985L14.3545 484.664L44.1464 472.993L44.159 473.024Z" fill="#F5F4F5"/>
<path d="M42.4954 351.236L14.9365 347.596L14.7363 394.432L42.4954 391.492V351.236Z" fill="#F5F4F5"/>
<path d="M247.918 396.89L246.754 413.197L214.204 416.712L216.725 429.616L253.672 426.826L253.122 408.324L256.068 396.064L247.918 396.89Z" fill="#F5F4F5"/>
<path d="M189.247 431.686L215.211 429.728L209.557 400.762L186.896 403.045L189.247 431.686Z" fill="#F5F4F5"/>
<path d="M189.497 434.689L191.48 458.845L195.001 491.977L196.446 499.227L255.736 495.48L253.766 429.848L189.497 434.689Z" fill="#F5F4F5"/>
<path d="M87.449 320.656L89.7321 324.565L44.0027 351.229V414.497L92.2591 411.082L185.269 401.7L181.866 360.23L93.0096 348.621L93.5976 344.136L181.522 355.614L175.724 285.447L88.7313 293.81L88.4436 290.807L175.48 282.438L172.472 245.822H88.7939L15.3054 259.176L14.9551 343.035L42.7768 346.707L87.449 320.656ZM48.6688 408.461C48.6688 408.461 49.0129 356.29 48.6688 354.344L85.9792 334.498L90.8142 405.803L48.6688 408.461Z" fill="#F5F4F5"/>
<path d="M244.865 397.196L211.064 400.605L213.622 413.74L243.927 410.469L244.865 397.196Z" fill="#F5F4F5"/>
<path d="M170.076 492.771C169.976 495.511 169.87 498.238 169.763 500.903L194.927 499.314L193.632 492.822L170.076 492.771Z" fill="#F5F4F5"/>
<path d="M115.883 241.276L120.318 221.179H154.094V178.014L48.4742 170.195V210.721L15.4797 218.183L15.3296 254.574L88.3865 241.276H115.883Z" fill="#F5F4F5"/>
<path d="M186.357 121.169L185.456 117.466L225.794 101.51L199.523 48.8438C199.046 48.9196 198.562 48.9572 198.079 48.9564L153.506 48.75L154.72 122.457L186.357 121.169Z" fill="#F5F4F5"/>
<path d="M247.486 92.9227L247.436 20.9917L218.082 20.8604C212.602 20.8604 208.136 25.4577 208.111 31.1934V38.6054C208.116 40.2645 207.727 41.9011 206.977 43.3808C206.227 44.8606 205.136 46.1415 203.795 47.1183L230.066 99.8156L247.486 92.9227Z" fill="#F5F4F5"/>
<path d="M95.8616 96.0064L92.4589 20.3224L84.2901 20.2849L52.3902 20.1348L38.7983 87.7937L95.8616 96.0064ZM88.5872 27.9721L89.6755 89.6264L47.2737 83.4216L56.5622 27.9659L88.5872 27.9721Z" fill="#F5F4F5"/>
<path d="M97.4007 96.2316V96.8571C97.4758 102.762 97.5946 113.401 97.6884 124.773L153.238 122.502L152.024 48.7258L118.405 48.5757C112.919 48.5757 108.497 43.8783 108.516 38.1489L108.553 30.7306C108.553 25.0011 104.175 20.3287 98.6642 20.3037H93.9668L97.3757 96.2253L97.4007 96.2316Z" fill="#F5F4F5"/>
<path d="M34.3145 87.168L47.7687 20.1221C39.3658 20.2691 31.3546 23.7007 25.4507 29.6817C19.5468 35.6628 16.2196 43.7179 16.1816 52.122L16.0439 85.548L16.1816 84.566L34.3145 87.168Z" fill="#F5F4F5"/>
<path d="M43.9463 169.857L15.693 167.762L15.5054 213.541L43.9463 207.105V169.857Z" fill="#F5F4F5"/>
<path d="M34.0134 88.6565L16.0431 86.0732L15.7241 160.206L19.5959 160.487L34.0134 88.6565Z" fill="#F5F4F5"/>
<path d="M91.0832 472.162L91.5586 412.646L44.0278 416.005L45.7041 474.313L91.0832 472.162Z" fill="#F5F4F5"/>
<path d="M99.8211 458.426L167.136 490.67C167.943 469.597 168.656 449.894 168.587 448.637L170.051 448.556L170.764 447.136C171.721 447.617 171.721 447.617 171.214 461.979C170.939 469.997 170.539 480.662 170.132 491.333H193.407L189.973 458.989L185.388 403.195L97.438 412.077L99.8211 458.426Z" fill="#F5F4F5"/>
<path d="M264.825 359.648L264.068 351.805L183.38 360.199L186.777 401.543L256.444 394.513L264.825 359.648Z" fill="#F5F4F5"/>
<path d="M154.094 225.707H123.958L120.518 241.275H154.094V225.707Z" fill="#F5F4F5"/>
<path d="M252.365 230.961L176.875 225.738L173.804 243.571L176.981 282.276L256.581 274.62L252.365 230.961ZM179.646 243.54L183.699 232.281L249.262 236.428L253.059 268.622L181.866 277.066L179.646 243.54Z" fill="#F5F4F5"/>
<path d="M260.196 311.862L256.881 277.629L177.225 285.285L180.221 321.713L260.196 311.862Z" fill="#F5F4F5"/>
<path d="M45.272 511.811L14.3667 513.769L14.2416 511.755L14.2041 520.881H45.5347L45.272 511.811Z" fill="#F5F4F5"/>
<path d="M290.444 75.9091L290.895 77.06L290.982 53.3916C291.019 44.861 287.666 36.6651 281.66 30.6066C275.654 24.5482 267.488 21.1233 258.958 21.0852L248.95 21.0352L248.993 92.3407L290.444 75.9091Z" fill="#F5F4F5"/>
<path d="M167.074 492.315L98.364 459.396L95.9434 412.228L93.0661 412.515L92.5783 473.594L45.748 475.821L45.7855 477.178L46.6925 508.671L166.736 501.078C166.849 498.188 166.961 495.242 167.074 492.315ZM48.6878 479.699L114.239 475.101L156.885 494.886L48.6753 500.74L48.6878 479.699Z" fill="#F5F4F5"/>
<path d="M270.91 155.121L273.725 138.446C249.081 129.658 247.379 103.956 247.454 96.1816L231.373 102.549L255.592 151.162L270.91 155.121Z" fill="#F5F4F5"/>
<path d="M183.011 355.684L216.512 352.2L209.907 322.614L180.59 326.23L183.011 355.684Z" fill="#F5F4F5"/>
<path d="M252.484 180.678L189.916 180.672L184.718 180.284L177.65 221.254L251.921 226.395L250.201 208.581L257.506 182.267L252.484 180.678Z" fill="#F5F4F5"/>
<path d="M250.952 173.135L251.733 153.582L227.145 104.219L188.991 119.305L202.126 173.135H250.952ZM225.657 110.223L248.174 153.094L244.916 166.448L206.361 164.997L196.722 124.453L225.657 110.223Z" fill="#F5F4F5"/>
<path d="M260.69 409.107L261.841 447.518L288.95 445.992L289.038 447.499L261.885 449.025L263.267 495.005L288.9 493.378L289.088 496.393L263.355 498.02L264.043 520.881H289.019L289.563 392.688L264.018 395.265L260.69 409.107Z" fill="#F5F4F5"/>
<path d="M95.9058 97.5384L38.5049 89.3008L24.1187 160.825L96.1373 166.161C96.4563 155.152 96.1998 121.369 95.9058 97.5384Z" fill="#F5F4F5"/>
<path d="M190.329 173.135H199.017L186.726 122.664L154.776 123.965L155.546 170.558L190.329 173.135Z" fill="#F5F4F5"/>
<path d="M14.0486 557.597L14.0049 568.186C14.0049 568.511 14.0048 568.812 14.0486 569.156V557.597Z" fill="#F5F4F5"/>
<path d="M97.6318 166.274L154.032 170.446L153.269 124.028L97.7006 126.299C97.8195 141.999 97.8695 158.743 97.6318 166.274Z" fill="#F5F4F5"/>
<path d="M260.634 316.365L211.408 322.432L218.019 352.043L263.63 347.302L260.634 316.365Z" fill="#F5F4F5"/>
<path d="M273.975 136.938L277.103 118.224L290.688 119.281L290.857 78.9932L248.95 95.5748C248.124 123.928 265.963 133.898 273.975 136.938Z" fill="#F5F4F5"/>
<path d="M257.838 209.25L259.552 226.92L290.257 229.047L290.407 192.656L264.706 184.537L257.838 209.25Z" fill="#F5F4F5"/>
<path d="M272.456 360.18L264.387 393.713L289.569 391.167L289.719 356.008C281.988 353.975 275.245 352.318 271.624 351.63L272.456 360.18Z" fill="#F5F4F5"/>
<path d="M255.461 173.711L290.445 184.757L290.526 164.86L256.168 155.984L255.461 173.711Z" fill="#F5F4F5"/>
<path d="M271.179 347.014C274 347.439 279.342 348.578 289.738 351.311L290.063 274.433L264.418 276.935L271.179 347.014Z" fill="#F5F4F5"/>
<path d="M264.099 273.9L290.075 271.405L290.238 233.581L259.996 231.492L264.099 273.9Z" fill="#F5F4F5"/>
<path d="M276.878 137.888C281.801 139.383 286.379 140.54 290.639 141.391L290.72 122.308L279.661 121.444L276.878 137.888Z" fill="#F5F4F5"/>
<path d="M273.845 155.878L290.545 160.194L290.62 142.943C286.298 142.08 281.638 140.904 276.622 139.384L273.845 155.878Z" fill="#F5F4F5"/>
<path d="M45.2723 511.811L45.535 520.88H47.0424L46.7797 511.717L166.623 504.136C166.392 510.028 166.173 515.732 165.998 520.88H169.012C169.206 516.02 169.432 510.178 169.675 503.948L195.546 502.309L199.248 520.88H200.787L197.034 502.216L255.83 498.463L256.506 520.849H264.049L263.361 497.987L289.093 496.361L288.9 493.346L263.255 494.973L261.872 448.993L289.025 447.467L288.937 445.959L261.828 447.486L260.671 409.074L264.005 395.232L289.55 392.655V391.154L264.368 393.7L272.437 360.168L271.605 351.605C275.226 352.305 281.969 353.963 289.7 355.983V351.286C279.305 348.552 273.963 347.414 271.142 346.989L264.349 276.878L289.994 274.376V271.348L264.018 273.85L259.908 231.436L290.157 233.531V228.997L259.452 226.87L257.738 209.2L264.618 184.487L290.319 192.618L290.357 184.718L255.367 173.672L256.08 155.946L290.438 164.822V160.156L273.738 155.84L276.515 139.346C281.519 140.866 286.191 142.041 290.513 142.905V141.353C286.266 140.503 281.688 139.346 276.753 137.851L279.523 121.407L290.582 122.27V119.242L276.996 118.185L273.869 136.9C265.825 133.86 248.018 123.89 248.85 95.5365L290.757 78.9548V77.0346L290.307 75.8837L248.856 92.2902L248.812 20.9847H247.298L247.348 92.9157L229.879 99.8273L203.608 47.13C202.362 48.0275 200.918 48.6131 199.399 48.8376L225.669 101.504L185.331 117.46L186.232 121.163L154.626 122.451L153.413 48.7438H151.905L153.119 122.551L97.5693 124.822C97.4754 113.45 97.3565 102.811 97.2815 96.9063V96.2808L93.9539 20.3029H92.4402L95.8429 95.9868L38.7984 87.793L52.3903 20.084H48.506C48.2558 20.084 48.0182 20.1153 47.768 20.1215L34.3138 87.1675L16.1746 84.5654L16.037 85.5475V86.0666L34.0135 88.6499L19.596 160.481L15.7243 160.199V167.755L43.9775 169.851V207.098L15.4991 213.516V218.157L48.4873 210.695V170.163L154.113 177.988V221.147H120.337L115.902 241.244H88.3808L15.324 254.542V259.145L88.8124 245.772H172.49L175.499 282.388L88.4621 290.757L88.7499 293.76L175.724 285.447L181.491 355.633L93.5974 344.149L93.0094 348.634L181.866 360.243L185.269 401.712L92.2589 411.095L44.0025 414.51V351.229L89.7319 324.565L87.4489 320.656L42.7766 346.707L14.9549 343.035V347.595L42.5139 351.236V391.492L14.7548 394.432V398.985L42.5327 396.039V416.111L44.1714 473.03V472.999L14.3795 484.671V489.537L44.3341 477.803L45.2285 508.802L14.2856 510.76V511.761L14.4107 513.775L45.2723 511.811ZM169.744 500.915C169.851 498.238 169.957 495.51 170.057 492.783L193.613 492.846L194.908 499.338L169.744 500.915ZM196.427 499.226L194.983 491.976L191.461 458.826L189.478 434.669L253.747 429.828L255.717 495.46L196.427 499.226ZM211.045 400.605L244.821 397.196L243.877 410.469L213.578 413.734L211.045 400.605ZM209.538 400.762L215.167 429.728L189.203 431.686L186.851 403.045L209.538 400.762ZM253.653 426.826L216.706 429.615L214.204 416.712L246.729 413.196L247.886 396.89L256.018 396.064L253.065 408.324L253.653 426.826ZM209.869 322.613L216.468 352.199L182.967 355.683L180.553 326.229L209.869 322.613ZM218.001 352.042L211.389 322.426L260.615 316.365L263.611 347.301L218.001 352.042ZM251.902 226.395L177.632 221.253L184.7 180.284L189.891 180.665H252.44L257.444 182.254L250.132 208.568L251.902 226.395ZM247.43 96.1807C247.361 103.956 249.062 129.657 273.7 138.445L270.885 155.12L255.561 151.161L231.342 102.548L247.43 96.1807ZM227.126 104.218L251.714 153.582L250.932 173.134H202.101L188.965 119.305L227.126 104.218ZM186.707 122.664L198.998 173.134H190.31L155.521 170.557L154.758 123.965L186.707 122.664ZM153.25 124.027L154.013 170.445L97.613 166.273C97.8507 158.767 97.8007 141.998 97.6818 126.298L153.25 124.027ZM38.4857 89.3004L95.8867 97.538C96.1806 121.369 96.4309 155.152 96.1431 166.16L24.1245 160.825L38.4857 89.3004ZM183.186 180.171L172.646 241.275H155.583V178.101L183.186 180.171ZM123.934 225.707H154.076V241.275H120.5L123.934 225.707ZM173.785 243.571L176.856 225.738L252.346 230.961L256.574 274.62L176.962 282.276L173.785 243.571ZM256.862 277.622L260.177 311.861L180.215 321.725L177.225 285.297L256.862 277.622ZM183.399 360.193L264.086 351.805L264.85 359.648L256.462 394.513L186.795 401.544L183.399 360.193ZM189.997 459.02L193.431 491.363H170.151C170.557 480.693 170.958 470.028 171.233 462.009C171.74 447.623 171.739 447.623 170.782 447.167L170.069 448.586L168.606 448.668C168.675 449.919 167.98 469.628 167.155 490.701L99.8398 458.457L97.4629 412.108L185.413 403.226L189.997 459.02ZM91.5708 412.677L91.0955 472.192L45.7226 474.344L44.04 416.036L91.5708 412.677ZM45.7914 477.209L45.7539 475.851L92.5842 473.625L93.072 412.546L95.9492 412.258L98.3699 459.426L167.08 492.346C166.967 495.273 166.854 498.219 166.742 501.14L46.6984 508.733L45.7914 477.209Z" fill="white"/>
<g opacity="0.72">
<path d="M114.239 475.102L48.6875 479.699V500.74L156.884 494.886L114.239 475.102Z" fill="#D9D9D9"/>
</g>
<g opacity="0.72">
<path d="M249.275 236.434L183.705 232.287L179.652 243.54L181.872 277.072L253.065 268.628L249.275 236.434Z" fill="#D9D9D9"/>
</g>
<path d="M46.0232 600.493L256.493 601.469C260.719 601.488 264.907 600.674 268.819 599.074C272.73 597.474 276.288 595.119 279.289 592.144C282.29 589.169 284.676 585.632 286.31 581.735C287.944 577.838 288.794 573.657 288.812 569.431L289.019 520.881H14.2047L14.0483 557.597V569.156C14.2596 577.511 17.716 585.455 23.6848 591.305C29.6537 597.154 37.6659 600.45 46.0232 600.493Z" fill="#EBEBEB"/>
<g opacity="0.72">
<path d="M89.6757 89.6259L88.5874 27.9717H56.5624L47.2739 83.4211L89.6757 89.6259Z" fill="#D9D9D9"/>
</g>
<g opacity="0.72">
<path d="M244.94 166.449L248.193 153.095L225.656 110.224L196.74 124.453L206.379 164.998L244.94 166.449Z" fill="#D9D9D9"/>
</g>
<g opacity="0.72">
<path d="M48.6875 354.345C49.0315 356.29 48.6875 408.462 48.6875 408.462L90.8328 405.791L85.9978 334.485L48.6875 354.345Z" fill="#D9D9D9"/>
</g>
<g opacity="0.72">
<path d="M189.259 396.709L187.026 364.377L259.314 355.089V360.662L250.576 390.391L189.259 396.709Z" fill="#D9D9D9"/>
</g>
<path d="M135.787 128.619C135.787 130.955 134.859 133.195 133.207 134.846C131.556 136.498 129.316 137.426 126.98 137.426C124.645 137.424 122.407 136.496 120.756 134.844C119.106 133.193 118.179 130.954 118.179 128.619C118.179 126.285 119.106 124.046 120.757 122.396C122.407 120.746 124.646 119.818 126.98 119.818C128.136 119.818 129.281 120.045 130.35 120.486C131.418 120.928 132.389 121.576 133.207 122.394C134.025 123.211 134.673 124.182 135.116 125.25C135.559 126.318 135.787 127.463 135.787 128.619Z" fill="#E9505B"/>
<g opacity="0.6">
<path d="M135.78 128.244C135.879 130.576 135.047 132.851 133.468 134.571C131.89 136.29 129.693 137.313 127.361 137.413C126.206 137.464 125.052 137.286 123.965 136.89C122.878 136.494 121.88 135.887 121.028 135.106C120.176 134.324 119.486 133.381 118.998 132.333C118.511 131.284 118.234 130.15 118.185 128.994C118.136 127.839 118.314 126.686 118.711 125.6C119.107 124.514 119.713 123.517 120.495 122.665C121.277 121.814 122.219 121.125 123.267 120.637C124.315 120.15 125.449 119.874 126.604 119.824C128.938 119.724 131.215 120.555 132.936 122.134C134.656 123.713 135.68 125.91 135.78 128.244Z" fill="white"/>
</g>
<path d="M126.986 134.173C130.219 134.173 132.84 131.552 132.84 128.318C132.84 125.085 130.219 122.464 126.986 122.464C123.753 122.464 121.131 125.085 121.131 128.318C121.131 131.552 123.753 134.173 126.986 134.173Z" fill="#E33443"/>
<path d="M263.08 480.293C263.08 481.288 262.684 482.243 261.98 482.947C261.277 483.651 260.322 484.046 259.327 484.046C258.331 484.046 257.377 483.651 256.673 482.947C255.969 482.243 255.574 481.288 255.574 480.293C255.574 479.298 255.969 478.343 256.673 477.639C257.377 476.935 258.331 476.54 259.327 476.54C260.322 476.54 261.277 476.935 261.98 477.639C262.684 478.343 263.08 479.298 263.08 480.293Z" fill="#E33443"/>
<path d="M257.056 479.067L256.149 457.988L192.6 461.071C190.939 461.156 189.285 460.804 187.802 460.052L97.6695 414.535C96.6445 414.013 95.7745 413.231 95.1466 412.268C94.5187 411.304 94.1549 410.192 94.0917 409.043L81.8259 171.114C81.7973 170.551 81.8885 169.989 82.0933 169.464C82.2982 168.939 82.6121 168.463 83.0144 168.068C83.4196 167.675 83.903 167.372 84.4332 167.178C84.9634 166.984 85.5286 166.904 86.0918 166.942L124.722 169.801V127.574H129.244V170.389C129.246 170.934 129.135 171.474 128.92 171.976C128.705 172.477 128.39 172.929 127.993 173.304C127.591 173.675 127.117 173.959 126.601 174.141C126.085 174.323 125.537 174.398 124.991 174.361L86.392 171.502L98.6328 408.806C98.6511 409.159 98.7626 409.502 98.9559 409.798C99.1492 410.095 99.4175 410.335 99.7336 410.495L189.86 456.017C190.644 456.417 191.521 456.603 192.4 456.555L256.474 453.428C257.001 453.402 257.527 453.48 258.023 453.658C258.519 453.836 258.975 454.111 259.364 454.466C259.755 454.82 260.072 455.249 260.295 455.727C260.519 456.205 260.644 456.723 260.665 457.25L261.597 478.86L257.056 479.067Z" fill="#E33443"/>
<path d="M89.2068 285.823C95.5043 285.823 100.609 280.718 100.609 274.42C100.609 268.123 95.5043 263.018 89.2068 263.018C82.9093 263.018 77.8042 268.123 77.8042 274.42C77.8042 280.718 82.9093 285.823 89.2068 285.823Z" fill="#E33443"/>
<path d="M89.2067 282.345C93.5835 282.345 97.1316 278.797 97.1316 274.42C97.1316 270.043 93.5835 266.495 89.2067 266.495C84.8298 266.495 81.2817 270.043 81.2817 274.42C81.2817 278.797 84.8298 282.345 89.2067 282.345Z" fill="#FBFBFB"/>
<path d="M89.2067 282.907C86.956 282.906 84.7981 282.011 83.2066 280.42C81.6152 278.828 80.7204 276.67 80.7188 274.42C80.7204 272.169 81.6152 270.011 83.2066 268.42C84.7981 266.828 86.956 265.933 89.2067 265.932C91.4589 265.932 93.6191 266.825 95.2129 268.417C96.8067 270.008 97.7037 272.167 97.707 274.42C97.7062 275.535 97.4856 276.639 97.058 277.67C96.6304 278.7 96.004 279.636 95.2147 280.424C94.4253 281.212 93.4885 281.837 92.4576 282.263C91.4268 282.689 90.3221 282.908 89.2067 282.907ZM89.2067 267.064C87.2557 267.065 85.385 267.841 84.0049 269.22C82.6248 270.599 81.848 272.469 81.8447 274.42C81.8463 276.371 82.6227 278.242 84.0032 279.621C85.3836 281 87.2552 281.775 89.2067 281.775C91.157 281.774 93.027 280.998 94.4061 279.619C95.7852 278.24 96.5607 276.37 96.5624 274.42C96.5591 272.47 95.783 270.601 94.4043 269.222C93.0255 267.843 91.1565 267.067 89.2067 267.064Z" fill="#E9505B"/>
<path d="M138.445 99.052C138.444 97.3839 138.073 95.7366 137.36 94.2285C136.647 92.7203 135.609 91.3887 134.321 90.3292C133.032 89.2697 131.525 88.5086 129.908 88.1004C128.29 87.6922 126.603 87.6471 124.966 87.9684C122.737 88.4093 120.693 89.5117 119.101 91.1319C117.509 92.7521 116.442 94.8147 116.04 97.0505C115.564 99.7018 116.054 102.436 117.422 104.756L117.46 104.794C117.891 105.526 118.429 106.045 118.98 106.814L125.535 115.496C125.724 115.749 125.97 115.953 126.252 116.095C126.534 116.236 126.845 116.309 127.161 116.309C127.477 116.309 127.788 116.236 128.07 116.095C128.352 115.953 128.598 115.749 128.787 115.496L135.236 106.958C135.821 106.264 136.368 105.54 136.875 104.788C137.903 103.051 138.445 101.07 138.445 99.052ZM127.155 103.968C126.502 103.968 125.856 103.84 125.253 103.59C124.65 103.34 124.102 102.973 123.641 102.512C123.18 102.05 122.814 101.501 122.565 100.898C122.315 100.295 122.188 99.6485 122.188 98.9958C122.188 97.6786 122.712 96.4154 123.643 95.484C124.574 94.5526 125.838 94.0294 127.155 94.0294C128.472 94.0294 129.735 94.5526 130.667 95.484C131.598 96.4154 132.121 97.6786 132.121 98.9958C132.12 100.312 131.596 101.573 130.664 102.503C129.733 103.433 128.471 103.956 127.155 103.956V103.968Z" fill="#E33443"/>
<path d="M143.668 588.746H161.332L152.5 596.802L143.668 588.746Z" fill="white"/>
<path d="M171.883 529.95H133.109C127.582 529.95 123.102 534.431 123.102 539.958V578.732C123.102 584.259 127.582 588.74 133.109 588.74H171.883C177.41 588.74 181.891 584.259 181.891 578.732V539.958C181.891 534.431 177.41 529.95 171.883 529.95Z" fill="white"/>
<path d="M161.795 580.452H151.162C148.472 580.452 145.789 580.452 143.099 580.452H139.734C138.421 580.392 137.16 579.924 136.125 579.113C135.09 578.303 134.334 577.19 133.961 575.93C133.788 575.339 133.702 574.726 133.704 574.11C133.704 567.104 133.704 554.545 133.704 547.539C133.686 547.323 133.724 547.105 133.815 546.908C133.906 546.711 134.047 546.541 134.224 546.415C134.4 546.288 134.607 546.21 134.823 546.188C135.039 546.166 135.257 546.2 135.456 546.288C135.688 546.397 135.88 546.577 136.002 546.802C136.125 547.027 136.172 547.285 136.138 547.539C136.138 550.004 136.138 558.022 136.138 560.487C136.108 560.864 136.169 561.244 136.316 561.593C136.462 561.943 136.691 562.252 136.982 562.495C138.233 563.595 139.353 564.771 140.516 565.935C140.99 566.424 141.559 566.81 142.188 567.07C142.818 567.329 143.494 567.456 144.175 567.442C149.759 567.442 155.342 567.442 160.926 567.442C162.184 567.481 163.41 567.033 164.347 566.191C164.567 565.95 164.873 565.804 165.199 565.786C165.525 565.767 165.846 565.877 166.092 566.091C166.32 566.338 166.446 566.662 166.446 566.998C166.446 567.334 166.32 567.658 166.092 567.905C165.564 568.498 164.895 568.95 164.147 569.219C163.087 569.679 161.943 569.913 160.788 569.907C155.077 569.907 149.367 569.907 143.656 569.907C142.335 569.864 141.061 569.411 140.009 568.612C138.832 567.731 137.741 566.74 136.751 565.653C136.603 565.487 136.469 565.309 136.35 565.122L136.2 565.247C136.2 565.353 136.2 565.466 136.2 565.572C136.2 568.368 136.2 571.201 136.2 573.972C136.151 574.938 136.464 575.888 137.079 576.635C137.693 577.383 138.564 577.874 139.521 578.013C139.787 578.049 140.054 578.064 140.322 578.057H164.81C165.362 578.091 165.915 578.008 166.432 577.813C166.95 577.617 167.42 577.314 167.811 576.923C168.202 576.532 168.505 576.062 168.701 575.545C168.896 575.027 168.979 574.474 168.944 573.922C168.944 565.336 168.944 556.748 168.944 548.158C168.944 547.746 168.807 547.677 168.431 547.677C157.423 547.677 146.414 547.677 135.406 547.677H133.129C132.859 547.661 132.59 547.703 132.337 547.799C132.085 547.895 131.855 548.043 131.664 548.234C131.473 548.425 131.324 548.653 131.227 548.906C131.13 549.158 131.088 549.427 131.102 549.697C131.102 550.992 131.102 552.293 131.102 553.588C131.115 553.844 131.046 554.097 130.906 554.312C130.765 554.527 130.56 554.691 130.321 554.782C130.099 554.87 129.856 554.89 129.623 554.839C129.39 554.787 129.178 554.668 129.013 554.495C128.808 554.292 128.687 554.019 128.676 553.731C128.607 552.214 128.619 550.694 128.713 549.178C128.792 548.086 129.293 547.067 130.111 546.338C130.928 545.609 131.997 545.228 133.091 545.275C133.455 545.32 133.823 545.238 134.132 545.042C134.442 544.845 134.673 544.547 134.787 544.199C135.331 543.011 135.981 541.866 136.6 540.709C136.966 539.956 137.543 539.326 138.26 538.895C138.978 538.464 139.805 538.251 140.641 538.282H164.41C165.254 538.248 166.091 538.462 166.815 538.899C167.539 539.336 168.118 539.976 168.482 540.74C169.213 542.122 169.945 543.505 170.664 544.893C170.709 545.009 170.792 545.106 170.898 545.169C171.005 545.233 171.129 545.259 171.252 545.244C172.043 545.18 172.838 545.276 173.592 545.525C174.418 545.837 175.132 546.391 175.637 547.116C176.143 547.84 176.418 548.701 176.425 549.584C176.425 550.91 176.425 552.243 176.425 553.569C176.437 553.736 176.413 553.904 176.355 554.061C176.296 554.219 176.204 554.362 176.086 554.48C175.967 554.599 175.824 554.691 175.667 554.749C175.51 554.808 175.342 554.832 175.174 554.82C175.006 554.827 174.839 554.798 174.684 554.735C174.528 554.671 174.388 554.575 174.273 554.453C174.158 554.331 174.07 554.185 174.016 554.026C173.963 553.867 173.944 553.698 173.961 553.531C173.961 552.28 173.961 551.029 173.961 549.735C173.973 549.429 173.917 549.124 173.796 548.842C173.674 548.561 173.491 548.311 173.26 548.11C173.028 547.91 172.755 547.764 172.459 547.683C172.164 547.603 171.854 547.59 171.553 547.645C171.384 547.645 171.29 547.708 171.302 547.896C171.315 548.083 171.302 548.152 171.302 548.277C171.302 556.867 171.302 565.455 171.302 574.041C171.328 575.534 170.823 576.989 169.877 578.145C168.931 579.3 167.605 580.083 166.136 580.352H165.992L161.795 580.452ZM152.513 545.2H167.6C167.981 545.2 168.081 545.15 167.875 544.774C167.337 543.805 166.83 542.823 166.324 541.841C166.153 541.473 165.876 541.165 165.527 540.958C165.179 540.75 164.777 540.653 164.372 540.678C156.449 540.678 148.541 540.678 140.647 540.678C140.234 540.657 139.824 540.762 139.471 540.978C139.118 541.195 138.839 541.513 138.671 541.891C138.189 542.835 137.695 543.767 137.201 544.706C136.938 545.2 136.938 545.2 137.52 545.2H152.513Z" fill="#E33443"/>
<path d="M139.677 573.934C139.67 573.709 139.71 573.485 139.793 573.275C139.877 573.066 140.002 572.876 140.163 572.718C140.323 572.559 140.514 572.436 140.724 572.354C140.935 572.273 141.159 572.236 141.385 572.246C141.606 572.241 141.827 572.28 142.033 572.361C142.239 572.443 142.427 572.564 142.585 572.719C142.744 572.874 142.87 573.06 142.956 573.264C143.042 573.468 143.086 573.688 143.086 573.909C143.092 574.135 143.052 574.359 142.969 574.568C142.886 574.778 142.761 574.968 142.601 575.128C142.442 575.288 142.252 575.413 142.043 575.497C141.834 575.581 141.61 575.622 141.385 575.617C141.16 575.627 140.935 575.591 140.725 575.511C140.515 575.43 140.323 575.307 140.163 575.149C140.003 574.991 139.877 574.802 139.793 574.593C139.709 574.384 139.67 574.159 139.677 573.934Z" fill="#E33443"/>
<path d="M165.341 573.946C165.346 574.172 165.305 574.397 165.22 574.605C165.134 574.814 165.006 575.003 164.844 575.16C164.682 575.317 164.489 575.439 164.277 575.517C164.065 575.596 163.84 575.63 163.614 575.617C163.393 575.619 163.174 575.577 162.969 575.494C162.764 575.411 162.578 575.288 162.421 575.131C162.265 574.975 162.141 574.79 162.057 574.585C161.973 574.381 161.93 574.161 161.932 573.94C161.928 573.714 161.969 573.49 162.054 573.281C162.14 573.071 162.267 572.882 162.428 572.723C162.589 572.564 162.78 572.44 162.991 572.358C163.201 572.276 163.426 572.237 163.652 572.245C163.877 572.237 164.101 572.276 164.311 572.359C164.52 572.442 164.71 572.567 164.868 572.727C165.027 572.886 165.151 573.077 165.232 573.287C165.313 573.497 165.35 573.722 165.341 573.946Z" fill="#E33443"/>
</g>
<defs>
<clipPath id="clip0_348_9002">
<rect width="305" height="621.559" fill="white"/>
</clipPath>
</defs>
</svg>
